<svg xmlns:ns0="http://www.iki.fi/pav/software/textext/" xmlns="http://www.w3.org/2000/svg" viewBox="0 0 694.2 95.4" height="360.4" width="2623.9"><g transform="translate(-40.6 -115)"><circle transform="matrix(0 1 1 0 0 0)" r="33.1" cy="75.7" cx="173.8" fill="#fff" stroke="#000" stroke-width="4" stroke-linejoin="round"/><rect width="66.3" height="66.3" x="165.8" y="141.5" ry=".7" fill="#fff" stroke="#000" stroke-width="4" stroke-linejoin="round"/><rect ry=".4" y="175" x="110.2" height=".7" width="43.4" fill="#fff" stroke="#000" stroke-width="2.6" stroke-linejoin="round"/><path d="M146.6 183.6v-8.3l.1-8.3 7.2 4.2 7.2 4.2-7.2 4.1z" fill="#fff" stroke="#000" stroke-width="2.6" stroke-linejoin="round"/><g transform="translate(123.8)"><rect ry=".4" y="175" x="110.2" height=".7" width="43.4" fill="#fff" stroke="#000" stroke-width="2.6" stroke-linejoin="round"/><path d="M146.6 183.6v-8.3l.1-8.3 7.2 4.2 7.2 4.2-7.2 4.1z" fill="#fff" stroke="#000" stroke-width="2.6" stroke-linejoin="round"/></g><path d="M72.4 164.3h4.8c.5 0 1 0 1-1l-1.5-.5h-3.8l1-5.5 1.4-5c0-1.5 1-2 1.9-2 0 0 1.4 0 2.4 1a2.9 3 0 0 0-2.4 2.5c0 1 1 1.5 1.4 1.5 1.5 0 3-1 3-3s-2.5-3-4.4-3c-1.5 0-4.8.5-5.8 5.5l-2 8h-3.3c-.5 0-1 0-1 1l1 .5h3.4l-3.9 20c-.4 4.4-1.4 8.9-3.8 8.9 0 0-1.4 0-2.4-1 2 0 2.4-2 2.4-2.5 0-1.5-.5-2-1.4-2-1.5 0-3 1-3 3 0 2.5 2.5 3.5 4.4 3.5 2.4 0 4.8-3 5.3-5 1.4-3 2.9-9 2.9-9.5zm23.5 16v-5l-.5-.6v-1l-.4-.4v-1l-.5-.5v-.5a9.4 9.4 0 0 0-6.3-3v1c2 0 3.4 1 4.4 3v15.4c-1 3-3 4-4.8 4-1 0-3.4-1-3.9-4l-.5-7.5.5-7c1-3 2.9-3.4 4.3-3.4v-1c-7.7 0-7.7 10-7.7 12 0 2.4 0 11.9 7.7 11.9s7.7-9.5 7.7-12z" ns0:jacobian_sqrt=".4" ns0:alignment="middle center" ns0:scale="1" ns0:preamble="/home/owen/.config/inkscape/extensions/textext/default_packages.tex" ns0:text="$f_0$" ns0:pdfconverter="pstoedit" ns0:texconverter="lualatex" ns0:version="0.11.0" font-weight="400" fill-rule="evenodd"/><path d="M195 167.3h5c.5 0 1 0 1-1l-1.5-.5h-4l1-5.5 1.5-5c0-1.5 1-2 2-2 0 0 1.4 0 2.4 1a3 3 0 0 0-2.4 2.5c0 1 1 1.5 1.4 1.5 1.5 0 3-1 3-3s-2.5-3-4.4-3c-1.5 0-5 .5-6 5.5l-2 8h-3.5c-.5 0-1 0-1 1l1 .5h3.5l-4 20c-.5 4.4-1.5 8.9-4 8.9 0 0-1.5 0-2.5-1 2 0 2.5-2 2.5-2.5 0-1.5-.5-2-1.5-2-1.5 0-3 1-3 3 0 2.5 2.5 3.5 4.5 3.5 2.5 0 5-3 5.5-5 1.5-3 3-9 3-9.5zm18.4 5v-.5h-.5v-.5h-.5c-2.5 2-6 2-7 2v1.5c.5 0 3 0 5-1v17.9c0 1 0 1.5-3.5 1.5h-1.5v1.5H218v-1.5h-1c-3.5 0-3.5 0-3.5-1.5z" ns0:jacobian_sqrt=".4" ns0:alignment="middle center" ns0:scale="1" ns0:preamble="/home/owen/.config/inkscape/extensions/textext/default_packages.tex" ns0:text="$f_1$" ns0:pdfconverter="pstoedit" ns0:texconverter="lualatex" ns0:version="0.11.0" font-weight="400" fill-rule="evenodd"/><circle transform="matrix(0 1 1 0 0 0)" r="33.1" cy="323.4" cx="174.7" fill="#fff" stroke="#000" stroke-width="4" stroke-linejoin="round"/><g transform="translate(247.7)"><rect ry=".4" y="175" x="110.2" height=".7" width="43.4" fill="#fff" stroke="#000" stroke-width="2.6" stroke-linejoin="round"/><path d="M146.6 183.6v-8.3l.1-8.3 7.2 4.2 7.2 4.2-7.2 4.1z" fill="#fff" stroke="#000" stroke-width="2.6" stroke-linejoin="round"/></g><rect width="66.3" height="66.3" x="413.7" y="142" ry=".7" fill="#fff" stroke="#000" stroke-width="4" stroke-linejoin="round"/><g transform="translate(371.8 .4)"><rect ry=".4" y="175" x="110.2" height=".7" width="43.4" fill="#fff" stroke="#000" stroke-width="2.6" stroke-linejoin="round"/><path d="M146.6 183.6v-8.3l.1-8.3 7.2 4.2 7.2 4.2-7.2 4.1z" fill="#fff" stroke="#000" stroke-width="2.6" stroke-linejoin="round"/></g><circle transform="matrix(0 1 1 0 0 0)" r="33.1" cy="571.3" cx="175.2" fill="#fff" stroke="#000" stroke-width="4" stroke-linejoin="round"/><path d="M319 167.3h5c.5 0 1 0 1-1l-1.5-.5h-4l1-5.5 1.5-5c0-1.5 1-2 2-2 0 0 1.4 0 2.4 1a3 3 0 0 0-2.4 2.5c0 1 1 1.5 1.4 1.5 1.5 0 3-1 3-3s-2.5-3-4.4-3c-1.5 0-5 .5-6 5.5l-2 8h-3.5c-.5 0-1 0-1 1l1 .5h3.5l-4 20c-.5 4.4-1.5 8.9-4 8.9 0 0-1.5 0-2.5-1 2 0 2.5-2 2.5-2.5 0-1.5-.5-2-1.5-2-1.5 0-3 1-3 3 0 2.5 2.5 3.5 4.5 3.5 2.5 0 5-3 5.5-5 1.5-3 3-9 3-9.5zm23.9 21h-1c0 .4 0 2.9-1 2.9h-10l7-5.5c2.5-2 5-4.5 5-7.5 0-4.4-3.5-7-8-7s-7.5 3-7.5 6.5c0 1.5 1.5 1.5 2 1.5 1 0 2 0 2-1.5 0-1 0-2-2.5-2 1.5-2.4 4-3.4 5-3.4 4 0 6 3 6 6s-2.5 5-3.5 6.4l-9 8.5v1.5h14z" ns0:jacobian_sqrt="3.5" ns0:alignment="middle center" ns0:scale="10" ns0:preamble="/home/owen/.config/inkscape/extensions/textext/default_packages.tex" ns0:text="$f_2$" ns0:pdfconverter="pstoedit" ns0:texconverter="lualatex" ns0:version="0.11.0" font-weight="400" fill-rule="evenodd"/><path d="M442.4 167.7h5c.5 0 1 0 1-1l-1.5-.5h-4l1-5.5 1.5-5c0-1.5 1-2 2-2 0 0 1.4 0 2.4 1a3 3 0 0 0-2.4 2.5c0 1 1 1.5 1.4 1.5 1.5 0 3-1 3-3s-2.5-3-4.4-3c-1.5 0-5 .5-6 5.5l-2 8h-3.5c-.5 0-1 0-1 1l1 .5h3.5l-4 20c-.5 4.4-1.5 8.9-4 8.9 0 0-1.5 0-2.5-1 2 0 2.5-2 2.5-2.5 0-1.5-.5-2-1.5-2-1.5 0-3 1-3 3 0 2.5 2.5 3.5 4.5 3.5 2.5 0 5-3 5.5-5 1.5-3 3-9 3-9.5zm16 16h2.4v.4h.5v.5h.5v.5h.5v1l.5.5v2c0 5-2 6-4.5 6-1 0-4.5-.5-6-2.5 2 0 2.5-1.5 2.5-2 0-1-1-2-2-2a2 2 0 0 0-2 2c0 3.5 3.5 5.5 8 5.5 5 0 8-3.5 8-7 0-2.5-2-5-6-6 3.5-1.5 5-4 5-6.4s-3.5-5-7-5c-4 0-7 2.5-7 5 0 1.4.5 2 2 2 1 0 1.5-1 1.5-2s-.5-1.5-1.5-1.5c1-1.5 3.5-2 5-2s3.5.5 3.5 3.5c0 1.4-.5 3.4-1.5 4.4-1 1.5-2 1.5-3.5 1.5h-1.5v.5l.5.5z" ns0:jacobian_sqrt="3.5" ns0:alignment="middle center" ns0:scale="10" ns0:preamble="/home/owen/.config/inkscape/extensions/textext/default_packages.tex" ns0:text="$f_3$" ns0:pdfconverter="pstoedit" ns0:texconverter="lualatex" ns0:version="0.11.0" font-weight="400" fill-rule="evenodd"/><path d="M566.5 167.8h5c.5 0 1 0 1-1l-1.5-.5h-4l1-5.5 1.5-5c0-1.5 1-2 2-2 0 0 1.4 0 2.4 1a3 3 0 0 0-2.4 2.5c0 1 1 1.5 1.4 1.5 1.5 0 3-1 3-3s-2.5-3-4.4-3c-1.5 0-5 .5-6 5.5l-2 8H560c-.5 0-1 0-1 1l1 .5h3.5l-4 20c-.5 4.4-1.5 8.9-4 8.9 0 0-1.5 0-2.5-1 2 0 2.5-2 2.5-2.5 0-1.5-.5-2-1.5-2-1.5 0-3 1-3 3 0 2.5 2.5 3.5 4.5 3.5 2.5 0 5-3 5.5-5 1.5-3 3-9 3-9.5zm24.9 21.4v-1.5h-4v-15l-.5-1.4-1 .5-11.5 16h1l9.5-12.5v13h-10.5v1h10v2.9c0 1 0 1.5-2.5 1.5h-1v1.5a109.6 109.6 0 0 1 10 0v-1.5h-.5c-3 0-3 0-3-1.5v-3z" ns0:jacobian_sqrt="3.5" ns0:alignment="middle center" ns0:scale="10" ns0:preamble="/home/owen/.config/inkscape/extensions/textext/default_packages.tex" ns0:text="$f_4$" ns0:pdfconverter="pstoedit" ns0:texconverter="lualatex" ns0:version="0.11.0" font-weight="400" fill-rule="evenodd"/><path d="M169 120.1l.2-.2v-.1h.2v-.2l.2-.2.1-.2h.2v-.1h.2v-.2h.7l.2-.2h.2c.1 0 .3 0 .3-.3v-.2h-3.3s-.4 0-.4.3h.4c.3.2 1 .4 1 1l-.3.4-4.6 8.3-.7-8.8c0-.2 0-.7 1.2-.7.2 0 .4 0 .4-.3l-.2-.2h-4c-.2 0-.3 0-.3.3h.3c.7 0 .9.2.9.6v1.4l-4.2 7.7-.8-8.8c0-.3 0-.7 1.3-.7.2 0 .3 0 .3-.3l-.1-.2h-4c-.1 0-.3 0-.3.3h.4c.9 0 .9.4.9 1l.8 10.5.2.5c.4 0 .4 0 .5-.3l5.2-9 .7 8.8.1.5c.4 0 .4-.2.6-.3zm4.8 4.8v-.4h-.3c-1 .7-2 .7-2.5.7v.6c.3 0 1 0 1.7-.4v6.4c0 .3 0 .5-1.2.5h-.5v.5h4.6v-.5h-.6c-1.2 0-1.2 0-1.2-.5zm11 .9v-.6h-.2v-.1h-.2v-.2h-.7a.9.9 0 0 0-.9.9c0 .5.4.8.9.8s.9-.3.9-.8zm11.8-2.7h1.5c.4 0 .6 0 .6-.3l-.6-.2h-1.4l.4-2 .3-1.7a1 1 0 0 1 1-.7s.5 0 .8.3a1 1 0 0 0-1 1c0 .3.3.4.7.4.5 0 1-.3 1-1s-.9-1-1.6-1c-.5 0-1.7.1-2.3 1.9l-.5 2.8h-1.2c-.4 0-.6 0-.6.3l.6.2h1.2l-1.4 7c-.4 1.7-.5 3.2-1.4 3.2 0 0-.6 0-.9-.3.7 0 .9-.7.9-.9 0-.5-.4-.7-.6-.7a1 1 0 0 0-1 1c0 1 .7 1.3 1.6 1.3s1.6-1 1.7-1.8c.7-1 1.1-3.1 1.1-3.3zm8.6 5.7v-1.5l-.2-.3v-.5l-.2-.2v-.2l-.1-.2v-.1l-.2-.2c-.4-.5-1.2-1-2.1-1v.3c.5 0 1.2.3 1.4 1l.2 2.7v2.6a2 2 0 0 1-1.8 1.4c-.5 0-1.2-.3-1.4-1.4l-.2-2.6V126c.4-1 1.3-1.2 1.8-1.2v-.4c-3 0-3 3.6-3 4.3 0 .8 0 4.2 3 4.2 2.8 0 2.8-3.4 2.8-4.2zm12.5-2.7h5c.1 0 .5 0 .5-.3s-.4-.4-.5-.4h-5v-5c0-.1 0-.5-.3-.5s-.4.4-.4.6v5h-5c-.1 0-.4 0-.4.3s.3.3.5.3h5v5c0 .1 0 .5.3.5s.3-.4.3-.5zm14.7-8v-.1h-2.7l-.2.5h.4c.9 0 .9.4.9.6l-.2 1-1.6 5.7-.2 1.7c0 1.8 1 2.8 2.2 2.8v-.3c-.6 0-1.1-.5-1.1-1.8l.2-1.7.5-1.8.2-.5c.9-1 1.7-1.4 2-1.4.8 0 1.2.5 1.2 1.7 0 1-.6 3-1 3.6-.5 1.2-1.3 1.7-2 1.7v.5c2 0 4.2-2.6 4.2-5.2 0-1.5-.9-2.7-2.3-2.7-.7 0-1.4.5-2 1zm7.6 6.8v-.2h-.2v-.2h-.2c-.9.7-2.1.7-2.5.7v.6c.2 0 1 0 1.8-.4v6.4c0 .3 0 .5-1.2.5h-.6v.5h4.4v-.5h-.3c-1.2 0-1.2 0-1.2-.5z" ns0:jacobian_sqrt="1.8" ns0:alignment="middle center" ns0:scale="5" ns0:preamble="/home/owen/.config/inkscape/extensions/textext/default_packages.tex" ns0:text="$W_1 \\cdot f_0 + b_1$" ns0:pdfconverter="pstoedit" ns0:texconverter="lualatex" ns0:version="0.11.0" font-weight="400" fill-rule="evenodd"/><path d="M419.1 120.5l.2-.2v-.1h.2v-.2l.2-.2.1-.2h.2v-.1h.2v-.2h.7l.2-.2h.2c.1 0 .3 0 .3-.3v-.2h-3.3s-.4 0-.4.3h.4c.3.2 1 .4 1 1l-.3.4-4.6 8.3-.7-8.8c0-.2 0-.7 1.2-.7.2 0 .4 0 .4-.3l-.2-.2h-3.9c-.2 0-.3 0-.3.3h.3c.7 0 .9.2.9.6v1.4l-4.2 7.7-.8-8.8c0-.3 0-.7 1.3-.7.2 0 .3 0 .3-.3l-.1-.2h-4c-.1 0-.3 0-.3.3h.4c.9 0 .9.4.9 1l.8 10.5.2.5c.4 0 .4 0 .5-.3l5.2-9 .7 8.8.1.5c.4 0 .4-.2.6-.3zm7 10.4h-.6c0 .2 0 1-.4 1h-3.3l2.5-1.9c.8-.7 1.7-1.5 1.7-2.6 0-1.6-1.4-2.5-3-2.5s-2.4 1-2.4 2.3c0 .5.5.5.5.5.3 0 .7 0 .7-.5 0-.3 0-.7-.7-.7a2 2 0 0 1 1.7-1.2c1.3 0 2 1 2 2.1s-.7 1.8-1.2 2.3l-3 3v.5h5zm8.7-4.7v-.6h-.1v-.1h-.2v-.2h-.7a.9.9 0 0 0-.9.9c0 .5.4.8.9.8s.9-.3.9-.8zm11.9-2.7h1.5c.4 0 .6 0 .6-.3l-.6-.2h-1.4l.4-2 .3-1.7a1 1 0 0 1 1-.7s.5 0 .8.3a1 1 0 0 0-1 1c0 .3.3.4.7.4.5 0 1-.3 1-1s-.9-1-1.6-1c-.5 0-1.7.1-2.3 1.9l-.5 2.8h-1.2c-.4 0-.6 0-.6.3l.6.2h1.2l-1.4 7c-.4 1.7-.5 3.2-1.4 3.2 0 0-.6 0-.9-.3.7 0 .9-.7.9-.9 0-.5-.4-.7-.6-.7a1 1 0 0 0-1 1c0 1 .7 1.3 1.6 1.3s1.6-1 1.7-1.8c.7-1 1.1-3.1 1.1-3.3zm8.4 7.4h-.3l-.4 1H451l2.5-1.9c.8-.7 1.7-1.5 1.7-2.6 0-1.6-1.2-2.5-2.8-2.5-1.6 0-2.6 1-2.6 2.3 0 .5.5.5.7.5.3 0 .7 0 .7-.5 0-.3-.2-.7-1-.7.6-.9 1.3-1.2 1.9-1.2 1.4 0 1.9 1 1.9 2.1s-.7 1.8-1 2.3l-3 3-.2.5h5.2zm12.7-4.4h5c.1 0 .5 0 .5-.3s-.4-.4-.5-.4h-5v-5c0-.1 0-.5-.3-.5s-.4.4-.4.6v5h-5c-.1 0-.4 0-.4.3s.3.3.5.3h5v5c0 .1 0 .5.3.5s.3-.4.3-.5zm14.7-8v-.1h-2.7l-.2.5h.4c.9 0 .9.4.9.6l-.2 1-1.6 5.7-.2 1.7c0 1.8 1 2.8 2.2 2.8v-.3c-.6 0-1.1-.5-1.1-1.8l.2-1.7.5-1.8.2-.5c.9-1 1.7-1.4 2-1.4.8 0 1.2.5 1.2 1.7 0 1-.6 3-1 3.6-.5 1.2-1.3 1.7-2 1.7v.5c2 0 4.2-2.6 4.2-5.2 0-1.5-.9-2.7-2.3-2.7-.7 0-1.4.5-2 1zM492 131h-.4l-.3 1h-3.5l2.4-1.9c1-.7 1.8-1.5 1.8-2.6 0-1.6-1.2-2.5-2.8-2.5-1.6 0-2.7 1-2.7 2.3 0 .5.6.5.7.5.4 0 .7 0 .7-.5 0-.3 0-.7-.7-.7a2 2 0 0 1 1.8-1.2c1.2 0 1.8 1 1.8 2.1s-.7 1.8-1.1 2.3l-3.2 3v.5h5z" ns0:jacobian_sqrt="1.8" ns0:alignment="middle center" ns0:scale="5" ns0:preamble="/home/owen/.config/inkscape/extensions/textext/default_packages.tex" ns0:text="$W_2 \\cdot f_2 + b_2$" ns0:pdfconverter="pstoedit" ns0:texconverter="lualatex" ns0:version="0.11.0" font-weight="400" fill-rule="evenodd"/><path d="M309.5 123.9v-.2h-.2v-.4h-.1v-.1h-.4v-.2h-.3v-.2h-.4v.4c1 0 1.2 1.4 1.2 1.6v.1l-.8 3.6-.4.7c-.9.8-1.6 1.2-2.1 1.2-.9 0-1-1-1-1.8 0-.9.5-3 1-3.7.5-1 1.2-1.7 2-1.7v-.4c-2.2 0-4.3 2.5-4.3 5.1 0 1.8.9 2.8 2.3 2.8.3 0 1.2 0 2.3-1.4.2 1 .7 1.4 1.7 1.4.6 0 1-.5 1.3-1l.5-1.8h-.3l-.2.2c-.4 1.2-.7 2.3-1.4 2.3-.4 0-.6-.5-.6-.9l.4-1.2.3-1.8.6-2.3.2-.7c0-.2 0-.3-.6-.3-.3 0-.7.3-.7.7zm8.7 10.9v-.2h-.2v-.1h-.2a12.5 12.5 0 0 1-2.8-8.3c0-3 .7-6.2 2.8-8.3l.4-.4h-.2c-.2 0-1.8 1-2.8 3.4-1 1.7-1.1 3.9-1.1 5.3s0 3.5 1 5.3a7.6 7.6 0 0 0 2.9 3.5v-.2zm7.4-11.3h1.6c.3 0 .5 0 .5-.3l-.5-.2h-1.5l.4-2 .4-1.7c0-.5.5-.7.8-.7 0 0 .6 0 1 .3a1 1 0 0 0-1.1 1c0 .3.3.4.7.4s.8-.3.8-1-.7-1-1.4-1-1.7.1-2.3 1.9l-.5 2.8h-1.2c-.4 0-.6 0-.6.3l.6.2h1l-1.2 7c-.4 1.7-.7 3.2-1.6 3.2 0 0-.5 0-.9-.3 1 0 1-.7 1-.9 0-.5-.3-.7-.6-.7s-.9.4-.9 1c0 1 .7 1.3 1.4 1.3 1 0 1.8-1 2-1.8.7-1 1-3.1 1-3.3zm6.1 1.8v-.4h-.1c-1 .7-2 .7-2.5.7v.6c.3 0 1 0 1.8-.4v6.4c0 .3 0 .5-1.3.5h-.5v.5h4.6v-.5h-.5c-1.3 0-1.3 0-1.3-.5zm8.9.9v-3l-.2-.6v-.3l-.4-.4v-.3l-.1-.4v-.3l-.2-.2v-.2a8 8 0 0 0-2.8-3.3l-.2.1.2.4c1.7 1.8 2.8 4.6 2.8 8.3 0 3-.7 6-2.8 8.3l-.2.3c.3 0 1.7-1 2.8-3.3 1-1.8 1.2-3.9 1.2-5.3z" ns0:jacobian_sqrt="1.8" ns0:alignment="middle center" ns0:scale="5" ns0:preamble="/home/owen/.config/inkscape/extensions/textext/default_packages.tex" ns0:text="$a(f_1)$" ns0:pdfconverter="pstoedit" ns0:texconverter="lualatex" ns0:version="0.11.0" font-weight="400" fill-rule="evenodd"/><path d="M558.2 125v-.1h-.2v-.4h-.1v-.1h-.4v-.2h-.3v-.2h-.4v.4c1 0 1.2 1.4 1.2 1.6v.1l-.8 3.6-.4.7c-.9.8-1.6 1.2-2.1 1.2-.9 0-1-1-1-1.8 0-.9.5-3 1-3.7.5-1 1.2-1.7 2-1.7v-.4c-2.2 0-4.3 2.5-4.3 5.1 0 1.8.9 2.8 2.3 2.8.3 0 1.2 0 2.3-1.4.2 1 .7 1.4 1.7 1.4.6 0 1-.5 1.3-1l.5-1.8h-.3l-.2.2c-.4 1.2-.7 2.3-1.4 2.3-.4 0-.6-.5-.6-.9l.4-1.2.3-1.8.6-2.3.2-.7c0-.2 0-.3-.6-.3-.3 0-.7.3-.7.7zm8.7 11v-.2h-.2v-.1h-.2a12.5 12.5 0 0 1-2.8-8.3c0-3 .7-6.2 2.8-8.3l.4-.4h-.2c-.2 0-1.8 1-2.8 3.4-1 1.7-1.1 3.9-1.1 5.3s0 3.5 1 5.3a7.6 7.6 0 0 0 2.9 3.5v-.2zm7.4-11.3h1.6c.3 0 .5 0 .5-.3l-.5-.2h-1.5l.4-2 .4-1.7c0-.5.5-.7.8-.7 0 0 .6 0 1 .3a1 1 0 0 0-1.1 1c0 .3.3.4.7.4s.8-.3.8-1-.7-1-1.4-1-1.7.1-2.3 1.9l-.5 2.8H572c-.4 0-.6 0-.6.3l.6.2h1l-1.2 7c-.4 1.7-.7 3.2-1.6 3.2 0 0-.5 0-.9-.3 1 0 1-.7 1-.9 0-.5-.3-.7-.6-.7s-.9.4-.9 1c0 1 .7 1.3 1.4 1.3 1 0 1.8-1 2-1.8.7-1 1-3.1 1-3.3zm5.6 5.7h.7l.2.1.2.2.1.2v.2l.2.1v1c0 1.7-.7 2-1.4 2-.5 0-1.8-.1-2.1-.8.5 0 .7-.6.7-.7 0-.4-.4-.8-.7-.8s-.7.2-.7.8c0 1.2 1.2 1.9 2.8 1.9 1.8 0 2.8-1.2 2.8-2.5 0-.9-.7-1.7-2-2 1.3-.6 1.7-1.5 1.7-2.4s-1-1.7-2.5-1.7c-1.4 0-2.5.8-2.5 1.7 0 .5.4.7.7.7s.8-.3.8-.7-.4-.5-.8-.5c.4-.5 1.3-.7 1.8-.7s1.4.2 1.4 1.2l-.5 1.6c-.5.5-.9.5-1.4.5h-.4l-.1.2.3.2zm9.4-3v-3l-.2-.6v-.3l-.4-.4v-.3l-.1-.4v-.3l-.2-.2v-.2a8 8 0 0 0-2.8-3.3l-.2.1.2.4c1.7 1.8 2.8 4.6 2.8 8.3 0 3-.7 6-2.8 8.3l-.2.3c.3 0 1.7-1 2.8-3.3 1-1.8 1.2-3.9 1.2-5.3z" ns0:jacobian_sqrt="1.8" ns0:alignment="middle center" ns0:scale="5" ns0:preamble="/home/owen/.config/inkscape/extensions/textext/default_packages.tex" ns0:text="$a(f_3)$" ns0:pdfconverter="pstoedit" ns0:texconverter="lualatex" ns0:version="0.11.0" font-weight="400" fill-rule="evenodd"/><g transform="translate(496.4 .4)"><rect ry=".4" y="175" x="110.2" height=".7" width="43.4" fill="#fff" stroke="#000" stroke-width="2.6" stroke-linejoin="round"/><path d="M146.6 183.6v-8.3l.1-8.3 7.2 4.2 7.2 4.2-7.2 4.1z" fill="#fff" stroke="#000" stroke-width="2.6" stroke-linejoin="round"/></g><rect width="66.3" height="66.3" x="661.7" y="142" ry=".7" fill="#fff" stroke="#000" stroke-width="4" stroke-linejoin="round"/><path d="M690.4 167.7h5c.5 0 1 0 1-1l-1.5-.5h-4l1-5.5 1.5-5c0-1.5 1-2 2-2 0 0 1.4 0 2.4 1a3 3 0 0 0-2.4 2.5c0 1 1 1.5 1.4 1.5 1.5 0 3-1 3-3s-2.5-3-4.4-3c-1.5 0-5 .5-6 5.5l-2 8h-3.5c-.5 0-1 0-1 1l1 .5h3.5l-4 20c-.5 4.4-1.5 8.9-4 8.9 0 0-1.5 0-2.5-1 2 0 2.5-2 2.5-2.5 0-1.5-.5-2-1.5-2-1.5 0-3 1-3 3 0 2.5 2.5 3.5 4.5 3.5 2.5 0 5-3 5.5-5 1.5-3 3-9 3-9.5zm12 7.5h1v.5h2c4.9 0 7.4-3 7.4-3.5v-.5h-.5l-5 1a15 15 0 0 1-5.5-1c-1 0-1 0-1 1v10l.5 1h1a6 6 0 0 1 5-2.6c2 0 3 1.5 3 2l1 5c0 .5 0 2.5-1 4.5a5 5 0 0 1-4.5 2c-2 0-4.5-1.5-5-3.5 1 0 1.5-1 1.5-2 0-1.5-1-1.5-1.5-1.5 0 0-2 0-2 1.5 0 3.5 3 6.5 7.5 6.5s8-3.5 8-8c0-4-3-7.5-7-7.5-1.5 0-3.5.5-5 2z" ns0:jacobian_sqrt="5" ns0:alignment="middle center" ns0:scale="14.1" ns0:preamble="/home/owen/.config/inkscape/extensions/textext/default_packages.tex" ns0:text="$f_5$" ns0:pdfconverter="pstoedit" ns0:texconverter="lualatex" ns0:version="0.11.0" font-weight="400" fill-rule="evenodd"/><path d="M661.9 115.6v-.7h-.2c-.5 0-.5.2-.5.6v16.2c0 .4 0 .7.3.7s.4-.3.4-.7zm3.3 0v-.7h-.1c-.4 0-.4.2-.4.6v16.2c0 .4 0 .7.4.7s.3-.5.3-.7zm8.9 5.5h1.5c.4 0 .6 0 .6-.3l-.6-.2h-1.4l.4-2 .5-1.7c0-.5.4-.7.7-.7 0 0 .6 0 1 .3a1 1 0 0 0-1 1c0 .3.2.4.6.4.5 0 1-.3 1-1s-.9-1-1.6-1c-.5 0-1.7.1-2.3 1.9l-.5 2.8h-1.2c-.4 0-.6 0-.6.3l.6.2h1.2l-1.4 7c-.2 1.7-.5 3.2-1.4 3.2 0 0-.5 0-.9-.3.7 0 .9-.7.9-.9 0-.5-.2-.7-.5-.7-.6 0-1.1.4-1.1 1 0 1 .9 1.3 1.6 1.3.9 0 1.7-1 2-1.8.4-1 .8-3.1.8-3.3zm8.8 7.6v-.5h-1.4v-5.3c0-.4 0-.5-.4-.5l-.2.1-4 5.7h.3l3.4-4.4v4.5h-3.9v.4h3.7v1c0 .4 0 .6-1 .6h-.4v.5a38.8 38.8 0 0 1 3.9 0v-.5h-.4c-1 0-1 0-1-.5v-1.1zm16.7-4.6h.7v-.3c0-.4-.1-.4-.5-.4h-9.5c-.4 0-.5 0-.5.4s.1.3.5.3zm16.6-6v-.2c.7-.5 1.3-1.2 2.5-1.2.2 0 .3 0 .3-.3l-.1-.2h-3.4l-.2.3h.2s.7.2.7.6c0 .3-.5.7-.5.8l-4 4.6-2-5v-.4c0-.4.7-.4.9-.4.3 0 .5 0 .5-.3l-.4-.2h-4c-.2 0-.4 0-.4.3h.4c1 0 1 .4 1.2.7l2.1 5.9v.3l-.7 3.2c-.1.9-.1 1-1.5 1-.4 0-.6 0-.6.4h4.8l.3-.2-.5-.2h-.7c-.4 0-.4-.1-.4-.3l.2-1 .7-2.5v-.7zm6.7-2.5v-.3h-.2v-.2h-.1c-.6 0-.6.2-.6.5V132c0 .3 0 .7.4.7s.3-.4.3-.7zm3.2 0v-.7h-.2c-.3 0-.3.2-.3.6v16.2c0 .4 0 .7.3.7s.4-.5.4-.7zm8.6 13h-.3c0 .1 0 1-.4 1h-3.5l2.5-2c1-.7 1.7-1.5 1.7-2.6 0-1.6-1.2-2.5-2.8-2.5-1.6 0-2.6 1-2.6 2.3 0 .5.7.5.7.5.3 0 .7 0 .7-.5 0-.3 0-.7-.7-.7a2 2 0 0 1 1.7-1.2c1.3 0 1.8 1 1.8 2.1s-.7 1.8-1 2.3l-3 3v.5h4.9z" ns0:jacobian_sqrt="1.8" ns0:alignment="middle center" ns0:scale="5" ns0:preamble="/home/owen/.config/inkscape/extensions/textext/default_packages.tex" ns0:text="$\\Vert f_4-Y \\Vert_{2}$" ns0:pdfconverter="pstoedit" ns0:texconverter="lualatex" ns0:version="0.11.0" font-weight="400" fill-rule="evenodd"/><path d="M83 132.2v-.6h-.6c-.8 0-1.2 0-1.5-.7l-3.6-5.6 2.3-3.5c.4-.6.9-1 2.5-1v-.6h-4.2v.5c.7 0 1 .4 1 .9v.3l-2.1 3-2.3-3.5v-.2c0-.1.4-.5 1-.5v-.5h-4.7v.5h.3c1 0 1.3 0 1.6.5l3.2 5-2.8 4.2c-.2.4-.7 1.2-2.5 1.2v.6h4v-.6c-.6 0-1-.5-1-.8l.2-.4 2.5-3.7 2.8 4.2c0 .4-.4.7-1 .7v.6h2.4z" ns0:jacobian_sqrt="1.8" ns0:alignment="middle center" ns0:scale="5" ns0:preamble="/home/owen/.config/inkscape/extensions/textext/default_packages.tex" ns0:text="X" ns0:pdfconverter="pstoedit" ns0:texconverter="lualatex" ns0:version="0.11.0" font-weight="400" fill-rule="evenodd"/></g></svg>
