<svg xmlns="http://www.w3.org/2000/svg" viewBox="0 0 304.875 114.596" height="433.121" width="1152.284"><text word-spacing="0" letter-spacing="0" font-size="15.785" font-weight="700" y="66.184" x="52.615" style="line-height:1.25;-inkscape-font-specification:'sans-serif Bold'" font-family="sans-serif" fill="#363636" stroke-width=".395"><tspan style="-inkscape-font-specification:'sans-serif Bold'" y="66.184" x="52.615">A(</tspan></text><text word-spacing="0" letter-spacing="0" font-size="15.785" font-weight="700" style="line-height:1.25;-inkscape-font-specification:'sans-serif Bold'" x="131.428" y="66.184" font-family="sans-serif" fill="#363636" stroke-width=".395"><tspan x="131.428" y="66.184" style="-inkscape-font-specification:'sans-serif Bold'">)</tspan></text><path d="M78.458 56.13h10.98v10.804h-10.98z" fill="#a17ca1"/><g transform="translate(-11.961 -878.584) scale(1.36167)" fill="#a17ca1"><circle r=".715" cy="693.665" cx="76.41"/><circle cx="78.216" cy="693.665" r=".715"/><circle cx="80.021" cy="693.665" r=".715"/></g><path d="M108.815 56.13h10.98v10.804h-10.98z" fill="#a17ca1"/><text word-spacing="0" letter-spacing="0" font-size="15.93" font-weight="400" style="line-height:1.25;-inkscape-font-specification:sans-serif" x="71.659" y="66.019" font-family="sans-serif" fill="#466160" stroke-width=".398"><tspan x="71.659" y="66.019" style="-inkscape-font-specification:sans-serif">[</tspan></text><text word-spacing="0" letter-spacing="0" font-size="15.93" font-weight="400" y="66.019" x="-104.545" style="line-height:1.25;-inkscape-font-specification:sans-serif" transform="scale(-1 1)" font-family="sans-serif" fill="#466160" stroke-width=".398"><tspan style="-inkscape-font-specification:sans-serif" y="66.019" x="-104.545">[</tspan></text><text word-spacing="0" letter-spacing="0" font-size="7.056" font-weight="700" y="64.1" x="81.539" style="line-height:1.25;-inkscape-font-specification:'sans-serif Bold'" font-family="sans-serif" fill="#fff" stroke-width=".231"><tspan style="-inkscape-font-specification:'sans-serif Bold'" y="64.1" x="81.539">0</tspan></text><text word-spacing="0" letter-spacing="0" font-size="7.056" font-weight="700" style="line-height:1.25;-inkscape-font-specification:'sans-serif Bold'" x="111.851" y="64.1" font-family="sans-serif" fill="#fff" stroke-width=".231"><tspan x="111.851" y="64.1" style="-inkscape-font-specification:'sans-serif Bold'">1</tspan></text><g transform="translate(19.998 -878.112) scale(1.36167)" fill="#a17ca1"><circle cx="76.41" cy="693.665" r=".715"/><circle r=".715" cy="693.665" cx="78.216"/><circle r=".715" cy="693.665" cx="80.021"/></g><rect rx="0" ry="0" y="25.074" x="176.166" height="16.766" width="4.603" fill="#2f5e5d"/><rect width="4.603" height="16.766" x="182.492" y="25.074" ry="0" rx="0" fill="#2f5e5d"/><rect width="4.603" height="16.766" x="194.494" y="25.074" ry="0" rx="0" fill="#2f5e5d"/><rect width="10.604" height="16.766" x="207.945" y="25.074" ry="0" rx="0" fill="#e5650e"/><rect width="4.603" height="16.766" x="227.309" y="25.074" ry="0" rx="0" fill="#2f5e5d"/><path d="M176.162 39.543h55.71v2.812h-55.71z" fill="#2f5e5d"/><rect width="4.603" height="16.766" x="176.166" y="51.284" ry="0" rx="0" fill="#2f5e5d"/><rect rx="0" ry="0" y="51.284" x="182.492" height="16.766" width="4.603" fill="#2f5e5d"/><rect rx="0" ry="0" y="51.284" x="194.494" height="16.766" width="4.603" fill="#e5650e"/><rect rx="0" ry="0" y="51.284" x="207.945" height="16.766" width="10.604" fill="#2f5e5d"/><rect rx="0" ry="0" y="51.284" x="227.309" height="16.766" width="4.603" fill="#2f5e5d"/><path d="M176.162 65.752h55.71v2.812h-55.71z" fill="#2f5e5d"/><rect width="4.603" height="15.486" x="176.166" y="98.635" ry="0" rx="0" fill="#2f5e5d"/><rect rx="0" ry="0" y="98.635" x="182.492" height="15.486" width="4.603" fill="#e5650e"/><rect rx="0" ry="0" y="98.635" x="194.494" height="15.486" width="4.603" fill="#2f5e5d"/><rect rx="0" ry="0" y="98.635" x="207.945" height="15.486" width="10.604" fill="#2f5e5d"/><rect rx="0" ry="0" y="98.635" x="227.309" height="15.486" width="4.603" fill="#2f5e5d"/><path d="M176.162 111.999h55.71v2.597h-55.71z" fill="#2f5e5d"/><g fill="#a17ca1"><path d="M74.11 21.785v-6.86h1.729v6.86zm58.822-.028v-6.832h1.7v6.832z"/><path d="M75.839 16.559v-1.635h57.589v1.635z"/><path d="M104.128 15.544V10.73h1.673v4.814z"/></g><text word-spacing="0" letter-spacing="0" font-size="8.467" font-weight="700" style="line-height:1.25;-inkscape-font-specification:'Ubuntu Condensed, Bold'" x="73.44" y="6.433" font-family="Ubuntu Condensed" fill="#363636" stroke-width=".214"><tspan x="73.44" y="6.433" style="-inkscape-font-specification:'sans-serif Bold'" font-family="sans-serif">training data</tspan></text><path d="M72.82 74.83h63.17v4.289H72.82zm0 7.412h63.17v4.288H72.82zm0 7.41h63.17v4.288H72.82z" fill="#a17ca1"/><text word-spacing="0" letter-spacing="0" font-size="15.785" font-weight="700" style="line-height:1.25;-inkscape-font-specification:'sans-serif Bold'" x="52.615" y="38.538" font-family="sans-serif" fill="#363636" stroke-width=".395"><tspan x="52.615" y="38.538" style="-inkscape-font-specification:'sans-serif Bold'">A(</tspan></text><text word-spacing="0" letter-spacing="0" font-size="15.785" font-weight="700" y="38.538" x="131.428" style="line-height:1.25;-inkscape-font-specification:'sans-serif Bold'" font-family="sans-serif" fill="#363636" stroke-width=".395"><tspan style="-inkscape-font-specification:'sans-serif Bold'" y="38.538" x="131.428">)</tspan></text><path d="M78.458 28.484h10.98v10.804h-10.98z" fill="#a17ca1"/><g transform="translate(-11.961 -906.23) scale(1.36167)" fill="#a17ca1"><circle cx="76.41" cy="693.665" r=".715"/><circle r=".715" cy="693.665" cx="78.216"/><circle r=".715" cy="693.665" cx="80.021"/></g><path d="M108.815 28.484h10.98v10.804h-10.98z" fill="#a17ca1"/><text word-spacing="0" letter-spacing="0" font-size="15.93" font-weight="400" y="38.373" x="71.659" style="line-height:1.25;-inkscape-font-specification:sans-serif" font-family="sans-serif" fill="#466160" stroke-width=".398"><tspan style="-inkscape-font-specification:sans-serif" y="38.373" x="71.659">[</tspan></text><text word-spacing="0" letter-spacing="0" font-size="15.93" font-weight="400" transform="scale(-1 1)" style="line-height:1.25;-inkscape-font-specification:sans-serif" x="-104.545" y="38.373" font-family="sans-serif" fill="#466160" stroke-width=".398"><tspan x="-104.545" y="38.373" style="-inkscape-font-specification:sans-serif">[</tspan></text><text word-spacing="0" letter-spacing="0" font-size="7.056" font-weight="700" style="line-height:1.25;-inkscape-font-specification:'sans-serif Bold'" x="81.539" y="36.454" font-family="sans-serif" fill="#fff" stroke-width=".231"><tspan x="81.539" y="36.454" style="-inkscape-font-specification:'sans-serif Bold'">0</tspan></text><text word-spacing="0" letter-spacing="0" font-size="7.056" font-weight="700" y="36.454" x="111.851" style="line-height:1.25;-inkscape-font-specification:'sans-serif Bold'" font-family="sans-serif" fill="#fff" stroke-width=".231"><tspan style="-inkscape-font-specification:'sans-serif Bold'" y="36.454" x="111.851">0</tspan></text><g transform="translate(19.998 -905.758) scale(1.36167)" fill="#a17ca1"><circle r=".715" cy="693.665" cx="76.41"/><circle cx="78.216" cy="693.665" r=".715"/><circle cx="80.021" cy="693.665" r=".715"/></g><text word-spacing="0" letter-spacing="0" font-size="15.785" font-weight="700" y="110.529" x="52.615" style="line-height:1.25;-inkscape-font-specification:'sans-serif Bold'" font-family="sans-serif" fill="#363636" stroke-width=".395"><tspan style="-inkscape-font-specification:'sans-serif Bold'" y="110.529" x="52.615">A(</tspan></text><text word-spacing="0" letter-spacing="0" font-size="15.785" font-weight="700" style="line-height:1.25;-inkscape-font-specification:'sans-serif Bold'" x="131.428" y="110.529" font-family="sans-serif" fill="#363636" stroke-width=".395"><tspan x="131.428" y="110.529" style="-inkscape-font-specification:'sans-serif Bold'">)</tspan></text><path d="M78.458 100.475h10.98v10.804h-10.98z" fill="#a17ca1"/><g transform="translate(-11.961 -834.238) scale(1.36167)" fill="#a17ca1"><circle r=".715" cy="693.665" cx="76.41"/><circle cx="78.216" cy="693.665" r=".715"/><circle cx="80.021" cy="693.665" r=".715"/></g><path d="M108.815 100.475h10.98v10.804h-10.98z" fill="#a17ca1"/><text word-spacing="0" letter-spacing="0" font-size="15.93" font-weight="400" style="line-height:1.25;-inkscape-font-specification:sans-serif" x="71.659" y="110.364" font-family="sans-serif" fill="#466160" stroke-width=".398"><tspan x="71.659" y="110.364" style="-inkscape-font-specification:sans-serif">[</tspan></text><text word-spacing="0" letter-spacing="0" font-size="15.93" font-weight="400" y="110.364" x="-104.545" style="line-height:1.25;-inkscape-font-specification:sans-serif" transform="scale(-1 1)" font-family="sans-serif" fill="#466160" stroke-width=".398"><tspan style="-inkscape-font-specification:sans-serif" y="110.364" x="-104.545">[</tspan></text><text word-spacing="0" letter-spacing="0" font-size="7.056" font-weight="700" y="108.445" x="81.539" style="line-height:1.25;-inkscape-font-specification:'sans-serif Bold'" font-family="sans-serif" fill="#fff" stroke-width=".231"><tspan style="-inkscape-font-specification:'sans-serif Bold'" y="108.445" x="81.539">1</tspan></text><text word-spacing="0" letter-spacing="0" font-size="7.056" font-weight="700" style="line-height:1.25;-inkscape-font-specification:'sans-serif Bold'" x="111.851" y="108.445" font-family="sans-serif" fill="#fff" stroke-width=".231"><tspan x="111.851" y="108.445" style="-inkscape-font-specification:'sans-serif Bold'">0</tspan></text><g transform="translate(19.998 -833.767) scale(1.36167)" fill="#a17ca1"><circle cx="76.41" cy="693.665" r=".715"/><circle r=".715" cy="693.665" cx="78.216"/><circle r=".715" cy="693.665" cx="80.021"/></g><g fill="#363636"><path d="M169.923 32.02v3.138h-6.12V32.02z"/><path d="M168.49 29.562l.014 4.028.014 4.028 2.168-2.033 2.169-2.032-2.182-1.996z"/></g><g fill="#363636"><path d="M169.923 59.52v3.139h-6.12V59.52z"/><path d="M168.49 57.062l.014 4.028.014 4.029 2.168-2.033 2.169-2.033-2.182-1.995z"/></g><g fill="#363636"><path d="M169.923 103.866v3.138h-6.12v-3.138z"/><path d="M168.49 101.407l.014 4.029.014 4.028 2.168-2.033 2.169-2.033-2.182-1.995z"/></g><g fill="#363636"><path d="M240.637 42.869h10.302v3.26h-10.302zm0 55.327h10.302v3.262h-10.302z"/><path d="M247.678 46.13h3.26v52.067h-3.26z"/><path d="M247.878 69.08h12.23v3.26h-12.23z"/></g><path d="M176.105 74.83H232.5v4.289h-56.395zm0 7.412H232.5v4.288h-56.395zm0 7.41H232.5v4.288h-56.395z" fill="#2f5e5d"/><path d="M176.105 74.83h14.043v4.289h-14.043zm17.452 7.412h5.088v4.288h-5.088zm20.736-.043h5.088v4.288h-5.088zm.166 7.453h14.043v4.288h-14.043z" fill="#e5650e"/><g fill="#4e9d9b"><path d="M47.194 34.945H36.206v3.928h10.988zm0 66.633H36.206v3.928h10.988zM40.136 38.873h-3.928v62.705h3.928z"/></g><path d="M26.112 66.5v3.927h11.265V66.5zm17.784-34.766l.025 5.04.025 5.039 3.992-2.543 3.993-2.544-4.017-2.496zM45.57 98.41l.024 5.04.025 5.04 3.993-2.543 3.993-2.544-4.018-2.496z" fill="#4e9d9b"/><rect width="22.738" height="22.738" x=".141" y="56.764" ry="0" fill="#2f5e5d"/><text y="74.143" x="1.36" style="line-height:1.25;-inkscape-font-specification:'Ubuntu Condensed, Bold'" font-weight="700" font-size="19.307" letter-spacing="0" word-spacing="0" font-family="Ubuntu Condensed" fill="#fff" stroke-width=".482"><tspan style="-inkscape-font-specification:'sans-serif Bold'" y="74.143" x="1.36" font-family="sans-serif">D</tspan></text><text style="line-height:1.25;-inkscape-font-specification:'sans-serif Bold'" x="16.209" y="77.252" font-weight="700" font-size="7.848" letter-spacing="0" word-spacing="0" font-family="sans-serif" fill="#fff" stroke-width=".196"><tspan x="16.209" y="77.252" style="-inkscape-font-specification:'sans-serif Bold'">?</tspan></text><text word-spacing="0" letter-spacing="0" font-size="8.467" font-weight="700" y="6.728" x="193.386" style="line-height:1.25;-inkscape-font-specification:'Ubuntu Condensed, Bold'" font-family="Ubuntu Condensed" fill="#e5650e" stroke-width=".308"><tspan style="-inkscape-font-specification:'sans-serif Bold'" y="6.728" x="193.386" font-family="sans-serif">error</tspan></text><g fill="#2f5e5d"><path d="M176.146 22.312v-6.86h1.594v6.86zm54.238-.027v-6.833h1.567v6.833z"/><path d="M177.74 17.086V15.45h53.1v1.635z"/><path d="M203.824 16.07v-4.812h1.543v4.813z"/></g><g transform="translate(-59.907 -712.125)"><text word-spacing="0" letter-spacing="0" font-size="15.785" font-weight="700" style="line-height:1.25;-inkscape-font-specification:'sans-serif Bold'" x="313.957" y="812.107" font-family="sans-serif" fill="#363636" stroke-width=".395"><tspan x="313.957" y="812.107" style="-inkscape-font-specification:'sans-serif Bold'">≥</tspan></text><text word-spacing="0" letter-spacing="0" font-size="15.785" font-weight="700" y="813.328" x="328.926" style="line-height:1.25;-inkscape-font-specification:'sans-serif Bold'" font-family="sans-serif" fill="#e5650e" stroke-width=".395"><tspan style="-inkscape-font-specification:'sans-serif Bold'" y="813.328" x="328.926">1</tspan></text><text word-spacing="0" letter-spacing="0" font-size="15.785" font-weight="700" style="line-height:1.25;-inkscape-font-specification:'sans-serif Bold'" x="339.992" y="813.582" font-family="sans-serif" fill="#2f5e5d" stroke-width=".395"><tspan x="339.992" y="813.582" style="-inkscape-font-specification:'sans-serif Bold'">/4</tspan></text><circle r="17.616" cy="775.61" cx="341.041" fill="#2f5e5d"/><path d="M323.366 775.663a17.616 17.616 0 005.16 12.457l12.457-12.457z" fill="#e5650e"/><path d="M328.403 788.075a17.616 17.616 0 0012.455 5.162l.004-17.617z" fill="#e5650e"/></g><path d="M149.065 27.122H162v12.935h-12.935z" fill="#99039e"/><text word-spacing="0" letter-spacing="0" font-size="9.085" font-weight="700" y="37.041" x="152.272" style="line-height:1.25;-inkscape-font-specification:'sans-serif Bold'" font-family="sans-serif" fill="#fff" stroke-width=".227"><tspan style="-inkscape-font-specification:'sans-serif Bold'" y="37.041" x="152.272">h</tspan></text><path d="M149.065 54.623H162v12.935h-12.935z" fill="#99039e"/><text word-spacing="0" letter-spacing="0" font-size="9.085" font-weight="700" style="line-height:1.25;-inkscape-font-specification:'sans-serif Bold'" x="152.272" y="64.542" font-family="sans-serif" fill="#fff" stroke-width=".227"><tspan x="152.272" y="64.542" style="-inkscape-font-specification:'sans-serif Bold'">h</tspan></text><path d="M149.065 98.968H162v12.935h-12.935z" fill="#99039e"/><text word-spacing="0" letter-spacing="0" font-size="9.085" font-weight="700" style="line-height:1.25;-inkscape-font-specification:'sans-serif Bold'" x="152.272" y="108.888" font-family="sans-serif" fill="#fff" stroke-width=".227"><tspan x="152.272" y="108.888" style="-inkscape-font-specification:'sans-serif Bold'">h</tspan></text><g fill="#363636"><path d="M144.868 31.903v3.138h-6.118v-3.138z"/><path d="M143.436 29.445l.014 4.028.013 4.028 2.169-2.033 2.168-2.033-2.182-1.995z"/></g><g fill="#363636"><path d="M144.868 59.404v3.138h-6.118v-3.138z"/><path d="M143.436 56.946l.014 4.027.013 4.029 2.169-2.033 2.168-2.033-2.182-1.995z"/></g><g fill="#363636"><path d="M144.868 103.749v3.138h-6.118v-3.138z"/><path d="M143.436 101.29l.014 4.029.013 4.028 2.169-2.033 2.168-2.033-2.182-1.995z"/></g><text style="line-height:1.25;-inkscape-font-specification:'Ubuntu Condensed, Bold'" x="257.844" y="43.228" font-weight="700" font-size="8.467" letter-spacing="0" word-spacing="0" font-family="Ubuntu Condensed" fill="#e5650e" stroke-width=".308"><tspan x="257.844" y="43.228" style="-inkscape-font-specification:'sans-serif Bold'" font-family="sans-serif" stroke-width="1.164">max error</tspan></text><path d="M148.763 74.83h13.538v4.289h-13.538zm0 7.412h13.538v4.288h-13.538zm0 7.41h13.538v4.288h-13.538z" fill="#99039e" stroke-width="2.16"/><text y="54.826" x="-.936" style="line-height:1.25;-inkscape-font-specification:'Ubuntu Condensed, Bold'" font-weight="700" font-size="10.194" letter-spacing="0" word-spacing="0" font-family="Ubuntu Condensed" fill="#2f5e5d" stroke-width=".482"><tspan style="-inkscape-font-specification:'sans-serif Bold'" y="54.826" x="-.936" font-family="sans-serif" stroke-width="2.546">Loss</tspan></text><text word-spacing="0" letter-spacing="0" font-size="10.194" font-weight="700" style="line-height:1.25;-inkscape-font-specification:'Ubuntu Condensed, Bold'" x="-.846" y="87.355" font-family="Ubuntu Condensed" fill="#2f5e5d" stroke-width=".482"><tspan x="-.846" y="87.355" style="-inkscape-font-specification:'sans-serif Bold'" font-family="sans-serif" stroke-width="2.546">max</tspan></text></svg>