<svg xmlns="http://www.w3.org/2000/svg" viewBox="0 0 216.8 178.6" height="674.9" width="819.3"><path fill="#d6ebea" d="M138.8 109.2h78v69h-78zM140 12h75.6v69h-75.6z"/><path fill="#d6c6d6" d="M20.7 109.7h78.8v68.9H20.7zM20.3 12h77.6v69H20.3zm0 85h79v3.5h-79zm0-5.3h79v3.6h-79zm0-5.3h79v3.6h-79zm0 15.8h79v3.6h-79z"/><g fill="#466160"><path d="M106.2 45v3.3h-6.7V45z"/><path d="M104.7 42.4V51l2.4-2.1 2.4-2.2-2.4-2z"/></g><path fill="#a17ca1" d="M31.3 25h11V36h-11zm14 0h10.9V36h-11z"/><g transform="translate(-43.3 -909.6) scale(1.36167)" fill="#a17ca1"><circle cx="76.4" cy="693.7" r=".7"/><circle r=".7" cy="693.7" cx="78.2"/><circle r=".7" cy="693.7" cx="80"/></g><path fill="#a17ca1" d="M78 25h11V36H78z"/><text y="786.7" x="-258.6" style="line-height:1.25;-inkscape-font-specification:sans-serif" font-weight="400" font-size="15.9" font-family="sans-serif" letter-spacing="0" word-spacing="0" fill="#466160" stroke-width=".4" transform="translate(283 -751.7)"><tspan style="-inkscape-font-specification:sans-serif" y="786.7" x="-258.6">[</tspan></text><text transform="matrix(-1 0 0 1 283 -751.7)" style="line-height:1.25;-inkscape-font-specification:sans-serif" x="209.3" y="786.7" font-weight="400" font-size="15.9" font-family="sans-serif" letter-spacing="0" word-spacing="0" fill="#466160" stroke-width=".4"><tspan x="209.3" y="786.7" style="-inkscape-font-specification:sans-serif">[</tspan></text><text style="line-height:1.25;-inkscape-font-specification:'sans-serif Bold'" x="-248.7" y="784.8" font-weight="700" font-size="7.1" font-family="sans-serif" letter-spacing="0" word-spacing="0" fill="#fff" stroke-width=".2" transform="translate(283 -751.7)"><tspan x="-248.7" y="784.8" style="-inkscape-font-specification:'sans-serif Bold'">0</tspan></text><text y="784.8" x="-234.7" style="line-height:1.25;-inkscape-font-specification:'sans-serif Bold'" font-weight="700" font-size="7.1" font-family="sans-serif" letter-spacing="0" word-spacing="0" fill="#fff" stroke-width=".2" transform="translate(283 -751.7)"><tspan style="-inkscape-font-specification:'sans-serif Bold'" y="784.8" x="-234.7">0</tspan></text><text y="784.8" x="-202" style="line-height:1.25;-inkscape-font-specification:'sans-serif Bold'" font-weight="700" font-size="7.1" font-family="sans-serif" letter-spacing="0" word-spacing="0" fill="#fff" stroke-width=".2" transform="translate(283 -751.7)"><tspan style="-inkscape-font-specification:'sans-serif Bold'" y="784.8" x="-202">0</tspan></text><path fill="#a17ca1" d="M31.3 42h11v10.8h-11zm14 0h10.9v10.8h-11z"/><g transform="translate(-43.3 -892.8) scale(1.36167)" fill="#a17ca1"><circle r=".7" cy="693.7" cx="76.4"/><circle cx="78.2" cy="693.7" r=".7"/><circle cx="80" cy="693.7" r=".7"/></g><path fill="#a17ca1" d="M78 42h11v10.8H78z"/><text style="line-height:1.25;-inkscape-font-specification:sans-serif" x="-258.6" y="803.6" font-weight="400" font-size="15.9" font-family="sans-serif" letter-spacing="0" word-spacing="0" fill="#466160" stroke-width=".4" transform="translate(283 -751.7)"><tspan x="-258.6" y="803.6" style="-inkscape-font-specification:sans-serif">[</tspan></text><text y="803.6" x="209.3" style="line-height:1.25;-inkscape-font-specification:sans-serif" transform="matrix(-1 0 0 1 283 -751.7)" font-weight="400" font-size="15.9" font-family="sans-serif" letter-spacing="0" word-spacing="0" fill="#466160" stroke-width=".4"><tspan style="-inkscape-font-specification:sans-serif" y="803.6" x="209.3">[</tspan></text><text y="801.7" x="-248.7" style="line-height:1.25;-inkscape-font-specification:'sans-serif Bold'" font-weight="700" font-size="7.1" font-family="sans-serif" letter-spacing="0" word-spacing="0" fill="#fff" stroke-width=".2" transform="translate(283 -751.7)"><tspan style="-inkscape-font-specification:'sans-serif Bold'" y="801.7" x="-248.7">0</tspan></text><text style="line-height:1.25;-inkscape-font-specification:'sans-serif Bold'" x="-234.9" y="801.7" font-weight="700" font-size="7.1" font-family="sans-serif" letter-spacing="0" word-spacing="0" fill="#fff" stroke-width=".2" transform="translate(283 -751.7)"><tspan x="-234.9" y="801.7" style="-inkscape-font-specification:'sans-serif Bold'">0</tspan></text><text style="line-height:1.25;-inkscape-font-specification:'sans-serif Bold'" x="-202" y="801.7" font-weight="700" font-size="7.1" font-family="sans-serif" letter-spacing="0" word-spacing="0" fill="#fff" stroke-width=".2" transform="translate(283 -751.7)"><tspan x="-202" y="801.7" style="-inkscape-font-specification:'sans-serif Bold'">0</tspan></text><path fill="#a17ca1" d="M31.3 65h11V76h-11zm14 0h10.9V76h-11z"/><g transform="translate(-43.3 -869.6) scale(1.36167)" fill="#a17ca1"><circle cx="76.4" cy="693.7" r=".7"/><circle r=".7" cy="693.7" cx="78.2"/><circle r=".7" cy="693.7" cx="80"/></g><path fill="#a17ca1" d="M78 65h11V76H78z"/><text y="826.7" x="-258.6" style="line-height:1.25;-inkscape-font-specification:sans-serif" font-weight="400" font-size="15.9" font-family="sans-serif" letter-spacing="0" word-spacing="0" fill="#466160" stroke-width=".4" transform="translate(283 -751.7)"><tspan style="-inkscape-font-specification:sans-serif" y="826.7" x="-258.6">[</tspan></text><text transform="matrix(-1 0 0 1 283 -751.7)" style="line-height:1.25;-inkscape-font-specification:sans-serif" x="209.3" y="826.7" font-weight="400" font-size="15.9" font-family="sans-serif" letter-spacing="0" word-spacing="0" fill="#466160" stroke-width=".4"><tspan x="209.3" y="826.7" style="-inkscape-font-specification:sans-serif">[</tspan></text><text style="line-height:1.25;-inkscape-font-specification:'sans-serif Bold'" x="-248.8" y="824.8" font-weight="700" font-size="7.1" font-family="sans-serif" letter-spacing="0" word-spacing="0" fill="#fff" stroke-width=".2" transform="translate(283 -751.7)"><tspan x="-248.8" y="824.8" style="-inkscape-font-specification:'sans-serif Bold'">1</tspan></text><text y="824.8" x="-234.7" style="line-height:1.25;-inkscape-font-specification:'sans-serif Bold'" font-weight="700" font-size="7.1" font-family="sans-serif" letter-spacing="0" word-spacing="0" fill="#fff" stroke-width=".2" transform="translate(283 -751.7)"><tspan style="-inkscape-font-specification:'sans-serif Bold'" y="824.8" x="-234.7">1</tspan></text><text y="824.8" x="-202" style="line-height:1.25;-inkscape-font-specification:'sans-serif Bold'" font-weight="700" font-size="7.1" font-family="sans-serif" letter-spacing="0" word-spacing="0" fill="#fff" stroke-width=".2" transform="translate(283 -751.7)"><tspan style="-inkscape-font-specification:'sans-serif Bold'" y="824.8" x="-202">0</tspan></text><g fill="#466160"><path d="M106.9 143.4v3.3h-6.7v-3.3z"/><path d="M105.3 140.8v8.5l2.4-2.2 2.4-2.1-2.4-2.1z"/></g><path fill="#a17ca1" d="M32.7 121.8h11v10.9h-11zm14 0h11v10.9h-11z"/><g transform="translate(-42.3 -812.9) scale(1.36167)" fill="#a17ca1"><circle r=".7" cy="693.7" cx="76.4"/><circle cx="78.2" cy="693.7" r=".7"/><circle cx="80" cy="693.7" r=".7"/></g><path fill="#a17ca1" d="M79.5 121.8h11v10.9h-11z"/><text style="line-height:1.25;-inkscape-font-specification:sans-serif" x="-257.1" y="883.5" font-weight="400" font-size="15.9" font-family="sans-serif" letter-spacing="0" word-spacing="0" fill="#466160" stroke-width=".4" transform="translate(283 -751.7)"><tspan x="-257.1" y="883.5" style="-inkscape-font-specification:sans-serif">[</tspan></text><text y="883.5" x="207.8" style="line-height:1.25;-inkscape-font-specification:sans-serif" transform="matrix(-1 0 0 1 283 -751.7)" font-weight="400" font-size="15.9" font-family="sans-serif" letter-spacing="0" word-spacing="0" fill="#466160" stroke-width=".4"><tspan style="-inkscape-font-specification:sans-serif" y="883.5" x="207.8">[</tspan></text><text y="881.6" x="-247.2" style="line-height:1.25;-inkscape-font-specification:'sans-serif Bold'" font-weight="700" font-size="7.1" font-family="sans-serif" letter-spacing="0" word-spacing="0" fill="#fff" stroke-width=".2" transform="translate(283 -751.7)"><tspan style="-inkscape-font-specification:'sans-serif Bold'" y="881.6" x="-247.2">0</tspan></text><text style="line-height:1.25;-inkscape-font-specification:'sans-serif Bold'" x="-233.3" y="881.6" font-weight="700" font-size="7.1" font-family="sans-serif" letter-spacing="0" word-spacing="0" fill="#fff" stroke-width=".2" transform="translate(283 -751.7)"><tspan x="-233.3" y="881.6" style="-inkscape-font-specification:'sans-serif Bold'">0</tspan></text><text style="line-height:1.25;-inkscape-font-specification:'sans-serif Bold'" x="-200.5" y="881.6" font-weight="700" font-size="7.1" font-family="sans-serif" letter-spacing="0" word-spacing="0" fill="#fff" stroke-width=".2" transform="translate(283 -751.7)"><tspan x="-200.5" y="881.6" style="-inkscape-font-specification:'sans-serif Bold'">1</tspan></text><path fill="#a17ca1" d="M32.7 138.7h11v10.8h-11zm14 0h11v10.8h-11z"/><g transform="translate(-42.3 -796) scale(1.36167)" fill="#a17ca1"><circle cx="76.4" cy="693.7" r=".7"/><circle r=".7" cy="693.7" cx="78.2"/><circle r=".7" cy="693.7" cx="80"/></g><path fill="#a17ca1" d="M79.5 138.7h11v10.8h-11z"/><text y="900.4" x="-257.1" style="line-height:1.25;-inkscape-font-specification:sans-serif" font-weight="400" font-size="15.9" font-family="sans-serif" letter-spacing="0" word-spacing="0" fill="#466160" stroke-width=".4" transform="translate(283 -751.7)"><tspan style="-inkscape-font-specification:sans-serif" y="900.4" x="-257.1">[</tspan></text><text transform="matrix(-1 0 0 1 283 -751.7)" style="line-height:1.25;-inkscape-font-specification:sans-serif" x="207.8" y="900.4" font-weight="400" font-size="15.9" font-family="sans-serif" letter-spacing="0" word-spacing="0" fill="#466160" stroke-width=".4"><tspan x="207.8" y="900.4" style="-inkscape-font-specification:sans-serif">[</tspan></text><text style="line-height:1.25;-inkscape-font-specification:'sans-serif Bold'" x="-247.3" y="898.4" font-weight="700" font-size="7.1" font-family="sans-serif" letter-spacing="0" word-spacing="0" fill="#fff" stroke-width=".2" transform="translate(283 -751.7)"><tspan x="-247.3" y="898.4" style="-inkscape-font-specification:'sans-serif Bold'">0</tspan></text><text y="898.4" x="-233.4" style="line-height:1.25;-inkscape-font-specification:'sans-serif Bold'" font-weight="700" font-size="7.1" font-family="sans-serif" letter-spacing="0" word-spacing="0" fill="#fff" stroke-width=".2" transform="translate(283 -751.7)"><tspan style="-inkscape-font-specification:'sans-serif Bold'" y="898.4" x="-233.4">0</tspan></text><text y="898.4" x="-200.5" style="line-height:1.25;-inkscape-font-specification:'sans-serif Bold'" font-weight="700" font-size="7.1" font-family="sans-serif" letter-spacing="0" word-spacing="0" fill="#fff" stroke-width=".2" transform="translate(283 -751.7)"><tspan style="-inkscape-font-specification:'sans-serif Bold'" y="898.4" x="-200.5">1</tspan></text><path fill="#a17ca1" d="M32.7 161.9h11v10.8h-11zm14 0h11v10.8h-11z"/><g transform="translate(-42.3 -772.8) scale(1.36167)" fill="#a17ca1"><circle r=".7" cy="693.7" cx="76.4"/><circle cx="78.2" cy="693.7" r=".7"/><circle cx="80" cy="693.7" r=".7"/></g><path fill="#a17ca1" d="M79.5 161.9h11v10.8h-11z"/><text style="line-height:1.25;-inkscape-font-specification:sans-serif" x="-257.1" y="923.5" font-weight="400" font-size="15.9" font-family="sans-serif" letter-spacing="0" word-spacing="0" fill="#466160" stroke-width=".4" transform="translate(283 -751.7)"><tspan x="-257.1" y="923.5" style="-inkscape-font-specification:sans-serif">[</tspan></text><text y="923.5" x="207.8" style="line-height:1.25;-inkscape-font-specification:sans-serif" transform="matrix(-1 0 0 1 283 -751.7)" font-weight="400" font-size="15.9" font-family="sans-serif" letter-spacing="0" word-spacing="0" fill="#466160" stroke-width=".4"><tspan style="-inkscape-font-specification:sans-serif" y="923.5" x="207.8">[</tspan></text><text y="921.5" x="-247.3" style="line-height:1.25;-inkscape-font-specification:'sans-serif Bold'" font-weight="700" font-size="7.1" font-family="sans-serif" letter-spacing="0" word-spacing="0" fill="#fff" stroke-width=".2" transform="translate(283 -751.7)"><tspan style="-inkscape-font-specification:'sans-serif Bold'" y="921.5" x="-247.3">1</tspan></text><text style="line-height:1.25;-inkscape-font-specification:'sans-serif Bold'" x="-233.2" y="921.6" font-weight="700" font-size="7.1" font-family="sans-serif" letter-spacing="0" word-spacing="0" fill="#fff" stroke-width=".2" transform="translate(283 -751.7)"><tspan x="-233.2" y="921.6" style="-inkscape-font-specification:'sans-serif Bold'">1</tspan></text><text style="line-height:1.25;-inkscape-font-specification:'sans-serif Bold'" x="-200.5" y="921.6" font-weight="700" font-size="7.1" font-family="sans-serif" letter-spacing="0" word-spacing="0" fill="#fff" stroke-width=".2" transform="translate(283 -751.7)"><tspan x="-200.5" y="921.6" style="-inkscape-font-specification:'sans-serif Bold'">1</tspan></text><path d="M27.3 153H74v.9H27.3zm0 2H74v1H27.3zm0 2.1H74v.9H27.3zm50.4-4h12v.7h-12zm0 2h12v.8h-12zm0 2h12v.8h-12z" fill="#a17ca1"/><path d="M139.5 97h76.3v3.6h-76.3zm0-5.2h76.3v3.6h-76.3zm0-5.3h76.3v3.6h-76.3zm0 15.8h76.3v3.6h-76.3z" fill="#d6ebea"/><text y="804.6" x="-134.4" style="line-height:1.25;-inkscape-font-specification:'sans-serif Bold'" font-weight="700" font-size="6" font-family="sans-serif" letter-spacing="0" word-spacing="0" fill="#4e9d9b" stroke-width=".1" transform="translate(279 -756.6)"><tspan style="-inkscape-font-specification:'sans-serif Bold'" y="804.6" x="-134.4">P(X)</tspan></text><g transform="translate(319 -710.8)" fill="#2f5e5d"><rect rx="0" ry="0" y="743.6" x="-158.7" height="25.8" width="3.9"/><rect width="3.9" height="25.8" x="-153.4" y="743.6" ry="0" rx="0"/><rect width="3.9" height="25.8" x="-143.3" y="743.6" ry="0" rx="0"/><rect width="8.9" height="25.8" x="-132" y="743.6" ry="0" rx="0"/><rect width="3.9" height="25.8" x="-115.7" y="743.6" ry="0" rx="0"/><path d="M-158.7 765.9h46.8v4.3h-46.8z"/></g><text style="line-height:1.25;-inkscape-font-specification:'sans-serif Bold'" x="-97.7" y="823.4" font-weight="700" font-size="6" font-family="sans-serif" letter-spacing="0" word-spacing="0" fill="#4e9d9b" stroke-width=".2" transform="translate(279 -756.6)"><tspan x="-97.7" y="823.4" style="-inkscape-font-specification:'sans-serif Bold'">X</tspan></text><text style="line-height:1.25;-inkscape-font-specification:'sans-serif Bold'" x="-136.5" y="901.7" font-weight="700" font-size="6" font-family="sans-serif" letter-spacing="0" word-spacing="0" fill="#4e9d9b" stroke-width=".2" transform="translate(281.1 -753.6)"><tspan x="-136.5" y="901.7" style="-inkscape-font-specification:'sans-serif Bold'">P(X)</tspan></text><text y="919.9" x="-98.3" style="line-height:1.25;-inkscape-font-specification:'sans-serif Bold'" font-weight="700" font-size="6" font-family="sans-serif" letter-spacing="0" word-spacing="0" fill="#4e9d9b" stroke-width=".2" transform="translate(281.1 -753.6)"><tspan style="-inkscape-font-specification:'sans-serif Bold'" y="919.9" x="-98.3">X</tspan></text><g transform="translate(293.8 -706)" fill="#2f5e5d"><rect width="3.9" height="25.8" x="-132.1" y="838.9" ry="0" rx="0"/><rect rx="0" ry="0" y="838.9" x="-126.8" height="25.8" width="9"/><rect rx="0" ry="0" y="838.9" x="-111.9" height="25.8" width="18.3"/><path d="M-132.1 861.2h46.8v4.3H-132z"/></g><text y="772.6" x="-234.6" style="line-height:1.25;-inkscape-font-specification:'sans-serif Bold'" font-weight="700" font-size="6.3" font-family="sans-serif" letter-spacing="0" word-spacing="0" fill="#735273" stroke-width=".2" transform="translate(283 -751.7)"><tspan style="-inkscape-font-specification:'sans-serif Bold'" y="772.6" x="-234.6">x</tspan></text><text style="line-height:1.25;-inkscape-font-specification:'sans-serif Bold'" x="-201.5" y="772.2" font-weight="700" font-size="5.6" font-family="sans-serif" letter-spacing="0" word-spacing="0" fill="#735273" stroke-width=".2" transform="translate(283 -751.7)"><tspan x="-201.5" y="772.2" style="-inkscape-font-specification:'sans-serif Bold'">y</tspan></text><text style="line-height:1.25;-inkscape-font-specification:'sans-serif Bold'" x="-232.9" y="869" font-weight="700" font-size="6.3" font-family="sans-serif" letter-spacing="0" word-spacing="0" fill="#735273" stroke-width=".2" transform="translate(283 -751.7)"><tspan x="-232.9" y="869" style="-inkscape-font-specification:'sans-serif Bold'">x</tspan></text><text y="868.7" x="-199.7" style="line-height:1.25;-inkscape-font-specification:'sans-serif Bold'" font-weight="700" font-size="5.6" font-family="sans-serif" letter-spacing="0" word-spacing="0" fill="#735273" stroke-width=".2" transform="translate(283 -751.7)"><tspan style="-inkscape-font-specification:'sans-serif Bold'" y="868.7" x="-199.7">y</tspan></text><g fill="#a17ca1"><path d="M.1 40.1h13.7v13.7H.1z"/><g fill="#fff" font-weight="700" font-family="sans-serif" letter-spacing="0" word-spacing="0"><text y="740.3" x="-259.6" style="line-height:1.25;-inkscape-font-specification:'sans-serif Bold'" font-size="11.7" stroke-width=".3" transform="translate(262.8 -689.7)"><tspan style="-inkscape-font-specification:'sans-serif Bold'" y="740.3" x="-259.6">f</tspan></text><text style="line-height:1.25;-inkscape-font-specification:'sans-serif Bold'" x="-255.8" y="742" font-size="5.6" stroke-width=".1" transform="translate(262.8 -689.7)"><tspan x="-255.8" y="742" style="-inkscape-font-specification:'sans-serif Bold'">1</tspan></text></g></g><g fill="#a17ca1"><path d="M.1 138.7h13.7v13.7H.1z"/><g font-weight="700" font-family="sans-serif" letter-spacing="0" word-spacing="0" fill="#fff"><text y="838.2" x="-259.9" style="line-height:1.25;-inkscape-font-specification:'sans-serif Bold'" font-size="11.7" stroke-width=".3" transform="translate(262.6 -688.9)"><tspan style="-inkscape-font-specification:'sans-serif Bold'" y="838.2" x="-259.9">f</tspan></text><text y="840.5" x="-255.5" style="line-height:1.25;-inkscape-font-specification:'sans-serif Bold'" font-size="6.3" stroke-width=".2" transform="translate(262.6 -688.9)"><tspan style="-inkscape-font-specification:'sans-serif Bold'" y="840.5" x="-255.5">T</tspan></text></g></g><g fill="#a17ca1" fill-opacity=".5"><path d="M0 56.2h13.7V70H0z"/><path d="M0 67.2h13.7V81H0z"/><path d="M0 78.2h13.7v13.7H0z"/><path d="M0 89.2h13.7v13.6H0z"/><path d="M0 100.1h13.7v13.7H0z"/><path d="M0 111h13.7v13.8H0z"/><path d="M0 122h13.7v13.8H0z"/></g><rect width="16.3" height="16.3" x="113.8" y="37.8" ry="0" fill="#2f5e5d"/><text word-spacing="0" letter-spacing="0" font-size="13.8" font-weight="700" y="50.2" x="114.6" style="line-height:1.25;-inkscape-font-specification:'Ubuntu Condensed, Bold'" font-family="Ubuntu Condensed" fill="#fff" stroke-width=".3"><tspan style="-inkscape-font-specification:'sans-serif Bold'" y="50.2" x="114.6" font-family="sans-serif">D</tspan></text><text word-spacing="0" letter-spacing="0" font-size="5.6" font-weight="700" style="line-height:1.25;-inkscape-font-specification:'sans-serif Bold'" x="125.3" y="52.5" font-family="sans-serif" fill="#fff" stroke-width=".1"><tspan x="125.3" y="52.5" style="-inkscape-font-specification:'sans-serif Bold'">1</tspan></text><rect ry="0" y="138.2" x="113.8" height="16.3" width="16.3" rx="0" fill="#2f5e5d"/><g word-spacing="0" letter-spacing="0" font-weight="700" fill="#fff"><text font-size="13.8" y="833.1" x="-119.8" style="line-height:1.25;-inkscape-font-specification:'Ubuntu Condensed, Bold'" font-family="Ubuntu Condensed" stroke-width=".3" transform="translate(234 -682.5)"><tspan style="-inkscape-font-specification:'sans-serif Bold'" y="833.1" x="-119.8" font-family="sans-serif">D</tspan></text><text font-size="5.6" style="line-height:1.25;-inkscape-font-specification:'sans-serif Bold'" x="-109.1" y="835.3" font-family="sans-serif" stroke-width=".1" transform="translate(234 -682.5)"><tspan x="-109.1" y="835.3" style="-inkscape-font-specification:'sans-serif Bold'">T</tspan></text></g><path d="M115 56.2h13.7V70h-13.6z" fill="#4e9d9b" opacity=".5"/><path d="M115 67.2h13.7V81h-13.6z" fill="#4e9d9b" opacity=".5"/><path d="M115 78.2h13.7v13.7h-13.6z" fill="#4e9d9b" opacity=".5"/><path d="M115 89.2h13.7v13.6h-13.6z" fill="#4e9d9b" opacity=".5"/><path d="M115 100.1h13.7v13.7h-13.6z" fill="#4e9d9b" opacity=".5"/><path d="M115 111h13.7v13.8h-13.6z" fill="#4e9d9b" opacity=".5"/><path d="M115 122h13.7v13.8h-13.6z" fill="#4e9d9b" opacity=".5"/><text y="758.8" x="-245.3" style="line-height:1.25;-inkscape-font-specification:'sans-serif Bold'" font-weight="700" font-size="9.3" font-family="sans-serif" letter-spacing="0" word-spacing="0" fill="#a17ca1" stroke-width=".3" transform="translate(283 -751.7)"><tspan style="-inkscape-font-specification:'sans-serif Bold'" y="758.8" x="-245.3">function</tspan></text><text style="line-height:1.25;-inkscape-font-specification:'sans-serif Bold'" x="-135.8" y="758.8" font-weight="700" font-size="9.3" font-family="sans-serif" letter-spacing="0" word-spacing="0" fill="#2f5e5d" stroke-width=".3" transform="translate(283 -751.7)"><tspan x="-135.8" y="758.8" style="-inkscape-font-specification:'sans-serif Bold'">distribution</tspan></text><path d="M25.5 56.4H72v.8H25.5zm0 2H72v.9H25.5zm0 2.1H72v.8H25.5zm52.2-4.1h12v.8h-12zm0 2h12v.9h-12zm0 2.1h12v.8h-12z" fill="#a17ca1"/></svg>