<svg xmlns="http://www.w3.org/2000/svg" viewBox="0 0 216.776 178.57" height="674.911" width="819.312"><path fill="#d6ebea" d="M138.815 109.236h77.961v68.913h-77.961zm1.133-97.231h75.517v68.913h-75.517z"/><path fill="#d6c6d6" d="M20.664 109.658h78.859v68.913H20.664zm-.409-97.518h77.681v68.913H20.255zM20.28 97.027h78.929v3.587h-78.93zm0-5.257h78.929v3.588h-78.93zm0-5.255h78.929v3.587h-78.93zm0 15.768h78.929v3.587h-78.93z"/><g fill="#466160"><path d="M106.243 45.014v3.294h-6.706v-3.294z"/><path d="M104.674 42.433l.014 4.229.015 4.228 2.377-2.134 2.377-2.134-2.392-2.094z"/></g><path fill="#a17ca1" d="M31.257 25.064h10.981v10.804H31.257zm13.961 0h10.981v10.804H45.218z"/><g transform="translate(-43.287 -909.65) scale(1.36167)" fill="#a17ca1"><circle cx="76.41" cy="693.665" r=".715"/><circle r=".715" cy="693.665" cx="78.216"/><circle r=".715" cy="693.665" cx="80.021"/></g><path fill="#a17ca1" d="M78.019 25.064H89v10.804H78.019z"/><text y="786.69" x="-258.569" style="line-height:1.25;-inkscape-font-specification:sans-serif" font-weight="400" font-size="15.93" font-family="sans-serif" letter-spacing="0" word-spacing="0" fill="#466160" stroke-width=".398" transform="translate(283.028 -751.737)"><tspan style="-inkscape-font-specification:sans-serif" y="786.69" x="-258.569">[</tspan></text><text transform="matrix(-1 0 0 1 283.028 -751.737)" style="line-height:1.25;-inkscape-font-specification:sans-serif" x="209.28" y="786.69" font-weight="400" font-size="15.93" font-family="sans-serif" letter-spacing="0" word-spacing="0" fill="#466160" stroke-width=".398"><tspan x="209.28" y="786.69" style="-inkscape-font-specification:sans-serif">[</tspan></text><text style="line-height:1.25;-inkscape-font-specification:'sans-serif Bold'" x="-248.69" y="784.771" font-weight="700" font-size="7.056" font-family="sans-serif" letter-spacing="0" word-spacing="0" fill="#fff" stroke-width=".231" transform="translate(283.028 -751.737)"><tspan x="-248.69" y="784.771" style="-inkscape-font-specification:'sans-serif Bold'">0</tspan></text><text y="784.821" x="-234.747" style="line-height:1.25;-inkscape-font-specification:'sans-serif Bold'" font-weight="700" font-size="7.056" font-family="sans-serif" letter-spacing="0" word-spacing="0" fill="#fff" stroke-width=".231" transform="translate(283.028 -751.737)"><tspan style="-inkscape-font-specification:'sans-serif Bold'" y="784.821" x="-234.747">0</tspan></text><text y="784.771" x="-201.974" style="line-height:1.25;-inkscape-font-specification:'sans-serif Bold'" font-weight="700" font-size="7.056" font-family="sans-serif" letter-spacing="0" word-spacing="0" fill="#fff" stroke-width=".231" transform="translate(283.028 -751.737)"><tspan style="-inkscape-font-specification:'sans-serif Bold'" y="784.771" x="-201.974">0</tspan></text><path fill="#a17ca1" d="M31.257 41.952h10.981v10.804H31.257zm13.961 0h10.981v10.804H45.218z"/><g transform="translate(-43.287 -892.762) scale(1.36167)" fill="#a17ca1"><circle r=".715" cy="693.665" cx="76.41"/><circle cx="78.216" cy="693.665" r=".715"/><circle cx="80.021" cy="693.665" r=".715"/></g><path fill="#a17ca1" d="M78.019 41.952H89v10.804H78.019z"/><text style="line-height:1.25;-inkscape-font-specification:sans-serif" x="-258.569" y="803.578" font-weight="400" font-size="15.93" font-family="sans-serif" letter-spacing="0" word-spacing="0" fill="#466160" stroke-width=".398" transform="translate(283.028 -751.737)"><tspan x="-258.569" y="803.578" style="-inkscape-font-specification:sans-serif">[</tspan></text><text y="803.578" x="209.28" style="line-height:1.25;-inkscape-font-specification:sans-serif" transform="matrix(-1 0 0 1 283.028 -751.737)" font-weight="400" font-size="15.93" font-family="sans-serif" letter-spacing="0" word-spacing="0" fill="#466160" stroke-width=".398"><tspan style="-inkscape-font-specification:sans-serif" y="803.578" x="209.28">[</tspan></text><text y="801.662" x="-248.731" style="line-height:1.25;-inkscape-font-specification:'sans-serif Bold'" font-weight="700" font-size="7.056" font-family="sans-serif" letter-spacing="0" word-spacing="0" fill="#fff" stroke-width=".231" transform="translate(283.028 -751.737)"><tspan style="-inkscape-font-specification:'sans-serif Bold'" y="801.662" x="-248.731">0</tspan></text><text style="line-height:1.25;-inkscape-font-specification:'sans-serif Bold'" x="-234.93" y="801.662" font-weight="700" font-size="7.056" font-family="sans-serif" letter-spacing="0" word-spacing="0" fill="#fff" stroke-width=".231" transform="translate(283.028 -751.737)"><tspan x="-234.93" y="801.662" style="-inkscape-font-specification:'sans-serif Bold'">0</tspan></text><text style="line-height:1.25;-inkscape-font-specification:'sans-serif Bold'" x="-201.974" y="801.659" font-weight="700" font-size="7.056" font-family="sans-serif" letter-spacing="0" word-spacing="0" fill="#fff" stroke-width=".231" transform="translate(283.028 -751.737)"><tspan x="-201.974" y="801.659" style="-inkscape-font-specification:'sans-serif Bold'">0</tspan></text><path fill="#a17ca1" d="M31.257 65.094h10.981v10.804H31.257zm13.961 0h10.981v10.804H45.218z"/><g transform="translate(-43.287 -869.62) scale(1.36167)" fill="#a17ca1"><circle cx="76.41" cy="693.665" r=".715"/><circle r=".715" cy="693.665" cx="78.216"/><circle r=".715" cy="693.665" cx="80.021"/></g><path fill="#a17ca1" d="M78.019 65.094H89v10.804H78.019z"/><text y="826.72" x="-258.569" style="line-height:1.25;-inkscape-font-specification:sans-serif" font-weight="400" font-size="15.93" font-family="sans-serif" letter-spacing="0" word-spacing="0" fill="#466160" stroke-width=".398" transform="translate(283.028 -751.737)"><tspan style="-inkscape-font-specification:sans-serif" y="826.72" x="-258.569">[</tspan></text><text transform="matrix(-1 0 0 1 283.028 -751.737)" style="line-height:1.25;-inkscape-font-specification:sans-serif" x="209.28" y="826.72" font-weight="400" font-size="15.93" font-family="sans-serif" letter-spacing="0" word-spacing="0" fill="#466160" stroke-width=".398"><tspan x="209.28" y="826.72" style="-inkscape-font-specification:sans-serif">[</tspan></text><text style="line-height:1.25;-inkscape-font-specification:'sans-serif Bold'" x="-248.761" y="824.755" font-weight="700" font-size="7.056" font-family="sans-serif" letter-spacing="0" word-spacing="0" fill="#fff" stroke-width=".231" transform="translate(283.028 -751.737)"><tspan x="-248.761" y="824.755" style="-inkscape-font-specification:'sans-serif Bold'">1</tspan></text><text y="824.805" x="-234.73" style="line-height:1.25;-inkscape-font-specification:'sans-serif Bold'" font-weight="700" font-size="7.056" font-family="sans-serif" letter-spacing="0" word-spacing="0" fill="#fff" stroke-width=".231" transform="translate(283.028 -751.737)"><tspan style="-inkscape-font-specification:'sans-serif Bold'" y="824.805" x="-234.73">1</tspan></text><text y="824.801" x="-201.974" style="line-height:1.25;-inkscape-font-specification:'sans-serif Bold'" font-weight="700" font-size="7.056" font-family="sans-serif" letter-spacing="0" word-spacing="0" fill="#fff" stroke-width=".231" transform="translate(283.028 -751.737)"><tspan style="-inkscape-font-specification:'sans-serif Bold'" y="824.801" x="-201.974">0</tspan></text><g fill="#466160"><path d="M106.86 143.381v3.294h-6.705v-3.294z"/><path d="M105.291 140.8l.015 4.229.015 4.229 2.377-2.134 2.377-2.134-2.392-2.095z"/></g><path fill="#a17ca1" d="M32.739 121.849H43.72v10.804H32.739zm13.96 0H57.68v10.804H46.699z"/><g transform="translate(-42.334 -812.865) scale(1.36167)" fill="#a17ca1"><circle r=".715" cy="693.665" cx="76.41"/><circle cx="78.216" cy="693.665" r=".715"/><circle cx="80.021" cy="693.665" r=".715"/></g><path fill="#a17ca1" d="M79.5 121.849h10.981v10.804H79.5z"/><text style="line-height:1.25;-inkscape-font-specification:sans-serif" x="-257.088" y="883.474" font-weight="400" font-size="15.93" font-family="sans-serif" letter-spacing="0" word-spacing="0" fill="#466160" stroke-width=".398" transform="translate(283.028 -751.737)"><tspan x="-257.088" y="883.474" style="-inkscape-font-specification:sans-serif">[</tspan></text><text y="883.474" x="207.798" style="line-height:1.25;-inkscape-font-specification:sans-serif" transform="matrix(-1 0 0 1 283.028 -751.737)" font-weight="400" font-size="15.93" font-family="sans-serif" letter-spacing="0" word-spacing="0" fill="#466160" stroke-width=".398"><tspan style="-inkscape-font-specification:sans-serif" y="883.474" x="207.798">[</tspan></text><text y="881.556" x="-247.208" style="line-height:1.25;-inkscape-font-specification:'sans-serif Bold'" font-weight="700" font-size="7.056" font-family="sans-serif" letter-spacing="0" word-spacing="0" fill="#fff" stroke-width=".231" transform="translate(283.028 -751.737)"><tspan style="-inkscape-font-specification:'sans-serif Bold'" y="881.556" x="-247.208">0</tspan></text><text style="line-height:1.25;-inkscape-font-specification:'sans-serif Bold'" x="-233.265" y="881.606" font-weight="700" font-size="7.056" font-family="sans-serif" letter-spacing="0" word-spacing="0" fill="#fff" stroke-width=".231" transform="translate(283.028 -751.737)"><tspan x="-233.265" y="881.606" style="-inkscape-font-specification:'sans-serif Bold'">0</tspan></text><text style="line-height:1.25;-inkscape-font-specification:'sans-serif Bold'" x="-200.492" y="881.556" font-weight="700" font-size="7.056" font-family="sans-serif" letter-spacing="0" word-spacing="0" fill="#fff" stroke-width=".231" transform="translate(283.028 -751.737)"><tspan x="-200.492" y="881.556" style="-inkscape-font-specification:'sans-serif Bold'">1</tspan></text><path fill="#a17ca1" d="M32.739 138.736H43.72v10.804H32.739zm13.96 0H57.68v10.804H46.699z"/><g transform="translate(-42.334 -795.978) scale(1.36167)" fill="#a17ca1"><circle cx="76.41" cy="693.665" r=".715"/><circle r=".715" cy="693.665" cx="78.216"/><circle r=".715" cy="693.665" cx="80.021"/></g><path fill="#a17ca1" d="M79.5 138.736h10.981v10.804H79.5z"/><text y="900.362" x="-257.088" style="line-height:1.25;-inkscape-font-specification:sans-serif" font-weight="400" font-size="15.93" font-family="sans-serif" letter-spacing="0" word-spacing="0" fill="#466160" stroke-width=".398" transform="translate(283.028 -751.737)"><tspan style="-inkscape-font-specification:sans-serif" y="900.362" x="-257.088">[</tspan></text><text transform="matrix(-1 0 0 1 283.028 -751.737)" style="line-height:1.25;-inkscape-font-specification:sans-serif" x="207.798" y="900.362" font-weight="400" font-size="15.93" font-family="sans-serif" letter-spacing="0" word-spacing="0" fill="#466160" stroke-width=".398"><tspan x="207.798" y="900.362" style="-inkscape-font-specification:sans-serif">[</tspan></text><text style="line-height:1.25;-inkscape-font-specification:'sans-serif Bold'" x="-247.25" y="898.447" font-weight="700" font-size="7.056" font-family="sans-serif" letter-spacing="0" word-spacing="0" fill="#fff" stroke-width=".231" transform="translate(283.028 -751.737)"><tspan x="-247.25" y="898.447" style="-inkscape-font-specification:'sans-serif Bold'">0</tspan></text><text y="898.447" x="-233.448" style="line-height:1.25;-inkscape-font-specification:'sans-serif Bold'" font-weight="700" font-size="7.056" font-family="sans-serif" letter-spacing="0" word-spacing="0" fill="#fff" stroke-width=".231" transform="translate(283.028 -751.737)"><tspan style="-inkscape-font-specification:'sans-serif Bold'" y="898.447" x="-233.448">0</tspan></text><text y="898.444" x="-200.492" style="line-height:1.25;-inkscape-font-specification:'sans-serif Bold'" font-weight="700" font-size="7.056" font-family="sans-serif" letter-spacing="0" word-spacing="0" fill="#fff" stroke-width=".231" transform="translate(283.028 -751.737)"><tspan style="-inkscape-font-specification:'sans-serif Bold'" y="898.444" x="-200.492">1</tspan></text><path fill="#a17ca1" d="M32.739 161.878H43.72v10.804H32.739zm13.96 0H57.68v10.804H46.699z"/><g transform="translate(-42.334 -772.835) scale(1.36167)" fill="#a17ca1"><circle r=".715" cy="693.665" cx="76.41"/><circle cx="78.216" cy="693.665" r=".715"/><circle cx="80.021" cy="693.665" r=".715"/></g><path fill="#a17ca1" d="M79.5 161.878h10.981v10.804H79.5z"/><text style="line-height:1.25;-inkscape-font-specification:sans-serif" x="-257.088" y="923.504" font-weight="400" font-size="15.93" font-family="sans-serif" letter-spacing="0" word-spacing="0" fill="#466160" stroke-width=".398" transform="translate(283.028 -751.737)"><tspan x="-257.088" y="923.504" style="-inkscape-font-specification:sans-serif">[</tspan></text><text y="923.504" x="207.798" style="line-height:1.25;-inkscape-font-specification:sans-serif" transform="matrix(-1 0 0 1 283.028 -751.737)" font-weight="400" font-size="15.93" font-family="sans-serif" letter-spacing="0" word-spacing="0" fill="#466160" stroke-width=".398"><tspan style="-inkscape-font-specification:sans-serif" y="923.504" x="207.798">[</tspan></text><text y="921.539" x="-247.279" style="line-height:1.25;-inkscape-font-specification:'sans-serif Bold'" font-weight="700" font-size="7.056" font-family="sans-serif" letter-spacing="0" word-spacing="0" fill="#fff" stroke-width=".231" transform="translate(283.028 -751.737)"><tspan style="-inkscape-font-specification:'sans-serif Bold'" y="921.539" x="-247.279">1</tspan></text><text style="line-height:1.25;-inkscape-font-specification:'sans-serif Bold'" x="-233.248" y="921.589" font-weight="700" font-size="7.056" font-family="sans-serif" letter-spacing="0" word-spacing="0" fill="#fff" stroke-width=".231" transform="translate(283.028 -751.737)"><tspan x="-233.248" y="921.589" style="-inkscape-font-specification:'sans-serif Bold'">1</tspan></text><text style="line-height:1.25;-inkscape-font-specification:'sans-serif Bold'" x="-200.492" y="921.586" font-weight="700" font-size="7.056" font-family="sans-serif" letter-spacing="0" word-spacing="0" fill="#fff" stroke-width=".231" transform="translate(283.028 -751.737)"><tspan x="-200.492" y="921.586" style="-inkscape-font-specification:'sans-serif Bold'">1</tspan></text><path d="M27.345 153.028h46.606v.827H27.345zm0 2.051h46.606v.827H27.345zm0 2.051h46.606v.827H27.345zM77.661 153.014h11.951v.827h-11.95zm0 2.051h11.951v.827h-11.95zm0 2.052h11.951v.827h-11.95z" fill="#a17ca1"/><path d="M139.54 97.027h76.244v3.587H139.54zm0-5.257h76.244v3.588H139.54zm0-5.255h76.244v3.587H139.54zm0 15.768h76.244v3.587H139.54z" fill="#d6ebea"/><text y="804.559" x="-134.405" style="line-height:1.25;-inkscape-font-specification:'sans-serif Bold'" font-weight="700" font-size="5.986" font-family="sans-serif" letter-spacing="0" word-spacing="0" fill="#4e9d9b" stroke-width=".15" transform="translate(279.089 -756.565)"><tspan style="-inkscape-font-specification:'sans-serif Bold'" y="804.559" x="-134.405">P(X)</tspan></text><g transform="translate(318.939 -710.802)" fill="#2f5e5d"><rect rx="0" ry="0" y="743.637" x="-158.717" height="25.775" width="3.87"/><rect width="3.87" height="25.775" x="-153.399" y="743.637" ry="0" rx="0"/><rect width="3.87" height="25.775" x="-143.309" y="743.637" ry="0" rx="0"/><rect width="8.915" height="25.775" x="-132" y="743.637" ry="0" rx="0"/><rect width="3.87" height="25.775" x="-115.721" y="743.637" ry="0" rx="0"/><path d="M-158.72 765.88h46.836v4.323h-46.836z"/></g><text style="line-height:1.25;-inkscape-font-specification:'sans-serif Bold'" x="-97.744" y="823.428" font-weight="700" font-size="5.997" font-family="sans-serif" letter-spacing="0" word-spacing="0" fill="#4e9d9b" stroke-width=".241" transform="translate(279.089 -756.565)"><tspan x="-97.744" y="823.428" style="-inkscape-font-specification:'sans-serif Bold'">X</tspan></text><text style="line-height:1.25;-inkscape-font-specification:'sans-serif Bold'" x="-136.463" y="901.654" font-weight="700" font-size="5.997" font-family="sans-serif" letter-spacing="0" word-spacing="0" fill="#4e9d9b" stroke-width=".241" transform="translate(281.145 -753.569)"><tspan x="-136.463" y="901.654" style="-inkscape-font-specification:'sans-serif Bold'">P(X)</tspan></text><text y="919.931" x="-98.326" style="line-height:1.25;-inkscape-font-specification:'sans-serif Bold'" font-weight="700" font-size="5.997" font-family="sans-serif" letter-spacing="0" word-spacing="0" fill="#4e9d9b" stroke-width=".241" transform="translate(281.145 -753.569)"><tspan style="-inkscape-font-specification:'sans-serif Bold'" y="919.931" x="-98.326">X</tspan></text><g transform="translate(293.811 -706.016)" fill="#2f5e5d"><rect width="3.87" height="25.775" x="-132.098" y="838.939" ry="0" rx="0"/><rect rx="0" ry="0" y="838.939" x="-126.78" height="25.775" width="9.028"/><rect rx="0" ry="0" y="838.939" x="-111.872" height="25.775" width="18.295"/><path d="M-132.101 861.182h46.836v4.323h-46.836z"/></g><text y="772.624" x="-234.617" style="line-height:1.25;-inkscape-font-specification:'sans-serif Bold'" font-weight="700" font-size="6.35" font-family="sans-serif" letter-spacing="0" word-spacing="0" fill="#735273" stroke-width=".2" transform="translate(283.028 -751.737)"><tspan style="-inkscape-font-specification:'sans-serif Bold'" y="772.624" x="-234.617">x</tspan></text><text style="line-height:1.25;-inkscape-font-specification:'sans-serif Bold'" x="-201.462" y="772.238" font-weight="700" font-size="5.644" font-family="sans-serif" letter-spacing="0" word-spacing="0" fill="#735273" stroke-width=".2" transform="translate(283.028 -751.737)"><tspan x="-201.462" y="772.238" style="-inkscape-font-specification:'sans-serif Bold'">y</tspan></text><text style="line-height:1.25;-inkscape-font-specification:'sans-serif Bold'" x="-232.902" y="869.037" font-weight="700" font-size="6.35" font-family="sans-serif" letter-spacing="0" word-spacing="0" fill="#735273" stroke-width=".2" transform="translate(283.028 -751.737)"><tspan x="-232.902" y="869.037" style="-inkscape-font-specification:'sans-serif Bold'">x</tspan></text><text y="868.652" x="-199.747" style="line-height:1.25;-inkscape-font-specification:'sans-serif Bold'" font-weight="700" font-size="5.644" font-family="sans-serif" letter-spacing="0" word-spacing="0" fill="#735273" stroke-width=".2" transform="translate(283.028 -751.737)"><tspan style="-inkscape-font-specification:'sans-serif Bold'" y="868.652" x="-199.747">y</tspan></text><g fill="#a17ca1"><path d="M.142 40.123h13.69v13.69H.142z"/><g fill="#fff" font-weight="700" font-family="sans-serif" letter-spacing="0" word-spacing="0"><text y="740.317" x="-259.623" style="line-height:1.25;-inkscape-font-specification:'sans-serif Bold'" font-size="11.739" stroke-width=".293" transform="translate(262.827 -689.725)"><tspan style="-inkscape-font-specification:'sans-serif Bold'" y="740.317" x="-259.623">f</tspan></text><text style="line-height:1.25;-inkscape-font-specification:'sans-serif Bold'" x="-255.803" y="741.987" font-size="5.617" stroke-width=".14" transform="translate(262.827 -689.725)"><tspan x="-255.803" y="741.987" style="-inkscape-font-specification:'sans-serif Bold'">1</tspan></text></g></g><g fill="#a17ca1"><path d="M.142 138.72h13.69v13.69H.142z"/><g font-weight="700" font-family="sans-serif" letter-spacing="0" word-spacing="0" fill="#fff"><text y="838.19" x="-259.891" style="line-height:1.25;-inkscape-font-specification:'sans-serif Bold'" font-size="11.739" stroke-width=".293" transform="translate(262.576 -688.89)"><tspan style="-inkscape-font-specification:'sans-serif Bold'" y="838.19" x="-259.891">f</tspan></text><text y="840.53" x="-255.545" style="line-height:1.25;-inkscape-font-specification:'sans-serif Bold'" font-size="6.287" stroke-width=".157" transform="translate(262.576 -688.89)"><tspan style="-inkscape-font-specification:'sans-serif Bold'" y="840.53" x="-255.545">T</tspan></text></g></g><g fill="#a17ca1" fill-opacity=".5"><path d="M0 56.233h13.69v13.69H0z"/><path d="M0 67.205h13.69v13.69H0z"/><path d="M0 78.178h13.69v13.69H0z"/><path d="M0 89.15h13.69v13.69H0z"/><path d="M0 100.122h13.69v13.69H0z"/><path d="M0 111.094h13.69v13.69H0z"/><path d="M0 122.067h13.69v13.69H0z"/></g><rect width="16.274" height="16.274" x="113.76" y="37.795" ry="0" fill="#2f5e5d"/><text word-spacing="0" letter-spacing="0" font-size="13.818" font-weight="700" y="50.234" x="114.633" style="line-height:1.25;-inkscape-font-specification:'Ubuntu Condensed, Bold'" font-family="Ubuntu Condensed" fill="#fff" stroke-width=".345"><tspan style="-inkscape-font-specification:'sans-serif Bold'" y="50.234" x="114.633" font-family="sans-serif">D</tspan></text><text word-spacing="0" letter-spacing="0" font-size="5.617" font-weight="700" style="line-height:1.25;-inkscape-font-specification:'sans-serif Bold'" x="125.26" y="52.459" font-family="sans-serif" fill="#fff" stroke-width=".14"><tspan x="125.26" y="52.459" style="-inkscape-font-specification:'sans-serif Bold'">1</tspan></text><rect ry="0" y="138.201" x="113.761" height="16.274" width="16.274" rx="0" fill="#2f5e5d"/><g word-spacing="0" letter-spacing="0" font-weight="700" fill="#fff"><text font-size="13.818" y="833.104" x="-119.77" style="line-height:1.25;-inkscape-font-specification:'Ubuntu Condensed, Bold'" font-family="Ubuntu Condensed" stroke-width=".345" transform="translate(233.931 -682.529)"><tspan style="-inkscape-font-specification:'sans-serif Bold'" y="833.104" x="-119.77" font-family="sans-serif">D</tspan></text><text font-size="5.617" style="line-height:1.25;-inkscape-font-specification:'sans-serif Bold'" x="-109.143" y="835.329" font-family="sans-serif" stroke-width=".14" transform="translate(233.931 -682.529)"><tspan x="-109.143" y="835.329" style="-inkscape-font-specification:'sans-serif Bold'">T</tspan></text></g><path d="M115.052 56.233h13.69v13.69h-13.69z" fill="#4e9d9b" opacity=".5"/><path d="M115.052 67.205h13.69v13.69h-13.69z" fill="#4e9d9b" opacity=".5"/><path d="M115.052 78.178h13.69v13.69h-13.69z" fill="#4e9d9b" opacity=".5"/><path d="M115.052 89.15h13.69v13.69h-13.69z" fill="#4e9d9b" opacity=".5"/><path d="M115.052 100.122h13.69v13.69h-13.69z" fill="#4e9d9b" opacity=".5"/><path d="M115.052 111.094h13.69v13.69h-13.69z" fill="#4e9d9b" opacity=".5"/><path d="M115.052 122.067h13.69v13.69h-13.69z" fill="#4e9d9b" opacity=".5"/><text y="758.77" x="-245.304" style="line-height:1.25;-inkscape-font-specification:'sans-serif Bold'" font-weight="700" font-size="9.257" font-family="sans-serif" letter-spacing="0" word-spacing="0" fill="#a17ca1" stroke-width=".302" transform="translate(283.028 -751.737)"><tspan style="-inkscape-font-specification:'sans-serif Bold'" y="758.77" x="-245.304">function</tspan></text><text style="line-height:1.25;-inkscape-font-specification:'sans-serif Bold'" x="-135.825" y="758.77" font-weight="700" font-size="9.257" font-family="sans-serif" letter-spacing="0" word-spacing="0" fill="#2f5e5d" stroke-width=".302" transform="translate(283.028 -751.737)"><tspan x="-135.825" y="758.77" style="-inkscape-font-specification:'sans-serif Bold'">distribution</tspan></text><path d="M25.54 56.407h46.468v.827H25.541zm0 2.052h46.468v.827H25.541zm0 2.051h46.468v.827H25.541zM77.661 56.393h11.951v.827H77.661zm0 2.052h11.951v.827H77.661zm0 2.051h11.951v.827H77.661z" fill="#a17ca1"/></svg>