<svg xmlns="http://www.w3.org/2000/svg" width="898.23" height="319.557" viewBox="0 0 237.656 84.549"><text style="line-height:1.25;-inkscape-font-specification:'sans-serif Bold'" x="-.159" y="68.388" font-weight="700" font-size="32.617" letter-spacing="0" word-spacing="0" font-family="sans-serif" fill="#363636" stroke-width=".815"><tspan x="-.159" y="68.388" style="-inkscape-font-specification:'sans-serif Bold'">A</tspan></text><text transform="scale(.51897 1.92689)" y="38.856" x="197.394" style="line-height:1.25;-inkscape-font-specification:'sans-serif Bold'" font-weight="700" font-size="30.416" letter-spacing="0" word-spacing="0" font-family="sans-serif" fill="#363636" stroke-width=".76"><tspan style="-inkscape-font-specification:'sans-serif Bold'" y="38.856" x="197.394">)</tspan></text><path d="M40.537 31.571h10.98v10.804H40.54zm13.96 0h10.98v10.804h-10.98z" fill="#a17ca1"/><g transform="translate(-34.007 -903.142) scale(1.36167)" fill="#a17ca1"><circle r=".715" cy="693.665" cx="76.41"/><circle cx="78.216" cy="693.665" r=".715"/><circle cx="80.021" cy="693.665" r=".715"/></g><path d="M87.299 31.571h10.98v10.804h-10.98z" fill="#a17ca1"/><text style="line-height:1.25;-inkscape-font-specification:sans-serif" x="33.738" y="41.46" font-weight="400" font-size="15.93" letter-spacing="0" word-spacing="0" font-family="sans-serif" fill="#466160" stroke-width=".398"><tspan x="33.738" y="41.46" style="-inkscape-font-specification:sans-serif">[</tspan></text><text y="41.46" x="-83.028" style="line-height:1.25;-inkscape-font-specification:sans-serif" transform="scale(-1 1)" font-weight="400" font-size="15.93" letter-spacing="0" word-spacing="0" font-family="sans-serif" fill="#466160" stroke-width=".398"><tspan style="-inkscape-font-specification:sans-serif" y="41.46" x="-83.028">[</tspan></text><text y="39.541" x="43.618" style="line-height:1.25;-inkscape-font-specification:'sans-serif Bold'" font-weight="700" font-size="7.056" letter-spacing="0" word-spacing="0" font-family="sans-serif" fill="#fff" stroke-width=".231"><tspan style="-inkscape-font-specification:'sans-serif Bold'" y="39.541" x="43.618">0</tspan></text><text style="line-height:1.25;-inkscape-font-specification:'sans-serif Bold'" x="57.561" y="39.591" font-weight="700" font-size="7.056" letter-spacing="0" word-spacing="0" font-family="sans-serif" fill="#fff" stroke-width=".231"><tspan x="57.561" y="39.591" style="-inkscape-font-specification:'sans-serif Bold'">0</tspan></text><text style="line-height:1.25;-inkscape-font-specification:'sans-serif Bold'" x="90.334" y="39.541" font-weight="700" font-size="7.056" letter-spacing="0" word-spacing="0" font-family="sans-serif" fill="#fff" stroke-width=".231"><tspan x="90.334" y="39.541" style="-inkscape-font-specification:'sans-serif Bold'">0</tspan></text><path d="M40.537 48.458h10.98v10.804H40.54zm13.96.001h10.98v10.804h-10.98z" fill="#a17ca1"/><g transform="translate(-34.007 -886.254) scale(1.36167)" fill="#a17ca1"><circle cx="76.41" cy="693.665" r=".715"/><circle r=".715" cy="693.665" cx="78.216"/><circle r=".715" cy="693.665" cx="80.021"/></g><path d="M87.299 48.46h10.98v10.803h-10.98z" fill="#a17ca1"/><text y="58.347" x="33.738" style="line-height:1.25;-inkscape-font-specification:sans-serif" font-weight="400" font-size="15.93" letter-spacing="0" word-spacing="0" font-family="sans-serif" fill="#466160" stroke-width=".398"><tspan style="-inkscape-font-specification:sans-serif" y="58.347" x="33.738">[</tspan></text><text transform="scale(-1 1)" style="line-height:1.25;-inkscape-font-specification:sans-serif" x="-83.028" y="58.347" font-weight="400" font-size="15.93" letter-spacing="0" word-spacing="0" font-family="sans-serif" fill="#466160" stroke-width=".398"><tspan x="-83.028" y="58.347" style="-inkscape-font-specification:sans-serif">[</tspan></text><text style="line-height:1.25;-inkscape-font-specification:'sans-serif Bold'" x="43.576" y="56.432" font-weight="700" font-size="7.056" letter-spacing="0" word-spacing="0" font-family="sans-serif" fill="#fff" stroke-width=".231"><tspan x="43.576" y="56.432" style="-inkscape-font-specification:'sans-serif Bold'">0</tspan></text><text y="56.432" x="57.378" style="line-height:1.25;-inkscape-font-specification:'sans-serif Bold'" font-weight="700" font-size="7.056" letter-spacing="0" word-spacing="0" font-family="sans-serif" fill="#fff" stroke-width=".231"><tspan style="-inkscape-font-specification:'sans-serif Bold'" y="56.432" x="57.378">0</tspan></text><text y="56.429" x="90.334" style="line-height:1.25;-inkscape-font-specification:'sans-serif Bold'" font-weight="700" font-size="7.056" letter-spacing="0" word-spacing="0" font-family="sans-serif" fill="#fff" stroke-width=".231"><tspan style="-inkscape-font-specification:'sans-serif Bold'" y="56.429" x="90.334">0</tspan></text><path d="M40.537 71.601h10.98v10.804H40.54zm13.96 0h10.98v10.804h-10.98z" fill="#a17ca1"/><g transform="translate(-34.007 -863.112) scale(1.36167)" fill="#a17ca1"><circle r=".715" cy="693.665" cx="76.41"/><circle cx="78.216" cy="693.665" r=".715"/><circle cx="80.021" cy="693.665" r=".715"/></g><path d="M87.299 71.601h10.98v10.804h-10.98z" fill="#a17ca1"/><text style="line-height:1.25;-inkscape-font-specification:sans-serif" x="33.738" y="81.49" font-weight="400" font-size="15.93" letter-spacing="0" word-spacing="0" font-family="sans-serif" fill="#466160" stroke-width=".398"><tspan x="33.738" y="81.49" style="-inkscape-font-specification:sans-serif">[</tspan></text><text y="81.49" x="-83.028" style="line-height:1.25;-inkscape-font-specification:sans-serif" transform="scale(-1 1)" font-weight="400" font-size="15.93" letter-spacing="0" word-spacing="0" font-family="sans-serif" fill="#466160" stroke-width=".398"><tspan style="-inkscape-font-specification:sans-serif" y="81.49" x="-83.028">[</tspan></text><text y="79.525" x="43.547" style="line-height:1.25;-inkscape-font-specification:'sans-serif Bold'" font-weight="700" font-size="7.056" letter-spacing="0" word-spacing="0" font-family="sans-serif" fill="#fff" stroke-width=".231"><tspan style="-inkscape-font-specification:'sans-serif Bold'" y="79.525" x="43.547">1</tspan></text><text style="line-height:1.25;-inkscape-font-specification:'sans-serif Bold'" x="57.578" y="79.575" font-weight="700" font-size="7.056" letter-spacing="0" word-spacing="0" font-family="sans-serif" fill="#fff" stroke-width=".231"><tspan x="57.578" y="79.575" style="-inkscape-font-specification:'sans-serif Bold'">1</tspan></text><text style="line-height:1.25;-inkscape-font-specification:'sans-serif Bold'" x="90.334" y="79.571" font-weight="700" font-size="7.056" letter-spacing="0" word-spacing="0" font-family="sans-serif" fill="#fff" stroke-width=".231"><tspan x="90.334" y="79.571" style="-inkscape-font-specification:'sans-serif Bold'">0</tspan></text><text style="line-height:1.25;-inkscape-font-specification:'sans-serif Bold'" x="-64.227" y="38.856" transform="scale(-.51897 1.92689)" font-weight="700" font-size="30.416" letter-spacing="0" word-spacing="0" font-family="sans-serif" fill="#363636" stroke-width=".76"><tspan x="-64.227" y="38.856" style="-inkscape-font-specification:'sans-serif Bold'">)</tspan></text><g fill="#363636"><path d="M121.199 54.447v4.104h-8.22v-4.104z"/><path d="M119.276 51.232l.018 5.268.018 5.268 2.913-2.659 2.913-2.658-2.931-2.61z"/></g><path d="M129.516 42.094h28.812v28.812h-28.812z" fill="#99039e"/><text y="64.187" x="136.659" style="line-height:1.25;-inkscape-font-specification:'sans-serif Bold'" font-weight="700" font-size="20.236" letter-spacing="0" word-spacing="0" font-family="sans-serif" fill="#fff" stroke-width=".506"><tspan style="-inkscape-font-specification:'sans-serif Bold'" y="64.187" x="136.659">h</tspan></text><path d="M151.966 53.747l24.686-28.216s61.077.449 60.895.335l.11 58.362-61.106.321z" fill="#dae4e3" fill-opacity=".5"/><path d="M182.27 34.857h9.239v9.09h-9.24zm11.745 0h9.238v9.09h-9.238z" fill="#7ca19c"/><g transform="translate(119.555 -751.53) scale(1.1456)" fill="#7ca19c"><circle cx="76.41" cy="693.665" r=".715"/><circle r=".715" cy="693.665" cx="78.216"/><circle r=".715" cy="693.665" cx="80.021"/></g><path d="M221.61 34.857h9.239v9.09h-9.238z" fill="#7ca19c"/><text y="43.174" x="176.549" style="line-height:1.25;-inkscape-font-specification:sans-serif" font-weight="400" font-size="13.402" letter-spacing="0" word-spacing="0" font-family="sans-serif" fill="#466160" stroke-width=".335"><tspan style="-inkscape-font-specification:sans-serif" y="43.174" x="176.549">[</tspan></text><text transform="scale(-1 1)" style="line-height:1.25;-inkscape-font-specification:sans-serif" x="-218.017" y="43.174" font-weight="400" font-size="13.402" letter-spacing="0" word-spacing="0" font-family="sans-serif" fill="#466160" stroke-width=".335"><tspan x="-218.017" y="43.174" style="-inkscape-font-specification:sans-serif">[</tspan></text><text style="line-height:1.25;-inkscape-font-specification:'sans-serif Bold'" x="184.861" y="41.559" font-weight="700" font-size="5.936" letter-spacing="0" word-spacing="0" font-family="sans-serif" fill="#fff" stroke-width=".194"><tspan x="184.861" y="41.559" style="-inkscape-font-specification:'sans-serif Bold'">0</tspan></text><text y="41.602" x="196.591" style="line-height:1.25;-inkscape-font-specification:'sans-serif Bold'" font-weight="700" font-size="5.936" letter-spacing="0" word-spacing="0" font-family="sans-serif" fill="#fff" stroke-width=".194"><tspan style="-inkscape-font-specification:'sans-serif Bold'" y="41.602" x="196.591">0</tspan></text><text y="41.559" x="224.164" style="line-height:1.25;-inkscape-font-specification:'sans-serif Bold'" font-weight="700" font-size="5.936" letter-spacing="0" word-spacing="0" font-family="sans-serif" fill="#fff" stroke-width=".194"><tspan style="-inkscape-font-specification:'sans-serif Bold'" y="41.559" x="224.164">0</tspan></text><path d="M182.27 49.066h9.239v9.09h-9.24zm11.745 0h9.238v9.09h-9.238z" fill="#7ca19c"/><g transform="translate(119.555 -737.323) scale(1.1456)" fill="#7ca19c"><circle r=".715" cy="693.665" cx="76.41"/><circle cx="78.216" cy="693.665" r=".715"/><circle cx="80.021" cy="693.665" r=".715"/></g><path d="M221.61 49.066h9.239v9.09h-9.238z" fill="#7ca19c"/><text style="line-height:1.25;-inkscape-font-specification:sans-serif" x="176.549" y="57.382" font-weight="400" font-size="13.402" letter-spacing="0" word-spacing="0" font-family="sans-serif" fill="#466160" stroke-width=".335"><tspan x="176.549" y="57.382" style="-inkscape-font-specification:sans-serif">[</tspan></text><text y="57.382" x="-218.017" style="line-height:1.25;-inkscape-font-specification:sans-serif" transform="scale(-1 1)" font-weight="400" font-size="13.402" letter-spacing="0" word-spacing="0" font-family="sans-serif" fill="#466160" stroke-width=".335"><tspan style="-inkscape-font-specification:sans-serif" y="57.382" x="-218.017">[</tspan></text><text y="55.771" x="184.826" style="line-height:1.25;-inkscape-font-specification:'sans-serif Bold'" font-weight="700" font-size="5.936" letter-spacing="0" word-spacing="0" font-family="sans-serif" fill="#fff" stroke-width=".194"><tspan style="-inkscape-font-specification:'sans-serif Bold'" y="55.771" x="184.826">0</tspan></text><text style="line-height:1.25;-inkscape-font-specification:'sans-serif Bold'" x="196.437" y="55.771" font-weight="700" font-size="5.936" letter-spacing="0" word-spacing="0" font-family="sans-serif" fill="#fff" stroke-width=".194"><tspan x="196.437" y="55.771" style="-inkscape-font-specification:'sans-serif Bold'">0</tspan></text><text style="line-height:1.25;-inkscape-font-specification:'sans-serif Bold'" x="224.164" y="55.768" font-weight="700" font-size="5.936" letter-spacing="0" word-spacing="0" font-family="sans-serif" fill="#fff" stroke-width=".194"><tspan x="224.164" y="55.768" style="-inkscape-font-specification:'sans-serif Bold'">0</tspan></text><path d="M182.27 68.536h9.239v9.09h-9.24zm11.745 0h9.238v9.09h-9.238z" fill="#7ca19c"/><g transform="translate(119.555 -717.853) scale(1.1456)" fill="#7ca19c"><circle cx="76.41" cy="693.665" r=".715"/><circle r=".715" cy="693.665" cx="78.216"/><circle r=".715" cy="693.665" cx="80.021"/></g><path d="M221.61 68.536h9.239v9.09h-9.238z" fill="#7ca19c"/><text y="76.852" x="176.549" style="line-height:1.25;-inkscape-font-specification:sans-serif" font-weight="400" font-size="13.402" letter-spacing="0" word-spacing="0" font-family="sans-serif" fill="#466160" stroke-width=".335"><tspan style="-inkscape-font-specification:sans-serif" y="76.852" x="176.549">[</tspan></text><text transform="scale(-1 1)" style="line-height:1.25;-inkscape-font-specification:sans-serif" x="-218.017" y="76.852" font-weight="400" font-size="13.402" letter-spacing="0" word-spacing="0" font-family="sans-serif" fill="#466160" stroke-width=".335"><tspan x="-218.017" y="76.852" style="-inkscape-font-specification:sans-serif">[</tspan></text><text style="line-height:1.25;-inkscape-font-specification:'sans-serif Bold'" x="184.801" y="75.198" font-weight="700" font-size="5.936" letter-spacing="0" word-spacing="0" font-family="sans-serif" fill="#fff" stroke-width=".194"><tspan x="184.801" y="75.198" style="-inkscape-font-specification:'sans-serif Bold'">1</tspan></text><text y="75.24" x="196.606" style="line-height:1.25;-inkscape-font-specification:'sans-serif Bold'" font-weight="700" font-size="5.936" letter-spacing="0" word-spacing="0" font-family="sans-serif" fill="#fff" stroke-width=".194"><tspan style="-inkscape-font-specification:'sans-serif Bold'" y="75.24" x="196.606">1</tspan></text><text y="75.237" x="224.164" style="line-height:1.25;-inkscape-font-specification:'sans-serif Bold'" font-weight="700" font-size="5.936" letter-spacing="0" word-spacing="0" font-family="sans-serif" fill="#fff" stroke-width=".194"><tspan style="-inkscape-font-specification:'sans-serif Bold'" y="75.237" x="224.164">1</tspan></text><path d="M178.32 61.226h38.167v.696H178.32zm0 1.727h38.167v.696H178.32zm0 1.726h38.167v.695H178.32zM220.995 61.216h9.924v.695h-9.924zm0 1.725h9.924v.696h-9.924zm0 1.725h9.924v.696h-9.924z" fill="#7ca19c"/><path d="M35.843 62.914h45.536v.827H35.843zm0 2.052h45.536v.827H35.843zm0 2.051h45.536v.827H35.843zM87.365 64.952H98.29v.827H87.365zm0 2.051H98.29v.827H87.365zm0-4.103H98.29v.827H87.365z" fill="#a17ca1"/><g fill="#a17ca1"><path d="M37.505 21.785v-6.86h1.73v6.86zm58.823-.027v-6.833h1.699v6.833z"/><path d="M39.234 16.559v-1.634h57.59v1.634z"/><path d="M67.523 15.544v-4.813h1.673v4.813z"/></g><text style="line-height:1.25;-inkscape-font-specification:'Ubuntu Condensed, Bold'" x="36.835" y="6.433" font-weight="700" font-size="8.467" letter-spacing="0" word-spacing="0" font-family="Ubuntu Condensed" fill="#735273" stroke-width=".214"><tspan x="36.835" y="6.433" style="-inkscape-font-specification:'sans-serif Bold'" font-family="sans-serif">training data</tspan></text><g fill="#7ca19c"><path d="M178.723 21.785v-6.86h1.59v6.86zm54.119-.028v-6.832h1.563v6.832z"/><path d="M180.313 16.559v-1.635h52.985v1.635z"/><path d="M206.34 15.544V10.73h1.54v4.814z"/></g><text y="6.433" x="180.275" style="line-height:1.25;-inkscape-font-specification:'Ubuntu Condensed, Bold'" font-weight="700" font-size="8.467" letter-spacing="0" word-spacing="0" font-family="Ubuntu Condensed" fill="#99039e" stroke-width=".214"><tspan style="-inkscape-font-specification:'sans-serif Bold'" y="6.433" x="180.275" font-family="sans-serif">hypothesis</tspan></text><text y="28.741" x="58.068" style="line-height:1.25;-inkscape-font-specification:'sans-serif Bold'" font-weight="700" font-size="6.35" letter-spacing="0" word-spacing="0" font-family="sans-serif" fill="#735273" stroke-width=".2"><tspan style="-inkscape-font-specification:'sans-serif Bold'" y="28.741" x="58.068">x</tspan></text><text style="line-height:1.25;-inkscape-font-specification:'sans-serif Bold'" x="91.223" y="28.355" font-weight="700" font-size="5.644" letter-spacing="0" word-spacing="0" font-family="sans-serif" fill="#735273" stroke-width=".2"><tspan x="91.223" y="28.355" style="-inkscape-font-specification:'sans-serif Bold'">y</tspan></text><text word-spacing="0" letter-spacing="0" font-size="6.35" font-weight="700" style="line-height:1.25;-inkscape-font-specification:'sans-serif Bold'" x="196.609" y="32.819" font-family="sans-serif" fill="#547571" stroke-width=".2"><tspan x="196.609" y="32.819" style="-inkscape-font-specification:'sans-serif Bold'">x</tspan></text><text word-spacing="0" letter-spacing="0" font-size="5.644" font-weight="700" y="32.433" x="224.407" style="line-height:1.25;-inkscape-font-specification:'sans-serif Bold'" font-family="sans-serif" fill="#547571" stroke-width=".2"><tspan style="-inkscape-font-specification:'sans-serif Bold'" y="32.433" x="224.407">y</tspan></text></svg>