<svg xmlns="http://www.w3.org/2000/svg" width="898.2" height="319.6" viewBox="0 0 237.7 84.5"><text style="line-height:1.25;-inkscape-font-specification:'sans-serif Bold'" x="-.2" y="68.4" font-weight="700" font-size="32.6" letter-spacing="0" word-spacing="0" font-family="sans-serif" fill="#363636" stroke-width=".8"><tspan x="-.2" y="68.4" style="-inkscape-font-specification:'sans-serif Bold'">A</tspan></text><text transform="scale(.51897 1.92689)" y="38.9" x="197.4" style="line-height:1.25;-inkscape-font-specification:'sans-serif Bold'" font-weight="700" font-size="30.4" letter-spacing="0" word-spacing="0" font-family="sans-serif" fill="#363636" stroke-width=".8"><tspan style="-inkscape-font-specification:'sans-serif Bold'" y="38.9" x="197.4">)</tspan></text><path d="M40.5 31.6h11v10.8h-11zm14 0h11v10.8h-11z" fill="#a17ca1"/><g transform="translate(-34 -903.1) scale(1.36167)" fill="#a17ca1"><circle r=".7" cy="693.7" cx="76.4"/><circle cx="78.2" cy="693.7" r=".7"/><circle cx="80" cy="693.7" r=".7"/></g><path d="M87.3 31.6h11v10.8h-11z" fill="#a17ca1"/><text style="line-height:1.25;-inkscape-font-specification:sans-serif" x="33.7" y="41.5" font-weight="400" font-size="15.9" letter-spacing="0" word-spacing="0" font-family="sans-serif" fill="#466160" stroke-width=".4"><tspan x="33.7" y="41.5" style="-inkscape-font-specification:sans-serif">[</tspan></text><text y="41.5" x="-83" style="line-height:1.25;-inkscape-font-specification:sans-serif" transform="scale(-1 1)" font-weight="400" font-size="15.9" letter-spacing="0" word-spacing="0" font-family="sans-serif" fill="#466160" stroke-width=".4"><tspan style="-inkscape-font-specification:sans-serif" y="41.5" x="-83">[</tspan></text><text y="39.5" x="43.6" style="line-height:1.25;-inkscape-font-specification:'sans-serif Bold'" font-weight="700" font-size="7.1" letter-spacing="0" word-spacing="0" font-family="sans-serif" fill="#fff" stroke-width=".2"><tspan style="-inkscape-font-specification:'sans-serif Bold'" y="39.5" x="43.6">0</tspan></text><text style="line-height:1.25;-inkscape-font-specification:'sans-serif Bold'" x="57.6" y="39.6" font-weight="700" font-size="7.1" letter-spacing="0" word-spacing="0" font-family="sans-serif" fill="#fff" stroke-width=".2"><tspan x="57.6" y="39.6" style="-inkscape-font-specification:'sans-serif Bold'">0</tspan></text><text style="line-height:1.25;-inkscape-font-specification:'sans-serif Bold'" x="90.3" y="39.5" font-weight="700" font-size="7.1" letter-spacing="0" word-spacing="0" font-family="sans-serif" fill="#fff" stroke-width=".2"><tspan x="90.3" y="39.5" style="-inkscape-font-specification:'sans-serif Bold'">0</tspan></text><path d="M40.5 48.5h11v10.8h-11zm14 0h11v10.8h-11z" fill="#a17ca1"/><g transform="translate(-34 -886.3) scale(1.36167)" fill="#a17ca1"><circle cx="76.4" cy="693.7" r=".7"/><circle r=".7" cy="693.7" cx="78.2"/><circle r=".7" cy="693.7" cx="80"/></g><path d="M87.3 48.5h11v10.8h-11z" fill="#a17ca1"/><text y="58.3" x="33.7" style="line-height:1.25;-inkscape-font-specification:sans-serif" font-weight="400" font-size="15.9" letter-spacing="0" word-spacing="0" font-family="sans-serif" fill="#466160" stroke-width=".4"><tspan style="-inkscape-font-specification:sans-serif" y="58.3" x="33.7">[</tspan></text><text transform="scale(-1 1)" style="line-height:1.25;-inkscape-font-specification:sans-serif" x="-83" y="58.3" font-weight="400" font-size="15.9" letter-spacing="0" word-spacing="0" font-family="sans-serif" fill="#466160" stroke-width=".4"><tspan x="-83" y="58.3" style="-inkscape-font-specification:sans-serif">[</tspan></text><text style="line-height:1.25;-inkscape-font-specification:'sans-serif Bold'" x="43.6" y="56.4" font-weight="700" font-size="7.1" letter-spacing="0" word-spacing="0" font-family="sans-serif" fill="#fff" stroke-width=".2"><tspan x="43.6" y="56.4" style="-inkscape-font-specification:'sans-serif Bold'">0</tspan></text><text y="56.4" x="57.4" style="line-height:1.25;-inkscape-font-specification:'sans-serif Bold'" font-weight="700" font-size="7.1" letter-spacing="0" word-spacing="0" font-family="sans-serif" fill="#fff" stroke-width=".2"><tspan style="-inkscape-font-specification:'sans-serif Bold'" y="56.4" x="57.4">0</tspan></text><text y="56.4" x="90.3" style="line-height:1.25;-inkscape-font-specification:'sans-serif Bold'" font-weight="700" font-size="7.1" letter-spacing="0" word-spacing="0" font-family="sans-serif" fill="#fff" stroke-width=".2"><tspan style="-inkscape-font-specification:'sans-serif Bold'" y="56.4" x="90.3">0</tspan></text><path d="M40.5 71.6h11v10.8h-11zm14 0h11v10.8h-11z" fill="#a17ca1"/><g transform="translate(-34 -863.1) scale(1.36167)" fill="#a17ca1"><circle r=".7" cy="693.7" cx="76.4"/><circle cx="78.2" cy="693.7" r=".7"/><circle cx="80" cy="693.7" r=".7"/></g><path d="M87.3 71.6h11v10.8h-11z" fill="#a17ca1"/><text style="line-height:1.25;-inkscape-font-specification:sans-serif" x="33.7" y="81.5" font-weight="400" font-size="15.9" letter-spacing="0" word-spacing="0" font-family="sans-serif" fill="#466160" stroke-width=".4"><tspan x="33.7" y="81.5" style="-inkscape-font-specification:sans-serif">[</tspan></text><text y="81.5" x="-83" style="line-height:1.25;-inkscape-font-specification:sans-serif" transform="scale(-1 1)" font-weight="400" font-size="15.9" letter-spacing="0" word-spacing="0" font-family="sans-serif" fill="#466160" stroke-width=".4"><tspan style="-inkscape-font-specification:sans-serif" y="81.5" x="-83">[</tspan></text><text y="79.5" x="43.5" style="line-height:1.25;-inkscape-font-specification:'sans-serif Bold'" font-weight="700" font-size="7.1" letter-spacing="0" word-spacing="0" font-family="sans-serif" fill="#fff" stroke-width=".2"><tspan style="-inkscape-font-specification:'sans-serif Bold'" y="79.5" x="43.5">1</tspan></text><text style="line-height:1.25;-inkscape-font-specification:'sans-serif Bold'" x="57.6" y="79.6" font-weight="700" font-size="7.1" letter-spacing="0" word-spacing="0" font-family="sans-serif" fill="#fff" stroke-width=".2"><tspan x="57.6" y="79.6" style="-inkscape-font-specification:'sans-serif Bold'">1</tspan></text><text style="line-height:1.25;-inkscape-font-specification:'sans-serif Bold'" x="90.3" y="79.6" font-weight="700" font-size="7.1" letter-spacing="0" word-spacing="0" font-family="sans-serif" fill="#fff" stroke-width=".2"><tspan x="90.3" y="79.6" style="-inkscape-font-specification:'sans-serif Bold'">0</tspan></text><text style="line-height:1.25;-inkscape-font-specification:'sans-serif Bold'" x="-64.2" y="38.9" transform="scale(-.51897 1.92689)" font-weight="700" font-size="30.4" letter-spacing="0" word-spacing="0" font-family="sans-serif" fill="#363636" stroke-width=".8"><tspan x="-64.2" y="38.9" style="-inkscape-font-specification:'sans-serif Bold'">)</tspan></text><g fill="#363636"><path d="M121.2 54.4v4.2H113v-4.2z"/><path d="M119.3 51.2v10.6l3-2.7 2.8-2.6-2.9-2.7z"/></g><path d="M129.5 42h28.8v29h-28.8z" fill="#99039e"/><text y="64.2" x="136.7" style="line-height:1.25;-inkscape-font-specification:'sans-serif Bold'" font-weight="700" font-size="20.2" letter-spacing="0" word-spacing="0" font-family="sans-serif" fill="#fff" stroke-width=".5"><tspan style="-inkscape-font-specification:'sans-serif Bold'" y="64.2" x="136.7">h</tspan></text><path d="M152 53.7l24.7-28.2s61 .5 60.8.4l.2 58.3-61.1.3z" fill="#dae4e3" fill-opacity=".5"/><path d="M182.3 34.9h9.2v9h-9.2zm11.7 0h9.3v9H194z" fill="#7ca19c"/><g transform="translate(119.6 -751.5) scale(1.1456)" fill="#7ca19c"><circle cx="76.4" cy="693.7" r=".7"/><circle r=".7" cy="693.7" cx="78.2"/><circle r=".7" cy="693.7" cx="80"/></g><path d="M221.6 34.9h9.2v9h-9.2z" fill="#7ca19c"/><text y="43.2" x="176.5" style="line-height:1.25;-inkscape-font-specification:sans-serif" font-weight="400" font-size="13.4" letter-spacing="0" word-spacing="0" font-family="sans-serif" fill="#466160" stroke-width=".3"><tspan style="-inkscape-font-specification:sans-serif" y="43.2" x="176.5">[</tspan></text><text transform="scale(-1 1)" style="line-height:1.25;-inkscape-font-specification:sans-serif" x="-218" y="43.2" font-weight="400" font-size="13.4" letter-spacing="0" word-spacing="0" font-family="sans-serif" fill="#466160" stroke-width=".3"><tspan x="-218" y="43.2" style="-inkscape-font-specification:sans-serif">[</tspan></text><text style="line-height:1.25;-inkscape-font-specification:'sans-serif Bold'" x="184.9" y="41.6" font-weight="700" font-size="5.9" letter-spacing="0" word-spacing="0" font-family="sans-serif" fill="#fff" stroke-width=".2"><tspan x="184.9" y="41.6" style="-inkscape-font-specification:'sans-serif Bold'">0</tspan></text><text y="41.6" x="196.6" style="line-height:1.25;-inkscape-font-specification:'sans-serif Bold'" font-weight="700" font-size="5.9" letter-spacing="0" word-spacing="0" font-family="sans-serif" fill="#fff" stroke-width=".2"><tspan style="-inkscape-font-specification:'sans-serif Bold'" y="41.6" x="196.6">0</tspan></text><text y="41.6" x="224.2" style="line-height:1.25;-inkscape-font-specification:'sans-serif Bold'" font-weight="700" font-size="5.9" letter-spacing="0" word-spacing="0" font-family="sans-serif" fill="#fff" stroke-width=".2"><tspan style="-inkscape-font-specification:'sans-serif Bold'" y="41.6" x="224.2">0</tspan></text><path d="M182.3 49h9.2v9.2h-9.2zm11.7 0h9.3v9.2H194z" fill="#7ca19c"/><g transform="translate(119.6 -737.3) scale(1.1456)" fill="#7ca19c"><circle r=".7" cy="693.7" cx="76.4"/><circle cx="78.2" cy="693.7" r=".7"/><circle cx="80" cy="693.7" r=".7"/></g><path d="M221.6 49h9.2v9.2h-9.2z" fill="#7ca19c"/><text style="line-height:1.25;-inkscape-font-specification:sans-serif" x="176.5" y="57.4" font-weight="400" font-size="13.4" letter-spacing="0" word-spacing="0" font-family="sans-serif" fill="#466160" stroke-width=".3"><tspan x="176.5" y="57.4" style="-inkscape-font-specification:sans-serif">[</tspan></text><text y="57.4" x="-218" style="line-height:1.25;-inkscape-font-specification:sans-serif" transform="scale(-1 1)" font-weight="400" font-size="13.4" letter-spacing="0" word-spacing="0" font-family="sans-serif" fill="#466160" stroke-width=".3"><tspan style="-inkscape-font-specification:sans-serif" y="57.4" x="-218">[</tspan></text><text y="55.8" x="184.8" style="line-height:1.25;-inkscape-font-specification:'sans-serif Bold'" font-weight="700" font-size="5.9" letter-spacing="0" word-spacing="0" font-family="sans-serif" fill="#fff" stroke-width=".2"><tspan style="-inkscape-font-specification:'sans-serif Bold'" y="55.8" x="184.8">0</tspan></text><text style="line-height:1.25;-inkscape-font-specification:'sans-serif Bold'" x="196.4" y="55.8" font-weight="700" font-size="5.9" letter-spacing="0" word-spacing="0" font-family="sans-serif" fill="#fff" stroke-width=".2"><tspan x="196.4" y="55.8" style="-inkscape-font-specification:'sans-serif Bold'">0</tspan></text><text style="line-height:1.25;-inkscape-font-specification:'sans-serif Bold'" x="224.2" y="55.8" font-weight="700" font-size="5.9" letter-spacing="0" word-spacing="0" font-family="sans-serif" fill="#fff" stroke-width=".2"><tspan x="224.2" y="55.8" style="-inkscape-font-specification:'sans-serif Bold'">0</tspan></text><path d="M182.3 68.5h9.2v9.1h-9.2zm11.7 0h9.3v9.1H194z" fill="#7ca19c"/><g transform="translate(119.6 -717.9) scale(1.1456)" fill="#7ca19c"><circle cx="76.4" cy="693.7" r=".7"/><circle r=".7" cy="693.7" cx="78.2"/><circle r=".7" cy="693.7" cx="80"/></g><path d="M221.6 68.5h9.2v9.1h-9.2z" fill="#7ca19c"/><text y="76.9" x="176.5" style="line-height:1.25;-inkscape-font-specification:sans-serif" font-weight="400" font-size="13.4" letter-spacing="0" word-spacing="0" font-family="sans-serif" fill="#466160" stroke-width=".3"><tspan style="-inkscape-font-specification:sans-serif" y="76.9" x="176.5">[</tspan></text><text transform="scale(-1 1)" style="line-height:1.25;-inkscape-font-specification:sans-serif" x="-218" y="76.9" font-weight="400" font-size="13.4" letter-spacing="0" word-spacing="0" font-family="sans-serif" fill="#466160" stroke-width=".3"><tspan x="-218" y="76.9" style="-inkscape-font-specification:sans-serif">[</tspan></text><text style="line-height:1.25;-inkscape-font-specification:'sans-serif Bold'" x="184.8" y="75.2" font-weight="700" font-size="5.9" letter-spacing="0" word-spacing="0" font-family="sans-serif" fill="#fff" stroke-width=".2"><tspan x="184.8" y="75.2" style="-inkscape-font-specification:'sans-serif Bold'">1</tspan></text><text y="75.2" x="196.6" style="line-height:1.25;-inkscape-font-specification:'sans-serif Bold'" font-weight="700" font-size="5.9" letter-spacing="0" word-spacing="0" font-family="sans-serif" fill="#fff" stroke-width=".2"><tspan style="-inkscape-font-specification:'sans-serif Bold'" y="75.2" x="196.6">1</tspan></text><text y="75.2" x="224.2" style="line-height:1.25;-inkscape-font-specification:'sans-serif Bold'" font-weight="700" font-size="5.9" letter-spacing="0" word-spacing="0" font-family="sans-serif" fill="#fff" stroke-width=".2"><tspan style="-inkscape-font-specification:'sans-serif Bold'" y="75.2" x="224.2">1</tspan></text><path d="M178.3 61.2h38.2v.7h-38.2zm0 1.8h38.2v.6h-38.2zm0 1.7h38.2v.7h-38.2zm42.7-3.5h10v.7h-10zm0 1.7h10v.7h-10zm0 1.8h10v.7h-10z" fill="#7ca19c"/><path d="M35.8 63h45.6v.7H35.8zm0 2h45.6v.8H35.8zm0 2h45.6v.8H35.8zm51.6-2h10.9v.8h-11zm0 2h10.9v.8h-11zm0-4.1h10.9v.8h-11z" fill="#a17ca1"/><g fill="#a17ca1"><path d="M37.5 21.8v-6.9h1.7v6.9zm58.8 0v-6.9H98v6.9z"/><path d="M39.2 16.6v-1.7h57.6v1.7z"/><path d="M67.5 15.5v-4.8h1.7v4.8z"/></g><text style="line-height:1.25;-inkscape-font-specification:'Ubuntu Condensed, Bold'" x="36.8" y="6.4" font-weight="700" font-size="8.5" letter-spacing="0" word-spacing="0" font-family="Ubuntu Condensed" fill="#735273" stroke-width=".2"><tspan x="36.8" y="6.4" style="-inkscape-font-specification:'sans-serif Bold'" font-family="sans-serif">training data</tspan></text><g fill="#7ca19c"><path d="M178.7 21.8v-6.9h1.6v6.9zm54.1 0v-6.9h1.6v6.9z"/><path d="M180.3 16.6v-1.7h53v1.7z"/><path d="M206.3 15.5v-4.8h1.6v4.8z"/></g><text y="6.4" x="180.3" style="line-height:1.25;-inkscape-font-specification:'Ubuntu Condensed, Bold'" font-weight="700" font-size="8.5" letter-spacing="0" word-spacing="0" font-family="Ubuntu Condensed" fill="#99039e" stroke-width=".2"><tspan style="-inkscape-font-specification:'sans-serif Bold'" y="6.4" x="180.3" font-family="sans-serif">hypothesis</tspan></text><text y="28.7" x="58.1" style="line-height:1.25;-inkscape-font-specification:'sans-serif Bold'" font-weight="700" font-size="6.3" letter-spacing="0" word-spacing="0" font-family="sans-serif" fill="#735273" stroke-width=".2"><tspan style="-inkscape-font-specification:'sans-serif Bold'" y="28.7" x="58.1">x</tspan></text><text style="line-height:1.25;-inkscape-font-specification:'sans-serif Bold'" x="91.2" y="28.4" font-weight="700" font-size="5.6" letter-spacing="0" word-spacing="0" font-family="sans-serif" fill="#735273" stroke-width=".2"><tspan x="91.2" y="28.4" style="-inkscape-font-specification:'sans-serif Bold'">y</tspan></text><text word-spacing="0" letter-spacing="0" font-size="6.3" font-weight="700" style="line-height:1.25;-inkscape-font-specification:'sans-serif Bold'" x="196.6" y="32.8" font-family="sans-serif" fill="#547571" stroke-width=".2"><tspan x="196.6" y="32.8" style="-inkscape-font-specification:'sans-serif Bold'">x</tspan></text><text word-spacing="0" letter-spacing="0" font-size="5.6" font-weight="700" y="32.4" x="224.4" style="line-height:1.25;-inkscape-font-specification:'sans-serif Bold'" font-family="sans-serif" fill="#547571" stroke-width=".2"><tspan style="-inkscape-font-specification:'sans-serif Bold'" y="32.4" x="224.4">y</tspan></text></svg>