<svg xmlns="http://www.w3.org/2000/svg" width="944.518" height="486.268" viewBox="0 0 249.904 128.658"><path d="M74.863 21.798H53.866V.8h20.997zM74.863 63.792H53.866V42.795h20.997z" fill="#4e9d9b"/><path d="M74.863 42.7H53.866V21.705h20.997z" fill="#4e9d9b" fill-opacity=".5"/><g font-weight="700" letter-spacing="0" word-spacing="0" font-family="sans-serif" fill="#fff" stroke-width=".16"><text y="275.026" x="9.079" style="line-height:1.25;-inkscape-font-specification:'sans-serif Bold'" font-size="7.013" stroke-width=".141" transform="matrix(2.07323 0 0 2.07323 40.361 -555.588)"><tspan style="-inkscape-font-specification:'sans-serif Bold'" y="275.026" x="9.079">x</tspan></text><text style="line-height:1.25;-inkscape-font-specification:'sans-serif Bold'" x="13.398" y="276.695" font-size="3.356" stroke-width=".068" transform="matrix(2.07323 0 0 2.07323 40.361 -555.588)"><tspan x="13.398" y="276.695" style="-inkscape-font-specification:'sans-serif Bold'">1</tspan></text></g><g word-spacing="0" letter-spacing="0" font-weight="700" font-family="sans-serif" fill="#fff" stroke-width=".16"><text y="274.453" x="9.221" style="line-height:1.25;-inkscape-font-specification:'sans-serif Bold'" font-size="7.013" stroke-width=".141" transform="matrix(2.07323 0 0 2.07323 40.692 -512.536)"><tspan style="-inkscape-font-specification:'sans-serif Bold'" y="274.453" x="9.221">x</tspan></text><text style="line-height:1.25;-inkscape-font-specification:'sans-serif Bold'" x="13.179" y="276.228" font-size="2.694" stroke-width=".068" transform="matrix(2.07323 0 0 2.07323 40.692 -512.536)"><tspan x="13.179" y="276.228" style="-inkscape-font-specification:'sans-serif Bold'">m</tspan></text></g><path d="M74.863 84.79H53.866V63.792h20.997zM74.863 126.786H53.866V105.79h20.997z" fill="#96aab8"/><path d="M74.863 105.787H53.866V84.79h20.997z" opacity=".5" fill="#96aab8"/><g font-weight="700" letter-spacing="0" word-spacing="0" font-family="sans-serif" fill="#fff" stroke-width=".16"><text y="275.026" x="9.079" style="line-height:1.25;-inkscape-font-specification:'sans-serif Bold'" font-size="7.013" stroke-width=".141" transform="matrix(2.07323 0 0 2.07323 40.361 -492.597)"><tspan style="-inkscape-font-specification:'sans-serif Bold'" y="275.026" x="9.079">x</tspan></text><text style="line-height:1.25;-inkscape-font-specification:'sans-serif Bold'" x="10.18" y="277.321" font-size="2.452" stroke-width=".068" transform="matrix(2.07323 0 0 2.07323 40.361 -492.597)"><tspan x="10.18" y="277.321" style="-inkscape-font-specification:'sans-serif Bold'">m+1</tspan></text></g><g word-spacing="0" letter-spacing="0" font-weight="700" font-family="sans-serif" fill="#fff" stroke-width=".16"><text y="274.453" x="9.221" style="line-height:1.25;-inkscape-font-specification:'sans-serif Bold'" font-size="7.013" stroke-width=".141" transform="matrix(2.07323 0 0 2.07323 40.692 -449.542)"><tspan style="-inkscape-font-specification:'sans-serif Bold'" y="274.453" x="9.221">x</tspan></text><text style="line-height:1.25;-inkscape-font-specification:'sans-serif Bold'" x="11.487" y="276.896" font-size="2.694" stroke-width=".068" transform="matrix(2.07323 0 0 2.07323 40.692 -449.542)"><tspan x="11.487" y="276.896" style="-inkscape-font-specification:'sans-serif Bold'">2m</tspan></text></g><g fill="#4e9d9b" fill-opacity=".5"><path d="M74.863 40.2H53.866v-2.95h20.997zM74.863 35.85H53.866v-2.948h20.997zM74.863 31.502H53.866v-2.949h20.997zM74.863 27.154H53.866v-2.95h20.997z"/></g><g fill="#95a9b7" fill-opacity=".502"><path d="M74.863 103.286H53.866v-2.95h20.997zM74.863 98.937H53.866v-2.949h20.997zM74.863 94.588H53.866V91.64h20.997zM74.863 90.24H53.866v-2.95h20.997z"/></g><g stroke-width="1.283" fill="#363636" font-weight="700" font-family="sans-serif" letter-spacing="0" word-spacing="0"><text y="129.979" x="4.815" style="line-height:1.25;-inkscape-font-specification:'sans-serif Bold'" font-size="24.338" stroke-width=".376" transform="matrix(.68367 0 0 .88835 15.602 -45.198)"></text><text font-size="10.327" y="132.781" x="16.227" style="line-height:1.25;-inkscape-font-specification:'sans-serif Bold'" transform="matrix(.77095 0 0 .78778 15.602 -45.198)" stroke-width=".18"></text><text font-size="24.338" style="line-height:1.25;-inkscape-font-specification:'sans-serif Bold'" x="28.356" y="130.967" stroke-width=".376" transform="matrix(.68367 0 0 .88835 15.602 -45.198)"><tspan x="28.356" y="130.967" style="-inkscape-font-specification:'sans-serif Bold'">=</tspan></text></g><text style="line-height:1.25;-inkscape-font-specification:'sans-serif Bold'" x="-.735" y="79.5" transform="matrix(.9616 0 0 1.03992 -.498 -14.126)" font-weight="700" font-size="13.646" font-family="sans-serif" letter-spacing="0" word-spacing="0" stroke-width=".265"><tspan x="-.735" y="79.5" style="-inkscape-font-specification:'sans-serif Bold'">Loss</tspan></text><g transform="translate(-.498 -14.126)"><path d="M101.351 14.732h19.785v19.786h-19.785z" fill="#99039e"/><text word-spacing="0" letter-spacing="0" font-size="13.896" font-weight="700" y="29.905" x="106.257" style="line-height:1.25;-inkscape-font-specification:'sans-serif Bold'" font-family="sans-serif" fill="#fff" stroke-width=".227"><tspan style="-inkscape-font-specification:'sans-serif Bold'" y="29.905" x="106.257">h</tspan></text><text y="30.327" x="79.828" style="line-height:1.25;-inkscape-font-specification:'Ubuntu Condensed, Bold'" font-weight="700" font-size="17.269" font-family="Ubuntu Condensed" letter-spacing="0" word-spacing="0" stroke-width=".265"><tspan style="-inkscape-font-specification:'sans-serif Bold'" y="30.327" x="79.828" font-family="sans-serif">1(</tspan></text><text y="30.199" x="122.868" style="line-height:1.25;-inkscape-font-specification:'Ubuntu Condensed, Bold'" font-weight="700" font-size="17.269" font-family="Ubuntu Condensed" letter-spacing="0" word-spacing="0" stroke-width=".265"><tspan style="-inkscape-font-specification:'sans-serif Bold'" y="30.199" x="122.868" font-family="sans-serif">, )</tspan></text><path d="M151.868 35.124H130.87V14.126h20.997z" fill="#4e9d9b"/><g word-spacing="0" letter-spacing="0" font-weight="700" font-family="sans-serif" fill="#fff" stroke-width=".16"><text font-size="7.013" style="line-height:1.25;-inkscape-font-specification:'sans-serif Bold'" x="9.079" y="275.026" stroke-width=".141" transform="matrix(2.07323 0 0 2.07323 117.366 -542.263)"><tspan x="9.079" y="275.026" style="-inkscape-font-specification:'sans-serif Bold'">y</tspan></text><text font-size="3.356" y="276.695" x="13.398" style="line-height:1.25;-inkscape-font-specification:'sans-serif Bold'" stroke-width=".068" transform="matrix(2.07323 0 0 2.07323 117.366 -542.263)"><tspan style="-inkscape-font-specification:'sans-serif Bold'" y="276.695" x="13.398">1</tspan></text></g><path d="M80.136 37.135h79.375v4.604H80.136z"/><path fill="#99039e" d="M100.523 37.135h20.505v4.604h-20.505z"/><path fill="#4e9d9b" d="M130.649 37.135h20.505v4.604h-20.505z"/><path d="M80.136 43.173h79.375v4.604H80.136z"/><path fill="#99039e" d="M100.523 43.173h20.505v4.604h-20.505z"/><path fill="#4e9d9b" d="M130.649 43.173h20.505v4.604h-20.505z"/><path d="M80.136 49.211h79.375v4.604H80.136z"/><path fill="#99039e" d="M100.523 49.211h20.505v4.604h-20.505z"/><path fill="#4e9d9b" d="M130.649 49.211h20.505v4.604h-20.505z"/><path d="M80.797 102.948h79.375v4.604H80.797z"/><path fill="#99039e" d="M101.185 102.948h20.505v4.604h-20.505z"/><path fill="#4e9d9b" d="M131.31 102.948h20.505v4.604H131.31z"/><path d="M80.797 108.986h79.375v4.604H80.797z"/><path fill="#99039e" d="M101.185 108.986h20.505v4.604h-20.505z"/><path fill="#4e9d9b" d="M131.31 108.986h20.505v4.604H131.31z"/><path d="M80.797 115.024h79.375v4.604H80.797z"/><path fill="#99039e" d="M101.185 115.024h20.505v4.604h-20.505z"/><path fill="#4e9d9b" d="M131.31 115.024h20.505v4.604H131.31z"/><rect width="10.023" height="2.667" x="190" y="25.187" ry="0" fill="#363636"/><path fill="#363636" d="M196.949 25.187h3.074v106.584h-3.074z"/><rect width="10.023" height="2.667" x="190" y="131.771" ry="0" fill="#363636"/><rect width="10.023" height="2.667" x="199.486" y="77.146" ry="0" fill="#363636"/><text word-spacing="0" letter-spacing="0" font-size="8.467" font-weight="700" y="47.668" x="211.729" style="line-height:1.25;-inkscape-font-specification:'Ubuntu Condensed, Bold'" font-family="Ubuntu Condensed" fill="#e5650e" stroke-width=".308"><tspan style="-inkscape-font-specification:'sans-serif Bold'" y="47.668" x="211.729" font-family="sans-serif" stroke-width="1.164">avg loss</tspan></text><g fill="#363636"><path d="M222.304 56.652v-1.635h16.762v1.635z"/><path d="M229.848 55.637v-4.814h1.673v4.814zM222.304 59.83v-4.813h1.673v4.814zM237.393 59.83v-4.813h1.673v4.814z"/></g><text style="line-height:1.25;-inkscape-font-specification:'Ubuntu Condensed, Bold'" x="227.559" y="44.323" font-weight="700" font-size="10.583" font-family="Ubuntu Condensed" letter-spacing="0" word-spacing="0" stroke-width=".265"><tspan x="227.559" y="44.323"></tspan></text><text y="31.342" x="175.179" style="line-height:1.25;-inkscape-font-specification:'Ubuntu Condensed, Bold'" font-weight="700" font-size="17.269" font-family="Ubuntu Condensed" letter-spacing="0" word-spacing="0" stroke-width=".265"><tspan style="-inkscape-font-specification:'sans-serif Bold'" y="31.342" x="175.179" font-weight="400" font-family="sans-serif">0</tspan></text><text y="73.1" x="175.179" style="line-height:1.25;-inkscape-font-specification:'Ubuntu Condensed, Bold'" font-weight="700" font-size="17.269" font-family="Ubuntu Condensed" letter-spacing="0" word-spacing="0" stroke-width=".265"><tspan style="-inkscape-font-specification:'sans-serif Bold'" y="73.1" x="175.179" font-weight="400" font-family="sans-serif">1</tspan></text><g stroke-width="1.388" fill="#363636" font-weight="700" font-family="sans-serif" letter-spacing="0" word-spacing="0"><text y="129.979" x="4.815" style="line-height:1.25;-inkscape-font-specification:'sans-serif Bold'" font-size="24.338" stroke-width=".407" transform="matrix(.58443 0 0 .88835 145.385 -42.396)"></text><text font-size="10.327" y="132.781" x="16.227" style="line-height:1.25;-inkscape-font-specification:'sans-serif Bold'" transform="matrix(.65904 0 0 .78778 145.385 -42.396)" stroke-width=".194"></text><text font-size="24.338" style="line-height:1.25;-inkscape-font-specification:'sans-serif Bold'" x="28.356" y="130.967" stroke-width=".407" transform="matrix(.58443 0 0 .88835 145.385 -42.396)"><tspan x="28.356" y="130.967" style="-inkscape-font-specification:'sans-serif Bold'">=</tspan></text></g><text y="96.771" x="175.179" style="line-height:1.25;-inkscape-font-specification:'Ubuntu Condensed, Bold'" font-weight="700" font-size="17.269" font-family="Ubuntu Condensed" letter-spacing="0" word-spacing="0" stroke-width=".265"><tspan style="-inkscape-font-specification:'sans-serif Bold'" y="96.771" x="175.179" font-weight="400" font-family="sans-serif">1</tspan></text><g stroke-width="1.388" fill="#363636" font-weight="700" font-family="sans-serif" letter-spacing="0" word-spacing="0"><text y="129.979" x="4.815" style="line-height:1.25;-inkscape-font-specification:'sans-serif Bold'" font-size="24.338" stroke-width=".407" transform="matrix(.58443 0 0 .88835 145.385 -18.725)"></text><text font-size="10.327" y="132.781" x="16.227" style="line-height:1.25;-inkscape-font-specification:'sans-serif Bold'" transform="matrix(.65904 0 0 .78778 145.385 -18.725)" stroke-width=".194"></text><text font-size="24.338" style="line-height:1.25;-inkscape-font-specification:'sans-serif Bold'" x="28.356" y="130.967" stroke-width=".407" transform="matrix(.58443 0 0 .88835 145.385 -18.725)"><tspan x="28.356" y="130.967" style="-inkscape-font-specification:'sans-serif Bold'">=</tspan></text></g><text y="138.572" x="175.179" style="line-height:1.25;-inkscape-font-specification:'Ubuntu Condensed, Bold'" font-weight="700" font-size="17.269" font-family="Ubuntu Condensed" letter-spacing="0" word-spacing="0" stroke-width=".265"><tspan style="-inkscape-font-specification:'sans-serif Bold'" y="138.572" x="175.179" font-weight="400" font-family="sans-serif">0</tspan></text><g stroke-width="1.388" fill="#363636" font-weight="700" font-family="sans-serif" letter-spacing="0" word-spacing="0"><text y="129.979" x="4.815" style="line-height:1.25;-inkscape-font-specification:'sans-serif Bold'" font-size="24.338" stroke-width=".407" transform="matrix(.58443 0 0 .88835 145.385 23.076)"></text><text font-size="10.327" y="132.781" x="16.227" style="line-height:1.25;-inkscape-font-specification:'sans-serif Bold'" transform="matrix(.65904 0 0 .78778 145.385 23.076)" stroke-width=".194"></text><text font-size="24.338" style="line-height:1.25;-inkscape-font-specification:'sans-serif Bold'" x="28.356" y="130.967" stroke-width=".407" transform="matrix(.58443 0 0 .88835 145.385 23.076)"><tspan x="28.356" y="130.967" style="-inkscape-font-specification:'sans-serif Bold'">=</tspan></text></g><circle r="2.315" cy="38.729" cx="179.438"/><circle r="2.315" cy="45.475" cx="179.438"/><circle r="2.315" cy="51.513" cx="179.438"/><g transform="translate(-.185 -1.563)"><circle cx="179.623" cy="106.459" r="2.315"/><circle cx="179.623" cy="113.205" r="2.315"/><circle cx="179.623" cy="119.243" r="2.315"/></g><text word-spacing="0" letter-spacing="0" font-size="12.995" font-weight="700" y="90.785" x="219.397" style="line-height:1.25;-inkscape-font-specification:'Ubuntu Condensed, Bold'" font-family="Ubuntu Condensed" fill="#4e9d9b" stroke-width=".308"><tspan style="-inkscape-font-specification:'sans-serif Bold'" y="90.785" x="219.397" font-family="sans-serif" stroke-width="1.164">2m</tspan></text><path d="M215.484 76.302h30.402v1.874h-30.402z"/><text word-spacing="0" letter-spacing="0" font-size="12.995" font-weight="700" y="73.241" x="226.89" style="line-height:1.25;-inkscape-font-specification:'Ubuntu Condensed, Bold'" font-family="Ubuntu Condensed" stroke-width=".308"><tspan style="-inkscape-font-specification:'sans-serif Bold'" y="73.241" x="226.89" font-family="sans-serif" stroke-width="1.164">?</tspan></text></g><path d="M100.853 42.767h19.786v19.785h-19.786z" fill="#99039e"/><text word-spacing="0" letter-spacing="0" font-size="13.896" font-weight="700" y="72.066" x="106.257" style="line-height:1.25;-inkscape-font-specification:'sans-serif Bold'" font-family="sans-serif" fill="#fff" stroke-width=".227" transform="translate(-.498 -14.126)"><tspan style="-inkscape-font-specification:'sans-serif Bold'" y="72.066" x="106.257">h</tspan></text><text style="line-height:1.25;-inkscape-font-specification:'Ubuntu Condensed, Bold'" x="79.828" y="72.488" font-weight="700" font-size="17.269" font-family="Ubuntu Condensed" letter-spacing="0" word-spacing="0" stroke-width=".265" transform="translate(-.498 -14.126)"><tspan x="79.828" y="72.488" style="-inkscape-font-specification:'sans-serif Bold'" font-family="sans-serif">1(</tspan></text><text style="line-height:1.25;-inkscape-font-specification:'Ubuntu Condensed, Bold'" x="122.868" y="72.36" font-weight="700" font-size="17.269" font-family="Ubuntu Condensed" letter-spacing="0" word-spacing="0" stroke-width=".265" transform="translate(-.498 -14.126)"><tspan x="122.868" y="72.36" style="-inkscape-font-specification:'sans-serif Bold'" font-family="sans-serif">, )</tspan></text><path d="M151.37 62.807h-20.997V41.81h20.997z" fill="#4e9d9b"/><text y="69.738" x="136.188" style="line-height:1.25;-inkscape-font-specification:'sans-serif Bold'" font-size="14.54" font-weight="700" font-family="sans-serif" letter-spacing="0" word-spacing="0" fill="#fff" stroke-width=".293" transform="translate(-.498 -14.126)"><tspan style="-inkscape-font-specification:'sans-serif Bold'" y="69.738" x="136.188">y</tspan></text><text style="line-height:1.25;-inkscape-font-specification:'sans-serif Bold'" x="143.34" y="73.801" font-size="6.957" font-weight="700" font-family="sans-serif" letter-spacing="0" word-spacing="0" fill="#fff" stroke-width=".14" transform="translate(-.498 -14.126)"><tspan x="143.34" y="73.801" style="-inkscape-font-specification:'sans-serif Bold'">m</tspan></text><path d="M100.853 66.458h19.786v19.785h-19.786z" fill="#99039e"/><text style="line-height:1.25;-inkscape-font-specification:'sans-serif Bold'" x="106.257" y="29.905" font-weight="700" font-size="13.896" letter-spacing="0" word-spacing="0" font-family="sans-serif" fill="#fff" stroke-width=".227" transform="translate(-.498 51.725)"><tspan x="106.257" y="29.905" style="-inkscape-font-specification:'sans-serif Bold'">h</tspan></text><text style="line-height:1.25;-inkscape-font-specification:'Ubuntu Condensed, Bold'" x="79.828" y="96.178" font-weight="700" font-size="17.269" font-family="Ubuntu Condensed" letter-spacing="0" word-spacing="0" stroke-width=".265" transform="translate(-.498 -14.126)"><tspan x="79.828" y="96.178" style="-inkscape-font-specification:'sans-serif Bold'" font-family="sans-serif">1(</tspan></text><text style="line-height:1.25;-inkscape-font-specification:'Ubuntu Condensed, Bold'" x="122.868" y="96.051" font-weight="700" font-size="17.269" font-family="Ubuntu Condensed" letter-spacing="0" word-spacing="0" stroke-width=".265" transform="translate(-.498 -14.126)"><tspan x="122.868" y="96.051" style="-inkscape-font-specification:'sans-serif Bold'" font-family="sans-serif">, )</tspan></text><path d="M151.37 86.849h-20.997V65.852h20.997z" fill="#4e9d9b"/><g word-spacing="0" letter-spacing="0" font-weight="700" font-family="sans-serif" fill="#fff" stroke-width=".16"><text font-size="7.013" style="line-height:1.25;-inkscape-font-specification:'sans-serif Bold'" x="9.079" y="275.026" stroke-width=".141" transform="matrix(2.07323 0 0 2.07323 116.868 -490.537)"><tspan x="9.079" y="275.026" style="-inkscape-font-specification:'sans-serif Bold'">y</tspan></text><text font-size="2.124" y="277.971" x="11.085" style="line-height:1.25;-inkscape-font-specification:'sans-serif Bold'" stroke-width=".068" transform="matrix(2.07323 0 0 2.07323 116.868 -490.537)"><tspan style="-inkscape-font-specification:'sans-serif Bold'" y="277.971" x="11.085">m+1</tspan></text></g><path d="M100.853 108.619h19.786v19.785h-19.786z" fill="#99039e"/><text word-spacing="0" letter-spacing="0" font-size="13.896" font-weight="700" y="137.917" x="106.257" style="line-height:1.25;-inkscape-font-specification:'sans-serif Bold'" font-family="sans-serif" fill="#fff" stroke-width=".227" transform="translate(-.498 -14.126)"><tspan style="-inkscape-font-specification:'sans-serif Bold'" y="137.917" x="106.257">h</tspan></text><text style="line-height:1.25;-inkscape-font-specification:'Ubuntu Condensed, Bold'" x="79.828" y="138.339" font-weight="700" font-size="17.269" font-family="Ubuntu Condensed" letter-spacing="0" word-spacing="0" stroke-width=".265" transform="translate(-.498 -14.126)"><tspan x="79.828" y="138.339" style="-inkscape-font-specification:'sans-serif Bold'" font-family="sans-serif">1(</tspan></text><text style="line-height:1.25;-inkscape-font-specification:'Ubuntu Condensed, Bold'" x="122.868" y="138.212" font-weight="700" font-size="17.269" font-family="Ubuntu Condensed" letter-spacing="0" word-spacing="0" stroke-width=".265" transform="translate(-.498 -14.126)"><tspan x="122.868" y="138.212" style="-inkscape-font-specification:'sans-serif Bold'" font-family="sans-serif">, )</tspan></text><path d="M151.37 128.658h-20.997v-20.997h20.997z" fill="#4e9d9b"/><text y="135.59" x="136.188" style="line-height:1.25;-inkscape-font-specification:'sans-serif Bold'" font-size="14.54" font-weight="700" font-family="sans-serif" letter-spacing="0" word-spacing="0" fill="#fff" stroke-width=".293" transform="translate(-.498 -14.126)"><tspan style="-inkscape-font-specification:'sans-serif Bold'" y="135.59" x="136.188">y</tspan></text><text style="line-height:1.25;-inkscape-font-specification:'sans-serif Bold'" x="142.095" y="141.07" font-size="5.372" font-weight="700" font-family="sans-serif" letter-spacing="0" word-spacing="0" fill="#fff" stroke-width=".14" transform="translate(-.498 -14.126)"><tspan x="142.095" y="141.07" style="-inkscape-font-specification:'sans-serif Bold'">2m</tspan></text><g stroke-width="1.388" fill="#363636" font-weight="700" font-family="sans-serif" letter-spacing="0" word-spacing="0"><text y="129.979" x="4.815" style="line-height:1.25;-inkscape-font-specification:'sans-serif Bold'" font-size="24.338" stroke-width=".407" transform="matrix(.58443 0 0 .88835 144.887 -98.28)"></text><text font-size="10.327" y="132.781" x="16.227" style="line-height:1.25;-inkscape-font-specification:'sans-serif Bold'" transform="matrix(.65904 0 0 .78778 144.887 -98.28)" stroke-width=".194"></text><text font-size="24.338" style="line-height:1.25;-inkscape-font-specification:'sans-serif Bold'" x="28.356" y="130.967" stroke-width=".407" transform="matrix(.58443 0 0 .88835 144.887 -98.28)"><tspan x="28.356" y="130.967" style="-inkscape-font-specification:'sans-serif Bold'">=</tspan></text></g></svg>