<svg xmlns="http://www.w3.org/2000/svg" width="939.666" height="241.105" viewBox="0 0 248.62 63.792"><g transform="translate(32.726 6.686)"><path d="M42.405 15.112H21.408V-5.885h20.997zM42.405 57.012H21.408V36.015h20.997z" fill="#1d76ce"/><path d="M42.405 36.015H21.408V15.018h20.997z" fill="#1d76ce" opacity=".5"/><g font-weight="700" letter-spacing="0" word-spacing="0" font-family="sans-serif" fill="#fff" stroke-width=".16"><text y="275.026" x="9.079" style="line-height:1.25;-inkscape-font-specification:'sans-serif Bold'" font-size="7.013" stroke-width=".141" transform="matrix(2.07323 0 0 2.07323 7.903 -562.274)"><tspan style="-inkscape-font-specification:'sans-serif Bold'" y="275.026" x="9.079">v</tspan></text><text style="line-height:1.25;-inkscape-font-specification:'sans-serif Bold'" x="13.398" y="276.695" font-size="3.356" stroke-width=".068" transform="matrix(2.07323 0 0 2.07323 7.903 -562.274)"><tspan x="13.398" y="276.695" style="-inkscape-font-specification:'sans-serif Bold'">1</tspan></text></g><g word-spacing="0" letter-spacing="0" font-weight="700" font-family="sans-serif" fill="#fff" stroke-width=".16"><text y="274.453" x="9.221" style="line-height:1.25;-inkscape-font-specification:'sans-serif Bold'" font-size="7.013" stroke-width=".141" transform="matrix(2.07323 0 0 2.07323 8.233 -519.221)"><tspan style="-inkscape-font-specification:'sans-serif Bold'" y="274.453" x="9.221">v</tspan></text><text style="line-height:1.25;-inkscape-font-specification:'sans-serif Bold'" x="13.179" y="276.228" font-size="2.694" stroke-width=".068" transform="matrix(2.07323 0 0 2.07323 8.233 -519.221)"><tspan x="13.179" y="276.228" style="-inkscape-font-specification:'sans-serif Bold'">p</tspan></text></g><g fill="#1d76ce" opacity=".5"><path d="M42.405 33.514H21.408v-2.95h20.997zM42.405 29.165H21.408v-2.949h20.997zM42.405 24.817H21.408v-2.95h20.997zM42.405 20.468H21.408v-2.949h20.997z"/></g><text style="line-height:1.25;-inkscape-font-specification:'sans-serif Bold'" x="-35.285" y="27.232" transform="scale(.9616 1.03992)" font-weight="700" font-size="13.646" font-family="sans-serif" letter-spacing="0" word-spacing="0" stroke-width=".265"><tspan x="-35.285" y="27.232" style="-inkscape-font-specification:'sans-serif Bold'">Loss</tspan></text><path d="M68.395-6.08H88.18v19.786H68.395z" fill="#99039e"/><text style="line-height:1.25;-inkscape-font-specification:'sans-serif Bold'" x="106.257" y="29.905" font-weight="700" font-size="13.896" letter-spacing="0" word-spacing="0" font-family="sans-serif" fill="#fff" stroke-width=".227" transform="translate(-32.956 -20.812)"><tspan x="106.257" y="29.905" style="-inkscape-font-specification:'sans-serif Bold'">h</tspan></text><text style="line-height:1.25;-inkscape-font-specification:'Ubuntu Condensed, Bold'" x="46.872" y="9.515" font-weight="700" font-size="17.269" font-family="Ubuntu Condensed" letter-spacing="0" word-spacing="0" stroke-width=".265"><tspan x="46.872" y="9.515" style="-inkscape-font-specification:'sans-serif Bold'" font-family="sans-serif">1(</tspan></text><text style="line-height:1.25;-inkscape-font-specification:'Ubuntu Condensed, Bold'" x="89.912" y="9.387" font-weight="700" font-size="17.269" font-family="Ubuntu Condensed" letter-spacing="0" word-spacing="0" stroke-width=".265"><tspan x="89.912" y="9.387" style="-inkscape-font-specification:'sans-serif Bold'" font-family="sans-serif">, )</tspan></text><path d="M118.912 14.312H97.915V-6.686h20.997z" fill="#1d76ce"/><g font-weight="700" letter-spacing="0" word-spacing="0" font-family="sans-serif" fill="#fff" stroke-width=".16"><text y="275.026" x="9.079" style="line-height:1.25;-inkscape-font-specification:'sans-serif Bold'" font-size="7.013" stroke-width=".141" transform="matrix(2.07323 0 0 2.07323 84.41 -563.075)"><tspan style="-inkscape-font-specification:'sans-serif Bold'" y="275.026" x="9.079">y</tspan></text><text style="line-height:1.25;-inkscape-font-specification:'sans-serif Bold'" x="13.398" y="276.695" font-size="3.356" stroke-width=".068" transform="matrix(2.07323 0 0 2.07323 84.41 -563.075)"><tspan x="13.398" y="276.695" style="-inkscape-font-specification:'sans-serif Bold'">1</tspan></text></g><path d="M47.18 16.323h79.375v4.604H47.18z"/><path fill="#99039e" d="M67.567 16.323h20.505v4.604H67.567z"/><path fill="#1d76ce" d="M97.693 16.323h20.505v4.604H97.693z"/><path d="M47.18 22.361h79.375v4.604H47.18z"/><path fill="#99039e" d="M67.567 22.361h20.505v4.604H67.567z"/><path fill="#1d76ce" d="M97.693 22.361h20.505v4.604H97.693z"/><path d="M47.18 28.399h79.375v4.604H47.18z"/><path fill="#99039e" d="M67.567 28.399h20.505v4.604H67.567z"/><path fill="#1d76ce" d="M97.693 28.399h20.505v4.604H97.693z"/><rect ry="0" y="-2.04" x="157.178" height="2.667" width="10.023" fill="#363636"/><path fill="#363636" d="M164.127-2.04h3.074v57.269h-3.074z"/><rect ry="0" y="52.586" x="156.641" height="2.667" width="10.023" fill="#363636"/><rect ry="0" y="25.262" x="166.663" height="2.667" width="10.023" fill="#363636"/><text style="line-height:1.25;-inkscape-font-specification:'Ubuntu Condensed, Bold'" x="177.222" y="7.537" font-weight="700" font-size="8.467" letter-spacing="0" word-spacing="0" font-family="Ubuntu Condensed" fill="#e5650e" stroke-width=".308"><tspan x="177.222" y="7.537" style="-inkscape-font-specification:'sans-serif Bold'" font-family="sans-serif" stroke-width="1.164">avg loss</tspan></text><g fill="#363636"><path d="M187.797 16.52v-1.635h16.762v1.635z"/><path d="M195.341 15.505v-4.814h1.673v4.814zM187.797 19.7v-4.815h1.673V19.7zM202.886 19.7v-4.815h1.673V19.7z"/></g><text y="4.192" x="193.052" style="line-height:1.25;-inkscape-font-specification:'Ubuntu Condensed, Bold'" font-weight="700" font-size="10.583" font-family="Ubuntu Condensed" letter-spacing="0" word-spacing="0" stroke-width=".265"><tspan y="4.192" x="193.052"></tspan></text><text style="line-height:1.25;-inkscape-font-specification:'Ubuntu Condensed, Bold'" x="142.223" y="10.53" font-weight="700" font-size="17.269" font-family="Ubuntu Condensed" letter-spacing="0" word-spacing="0" stroke-width=".265"><tspan x="142.223" y="10.53" style="-inkscape-font-specification:'sans-serif Bold'" font-weight="400" font-family="sans-serif">0</tspan></text><text style="line-height:1.25;-inkscape-font-specification:'Ubuntu Condensed, Bold'" x="142.223" y="52.288" font-weight="700" font-size="17.269" font-family="Ubuntu Condensed" letter-spacing="0" word-spacing="0" stroke-width=".265"><tspan x="142.223" y="52.288" style="-inkscape-font-specification:'sans-serif Bold'" font-weight="400" font-family="sans-serif">1</tspan></text><g stroke-width="1.388" fill="#363636" font-weight="700" font-family="sans-serif" letter-spacing="0" word-spacing="0"><text font-size="24.338" style="line-height:1.25;-inkscape-font-specification:'sans-serif Bold'" x="4.815" y="129.979" stroke-width=".407" transform="matrix(.58443 0 0 .88835 112.429 -63.208)"></text><text transform="matrix(.65904 0 0 .78778 112.429 -63.208)" style="line-height:1.25;-inkscape-font-specification:'sans-serif Bold'" x="16.227" y="132.781" font-size="10.327" stroke-width=".194"></text><text y="130.967" x="28.356" style="line-height:1.25;-inkscape-font-specification:'sans-serif Bold'" font-size="24.338" stroke-width=".407" transform="matrix(.58443 0 0 .88835 112.429 -63.208)"><tspan style="-inkscape-font-specification:'sans-serif Bold'" y="130.967" x="28.356">=</tspan></text></g><circle cx="146.482" cy="17.917" r="2.315"/><circle cx="146.482" cy="24.663" r="2.315"/><circle cx="146.482" cy="30.701" r="2.315"/><text style="line-height:1.25;-inkscape-font-specification:'Ubuntu Condensed, Bold'" x="184.89" y="50.654" font-weight="700" font-size="12.995" letter-spacing="0" word-spacing="0" font-family="Ubuntu Condensed" fill="#1d76ce" stroke-width=".308"><tspan x="184.89" y="50.654" style="-inkscape-font-specification:'sans-serif Bold'" font-family="sans-serif" stroke-width="1.164">2p</tspan></text><path d="M180.977 36.171h30.402v1.874h-30.402z"/><text style="line-height:1.25;-inkscape-font-specification:'Ubuntu Condensed, Bold'" x="192.383" y="33.11" font-weight="700" font-size="12.995" letter-spacing="0" word-spacing="0" font-family="Ubuntu Condensed" stroke-width=".308"><tspan x="192.383" y="33.11" style="-inkscape-font-specification:'sans-serif Bold'" font-family="sans-serif" stroke-width="1.164">?</tspan></text><path d="M68.395 36.081H88.18v19.786H68.395z" fill="#99039e"/><text word-spacing="0" letter-spacing="0" font-size="13.896" font-weight="700" y="51.254" x="73.301" style="line-height:1.25;-inkscape-font-specification:'sans-serif Bold'" font-family="sans-serif" fill="#fff" stroke-width=".227"><tspan style="-inkscape-font-specification:'sans-serif Bold'" y="51.254" x="73.301">h</tspan></text><text style="line-height:1.25;-inkscape-font-specification:'Ubuntu Condensed, Bold'" x="46.872" y="51.676" font-weight="700" font-size="17.269" font-family="Ubuntu Condensed" letter-spacing="0" word-spacing="0" stroke-width=".265"><tspan x="46.872" y="51.676" style="-inkscape-font-specification:'sans-serif Bold'" font-family="sans-serif">1(</tspan></text><text style="line-height:1.25;-inkscape-font-specification:'Ubuntu Condensed, Bold'" x="89.912" y="51.548" font-weight="700" font-size="17.269" font-family="Ubuntu Condensed" letter-spacing="0" word-spacing="0" stroke-width=".265"><tspan x="89.912" y="51.548" style="-inkscape-font-specification:'sans-serif Bold'" font-family="sans-serif">, )</tspan></text><path d="M118.912 56.121H97.915V35.124h20.997z" fill="#1d76ce"/><text y="48.926" x="103.232" style="line-height:1.25;-inkscape-font-specification:'sans-serif Bold'" font-size="14.54" font-weight="700" font-family="sans-serif" letter-spacing="0" word-spacing="0" fill="#fff" stroke-width=".293"><tspan style="-inkscape-font-specification:'sans-serif Bold'" y="48.926" x="103.232">y</tspan></text><text style="line-height:1.25;-inkscape-font-specification:'sans-serif Bold'" x="110.384" y="52.989" font-size="6.957" font-weight="700" font-family="sans-serif" letter-spacing="0" word-spacing="0" fill="#fff" stroke-width=".14"><tspan x="110.384" y="52.989" style="-inkscape-font-specification:'sans-serif Bold'">p</tspan></text><g stroke-width="1.388" fill="#363636" font-weight="700" font-family="sans-serif" letter-spacing="0" word-spacing="0"><text y="129.979" x="4.815" style="line-height:1.25;-inkscape-font-specification:'sans-serif Bold'" font-size="24.338" stroke-width=".407" transform="matrix(.58443 0 0 .88835 112.429 -104.966)"></text><text font-size="10.327" y="132.781" x="16.227" style="line-height:1.25;-inkscape-font-specification:'sans-serif Bold'" transform="matrix(.65904 0 0 .78778 112.429 -104.966)" stroke-width=".194"></text><text font-size="24.338" style="line-height:1.25;-inkscape-font-specification:'sans-serif Bold'" x="28.356" y="130.967" stroke-width=".407" transform="matrix(.58443 0 0 .88835 112.429 -104.966)"><tspan x="28.356" y="130.967" style="-inkscape-font-specification:'sans-serif Bold'">=</tspan></text></g><text style="line-height:1.25;-inkscape-font-specification:'Ubuntu Condensed, Bold'" x="208.337" y="56.457" font-weight="700" font-size="10.583" font-family="Ubuntu Condensed" letter-spacing="0" word-spacing="0" stroke-width=".265"/><text word-spacing="0" letter-spacing="0" font-size="15.785" font-weight="700" style="line-height:1.25;-inkscape-font-specification:'sans-serif Bold'" x="3.892" y="28.722" font-family="sans-serif" fill="#363636" stroke-width=".395"><tspan x="3.892" y="28.722" style="-inkscape-font-specification:'sans-serif Bold'">≥</tspan></text></g></svg>