<svg xmlns="http://www.w3.org/2000/svg" width="944.5" height="486.3" viewBox="0 0 249.9 128.7"><path d="M74.9 21.8h-21V.8h21zm0 42h-21v-21h21z" fill="#4e9d9b"/><path d="M74.9 42.7h-21v-21h21z" fill="#4e9d9b" fill-opacity=".5"/><g font-weight="700" letter-spacing="0" word-spacing="0" font-family="sans-serif" fill="#fff" stroke-width=".1"><text y="275" x="9.1" style="line-height:1.25;-inkscape-font-specification:'sans-serif Bold'" font-size="7" transform="translate(40.4 -555.6) scale(2.07323)"><tspan style="-inkscape-font-specification:'sans-serif Bold'" y="275" x="9.1">x</tspan></text><text style="line-height:1.25;-inkscape-font-specification:'sans-serif Bold'" x="13.4" y="276.7" font-size="3.4" transform="translate(40.4 -555.6) scale(2.07323)"><tspan x="13.4" y="276.7" style="-inkscape-font-specification:'sans-serif Bold'">1</tspan></text></g><g word-spacing="0" letter-spacing="0" font-weight="700" font-family="sans-serif" fill="#fff" stroke-width=".1"><text y="274.5" x="9.2" style="line-height:1.25;-inkscape-font-specification:'sans-serif Bold'" font-size="7" transform="translate(40.7 -512.5) scale(2.07323)"><tspan style="-inkscape-font-specification:'sans-serif Bold'" y="274.5" x="9.2">x</tspan></text><text style="line-height:1.25;-inkscape-font-specification:'sans-serif Bold'" x="13.2" y="276.2" font-size="2.7" transform="translate(40.7 -512.5) scale(2.07323)"><tspan x="13.2" y="276.2" style="-inkscape-font-specification:'sans-serif Bold'">m</tspan></text></g><path d="M74.9 84.8h-21v-21h21zm0 42h-21v-21h21z" fill="#96aab8"/><path d="M74.9 105.8h-21v-21h21z" opacity=".5" fill="#96aab8"/><g font-weight="700" letter-spacing="0" word-spacing="0" font-family="sans-serif" fill="#fff" stroke-width=".1"><text y="275" x="9.1" style="line-height:1.25;-inkscape-font-specification:'sans-serif Bold'" font-size="7" transform="translate(40.4 -492.6) scale(2.07323)"><tspan style="-inkscape-font-specification:'sans-serif Bold'" y="275" x="9.1">x</tspan></text><text style="line-height:1.25;-inkscape-font-specification:'sans-serif Bold'" x="10.2" y="277.3" font-size="2.5" transform="translate(40.4 -492.6) scale(2.07323)"><tspan x="10.2" y="277.3" style="-inkscape-font-specification:'sans-serif Bold'">m+1</tspan></text></g><g word-spacing="0" letter-spacing="0" font-weight="700" font-family="sans-serif" fill="#fff" stroke-width=".1"><text y="274.5" x="9.2" style="line-height:1.25;-inkscape-font-specification:'sans-serif Bold'" font-size="7" transform="translate(40.7 -449.5) scale(2.07323)"><tspan style="-inkscape-font-specification:'sans-serif Bold'" y="274.5" x="9.2">x</tspan></text><text style="line-height:1.25;-inkscape-font-specification:'sans-serif Bold'" x="11.5" y="276.9" font-size="2.7" transform="translate(40.7 -449.5) scale(2.07323)"><tspan x="11.5" y="276.9" style="-inkscape-font-specification:'sans-serif Bold'">2m</tspan></text></g><path d="M74.9 40.2h-21v-3h21zm0-4.3h-21v-3h21zm0-4.4h-21v-3h21zm0-4.3h-21v-3h21z" fill="#4e9d9b" fill-opacity=".5"/><path d="M74.9 103.3h-21v-3h21zm0-4.4h-21v-3h21zm0-4.3h-21v-3h21zm0-4.4h-21v-3h21z" fill="#95a9b7" fill-opacity=".5"/><text font-size="24.3" style="line-height:1.25;-inkscape-font-specification:'sans-serif Bold'" x="28.4" y="131" stroke-width=".4" transform="matrix(.68367 0 0 .88835 15.6 -45.2)" fill="#363636" font-weight="700" font-family="sans-serif" letter-spacing="0" word-spacing="0"><tspan x="28.4" y="131" style="-inkscape-font-specification:'sans-serif Bold'">=</tspan></text><text style="line-height:1.25;-inkscape-font-specification:'sans-serif Bold'" x="-.7" y="79.5" transform="matrix(.9616 0 0 1.03992 -.5 -14.1)" font-weight="700" font-size="13.6" font-family="sans-serif" letter-spacing="0" word-spacing="0" stroke-width=".3"><tspan x="-.7" y="79.5" style="-inkscape-font-specification:'sans-serif Bold'">Loss</tspan></text><g transform="translate(-.5 -14.1)"><path d="M101.4 14.7H121v19.8h-19.7z" fill="#99039e"/><text word-spacing="0" letter-spacing="0" font-size="13.9" font-weight="700" y="29.9" x="106.3" style="line-height:1.25;-inkscape-font-specification:'sans-serif Bold'" font-family="sans-serif" fill="#fff" stroke-width=".2"><tspan style="-inkscape-font-specification:'sans-serif Bold'" y="29.9" x="106.3">h</tspan></text><text y="30.3" x="79.8" style="line-height:1.25;-inkscape-font-specification:'Ubuntu Condensed, Bold'" font-weight="700" font-size="17.3" font-family="Ubuntu Condensed" letter-spacing="0" word-spacing="0" stroke-width=".3"><tspan style="-inkscape-font-specification:'sans-serif Bold'" y="30.3" x="79.8" font-family="sans-serif">1(</tspan></text><text y="30.2" x="122.9" style="line-height:1.25;-inkscape-font-specification:'Ubuntu Condensed, Bold'" font-weight="700" font-size="17.3" font-family="Ubuntu Condensed" letter-spacing="0" word-spacing="0" stroke-width=".3"><tspan style="-inkscape-font-specification:'sans-serif Bold'" y="30.2" x="122.9" font-family="sans-serif">, )</tspan></text><path d="M151.9 35.1h-21v-21h21z" fill="#4e9d9b"/><g word-spacing="0" letter-spacing="0" font-weight="700" font-family="sans-serif" fill="#fff" stroke-width=".1"><text font-size="7" style="line-height:1.25;-inkscape-font-specification:'sans-serif Bold'" x="9.1" y="275" transform="translate(117.4 -542.3) scale(2.07323)"><tspan x="9.1" y="275" style="-inkscape-font-specification:'sans-serif Bold'">y</tspan></text><text font-size="3.4" y="276.7" x="13.4" style="line-height:1.25;-inkscape-font-specification:'sans-serif Bold'" transform="translate(117.4 -542.3) scale(2.07323)"><tspan style="-inkscape-font-specification:'sans-serif Bold'" y="276.7" x="13.4">1</tspan></text></g><path d="M80.1 37.1h79.4v4.6H80.1z"/><path fill="#99039e" d="M100.5 37.1H121v4.6h-20.5z"/><path fill="#4e9d9b" d="M130.6 37.1h20.6v4.6h-20.6z"/><path d="M80.1 43.2h79.4v4.6H80.1z"/><path fill="#99039e" d="M100.5 43.2H121v4.6h-20.5z"/><path fill="#4e9d9b" d="M130.6 43.2h20.6v4.6h-20.6z"/><path d="M80.1 49.2h79.4v4.6H80.1z"/><path fill="#99039e" d="M100.5 49.2H121v4.6h-20.5z"/><path fill="#4e9d9b" d="M130.6 49.2h20.6v4.6h-20.6z"/><path d="M80.8 103h79.4v4.6H80.8z"/><path fill="#99039e" d="M101.2 103h20.5v4.6h-20.5z"/><path fill="#4e9d9b" d="M131.3 103h20.5v4.6h-20.5z"/><path d="M80.8 109h79.4v4.6H80.8z"/><path fill="#99039e" d="M101.2 109h20.5v4.6h-20.5z"/><path fill="#4e9d9b" d="M131.3 109h20.5v4.6h-20.5z"/><path d="M80.8 115h79.4v4.6H80.8z"/><path fill="#99039e" d="M101.2 115h20.5v4.6h-20.5z"/><path fill="#4e9d9b" d="M131.3 115h20.5v4.6h-20.5z"/><rect width="10" height="2.7" x="190" y="25.2" ry="0" fill="#363636"/><path fill="#363636" d="M197 25.2h3v106.6h-3z"/><rect width="10" height="2.7" x="190" y="131.8" ry="0" fill="#363636"/><rect width="10" height="2.7" x="199.5" y="77.1" ry="0" fill="#363636"/><text word-spacing="0" letter-spacing="0" font-size="8.5" font-weight="700" y="47.7" x="211.7" style="line-height:1.25;-inkscape-font-specification:'Ubuntu Condensed, Bold'" font-family="Ubuntu Condensed" fill="#e5650e" stroke-width=".3"><tspan style="-inkscape-font-specification:'sans-serif Bold'" y="47.7" x="211.7" font-family="sans-serif" stroke-width="1.2">avg loss</tspan></text><g fill="#363636"><path d="M222.3 56.7V55h16.8v1.7z"/><path d="M229.8 55.6v-4.8h1.7v4.8zm-7.5 4.2V55h1.7v4.8zm15 0V55h1.8v4.8z"/></g><text y="31.3" x="175.2" style="line-height:1.25;-inkscape-font-specification:'Ubuntu Condensed, Bold'" font-weight="700" font-size="17.3" font-family="Ubuntu Condensed" letter-spacing="0" word-spacing="0" stroke-width=".3"><tspan style="-inkscape-font-specification:'sans-serif Bold'" y="31.3" x="175.2" font-weight="400" font-family="sans-serif">0</tspan></text><text y="73.1" x="175.2" style="line-height:1.25;-inkscape-font-specification:'Ubuntu Condensed, Bold'" font-weight="700" font-size="17.3" font-family="Ubuntu Condensed" letter-spacing="0" word-spacing="0" stroke-width=".3"><tspan style="-inkscape-font-specification:'sans-serif Bold'" y="73.1" x="175.2" font-weight="400" font-family="sans-serif">1</tspan></text><text font-size="24.3" style="line-height:1.25;-inkscape-font-specification:'sans-serif Bold'" x="28.4" y="131" stroke-width=".4" transform="matrix(.58443 0 0 .88835 145.4 -42.4)" fill="#363636" font-weight="700" font-family="sans-serif" letter-spacing="0" word-spacing="0"><tspan x="28.4" y="131" style="-inkscape-font-specification:'sans-serif Bold'">=</tspan></text><text y="96.8" x="175.2" style="line-height:1.25;-inkscape-font-specification:'Ubuntu Condensed, Bold'" font-weight="700" font-size="17.3" font-family="Ubuntu Condensed" letter-spacing="0" word-spacing="0" stroke-width=".3"><tspan style="-inkscape-font-specification:'sans-serif Bold'" y="96.8" x="175.2" font-weight="400" font-family="sans-serif">1</tspan></text><text font-size="24.3" style="line-height:1.25;-inkscape-font-specification:'sans-serif Bold'" x="28.4" y="131" stroke-width=".4" transform="matrix(.58443 0 0 .88835 145.4 -18.7)" fill="#363636" font-weight="700" font-family="sans-serif" letter-spacing="0" word-spacing="0"><tspan x="28.4" y="131" style="-inkscape-font-specification:'sans-serif Bold'">=</tspan></text><text y="138.6" x="175.2" style="line-height:1.25;-inkscape-font-specification:'Ubuntu Condensed, Bold'" font-weight="700" font-size="17.3" font-family="Ubuntu Condensed" letter-spacing="0" word-spacing="0" stroke-width=".3"><tspan style="-inkscape-font-specification:'sans-serif Bold'" y="138.6" x="175.2" font-weight="400" font-family="sans-serif">0</tspan></text><text font-size="24.3" style="line-height:1.25;-inkscape-font-specification:'sans-serif Bold'" x="28.4" y="131" stroke-width=".4" transform="matrix(.58443 0 0 .88835 145.4 23)" fill="#363636" font-weight="700" font-family="sans-serif" letter-spacing="0" word-spacing="0"><tspan x="28.4" y="131" style="-inkscape-font-specification:'sans-serif Bold'">=</tspan></text><circle r="2.3" cy="38.7" cx="179.4"/><circle r="2.3" cy="45.5" cx="179.4"/><circle r="2.3" cy="51.5" cx="179.4"/><g transform="translate(-.2 -1.6)"><circle cx="179.6" cy="106.5" r="2.3"/><circle cx="179.6" cy="113.2" r="2.3"/><circle cx="179.6" cy="119.2" r="2.3"/></g><text word-spacing="0" letter-spacing="0" font-size="13" font-weight="700" y="90.8" x="219.4" style="line-height:1.25;-inkscape-font-specification:'Ubuntu Condensed, Bold'" font-family="Ubuntu Condensed" fill="#4e9d9b" stroke-width=".3"><tspan style="-inkscape-font-specification:'sans-serif Bold'" y="90.8" x="219.4" font-family="sans-serif" stroke-width="1.2">2m</tspan></text><path d="M215.5 76.3h30.4v1.9h-30.4z"/><text word-spacing="0" letter-spacing="0" font-size="13" font-weight="700" y="73.2" x="226.9" style="line-height:1.25;-inkscape-font-specification:'Ubuntu Condensed, Bold'" font-family="Ubuntu Condensed" stroke-width=".3"><tspan style="-inkscape-font-specification:'sans-serif Bold'" y="73.2" x="226.9" font-family="sans-serif" stroke-width="1.2">?</tspan></text></g><path d="M100.9 42.8h19.7v19.8H101z" fill="#99039e"/><text word-spacing="0" letter-spacing="0" font-size="13.9" font-weight="700" y="72.1" x="106.3" style="line-height:1.25;-inkscape-font-specification:'sans-serif Bold'" font-family="sans-serif" fill="#fff" stroke-width=".2" transform="translate(-.5 -14.1)"><tspan style="-inkscape-font-specification:'sans-serif Bold'" y="72.1" x="106.3">h</tspan></text><text style="line-height:1.25;-inkscape-font-specification:'Ubuntu Condensed, Bold'" x="79.8" y="72.5" font-weight="700" font-size="17.3" font-family="Ubuntu Condensed" letter-spacing="0" word-spacing="0" stroke-width=".3" transform="translate(-.5 -14.1)"><tspan x="79.8" y="72.5" style="-inkscape-font-specification:'sans-serif Bold'" font-family="sans-serif">1(</tspan></text><text style="line-height:1.25;-inkscape-font-specification:'Ubuntu Condensed, Bold'" x="122.9" y="72.4" font-weight="700" font-size="17.3" font-family="Ubuntu Condensed" letter-spacing="0" word-spacing="0" stroke-width=".3" transform="translate(-.5 -14.1)"><tspan x="122.9" y="72.4" style="-inkscape-font-specification:'sans-serif Bold'" font-family="sans-serif">, )</tspan></text><path d="M151.4 62.8h-21v-21h21z" fill="#4e9d9b"/><text y="69.7" x="136.2" style="line-height:1.25;-inkscape-font-specification:'sans-serif Bold'" font-size="14.5" font-weight="700" font-family="sans-serif" letter-spacing="0" word-spacing="0" fill="#fff" stroke-width=".3" transform="translate(-.5 -14.1)"><tspan style="-inkscape-font-specification:'sans-serif Bold'" y="69.7" x="136.2">y</tspan></text><text style="line-height:1.25;-inkscape-font-specification:'sans-serif Bold'" x="143.3" y="73.8" font-size="7" font-weight="700" font-family="sans-serif" letter-spacing="0" word-spacing="0" fill="#fff" stroke-width=".1" transform="translate(-.5 -14.1)"><tspan x="143.3" y="73.8" style="-inkscape-font-specification:'sans-serif Bold'">m</tspan></text><path d="M100.9 66.5h19.7v19.7H101z" fill="#99039e"/><text style="line-height:1.25;-inkscape-font-specification:'sans-serif Bold'" x="106.3" y="29.9" font-weight="700" font-size="13.9" letter-spacing="0" word-spacing="0" font-family="sans-serif" fill="#fff" stroke-width=".2" transform="translate(-.5 51.7)"><tspan x="106.3" y="29.9" style="-inkscape-font-specification:'sans-serif Bold'">h</tspan></text><text style="line-height:1.25;-inkscape-font-specification:'Ubuntu Condensed, Bold'" x="79.8" y="96.2" font-weight="700" font-size="17.3" font-family="Ubuntu Condensed" letter-spacing="0" word-spacing="0" stroke-width=".3" transform="translate(-.5 -14.1)"><tspan x="79.8" y="96.2" style="-inkscape-font-specification:'sans-serif Bold'" font-family="sans-serif">1(</tspan></text><text style="line-height:1.25;-inkscape-font-specification:'Ubuntu Condensed, Bold'" x="122.9" y="96.1" font-weight="700" font-size="17.3" font-family="Ubuntu Condensed" letter-spacing="0" word-spacing="0" stroke-width=".3" transform="translate(-.5 -14.1)"><tspan x="122.9" y="96.1" style="-inkscape-font-specification:'sans-serif Bold'" font-family="sans-serif">, )</tspan></text><path d="M151.4 86.8h-21v-21h21z" fill="#4e9d9b"/><g word-spacing="0" letter-spacing="0" font-weight="700" font-family="sans-serif" fill="#fff" stroke-width=".1"><text font-size="7" style="line-height:1.25;-inkscape-font-specification:'sans-serif Bold'" x="9.1" y="275" transform="translate(116.9 -490.5) scale(2.07323)"><tspan x="9.1" y="275" style="-inkscape-font-specification:'sans-serif Bold'">y</tspan></text><text font-size="2.1" y="278" x="11.1" style="line-height:1.25;-inkscape-font-specification:'sans-serif Bold'" transform="translate(116.9 -490.5) scale(2.07323)"><tspan style="-inkscape-font-specification:'sans-serif Bold'" y="278" x="11.1">m+1</tspan></text></g><path d="M100.9 108.6h19.7v19.8H101z" fill="#99039e"/><text word-spacing="0" letter-spacing="0" font-size="13.9" font-weight="700" y="137.9" x="106.3" style="line-height:1.25;-inkscape-font-specification:'sans-serif Bold'" font-family="sans-serif" fill="#fff" stroke-width=".2" transform="translate(-.5 -14.1)"><tspan style="-inkscape-font-specification:'sans-serif Bold'" y="137.9" x="106.3">h</tspan></text><text style="line-height:1.25;-inkscape-font-specification:'Ubuntu Condensed, Bold'" x="79.8" y="138.3" font-weight="700" font-size="17.3" font-family="Ubuntu Condensed" letter-spacing="0" word-spacing="0" stroke-width=".3" transform="translate(-.5 -14.1)"><tspan x="79.8" y="138.3" style="-inkscape-font-specification:'sans-serif Bold'" font-family="sans-serif">1(</tspan></text><text style="line-height:1.25;-inkscape-font-specification:'Ubuntu Condensed, Bold'" x="122.9" y="138.2" font-weight="700" font-size="17.3" font-family="Ubuntu Condensed" letter-spacing="0" word-spacing="0" stroke-width=".3" transform="translate(-.5 -14.1)"><tspan x="122.9" y="138.2" style="-inkscape-font-specification:'sans-serif Bold'" font-family="sans-serif">, )</tspan></text><path d="M151.4 128.7h-21v-21h21z" fill="#4e9d9b"/><text y="135.6" x="136.2" style="line-height:1.25;-inkscape-font-specification:'sans-serif Bold'" font-size="14.5" font-weight="700" font-family="sans-serif" letter-spacing="0" word-spacing="0" fill="#fff" stroke-width=".3" transform="translate(-.5 -14.1)"><tspan style="-inkscape-font-specification:'sans-serif Bold'" y="135.6" x="136.2">y</tspan></text><text style="line-height:1.25;-inkscape-font-specification:'sans-serif Bold'" x="142.1" y="141.1" font-size="5.4" font-weight="700" font-family="sans-serif" letter-spacing="0" word-spacing="0" fill="#fff" stroke-width=".1" transform="translate(-.5 -14.1)"><tspan x="142.1" y="141.1" style="-inkscape-font-specification:'sans-serif Bold'">2m</tspan></text><text font-size="24.3" style="line-height:1.25;-inkscape-font-specification:'sans-serif Bold'" x="28.4" y="131" stroke-width=".4" transform="matrix(.58443 0 0 .88835 144.9 -98.3)" fill="#363636" font-weight="700" font-family="sans-serif" letter-spacing="0" word-spacing="0"><tspan x="28.4" y="131" style="-inkscape-font-specification:'sans-serif Bold'">=</tspan></text></svg>