<svg xmlns="http://www.w3.org/2000/svg" width="939.7" height="241.1" viewBox="0 0 248.6 63.8"><g transform="translate(32.7 6.7)"><path d="M42.4 15.1h-21v-21h21zm0 42h-21V36h21z" fill="#1d76ce"/><path d="M42.4 36h-21V15h21z" fill="#1d76ce" opacity=".5"/><g font-weight="700" letter-spacing="0" word-spacing="0" font-family="sans-serif" fill="#fff" stroke-width=".1"><text y="275" x="9.1" style="line-height:1.25;-inkscape-font-specification:'sans-serif Bold'" font-size="7" transform="translate(7.9 -562.3) scale(2.07323)"><tspan style="-inkscape-font-specification:'sans-serif Bold'" y="275" x="9.1">v</tspan></text><text style="line-height:1.25;-inkscape-font-specification:'sans-serif Bold'" x="13.4" y="276.7" font-size="3.4" transform="translate(7.9 -562.3) scale(2.07323)"><tspan x="13.4" y="276.7" style="-inkscape-font-specification:'sans-serif Bold'">1</tspan></text></g><g word-spacing="0" letter-spacing="0" font-weight="700" font-family="sans-serif" fill="#fff" stroke-width=".1"><text y="274.5" x="9.2" style="line-height:1.25;-inkscape-font-specification:'sans-serif Bold'" font-size="7" transform="translate(8.2 -519.2) scale(2.07323)"><tspan style="-inkscape-font-specification:'sans-serif Bold'" y="274.5" x="9.2">v</tspan></text><text style="line-height:1.25;-inkscape-font-specification:'sans-serif Bold'" x="13.2" y="276.2" font-size="2.7" transform="translate(8.2 -519.2) scale(2.07323)"><tspan x="13.2" y="276.2" style="-inkscape-font-specification:'sans-serif Bold'">p</tspan></text></g><path d="M42.4 33.5h-21v-3h21zm0-4.3h-21v-3h21zm0-4.4h-21v-3h21zm0-4.3h-21v-3h21z" fill="#1d76ce" opacity=".5"/><text style="line-height:1.25;-inkscape-font-specification:'sans-serif Bold'" x="-35.3" y="27.2" transform="scale(.9616 1.03992)" font-weight="700" font-size="13.6" font-family="sans-serif" letter-spacing="0" word-spacing="0" stroke-width=".3"><tspan x="-35.3" y="27.2" style="-inkscape-font-specification:'sans-serif Bold'">Loss</tspan></text><path d="M68.4-6h19.8v19.7H68.4z" fill="#99039e"/><text style="line-height:1.25;-inkscape-font-specification:'sans-serif Bold'" x="106.3" y="29.9" font-weight="700" font-size="13.9" letter-spacing="0" word-spacing="0" font-family="sans-serif" fill="#fff" stroke-width=".2" transform="translate(-33 -20.8)"><tspan x="106.3" y="29.9" style="-inkscape-font-specification:'sans-serif Bold'">h</tspan></text><text style="line-height:1.25;-inkscape-font-specification:'Ubuntu Condensed, Bold'" x="46.9" y="9.5" font-weight="700" font-size="17.3" font-family="Ubuntu Condensed" letter-spacing="0" word-spacing="0" stroke-width=".3"><tspan x="46.9" y="9.5" style="-inkscape-font-specification:'sans-serif Bold'" font-family="sans-serif">1(</tspan></text><text style="line-height:1.25;-inkscape-font-specification:'Ubuntu Condensed, Bold'" x="89.9" y="9.4" font-weight="700" font-size="17.3" font-family="Ubuntu Condensed" letter-spacing="0" word-spacing="0" stroke-width=".3"><tspan x="89.9" y="9.4" style="-inkscape-font-specification:'sans-serif Bold'" font-family="sans-serif">, )</tspan></text><path d="M119 14.3H98v-21h21z" fill="#1d76ce"/><g font-weight="700" letter-spacing="0" word-spacing="0" font-family="sans-serif" fill="#fff" stroke-width=".1"><text y="275" x="9.1" style="line-height:1.25;-inkscape-font-specification:'sans-serif Bold'" font-size="7" transform="translate(84.4 -563) scale(2.07323)"><tspan style="-inkscape-font-specification:'sans-serif Bold'" y="275" x="9.1">y</tspan></text><text style="line-height:1.25;-inkscape-font-specification:'sans-serif Bold'" x="13.4" y="276.7" font-size="3.4" transform="translate(84.4 -563) scale(2.07323)"><tspan x="13.4" y="276.7" style="-inkscape-font-specification:'sans-serif Bold'">1</tspan></text></g><path d="M47.2 16.3h79.4V21H47.2z"/><path fill="#99039e" d="M67.6 16.3H88V21H67.6z"/><path fill="#1d76ce" d="M97.7 16.3h20.5V21H97.7z"/><path d="M47.2 22.4h79.4V27H47.2z"/><path fill="#99039e" d="M67.6 22.4H88V27H67.6z"/><path fill="#1d76ce" d="M97.7 22.4h20.5V27H97.7z"/><path d="M47.2 28.4h79.4V33H47.2z"/><path fill="#99039e" d="M67.6 28.4H88V33H67.6z"/><path fill="#1d76ce" d="M97.7 28.4h20.5V33H97.7z"/><rect ry="0" y="-2" x="157.2" height="2.7" width="10" fill="#363636"/><path fill="#363636" d="M164.1-2h3.1v57.2h-3z"/><rect ry="0" y="52.6" x="156.6" height="2.7" width="10" fill="#363636"/><rect ry="0" y="25.3" x="166.7" height="2.7" width="10" fill="#363636"/><text style="line-height:1.25;-inkscape-font-specification:'Ubuntu Condensed, Bold'" x="177.2" y="7.5" font-weight="700" font-size="8.5" letter-spacing="0" word-spacing="0" font-family="Ubuntu Condensed" fill="#e5650e" stroke-width=".3"><tspan x="177.2" y="7.5" style="-inkscape-font-specification:'sans-serif Bold'" font-family="sans-serif" stroke-width="1.2">avg loss</tspan></text><g fill="#363636"><path d="M187.8 16.5V15h16.8v1.6z"/><path d="M195.3 15.5v-4.8h1.7v4.8zm-7.5 4.2v-4.8h1.7v4.8zm15 0v-4.8h1.8v4.8z"/></g><text style="line-height:1.25;-inkscape-font-specification:'Ubuntu Condensed, Bold'" x="142.2" y="10.5" font-weight="700" font-size="17.3" font-family="Ubuntu Condensed" letter-spacing="0" word-spacing="0" stroke-width=".3"><tspan x="142.2" y="10.5" style="-inkscape-font-specification:'sans-serif Bold'" font-weight="400" font-family="sans-serif">0</tspan></text><text style="line-height:1.25;-inkscape-font-specification:'Ubuntu Condensed, Bold'" x="142.2" y="52.3" font-weight="700" font-size="17.3" font-family="Ubuntu Condensed" letter-spacing="0" word-spacing="0" stroke-width=".3"><tspan x="142.2" y="52.3" style="-inkscape-font-specification:'sans-serif Bold'" font-weight="400" font-family="sans-serif">1</tspan></text><text y="131" x="28.4" style="line-height:1.25;-inkscape-font-specification:'sans-serif Bold'" font-size="24.3" stroke-width=".4" transform="matrix(.58443 0 0 .88835 112.4 -63.2)" fill="#363636" font-weight="700" font-family="sans-serif" letter-spacing="0" word-spacing="0"><tspan style="-inkscape-font-specification:'sans-serif Bold'" y="131" x="28.4">=</tspan></text><circle cx="146.5" cy="17.9" r="2.3"/><circle cx="146.5" cy="24.7" r="2.3"/><circle cx="146.5" cy="30.7" r="2.3"/><text style="line-height:1.25;-inkscape-font-specification:'Ubuntu Condensed, Bold'" x="184.9" y="50.7" font-weight="700" font-size="13" letter-spacing="0" word-spacing="0" font-family="Ubuntu Condensed" fill="#1d76ce" stroke-width=".3"><tspan x="184.9" y="50.7" style="-inkscape-font-specification:'sans-serif Bold'" font-family="sans-serif" stroke-width="1.2">2p</tspan></text><path d="M181 36.2h30.4V38H181z"/><text style="line-height:1.25;-inkscape-font-specification:'Ubuntu Condensed, Bold'" x="192.4" y="33.1" font-weight="700" font-size="13" letter-spacing="0" word-spacing="0" font-family="Ubuntu Condensed" stroke-width=".3"><tspan x="192.4" y="33.1" style="-inkscape-font-specification:'sans-serif Bold'" font-family="sans-serif" stroke-width="1.2">?</tspan></text><path d="M68.4 36h19.8V56H68.4z" fill="#99039e"/><text word-spacing="0" letter-spacing="0" font-size="13.9" font-weight="700" y="51.3" x="73.3" style="line-height:1.25;-inkscape-font-specification:'sans-serif Bold'" font-family="sans-serif" fill="#fff" stroke-width=".2"><tspan style="-inkscape-font-specification:'sans-serif Bold'" y="51.3" x="73.3">h</tspan></text><text style="line-height:1.25;-inkscape-font-specification:'Ubuntu Condensed, Bold'" x="46.9" y="51.7" font-weight="700" font-size="17.3" font-family="Ubuntu Condensed" letter-spacing="0" word-spacing="0" stroke-width=".3"><tspan x="46.9" y="51.7" style="-inkscape-font-specification:'sans-serif Bold'" font-family="sans-serif">1(</tspan></text><text style="line-height:1.25;-inkscape-font-specification:'Ubuntu Condensed, Bold'" x="89.9" y="51.5" font-weight="700" font-size="17.3" font-family="Ubuntu Condensed" letter-spacing="0" word-spacing="0" stroke-width=".3"><tspan x="89.9" y="51.5" style="-inkscape-font-specification:'sans-serif Bold'" font-family="sans-serif">, )</tspan></text><path d="M119 56.1H98v-21h21z" fill="#1d76ce"/><text y="48.9" x="103.2" style="line-height:1.25;-inkscape-font-specification:'sans-serif Bold'" font-size="14.5" font-weight="700" font-family="sans-serif" letter-spacing="0" word-spacing="0" fill="#fff" stroke-width=".3"><tspan style="-inkscape-font-specification:'sans-serif Bold'" y="48.9" x="103.2">y</tspan></text><text style="line-height:1.25;-inkscape-font-specification:'sans-serif Bold'" x="110.4" y="53" font-size="7" font-weight="700" font-family="sans-serif" letter-spacing="0" word-spacing="0" fill="#fff" stroke-width=".1"><tspan x="110.4" y="53" style="-inkscape-font-specification:'sans-serif Bold'">p</tspan></text><text font-size="24.3" style="line-height:1.25;-inkscape-font-specification:'sans-serif Bold'" x="28.4" y="131" stroke-width=".4" transform="matrix(.58443 0 0 .88835 112.4 -105)" fill="#363636" font-weight="700" font-family="sans-serif" letter-spacing="0" word-spacing="0"><tspan x="28.4" y="131" style="-inkscape-font-specification:'sans-serif Bold'">=</tspan></text><text word-spacing="0" letter-spacing="0" font-size="15.8" font-weight="700" style="line-height:1.25;-inkscape-font-specification:'sans-serif Bold'" x="3.9" y="28.7" font-family="sans-serif" fill="#363636" stroke-width=".4"><tspan x="3.9" y="28.7" style="-inkscape-font-specification:'sans-serif Bold'">≥</tspan></text></g></svg>