<svg xmlns="http://www.w3.org/2000/svg" viewBox="0 0 180 180" fill="#a00"><g transform="matrix(.196286 .210513 -.210491 .196306 106.730969 -70.483289)"><circle cx="-424" cy="369" r="313" fill="#ff9c9c" transform="rotate(270)"/><path fill="#e31212" d="M369 111a313 313 0 0 1 271 157 313 313 0 0 1-272 468"/><path fill="#760a0a" d="M682 424a313 313 0 0 1-157 270 313 313 0 0 1-313 0A313 313 0 0 1 57 423"/><path fill="#e41212" d="M369 736A313 313 0 0 1 57 423l312 1z"/><circle cx="369" cy="424" r="286" fill="#fff"/></g><g transform="matrix(.28781 0 0 .28784 -33 228)"><path d="M409-684l-18-55-87 24-48 63-21 68-32 81-3 130 22 43 13 10 24 35 38 27 7 18 46 23 15-25h20l44-73v-370zm40 0l18-55 87 24 48 63 21 68 32 81 3 130-22 43-13 10-24 35-39 27-6 18-46 23-15-25h-20l-44-73v-370z"/><rect width="33" height="371" x="412" y="-686" ry="12"/></g><text x="208" y="469" fill="#fffdfd" font-family="sans-serif" font-size="216" letter-spacing="0" transform="matrix(.28626 0 0 .2894 -24 -25)" word-spacing="0"><tspan x="208" y="469" font-family="Roboto Condensed, Arial, Helvetica, sans-serif" font-weight="700">MLU</tspan></text></svg>