<?xml version="1.0" encoding="UTF-8" standalone="no"?>
<!-- Created with Inkscape (http://www.inkscape.org/) -->

<svg
   xmlns:dc="http://purl.org/dc/elements/1.1/"
   xmlns:cc="http://creativecommons.org/ns#"
   xmlns:rdf="http://www.w3.org/1999/02/22-rdf-syntax-ns#"
   xmlns:svg="http://www.w3.org/2000/svg"
   xmlns="http://www.w3.org/2000/svg"
   xmlns:sodipodi="http://sodipodi.sourceforge.net/DTD/sodipodi-0.dtd"
   xmlns:inkscape="http://www.inkscape.org/namespaces/inkscape"
   width="179.91666mm"
   height="179.91667mm"
   viewBox="0 0 179.91666 179.91667"
   version="1.1"
   id="svg853"
   inkscape:version="0.92.4 (unknown)"
   sodipodi:docname="MLU Condsensed.svg">
  <defs
     id="defs847" />
  <sodipodi:namedview
     id="base"
     pagecolor="#ffffff"
     bordercolor="#666666"
     borderopacity="1.0"
     inkscape:pageopacity="0.0"
     inkscape:pageshadow="2"
     inkscape:zoom="0.7"
     inkscape:cx="46.395473"
     inkscape:cy="172.98509"
     inkscape:document-units="px"
     inkscape:current-layer="layer1"
     showgrid="false"
     units="mm"
     fit-margin-top="0"
     fit-margin-left="0"
     fit-margin-right="0"
     fit-margin-bottom="0"
     inkscape:window-width="2560"
     inkscape:window-height="1366"
     inkscape:window-x="0"
     inkscape:window-y="0"
     inkscape:window-maximized="1" />
  <metadata
     id="metadata850">
    <rdf:RDF>
      <cc:Work
         rdf:about="">
        <dc:format>image/svg+xml</dc:format>
        <dc:type
           rdf:resource="http://purl.org/dc/dcmitype/StillImage" />
        <dc:title></dc:title>
      </cc:Work>
    </rdf:RDF>
  </metadata>
  <g
     inkscape:label="Layer 1"
     inkscape:groupmode="layer"
     id="layer1"
     transform="translate(-6.0476218,-4.0684644)">
    <g
       style="fill:#aa0000;fill-opacity:1"
       id="g848"
       transform="matrix(0.28781277,0,0,0.28783528,-17.675846,-20.954202)"
       inkscape:export-xdpi="96"
       inkscape:export-ydpi="96">
      <g
         transform="rotate(47.441117,409.60394,441.05703)"
         id="g5608">
        <circle
           style="opacity:0.98999999;fill:#ff9c9c;fill-opacity:1;stroke:none;stroke-width:11.97916698;stroke-miterlimit:4;stroke-dasharray:none;stroke-opacity:1"
           id="path5520"
           cx="-423.63016"
           cy="369.09738"
           r="312.5"
           transform="rotate(-90)" />
        <path
           style="opacity:0.98999999;fill:#e31212;fill-opacity:1;stroke:none;stroke-width:11.97916698;stroke-miterlimit:4;stroke-dasharray:none;stroke-opacity:1"
           id="path5520-3"
           sodipodi:type="arc"
           sodipodi:cx="-423.63016"
           sodipodi:cy="369.09738"
           sodipodi:rx="312.5"
           sodipodi:ry="312.5"
           sodipodi:start="0"
           sodipodi:end="3.1443213"
           sodipodi:open="true"
           d="M -111.13016,369.09738 A 312.5,312.5 0 0 1 -267.62638,639.87233 312.5,312.5 0 0 1 -580.37221,639.44564 312.5,312.5 0 0 1 -736.12899,368.24468"
           transform="rotate(-90)" />
        <path
           style="opacity:0.98999999;fill:#760a0a;fill-opacity:1;stroke:none;stroke-width:11.97916698;stroke-miterlimit:4;stroke-dasharray:none;stroke-opacity:1"
           id="path5520-3-9"
           sodipodi:type="arc"
           sodipodi:cx="369.14285"
           sodipodi:cy="423.6814"
           sodipodi:rx="312.5"
           sodipodi:ry="312.5"
           sodipodi:start="0"
           sodipodi:end="3.1443213"
           sodipodi:open="true"
           d="M 681.64285,423.6814 A 312.5,312.5 0 0 1 525.14663,694.45634 312.5,312.5 0 0 1 212.4008,694.02965 312.5,312.5 0 0 1 56.644016,422.8287" />
        <path
           style="opacity:0.98999999;fill:#e41212;fill-opacity:1;stroke:none;stroke-width:11.97916698;stroke-miterlimit:4;stroke-dasharray:none;stroke-opacity:1"
           id="path5520-3-9-3"
           sodipodi:type="arc"
           sodipodi:cx="423.79071"
           sodipodi:cy="-369.09921"
           sodipodi:rx="312.5"
           sodipodi:ry="312.5"
           sodipodi:start="0"
           sodipodi:end="1.5744883"
           d="m 736.29071,-369.09921 a 312.5,312.5 0 0 1 -91.93742,221.3784 312.5,312.5 0 0 1 -221.71632,91.119468 l 1.15374,-312.497868 z"
           transform="rotate(90)" />
        <circle
           style="opacity:0.98999999;fill:#ffffff;fill-opacity:1;stroke:none;stroke-width:11.97916698;stroke-miterlimit:4;stroke-dasharray:none;stroke-opacity:1"
           id="path5562"
           cx="369.09738"
           cy="423.63016"
           r="286.45834" />
      </g>
      <g
         id="g5434">
        <path
           style="fill:#aa0000;fill-opacity:1;fill-rule:evenodd;stroke:none;stroke-width:0.48247084px;stroke-linecap:butt;stroke-linejoin:miter;stroke-opacity:1"
           d="m 925.16016,644.34766 -1.10743,0.30468 -0.0723,-0.1875 -41.23438,11.18555 -23.94336,30.26367 0.64258,0.0234 -8.8789,21.07617 -0.0781,-0.0469 -0.0195,0.27929 -0.64453,1.5293 0.51953,0.2207 -0.68555,9.64844 -6.21679,9.77735 -0.10157,-0.0742 -0.14843,0.46679 -0.0176,0.0274 h 0.008 l -9.1543,28.7832 0.81836,7.81445 -0.83593,-0.0762 0.92773,0.96875 -0.28906,-0.27344 -0.33399,32.8711 -1.7832,20.86719 10.64258,20.7246 5.1289,4.00586 -0.0273,0.20704 0.20508,-0.0684 1.01172,0.78906 0.041,-0.25586 c 1.15559,1.71255 9.83731,14.56324 11.66992,16.73047 l -0.23828,0.13867 18.78711,12.99414 0.0332,-0.0742 3.23828,8.69336 21.94726,10.85547 v 0 l 0.35742,0.28906 7.39649,-12.17578 9.69336,0.0625 7.55859,-19.83594 13.02346,-15.1848 0.5742,0.009 c 0,0 9.61935,11.84647 13.79101,16.78711 l 7.56055,19.8418 9.69531,-0.0645 7.39649,12.17579 0.35547,-0.28907 v 0 l 21.94724,-10.85546 3.2383,-8.69336 0.033,0.0742 18.7891,-12.99414 -0.2383,-0.13867 c 1.8345,-2.17023 10.5137,-15.02188 11.6679,-16.73242 l 0.043,0.25977 1.0117,-0.78907 0.2051,0.0684 -0.027,-0.20703 5.1289,-4.00586 10.6406,-20.72461 -1.7832,-20.89062 -0.332,-32.84766 -0.2911,0.27344 0.9278,-0.96875 -0.836,0.0762 0.8184,-7.81445 -9.1523,-28.78321 h 0.01 l -0.018,-0.0273 -0.1484,-0.4668 -0.1016,0.0742 -6.2167,-9.77734 -0.6875,-9.64844 0.5214,-0.2207 -0.6464,-1.53516 -0.02,-0.27539 -0.076,0.0469 -8.8769,-21.07618 0.6406,-0.0234 -23.9433,-30.26368 -41.2344,-11.18359 -0.0723,0.18945 -1.11133,-0.30664 -5.4707,17.66602 -2.73437,6.78906 c 0,0 -12.29331,-0.85643 -20.1543,0.0156 l -3.1875,-8.40821 z m 13.30859,42.05664 0.006,0.0156 -0.0254,0.14453 z m 5.2168,98.44922 0.0156,0.0469 -0.0137,0.0449 -0.0156,-0.0488 z m 0.84179,61.05859 -0.16015,0.70117 -0.0156,0.0195 z"
           transform="matrix(2.0614543,0,0,2.0839349,-1550.3375,-1205.9471)"
           id="path5012-1"
           inkscape:connector-curvature="0"
           sodipodi:nodetypes="cccccccccccccccccccccccccccccccccccccccccccccccccccccccccccccccccccccccccccccccccccccccccccccccccccccc" />
      </g>
      <text
         transform="scale(0.9945916,1.0054378)"
         id="text5447"
         y="468.9295"
         x="208.48042"
         style="font-style:normal;font-weight:normal;font-size:216.16220093px;line-height:1.25;font-family:sans-serif;letter-spacing:0px;word-spacing:0px;fill:#fffdfd;fill-opacity:1;stroke:none;stroke-width:5.40405512"
         xml:space="preserve"><tspan
           style="font-style:normal;font-variant:normal;font-weight:bold;font-stretch:normal;font-family:'Roboto Condensed';-inkscape-font-specification:'Roboto Condensed, ';fill:#fffdfd;fill-opacity:1;stroke-width:5.40405512"
           y="468.9295"
           x="208.48042"
           id="tspan5445"
           sodipodi:role="line">MLU</tspan></text>
    </g>
  </g>
</svg>
