<svg xmlns="http://www.w3.org/2000/svg" width="52.797" height="67.604" viewBox="0 0 13.969 17.887"><g letter-spacing="0" word-spacing="0"><g stroke-width="3.936"><path d="M.473.029A.662.662 0 000 .665v8.128c0 .36.3.66.66.66.36 0 .66-.3.66-.66V2.817l2.445 3.648a.667.667 0 00.554.292.651.651 0 00.54-.291v-.001l2.46-3.65v5.978c0 .36.3.66.659.66.093 0 .187.024.336-.022a.407.407 0 00.218-.167.484.484 0 00.064-.256L8.638.666a.66.66 0 00-1.214-.37L4.318 4.917 1.208.308a.634.634 0 00-.735-.28z" style="line-height:1.25;-inkscape-font-specification:'Moon 2.0 Bold';font-variant-ligatures:normal;font-variant-position:normal;font-variant-caps:normal;font-variant-numeric:normal;font-variant-alternates:normal;font-feature-settings:normal;text-indent:0;text-align:start;text-decoration-line:none;text-decoration-style:solid;text-decoration-color:#000;text-transform:none;text-orientation:mixed;white-space:normal;shape-padding:0;isolation:auto;mix-blend-mode:normal;solid-color:#000;solid-opacity:1" color="#000" font-weight="700" font-family="Moon 2.0" overflow="visible"/><path d="M6.976 17.887c-3.842 0-6.97-3.036-6.97-6.79V1.773c0-.43.346-.765.764-.765.443 0 .788.335.788.765v9.324c0 2.917 2.438 5.26 5.418 5.26 3.004 0 5.417-2.343 5.417-5.26V1.773c0-.43.345-.765.788-.765.444 0 .788.335.788.765v9.324c0 3.754-3.127 6.79-6.993 6.79z" style="line-height:1.25;-inkscape-font-specification:'Moon 2.0 Bold'" font-weight="700" font-family="Moon 2.0"/><path style="line-height:1.25;-inkscape-font-specification:'Ubuntu Condensed, Bold';font-variant-ligatures:normal;font-variant-position:normal;font-variant-caps:normal;font-variant-numeric:normal;font-variant-alternates:normal;font-feature-settings:normal;text-indent:0;text-align:start;text-decoration-line:none;text-decoration-style:solid;text-decoration-color:#000;text-transform:none;text-orientation:mixed;white-space:normal;shape-padding:0;isolation:auto;mix-blend-mode:normal;solid-color:#000;solid-opacity:1" d="M7.389 8.116a3.422 3.422 0 00-1.068-.234c-.35-.015-.689.028-1.008.133-.31.109-.6.275-.854.494a.292.268 0 00-.003.006 2.606 2.606 0 00-.61.842 2.4 2.4 0 00-.12 1.796.292.268 0 00.003.01c.091.253.21.49.357.713.136.206.266.402.393.588.108.159.211.309.312.465.09.14.162.283.208.424a.292.268 0 00.001.015c.051.14.076.28.077.43 0 .135-.032.282-.109.448-.146.316-.336.494-.592.589a.292.268 0 00-.01.003c-.241.094-.518.086-.888-.059a2.43 2.43 0 01-.628-.342l.047.046c-.206-.257-.46-.412-.72-.456a.782.782 0 00-.689.201.672.672 0 00-.15.671c.074.239.265.473.566.676.003.003.01.003.013.005.27.206.598.387.987.54.431.167.843.26 1.234.27a.292.268 0 00.003-.006c.39.004.75-.05 1.074-.178.329-.128.619-.32.856-.563.231-.237.418-.509.558-.813.154-.332.233-.648.235-.953a2.18 2.18 0 00-.116-.823 2.87 2.87 0 00-.318-.7c-.13-.205-.262-.398-.395-.58-.128-.176-.246-.345-.362-.506l-.007-.003a2.358 2.358 0 01-.238-.443 1.516 1.516 0 01-.083-.432c0-.134.034-.287.114-.46.147-.319.327-.474.549-.544.248-.078.51-.068.841.062.177.069.33.153.462.257a.73.73 0 00.561.205.712.712 0 00.468-.253c.223-.26.262-.679-.019-1.016a.292.268 0 00-.047-.047 3.674 3.674 0 00-.886-.478z" color="#000" font-weight="400" font-family="Ubuntu Condensed" overflow="visible"/><path style="line-height:1.25;-inkscape-font-specification:'Moon 2.0 Bold';font-variant-ligatures:normal;font-variant-position:normal;font-variant-caps:normal;font-variant-numeric:normal;font-variant-alternates:normal;font-feature-settings:normal;text-indent:0;text-align:start;text-decoration-line:none;text-decoration-style:solid;text-decoration-color:#000;text-transform:none;text-orientation:mixed;white-space:normal;shape-padding:0;isolation:auto;mix-blend-mode:normal;solid-color:#000;solid-opacity:1" d="M8.068.886c-.449 0-.825.371-.825.802l-.009 7.577c0 .431.38.806.828.806l5.062.002c.45 0 .824-.355.825-.802 0-.33-.227-.556-.516-.681a.44.426 2.842 00-.312-.124L8.89 8.464l.001-2.371 1.291.002c.45 0 .826-.356.827-.803 0-.448-.38-.793-.83-.793H8.894l.002-2.017 4.235.002c.45 0 .827-.342.827-.79 0-.447-.378-.805-.827-.806z" color="#000" font-weight="700" font-family="Moon 2.0" overflow="visible"/><path style="line-height:1.25;-inkscape-font-specification:'Moon 2.0 Bold';font-variant-ligatures:normal;font-variant-position:normal;font-variant-caps:normal;font-variant-numeric:normal;font-variant-alternates:normal;font-feature-settings:normal;text-indent:0;text-align:start;text-decoration-line:none;text-decoration-style:solid;text-decoration-color:#000;text-transform:none;text-orientation:mixed;white-space:normal;shape-padding:0;isolation:auto;mix-blend-mode:normal;solid-color:#000;solid-opacity:1" d="M8.122 1.738h.04a.44.426 2.842 00-.04.04zM8.118 5.202a.44.426 2.842 00.12.092.44.426 2.842 00-.12.094zM8.115 9.167a.44.426 2.842 00.056.052h-.056z" color="#000" font-weight="700" font-family="Moon 2.0" overflow="visible"/></g></g></svg>