<svg xmlns="http://www.w3.org/2000/svg" width="323.7" height="107"><rect width="21.2" height="106.6" y=".4" ry="12.1" rx="19.4"/><rect width="21.2" height="106.6" x="36.3" y=".4" ry="12.1" rx="19.4"/><rect width="21.2" height="106.6" x="72.5" y=".4" ry="12.1" rx="19.4"/><rect width="21.2" height="57.4" x=".4" y="-57.5" ry="12.1" rx="19.4" transform="rotate(90)"/><rect width="21.2" height="57.4" x=".4" y="-93.7" ry="12.1" rx="19.4" transform="rotate(90)"/><rect rx="19.4" ry="12.1" x="112.6" height="106.6" width="21.2"/><rect rx="19.4" ry="12.1" x="148.8" height="106.6" width="21.2"/><rect transform="rotate(90)" rx="19.4" ry="12.1" y="-170" x="85.5" height="57.4" width="21.2"/><rect width="21.2" height="52.7" x="185.1" ry="12.1" rx="19.4"/><rect width="21.2" height="57.8" x="31.5" y="-242.9" ry="12.1" rx="19.4" transform="rotate(90)"/><rect width="21.2" height="74.6" x="222" y="31.6" ry="12.1" rx="19.4"/><rect width="21.2" height="59.5" x="85.5" y="-242.8" ry="12.1" rx="19.4" transform="rotate(90)"/><rect width="21.2" height="62.5" y="-247.6" ry="12.1" rx="19.4" transform="rotate(90)"/><rect width="21.2" height="52.2" x="33.8" y="-312" ry="12.1" rx="19.4" transform="rotate(90)"/><rect width="21.2" height="64.1" y="-323.7" ry="12.1" rx="19.4" transform="rotate(90)"/><rect width="21.2" height="106.6" x="259.6" ry="12.1" rx="19.4"/><rect width="21.2" height="64.1" x="85.5" y="-323.7" ry="12.1" rx="19.4" transform="rotate(90)"/></svg>