<svg xmlns="http://www.w3.org/2000/svg" viewBox="0 0 176.7 100.7">
  <path fill="#fff" stroke="#292929" stroke-width="6.6" d="M3.3 3.3h170.1v94.1H3.3z"/>
  <path fill="#292929" d="M41.2 33L48 59.4h.2l6.4-26.7h9.2L64 69h-7l-.2-10.5.5-14-.1-.1L50.5 69h-4.7l-7-24.4h-.2l.7 14 .1 10.5h-7L32 33zm52-.5l.2 24.7q0 5.8-3.4 9-3.3 3.1-8.8 3.2-5.5 0-9-3.1-3.4-3.2-3.4-9l-.2-24.6h7l.3 24.6q0 3.3 1.4 4.9 1.4 1.5 3.8 1.5 2.6 0 4-1.5 1.3-1.5 1.2-5l-.2-24.6zm21.4 26.6q0-2-1.2-3.3-1-1.2-3.8-2.4-5.7-2-8.6-4.4-2.8-2.5-2.8-7 0-4.4 3.2-7.3 3.3-2.8 8.4-2.8 5.1 0 8.4 3 3.3 3.1 3.2 7.9v.1h-7q0-2.4-1.2-4-1.3-1.5-3.5-1.5-2.1 0-3.3 1.4-1.2 1.2-1.2 3.2 0 1.8 1.4 3 1.3 1 4.6 2.5 5.1 1.7 7.7 4.3 2.7 2.7 2.7 7.2 0 4.7-3 7.4-3.2 2.7-8.4 2.7-5.1 0-9-2.9-3.8-3-3.7-8.7v-.1h7q0 3.3 1.4 4.8 1.4 1.4 4.3 1.4 2.2 0 3.3-1.2 1-1.2 1-3.3zm30.6-6.7l-12.1.1v10.3l14.3-.1v5.6l-21.3.2-.3-36.2 21.4-.2v5.7h-14.3l.1 9h12.2z"/>
</svg>
