<svg xmlns="http://www.w3.org/2000/svg" viewBox="0 0 382.682 138.256" height="522.541" width="1446.355"><g transform="translate(264.49 -543.876)"><path d="M-227.2 670.318c-.539.041 47.364-193.257 63.228-101.933 14.292 82.273 49.057 4.253 49.057 4.253s16.76-39.334 24.363 20.08l5.831 75.517-119.463 2.253zm-8.502-109.845h3.138V670.65h-3.138z" fill="#2f5e5d"/><path d="M-230.506 561.352l-3.627-.021-3.628-.022 1.83-3.478 1.831-3.477 1.797 3.499z" fill="#2f5e5d"/><text y="597.542" x="-265.567" style="line-height:1.25;-inkscape-font-specification:'sans-serif Bold'" font-weight="700" font-size="11.739" font-family="sans-serif" letter-spacing="0" word-spacing="0" fill="#2f5e5d" stroke-width=".293"><tspan style="-inkscape-font-specification:'sans-serif Bold'" y="597.542" x="-265.567">P(X)</tspan></text><text style="line-height:1.25;-inkscape-font-specification:'sans-serif Bold'" x="-177.107" y="682.131" font-weight="700" font-size="11.739" font-family="sans-serif" letter-spacing="0" word-spacing="0" fill="#2f5e5d" stroke-width=".293"><tspan x="-177.107" y="682.131" style="-inkscape-font-specification:'sans-serif Bold'">X</tspan></text><text y="651.112" x="-185.075" style="line-height:1.25;-inkscape-font-specification:'Ubuntu Condensed, Bold'" font-weight="700" font-size="41.35" font-family="Ubuntu Condensed" letter-spacing="0" word-spacing="0" fill="#fff" stroke-width="1.034"><tspan style="-inkscape-font-specification:'sans-serif Bold'" y="651.112" x="-185.075" font-family="sans-serif">D</tspan></text><path fill="#2f5e5d" d="M-76.17 667.512v3.138h-159.533v-3.138z"/><path d="M-78.237 665.052l.02 4.029.019 4.028 3.131-2.033 3.132-2.033-3.151-1.995z" fill="#2f5e5d"/><path d="M-18.491 568.838c-15.527-3.696-58.238 13.389-79.599 28.552-21.36 15.163-39.127 30.488-39.127 30.488s73.118 38.75 106.586 38.873l11.862.044" opacity=".388" fill="#4e9d9b"/><text style="line-height:1.05;-inkscape-font-specification:'Ubuntu Condensed, Bold';text-align:center" x="-64.03" y="605.206" font-weight="700" font-size="9.878" font-family="Ubuntu Condensed" letter-spacing="0" word-spacing="0" text-anchor="middle" fill="#fff" stroke-width=".793"><tspan x="-64.03" y="605.206" style="-inkscape-font-specification:'sans-serif Bold';text-align:center" font-family="sans-serif">training</tspan><tspan x="-64.03" y="616.049" style="-inkscape-font-specification:'sans-serif Bold';text-align:center" font-family="sans-serif">data</tspan></text><rect width="8.09" height="8.09" x="-46.962" y="623.633" ry="1.224" rx="1.224" fill="#2f5e5d"/><rect ry="1.224" y="623.539" x="-87.156" height="8.09" width="8.09" rx="1.224" fill="#2f5e5d"/><rect ry="1.224" y="623.539" x="-77.654" height="8.09" width="8.09" rx="1.224" fill="#2f5e5d"/><rect ry="1.224" y="623.539" x="-68.153" height="8.09" width="8.09" rx="1.224" fill="#2f5e5d"/><g transform="translate(-159.799 -314.57) scale(1.36167)" fill="#2f5e5d"><circle r=".715" cy="693.665" cx="76.41"/><circle cx="78.216" cy="693.665" r=".715"/><circle cx="80.021" cy="693.665" r=".715"/></g><text y="629.565" x="-75.445" style="line-height:1.25;-inkscape-font-specification:'sans-serif Bold'" font-weight="700" font-size="5.339" font-family="sans-serif" letter-spacing="0" word-spacing="0" fill="#fff" stroke-width=".154"><tspan style="-inkscape-font-specification:'sans-serif Bold'" y="629.565" x="-75.445">0</tspan></text><text style="line-height:1.25;-inkscape-font-specification:'sans-serif Bold'" x="-85.085" y="629.53" font-weight="700" font-size="5.339" font-family="sans-serif" letter-spacing="0" word-spacing="0" fill="#fff" stroke-width=".154"><tspan x="-85.085" y="629.53" style="-inkscape-font-specification:'sans-serif Bold'">1</tspan></text><text y="629.527" x="-65.931" style="line-height:1.25;-inkscape-font-specification:'sans-serif Bold'" font-weight="700" font-size="5.339" font-family="sans-serif" letter-spacing="0" word-spacing="0" fill="#fff" stroke-width=".154"><tspan style="-inkscape-font-specification:'sans-serif Bold'" y="629.527" x="-65.931">1</tspan></text><text style="line-height:1.25;-inkscape-font-specification:'sans-serif Bold'" x="-44.774" y="629.621" font-weight="700" font-size="5.339" font-family="sans-serif" letter-spacing="0" word-spacing="0" fill="#fff" stroke-width=".154"><tspan x="-44.774" y="629.621" style="-inkscape-font-specification:'sans-serif Bold'">0</tspan></text><g transform="matrix(1.0332 0 0 1 3.37 0)" fill="#fff"><rect rx="0" ry="0" y="620.296" x="-85.56" height="1.089" width="41.76"/><rect width="2.276" height="1.089" x="-623.158" y="-85.56" ry="0" rx="0" transform="rotate(-90)"/><rect transform="rotate(-90)" rx="0" ry="0" y="-44.894" x="-623.158" height="1.089" width="2.276"/><rect width="2.276" height="1.089" x="-620.415" y="-65.319" ry="0" rx="0" transform="rotate(-90)"/></g><path fill="#e5650e" d="M-18.749 609.426h-11.896V597.53h11.896z"/><path d="M-25.473 603.188c16.133 14.688 37.486 17.019 40.727 42.335l88.645 2.118 14.293-68.204c-64.154-23.316-99.466-16.295-143.665 23.75z" fill="#f9aa8d" fill-opacity=".5"/><g stroke-width=".525" font-weight="700" font-size="15.785" font-family="sans-serif" letter-spacing="0" word-spacing="0"><text y="646.654" x="75.946" style="line-height:1.25;-inkscape-font-specification:'sans-serif Bold'" fill="#e5650e" transform="translate(14.888 143.763) scale(.75226)"><tspan style="-inkscape-font-specification:'sans-serif Bold'" y="646.654" x="75.946">1</tspan></text><text style="line-height:1.25;-inkscape-font-specification:'sans-serif Bold'" x="87.012" y="646.909" fill="#2f5e5d" transform="translate(14.888 143.763) scale(.75226)"><tspan x="87.012" y="646.909" style="-inkscape-font-specification:'sans-serif Bold'">/4</tspan></text></g><path fill="#4e9d9b" d="M-18.749 580.741h-11.896v-11.896h11.896zm0 43.028h-11.896v-11.896h11.896zm0 14.342h-11.896v-11.896h11.896zm0 14.343h-11.896v-11.896h11.896zm0 14.343h-11.896v-11.896h11.896zm0-71.713h-11.896v-11.896h11.896z"/><text y="630.078" x="56.727" style="line-height:1.25;-inkscape-font-specification:'sans-serif Bold'" font-weight="700" font-size="11.874" font-family="sans-serif" letter-spacing="0" word-spacing="0" fill="#363636" stroke-width=".395"><tspan style="-inkscape-font-specification:'sans-serif Bold'" y="630.078" x="56.727">≥</tspan></text><g stroke-width="1.329"><path d="M15.56 618.549c-.146.012 12.451-49.032 17.226-23.128 2.915 15.815 12.446.717 12.446.717s5.287-10.725 7.336 6.225l1.991 16.177z" fill="#2f5e5d"/><path d="M21.838 598.495c-3.837 9.193-6.35 20.066-6.278 20.058l6.309-.005z" fill="#e5650e"/></g><circle cx="81.754" cy="601.265" r="13.252" fill="#2f5e5d"/><path d="M68.458 601.305a13.252 13.252 0 003.881 9.37l9.371-9.37z" fill="#e5650e"/><path d="M61.424 602.907l.009 1.675h-3.269v2.09h3.28l.008 1.78 1.387-1.407 1.386-1.407-1.4-1.365z" fill="#e5490e"/><text y="629.897" x="26.878" style="line-height:1.25;-inkscape-font-specification:'Ubuntu Condensed, Bold'" font-weight="700" font-size="9.738" font-family="Ubuntu Condensed" letter-spacing="0" word-spacing="0" fill="#e5650e" stroke-width=".471"><tspan style="-inkscape-font-specification:'sans-serif Bold'" y="629.897" x="26.878" font-family="sans-serif">loss</tspan></text><text style="line-height:1.25;-inkscape-font-specification:'sans-serif Bold'" x="-35.592" y="679.626" font-weight="700" font-size="11.739" font-family="sans-serif" letter-spacing="0" word-spacing="0" fill="#305f5e" stroke-width=".293"><tspan x="-35.592" y="679.626" style="-inkscape-font-specification:'sans-serif Bold'"><tspan fill="#e8490d">1</tspan>/<tspan fill="#4d9d9a">7</tspan></tspan></text></g></svg>