<svg xmlns="http://www.w3.org/2000/svg" viewBox="0 0 382.7 138.3" height="522.5" width="1446.4"><g transform="translate(264.5 -543.9)"><path d="M-227.2 670.3c-.5 0 47.4-193.2 63.2-102 14.3 82.4 49 4.3 49 4.3s16.8-39.3 24.4 20.1l5.9 75.5-119.5 2.3zm-8.5-109.8h3.1v110.1h-3.1z" fill="#2f5e5d"/><path d="M-230.5 561.4h-7.3l1.9-3.6 1.8-3.4 1.8 3.5z" fill="#2f5e5d"/><text y="597.5" x="-265.6" style="line-height:1.25;-inkscape-font-specification:'sans-serif Bold'" font-weight="700" font-size="11.7" font-family="sans-serif" letter-spacing="0" word-spacing="0" fill="#2f5e5d" stroke-width=".3"><tspan style="-inkscape-font-specification:'sans-serif Bold'" y="597.5" x="-265.6">P(X)</tspan></text><text style="line-height:1.25;-inkscape-font-specification:'sans-serif Bold'" x="-177.1" y="682.1" font-weight="700" font-size="11.7" font-family="sans-serif" letter-spacing="0" word-spacing="0" fill="#2f5e5d" stroke-width=".3"><tspan x="-177.1" y="682.1" style="-inkscape-font-specification:'sans-serif Bold'">X</tspan></text><text y="651.1" x="-185.1" style="line-height:1.25;-inkscape-font-specification:'Ubuntu Condensed, Bold'" font-weight="700" font-size="41.4" font-family="Ubuntu Condensed" letter-spacing="0" word-spacing="0" fill="#fff"><tspan style="-inkscape-font-specification:'sans-serif Bold'" y="651.1" x="-185.1" font-family="sans-serif">D</tspan></text><path fill="#2f5e5d" d="M-76.2 667.5v3.1h-159.5v-3z"/><path d="M-78.2 665v8.1l3.1-2 3.2-2-3.2-2z" fill="#2f5e5d"/><path d="M-18.5 568.8c-15.5-3.7-58.2 13.4-79.6 28.6-21.4 15.2-39.1 30.5-39.1 30.5s73.1 38.7 106.6 38.9h11.8" opacity=".4" fill="#4e9d9b"/><text style="line-height:1.05;-inkscape-font-specification:'Ubuntu Condensed, Bold';text-align:center" x="-64" y="605.2" font-weight="700" font-size="9.9" font-family="Ubuntu Condensed" letter-spacing="0" word-spacing="0" text-anchor="middle" fill="#fff" stroke-width=".8"><tspan x="-64" y="605.2" style="-inkscape-font-specification:'sans-serif Bold';text-align:center" font-family="sans-serif">training</tspan><tspan x="-64" y="616" style="-inkscape-font-specification:'sans-serif Bold';text-align:center" font-family="sans-serif">data</tspan></text><rect width="8.1" height="8.1" x="-47" y="623.6" ry="1.2" rx="1.2" fill="#2f5e5d"/><rect ry="1.2" y="623.5" x="-87.2" height="8.1" width="8.1" rx="1.2" fill="#2f5e5d"/><rect ry="1.2" y="623.5" x="-77.7" height="8.1" width="8.1" rx="1.2" fill="#2f5e5d"/><rect ry="1.2" y="623.5" x="-68.2" height="8.1" width="8.1" rx="1.2" fill="#2f5e5d"/><g transform="translate(-159.8 -314.6) scale(1.36167)" fill="#2f5e5d"><circle r=".7" cy="693.7" cx="76.4"/><circle cx="78.2" cy="693.7" r=".7"/><circle cx="80" cy="693.7" r=".7"/></g><text y="629.6" x="-75.4" style="line-height:1.25;-inkscape-font-specification:'sans-serif Bold'" font-weight="700" font-size="5.3" font-family="sans-serif" letter-spacing="0" word-spacing="0" fill="#fff" stroke-width=".2"><tspan style="-inkscape-font-specification:'sans-serif Bold'" y="629.6" x="-75.4">0</tspan></text><text style="line-height:1.25;-inkscape-font-specification:'sans-serif Bold'" x="-85.1" y="629.5" font-weight="700" font-size="5.3" font-family="sans-serif" letter-spacing="0" word-spacing="0" fill="#fff" stroke-width=".2"><tspan x="-85.1" y="629.5" style="-inkscape-font-specification:'sans-serif Bold'">1</tspan></text><text y="629.5" x="-65.9" style="line-height:1.25;-inkscape-font-specification:'sans-serif Bold'" font-weight="700" font-size="5.3" font-family="sans-serif" letter-spacing="0" word-spacing="0" fill="#fff" stroke-width=".2"><tspan style="-inkscape-font-specification:'sans-serif Bold'" y="629.5" x="-65.9">1</tspan></text><text style="line-height:1.25;-inkscape-font-specification:'sans-serif Bold'" x="-44.8" y="629.6" font-weight="700" font-size="5.3" font-family="sans-serif" letter-spacing="0" word-spacing="0" fill="#fff" stroke-width=".2"><tspan x="-44.8" y="629.6" style="-inkscape-font-specification:'sans-serif Bold'">0</tspan></text><g transform="matrix(1.0332 0 0 1 3.4 0)" fill="#fff"><rect rx="0" ry="0" y="620.3" x="-85.6" height="1.1" width="41.8"/><rect width="2.3" height="1.1" x="-623.2" y="-85.6" ry="0" rx="0" transform="rotate(-90)"/><rect transform="rotate(-90)" rx="0" ry="0" y="-44.9" x="-623.2" height="1.1" width="2.3"/><rect width="2.3" height="1.1" x="-620.4" y="-65.3" ry="0" rx="0" transform="rotate(-90)"/></g><path fill="#e5650e" d="M-18.7 609.4h-12v-11.9h12z"/><path d="M-25.5 603.2c16.2 14.7 37.5 17 40.8 42.3l88.6 2.1 14.3-68.2C54 556.1 18.7 563.1-25.5 603.2z" fill="#f9aa8d" fill-opacity=".5"/><g stroke-width=".5" font-weight="700" font-size="15.8" font-family="sans-serif" letter-spacing="0" word-spacing="0"><text y="646.7" x="75.9" style="line-height:1.25;-inkscape-font-specification:'sans-serif Bold'" fill="#e5650e" transform="translate(14.9 143.8) scale(.75226)"><tspan style="-inkscape-font-specification:'sans-serif Bold'" y="646.7" x="75.9">1</tspan></text><text style="line-height:1.25;-inkscape-font-specification:'sans-serif Bold'" x="87" y="646.9" fill="#2f5e5d" transform="translate(14.9 143.8) scale(.75226)"><tspan x="87" y="646.9" style="-inkscape-font-specification:'sans-serif Bold'">/4</tspan></text></g><path fill="#4e9d9b" d="M-18.7 580.7h-12v-11.9h12zm0 43h-12V612h12zm0 14.4h-12v-11.9h12zm0 14.4h-12v-12h12zm0 14.3h-12v-11.9h12zm0-71.7h-12v-12h12z"/><text y="630.1" x="56.7" style="line-height:1.25;-inkscape-font-specification:'sans-serif Bold'" font-weight="700" font-size="11.9" font-family="sans-serif" letter-spacing="0" word-spacing="0" fill="#363636" stroke-width=".4"><tspan style="-inkscape-font-specification:'sans-serif Bold'" y="630.1" x="56.7">≥</tspan></text><g stroke-width="1.3"><path d="M15.6 618.5c-.2 0 12.4-49 17.2-23 2.9 15.7 12.4.6 12.4.6s5.3-10.7 7.4 6.3l2 16.1z" fill="#2f5e5d"/><path d="M21.8 598.5c-3.8 9.2-6.3 20-6.2 20h6.3z" fill="#e5650e"/></g><circle cx="81.8" cy="601.3" r="13.3" fill="#2f5e5d"/><path d="M68.5 601.3a13.3 13.3 0 003.8 9.4l9.4-9.4z" fill="#e5650e"/><path d="M61.4 603v1.6h-3.2v2h3.2v1.9l1.4-1.5 1.4-1.4-1.4-1.3z" fill="#e5490e"/><text y="629.9" x="26.9" style="line-height:1.25;-inkscape-font-specification:'Ubuntu Condensed, Bold'" font-weight="700" font-size="9.7" font-family="Ubuntu Condensed" letter-spacing="0" word-spacing="0" fill="#e5650e" stroke-width=".5"><tspan style="-inkscape-font-specification:'sans-serif Bold'" y="629.9" x="26.9" font-family="sans-serif">loss</tspan></text><text style="line-height:1.25;-inkscape-font-specification:'sans-serif Bold'" x="-35.6" y="679.6" font-weight="700" font-size="11.7" font-family="sans-serif" letter-spacing="0" word-spacing="0" fill="#305f5e" stroke-width=".3"><tspan x="-35.6" y="679.6" style="-inkscape-font-specification:'sans-serif Bold'"><tspan fill="#e8490d">1</tspan>/<tspan fill="#4d9d9a">7</tspan></tspan></text></g></svg>