<svg xmlns="http://www.w3.org/2000/svg" width="638.747" height="130.734" viewBox="0 0 169.002 34.59"><g transform="translate(155.56 -34.776)"><rect ry="0" y="35.683" x="-123.659" height="7.91" width="7.91" fill="#2f5e5d"/><text style="line-height:1.25;-inkscape-font-specification:'Ubuntu Condensed, Bold'" x="-123.234" y="41.73" font-weight="700" font-size="6.717" letter-spacing="0" word-spacing="0" font-family="Ubuntu Condensed" fill="#fff" stroke-width=".345"><tspan x="-123.234" y="41.73" style="-inkscape-font-specification:'sans-serif Bold'" font-family="sans-serif" stroke-width=".316">D</tspan></text><text y="42.811" x="-118.069" style="line-height:1.25;-inkscape-font-specification:'sans-serif Bold'" font-weight="700" font-size="2.73" letter-spacing="0" word-spacing="0" font-family="sans-serif" fill="#fff" stroke-width=".14"><tspan style="-inkscape-font-specification:'sans-serif Bold'" y="42.811" x="-118.069">1</tspan></text><rect rx="0" width="7.835" height="7.835" x="-123.617" y="60.06" ry="0" fill="#2f5e5d"/><g font-weight="700" letter-spacing="0" word-spacing="0" fill="#fff" stroke-width="1.902"><text style="line-height:1.25;-inkscape-font-specification:'Ubuntu Condensed, Bold'" x="-119.77" y="833.104" font-size="13.818" font-family="Ubuntu Condensed" stroke-width=".717" transform="matrix(.48146 0 0 .48146 -65.76 -335.086)"><tspan x="-119.77" y="833.104" style="-inkscape-font-specification:'sans-serif Bold'" font-family="sans-serif" stroke-width=".656">D</tspan></text><text y="835.329" x="-109.143" style="line-height:1.25;-inkscape-font-specification:'sans-serif Bold'" font-size="5.617" font-family="sans-serif" stroke-width=".291" transform="matrix(.48146 0 0 .48146 -65.76 -335.086)"><tspan style="-inkscape-font-specification:'sans-serif Bold'" y="835.329" x="-109.143">T</tspan></text></g><path d="M-123.659 43.594h7.876v6.375h-7.876z" opacity=".5" fill="#2f5e5d"/><path d="M-123.659 48.703h7.876v6.376h-7.876z" opacity=".5" fill="#2f5e5d"/><path d="M-123.659 53.813h7.876v6.376h-7.876z" opacity=".5" fill="#2f5e5d"/><text word-spacing="0" letter-spacing="0" font-size="11.572" font-weight="700" style="line-height:1.25;-inkscape-font-specification:'sans-serif Bold'" x="-113.523" y="43.797" font-family="sans-serif" fill="#363636" stroke-width=".395"><tspan x="-113.523" y="43.797" style="-inkscape-font-specification:'sans-serif Bold'">A(</tspan></text><text word-spacing="0" letter-spacing="0" font-size="11.572" font-weight="700" y="43.797" x="-85.616" style="line-height:1.25;-inkscape-font-specification:'sans-serif Bold'" font-family="sans-serif" fill="#363636" stroke-width=".395"><tspan style="-inkscape-font-specification:'sans-serif Bold'" y="43.797" x="-85.616">)</tspan></text><path d="M-72.687 35.428h9.483v9.482h-9.483z" fill="#99039e"/><text word-spacing="0" letter-spacing="0" font-size="6.66" font-weight="700" y="42.699" x="-70.336" style="line-height:1.25;-inkscape-font-specification:'sans-serif Bold'" font-family="sans-serif" fill="#fff" stroke-width=".227"><tspan style="-inkscape-font-specification:'sans-serif Bold'" y="42.699" x="-70.336">h</tspan></text><g fill="#363636" stroke-width="1.364"><path d="M-75.764 38.933v2.3h-4.485v-2.3z"/><path d="M-76.813 37.13l.01 2.954.01 2.953 1.59-1.49 1.589-1.491-1.6-1.463z"/></g><path d="M-98.161 34.776h11.038v10.63H-98.16z" fill="#dca900"/><text y="43.384" x="-94.442" style="line-height:1.25;-inkscape-font-specification:'sans-serif Bold'" font-size="9.289" transform="scale(1.01901 .98134)" font-weight="700" font-family="sans-serif" letter-spacing="0" word-spacing="0" fill="#fff" stroke-width=".293"><tspan style="-inkscape-font-specification:'sans-serif Bold'" y="43.384" x="-94.442">s</tspan></text><text font-size="3.941" y="43.659" x="-79.187" style="line-height:1.25;-inkscape-font-specification:'sans-serif Bold'" transform="scale(1.1491 .87024)" font-weight="700" font-family="sans-serif" letter-spacing="0" word-spacing="0" fill="#fff" stroke-width=".14"><tspan style="-inkscape-font-specification:'sans-serif Bold'" y="43.659" x="-79.187">1</tspan></text><path d="M-127.927 38.617h-1.57v25.885h1.57z" fill="#1d76ce"/><text transform="scale(1.00046 .99954)" style="line-height:1.25;-inkscape-font-specification:'sans-serif Bold'" x="-91.157" y="44.525" font-size="3.431" font-weight="700" font-family="sans-serif" letter-spacing="0" word-spacing="0" fill="#fff"><tspan x="-91.157" y="44.525" style="-inkscape-font-specification:'sans-serif Bold'" stroke-width=".14">j</tspan></text><rect rx="0" ry="0" y="35.431" x="-52.188" height="9.685" width="2.165" fill="#2f5e5d"/><rect width="2.165" height="9.685" x="-49.212" y="35.431" ry="0" rx="0" fill="#2f5e5d"/><rect width="2.165" height="9.685" x="-43.567" y="35.431" ry="0" rx="0" fill="#2f5e5d"/><rect width="4.988" height="9.685" x="-37.241" y="35.431" ry="0" rx="0" fill="#e5650e"/><rect width="2.165" height="9.685" x="-28.133" y="35.431" ry="0" rx="0" fill="#2f5e5d"/><path d="M-52.188 43.595h26.204v2.061h-26.204z" fill="#2f5e5d"/><g fill="#363636" stroke-width="1.651"><path d="M-56.763 38.987v2.3h-4.486v-2.3z"/><path d="M-57.813 37.185l.01 2.953.01 2.952 1.589-1.49 1.59-1.49-1.6-1.463z"/></g><path d="M-133.763 38.617v1.272h4.266v-1.272zM-133.763 63.166v1.336h4.266v-1.336zM-129.042 51.001v1.58h3.547v-1.58z" fill="#1d76ce"/><path fill="#2f5e5d" d="M-52.187 49.344h26.105v1.53h-26.105zM-52.187 52.158h26.105v1.53h-26.105z"/><g fill="#dca900"><path d="M-98.117 48.816h10.95v1.53h-10.95zM-98.117 51.629h10.95v1.53h-10.95zM-98.117 54.442h10.95v1.53h-10.95z"/></g><path fill="#2f5e5d" d="M-52.187 54.971h26.105v1.53h-26.105z"/><g fill="#99039e"><path d="M-72.532 48.935h9.596v1.53h-9.596zM-72.532 51.749h9.596v1.53h-9.596zM-72.532 54.562h9.596v1.53h-9.596z"/></g><path fill="#e5650e" d="M-52.187 49.344h6.103v1.53h-6.103zM-41.899 52.158h8.135v1.53h-8.135zM-50.084 54.971h2.657v1.53h-2.657zM-38.129 54.971h3.968v1.53h-3.968z"/><text y="67.756" x="-113.517" style="line-height:1.25;-inkscape-font-specification:'sans-serif Bold'" font-weight="700" font-size="11.572" letter-spacing="0" word-spacing="0" font-family="sans-serif" fill="#363636" stroke-width=".395"><tspan style="-inkscape-font-specification:'sans-serif Bold'" y="67.756" x="-113.517">A(</tspan></text><text style="line-height:1.25;-inkscape-font-specification:'sans-serif Bold'" x="-85.61" y="67.756" font-weight="700" font-size="11.572" letter-spacing="0" word-spacing="0" font-family="sans-serif" fill="#363636" stroke-width=".395"><tspan x="-85.61" y="67.756" style="-inkscape-font-specification:'sans-serif Bold'">)</tspan></text><path d="M-72.68 59.387h9.482v9.483h-9.483z" fill="#99039e"/><text style="line-height:1.25;-inkscape-font-specification:'sans-serif Bold'" x="-70.329" y="66.659" font-weight="700" font-size="6.66" letter-spacing="0" word-spacing="0" font-family="sans-serif" fill="#fff" stroke-width=".227"><tspan x="-70.329" y="66.659" style="-inkscape-font-specification:'sans-serif Bold'">h</tspan></text><g fill="#363636" stroke-width="1.364"><path d="M-75.757 62.893v2.3h-4.485v-2.3z"/><path d="M-76.807 61.09l.01 2.953.01 2.953 1.59-1.49 1.589-1.49-1.6-1.463z"/></g><path d="M-98.155 58.736h11.038v10.63h-11.038z" fill="#dca900"/><text font-size="9.289" style="line-height:1.25;-inkscape-font-specification:'sans-serif Bold'" x="-94.436" y="67.799" transform="scale(1.01901 .98134)" font-weight="700" font-family="sans-serif" letter-spacing="0" word-spacing="0" fill="#fff" stroke-width=".293"><tspan x="-94.436" y="67.799" style="-inkscape-font-specification:'sans-serif Bold'">s</tspan></text><text transform="scale(1.1491 .87024)" style="line-height:1.25;-inkscape-font-specification:'sans-serif Bold'" x="-79.181" y="71.191" font-size="3.941" font-weight="700" font-family="sans-serif" letter-spacing="0" word-spacing="0" fill="#fff" stroke-width=".14"><tspan x="-79.181" y="71.191" style="-inkscape-font-specification:'sans-serif Bold'">T</tspan></text><text font-size="3.431" y="68.496" x="-91.151" style="line-height:1.25;-inkscape-font-specification:'sans-serif Bold'" transform="scale(1.00046 .99954)" font-weight="700" font-family="sans-serif" letter-spacing="0" word-spacing="0" fill="#fff"><tspan style="-inkscape-font-specification:'sans-serif Bold'" y="68.496" x="-91.151" stroke-width=".14">j</tspan></text><rect width="2.165" height="8.583" x="-52.184" y="59.491" ry="0" rx="0" fill="#2f5e5d"/><rect rx="0" ry="0" y="59.491" x="-49.208" height="8.583" width="4.486" fill="#2f5e5d"/><rect rx="0" ry="0" y="59.491" x="-43.563" height="8.583" width="2.165" fill="#2f5e5d"/><rect rx="0" ry="0" y="59.491" x="-34.014" height="8.583" width="1.765" fill="#e5650e"/><rect rx="0" ry="0" y="59.491" x="-29.935" height="8.583" width="3.971" fill="#2f5e5d"/><path d="M-52.186 66.344h26.204v2.062h-26.204z" fill="#2f5e5d"/><g fill="#363636" stroke-width="1.651"><path d="M-56.757 62.946v2.3h-4.486v-2.3z"/><path d="M-57.807 61.144l.01 2.953.01 2.953 1.59-1.49 1.59-1.49-1.6-1.463z"/></g><circle cx="-.584" cy="55.969" r="9.096" fill="#2f5e5d"/><path d="M8.555 55.925a9.096 9.096 0 01-2.664 6.432L-.54 55.925z" fill="#e5650e"/><g fill="#363636" stroke-width="1.808"><path d="M-22.447 35.638h5.697v1.802h-5.697zm0 30.595h5.697v1.804h-5.697z"/><path d="M-18.554 37.44h1.803v28.794h-1.803z"/><path d="M-18.443 50.132h6.763v1.803h-6.763z"/></g><text style="line-height:1.25;-inkscape-font-specification:'Ubuntu Condensed, Bold'" x="-11.076" y="37.925" font-weight="700" font-size="4.682" letter-spacing="0" word-spacing="0" font-family="Ubuntu Condensed" fill="#e5650e" stroke-width=".308"><tspan x="-11.076" y="37.925" style="-inkscape-font-specification:'sans-serif Bold'" font-family="sans-serif" stroke-width="1.164">avg error</tspan></text><g fill="#2f5e5d" stroke-width="1.808"><path d="M-4.58 44.042v-.904h9.27v.904z"/><path d="M-.408 43.481v-2.662h.925v2.662zM-5.505 45.8v-2.662h.925V45.8zM3.764 45.8v-2.662h.925V45.8z"/></g><path d="M-136.082 61.293h-19.429V41.864h19.43z" fill="#1d76ce"/><g word-spacing="0" letter-spacing="0" font-weight="700" font-family="sans-serif" fill="#fff" stroke-width=".173"><text font-size="7.013" style="line-height:1.25;-inkscape-font-specification:'sans-serif Bold'" x="9.079" y="275.026" stroke-width=".153" transform="matrix(1.9184 0 0 1.9184 -168.007 -472.972)"><tspan x="9.079" y="275.026" style="-inkscape-font-specification:'sans-serif Bold'">v</tspan></text><text font-size="3.356" y="276.695" x="13.398" style="line-height:1.25;-inkscape-font-specification:'sans-serif Bold'" stroke-width=".073" transform="matrix(1.9184 0 0 1.9184 -168.007 -472.972)"><tspan style="-inkscape-font-specification:'sans-serif Bold'" y="276.695" x="13.398">j</tspan></text></g><text y="68.794" x="-156.22" style="line-height:1.25;-inkscape-font-specification:'sans-serif Bold'" font-weight="700" font-size="8.433" letter-spacing="0" word-spacing="0" font-family="sans-serif" fill="#1d76ce" stroke-width=".395"><tspan style="-inkscape-font-specification:'sans-serif Bold'" y="68.794" x="-156.22">min</tspan></text><text y="40.266" x="-156.241" style="line-height:1.25;-inkscape-font-specification:'sans-serif Bold'" font-weight="700" font-size="7.416" letter-spacing="0" word-spacing="0" font-family="sans-serif" fill="#1d76ce" stroke-width=".395"><tspan style="-inkscape-font-specification:'sans-serif Bold'" y="40.266" x="-156.241">Loss</tspan></text></g></svg>