<svg xmlns="http://www.w3.org/2000/svg" viewBox="0 0 169 36.8" height="139.1" width="638.7"><g transform="translate(12 -108.1)"><rect ry="0" y="110.1" x="19.9" height="7.9" width="7.9" fill="#2f5e5d"/><text style="line-height:1.25;-inkscape-font-specification:'Ubuntu Condensed, Bold'" x="20.3" y="116.2" font-weight="700" font-size="6.7" letter-spacing="0" word-spacing="0" font-family="Ubuntu Condensed" fill="#fff" stroke-width=".3"><tspan x="20.3" y="116.2" style="-inkscape-font-specification:'sans-serif Bold'" font-family="sans-serif">D</tspan></text><text y="117.2" x="25.5" style="line-height:1.25;-inkscape-font-specification:'sans-serif Bold'" font-weight="700" font-size="2.7" letter-spacing="0" word-spacing="0" font-family="sans-serif" fill="#fff" stroke-width=".1"><tspan style="-inkscape-font-specification:'sans-serif Bold'" y="117.2" x="25.5">1</tspan></text><rect rx="0" width="7.8" height="7.8" x="19.9" y="134.5" ry="0" fill="#2f5e5d"/><g font-weight="700" letter-spacing="0" word-spacing="0" fill="#fff" stroke-width="1.9"><text style="line-height:1.25;-inkscape-font-specification:'Ubuntu Condensed, Bold'" x="-119.8" y="833.1" font-size="13.8" font-family="Ubuntu Condensed" stroke-width=".7" transform="translate(77.8 -260.7) scale(.48146)"><tspan x="-119.8" y="833.1" style="-inkscape-font-specification:'sans-serif Bold'" font-family="sans-serif">D</tspan></text><text y="835.3" x="-109.1" style="line-height:1.25;-inkscape-font-specification:'sans-serif Bold'" font-size="5.6" font-family="sans-serif" stroke-width=".3" transform="translate(77.8 -260.7) scale(.48146)"><tspan style="-inkscape-font-specification:'sans-serif Bold'" y="835.3" x="-109.1">T</tspan></text></g><path d="M19.9 118h7.8v6.4H20z" fill="#2f5e5d" opacity=".5"/><path d="M19.9 123.1h7.8v6.4H20z" fill="#2f5e5d" opacity=".5"/><path d="M19.9 128.2h7.8v6.4H20z" fill="#2f5e5d" opacity=".5"/><text word-spacing="0" letter-spacing="0" font-size="11.6" font-weight="700" style="line-height:1.25;-inkscape-font-specification:'sans-serif Bold'" x="30" y="118.2" font-family="sans-serif" fill="#363636" stroke-width=".4"><tspan x="30" y="118.2" style="-inkscape-font-specification:'sans-serif Bold'">A(</tspan></text><text word-spacing="0" letter-spacing="0" font-size="11.6" font-weight="700" y="118.2" x="57.9" style="line-height:1.25;-inkscape-font-specification:'sans-serif Bold'" font-family="sans-serif" fill="#363636" stroke-width=".4"><tspan style="-inkscape-font-specification:'sans-serif Bold'" y="118.2" x="57.9">)</tspan></text><path d="M70.8 109.9h9.5v9.4h-9.5z" fill="#99039e"/><text word-spacing="0" letter-spacing="0" font-size="6.7" font-weight="700" y="117.1" x="73.2" style="line-height:1.25;-inkscape-font-specification:'sans-serif Bold'" font-family="sans-serif" fill="#fff" stroke-width=".2"><tspan style="-inkscape-font-specification:'sans-serif Bold'" y="117.1" x="73.2">h</tspan></text><g fill="#363636" stroke-width="1.4"><path d="M67.8 113.4v2.3h-4.5v-2.3z"/><path d="M66.7 111.6v5.9l1.6-1.5 1.6-1.5-1.6-1.5z"/></g><path d="M45.4 109.2h11v10.6h-11z" fill="#dca900"/><text y="119.2" x="46.4" style="line-height:1.25;-inkscape-font-specification:'sans-serif Bold'" font-size="9.3" transform="scale(1.01901 .98134)" font-weight="700" font-family="sans-serif" letter-spacing="0" word-spacing="0" fill="#fff" stroke-width=".3"><tspan style="-inkscape-font-specification:'sans-serif Bold'" y="119.2" x="46.4">s</tspan></text><text font-size="3.9" y="129.2" x="45.7" style="line-height:1.25;-inkscape-font-specification:'sans-serif Bold'" transform="scale(1.1491 .87024)" font-weight="700" font-family="sans-serif" letter-spacing="0" word-spacing="0" fill="#fff" stroke-width=".1"><tspan style="-inkscape-font-specification:'sans-serif Bold'" y="129.2" x="45.7">1</tspan></text><path d="M15.6 113H14v26h1.6z" fill="#4e9d9b"/><text transform="scale(1.00046 .99954)" style="line-height:1.25;-inkscape-font-specification:'sans-serif Bold'" x="52.3" y="119" font-size="3.4" font-weight="700" font-family="sans-serif" letter-spacing="0" word-spacing="0" fill="#fff"><tspan x="52.3" y="119" style="-inkscape-font-specification:'sans-serif Bold'" stroke-width=".1">j</tspan></text><rect rx="0" ry="0" y="109.9" x="91.3" height="9.7" width="2.2" fill="#2f5e5d"/><rect width="2.2" height="9.7" x="94.3" y="109.9" ry="0" rx="0" fill="#2f5e5d"/><rect width="2.2" height="9.7" x="100" y="109.9" ry="0" rx="0" fill="#2f5e5d"/><rect width="5" height="9.7" x="106.3" y="109.9" ry="0" rx="0" fill="#e5650e"/><rect width="2.2" height="9.7" x="115.4" y="109.9" ry="0" rx="0" fill="#2f5e5d"/><path d="M91.3 118h26.2v2H91.3z" fill="#2f5e5d"/><g fill="#363636" stroke-width="1.7"><path d="M86.8 113.4v2.3h-4.5v-2.3z"/><path d="M85.7 111.6v6l1.6-1.6 1.6-1.5-1.6-1.4z"/></g><path d="M9.8 113v1.3H14V113zm0 24.6v1.3H14v-1.3zm4.7-12.2v1.6H18v-1.6z" fill="#4e9d9b"/><path fill="#2f5e5d" d="M91.3 123.8h26.2v1.5H91.3zm0 2.8h26.2v1.5H91.3z"/><path d="M45.4 123.2h11v1.6h-11zm0 2.9h11v1.5h-11zm0 2.8h11v1.5h-11z" fill="#dca900"/><path fill="#2f5e5d" d="M91.3 129.4h26.2v1.5H91.3z"/><path d="M71 123.4h9.6v1.5H71zm0 2.8h9.6v1.5H71zm0 2.8h9.6v1.5H71z" fill="#99039e"/><path fill="#e5650e" d="M91.3 123.8h6.1v1.5h-6zm10.3 2.8h8.2v1.5h-8.2zm-8.2 2.8h2.7v1.5h-2.7zm12 0h4v1.5h-4z"/><text y="142.2" x="30" style="line-height:1.25;-inkscape-font-specification:'sans-serif Bold'" font-weight="700" font-size="11.6" letter-spacing="0" word-spacing="0" font-family="sans-serif" fill="#363636" stroke-width=".4"><tspan style="-inkscape-font-specification:'sans-serif Bold'" y="142.2" x="30">A(</tspan></text><text style="line-height:1.25;-inkscape-font-specification:'sans-serif Bold'" x="57.9" y="142.2" font-weight="700" font-size="11.6" letter-spacing="0" word-spacing="0" font-family="sans-serif" fill="#363636" stroke-width=".4"><tspan x="57.9" y="142.2" style="-inkscape-font-specification:'sans-serif Bold'">)</tspan></text><path d="M70.9 133.8h9.4v9.5h-9.5z" fill="#99039e"/><text style="line-height:1.25;-inkscape-font-specification:'sans-serif Bold'" x="73.2" y="141.1" font-weight="700" font-size="6.7" letter-spacing="0" word-spacing="0" font-family="sans-serif" fill="#fff" stroke-width=".2"><tspan x="73.2" y="141.1" style="-inkscape-font-specification:'sans-serif Bold'">h</tspan></text><g fill="#363636" stroke-width="1.4"><path d="M67.8 137.3v2.3h-4.5v-2.3z"/><path d="M66.7 135.5v6l1.6-1.6 1.6-1.5-1.6-1.4z"/></g><path d="M45.4 133.2h11v10.6h-11z" fill="#dca900"/><text font-size="9.3" style="line-height:1.25;-inkscape-font-specification:'sans-serif Bold'" x="46.4" y="143.6" transform="scale(1.01901 .98134)" font-weight="700" font-family="sans-serif" letter-spacing="0" word-spacing="0" fill="#fff" stroke-width=".3"><tspan x="46.4" y="143.6" style="-inkscape-font-specification:'sans-serif Bold'">s</tspan></text><text transform="scale(1.1491 .87024)" style="line-height:1.25;-inkscape-font-specification:'sans-serif Bold'" x="45.7" y="156.7" font-size="3.9" font-weight="700" font-family="sans-serif" letter-spacing="0" word-spacing="0" fill="#fff" stroke-width=".1"><tspan x="45.7" y="156.7" style="-inkscape-font-specification:'sans-serif Bold'">T</tspan></text><text font-size="3.4" y="143" x="52.3" style="line-height:1.25;-inkscape-font-specification:'sans-serif Bold'" transform="scale(1.00046 .99954)" font-weight="700" font-family="sans-serif" letter-spacing="0" word-spacing="0" fill="#fff"><tspan style="-inkscape-font-specification:'sans-serif Bold'" y="143" x="52.3" stroke-width=".1">j</tspan></text><rect width="2.2" height="8.6" x="91.3" y="133.9" ry="0" rx="0" fill="#2f5e5d"/><rect rx="0" ry="0" y="133.9" x="94.3" height="8.6" width="4.5" fill="#2f5e5d"/><rect rx="0" ry="0" y="133.9" x="100" height="8.6" width="2.2" fill="#2f5e5d"/><rect rx="0" ry="0" y="133.9" x="109.5" height="8.6" width="1.8" fill="#e5650e"/><rect rx="0" ry="0" y="133.9" x="113.6" height="8.6" width="4" fill="#2f5e5d"/><path d="M91.3 140.8h26.3v2H91.3z" fill="#2f5e5d"/><g fill="#363636" stroke-width="1.7"><path d="M86.8 137.4v2.3h-4.5v-2.3z"/><path d="M85.7 135.6v5.9l1.6-1.5 1.6-1.5-1.6-1.5z"/></g><circle cx="142.9" cy="130.4" r="9.1" fill="#2f5e5d"/><path d="M152 130.3a9.1 9.1 0 01-2.6 6.5l-6.4-6.5z" fill="#e5650e"/><g fill="#363636" stroke-width="1.8"><path d="M121 110h5.8v1.9H121zm0 30.7h5.8v1.8H121z"/><path d="M125 111.9h1.8v28.8H125z"/><path d="M125 124.6h6.9v1.8H125z"/></g><text style="line-height:1.25;-inkscape-font-specification:'Ubuntu Condensed, Bold'" x="132.5" y="112.3" font-weight="700" font-size="4.7" letter-spacing="0" word-spacing="0" font-family="Ubuntu Condensed" fill="#e5650e" stroke-width=".3"><tspan x="132.5" y="112.3" style="-inkscape-font-specification:'sans-serif Bold'" font-family="sans-serif" stroke-width="1.2">avg error</tspan></text><g fill="#2f5e5d" stroke-width="1.8"><path d="M139 118.5v-1h9.2v1z"/><path d="M143.1 118v-2.8h1v2.7zm-5 2.2v-2.6h.9v2.6zm9.2 0v-2.6h1v2.6z"/></g><path d="M7.5 135.7H-12v-19.4H7.5z" fill="#4e9d9b"/><g word-spacing="0" letter-spacing="0" font-weight="700" font-family="sans-serif" fill="#fff" stroke-width=".2"><text font-size="7" style="line-height:1.25;-inkscape-font-specification:'sans-serif Bold'" x="9.1" y="275" transform="translate(-24.5 -398.5) scale(1.9184)"><tspan x="9.1" y="275" style="-inkscape-font-specification:'sans-serif Bold'">x</tspan></text><text font-size="3.4" y="276.7" x="13.4" style="line-height:1.25;-inkscape-font-specification:'sans-serif Bold'" stroke-width=".1" transform="translate(-24.5 -398.5) scale(1.9184)"><tspan style="-inkscape-font-specification:'sans-serif Bold'" y="276.7" x="13.4">j</tspan></text></g><text y="143.2" x="-12.7" style="line-height:1.25;-inkscape-font-specification:'sans-serif Bold'" font-weight="700" font-size="8.4" letter-spacing="0" word-spacing="0" font-family="sans-serif" fill="#4e9d9b" stroke-width=".4"><tspan style="-inkscape-font-specification:'sans-serif Bold'" y="143.2" x="-12.7">min</tspan></text><text y="114.7" x="-12.7" style="line-height:1.25;-inkscape-font-specification:'sans-serif Bold'" font-weight="700" font-size="7.4" letter-spacing="0" word-spacing="0" font-family="sans-serif" fill="#4e9d9b" stroke-width=".4"><tspan style="-inkscape-font-specification:'sans-serif Bold'" y="114.7" x="-12.7">Loss</tspan></text></g></svg>