<svg xmlns="http://www.w3.org/2000/svg" width="1006.3" height="448.2" viewBox="0 0 266.3 118.6"><g transform="translate(26.4 -65.5)"><text style="line-height:1.25;-inkscape-font-specification:'sans-serif Bold'" x="29.3" y="134.4" font-weight="700" font-size="15.8" font-family="sans-serif" letter-spacing="0" word-spacing="0" fill="#363636" stroke-width=".4"><tspan x="29.3" y="134.4" style="-inkscape-font-specification:'sans-serif Bold'">A(</tspan></text><text y="134.4" x="67.4" style="line-height:1.25;-inkscape-font-specification:'sans-serif Bold'" font-weight="700" font-size="15.8" font-family="sans-serif" letter-spacing="0" word-spacing="0" fill="#363636" stroke-width=".4"><tspan style="-inkscape-font-specification:'sans-serif Bold'" y="134.4" x="67.4">)</tspan></text><text y="77.1" x="65.7" style="line-height:1.25;-inkscape-font-specification:'Ubuntu Condensed, Bold';text-align:center;white-space:pre;inline-size:67.3925" font-weight="700" font-size="8.5" font-family="'Ubuntu Condensed'" letter-spacing="0" word-spacing="0" fill="#363636" stroke-width=".3" transform="translate(2.5 5) scale(.85442)" text-anchor="middle"><tspan x="65.7" y="77.1"><tspan style="-inkscape-font-specification:'sans-serif Bold';text-align:center" font-family="sans-serif" stroke-width=".9">labeled </tspan></tspan><tspan x="65.7" y="88.1"><tspan style="-inkscape-font-specification:'sans-serif Bold';text-align:center" font-family="sans-serif" stroke-width=".9">training data</tspan></tspan></text><path d="M50.3 143h16v4.3h-16zm0 7.4h16v4.3h-16zm0 7.5h16v4.2h-16z" fill="#dca900" stroke-width="2"/><text y="106.7" x="29.3" style="line-height:1.25;-inkscape-font-specification:'sans-serif Bold'" font-weight="700" font-size="15.8" font-family="sans-serif" letter-spacing="0" word-spacing="0" fill="#363636" stroke-width=".4"><tspan style="-inkscape-font-specification:'sans-serif Bold'" y="106.7" x="29.3">A(</tspan></text><text style="line-height:1.25;-inkscape-font-specification:'sans-serif Bold'" x="67.4" y="106.7" font-weight="700" font-size="15.8" font-family="sans-serif" letter-spacing="0" word-spacing="0" fill="#363636" stroke-width=".4"><tspan x="67.4" y="106.7" style="-inkscape-font-specification:'sans-serif Bold'">)</tspan></text><text style="line-height:1.25;-inkscape-font-specification:'sans-serif Bold'" x="29.3" y="178.7" font-weight="700" font-size="15.8" font-family="sans-serif" letter-spacing="0" word-spacing="0" fill="#363636" stroke-width=".4"><tspan x="29.3" y="178.7" style="-inkscape-font-specification:'sans-serif Bold'">A(</tspan></text><text y="178.7" x="67.4" style="line-height:1.25;-inkscape-font-specification:'sans-serif Bold'" font-weight="700" font-size="15.8" font-family="sans-serif" letter-spacing="0" word-spacing="0" fill="#363636" stroke-width=".4"><tspan style="-inkscape-font-specification:'sans-serif Bold'" y="178.7" x="67.4">)</tspan></text><path fill="#99039e" d="M85 95.3h13v13H85z"/><text style="line-height:1.25;-inkscape-font-specification:'sans-serif Bold'" x="88.2" y="105.2" font-weight="700" font-size="9.1" font-family="sans-serif" letter-spacing="0" word-spacing="0" fill="#fff" stroke-width=".2"><tspan x="88.2" y="105.2" style="-inkscape-font-specification:'sans-serif Bold'">h</tspan></text><path d="M85 122.8h13v13H85z" fill="#99039e"/><text y="132.7" x="88.2" style="line-height:1.25;-inkscape-font-specification:'sans-serif Bold'" font-weight="700" font-size="9.1" font-family="sans-serif" letter-spacing="0" word-spacing="0" fill="#fff" stroke-width=".2"><tspan style="-inkscape-font-specification:'sans-serif Bold'" y="132.7" x="88.2">h</tspan></text><path fill="#99039e" d="M85 167.2h13V180H85z"/><text y="177.1" x="88.2" style="line-height:1.25;-inkscape-font-specification:'sans-serif Bold'" font-weight="700" font-size="9.1" font-family="sans-serif" letter-spacing="0" word-spacing="0" fill="#fff" stroke-width=".2"><tspan style="-inkscape-font-specification:'sans-serif Bold'" y="177.1" x="88.2">h</tspan></text><g fill="#363636"><path d="M80.8 100.1v3.1h-6.1v-3.1z"/><path d="M79.4 97.6v8.1l2.2-2 2.2-2-2.2-2z"/></g><g fill="#363636"><path d="M80.8 127.6v3.1h-6.1v-3.1z"/><path d="M79.4 125.1v8.1l2.2-2 2.2-2-2.2-2z"/></g><g fill="#363636"><path d="M80.8 172v3h-6.1v-3z"/><path d="M79.4 169.5v8l2.2-2 2.2-2-2.2-2z"/></g><path d="M50.3 94.4h15V109h-15z" fill="#dca900"/><text font-size="12.7" style="line-height:1.25;-inkscape-font-specification:'sans-serif Bold'" x="51.9" y="107.1" transform="scale(1.01901 .98134)" font-weight="700" font-family="sans-serif" letter-spacing="0" word-spacing="0" fill="#fff" stroke-width=".3"><tspan x="51.9" y="107.1" style="-inkscape-font-specification:'sans-serif Bold'">s</tspan></text><text transform="scale(1.1491 .87024)" style="line-height:1.25;-inkscape-font-specification:'sans-serif Bold'" x="52.3" y="113.6" font-size="5.4" font-weight="700" font-family="sans-serif" letter-spacing="0" word-spacing="0" fill="#fff" stroke-width=".1"><tspan x="52.3" y="113.6" style="-inkscape-font-specification:'sans-serif Bold'">i</tspan></text><g fill="#2f5e5d"><path d="M50.3 88.5v-1.7h16.8v1.7z"/><path d="M57.9 87.4v-4.8h1.7v4.8zm-9.2 4.2v-4.8h1.6v4.8zm16.7 0v-4.8h1.7v4.8z"/></g><g fill="#4e9d9b"><path d="M21.4 104.2h-11v4h11zm0 66.6h-11v4h11zm-7.1-62.7h-4v62.7h4z"/><path d="M.3 135.7v4h11.2v-4zM18 101v10l4-2.5 4-2.5-4-2.5zm1.6 66.7v10l4-2.5 4-2.6-4-2.4z"/></g><rect ry="0" y="126" x="-25.7" height="22.7" width="22.7" fill="#2f5e5d"/><text word-spacing="0" letter-spacing="0" font-size="19.3" font-weight="700" style="line-height:1.25;-inkscape-font-specification:'Ubuntu Condensed, Bold'" x="-24.5" y="143.4" font-family="Ubuntu Condensed" fill="#fff" stroke-width=".5"><tspan x="-24.5" y="143.4" style="-inkscape-font-specification:'sans-serif Bold'" font-family="sans-serif">D</tspan></text><text word-spacing="0" letter-spacing="0" font-size="7.8" font-weight="700" y="146.5" x="-9.6" style="line-height:1.25;-inkscape-font-specification:'sans-serif Bold'" font-family="sans-serif" fill="#fff" stroke-width=".2"><tspan style="-inkscape-font-specification:'sans-serif Bold'" y="146.5" x="-9.6">i</tspan></text><path d="M50.3 122.2h15v14.5h-15z" fill="#dca900"/><text y="135.3" x="51.9" style="line-height:1.25;-inkscape-font-specification:'sans-serif Bold'" font-size="12.7" transform="scale(1.01901 .98134)" font-weight="700" font-family="sans-serif" letter-spacing="0" word-spacing="0" fill="#fff" stroke-width=".3"><tspan style="-inkscape-font-specification:'sans-serif Bold'" y="135.3" x="51.9">s</tspan></text><text font-size="5.4" y="145.4" x="52.3" style="line-height:1.25;-inkscape-font-specification:'sans-serif Bold'" transform="scale(1.1491 .87024)" font-weight="700" font-family="sans-serif" letter-spacing="0" word-spacing="0" fill="#fff" stroke-width=".1"><tspan style="-inkscape-font-specification:'sans-serif Bold'" y="145.4" x="52.3">i</tspan></text><path d="M50.3 166.8h15v14.5h-15z" fill="#dca900"/><text transform="scale(1.01901 .98134)" y="180.8" x="51.9" style="line-height:1.25;-inkscape-font-specification:'sans-serif Bold'" font-size="12.7" stroke-width=".3" font-weight="700" font-family="sans-serif" letter-spacing="0" word-spacing="0" fill="#fff"><tspan style="-inkscape-font-specification:'sans-serif Bold'" y="180.8" x="51.9">s</tspan></text><text stroke-width=".1" font-size="5.4" y="196.7" x="52.3" style="line-height:1.25;-inkscape-font-specification:'sans-serif Bold'" transform="scale(1.1491 .87024)" font-weight="700" font-family="sans-serif" letter-spacing="0" word-spacing="0" fill="#fff"><tspan style="-inkscape-font-specification:'sans-serif Bold'" y="196.7" x="52.3">i</tspan></text><text transform="scale(1.00046 .99954)" style="line-height:1.25;-inkscape-font-specification:'sans-serif Bold'" x="60.1" y="180.1" font-size="4.7" font-weight="700" font-family="sans-serif" letter-spacing="0" word-spacing="0" fill="#fff"><tspan x="60.1" y="180.1" style="-inkscape-font-specification:'sans-serif Bold'" stroke-width=".1">k</tspan></text><text font-size="4.7" y="107.8" x="59.7" style="line-height:1.25;-inkscape-font-specification:'sans-serif Bold'" transform="scale(1.00046 .99954)" font-weight="700" font-family="sans-serif" letter-spacing="0" word-spacing="0" fill="#fff"><tspan style="-inkscape-font-specification:'sans-serif Bold'" y="107.8" x="59.7" stroke-width=".1">1</tspan></text><text transform="scale(1.00046 .99954)" style="line-height:1.25;-inkscape-font-specification:'sans-serif Bold'" x="59.9" y="134.7" font-size="4.7" font-weight="700" font-family="sans-serif" letter-spacing="0" word-spacing="0" fill="#fff"><tspan x="59.9" y="134.7" style="-inkscape-font-specification:'sans-serif Bold'" stroke-width=".1">2</tspan></text><rect width="4.6" height="16.8" x="113" y="93.2" ry="0" rx="0" fill="#2f5e5d"/><rect rx="0" ry="0" y="93.2" x="119.3" height="16.8" width="4.6" fill="#2f5e5d"/><rect rx="0" ry="0" y="93.2" x="131.3" height="16.8" width="4.6" fill="#2f5e5d"/><rect rx="0" ry="0" y="93.2" x="144.8" height="16.8" width="10.6" fill="#e5650e"/><rect rx="0" ry="0" y="93.2" x="164.1" height="16.8" width="4.6" fill="#2f5e5d"/><path fill="#2f5e5d" d="M113 107.7h55.7v2.8H113z"/><rect rx="0" ry="0" y="119.4" x="113" height="16.8" width="4.6" fill="#2f5e5d"/><rect width="4.6" height="16.8" x="119.3" y="119.4" ry="0" rx="0" fill="#2f5e5d"/><rect width="4.6" height="16.8" x="131.3" y="119.4" ry="0" rx="0" fill="#e5650e"/><rect width="10.6" height="16.8" x="144.8" y="119.4" ry="0" rx="0" fill="#2f5e5d"/><rect width="4.6" height="16.8" x="164.1" y="119.4" ry="0" rx="0" fill="#2f5e5d"/><path fill="#2f5e5d" d="M113 134h55.7v2.7H113z"/><rect rx="0" ry="0" y="166.8" x="113" height="16.8" width="4.6" fill="#2f5e5d"/><rect width="4.6" height="16.8" x="119.3" y="166.8" ry="0" rx="0" fill="#e5650e"/><rect width="4.6" height="16.8" x="131.3" y="166.8" ry="0" rx="0" fill="#2f5e5d"/><rect width="10.6" height="16.8" x="144.8" y="166.8" ry="0" rx="0" fill="#2f5e5d"/><rect width="4.6" height="16.8" x="164.1" y="166.8" ry="0" rx="0" fill="#2f5e5d"/><path fill="#2f5e5d" d="M113 181.3h55.7v2.8H113z"/><g fill="#363636" stroke-width="1.2"><path d="M106.7 100.2v3.1h-6v-3.1z"/><path d="M105.3 97.7v8l2.2-2 2.2-2-2.2-2z"/></g><g fill="#363636" stroke-width="1.2"><path d="M106.7 127.7v3.1h-6v-3.1z"/><path d="M105.3 125.2v8l2.2-2 2.2-2-2.2-2z"/></g><g fill="#363636" stroke-width="1.2"><path d="M106.7 172v3.2h-6V172z"/><path d="M105.3 169.6v8l2.2-2 2.2-2-2.2-2z"/></g><path fill="#2f5e5d" d="M113 143h56.3v4.3H113zm0 7.4h56.3v4.3H113zm0 7.4h56.3v4.3H113z"/><path fill="#e5650e" d="M113 143h14v4.3h-14zm17.4 7.4h5v4.3h-5zm20.7 0h5.1v4.2h-5zm.2 7.4h14v4.3h-14z"/><text style="line-height:1.25;-inkscape-font-specification:'Ubuntu Condensed, Bold'" x="130.2" y="74.9" font-weight="700" font-size="8.5" font-family="'Ubuntu Condensed'" letter-spacing="0" word-spacing="0" fill="#e5650e" stroke-width=".3"><tspan x="130.2" y="74.9" style="-inkscape-font-specification:'sans-serif Bold'" font-family="sans-serif" stroke-width="1.2">error</tspan></text><g fill="#2f5e5d" stroke-width="1.2"><path d="M113 90.5v-6.9h1.6v6.9zm54.2 0v-6.9h1.6v6.8z"/><path d="M114.6 85.2v-1.6h53v1.6z"/><path d="M140.6 84.2v-4.8h1.6v4.8z"/></g><g transform="translate(-83 -12.5) scale(1.32776)" stroke-width=".8"><circle cx="224" cy="111.3" r="12.4" fill="#2f5e5d"/><path d="M236.4 111.2a12.4 12.4 0 01-3.6 8.8l-8.7-8.8z" fill="#e5650e"/></g><g fill="#363636"><path d="M175 107h10.2v3.4H175zm0 55.4h10.2v3.3H175zM182 110.4h3.2v52H182z"/><path d="M182.2 133.3h12.2v3.3h-12.2z"/></g><text stroke-width=".3" fill="#e5650e" word-spacing="0" letter-spacing="0" font-family="'Ubuntu Condensed'" font-size="8.5" font-weight="700" y="102.6" x="195.5" style="line-height:1.25;-inkscape-font-specification:'Ubuntu Condensed, Bold'"><tspan font-family="sans-serif" style="-inkscape-font-specification:'sans-serif Bold'" y="102.6" x="195.5" stroke-width="1.2">avg error</tspan></text><g fill="#2f5e5d"><path d="M207.2 113.7V112H224v1.7z"/><path d="M214.8 112.7v-4.9h1.7v4.9zm-7.6 4.2V112h1.7v4.9zm15.1 0V112h1.7v4.9z"/></g><path d="M85 143h13.5v4.3H85zm0 7.4h13.5v4.3H85zm0 7.5h13.5v4.2H85z" fill="#99039e" stroke-width="2.2"/><text word-spacing="0" letter-spacing="0" font-size="10.2" font-weight="700" style="line-height:1.25;-inkscape-font-specification:'Ubuntu Condensed, Bold'" x="-26.3" y="123.6" font-family="Ubuntu Condensed" fill="#2f5e5d" stroke-width=".5"><tspan x="-26.3" y="123.6" style="-inkscape-font-specification:'sans-serif Bold'" font-family="sans-serif" stroke-width="2.5">Loss</tspan></text></g></svg>