<svg xmlns="http://www.w3.org/2000/svg" viewBox="0 0 169.002 36.807" height="139.114" width="638.747"><g transform="translate(12.028 -108.14)"><rect ry="0" y="110.108" x="19.873" height="7.91" width="7.91" fill="#2f5e5d"/><text style="line-height:1.25;-inkscape-font-specification:'Ubuntu Condensed, Bold'" x="20.298" y="116.155" font-weight="700" font-size="6.717" letter-spacing="0" word-spacing="0" font-family="Ubuntu Condensed" fill="#fff" stroke-width=".345"><tspan x="20.298" y="116.155" style="-inkscape-font-specification:'sans-serif Bold'" font-family="sans-serif" stroke-width=".316">D</tspan></text><text y="117.236" x="25.463" style="line-height:1.25;-inkscape-font-specification:'sans-serif Bold'" font-weight="700" font-size="2.73" letter-spacing="0" word-spacing="0" font-family="sans-serif" fill="#fff" stroke-width=".14"><tspan style="-inkscape-font-specification:'sans-serif Bold'" y="117.236" x="25.463">1</tspan></text><rect rx="0" width="7.835" height="7.835" x="19.915" y="134.485" ry="0" fill="#2f5e5d"/><g font-weight="700" letter-spacing="0" word-spacing="0" fill="#fff" stroke-width="1.902"><text style="line-height:1.25;-inkscape-font-specification:'Ubuntu Condensed, Bold'" x="-119.77" y="833.104" font-size="13.818" font-family="Ubuntu Condensed" stroke-width=".717" transform="matrix(.48146 0 0 .48146 77.771 -260.66)"><tspan x="-119.77" y="833.104" style="-inkscape-font-specification:'sans-serif Bold'" font-family="sans-serif" stroke-width=".656">D</tspan></text><text y="835.329" x="-109.143" style="line-height:1.25;-inkscape-font-specification:'sans-serif Bold'" font-size="5.617" font-family="sans-serif" stroke-width=".291" transform="matrix(.48146 0 0 .48146 77.771 -260.66)"><tspan style="-inkscape-font-specification:'sans-serif Bold'" y="835.329" x="-109.143">T</tspan></text></g><path d="M19.873 118.019h7.876v6.375h-7.876z" fill="#2f5e5d" opacity=".5"/><path d="M19.873 123.128h7.876v6.376h-7.876z" fill="#2f5e5d" opacity=".5"/><path d="M19.873 128.238h7.876v6.376h-7.876z" fill="#2f5e5d" opacity=".5"/><text word-spacing="0" letter-spacing="0" font-size="11.572" font-weight="700" style="line-height:1.25;-inkscape-font-specification:'sans-serif Bold'" x="30.009" y="118.222" font-family="sans-serif" fill="#363636" stroke-width=".395"><tspan x="30.009" y="118.222" style="-inkscape-font-specification:'sans-serif Bold'">A(</tspan></text><text word-spacing="0" letter-spacing="0" font-size="11.572" font-weight="700" y="118.222" x="57.916" style="line-height:1.25;-inkscape-font-specification:'sans-serif Bold'" font-family="sans-serif" fill="#363636" stroke-width=".395"><tspan style="-inkscape-font-specification:'sans-serif Bold'" y="118.222" x="57.916">)</tspan></text><path d="M70.845 109.853h9.483v9.482h-9.483z" fill="#99039e"/><text word-spacing="0" letter-spacing="0" font-size="6.66" font-weight="700" y="117.125" x="73.196" style="line-height:1.25;-inkscape-font-specification:'sans-serif Bold'" font-family="sans-serif" fill="#fff" stroke-width=".227"><tspan style="-inkscape-font-specification:'sans-serif Bold'" y="117.125" x="73.196">h</tspan></text><g fill="#363636" stroke-width="1.364"><path d="M67.768 113.358v2.3h-4.485v-2.3z"/><path d="M66.719 111.556l.01 2.953.01 2.953 1.59-1.49 1.589-1.49-1.6-1.463z"/></g><path d="M45.37 109.202h11.04v10.63H45.37z" fill="#dca900"/><text y="119.224" x="46.412" style="line-height:1.25;-inkscape-font-specification:'sans-serif Bold'" font-size="9.289" transform="scale(1.01901 .98134)" font-weight="700" font-family="sans-serif" letter-spacing="0" word-spacing="0" fill="#fff" stroke-width=".293"><tspan style="-inkscape-font-specification:'sans-serif Bold'" y="119.224" x="46.412">s</tspan></text><text font-size="3.941" y="129.181" x="45.721" style="line-height:1.25;-inkscape-font-specification:'sans-serif Bold'" transform="scale(1.1491 .87024)" font-weight="700" font-family="sans-serif" letter-spacing="0" word-spacing="0" fill="#fff" stroke-width=".14"><tspan style="-inkscape-font-specification:'sans-serif Bold'" y="129.181" x="45.721">1</tspan></text><path d="M15.605 113.042h-1.57v25.885h1.57z" fill="#4e9d9b"/><text transform="scale(1.00046 .99954)" style="line-height:1.25;-inkscape-font-specification:'sans-serif Bold'" x="52.309" y="118.985" font-size="3.431" font-weight="700" font-family="sans-serif" letter-spacing="0" word-spacing="0" fill="#fff"><tspan x="52.309" y="118.985" style="-inkscape-font-specification:'sans-serif Bold'" stroke-width=".14">j</tspan></text><rect rx="0" ry="0" y="109.856" x="91.344" height="9.685" width="2.165" fill="#2f5e5d"/><rect width="2.165" height="9.685" x="94.32" y="109.856" ry="0" rx="0" fill="#2f5e5d"/><rect width="2.165" height="9.685" x="99.965" y="109.856" ry="0" rx="0" fill="#2f5e5d"/><rect width="4.988" height="9.685" x="106.291" y="109.856" ry="0" rx="0" fill="#e5650e"/><rect width="2.165" height="9.685" x="115.399" y="109.856" ry="0" rx="0" fill="#2f5e5d"/><path d="M91.344 118.02h26.204v2.061H91.344z" fill="#2f5e5d"/><g fill="#363636" stroke-width="1.651"><path d="M86.769 113.412v2.3h-4.486v-2.3z"/><path d="M85.719 111.61l.01 2.953.01 2.953 1.589-1.49 1.59-1.49-1.6-1.464z"/></g><path d="M9.769 113.042v1.273h4.266v-1.273zM9.769 137.591v1.336h4.266v-1.336zM14.49 125.426v1.58h3.547v-1.58z" fill="#4e9d9b"/><path fill="#2f5e5d" d="M91.345 123.77h26.105v1.53H91.345zM91.345 126.583h26.105v1.53H91.345z"/><g fill="#dca900"><path d="M45.415 123.24h10.95v1.53h-10.95zM45.415 126.054h10.95v1.53h-10.95zM45.415 128.867h10.95v1.53h-10.95z"/></g><path fill="#2f5e5d" d="M91.345 129.396h26.105v1.53H91.345z"/><g fill="#99039e"><path d="M71 123.36h9.596v1.53H71zM71 126.174h9.596v1.53H71zM71 128.987h9.596v1.53H71z"/></g><path fill="#e5650e" d="M91.345 123.77h6.103v1.53h-6.103zM101.633 126.583h8.135v1.53h-8.135zM93.448 129.396h2.657v1.53h-2.657zM105.403 129.396h3.968v1.53h-3.968z"/><text y="142.182" x="30.015" style="line-height:1.25;-inkscape-font-specification:'sans-serif Bold'" font-weight="700" font-size="11.572" letter-spacing="0" word-spacing="0" font-family="sans-serif" fill="#363636" stroke-width=".395"><tspan style="-inkscape-font-specification:'sans-serif Bold'" y="142.182" x="30.015">A(</tspan></text><text style="line-height:1.25;-inkscape-font-specification:'sans-serif Bold'" x="57.922" y="142.182" font-weight="700" font-size="11.572" letter-spacing="0" word-spacing="0" font-family="sans-serif" fill="#363636" stroke-width=".395"><tspan x="57.922" y="142.182" style="-inkscape-font-specification:'sans-serif Bold'">)</tspan></text><path d="M70.851 133.813h9.483v9.482H70.85z" fill="#99039e"/><text style="line-height:1.25;-inkscape-font-specification:'sans-serif Bold'" x="73.203" y="141.084" font-weight="700" font-size="6.66" letter-spacing="0" word-spacing="0" font-family="sans-serif" fill="#fff" stroke-width=".227"><tspan x="73.203" y="141.084" style="-inkscape-font-specification:'sans-serif Bold'">h</tspan></text><g fill="#363636" stroke-width="1.364"><path d="M67.775 137.318v2.3H63.29v-2.3z"/><path d="M66.725 135.516l.01 2.953.01 2.953 1.59-1.49 1.589-1.491-1.6-1.463z"/></g><path d="M45.377 133.161h11.038v10.63H45.377z" fill="#dca900"/><text font-size="9.289" style="line-height:1.25;-inkscape-font-specification:'sans-serif Bold'" x="46.418" y="143.639" transform="scale(1.01901 .98134)" font-weight="700" font-family="sans-serif" letter-spacing="0" word-spacing="0" fill="#fff" stroke-width=".293"><tspan x="46.418" y="143.639" style="-inkscape-font-specification:'sans-serif Bold'">s</tspan></text><text transform="scale(1.1491 .87024)" style="line-height:1.25;-inkscape-font-specification:'sans-serif Bold'" x="45.726" y="156.714" font-size="3.941" font-weight="700" font-family="sans-serif" letter-spacing="0" word-spacing="0" fill="#fff" stroke-width=".14"><tspan x="45.726" y="156.714" style="-inkscape-font-specification:'sans-serif Bold'">T</tspan></text><text font-size="3.431" y="142.955" x="52.315" style="line-height:1.25;-inkscape-font-specification:'sans-serif Bold'" transform="scale(1.00046 .99954)" font-weight="700" font-family="sans-serif" letter-spacing="0" word-spacing="0" fill="#fff"><tspan style="-inkscape-font-specification:'sans-serif Bold'" y="142.955" x="52.315" stroke-width=".14">j</tspan></text><rect width="2.165" height="8.583" x="91.348" y="133.916" ry="0" rx="0" fill="#2f5e5d"/><rect rx="0" ry="0" y="133.916" x="94.324" height="8.583" width="4.486" fill="#2f5e5d"/><rect rx="0" ry="0" y="133.916" x="99.969" height="8.583" width="2.165" fill="#2f5e5d"/><rect rx="0" ry="0" y="133.916" x="109.518" height="8.583" width="1.765" fill="#e5650e"/><rect rx="0" ry="0" y="133.916" x="113.597" height="8.583" width="3.971" fill="#2f5e5d"/><path d="M91.346 140.77h26.204v2.061H91.346z" fill="#2f5e5d"/><g fill="#363636" stroke-width="1.651"><path d="M86.775 137.371v2.3h-4.486v-2.3z"/><path d="M85.725 135.57l.01 2.952.01 2.953 1.59-1.49 1.59-1.49-1.6-1.463z"/></g><circle cx="142.948" cy="130.394" r="9.096" fill="#2f5e5d"/><path d="M152.087 130.35a9.096 9.096 0 01-2.664 6.432l-6.432-6.432z" fill="#e5650e"/><g fill="#363636" stroke-width="1.808"><path d="M121.085 110.063h5.697v1.802h-5.697zm0 30.595h5.697v1.804h-5.697z"/><path d="M124.978 111.866h1.803v28.793h-1.803z"/><path d="M125.089 124.557h6.763v1.803h-6.763z"/></g><text style="line-height:1.25;-inkscape-font-specification:'Ubuntu Condensed, Bold'" x="132.456" y="112.35" font-weight="700" font-size="4.682" letter-spacing="0" word-spacing="0" font-family="Ubuntu Condensed" fill="#e5650e" stroke-width=".308"><tspan x="132.456" y="112.35" style="-inkscape-font-specification:'sans-serif Bold'" font-family="sans-serif" stroke-width="1.164">avg error</tspan></text><g fill="#2f5e5d" stroke-width="1.808"><path d="M138.952 118.467v-.904h9.27v.904z"/><path d="M143.124 117.906v-2.662h.925v2.662zM138.027 120.225v-2.662h.925v2.662zM147.296 120.225v-2.662h.925v2.662z"/></g><path d="M7.45 135.718h-19.429V116.29h19.43z" fill="#4e9d9b"/><g word-spacing="0" letter-spacing="0" font-weight="700" font-family="sans-serif" fill="#fff" stroke-width=".173"><text font-size="7.013" style="line-height:1.25;-inkscape-font-specification:'sans-serif Bold'" x="9.079" y="275.026" stroke-width=".153" transform="matrix(1.9184 0 0 1.9184 -24.475 -398.546)"><tspan x="9.079" y="275.026" style="-inkscape-font-specification:'sans-serif Bold'">x</tspan></text><text font-size="3.356" y="276.695" x="13.398" style="line-height:1.25;-inkscape-font-specification:'sans-serif Bold'" stroke-width=".073" transform="matrix(1.9184 0 0 1.9184 -24.475 -398.546)"><tspan style="-inkscape-font-specification:'sans-serif Bold'" y="276.695" x="13.398">j</tspan></text></g><text y="143.22" x="-12.688" style="line-height:1.25;-inkscape-font-specification:'sans-serif Bold'" font-weight="700" font-size="8.433" letter-spacing="0" word-spacing="0" font-family="sans-serif" fill="#4e9d9b" stroke-width=".395"><tspan style="-inkscape-font-specification:'sans-serif Bold'" y="143.22" x="-12.688">min</tspan></text><text y="114.691" x="-12.709" style="line-height:1.25;-inkscape-font-specification:'sans-serif Bold'" font-weight="700" font-size="7.416" letter-spacing="0" word-spacing="0" font-family="sans-serif" fill="#4e9d9b" stroke-width=".395"><tspan style="-inkscape-font-specification:'sans-serif Bold'" y="114.691" x="-12.709">Loss</tspan></text></g></svg>