<svg xmlns="http://www.w3.org/2000/svg" width="1006.327" height="448.176" viewBox="0 0 266.257 118.58"><g transform="translate(26.435 -65.492)"><text style="line-height:1.25;-inkscape-font-specification:'sans-serif Bold'" x="29.313" y="134.384" font-weight="700" font-size="15.785" font-family="sans-serif" letter-spacing="0" word-spacing="0" fill="#363636" stroke-width=".395"><tspan x="29.313" y="134.384" style="-inkscape-font-specification:'sans-serif Bold'">A(</tspan></text><text y="134.384" x="67.38" style="line-height:1.25;-inkscape-font-specification:'sans-serif Bold'" font-weight="700" font-size="15.785" font-family="sans-serif" letter-spacing="0" word-spacing="0" fill="#363636" stroke-width=".395"><tspan style="-inkscape-font-specification:'sans-serif Bold'" y="134.384" x="67.38">)</tspan></text><text y="77.128" x="65.707" style="line-height:1.25;-inkscape-font-specification:'Ubuntu Condensed, Bold';text-align:center;white-space:pre;inline-size:67.3925" font-weight="700" font-size="8.467" font-family="'Ubuntu Condensed'" letter-spacing="0" word-spacing="0" fill="#363636" stroke-width=".25" transform="matrix(.85442 0 0 .85442 2.543 5.089)" text-anchor="middle"><tspan x="65.707" y="77.128"><tspan style="-inkscape-font-specification:'sans-serif Bold';text-align:center" font-family="sans-serif" stroke-width=".947">labeled </tspan></tspan><tspan x="65.707" y="88.116"><tspan style="-inkscape-font-specification:'sans-serif Bold';text-align:center" font-family="sans-serif" stroke-width=".947">training data</tspan></tspan></text><path d="M50.267 143.031h15.944v4.288H50.267zm0 7.411h15.944v4.288H50.267zm0 7.41h15.944v4.288H50.267z" fill="#dca900" stroke-width="1.99"/><text y="106.738" x="29.313" style="line-height:1.25;-inkscape-font-specification:'sans-serif Bold'" font-weight="700" font-size="15.785" font-family="sans-serif" letter-spacing="0" word-spacing="0" fill="#363636" stroke-width=".395"><tspan style="-inkscape-font-specification:'sans-serif Bold'" y="106.738" x="29.313">A(</tspan></text><text style="line-height:1.25;-inkscape-font-specification:'sans-serif Bold'" x="67.38" y="106.738" font-weight="700" font-size="15.785" font-family="sans-serif" letter-spacing="0" word-spacing="0" fill="#363636" stroke-width=".395"><tspan x="67.38" y="106.738" style="-inkscape-font-specification:'sans-serif Bold'">)</tspan></text><text style="line-height:1.25;-inkscape-font-specification:'sans-serif Bold'" x="29.313" y="178.729" font-weight="700" font-size="15.785" font-family="sans-serif" letter-spacing="0" word-spacing="0" fill="#363636" stroke-width=".395"><tspan x="29.313" y="178.729" style="-inkscape-font-specification:'sans-serif Bold'">A(</tspan></text><text y="178.729" x="67.38" style="line-height:1.25;-inkscape-font-specification:'sans-serif Bold'" font-weight="700" font-size="15.785" font-family="sans-serif" letter-spacing="0" word-spacing="0" fill="#363636" stroke-width=".395"><tspan style="-inkscape-font-specification:'sans-serif Bold'" y="178.729" x="67.38">)</tspan></text><path fill="#99039e" d="M85.017 95.322h12.935v12.935H85.017z"/><text style="line-height:1.25;-inkscape-font-specification:'sans-serif Bold'" x="88.224" y="105.241" font-weight="700" font-size="9.085" font-family="sans-serif" letter-spacing="0" word-spacing="0" fill="#fff" stroke-width=".227"><tspan x="88.224" y="105.241" style="-inkscape-font-specification:'sans-serif Bold'">h</tspan></text><path d="M85.017 122.823h12.935v12.935H85.017z" fill="#99039e"/><text y="132.742" x="88.224" style="line-height:1.25;-inkscape-font-specification:'sans-serif Bold'" font-weight="700" font-size="9.085" font-family="sans-serif" letter-spacing="0" word-spacing="0" fill="#fff" stroke-width=".227"><tspan style="-inkscape-font-specification:'sans-serif Bold'" y="132.742" x="88.224">h</tspan></text><path fill="#99039e" d="M85.017 167.168h12.935v12.935H85.017z"/><text y="177.088" x="88.224" style="line-height:1.25;-inkscape-font-specification:'sans-serif Bold'" font-weight="700" font-size="9.085" font-family="sans-serif" letter-spacing="0" word-spacing="0" fill="#fff" stroke-width=".227"><tspan style="-inkscape-font-specification:'sans-serif Bold'" y="177.088" x="88.224">h</tspan></text><g fill="#363636"><path d="M80.82 100.103v3.138h-6.118v-3.138z"/><path d="M79.388 97.645l.014 4.028.013 4.028 2.169-2.033 2.168-2.033-2.182-1.995z"/></g><g fill="#363636"><path d="M80.82 127.604v3.138h-6.118v-3.138z"/><path d="M79.388 125.146l.014 4.027.013 4.029 2.169-2.033 2.168-2.033-2.182-1.995z"/></g><g fill="#363636"><path d="M80.82 171.949v3.138h-6.118v-3.138z"/><path d="M79.388 169.49l.014 4.029.013 4.028 2.169-2.033 2.168-2.033-2.182-1.995z"/></g><path d="M50.267 94.433h15.058v14.501H50.267z" fill="#dca900"/><text font-size="12.671" style="line-height:1.25;-inkscape-font-specification:'sans-serif Bold'" x="51.904" y="107.068" transform="scale(1.01901 .98134)" font-weight="700" font-family="sans-serif" letter-spacing="0" word-spacing="0" fill="#fff" stroke-width=".293"><tspan x="51.904" y="107.068" style="-inkscape-font-specification:'sans-serif Bold'">s</tspan></text><text transform="scale(1.1491 .87024)" style="line-height:1.25;-inkscape-font-specification:'sans-serif Bold'" x="52.253" y="113.557" font-size="5.376" font-weight="700" font-family="sans-serif" letter-spacing="0" word-spacing="0" fill="#fff" stroke-width=".14"><tspan x="52.253" y="113.557" style="-inkscape-font-specification:'sans-serif Bold'">i</tspan></text><g fill="#2f5e5d"><path d="M50.346 88.463v-1.635h16.762v1.635z"/><path d="M57.89 87.448v-4.814h1.674v4.814zM48.673 91.642v-4.814h1.673v4.814zM65.435 91.642v-4.814h1.673v4.814z"/></g><g fill="#4e9d9b"><path d="M21.359 104.19H10.371v3.928h10.988zm0 66.633H10.371v3.928h10.988zM14.301 108.118h-3.928v62.705h3.928z"/><g><path d="M.277 135.746v3.926h11.265v-3.926zm17.784-34.767l.025 5.04.025 5.039 3.992-2.543 3.993-2.544-4.017-2.496zm1.674 66.676l.024 5.04.025 5.04 3.993-2.543 3.993-2.544-4.018-2.496z"/></g></g><rect ry="0" y="126.008" x="-25.694" height="22.738" width="22.738" fill="#2f5e5d"/><text word-spacing="0" letter-spacing="0" font-size="19.307" font-weight="700" style="line-height:1.25;-inkscape-font-specification:'Ubuntu Condensed, Bold'" x="-24.474" y="143.388" font-family="Ubuntu Condensed" fill="#fff" stroke-width=".482"><tspan x="-24.474" y="143.388" style="-inkscape-font-specification:'sans-serif Bold'" font-family="sans-serif">D</tspan></text><text word-spacing="0" letter-spacing="0" font-size="7.848" font-weight="700" y="146.497" x="-9.626" style="line-height:1.25;-inkscape-font-specification:'sans-serif Bold'" font-family="sans-serif" fill="#fff" stroke-width=".196"><tspan style="-inkscape-font-specification:'sans-serif Bold'" y="146.497" x="-9.626">i</tspan></text><path d="M50.267 122.168h15.058v14.5H50.267z" fill="#dca900"/><text y="135.33" x="51.904" style="line-height:1.25;-inkscape-font-specification:'sans-serif Bold'" font-size="12.671" transform="scale(1.01901 .98134)" font-weight="700" font-family="sans-serif" letter-spacing="0" word-spacing="0" fill="#fff" stroke-width=".293"><tspan style="-inkscape-font-specification:'sans-serif Bold'" y="135.33" x="51.904">s</tspan></text><text font-size="5.376" y="145.427" x="52.253" style="line-height:1.25;-inkscape-font-specification:'sans-serif Bold'" transform="scale(1.1491 .87024)" font-weight="700" font-family="sans-serif" letter-spacing="0" word-spacing="0" fill="#fff" stroke-width=".14"><tspan style="-inkscape-font-specification:'sans-serif Bold'" y="145.427" x="52.253">i</tspan></text><path d="M50.267 166.79h15.058v14.501H50.267z" fill="#dca900"/><text transform="scale(1.01901 .98134)" y="180.801" x="51.904" style="line-height:1.25;-inkscape-font-specification:'sans-serif Bold'" font-size="12.671" stroke-width=".293" font-weight="700" font-family="sans-serif" letter-spacing="0" word-spacing="0" fill="#fff"><tspan style="-inkscape-font-specification:'sans-serif Bold'" y="180.801" x="51.904">s</tspan></text><text stroke-width=".14" font-size="5.376" y="196.703" x="52.253" style="line-height:1.25;-inkscape-font-specification:'sans-serif Bold'" transform="scale(1.1491 .87024)" font-weight="700" font-family="sans-serif" letter-spacing="0" word-spacing="0" fill="#fff"><tspan style="-inkscape-font-specification:'sans-serif Bold'" y="196.703" x="52.253">i</tspan></text><text transform="scale(1.00046 .99954)" style="line-height:1.25;-inkscape-font-specification:'sans-serif Bold'" x="60.088" y="180.082" font-size="4.681" font-weight="700" font-family="sans-serif" letter-spacing="0" word-spacing="0" fill="#fff"><tspan x="60.088" y="180.082" style="-inkscape-font-specification:'sans-serif Bold'" stroke-width=".14">k</tspan></text><text font-size="4.681" y="107.753" x="59.737" style="line-height:1.25;-inkscape-font-specification:'sans-serif Bold'" transform="scale(1.00046 .99954)" font-weight="700" font-family="sans-serif" letter-spacing="0" word-spacing="0" fill="#fff"><tspan style="-inkscape-font-specification:'sans-serif Bold'" y="107.753" x="59.737" stroke-width=".14">1</tspan></text><text transform="scale(1.00046 .99954)" style="line-height:1.25;-inkscape-font-specification:'sans-serif Bold'" x="59.898" y="134.661" font-size="4.681" font-weight="700" font-family="sans-serif" letter-spacing="0" word-spacing="0" fill="#fff"><tspan x="59.898" y="134.661" style="-inkscape-font-specification:'sans-serif Bold'" stroke-width=".14">2</tspan></text><rect width="4.603" height="16.766" x="112.981" y="93.23" ry="0" rx="0" fill="#2f5e5d"/><rect rx="0" ry="0" y="93.23" x="119.307" height="16.766" width="4.603" fill="#2f5e5d"/><rect rx="0" ry="0" y="93.23" x="131.309" height="16.766" width="4.603" fill="#2f5e5d"/><rect rx="0" ry="0" y="93.23" x="144.76" height="16.766" width="10.604" fill="#e5650e"/><rect rx="0" ry="0" y="93.23" x="164.124" height="16.766" width="4.603" fill="#2f5e5d"/><path fill="#2f5e5d" d="M112.977 107.7h55.71v2.811h-55.71z"/><rect rx="0" ry="0" y="119.44" x="112.981" height="16.766" width="4.603" fill="#2f5e5d"/><rect width="4.603" height="16.766" x="119.307" y="119.44" ry="0" rx="0" fill="#2f5e5d"/><rect width="4.603" height="16.766" x="131.309" y="119.44" ry="0" rx="0" fill="#e5650e"/><rect width="10.604" height="16.766" x="144.76" y="119.44" ry="0" rx="0" fill="#2f5e5d"/><rect width="4.603" height="16.766" x="164.124" y="119.44" ry="0" rx="0" fill="#2f5e5d"/><path fill="#2f5e5d" d="M112.977 133.908h55.71v2.812h-55.71z"/><rect rx="0" ry="0" y="166.791" x="112.981" height="16.766" width="4.603" fill="#2f5e5d"/><rect width="4.603" height="16.766" x="119.307" y="166.791" ry="0" rx="0" fill="#e5650e"/><rect width="4.603" height="16.766" x="131.309" y="166.791" ry="0" rx="0" fill="#2f5e5d"/><rect width="10.604" height="16.766" x="144.76" y="166.791" ry="0" rx="0" fill="#2f5e5d"/><rect width="4.603" height="16.766" x="164.124" y="166.791" ry="0" rx="0" fill="#2f5e5d"/><path fill="#2f5e5d" d="M112.977 181.26h55.71v2.812h-55.71z"/><g fill="#363636" stroke-width="1.21"><path d="M106.738 100.176v3.138h-6.12v-3.138z"/><path d="M105.306 97.718l.013 4.028.014 4.028 2.168-2.033 2.169-2.032-2.182-1.996z"/></g><g fill="#363636" stroke-width="1.21"><path d="M106.738 127.677v3.138h-6.12v-3.138z"/><path d="M105.306 125.218l.013 4.028.014 4.03 2.168-2.034 2.169-2.033-2.182-1.995z"/></g><g fill="#363636" stroke-width="1.21"><path d="M106.738 172.022v3.138h-6.12v-3.138z"/><path d="M105.306 169.563l.013 4.03.014 4.027 2.168-2.033 2.169-2.033-2.182-1.995z"/></g><path fill="#2f5e5d" d="M112.92 142.987h56.395v4.288H112.92zm0 7.411h56.395v4.288H112.92zm0 7.41h56.395v4.288H112.92z"/><path fill="#e5650e" d="M112.92 142.987h14.043v4.288H112.92zm17.452 7.411h5.088v4.288h-5.088zm20.736-.043h5.088v4.288h-5.088zm.166 7.453h14.043v4.288h-14.043z"/><text style="line-height:1.25;-inkscape-font-specification:'Ubuntu Condensed, Bold'" x="130.201" y="74.884" font-weight="700" font-size="8.467" font-family="'Ubuntu Condensed'" letter-spacing="0" word-spacing="0" fill="#e5650e" stroke-width=".308"><tspan x="130.201" y="74.884" style="-inkscape-font-specification:'sans-serif Bold'" font-family="sans-serif" stroke-width="1.164">error</tspan></text><g fill="#2f5e5d" stroke-width="1.21"><path d="M112.96 90.468v-6.86h1.595v6.86zm54.239-.027v-6.833h1.567v6.833z"/><path d="M114.555 85.242v-1.635h53.1v1.635z"/><path d="M140.639 84.227v-4.813h1.543v4.813z"/></g><text style="line-height:1.25;-inkscape-font-specification:'Ubuntu Condensed, Bold'" x="61.295" y="107.889" font-weight="700" font-size="10.583" font-family="Ubuntu Condensed" letter-spacing="0" word-spacing="0" stroke-width=".265"/><g transform="matrix(1.32776 0 0 1.32776 -82.96 -12.544)" stroke-width=".753"><circle cx="224.001" cy="111.307" r="12.389" fill="#2f5e5d"/><path d="M236.45 111.248a12.389 12.389 0 01-3.63 8.76l-8.76-8.76z" fill="#e5650e"/></g><g fill="#363636"><path d="M174.924 107.091h10.302v3.26h-10.302zm0 55.327h10.302v3.262h-10.302z"/><path d="M181.965 110.352h3.26v52.067h-3.26z"/><path d="M182.165 133.302h12.23v3.26h-12.23z"/></g><text stroke-width=".308" fill="#e5650e" word-spacing="0" letter-spacing="0" font-family="'Ubuntu Condensed'" font-size="8.467" font-weight="700" y="102.616" x="195.486" style="line-height:1.25;-inkscape-font-specification:'Ubuntu Condensed, Bold'"><tspan font-family="sans-serif" style="-inkscape-font-specification:'sans-serif Bold'" y="102.616" x="195.486" stroke-width="1.164">avg error</tspan></text><g fill="#2f5e5d"><path d="M207.234 113.678v-1.635h16.762v1.635z"/><path d="M214.779 112.663v-4.814h1.673v4.814zM207.234 116.857v-4.814h1.673v4.814zM222.323 116.857v-4.814h1.673v4.814z"/></g><path d="M84.978 143.031h13.538v4.288H84.978zm0 7.411h13.538v4.288H84.978zm0 7.41h13.538v4.288H84.978z" fill="#99039e" stroke-width="2.16"/><text word-spacing="0" letter-spacing="0" font-size="10.194" font-weight="700" style="line-height:1.25;-inkscape-font-specification:'Ubuntu Condensed, Bold'" x="-26.313" y="123.561" font-family="Ubuntu Condensed" fill="#2f5e5d" stroke-width=".482"><tspan x="-26.313" y="123.561" style="-inkscape-font-specification:'sans-serif Bold'" font-family="sans-serif" stroke-width="2.546">Loss</tspan></text></g></svg>