<svg xmlns="http://www.w3.org/2000/svg" width="638.7" height="130.7" viewBox="0 0 169 34.6"><g transform="translate(155.6 -34.8)"><rect ry="0" y="35.7" x="-123.7" height="7.9" width="7.9" fill="#2f5e5d"/><text style="line-height:1.25;-inkscape-font-specification:'Ubuntu Condensed, Bold'" x="-123.2" y="41.7" font-weight="700" font-size="6.7" letter-spacing="0" word-spacing="0" font-family="Ubuntu Condensed" fill="#fff" stroke-width=".3"><tspan x="-123.2" y="41.7" style="-inkscape-font-specification:'sans-serif Bold'" font-family="sans-serif">D</tspan></text><text y="42.8" x="-118.1" style="line-height:1.25;-inkscape-font-specification:'sans-serif Bold'" font-weight="700" font-size="2.7" letter-spacing="0" word-spacing="0" font-family="sans-serif" fill="#fff" stroke-width=".1"><tspan style="-inkscape-font-specification:'sans-serif Bold'" y="42.8" x="-118.1">1</tspan></text><rect rx="0" width="7.8" height="7.8" x="-123.6" y="60.1" ry="0" fill="#2f5e5d"/><g font-weight="700" letter-spacing="0" word-spacing="0" fill="#fff" stroke-width="1.9"><text style="line-height:1.25;-inkscape-font-specification:'Ubuntu Condensed, Bold'" x="-119.8" y="833.1" font-size="13.8" font-family="Ubuntu Condensed" stroke-width=".7" transform="translate(-65.8 -335) scale(.48146)"><tspan x="-119.8" y="833.1" style="-inkscape-font-specification:'sans-serif Bold'" font-family="sans-serif">D</tspan></text><text y="835.3" x="-109.1" style="line-height:1.25;-inkscape-font-specification:'sans-serif Bold'" font-size="5.6" font-family="sans-serif" stroke-width=".3" transform="translate(-65.8 -335) scale(.48146)"><tspan style="-inkscape-font-specification:'sans-serif Bold'" y="835.3" x="-109.1">T</tspan></text></g><path d="M-123.7 43.6h8V50h-8z" opacity=".5" fill="#2f5e5d"/><path d="M-123.7 48.7h8v6.4h-8z" opacity=".5" fill="#2f5e5d"/><path d="M-123.7 53.8h8v6.4h-8z" opacity=".5" fill="#2f5e5d"/><text word-spacing="0" letter-spacing="0" font-size="11.6" font-weight="700" style="line-height:1.25;-inkscape-font-specification:'sans-serif Bold'" x="-113.5" y="43.8" font-family="sans-serif" fill="#363636" stroke-width=".4"><tspan x="-113.5" y="43.8" style="-inkscape-font-specification:'sans-serif Bold'">A(</tspan></text><text word-spacing="0" letter-spacing="0" font-size="11.6" font-weight="700" y="43.8" x="-85.6" style="line-height:1.25;-inkscape-font-specification:'sans-serif Bold'" font-family="sans-serif" fill="#363636" stroke-width=".4"><tspan style="-inkscape-font-specification:'sans-serif Bold'" y="43.8" x="-85.6">)</tspan></text><path d="M-72.7 35.4h9.5V45h-9.5z" fill="#99039e"/><text word-spacing="0" letter-spacing="0" font-size="6.7" font-weight="700" y="42.7" x="-70.3" style="line-height:1.25;-inkscape-font-specification:'sans-serif Bold'" font-family="sans-serif" fill="#fff" stroke-width=".2"><tspan style="-inkscape-font-specification:'sans-serif Bold'" y="42.7" x="-70.3">h</tspan></text><g fill="#363636" stroke-width="1.4"><path d="M-75.8 39v2.2h-4.4V39z"/><path d="M-76.8 37.1v6l1.6-1.6 1.6-1.4-1.6-1.5z"/></g><path d="M-98.2 34.8h11v10.6h-11z" fill="#dca900"/><text y="43.4" x="-94.4" style="line-height:1.25;-inkscape-font-specification:'sans-serif Bold'" font-size="9.3" transform="scale(1.01901 .98134)" font-weight="700" font-family="sans-serif" letter-spacing="0" word-spacing="0" fill="#fff" stroke-width=".3"><tspan style="-inkscape-font-specification:'sans-serif Bold'" y="43.4" x="-94.4">s</tspan></text><text font-size="3.9" y="43.7" x="-79.2" style="line-height:1.25;-inkscape-font-specification:'sans-serif Bold'" transform="scale(1.1491 .87024)" font-weight="700" font-family="sans-serif" letter-spacing="0" word-spacing="0" fill="#fff" stroke-width=".1"><tspan style="-inkscape-font-specification:'sans-serif Bold'" y="43.7" x="-79.2">1</tspan></text><path d="M-128 38.6h-1.5v25.9h1.6z" fill="#1d76ce"/><text transform="scale(1.00046 .99954)" style="line-height:1.25;-inkscape-font-specification:'sans-serif Bold'" x="-91.2" y="44.5" font-size="3.4" font-weight="700" font-family="sans-serif" letter-spacing="0" word-spacing="0" fill="#fff"><tspan x="-91.2" y="44.5" style="-inkscape-font-specification:'sans-serif Bold'" stroke-width=".1">j</tspan></text><rect rx="0" ry="0" y="35.4" x="-52.2" height="9.7" width="2.2" fill="#2f5e5d"/><rect width="2.2" height="9.7" x="-49.2" y="35.4" ry="0" rx="0" fill="#2f5e5d"/><rect width="2.2" height="9.7" x="-43.6" y="35.4" ry="0" rx="0" fill="#2f5e5d"/><rect width="5" height="9.7" x="-37.2" y="35.4" ry="0" rx="0" fill="#e5650e"/><rect width="2.2" height="9.7" x="-28.1" y="35.4" ry="0" rx="0" fill="#2f5e5d"/><path d="M-52.2 43.6H-26v2h-26.2z" fill="#2f5e5d"/><g fill="#363636" stroke-width="1.7"><path d="M-56.8 39v2.3h-4.4V39z"/><path d="M-57.8 37.2V43l1.6-1.5 1.6-1.5-1.6-1.5z"/></g><path d="M-133.8 38.6V40h4.3v-1.3zm0 24.6v1.3h4.3v-1.3zM-129 51v1.6h3.5V51z" fill="#1d76ce"/><path fill="#2f5e5d" d="M-52.2 49.3H-26V51h-26zm0 2.9H-26v1.5h-26z"/><path d="M-98.1 48.8h11v1.5h-11zm0 2.8h11v1.6h-11zm0 2.8h11V56h-11z" fill="#dca900"/><path fill="#2f5e5d" d="M-52.2 55H-26v1.5h-26z"/><path d="M-72.5 49h9.6v1.5h-9.6zm0 2.7h9.6v1.6h-9.6zm0 2.9h9.6V56h-9.6z" fill="#99039e"/><path fill="#e5650e" d="M-52.2 49.3h6.1V51h-6zm10.3 2.9h8.1v1.5h-8.1zm-8.2 2.8h2.7v1.5h-2.7zm12 0h4v1.5h-4z"/><text y="67.8" x="-113.5" style="line-height:1.25;-inkscape-font-specification:'sans-serif Bold'" font-weight="700" font-size="11.6" letter-spacing="0" word-spacing="0" font-family="sans-serif" fill="#363636" stroke-width=".4"><tspan style="-inkscape-font-specification:'sans-serif Bold'" y="67.8" x="-113.5">A(</tspan></text><text style="line-height:1.25;-inkscape-font-specification:'sans-serif Bold'" x="-85.6" y="67.8" font-weight="700" font-size="11.6" letter-spacing="0" word-spacing="0" font-family="sans-serif" fill="#363636" stroke-width=".4"><tspan x="-85.6" y="67.8" style="-inkscape-font-specification:'sans-serif Bold'">)</tspan></text><path d="M-72.7 59.4h9.5v9.5h-9.5z" fill="#99039e"/><text style="line-height:1.25;-inkscape-font-specification:'sans-serif Bold'" x="-70.3" y="66.7" font-weight="700" font-size="6.7" letter-spacing="0" word-spacing="0" font-family="sans-serif" fill="#fff" stroke-width=".2"><tspan x="-70.3" y="66.7" style="-inkscape-font-specification:'sans-serif Bold'">h</tspan></text><g fill="#363636" stroke-width="1.4"><path d="M-75.8 62.9v2.3h-4.4v-2.3z"/><path d="M-76.8 61v6l1.6-1.5 1.6-1.5-1.6-1.4z"/></g><path d="M-98.2 58.7h11v10.7h-11z" fill="#dca900"/><text font-size="9.3" style="line-height:1.25;-inkscape-font-specification:'sans-serif Bold'" x="-94.4" y="67.8" transform="scale(1.01901 .98134)" font-weight="700" font-family="sans-serif" letter-spacing="0" word-spacing="0" fill="#fff" stroke-width=".3"><tspan x="-94.4" y="67.8" style="-inkscape-font-specification:'sans-serif Bold'">s</tspan></text><text transform="scale(1.1491 .87024)" style="line-height:1.25;-inkscape-font-specification:'sans-serif Bold'" x="-79.2" y="71.2" font-size="3.9" font-weight="700" font-family="sans-serif" letter-spacing="0" word-spacing="0" fill="#fff" stroke-width=".1"><tspan x="-79.2" y="71.2" style="-inkscape-font-specification:'sans-serif Bold'">T</tspan></text><text font-size="3.4" y="68.5" x="-91.2" style="line-height:1.25;-inkscape-font-specification:'sans-serif Bold'" transform="scale(1.00046 .99954)" font-weight="700" font-family="sans-serif" letter-spacing="0" word-spacing="0" fill="#fff"><tspan style="-inkscape-font-specification:'sans-serif Bold'" y="68.5" x="-91.2" stroke-width=".1">j</tspan></text><rect width="2.2" height="8.6" x="-52.2" y="59.5" ry="0" rx="0" fill="#2f5e5d"/><rect rx="0" ry="0" y="59.5" x="-49.2" height="8.6" width="4.5" fill="#2f5e5d"/><rect rx="0" ry="0" y="59.5" x="-43.6" height="8.6" width="2.2" fill="#2f5e5d"/><rect rx="0" ry="0" y="59.5" x="-34" height="8.6" width="1.8" fill="#e5650e"/><rect rx="0" ry="0" y="59.5" x="-29.9" height="8.6" width="4" fill="#2f5e5d"/><path d="M-52.2 66.3H-26v2.1h-26.2z" fill="#2f5e5d"/><g fill="#363636" stroke-width="1.7"><path d="M-56.8 63v2.2h-4.4V63z"/><path d="M-57.8 61.1v6l1.6-1.5 1.6-1.5-1.6-1.5z"/></g><circle cx="-.6" cy="56" r="9.1" fill="#2f5e5d"/><path d="M8.6 56a9.1 9.1 0 01-2.7 6.4l-6.4-6.5z" fill="#e5650e"/><g fill="#363636" stroke-width="1.8"><path d="M-22.4 35.6h5.6v1.8h-5.6zm0 30.6h5.6V68h-5.6zM-18.6 37.4h1.8v28.8h-1.8z"/><path d="M-18.4 50.1h6.7V52h-6.7z"/></g><text style="line-height:1.25;-inkscape-font-specification:'Ubuntu Condensed, Bold'" x="-11.1" y="37.9" font-weight="700" font-size="4.7" letter-spacing="0" word-spacing="0" font-family="Ubuntu Condensed" fill="#e5650e" stroke-width=".3"><tspan x="-11.1" y="37.9" style="-inkscape-font-specification:'sans-serif Bold'" font-family="sans-serif" stroke-width="1.2">avg error</tspan></text><g fill="#2f5e5d" stroke-width="1.8"><path d="M-4.6 44v-.9h9.3v1z"/><path d="M-.4 43.5v-2.7h1v2.7zm-5.1 2.3v-2.7h1v2.7zm9.3 0v-2.7h.9v2.7z"/></g><path d="M-136 61.3h-19.5V41.9h19.4z" fill="#1d76ce"/><g word-spacing="0" letter-spacing="0" font-weight="700" font-family="sans-serif" fill="#fff" stroke-width=".2"><text font-size="7" style="line-height:1.25;-inkscape-font-specification:'sans-serif Bold'" x="9.1" y="275" transform="translate(-168 -473) scale(1.9184)"><tspan x="9.1" y="275" style="-inkscape-font-specification:'sans-serif Bold'">v</tspan></text><text font-size="3.4" y="276.7" x="13.4" style="line-height:1.25;-inkscape-font-specification:'sans-serif Bold'" stroke-width=".1" transform="translate(-168 -473) scale(1.9184)"><tspan style="-inkscape-font-specification:'sans-serif Bold'" y="276.7" x="13.4">j</tspan></text></g><text y="68.8" x="-156.2" style="line-height:1.25;-inkscape-font-specification:'sans-serif Bold'" font-weight="700" font-size="8.4" letter-spacing="0" word-spacing="0" font-family="sans-serif" fill="#1d76ce" stroke-width=".4"><tspan style="-inkscape-font-specification:'sans-serif Bold'" y="68.8" x="-156.2">min</tspan></text><text y="40.3" x="-156.2" style="line-height:1.25;-inkscape-font-specification:'sans-serif Bold'" font-weight="700" font-size="7.4" letter-spacing="0" word-spacing="0" font-family="sans-serif" fill="#1d76ce" stroke-width=".4"><tspan style="-inkscape-font-specification:'sans-serif Bold'" y="40.3" x="-156.2">Loss</tspan></text></g></svg>