<svg xmlns="http://www.w3.org/2000/svg" width="537.9" height="316.4" viewBox="0 0 142.3 83.7"><g transform="translate(32.3 58)"><path d="M89 14.8H66v-21h23z" opacity=".5" fill="#2d82bb"/><text font-size="24.3" style="line-height:1.25;-inkscape-font-specification:'sans-serif Bold'" x="28.4" y="131" fill="#2f5e5d" stroke-width=".4" transform="matrix(.68367 0 0 .88835 -31.7 -125.7)" font-weight="700" font-family="sans-serif" letter-spacing="0" word-spacing="0"><tspan x="28.4" y="131" style="-inkscape-font-specification:'sans-serif Bold'">=</tspan></text><text style="line-height:1.25;-inkscape-font-specification:'sans-serif Bold'" x="-34.8" y="-7.1" transform="scale(.9616 1.03992)" font-weight="700" font-size="23.2" font-family="sans-serif" letter-spacing="0" word-spacing="0" stroke-width=".3"><tspan x="-34.8" y="-7.1" style="-inkscape-font-specification:'sans-serif Bold'">C</tspan></text><path d="M25-37H4v-21h21z" fill="#a17ca1"/><path d="M25 25.7H4v-21h21z" fill="#96aab8"/><path d="M25-16.1H4v-21h21z" opacity=".5" fill="#a17ca1"/><g font-weight="700" letter-spacing="0" word-spacing="0" font-family="sans-serif" fill="#fff" stroke-width=".1"><text y="276.4" x="9" style="line-height:1.25;-inkscape-font-specification:'sans-serif Bold'" font-size="7" transform="translate(-9.6 -614.4) scale(2.07323)"><tspan style="-inkscape-font-specification:'sans-serif Bold'" y="276.4" x="9">X</tspan></text><text style="line-height:1.25;-inkscape-font-specification:'sans-serif Bold'" x="13.7" y="277.7" font-size="3.4" transform="translate(-9.6 -614.4) scale(2.07323)"><tspan x="13.7" y="277.7" style="-inkscape-font-specification:'sans-serif Bold'">1</tspan></text></g><g word-spacing="0" letter-spacing="0" font-weight="700" font-family="sans-serif" fill="#fff" stroke-width=".1"><text y="279" x="9.2" style="line-height:1.25;-inkscape-font-specification:'sans-serif Bold'" font-size="7" transform="translate(-10 -558.6) scale(2.07323)"><tspan style="-inkscape-font-specification:'sans-serif Bold'" y="279" x="9.2">X</tspan></text><text style="line-height:1.25;-inkscape-font-specification:'sans-serif Bold'" x="11.6" y="281.6" font-size="2.7" transform="translate(-10 -558.6) scale(2.07323)"><tspan x="11.6" y="281.6" style="-inkscape-font-specification:'sans-serif Bold'">2m</tspan></text></g><path d="M25-18.6H4v-3h21z" opacity=".5" fill="#95a9b7" fill-opacity=".8"/><path d="M25-23H4v-3h21zm0-4.3H4v-3h21zm0-4.4H4v-3h21z" opacity=".5" fill="#a17ca1"/><path d="M25 4.7H4v-21h21z" opacity=".5" fill="#96aab8"/><path d="M25-.1H4v-3h21zm0-4.4H4v-3h21zm0-4.3H4v-3h21zm0-4.4H4v-3h21zm0 17.9H4v-3h21z" opacity=".5" fill="#96aab8"/><rect ry="0" y="-57.5" x="30.2" height="1.6" width="6.1" fill="#a17ca1"/><path fill="#a17ca1" d="M34.4-57.5h2V-22h-2z"/><rect ry="0" y="-23.6" x="30.2" height="1.6" width="6.1" fill="#a17ca1"/><rect ry="0" y="-40.5" x="36" height="1.6" width="6.1" fill="#a17ca1"/><rect ry="0" y="-20.2" x="30.2" height="1.6" width="6.1" fill="#96aab8"/><path fill="#96aab8" d="M34.4-20.2h2v45.3h-2z"/><rect ry="0" y="23.5" x="30.2" height="1.6" width="6.1" fill="#96aab8"/><rect ry="0" y="3.5" x="36" height="1.6" width="6.1" fill="#96aab8"/><path d="M66-29.2H45v-21h21z" fill="#4e9d9b"/><g font-weight="700" letter-spacing="0" word-spacing="0" font-family="sans-serif" fill="#fff" stroke-width=".1"><text y="275" x="9.1" style="line-height:1.25;-inkscape-font-specification:'sans-serif Bold'" font-size="7" transform="translate(31.5 -606.6) scale(2.07323)"><tspan style="-inkscape-font-specification:'sans-serif Bold'" y="275" x="9.1">x</tspan></text><text style="line-height:1.25;-inkscape-font-specification:'sans-serif Bold'" x="13.4" y="276.7" font-size="3.4" transform="translate(31.5 -606.6) scale(2.07323)"><tspan x="13.4" y="276.7" style="-inkscape-font-specification:'sans-serif Bold'">1</tspan></text></g><path d="M105.5-29.2h-21v-21h21z" fill="#4e9d9b"/><g word-spacing="0" letter-spacing="0" font-weight="700" font-family="sans-serif" fill="#fff" stroke-width=".1"><text y="274.5" x="9.2" style="line-height:1.25;-inkscape-font-specification:'sans-serif Bold'" font-size="7" transform="translate(71.3 -604.8) scale(2.07323)"><tspan style="-inkscape-font-specification:'sans-serif Bold'" y="274.5" x="9.2">x</tspan></text><text style="line-height:1.25;-inkscape-font-specification:'sans-serif Bold'" x="13.2" y="276.2" font-size="2.7" transform="translate(71.3 -604.8) scale(2.07323)"><tspan x="13.2" y="276.2" style="-inkscape-font-specification:'sans-serif Bold'">m</tspan></text></g><path d="M68.5-29.2v-21h3v21zm4.3 0v-21h3v21zm4.4 0v-21h3v21zm4.3 0v-21h3v21z" fill="#4e9d9b" fill-opacity=".5"/><path d="M84.5-29.2H66v-21h18.5z" fill="#4e9d9b" fill-opacity=".5"/><path d="M66 14.8H45v-21h21z" fill="#1d76ce"/><g font-weight="700" letter-spacing="0" word-spacing="0" font-family="sans-serif" fill="#fff" stroke-width=".1"><text y="275" x="9.1" style="line-height:1.25;-inkscape-font-specification:'sans-serif Bold'" font-size="7" transform="translate(31.5 -562.6) scale(2.07323)"><tspan style="-inkscape-font-specification:'sans-serif Bold'" y="275" x="9.1">v</tspan></text><text style="line-height:1.25;-inkscape-font-specification:'sans-serif Bold'" x="13.4" y="276.7" font-size="3.4" transform="translate(31.5 -562.6) scale(2.07323)"><tspan x="13.4" y="276.7" style="-inkscape-font-specification:'sans-serif Bold'">1</tspan></text></g><path d="M110 14.8H89v-21h21z" fill="#1d76ce"/><g word-spacing="0" letter-spacing="0" font-weight="700" font-family="sans-serif" fill="#fff" stroke-width=".1"><text y="274.5" x="9.2" style="line-height:1.25;-inkscape-font-specification:'sans-serif Bold'" font-size="7" transform="translate(75.8 -560.8) scale(2.07323)"><tspan style="-inkscape-font-specification:'sans-serif Bold'" y="274.5" x="9.2">v</tspan></text><text style="line-height:1.25;-inkscape-font-specification:'sans-serif Bold'" x="13.2" y="276.2" font-size="2.7" transform="translate(75.8 -560.8) scale(2.07323)"><tspan x="13.2" y="276.2" style="-inkscape-font-specification:'sans-serif Bold'">p</tspan></text></g><path d="M68.5 14.8v-21h3v21zm4.3 0v-21h3v21zm4.4 0v-21h3v21zm4.3 0v-21h3v21zm4.6 0v-21h3v21z" opacity=".5" fill="#1d76ce"/></g></svg>