<svg xmlns="http://www.w3.org/2000/svg" width="537.918" height="316.404" viewBox="0 0 142.324 83.715"><g transform="translate(32.308 58.018)"><path d="M89.019 14.805H65.967V-6.192h23.052z" opacity=".5" fill="#2d82bb"/><g stroke-width="1.283" font-weight="700" font-family="sans-serif" letter-spacing="0" word-spacing="0"><text y="129.979" x="4.815" style="line-height:1.25;-inkscape-font-specification:'sans-serif Bold'" font-size="24.338" fill="#fff" stroke-width=".376" transform="matrix(.68367 0 0 .88835 -31.657 -125.74)"></text><text font-size="10.327" y="132.781" x="16.227" style="line-height:1.25;-inkscape-font-specification:'sans-serif Bold'" transform="matrix(.77095 0 0 .78778 -31.657 -125.74)" fill="#fff" stroke-width=".18"></text><text font-size="24.338" style="line-height:1.25;-inkscape-font-specification:'sans-serif Bold'" x="28.356" y="130.967" fill="#2f5e5d" stroke-width=".376" transform="matrix(.68367 0 0 .88835 -31.657 -125.74)"><tspan x="28.356" y="130.967" style="-inkscape-font-specification:'sans-serif Bold'">=</tspan></text></g><text style="line-height:1.25;-inkscape-font-specification:'sans-serif Bold'" x="-34.752" y="-7.11" transform="scale(.9616 1.03992)" font-weight="700" font-size="23.16" font-family="sans-serif" letter-spacing="0" word-spacing="0" stroke-width=".265"><tspan x="-34.752" y="-7.11" style="-inkscape-font-specification:'sans-serif Bold'">C</tspan></text><path d="M24.932-37.021H3.934v-20.997h20.998z" fill="#a17ca1"/><path d="M24.932 25.697H3.934V4.7h20.998z" fill="#96aab8"/><path d="M24.932-16.118H3.934v-20.997h20.998z" opacity=".5" fill="#a17ca1"/><g font-weight="700" letter-spacing="0" word-spacing="0" font-family="sans-serif" fill="#fff" stroke-width=".16"><text y="276.393" x="8.987" style="line-height:1.25;-inkscape-font-specification:'sans-serif Bold'" font-size="7.013" stroke-width=".141" transform="matrix(2.07323 0 0 2.07323 -9.57 -614.407)"><tspan style="-inkscape-font-specification:'sans-serif Bold'" y="276.393" x="8.987">X</tspan></text><text style="line-height:1.25;-inkscape-font-specification:'sans-serif Bold'" x="13.717" y="277.652" font-size="3.356" stroke-width=".068" transform="matrix(2.07323 0 0 2.07323 -9.57 -614.407)"><tspan x="13.717" y="277.652" style="-inkscape-font-specification:'sans-serif Bold'">1</tspan></text></g><g word-spacing="0" letter-spacing="0" font-weight="700" font-family="sans-serif" fill="#fff" stroke-width=".16"><text y="279.047" x="9.221" style="line-height:1.25;-inkscape-font-specification:'sans-serif Bold'" font-size="7.013" stroke-width=".141" transform="matrix(2.07323 0 0 2.07323 -10.09 -558.644)"><tspan style="-inkscape-font-specification:'sans-serif Bold'" y="279.047" x="9.221">X</tspan></text><text style="line-height:1.25;-inkscape-font-specification:'sans-serif Bold'" x="11.63" y="281.574" font-size="2.694" stroke-width=".068" transform="matrix(2.07323 0 0 2.07323 -10.09 -558.644)"><tspan x="11.63" y="281.574" style="-inkscape-font-specification:'sans-serif Bold'">2m</tspan></text></g><path d="M24.932-18.62H3.934v-2.948h20.998z" opacity=".5" fill="#95a9b7" fill-opacity=".753"/><path d="M24.932-22.968H3.934v-2.949h20.998zM24.932-27.317H3.934v-2.949h20.998zM24.932-31.665H3.934v-2.95h20.998z" opacity=".5" fill="#a17ca1"/><path d="M24.932 4.7H3.934v-20.998h20.998z" opacity=".5" fill="#96aab8"/><path d="M24.932-.123H3.934v-2.95h20.998zM24.932-4.472H3.934v-2.949h20.998zM24.932-8.82H3.934v-2.95h20.998zM24.932-13.17H3.934v-2.948h20.998zM24.932 4.7H3.934V1.75h20.998z" opacity=".5" fill="#96aab8"/><rect ry="0" y="-57.455" x="30.217" height="1.62" width="6.09" fill="#a17ca1"/><path fill="#a17ca1" d="M34.439-57.455h1.868v35.484h-1.868z"/><rect ry="0" y="-23.592" x="30.217" height="1.62" width="6.09" fill="#a17ca1"/><rect ry="0" y="-40.523" x="35.981" height="1.62" width="6.09" fill="#a17ca1"/><rect ry="0" y="-20.161" x="30.221" height="1.62" width="6.09" fill="#96aab8"/><path fill="#96aab8" d="M34.444-20.161h1.868v45.249h-1.868z"/><rect ry="0" y="23.468" x="30.221" height="1.62" width="6.09" fill="#96aab8"/><rect ry="0" y="3.496" x="35.985" height="1.62" width="6.09" fill="#96aab8"/><path d="M65.967-29.215H44.969v-20.997h20.998z" fill="#4e9d9b"/><g font-weight="700" letter-spacing="0" word-spacing="0" font-family="sans-serif" fill="#fff" stroke-width=".16"><text y="275.026" x="9.079" style="line-height:1.25;-inkscape-font-specification:'sans-serif Bold'" font-size="7.013" stroke-width=".141" transform="matrix(2.07323 0 0 2.07323 31.465 -606.6)"><tspan style="-inkscape-font-specification:'sans-serif Bold'" y="275.026" x="9.079">x</tspan></text><text style="line-height:1.25;-inkscape-font-specification:'sans-serif Bold'" x="13.398" y="276.695" font-size="3.356" stroke-width=".068" transform="matrix(2.07323 0 0 2.07323 31.465 -606.6)"><tspan x="13.398" y="276.695" style="-inkscape-font-specification:'sans-serif Bold'">1</tspan></text></g><path d="M105.456-29.215H84.458v-20.997h20.998z" fill="#4e9d9b"/><g word-spacing="0" letter-spacing="0" font-weight="700" font-family="sans-serif" fill="#fff" stroke-width=".16"><text y="274.453" x="9.221" style="line-height:1.25;-inkscape-font-specification:'sans-serif Bold'" font-size="7.013" stroke-width=".141" transform="matrix(2.07323 0 0 2.07323 71.284 -604.787)"><tspan style="-inkscape-font-specification:'sans-serif Bold'" y="274.453" x="9.221">x</tspan></text><text style="line-height:1.25;-inkscape-font-specification:'sans-serif Bold'" x="13.179" y="276.228" font-size="2.694" stroke-width=".068" transform="matrix(2.07323 0 0 2.07323 71.284 -604.787)"><tspan x="13.179" y="276.228" style="-inkscape-font-specification:'sans-serif Bold'">m</tspan></text></g><g fill="#4e9d9b" fill-opacity=".5"><path d="M68.468-29.215v-20.997h2.949v20.997zM72.817-29.215v-20.997h2.948v20.997zM77.165-29.215v-20.997h2.949v20.997zM81.514-29.215v-20.997h2.949v20.997z"/></g><path d="M84.458-29.215H65.967v-20.997h18.491z" fill="#4e9d9b" fill-opacity=".5"/><path d="M65.967 14.805H44.969V-6.192h20.998z" fill="#1d76ce"/><g font-weight="700" letter-spacing="0" word-spacing="0" font-family="sans-serif" fill="#fff" stroke-width=".16"><text y="275.026" x="9.079" style="line-height:1.25;-inkscape-font-specification:'sans-serif Bold'" font-size="7.013" stroke-width=".141" transform="matrix(2.07323 0 0 2.07323 31.465 -562.581)"><tspan style="-inkscape-font-specification:'sans-serif Bold'" y="275.026" x="9.079">v</tspan></text><text style="line-height:1.25;-inkscape-font-specification:'sans-serif Bold'" x="13.398" y="276.695" font-size="3.356" stroke-width=".068" transform="matrix(2.07323 0 0 2.07323 31.465 -562.581)"><tspan x="13.398" y="276.695" style="-inkscape-font-specification:'sans-serif Bold'">1</tspan></text></g><path d="M110.016 14.805H89.019V-6.192h20.997z" fill="#1d76ce"/><g word-spacing="0" letter-spacing="0" font-weight="700" font-family="sans-serif" fill="#fff" stroke-width=".16"><text y="274.453" x="9.221" style="line-height:1.25;-inkscape-font-specification:'sans-serif Bold'" font-size="7.013" stroke-width=".141" transform="matrix(2.07323 0 0 2.07323 75.844 -560.8)"><tspan style="-inkscape-font-specification:'sans-serif Bold'" y="274.453" x="9.221">v</tspan></text><text style="line-height:1.25;-inkscape-font-specification:'sans-serif Bold'" x="13.179" y="276.228" font-size="2.694" stroke-width=".068" transform="matrix(2.07323 0 0 2.07323 75.844 -560.8)"><tspan x="13.179" y="276.228" style="-inkscape-font-specification:'sans-serif Bold'">p</tspan></text></g><path d="M68.468 14.805V-6.192h2.949v20.997zM72.817 14.805V-6.192h2.948v20.997zM77.165 14.805V-6.192h2.949v20.997zM81.514 14.805V-6.192h2.949v20.997zM86.07 14.805V-6.192h2.949v20.997z" opacity=".5" fill="#1d76ce"/></g></svg>