<svg xmlns="http://www.w3.org/2000/svg" width="738.1" height="407.3" viewBox="0 0 195.3 107.8"><path d="M0 8.9h97.5v98.9H0z" fill="#d6c6d6"/><path d="M97.5 8.9h97.8v98.9H97.5z" fill="#dae1e6"/><text style="line-height:1.25;-inkscape-font-specification:'sans-serif Bold'" x="34.1" y="5.2" font-weight="700" font-size="9.3" letter-spacing="0" word-spacing="0" font-family="sans-serif" fill="#a17ca1" stroke-width=".3"><tspan x="34.1" y="5.2" style="-inkscape-font-specification:'sans-serif Bold'">seen</tspan></text><text y="5.2" x="129.7" style="line-height:1.25;-inkscape-font-specification:'sans-serif Bold'" font-weight="700" font-size="9.3" letter-spacing="0" word-spacing="0" font-family="sans-serif" fill="#96aab8" stroke-width=".3"><tspan style="-inkscape-font-specification:'sans-serif Bold'" y="5.2" x="129.7">unseen</tspan></text><path d="M29.8 16.4h16.7v16.4H29.8zm21.2 0h16.8v16.4H51z" fill="#a17ca1"/><g transform="translate(-83.6 -1406) scale(2.07214)" fill="#a17ca1"><circle cx="76.4" cy="693.7" r=".7"/><circle r=".7" cy="693.7" cx="78.2"/><circle r=".7" cy="693.7" cx="80"/></g><text style="line-height:1.25;-inkscape-font-specification:'sans-serif Bold'" x="34.5" y="28.5" font-weight="700" font-size="10.7" letter-spacing="0" word-spacing="0" font-family="sans-serif" fill="#fff" stroke-width=".4"><tspan x="34.5" y="28.5" style="-inkscape-font-specification:'sans-serif Bold'">1</tspan></text><text y="28.6" x="55.7" style="line-height:1.25;-inkscape-font-specification:'sans-serif Bold'" font-weight="700" font-size="10.7" letter-spacing="0" word-spacing="0" font-family="sans-serif" fill="#fff" stroke-width=".4"><tspan style="-inkscape-font-specification:'sans-serif Bold'" y="28.6" x="55.7">0</tspan></text><path d="M29.8 39h16.7v16.4H29.8zM51 39h16.8v16.4H51z" fill="#a17ca1"/><g transform="translate(-83.6 -1383.5) scale(2.07214)" fill="#a17ca1"><circle r=".7" cy="693.7" cx="76.4"/><circle cx="78.2" cy="693.7" r=".7"/><circle cx="80" cy="693.7" r=".7"/></g><text y="51.1" x="34.4" style="line-height:1.25;-inkscape-font-specification:'sans-serif Bold'" font-weight="700" font-size="10.7" letter-spacing="0" word-spacing="0" font-family="sans-serif" fill="#fff" stroke-width=".4"><tspan style="-inkscape-font-specification:'sans-serif Bold'" y="51.1" x="34.4">1</tspan></text><text style="line-height:1.25;-inkscape-font-specification:'sans-serif Bold'" x="55.4" y="51.1" font-weight="700" font-size="10.7" letter-spacing="0" word-spacing="0" font-family="sans-serif" fill="#fff" stroke-width=".4"><tspan x="55.4" y="51.1" style="-inkscape-font-specification:'sans-serif Bold'">0</tspan></text><path d="M9 16.4h16.7v16.4H9z" fill="#a17ca1"/><text style="line-height:1.25;-inkscape-font-specification:'sans-serif Bold'" x="13.7" y="28.5" font-weight="700" font-size="10.7" letter-spacing="0" word-spacing="0" font-family="sans-serif" fill="#fff" stroke-width=".4"><tspan x="13.7" y="28.5" style="-inkscape-font-specification:'sans-serif Bold'">0</tspan></text><path d="M9 39h16.7v16.4H9z" fill="#a17ca1"/><text y="51.1" x="13.6" style="line-height:1.25;-inkscape-font-specification:'sans-serif Bold'" font-weight="700" font-size="10.7" letter-spacing="0" word-spacing="0" font-family="sans-serif" fill="#fff" stroke-width=".4"><tspan style="-inkscape-font-specification:'sans-serif Bold'" y="51.1" x="13.6">0</tspan></text><path d="M29.8 60.7h16.7V77H29.8zm21.2 0h16.8V77H51z" fill="#a17ca1"/><g transform="translate(-83.6 -1361.8) scale(2.07214)" fill="#a17ca1"><circle r=".7" cy="693.7" cx="76.4"/><circle cx="78.2" cy="693.7" r=".7"/><circle cx="80" cy="693.7" r=".7"/></g><text y="72.8" x="34.5" style="line-height:1.25;-inkscape-font-specification:'sans-serif Bold'" font-weight="700" font-size="10.7" letter-spacing="0" word-spacing="0" font-family="sans-serif" fill="#fff" stroke-width=".4"><tspan style="-inkscape-font-specification:'sans-serif Bold'" y="72.8" x="34.5">1</tspan></text><text style="line-height:1.25;-inkscape-font-specification:'sans-serif Bold'" x="55.7" y="72.9" font-weight="700" font-size="10.7" letter-spacing="0" word-spacing="0" font-family="sans-serif" fill="#fff" stroke-width=".4"><tspan x="55.7" y="72.9" style="-inkscape-font-specification:'sans-serif Bold'">0</tspan></text><path d="M29.8 83.2h16.7v16.4H29.8zm21.2 0h16.8v16.4H51z" fill="#a17ca1"/><g transform="translate(-83.6 -1339.2) scale(2.07214)" fill="#a17ca1"><circle cx="76.4" cy="693.7" r=".7"/><circle r=".7" cy="693.7" cx="78.2"/><circle r=".7" cy="693.7" cx="80"/></g><text style="line-height:1.25;-inkscape-font-specification:'sans-serif Bold'" x="34.4" y="95.3" font-weight="700" font-size="10.7" letter-spacing="0" word-spacing="0" font-family="sans-serif" fill="#fff" stroke-width=".4"><tspan x="34.4" y="95.3" style="-inkscape-font-specification:'sans-serif Bold'">1</tspan></text><text y="95.3" x="55.4" style="line-height:1.25;-inkscape-font-specification:'sans-serif Bold'" font-weight="700" font-size="10.7" letter-spacing="0" word-spacing="0" font-family="sans-serif" fill="#fff" stroke-width=".4"><tspan style="-inkscape-font-specification:'sans-serif Bold'" y="95.3" x="55.4">0</tspan></text><path d="M9 60.7h16.7V77H9z" fill="#a17ca1"/><text y="72.8" x="13.7" style="line-height:1.25;-inkscape-font-specification:'sans-serif Bold'" font-weight="700" font-size="10.7" letter-spacing="0" word-spacing="0" font-family="sans-serif" fill="#fff" stroke-width=".4"><tspan style="-inkscape-font-specification:'sans-serif Bold'" y="72.8" x="13.7">0</tspan></text><path d="M9 83.2h16.7v16.4H9z" fill="#a17ca1"/><text style="line-height:1.25;-inkscape-font-specification:'sans-serif Bold'" x="13.6" y="95.3" font-weight="700" font-size="10.7" letter-spacing="0" word-spacing="0" font-family="sans-serif" fill="#fff" stroke-width=".4"><tspan x="13.6" y="95.3" style="-inkscape-font-specification:'sans-serif Bold'">0</tspan></text><path d="M132.1 16.4H149v16.4H132zm21.3 0H170v16.4h-16.7z" fill="#96aab8"/><g transform="translate(16.6 -1406) scale(2.07214)" fill="#96aab8"><circle r=".7" cy="693.7" cx="76.4"/><circle cx="78.2" cy="693.7" r=".7"/><circle cx="80" cy="693.7" r=".7"/></g><text y="28.5" x="136.8" style="line-height:1.25;-inkscape-font-specification:'sans-serif Bold'" font-weight="700" font-size="10.7" letter-spacing="0" word-spacing="0" font-family="sans-serif" fill="#fff" stroke-width=".4"><tspan style="-inkscape-font-specification:'sans-serif Bold'" y="28.5" x="136.8">0</tspan></text><text style="line-height:1.25;-inkscape-font-specification:'sans-serif Bold'" x="158.1" y="28.6" font-weight="700" font-size="10.7" letter-spacing="0" word-spacing="0" font-family="sans-serif" fill="#fff" stroke-width=".4"><tspan x="158.1" y="28.6" style="-inkscape-font-specification:'sans-serif Bold'">1</tspan></text><path d="M132.1 39H149v16.4H132zm21.3 0H170v16.4h-16.7z" fill="#96aab8"/><g transform="translate(16.6 -1383.5) scale(2.07214)" fill="#96aab8"><circle cx="76.4" cy="693.7" r=".7"/><circle r=".7" cy="693.7" cx="78.2"/><circle r=".7" cy="693.7" cx="80"/></g><text style="line-height:1.25;-inkscape-font-specification:'sans-serif Bold'" x="136.8" y="51.1" font-weight="700" font-size="10.7" letter-spacing="0" word-spacing="0" font-family="sans-serif" fill="#fff" stroke-width=".4"><tspan x="136.8" y="51.1" style="-inkscape-font-specification:'sans-serif Bold'">0</tspan></text><text y="51.1" x="157.8" style="line-height:1.25;-inkscape-font-specification:'sans-serif Bold'" font-weight="700" font-size="10.7" letter-spacing="0" word-spacing="0" font-family="sans-serif" fill="#fff" stroke-width=".4"><tspan style="-inkscape-font-specification:'sans-serif Bold'" y="51.1" x="157.8">0</tspan></text><path d="M111.3 16.4H128v16.4h-16.7z" fill="#96aab8"/><text style="line-height:1.25;-inkscape-font-specification:'sans-serif Bold'" x="116" y="28.5" font-weight="700" font-size="10.7" letter-spacing="0" word-spacing="0" font-family="sans-serif" fill="#fff" stroke-width=".4"><tspan x="116" y="28.5" style="-inkscape-font-specification:'sans-serif Bold'">0</tspan></text><path d="M111.3 39H128v16.4h-16.7z" fill="#96aab8"/><text y="51.1" x="115.9" style="line-height:1.25;-inkscape-font-specification:'sans-serif Bold'" font-weight="700" font-size="10.7" letter-spacing="0" word-spacing="0" font-family="sans-serif" fill="#fff" stroke-width=".4"><tspan style="-inkscape-font-specification:'sans-serif Bold'" y="51.1" x="115.9">1</tspan></text><path d="M132.1 60.7H149V77H132zm21.3 0H170V77h-16.7z" fill="#96aab8"/><g transform="translate(16.6 -1361.8) scale(2.07214)" fill="#96aab8"><circle cx="76.4" cy="693.7" r=".7"/><circle r=".7" cy="693.7" cx="78.2"/><circle r=".7" cy="693.7" cx="80"/></g><text style="line-height:1.25;-inkscape-font-specification:'sans-serif Bold'" x="136.8" y="72.8" font-weight="700" font-size="10.7" letter-spacing="0" word-spacing="0" font-family="sans-serif" fill="#fff" stroke-width=".4"><tspan x="136.8" y="72.8" style="-inkscape-font-specification:'sans-serif Bold'">1</tspan></text><text y="72.9" x="158.1" style="line-height:1.25;-inkscape-font-specification:'sans-serif Bold'" font-weight="700" font-size="10.7" letter-spacing="0" word-spacing="0" font-family="sans-serif" fill="#fff" stroke-width=".4"><tspan style="-inkscape-font-specification:'sans-serif Bold'" y="72.9" x="158.1">0</tspan></text><path d="M132.1 83.2H149v16.4H132zm21.3 0H170v16.4h-16.7z" fill="#96aab8"/><g transform="translate(16.6 -1339.2) scale(2.07214)" fill="#96aab8"><circle r=".7" cy="693.7" cx="76.4"/><circle cx="78.2" cy="693.7" r=".7"/><circle cx="80" cy="693.7" r=".7"/></g><text y="95.3" x="136.8" style="line-height:1.25;-inkscape-font-specification:'sans-serif Bold'" font-weight="700" font-size="10.7" letter-spacing="0" word-spacing="0" font-family="sans-serif" fill="#fff" stroke-width=".4"><tspan style="-inkscape-font-specification:'sans-serif Bold'" y="95.3" x="136.8">1</tspan></text><text style="line-height:1.25;-inkscape-font-specification:'sans-serif Bold'" x="157.8" y="95.3" font-weight="700" font-size="10.7" letter-spacing="0" word-spacing="0" font-family="sans-serif" fill="#fff" stroke-width=".4"><tspan x="157.8" y="95.3" style="-inkscape-font-specification:'sans-serif Bold'">1</tspan></text><path d="M111.3 60.7H128V77h-16.7z" fill="#96aab8"/><text y="72.8" x="116" style="line-height:1.25;-inkscape-font-specification:'sans-serif Bold'" font-weight="700" font-size="10.7" letter-spacing="0" word-spacing="0" font-family="sans-serif" fill="#fff" stroke-width=".4"><tspan style="-inkscape-font-specification:'sans-serif Bold'" y="72.8" x="116">0</tspan></text><path d="M111.3 83.2H128v16.4h-16.7z" fill="#96aab8"/><text style="line-height:1.25;-inkscape-font-specification:'sans-serif Bold'" x="115.9" y="95.3" font-weight="700" font-size="10.7" letter-spacing="0" word-spacing="0" font-family="sans-serif" fill="#fff" stroke-width=".4"><tspan x="115.9" y="95.3" style="-inkscape-font-specification:'sans-serif Bold'">1</tspan></text><path d="M6.6 14.5h182.2v20.3H6.6zm-.1 22.7h182.2v20.3H6.5zm.1 22.1h182.2v20.3H6.6zm0 22.5h182.1V102H6.5z" fill="none" stroke="#fff" stroke-width="1.4" stroke-linecap="round"/></svg>