<svg xmlns="http://www.w3.org/2000/svg" width="738.138" height="407.348" viewBox="0 0 195.299 107.777"><path d="M0 8.87h97.485v98.908H0z" fill="#d6c6d6"/><path d="M97.485 8.87H195.3v98.908H97.485z" fill="#dae1e6"/><text style="line-height:1.25;-inkscape-font-specification:'sans-serif Bold'" x="34.109" y="5.184" font-weight="700" font-size="9.257" letter-spacing="0" word-spacing="0" font-family="sans-serif" fill="#a17ca1" stroke-width=".302"><tspan x="34.109" y="5.184" style="-inkscape-font-specification:'sans-serif Bold'">seen</tspan></text><text y="5.184" x="129.733" style="line-height:1.25;-inkscape-font-specification:'sans-serif Bold'" font-weight="700" font-size="9.257" letter-spacing="0" word-spacing="0" font-family="sans-serif" fill="#96aab8" stroke-width=".302"><tspan style="-inkscape-font-specification:'sans-serif Bold'" y="5.184" x="129.733">unseen</tspan></text><path d="M29.801 16.407h16.71v16.441h-16.71zM51.045 16.407h16.71v16.441h-16.71z" fill="#a17ca1"/><g transform="matrix(2.07214 0 0 2.07214 -83.637 -1406.006)" fill="#a17ca1"><circle cx="76.41" cy="693.665" r=".715"/><circle r=".715" cy="693.665" cx="78.216"/><circle r=".715" cy="693.665" cx="80.021"/></g><text style="line-height:1.25;-inkscape-font-specification:'sans-serif Bold'" x="34.488" y="28.536" font-weight="700" font-size="10.737" letter-spacing="0" word-spacing="0" font-family="sans-serif" fill="#fff" stroke-width=".351"><tspan x="34.488" y="28.536" style="-inkscape-font-specification:'sans-serif Bold'">1</tspan></text><text y="28.613" x="55.706" style="line-height:1.25;-inkscape-font-specification:'sans-serif Bold'" font-weight="700" font-size="10.737" letter-spacing="0" word-spacing="0" font-family="sans-serif" fill="#fff" stroke-width=".351"><tspan style="-inkscape-font-specification:'sans-serif Bold'" y="28.613" x="55.706">0</tspan></text><path d="M29.801 38.931h16.71v16.441h-16.71zM51.045 38.931h16.71v16.441h-16.71z" fill="#a17ca1"/><g transform="matrix(2.07214 0 0 2.07214 -83.637 -1383.483)" fill="#a17ca1"><circle r=".715" cy="693.665" cx="76.41"/><circle cx="78.216" cy="693.665" r=".715"/><circle cx="80.021" cy="693.665" r=".715"/></g><text y="51.065" x="34.425" style="line-height:1.25;-inkscape-font-specification:'sans-serif Bold'" font-weight="700" font-size="10.737" letter-spacing="0" word-spacing="0" font-family="sans-serif" fill="#fff" stroke-width=".351"><tspan style="-inkscape-font-specification:'sans-serif Bold'" y="51.065" x="34.425">1</tspan></text><text style="line-height:1.25;-inkscape-font-specification:'sans-serif Bold'" x="55.428" y="51.065" font-weight="700" font-size="10.737" letter-spacing="0" word-spacing="0" font-family="sans-serif" fill="#fff" stroke-width=".351"><tspan x="55.428" y="51.065" style="-inkscape-font-specification:'sans-serif Bold'">0</tspan></text><path d="M8.965 16.407h16.71v16.441H8.965z" fill="#a17ca1"/><text style="line-height:1.25;-inkscape-font-specification:'sans-serif Bold'" x="13.653" y="28.536" font-weight="700" font-size="10.737" letter-spacing="0" word-spacing="0" font-family="sans-serif" fill="#fff" stroke-width=".351"><tspan x="13.653" y="28.536" style="-inkscape-font-specification:'sans-serif Bold'">0</tspan></text><path d="M8.965 38.931h16.71v16.441H8.965z" fill="#a17ca1"/><text y="51.065" x="13.59" style="line-height:1.25;-inkscape-font-specification:'sans-serif Bold'" font-weight="700" font-size="10.737" letter-spacing="0" word-spacing="0" font-family="sans-serif" fill="#fff" stroke-width=".351"><tspan style="-inkscape-font-specification:'sans-serif Bold'" y="51.065" x="13.59">0</tspan></text><path d="M29.801 60.664h16.71v16.441h-16.71zM51.045 60.664h16.71v16.441h-16.71z" fill="#a17ca1"/><g transform="matrix(2.07214 0 0 2.07214 -83.637 -1361.75)" fill="#a17ca1"><circle r=".715" cy="693.665" cx="76.41"/><circle cx="78.216" cy="693.665" r=".715"/><circle cx="80.021" cy="693.665" r=".715"/></g><text y="72.794" x="34.488" style="line-height:1.25;-inkscape-font-specification:'sans-serif Bold'" font-weight="700" font-size="10.737" letter-spacing="0" word-spacing="0" font-family="sans-serif" fill="#fff" stroke-width=".351"><tspan style="-inkscape-font-specification:'sans-serif Bold'" y="72.794" x="34.488">1</tspan></text><text style="line-height:1.25;-inkscape-font-specification:'sans-serif Bold'" x="55.706" y="72.869" font-weight="700" font-size="10.737" letter-spacing="0" word-spacing="0" font-family="sans-serif" fill="#fff" stroke-width=".351"><tspan x="55.706" y="72.869" style="-inkscape-font-specification:'sans-serif Bold'">0</tspan></text><path d="M29.801 83.188h16.71V99.63h-16.71zM51.045 83.188h16.71V99.63h-16.71z" fill="#a17ca1"/><g transform="matrix(2.07214 0 0 2.07214 -83.637 -1339.226)" fill="#a17ca1"><circle cx="76.41" cy="693.665" r=".715"/><circle r=".715" cy="693.665" cx="78.216"/><circle r=".715" cy="693.665" cx="80.021"/></g><text style="line-height:1.25;-inkscape-font-specification:'sans-serif Bold'" x="34.425" y="95.322" font-weight="700" font-size="10.737" letter-spacing="0" word-spacing="0" font-family="sans-serif" fill="#fff" stroke-width=".351"><tspan x="34.425" y="95.322" style="-inkscape-font-specification:'sans-serif Bold'">1</tspan></text><text y="95.322" x="55.428" style="line-height:1.25;-inkscape-font-specification:'sans-serif Bold'" font-weight="700" font-size="10.737" letter-spacing="0" word-spacing="0" font-family="sans-serif" fill="#fff" stroke-width=".351"><tspan style="-inkscape-font-specification:'sans-serif Bold'" y="95.322" x="55.428">0</tspan></text><path d="M8.965 60.664h16.71v16.441H8.965z" fill="#a17ca1"/><text y="72.793" x="13.653" style="line-height:1.25;-inkscape-font-specification:'sans-serif Bold'" font-weight="700" font-size="10.737" letter-spacing="0" word-spacing="0" font-family="sans-serif" fill="#fff" stroke-width=".351"><tspan style="-inkscape-font-specification:'sans-serif Bold'" y="72.793" x="13.653">0</tspan></text><path d="M8.965 83.188h16.71V99.63H8.965z" fill="#a17ca1"/><text style="line-height:1.25;-inkscape-font-specification:'sans-serif Bold'" x="13.59" y="95.322" font-weight="700" font-size="10.737" letter-spacing="0" word-spacing="0" font-family="sans-serif" fill="#fff" stroke-width=".351"><tspan x="13.59" y="95.322" style="-inkscape-font-specification:'sans-serif Bold'">0</tspan></text><path d="M132.146 16.407h16.71v16.441h-16.71zM153.39 16.407h16.71v16.441h-16.71z" fill="#96aab8"/><g transform="matrix(2.07214 0 0 2.07214 16.591 -1406.006)" fill="#96aab8"><circle r=".715" cy="693.665" cx="76.41"/><circle cx="78.216" cy="693.665" r=".715"/><circle cx="80.021" cy="693.665" r=".715"/></g><text y="28.536" x="136.833" style="line-height:1.25;-inkscape-font-specification:'sans-serif Bold'" font-weight="700" font-size="10.737" letter-spacing="0" word-spacing="0" font-family="sans-serif" fill="#fff" stroke-width=".351"><tspan style="-inkscape-font-specification:'sans-serif Bold'" y="28.536" x="136.833">0</tspan></text><text style="line-height:1.25;-inkscape-font-specification:'sans-serif Bold'" x="158.051" y="28.613" font-weight="700" font-size="10.737" letter-spacing="0" word-spacing="0" font-family="sans-serif" fill="#fff" stroke-width=".351"><tspan x="158.051" y="28.613" style="-inkscape-font-specification:'sans-serif Bold'">1</tspan></text><path d="M132.146 38.931h16.71v16.441h-16.71zm21.244 0h16.71v16.441h-16.71z" fill="#96aab8"/><g transform="matrix(2.07214 0 0 2.07214 16.591 -1383.483)" fill="#96aab8"><circle cx="76.41" cy="693.665" r=".715"/><circle r=".715" cy="693.665" cx="78.216"/><circle r=".715" cy="693.665" cx="80.021"/></g><text style="line-height:1.25;-inkscape-font-specification:'sans-serif Bold'" x="136.77" y="51.065" font-weight="700" font-size="10.737" letter-spacing="0" word-spacing="0" font-family="sans-serif" fill="#fff" stroke-width=".351"><tspan x="136.77" y="51.065" style="-inkscape-font-specification:'sans-serif Bold'">0</tspan></text><text y="51.065" x="157.773" style="line-height:1.25;-inkscape-font-specification:'sans-serif Bold'" font-weight="700" font-size="10.737" letter-spacing="0" word-spacing="0" font-family="sans-serif" fill="#fff" stroke-width=".351"><tspan style="-inkscape-font-specification:'sans-serif Bold'" y="51.065" x="157.773">0</tspan></text><path d="M111.31 16.407h16.71v16.441h-16.71z" fill="#96aab8"/><text style="line-height:1.25;-inkscape-font-specification:'sans-serif Bold'" x="115.997" y="28.536" font-weight="700" font-size="10.737" letter-spacing="0" word-spacing="0" font-family="sans-serif" fill="#fff" stroke-width=".351"><tspan x="115.997" y="28.536" style="-inkscape-font-specification:'sans-serif Bold'">0</tspan></text><path d="M111.31 38.931h16.71v16.441h-16.71z" fill="#96aab8"/><text y="51.066" x="115.935" style="line-height:1.25;-inkscape-font-specification:'sans-serif Bold'" font-weight="700" font-size="10.737" letter-spacing="0" word-spacing="0" font-family="sans-serif" fill="#fff" stroke-width=".351"><tspan style="-inkscape-font-specification:'sans-serif Bold'" y="51.066" x="115.935">1</tspan></text><path d="M132.146 60.664h16.71v16.441h-16.71zM153.39 60.664h16.71v16.441h-16.71z" fill="#96aab8"/><g transform="matrix(2.07214 0 0 2.07214 16.591 -1361.75)" fill="#96aab8"><circle cx="76.41" cy="693.665" r=".715"/><circle r=".715" cy="693.665" cx="78.216"/><circle r=".715" cy="693.665" cx="80.021"/></g><text style="line-height:1.25;-inkscape-font-specification:'sans-serif Bold'" x="136.833" y="72.794" font-weight="700" font-size="10.737" letter-spacing="0" word-spacing="0" font-family="sans-serif" fill="#fff" stroke-width=".351"><tspan x="136.833" y="72.794" style="-inkscape-font-specification:'sans-serif Bold'">1</tspan></text><text y="72.869" x="158.051" style="line-height:1.25;-inkscape-font-specification:'sans-serif Bold'" font-weight="700" font-size="10.737" letter-spacing="0" word-spacing="0" font-family="sans-serif" fill="#fff" stroke-width=".351"><tspan style="-inkscape-font-specification:'sans-serif Bold'" y="72.869" x="158.051">0</tspan></text><path d="M132.146 83.188h16.71V99.63h-16.71zm21.244 0h16.71V99.63h-16.71z" fill="#96aab8"/><g transform="matrix(2.07214 0 0 2.07214 16.591 -1339.226)" fill="#96aab8"><circle r=".715" cy="693.665" cx="76.41"/><circle cx="78.216" cy="693.665" r=".715"/><circle cx="80.021" cy="693.665" r=".715"/></g><text y="95.322" x="136.77" style="line-height:1.25;-inkscape-font-specification:'sans-serif Bold'" font-weight="700" font-size="10.737" letter-spacing="0" word-spacing="0" font-family="sans-serif" fill="#fff" stroke-width=".351"><tspan style="-inkscape-font-specification:'sans-serif Bold'" y="95.322" x="136.77">1</tspan></text><text style="line-height:1.25;-inkscape-font-specification:'sans-serif Bold'" x="157.773" y="95.322" font-weight="700" font-size="10.737" letter-spacing="0" word-spacing="0" font-family="sans-serif" fill="#fff" stroke-width=".351"><tspan x="157.773" y="95.322" style="-inkscape-font-specification:'sans-serif Bold'">1</tspan></text><path d="M111.31 60.664h16.71v16.441h-16.71z" fill="#96aab8"/><text y="72.794" x="115.997" style="line-height:1.25;-inkscape-font-specification:'sans-serif Bold'" font-weight="700" font-size="10.737" letter-spacing="0" word-spacing="0" font-family="sans-serif" fill="#fff" stroke-width=".351"><tspan style="-inkscape-font-specification:'sans-serif Bold'" y="72.794" x="115.997">0</tspan></text><path d="M111.31 83.188h16.71V99.63h-16.71z" fill="#96aab8"/><text style="line-height:1.25;-inkscape-font-specification:'sans-serif Bold'" x="115.935" y="95.322" font-weight="700" font-size="10.737" letter-spacing="0" word-spacing="0" font-family="sans-serif" fill="#fff" stroke-width=".351"><tspan x="115.935" y="95.322" style="-inkscape-font-specification:'sans-serif Bold'">1</tspan></text><path d="M6.56 14.517h182.205v20.275H6.56zm-.085 22.701H188.68v20.275H6.475zm.161 22.1h182.205v20.275H6.636zm-.108 22.448h182.205v20.276H6.528z" fill="none" stroke="#fff" stroke-width="1.372" stroke-linecap="round"/></svg>