<svg xmlns="http://www.w3.org/2000/svg" viewBox="0 0 303.7 131.2" height="495.9" width="1148"><path fill="#dbcfdb" fill-opacity=".5" d="M198.7 27h105v104.2h-105z"/><path fill="#4e9b99" fill-opacity=".5" d="M49.2 31.7h83v99h-83z"/><path d="M153.1 52.6h-21v-21h21zm0 78h-21v-21h21z" fill="#4e9d9b"/><path fill="#4e9d9b" d="M153.1 73.6h-21v-21h21z" fill-opacity=".5"/><path d="M153.1 91.6h-21v-21h21z" fill="#4e9d9b" fill-opacity=".5"/><path d="M153.1 109.6h-21v-21h21z" fill="#4e9d9b" fill-opacity=".5"/><g stroke-width=".8"><path d="M64.6 61.4h-2.8l.7-1.4.8-1.3.6 1.3z" fill="#2f5e5d"/><path d="M65.9 103.2c-.2 0 18.2-74.2 24.3-39.1 5.4 31.6 18.8 1.6 18.8 1.6s6.4-15 9.3 7.7l2.3 29-45.9.9zM62.6 61h1.2v42.3h-1.2z" fill="#2f5e5d"/><text y="131.7" x="53.5" style="line-height:1.25;-inkscape-font-specification:'sans-serif Bold'" font-weight="700" font-size="3.7" font-family="sans-serif" letter-spacing="0" word-spacing="0" fill="#2f5e5d" stroke-width=".2" transform="translate(-14.4 -86) scale(1.22503)"><tspan style="-inkscape-font-specification:'sans-serif Bold'" y="131.7" x="53.5">P(X)</tspan></text><text style="line-height:1.25;-inkscape-font-specification:'sans-serif Bold'" x="85.1" y="158.2" font-weight="700" font-size="3.7" font-family="sans-serif" letter-spacing="0" word-spacing="0" fill="#2f5e5d" stroke-width=".2" transform="translate(-14.4 -86) scale(1.22503)"><tspan x="85.1" y="158.2" style="-inkscape-font-specification:'sans-serif Bold'">X</tspan></text><text y="148.5" x="80.9" style="line-height:1.25;-inkscape-font-specification:'Ubuntu Condensed, Bold'" font-weight="700" font-size="13" font-family="'Ubuntu Condensed'" letter-spacing="0" word-spacing="0" fill="#fff" transform="translate(-14.4 -86) scale(1.22503)"><tspan style="-inkscape-font-specification:'sans-serif Bold'" y="148.5" x="80.9" font-family="sans-serif" stroke-width="1.6">D</tspan></text><path d="M123.9 102.1v1.2H62.6v-1.2z" fill="#2f5e5d"/><path fill="#2f5e5d" d="M123 101.2v3.1l1.3-.8 1.2-.8-1.2-.8z"/></g><path d="M0 66h28.4v28.5H0z" fill="#dca900"/><g font-weight="700" font-family="sans-serif" letter-spacing="0" word-spacing="0"><text y="130" x="4.8" style="line-height:1.25;-inkscape-font-specification:'sans-serif Bold'" font-size="24.3" stroke-width=".3" fill="#fff" transform="translate(.1 -43)"><tspan style="-inkscape-font-specification:'sans-serif Bold'" y="130" x="4.8">s</tspan></text><g style="line-height:1.25;-inkscape-font-specification:'sans-serif Bold'"><path d="M20.1 84h2v6.2c0 .9-.1 1.5-.5 2-.4.4-1 .6-1.8.6h-1.6v-1.3h1c.3 0 .6 0 .7-.3.2-.1.2-.5.2-1zm0-2.5h2V83h-2z" style="-inkscape-font-specification:'sans-serif Bold'" aria-label="j" font-size="11.6" fill="#fff" stroke-width=".1"/></g><text stroke-width=".1" font-size="10.3" y="132.8" x="16.2" style="line-height:1.25;-inkscape-font-specification:'sans-serif Bold'" transform="matrix(1.12767 0 0 .88679 .1 -43)" fill="#fff"><tspan style="-inkscape-font-specification:'sans-serif Bold'" y="132.8" x="16.2">i</tspan></text><text stroke-width=".3" font-size="24.3" style="line-height:1.25;-inkscape-font-specification:'sans-serif Bold'" x="28.4" y="131" fill="#2f5e5d" transform="translate(.1 -43)"><tspan x="28.4" y="131" style="-inkscape-font-specification:'sans-serif Bold'">=</tspan></text></g><g fill="#fff" font-weight="700" font-family="sans-serif" letter-spacing="0" word-spacing="0" stroke-width=".1"><text y="275" x="9.1" style="line-height:1.25;-inkscape-font-specification:'sans-serif Bold'" font-size="7" transform="translate(118.6 -524.8) scale(2.07323)"><tspan style="-inkscape-font-specification:'sans-serif Bold'" y="275" x="9.1">x</tspan></text><text style="line-height:1.25;-inkscape-font-specification:'sans-serif Bold'" x="13.4" y="276.7" font-size="3.4" transform="translate(118.6 -524.8) scale(2.07323)"><tspan x="13.4" y="276.7" style="-inkscape-font-specification:'sans-serif Bold'">1</tspan></text></g><g word-spacing="0" letter-spacing="0" font-family="sans-serif" font-weight="700" fill="#fff" stroke-width=".1"><text y="275" x="9.1" style="line-height:1.25;-inkscape-font-specification:'sans-serif Bold'" font-size="7" transform="translate(119 -445.8) scale(2.07323)"><tspan style="-inkscape-font-specification:'sans-serif Bold'" y="275" x="9.1">x</tspan></text><text style="line-height:1.25;-inkscape-font-specification:'sans-serif Bold'" x="13.4" y="276.7" font-size="3.4" transform="translate(119 -445.8) scale(2.07323)"><tspan x="13.4" y="276.7" style="-inkscape-font-specification:'sans-serif Bold'">k</tspan></text></g><path d="M132.1 31.6L112.5 82l19.6 48.6z" fill="#eaf4f4" fill-opacity=".5"/><path d="M185.5 92.1h-21.6v-21h21.6z" fill="#428482"/><g fill="#fff" font-weight="700" font-family="sans-serif" letter-spacing="0" word-spacing="0" stroke-width=".1"><text font-size="7" style="line-height:1.25;-inkscape-font-specification:'sans-serif Bold'" x="9.1" y="275" transform="translate(150.7 -484.2) scale(2.07323)"><tspan x="9.1" y="275" style="-inkscape-font-specification:'sans-serif Bold'">x</tspan></text><text font-size="3.4" y="276.7" x="13.4" style="line-height:1.25;-inkscape-font-specification:'sans-serif Bold'" transform="translate(150.7 -484.2) scale(2.07323)"><tspan style="-inkscape-font-specification:'sans-serif Bold'" y="276.7" x="13.4">i</tspan></text></g><path d="M153.1 31.6l14.3 49.9-14.3 49z" fill="#b5d6d5" fill-opacity=".8"/><g stroke-width="1.3"><path d="M236.8 29.5h21.7v22h-21.7z" fill="#a17ca1"/><g fill="#fff" font-weight="700" font-family="sans-serif" letter-spacing="0" word-spacing="0" stroke-width=".2"><text y="740.3" x="-259.6" style="line-height:1.25;-inkscape-font-specification:'sans-serif Bold'" font-size="11.7" transform="matrix(1.58689 0 0 1.61059 655.3 -1146.1)"><tspan style="-inkscape-font-specification:'sans-serif Bold'" y="740.3" x="-259.6">f</tspan></text><text style="line-height:1.25;-inkscape-font-specification:'sans-serif Bold'" x="-255.8" y="742" font-size="5.6" stroke-width=".1" transform="matrix(1.58689 0 0 1.61059 655.3 -1146.1)"><tspan x="-255.8" y="742" style="-inkscape-font-specification:'sans-serif Bold'">j</tspan></text></g></g><g stroke-width=".5"><path d="M286.2 51.4h-21.9V29.5h21.9z" fill="#428482"/><text stroke-width=".1" font-size="7.7" style="line-height:1.25;-inkscape-font-specification:'sans-serif Bold'" x="201.5" y="116.6" font-weight="700" font-family="sans-serif" letter-spacing="0" word-spacing="0" fill="#fff" transform="translate(-127.3 -185) scale(1.97216)"><tspan x="201.5" y="116.6" style="-inkscape-font-specification:'sans-serif Bold'">x</tspan></text><text stroke-width=".1" font-size="3.7" y="118.5" x="206.3" style="line-height:1.25;-inkscape-font-specification:'sans-serif Bold'" font-weight="700" font-family="sans-serif" letter-spacing="0" word-spacing="0" fill="#fff" transform="translate(-127.3 -185) scale(1.97216)"><tspan style="-inkscape-font-specification:'sans-serif Bold'" y="118.5" x="206.3">i</tspan></text><text style="line-height:1.25;-inkscape-font-specification:'sans-serif Bold'" x="207.4" y="118.5" font-size="2.6" stroke-width=".1" font-weight="700" font-family="sans-serif" letter-spacing="0" word-spacing="0" fill="#fff" transform="translate(-127.3 -185) scale(1.97216)"><tspan x="207.4" y="118.5" style="-inkscape-font-specification:'sans-serif Bold'">1</tspan></text></g><g stroke-width=".5"><path fill="#428482" d="M286.2 128.7h-21.9v-21.9h21.9z"/><text y="155.8" x="202.4" style="line-height:1.25;-inkscape-font-specification:'sans-serif Bold'" font-size="7.7" stroke-width=".1" font-weight="700" font-family="sans-serif" letter-spacing="0" word-spacing="0" fill="#fff" transform="translate(-129 -185) scale(1.97216)"><tspan style="-inkscape-font-specification:'sans-serif Bold'" y="155.8" x="202.4">x</tspan></text><text style="line-height:1.25;-inkscape-font-specification:'sans-serif Bold'" x="207.2" y="157.7" font-size="3.7" stroke-width=".1" font-weight="700" font-family="sans-serif" letter-spacing="0" word-spacing="0" fill="#fff" transform="translate(-129 -185) scale(1.97216)"><tspan x="207.2" y="157.7" style="-inkscape-font-specification:'sans-serif Bold'">i</tspan></text><text stroke-width=".1" font-size="1.9" y="157.7" x="208.3" style="line-height:1.25;-inkscape-font-specification:'sans-serif Bold'" font-weight="700" font-family="sans-serif" letter-spacing="0" word-spacing="0" fill="#fff" transform="translate(-129 -185) scale(1.97216)"><tspan style="-inkscape-font-specification:'sans-serif Bold'" y="157.7" x="208.3">m</tspan></text></g><g stroke-width=".5" fill="#428482" fill-opacity=".5"><path d="M286.2 76.6h-21.9V51.4h21.9z"/><path d="M286.2 91.7h-21.9V66.5h21.9z"/><path d="M286.2 106.8h-21.9V81.5h21.9z"/></g><g stroke-width="1.3"><path d="M236.8 106.8h21.7v22h-21.7z" fill="#a17ca1"/><g word-spacing="0" letter-spacing="0" font-family="sans-serif" font-weight="700" fill="#fff" stroke-width=".2"><text font-size="11.7" style="line-height:1.25;-inkscape-font-specification:'sans-serif Bold'" x="-259.6" y="740.3" transform="matrix(1.58689 0 0 1.61059 655.3 -1068.8)"><tspan x="-259.6" y="740.3" style="-inkscape-font-specification:'sans-serif Bold'">f</tspan></text><text stroke-width=".1" font-size="5.6" y="742" x="-255.8" style="line-height:1.25;-inkscape-font-specification:'sans-serif Bold'" transform="matrix(1.58689 0 0 1.61059 655.3 -1068.8)"><tspan style="-inkscape-font-specification:'sans-serif Bold'" y="742" x="-255.8">j</tspan></text></g></g><g fill="#a17ca1" fill-opacity=".5" stroke-width=".5"><path d="M258.5 76.6h-21.9V51.4h21.9z"/><path d="M258.5 91.7h-21.9V66.5h21.9z"/><path d="M258.5 106.8h-21.9V81.5h21.9z"/></g><path d="M198.7 27L182 81.6l16.6 49.6z" fill="#dcd0dc" fill-opacity=".5"/><g fill="#261b26" stroke-width=".3" font-size="18.3" font-weight="700" font-family="sans-serif" letter-spacing="0" word-spacing="0"><text style="line-height:1.25;-inkscape-font-specification:'sans-serif Bold'" x="240.1" y="85.5" transform="matrix(.79662 0 0 1.2553 7.3 -59)"><tspan x="240.1" y="85.5" style="-inkscape-font-specification:'sans-serif Bold'">(</tspan></text><text y="146.5" x="240.1" style="line-height:1.25;-inkscape-font-specification:'sans-serif Bold'" transform="matrix(.79662 0 0 1.2553 7.3 -59)"><tspan style="-inkscape-font-specification:'sans-serif Bold'" y="146.5" x="240.1">(</tspan></text></g><g fill="#5b415b" font-size="18.3" stroke-width=".3" font-weight="700" font-family="sans-serif" letter-spacing="0" word-spacing="0"><text y="84.6" x="-344.3" style="line-height:1.25;-inkscape-font-specification:'sans-serif Bold'" transform="matrix(-.79662 0 0 1.2553 18 -57.8)"><tspan style="-inkscape-font-specification:'sans-serif Bold'" y="84.6" x="-344.3">(</tspan></text><text style="line-height:1.25;-inkscape-font-specification:'sans-serif Bold'" x="-344.3" y="145.6" transform="matrix(-.79662 0 0 1.2553 18 -57.8)"><tspan x="-344.3" y="145.6" style="-inkscape-font-specification:'sans-serif Bold'">(</tspan></text></g><g stroke-width=".5"><path fill="#428482" d="M228.6 51.4h-22V29.5h22z"/><text y="116.6" x="201.5" style="line-height:1.25;-inkscape-font-specification:'sans-serif Bold'" font-size="7.7" stroke-width=".1" font-weight="700" font-family="sans-serif" letter-spacing="0" word-spacing="0" fill="#fff" transform="translate(-185 -185) scale(1.97216)"><tspan style="-inkscape-font-specification:'sans-serif Bold'" y="116.6" x="201.5">x</tspan></text><text style="line-height:1.25;-inkscape-font-specification:'sans-serif Bold'" x="206.3" y="118.5" font-size="3.7" stroke-width=".1" font-weight="700" font-family="sans-serif" letter-spacing="0" word-spacing="0" fill="#fff" transform="translate(-185 -185) scale(1.97216)"><tspan x="206.3" y="118.5" style="-inkscape-font-specification:'sans-serif Bold'">i</tspan></text><text stroke-width=".1" font-size="2.6" y="118.5" x="207.4" style="line-height:1.25;-inkscape-font-specification:'sans-serif Bold'" font-weight="700" font-family="sans-serif" letter-spacing="0" word-spacing="0" fill="#fff" transform="translate(-185 -185) scale(1.97216)"><tspan style="-inkscape-font-specification:'sans-serif Bold'" y="118.5" x="207.4">1</tspan></text></g><g stroke-width=".5"><path d="M228.6 128.7h-22v-21.9h22z" fill="#428482"/><text stroke-width=".1" font-size="7.7" style="line-height:1.25;-inkscape-font-specification:'sans-serif Bold'" x="202.4" y="155.8" font-weight="700" font-family="sans-serif" letter-spacing="0" word-spacing="0" fill="#fff" transform="translate(-186.6 -185) scale(1.97216)"><tspan x="202.4" y="155.8" style="-inkscape-font-specification:'sans-serif Bold'">x</tspan></text><text stroke-width=".1" font-size="3.7" y="157.7" x="207.2" style="line-height:1.25;-inkscape-font-specification:'sans-serif Bold'" font-weight="700" font-family="sans-serif" letter-spacing="0" word-spacing="0" fill="#fff" transform="translate(-186.6 -185) scale(1.97216)"><tspan style="-inkscape-font-specification:'sans-serif Bold'" y="157.7" x="207.2">i</tspan></text><text style="line-height:1.25;-inkscape-font-specification:'sans-serif Bold'" x="208.3" y="157.7" font-size="1.9" stroke-width=".1" font-weight="700" font-family="sans-serif" letter-spacing="0" word-spacing="0" fill="#fff" transform="translate(-186.6 -185) scale(1.97216)"><tspan x="208.3" y="157.7" style="-inkscape-font-specification:'sans-serif Bold'">m</tspan></text></g><g stroke-width=".5" fill="#428482" fill-opacity=".5"><path d="M228.6 76.6h-22V51.4h22z"/><path d="M228.6 91.7h-22V66.5h22z"/><path d="M228.6 106.8h-22V81.5h22z"/></g><text y="108.1" x="222.9" style="line-height:1.25;-inkscape-font-specification:'sans-serif Bold'" font-size="14.5" stroke-width=".3" font-weight="700" font-family="sans-serif" letter-spacing="0" word-spacing="0" fill="#261b26" transform="translate(7.3 -59)"><tspan style="-inkscape-font-specification:'sans-serif Bold'" y="108.1" x="222.9">,</tspan></text><text stroke-width=".3" font-size="14.5" style="line-height:1.25;-inkscape-font-specification:'sans-serif Bold'" x="223.5" y="185.1" font-weight="700" font-family="sans-serif" letter-spacing="0" word-spacing="0" fill="#261b26" transform="translate(7.3 -59)"><tspan x="223.5" y="185.1" style="-inkscape-font-specification:'sans-serif Bold'">,</tspan></text><g fill="#261b26" stroke-width=".3" font-size="18.3" font-weight="700" font-family="sans-serif" letter-spacing="0" word-spacing="0"><text style="line-height:1.25;-inkscape-font-specification:'sans-serif Bold'" x="-344.3" y="84.6" transform="matrix(-.79662 0 0 1.2553 24 -57.8)"><tspan x="-344.3" y="84.6" style="-inkscape-font-specification:'sans-serif Bold'">(</tspan></text><text y="145.6" x="-344.3" style="line-height:1.25;-inkscape-font-specification:'sans-serif Bold'" transform="matrix(-.79662 0 0 1.2553 24 -57.8)"><tspan style="-inkscape-font-specification:'sans-serif Bold'" y="145.6" x="-344.3">(</tspan></text></g><text y="85.5" x="314.9" style="line-height:1.25;-inkscape-font-specification:'sans-serif Bold'" font-size="18.3" stroke-width=".3" transform="matrix(.79662 0 0 1.2553 7.3 -59)" font-weight="700" font-family="sans-serif" letter-spacing="0" word-spacing="0" fill="#5b415b"><tspan style="-inkscape-font-specification:'sans-serif Bold'" y="85.5" x="314.9">(</tspan></text><text transform="matrix(.79662 0 0 1.2553 7.3 -59)" stroke-width=".3" font-size="18.3" style="line-height:1.25;-inkscape-font-specification:'sans-serif Bold'" x="314.9" y="146.5" font-weight="700" font-family="sans-serif" letter-spacing="0" word-spacing="0" fill="#5b415b"><tspan x="314.9" y="146.5" style="-inkscape-font-specification:'sans-serif Bold'">(</tspan></text><path d="M50 22.6v-1.9h101.5v2z" fill="#2f5e5d"/><path d="M101.8 21.5v-5.6h2.3v5.6z" fill="#2f5e5d"/><text y="72.5" x="40.4" style="line-height:1.25;-inkscape-font-specification:'Ubuntu Condensed, Bold'" font-weight="700" font-size="7.7" font-family="'Ubuntu Condensed'" letter-spacing="0" word-spacing="0" fill="#2f5e5d" stroke-width=".2" transform="translate(7.3 -59)"><tspan style="-inkscape-font-specification:'sans-serif Bold'" y="72.5" x="40.4" font-family="sans-serif" stroke-width=".8">all possible training data</tspan></text><text y="62.9" x="200.8" style="line-height:1.05;-inkscape-font-specification:'Ubuntu Condensed, Bold';text-align:center;white-space:pre;inline-size:53.7263" font-weight="700" font-size="6.3" font-family="'Ubuntu Condensed'" letter-spacing="0" word-spacing="0" fill="#2f5e5d" stroke-width=".2" transform="translate(15.4 -56.7)" text-anchor="middle"><tspan x="200.8" y="62.9"><tspan style="-inkscape-font-specification:'sans-serif Bold';text-align:center" font-family="sans-serif" stroke-width=".8">training </tspan></tspan><tspan x="200.8" y="69.8"><tspan style="-inkscape-font-specification:'sans-serif Bold';text-align:center" font-family="sans-serif" stroke-width=".8">data</tspan></tspan></text><g fill="#2f5e5d"><path d="M207.3 20.9v-1.6h21.3v1.6z"/><path d="M217.1 20.2v-4.8h1.7v4.8zM205.6 24v-4.8h1.7V24zm21.3 0v-4.8h1.7V24z"/></g><text stroke-width=".2" fill="#5b415b" word-spacing="0" letter-spacing="0" font-family="'Ubuntu Condensed'" font-size="6.3" font-weight="700" style="line-height:1.25;-inkscape-font-specification:'Ubuntu Condensed, Bold'" x="242.6" y="71.7" transform="translate(7.3 -59)"><tspan x="242.6" y="71.7"><tspan font-family="sans-serif" x="242.6" y="71.7" style="-inkscape-font-specification:'sans-serif Bold'" stroke-width=".8">function</tspan></tspan></text><path d="M238 21.4v-1.6h49v1.6z" fill="#5b415b"/><path d="M264.2 20.7v-4.8h1.6v4.8zm-27 3.9v-4.8h1.7v4.8zm49.4 0v-4.8h1.6v4.8z" fill="#5b415b"/><text y="63.5" x="242.6" style="line-height:1.25;-inkscape-font-specification:'Ubuntu Condensed, Bold'" font-weight="700" font-size="6" font-family="'Ubuntu Condensed'" letter-spacing="0" word-spacing="0" fill="#5b415b" stroke-width=".2" transform="translate(7.3 -59)"><tspan y="63.5" x="242.6" style="-inkscape-font-specification:'sans-serif Bold'" font-family="sans-serif">applying</tspan></text><path d="M50 28.2v-5.6h2.3v5.6zm99.2 0v-5.6h2.3v5.6z" fill="#2f5e5d"/></svg>