<svg xmlns="http://www.w3.org/2000/svg" viewBox="0 0 303.737 131.209" height="495.909" width="1147.982"><path fill="#dbcfdb" fill-opacity=".502" d="M198.656 27.014h105.08V131.21h-105.08z"/><path fill="#4e9b99" fill-opacity=".502" d="M49.192 31.667h83.022v99.067H49.192z"/><path d="M153.144 52.595h-20.997V31.598h20.997zM153.144 130.577h-20.997V109.58h20.997z" fill="#4e9d9b"/><path fill="#4e9d9b" d="M153.144 73.592h-20.997V52.595h20.997z" fill-opacity=".5"/><path d="M153.144 91.586h-20.997V70.589h20.997z" fill="#4e9d9b" fill-opacity=".5"/><path d="M153.144 109.58h-20.997V88.582h20.997z" fill="#4e9d9b" fill-opacity=".5"/><g stroke-width=".816"><path d="M64.63 61.38l-1.391-.008-1.393-.008.703-1.335.702-1.334.69 1.343z" fill="#2f5e5d"/><path d="M65.899 103.194c-.207.015 18.175-74.158 24.262-39.114 5.484 31.57 18.824 1.632 18.824 1.632s6.432-15.094 9.35 7.705l2.237 28.977-45.841.865zm-3.262-42.15h1.204v42.277h-1.204z" fill="#2f5e5d"/><text y="131.686" x="53.533" style="line-height:1.25;-inkscape-font-specification:'sans-serif Bold'" font-weight="700" font-size="3.677" font-family="sans-serif" letter-spacing="0" word-spacing="0" fill="#2f5e5d" stroke-width=".239" transform="matrix(1.22503 0 0 1.22503 -14.403 -86.051)"><tspan style="-inkscape-font-specification:'sans-serif Bold'" y="131.686" x="53.533">P(X)</tspan></text><text style="line-height:1.25;-inkscape-font-specification:'sans-serif Bold'" x="85.119" y="158.183" font-weight="700" font-size="3.677" font-family="sans-serif" letter-spacing="0" word-spacing="0" fill="#2f5e5d" stroke-width=".239" transform="matrix(1.22503 0 0 1.22503 -14.403 -86.051)"><tspan x="85.119" y="158.183" style="-inkscape-font-specification:'sans-serif Bold'">X</tspan></text><text y="148.466" x="80.903" style="line-height:1.25;-inkscape-font-specification:'Ubuntu Condensed, Bold'" font-weight="700" font-size="12.952" font-family="'Ubuntu Condensed'" letter-spacing="0" word-spacing="0" fill="#fff" stroke-width=".844" transform="matrix(1.22503 0 0 1.22503 -14.403 -86.051)"><tspan style="-inkscape-font-specification:'sans-serif Bold'" y="148.466" x="80.903" font-family="sans-serif" stroke-width="1.646">D</tspan></text><path d="M123.853 102.117v1.204H62.636v-1.204z" fill="#2f5e5d"/><path fill="#2f5e5d" d="M123.06 101.173l.007 1.546.007 1.546 1.202-.78 1.202-.78-1.21-.766z"/></g><path d="M0 66.095h28.383v28.383H0z" fill="#dca900"/><g font-weight="700" font-family="sans-serif" letter-spacing="0" word-spacing="0"><text y="129.979" x="4.815" style="line-height:1.25;-inkscape-font-specification:'sans-serif Bold'" font-size="24.338" stroke-width=".293" fill="#fff" transform="translate(.13 -43.063)"><tspan style="-inkscape-font-specification:'sans-serif Bold'" y="129.979" x="4.815">s</tspan></text><g style="line-height:1.25;-inkscape-font-specification:'sans-serif Bold'"><path d="M20.142 83.963h2.035v6.255c0 .853-.204 1.503-.614 1.95-.41.452-1.003.677-1.78.677h-1.535V91.51h.881c.387 0 .652-.087.797-.262.144-.174.216-.517.216-1.029zm0-2.479h2.035v1.66h-2.035z" style="-inkscape-font-specification:'sans-serif Bold'" aria-label="j" font-size="11.645" fill="#fff" stroke-width=".14"/></g><text stroke-width=".14" font-size="10.327" y="132.781" x="16.227" style="line-height:1.25;-inkscape-font-specification:'sans-serif Bold'" transform="matrix(1.12767 0 0 .88679 .13 -43.063)" fill="#fff"><tspan style="-inkscape-font-specification:'sans-serif Bold'" y="132.781" x="16.227">i</tspan></text><text stroke-width=".293" font-size="24.338" style="line-height:1.25;-inkscape-font-specification:'sans-serif Bold'" x="28.356" y="130.967" fill="#2f5e5d" transform="translate(.13 -43.063)"><tspan x="28.356" y="130.967" style="-inkscape-font-specification:'sans-serif Bold'">=</tspan></text></g><g fill="#fff" font-weight="700" font-family="sans-serif" letter-spacing="0" word-spacing="0" stroke-width=".16"><text y="275.026" x="9.079" style="line-height:1.25;-inkscape-font-specification:'sans-serif Bold'" font-size="7.013" stroke-width=".141" transform="matrix(2.07323 0 0 2.07323 118.642 -524.791)"><tspan style="-inkscape-font-specification:'sans-serif Bold'" y="275.026" x="9.079">x</tspan></text><text style="line-height:1.25;-inkscape-font-specification:'sans-serif Bold'" x="13.398" y="276.695" font-size="3.356" stroke-width=".068" transform="matrix(2.07323 0 0 2.07323 118.642 -524.791)"><tspan x="13.398" y="276.695" style="-inkscape-font-specification:'sans-serif Bold'">1</tspan></text></g><g word-spacing="0" letter-spacing="0" font-family="sans-serif" font-weight="700" fill="#fff" stroke-width=".16"><text y="275.026" x="9.079" style="line-height:1.25;-inkscape-font-specification:'sans-serif Bold'" font-size="7.013" stroke-width=".141" transform="matrix(2.07323 0 0 2.07323 118.972 -445.75)"><tspan style="-inkscape-font-specification:'sans-serif Bold'" y="275.026" x="9.079">x</tspan></text><text style="line-height:1.25;-inkscape-font-specification:'sans-serif Bold'" x="13.398" y="276.695" font-size="3.356" stroke-width=".068" transform="matrix(2.07323 0 0 2.07323 118.972 -445.75)"><tspan x="13.398" y="276.695" style="-inkscape-font-specification:'sans-serif Bold'">k</tspan></text></g><path d="M132.147 31.598L112.48 82.036l19.666 48.541z" fill="#eaf4f4" fill-opacity=".502"/><path d="M185.488 92.1h-21.607V71.104h21.607z" fill="#428482"/><g fill="#fff" font-weight="700" font-family="sans-serif" letter-spacing="0" word-spacing="0" stroke-width=".16"><text stroke-width=".141" font-size="7.013" style="line-height:1.25;-inkscape-font-specification:'sans-serif Bold'" x="9.079" y="275.026" transform="matrix(2.07323 0 0 2.07323 150.707 -484.227)"><tspan x="9.079" y="275.026" style="-inkscape-font-specification:'sans-serif Bold'">x</tspan></text><text stroke-width=".068" font-size="3.356" y="276.695" x="13.398" style="line-height:1.25;-inkscape-font-specification:'sans-serif Bold'" transform="matrix(2.07323 0 0 2.07323 150.707 -484.227)"><tspan style="-inkscape-font-specification:'sans-serif Bold'" y="276.695" x="13.398">i</tspan></text></g><path d="M153.144 31.598l14.297 49.904-14.297 49.075z" fill="#b5d6d5" fill-opacity=".753"/><g stroke-width="1.297"><path d="M236.772 29.498h21.724v22.05h-21.724z" fill="#a17ca1"/><g fill="#fff" font-weight="700" font-family="sans-serif" letter-spacing="0" word-spacing="0" stroke-width=".208"><text y="740.317" x="-259.623" style="line-height:1.25;-inkscape-font-specification:'sans-serif Bold'" font-size="11.739" stroke-width=".183" transform="matrix(1.58689 0 0 1.61059 655.264 -1146.14)"><tspan style="-inkscape-font-specification:'sans-serif Bold'" y="740.317" x="-259.623">f</tspan></text><text style="line-height:1.25;-inkscape-font-specification:'sans-serif Bold'" x="-255.803" y="741.987" font-size="5.617" stroke-width=".088" transform="matrix(1.58689 0 0 1.61059 655.264 -1146.14)"><tspan x="-255.803" y="741.987" style="-inkscape-font-specification:'sans-serif Bold'">j</tspan></text></g></g><g stroke-width=".507"><path d="M286.204 51.385h-21.887V29.498h21.887z" fill="#428482"/><text stroke-width=".149" font-size="7.685" style="line-height:1.25;-inkscape-font-specification:'sans-serif Bold'" x="201.54" y="116.637" font-weight="700" font-family="sans-serif" letter-spacing="0" word-spacing="0" fill="#fff" transform="matrix(1.97216 0 0 1.97216 -127.264 -185.038)"><tspan x="201.54" y="116.637" style="-inkscape-font-specification:'sans-serif Bold'">x</tspan></text><text stroke-width=".071" font-size="3.677" y="118.466" x="206.273" style="line-height:1.25;-inkscape-font-specification:'sans-serif Bold'" font-weight="700" font-family="sans-serif" letter-spacing="0" word-spacing="0" fill="#fff" transform="matrix(1.97216 0 0 1.97216 -127.264 -185.038)"><tspan style="-inkscape-font-specification:'sans-serif Bold'" y="118.466" x="206.273">i</tspan></text><text style="line-height:1.25;-inkscape-font-specification:'sans-serif Bold'" x="207.37" y="118.519" font-size="2.608" stroke-width=".071" font-weight="700" font-family="sans-serif" letter-spacing="0" word-spacing="0" fill="#fff" transform="matrix(1.97216 0 0 1.97216 -127.264 -185.038)"><tspan x="207.37" y="118.519" style="-inkscape-font-specification:'sans-serif Bold'">1</tspan></text></g><g stroke-width=".507"><path fill="#428482" d="M286.204 128.693h-21.887v-21.887h21.887z"/><text y="155.837" x="202.417" style="line-height:1.25;-inkscape-font-specification:'sans-serif Bold'" font-size="7.685" stroke-width=".149" font-weight="700" font-family="sans-serif" letter-spacing="0" word-spacing="0" fill="#fff" transform="matrix(1.97216 0 0 1.97216 -128.993 -185.038)"><tspan style="-inkscape-font-specification:'sans-serif Bold'" y="155.837" x="202.417">x</tspan></text><text style="line-height:1.25;-inkscape-font-specification:'sans-serif Bold'" x="207.15" y="157.666" font-size="3.677" stroke-width=".071" font-weight="700" font-family="sans-serif" letter-spacing="0" word-spacing="0" fill="#fff" transform="matrix(1.97216 0 0 1.97216 -128.993 -185.038)"><tspan x="207.15" y="157.666" style="-inkscape-font-specification:'sans-serif Bold'">i</tspan></text><text stroke-width=".071" font-size="1.869" y="157.696" x="208.295" style="line-height:1.25;-inkscape-font-specification:'sans-serif Bold'" font-weight="700" font-family="sans-serif" letter-spacing="0" word-spacing="0" fill="#fff" transform="matrix(1.97216 0 0 1.97216 -128.993 -185.038)"><tspan style="-inkscape-font-specification:'sans-serif Bold'" y="157.696" x="208.295">m</tspan></text></g><g stroke-width=".472" fill="#428482" fill-opacity=".5"><path d="M286.204 76.647h-21.887V51.385h21.887z"/><path d="M286.204 91.727h-21.887V66.465h21.887z"/><path d="M286.204 106.806h-21.887V81.544h21.887z"/></g><g stroke-width="1.297"><path d="M236.772 106.806h21.724v22.05h-21.724z" fill="#a17ca1"/><g word-spacing="0" letter-spacing="0" font-family="sans-serif" font-weight="700" fill="#fff" stroke-width=".208"><text stroke-width=".183" font-size="11.739" style="line-height:1.25;-inkscape-font-specification:'sans-serif Bold'" x="-259.623" y="740.317" transform="matrix(1.58689 0 0 1.61059 655.264 -1068.831)"><tspan x="-259.623" y="740.317" style="-inkscape-font-specification:'sans-serif Bold'">f</tspan></text><text stroke-width=".088" font-size="5.617" y="741.987" x="-255.803" style="line-height:1.25;-inkscape-font-specification:'sans-serif Bold'" transform="matrix(1.58689 0 0 1.61059 655.264 -1068.831)"><tspan style="-inkscape-font-specification:'sans-serif Bold'" y="741.987" x="-255.803">j</tspan></text></g></g><g fill="#a17ca1" fill-opacity=".5" stroke-width=".472"><path d="M258.496 76.647H236.61V51.385h21.886z"/><path d="M258.496 91.727H236.61V66.465h21.886z"/><path d="M258.496 106.806H236.61V81.544h21.886z"/></g><path d="M198.657 27.015l-16.543 54.614 16.543 49.58z" fill="#dcd0dc" fill-opacity=".502"/><g fill="#261b26" stroke-width=".293" font-size="18.252" font-weight="700" font-family="sans-serif" letter-spacing="0" word-spacing="0"><text transform="matrix(.79662 0 0 1.2553 7.345 -58.929)" style="line-height:1.25;-inkscape-font-specification:'sans-serif Bold'" x="240.095" y="85.484"><tspan x="240.095" y="85.484" style="-inkscape-font-specification:'sans-serif Bold'">(</tspan></text><text y="146.473" x="240.095" style="line-height:1.25;-inkscape-font-specification:'sans-serif Bold'" transform="matrix(.79662 0 0 1.2553 7.345 -58.929)"><tspan style="-inkscape-font-specification:'sans-serif Bold'" y="146.473" x="240.095">(</tspan></text></g><g fill="#5b415b" font-size="18.252" stroke-width=".293" font-weight="700" font-family="sans-serif" letter-spacing="0" word-spacing="0"><text y="84.586" x="-344.341" style="line-height:1.25;-inkscape-font-specification:'sans-serif Bold'" transform="matrix(-.79662 0 0 1.2553 17.929 -57.8)"><tspan style="-inkscape-font-specification:'sans-serif Bold'" y="84.586" x="-344.341">(</tspan></text><text style="line-height:1.25;-inkscape-font-specification:'sans-serif Bold'" x="-344.341" y="145.574" transform="matrix(-.79662 0 0 1.2553 17.929 -57.8)"><tspan x="-344.341" y="145.574" style="-inkscape-font-specification:'sans-serif Bold'">(</tspan></text></g><g stroke-width=".507"><path fill="#428482" d="M228.552 51.386h-21.887V29.499h21.887z"/><text y="116.637" x="201.54" style="line-height:1.25;-inkscape-font-specification:'sans-serif Bold'" font-size="7.685" stroke-width=".149" font-weight="700" font-family="sans-serif" letter-spacing="0" word-spacing="0" fill="#fff" transform="matrix(1.97216 0 0 1.97216 -184.916 -185.037)"><tspan style="-inkscape-font-specification:'sans-serif Bold'" y="116.637" x="201.54">x</tspan></text><text style="line-height:1.25;-inkscape-font-specification:'sans-serif Bold'" x="206.273" y="118.466" font-size="3.677" stroke-width=".071" font-weight="700" font-family="sans-serif" letter-spacing="0" word-spacing="0" fill="#fff" transform="matrix(1.97216 0 0 1.97216 -184.916 -185.037)"><tspan x="206.273" y="118.466" style="-inkscape-font-specification:'sans-serif Bold'">i</tspan></text><text stroke-width=".071" font-size="2.608" y="118.519" x="207.37" style="line-height:1.25;-inkscape-font-specification:'sans-serif Bold'" font-weight="700" font-family="sans-serif" letter-spacing="0" word-spacing="0" fill="#fff" transform="matrix(1.97216 0 0 1.97216 -184.916 -185.037)"><tspan style="-inkscape-font-specification:'sans-serif Bold'" y="118.519" x="207.37">1</tspan></text></g><g stroke-width=".507"><path d="M228.552 128.694h-21.887v-21.887h21.887z" fill="#428482"/><text stroke-width=".149" font-size="7.685" style="line-height:1.25;-inkscape-font-specification:'sans-serif Bold'" x="202.417" y="155.837" font-weight="700" font-family="sans-serif" letter-spacing="0" word-spacing="0" fill="#fff" transform="matrix(1.97216 0 0 1.97216 -186.646 -185.037)"><tspan x="202.417" y="155.837" style="-inkscape-font-specification:'sans-serif Bold'">x</tspan></text><text stroke-width=".071" font-size="3.677" y="157.666" x="207.15" style="line-height:1.25;-inkscape-font-specification:'sans-serif Bold'" font-weight="700" font-family="sans-serif" letter-spacing="0" word-spacing="0" fill="#fff" transform="matrix(1.97216 0 0 1.97216 -186.646 -185.037)"><tspan style="-inkscape-font-specification:'sans-serif Bold'" y="157.666" x="207.15">i</tspan></text><text style="line-height:1.25;-inkscape-font-specification:'sans-serif Bold'" x="208.295" y="157.696" font-size="1.869" stroke-width=".071" font-weight="700" font-family="sans-serif" letter-spacing="0" word-spacing="0" fill="#fff" transform="matrix(1.97216 0 0 1.97216 -186.646 -185.037)"><tspan x="208.295" y="157.696" style="-inkscape-font-specification:'sans-serif Bold'">m</tspan></text></g><g stroke-width=".472" fill="#428482" fill-opacity=".5"><path d="M228.552 76.648h-21.887V51.386h21.887z"/><path d="M228.552 91.727h-21.887V66.465h21.887z"/><path d="M228.552 106.807h-21.887V81.545h21.887z"/></g><text y="108.057" x="222.868" style="line-height:1.25;-inkscape-font-specification:'sans-serif Bold'" font-size="14.54" stroke-width=".293" font-weight="700" font-family="sans-serif" letter-spacing="0" word-spacing="0" fill="#261b26" transform="translate(7.345 -58.929)"><tspan style="-inkscape-font-specification:'sans-serif Bold'" y="108.057" x="222.868">,</tspan></text><text stroke-width=".293" font-size="14.54" style="line-height:1.25;-inkscape-font-specification:'sans-serif Bold'" x="223.459" y="185.103" font-weight="700" font-family="sans-serif" letter-spacing="0" word-spacing="0" fill="#261b26" transform="translate(7.345 -58.929)"><tspan x="223.459" y="185.103" style="-inkscape-font-specification:'sans-serif Bold'">,</tspan></text><g fill="#261b26" stroke-width=".293" font-size="18.252" font-weight="700" font-family="sans-serif" letter-spacing="0" word-spacing="0"><text style="line-height:1.25;-inkscape-font-specification:'sans-serif Bold'" x="-344.341" y="84.586" transform="matrix(-.79662 0 0 1.2553 23.972 -57.8)"><tspan x="-344.341" y="84.586" style="-inkscape-font-specification:'sans-serif Bold'">(</tspan></text><text y="145.574" x="-344.341" style="line-height:1.25;-inkscape-font-specification:'sans-serif Bold'" transform="matrix(-.79662 0 0 1.2553 23.972 -57.8)"><tspan style="-inkscape-font-specification:'sans-serif Bold'" y="145.574" x="-344.341">(</tspan></text></g><text y="85.484" x="314.927" style="line-height:1.25;-inkscape-font-specification:'sans-serif Bold'" font-size="18.252" stroke-width=".293" transform="matrix(.79662 0 0 1.2553 7.345 -58.929)" font-weight="700" font-family="sans-serif" letter-spacing="0" word-spacing="0" fill="#5b415b"><tspan style="-inkscape-font-specification:'sans-serif Bold'" y="85.484" x="314.927">(</tspan></text><text transform="matrix(.79662 0 0 1.2553 7.345 -58.929)" stroke-width=".293" font-size="18.252" style="line-height:1.25;-inkscape-font-specification:'sans-serif Bold'" x="314.927" y="146.473" font-weight="700" font-family="sans-serif" letter-spacing="0" word-spacing="0" fill="#5b415b"><tspan x="314.927" y="146.473" style="-inkscape-font-specification:'sans-serif Bold'">(</tspan></text><path d="M49.934 22.618v-1.88h101.561v1.88z" fill="#2f5e5d"/><path d="M101.779 21.451v-5.536h2.34v5.536z" fill="#2f5e5d"/><text y="72.517" x="40.366" style="line-height:1.25;-inkscape-font-specification:'Ubuntu Condensed, Bold'" font-weight="700" font-size="7.717" font-family="'Ubuntu Condensed'" letter-spacing="0" word-spacing="0" fill="#2f5e5d" stroke-width=".214" transform="translate(7.345 -58.929)"><tspan style="-inkscape-font-specification:'sans-serif Bold'" y="72.517" x="40.366" font-family="sans-serif" stroke-width=".809">all possible training data</tspan></text><text y="62.892" x="200.786" style="line-height:1.05;-inkscape-font-specification:'Ubuntu Condensed, Bold';text-align:center;white-space:pre;inline-size:53.7263" font-weight="700" font-size="6.282" font-family="'Ubuntu Condensed'" letter-spacing="0" word-spacing="0" fill="#2f5e5d" stroke-width=".214" transform="translate(15.372 -56.655)" text-anchor="middle"><tspan x="200.786" y="62.892"><tspan style="-inkscape-font-specification:'sans-serif Bold';text-align:center" font-family="sans-serif" stroke-width=".809">training </tspan></tspan><tspan x="200.786" y="69.788"><tspan style="-inkscape-font-specification:'sans-serif Bold';text-align:center" font-family="sans-serif" stroke-width=".809">data</tspan></tspan></text><g fill="#2f5e5d"><path d="M207.314 20.904V19.27h21.307v1.635z"/><path d="M217.13 20.187v-4.814h1.674v4.814zM205.64 24.083V19.27h1.674v4.814zM226.948 24.083V19.27h1.673v4.814z"/></g><text stroke-width=".214" fill="#5b415b" word-spacing="0" letter-spacing="0" font-family="'Ubuntu Condensed'" font-size="6.282" font-weight="700" style="line-height:1.25;-inkscape-font-specification:'Ubuntu Condensed, Bold'" x="242.582" y="71.735" transform="translate(7.345 -58.929)"><tspan x="242.582" y="71.735"> <tspan font-family="sans-serif" x="242.582" y="71.735" style="-inkscape-font-specification:'sans-serif Bold'" stroke-width=".809">function</tspan> </tspan></text><path d="M237.966 21.412v-1.635h49.03v1.635z" fill="#5b415b"/><path d="M264.173 20.695v-4.814h1.673v4.814zM237.218 24.591v-4.814h1.673v4.814zM286.57 24.591v-4.814h1.674v4.814z" fill="#5b415b"/><text y="63.485" x="242.595" style="line-height:1.25;-inkscape-font-specification:'Ubuntu Condensed, Bold'" font-weight="700" font-size="5.997" font-family="'Ubuntu Condensed'" letter-spacing="0" word-spacing="0" fill="#5b415b" stroke-width=".214" transform="translate(7.345 -58.929)"><tspan y="63.485" x="242.595" style="-inkscape-font-specification:'sans-serif Bold'" font-family="sans-serif">applying</tspan></text><path d="M49.934 28.154v-5.536h2.34v5.536zM149.155 28.154v-5.536h2.34v5.536z" fill="#2f5e5d"/></svg>