<svg xmlns="http://www.w3.org/2000/svg" width="1247.6" height="1204.9" viewBox="0 0 330.1 318.8"><g transform="translate(108.3 -9.3)"><g transform="translate(-9.8 -21.2)"><circle r="33.1" cy="65.6" cx="66.8" style="opacity:1;fill:#fff;fill-opacity:1;stroke:#1c1b1b;stroke-width:3.96875;stroke-linecap:butt;stroke-linejoin:round;stroke-miterlimit:4;stroke-dasharray:none;stroke-opacity:1"/><circle r="33.1" cy="189.9" cx="66.8" style="opacity:1;fill:#fff;fill-opacity:1;stroke:#1c1b1b;stroke-width:3.96875;stroke-linecap:butt;stroke-linejoin:round;stroke-miterlimit:4;stroke-dasharray:none;stroke-opacity:1"/><circle r="33.1" cy="314.1" cx="66.8" style="opacity:1;fill:#fff;fill-opacity:1;stroke:#1c1b1b;stroke-width:3.96875;stroke-linecap:butt;stroke-linejoin:round;stroke-miterlimit:4;stroke-dasharray:none;stroke-opacity:1"/></g><g transform="translate(1 -18.3)"><circle transform="scale(-1 1)" r="33.1" cy="124.4" cx="-185.6" style="opacity:1;fill:#fff;fill-opacity:1;stroke:#1c1b1b;stroke-width:3.96875;stroke-linecap:butt;stroke-linejoin:round;stroke-miterlimit:4;stroke-dasharray:none;stroke-opacity:1"/><circle transform="scale(-1 1)" r="33.1" cy="249.7" cx="-185.6" style="opacity:1;fill:#fff;fill-opacity:1;stroke:#1c1b1b;stroke-width:3.96875;stroke-linecap:butt;stroke-linejoin:round;stroke-miterlimit:4;stroke-dasharray:none;stroke-opacity:1"/></g><g transform="translate(-258.8 -18.3)"><circle transform="scale(-1 1)" r="33.1" cy="124.4" cx="-185.6" style="opacity:1;fill:#fff;fill-opacity:1;stroke:#1c1b1b;stroke-width:3.96875;stroke-linecap:butt;stroke-linejoin:round;stroke-miterlimit:4;stroke-dasharray:none;stroke-opacity:1"/><circle transform="scale(-1 1)" r="33.1" cy="249.7" cx="-185.6" style="opacity:1;fill:#fff;fill-opacity:1;stroke:#1c1b1b;stroke-width:3.96875;stroke-linecap:butt;stroke-linejoin:round;stroke-miterlimit:4;stroke-dasharray:none;stroke-opacity:1"/></g><path d="M23.4 44.3L-38 107.9l60.7 57.4M-38 107.9l61.1 182m-.5-124.6l-63.3 61.5L23 290m-63.7-63.2L23.4 44.3m66.6 0l61.4 63.6-60.7 57.4m60.7-57.4l-61.1 182m.5-124.6l63.3 61.5L90.4 290m63.7-63.2L90 44.3" style="fill:none;stroke:#000;stroke-width:2.64583325;stroke-linecap:butt;stroke-linejoin:miter;stroke-miterlimit:4;stroke-dasharray:none;stroke-opacity:1"/></g></svg>
