<svg xmlns="http://www.w3.org/2000/svg" width="1247.6" height="1204.9" viewBox="0 0 330.1 318.8"><g transform="translate(98.5 -30.5)" fill="#fff" stroke="#1c1b1b" stroke-width="4" stroke-linejoin="round"><circle r="33.1" cy="65.6" cx="66.8"/><circle r="33.1" cy="189.9" cx="66.8"/><circle r="33.1" cy="314.1" cx="66.8"/></g><g transform="matrix(-1 0 0 1 109.3 -27.6)" fill="#fff" stroke="#1c1b1b" stroke-width="4" stroke-linejoin="round"><circle r="33.1" cy="124.4" cx="-185.6"/><circle r="33.1" cy="249.7" cx="-185.6"/></g><g transform="matrix(-1 0 0 1 -150.5 -27.6)" fill="#fff" stroke="#1c1b1b" stroke-width="4" stroke-linejoin="round"><circle r="33.1" cy="124.4" cx="-185.6"/><circle r="33.1" cy="249.7" cx="-185.6"/></g><path d="M131.7 35L70.3 98.6 131 156M70.3 98.6l61.1 182m-.5-124.6l-63.3 61.5 63.7 63.2m-63.7-63.2L131.7 35m66.6 0l61.4 63.6L199 156m60.7-57.4l-61.1 182m.5-124.6l63.3 61.5-63.7 63.2m63.7-63.2L198.3 35" fill="none" stroke="#000" stroke-width="2.6"/></svg>