<svg xmlns="http://www.w3.org/2000/svg" width="1116.6" height="468.8" viewBox="0 0 295.4 124"><g transform="translate(125 45.5)"><rect width="22.7" height="22.7" x="-125" y="-1.1" ry="0" fill="#2f5e5d"/><text y="16.3" x="-123.9" style="line-height:1.25;-inkscape-font-specification:'Ubuntu Condensed, Bold'" font-weight="700" font-size="19.3" letter-spacing="0" word-spacing="0" font-family="Ubuntu Condensed" fill="#fff" stroke-width=".5"><tspan style="-inkscape-font-specification:'sans-serif Bold'" y="16.3" x="-123.9" font-family="sans-serif">D</tspan></text><text style="line-height:1.25;-inkscape-font-specification:'sans-serif Bold'" x="-109" y="19.4" font-weight="700" font-size="7.8" letter-spacing="0" word-spacing="0" font-family="sans-serif" fill="#fff" stroke-width=".2"><tspan x="-109" y="19.4" style="-inkscape-font-specification:'sans-serif Bold'">?</tspan></text><text y="17" x="-97.3" style="line-height:1.25;-inkscape-font-specification:'sans-serif Bold'" font-weight="700" font-size="15.8" letter-spacing="0" word-spacing="0" font-family="sans-serif" fill="#363636" stroke-width=".4"><tspan style="-inkscape-font-specification:'sans-serif Bold'" y="17" x="-97.3">≥</tspan></text><rect ry="0" y="-43.4" x="-43.8" height="8" width="8" fill="#2f5e5d"/><text style="line-height:1.25;-inkscape-font-specification:'Ubuntu Condensed, Bold'" x="-43.4" y="-37.3" font-weight="700" font-size="6.8" letter-spacing="0" word-spacing="0" font-family="Ubuntu Condensed" fill="#fff" stroke-width=".3"><tspan x="-43.4" y="-37.3" style="-inkscape-font-specification:'sans-serif Bold'" font-family="sans-serif">D</tspan></text><text y="-36.2" x="-38.2" style="line-height:1.25;-inkscape-font-specification:'sans-serif Bold'" font-weight="700" font-size="2.8" letter-spacing="0" word-spacing="0" font-family="sans-serif" fill="#fff" stroke-width=".1"><tspan style="-inkscape-font-specification:'sans-serif Bold'" y="-36.2" x="-38.2">1</tspan></text><rect rx="0" width="8" height="8" x="-44.1" y="-21.5" ry="0" fill="#2f5e5d"/><g font-weight="700" letter-spacing="0" word-spacing="0" fill="#fff" stroke-width="1.9"><text style="line-height:1.25;-inkscape-font-specification:'Ubuntu Condensed, Bold'" x="-119.8" y="833.1" font-size="13.8" font-family="Ubuntu Condensed" stroke-width=".7" transform="translate(15 -425) scale(.49158)"><tspan x="-119.8" y="833.1" style="-inkscape-font-specification:'sans-serif Bold'" font-family="sans-serif" stroke-width=".6">D</tspan></text><text y="835.3" x="-109.1" style="line-height:1.25;-inkscape-font-specification:'sans-serif Bold'" font-size="5.6" font-family="sans-serif" stroke-width=".3" transform="translate(15 -425) scale(.49158)"><tspan style="-inkscape-font-specification:'sans-serif Bold'" y="835.3" x="-109.1">T</tspan></text></g><path d="M-42.6-35h5.1v5h-5.1z" opacity=".5" fill="#2f5e5d"/><path d="M-42.6-31h5.1v5h-5.1z" opacity=".5" fill="#2f5e5d"/><path d="M-42.6-27h5.1v4.8h-5.1z" opacity=".5" fill="#2f5e5d"/><text word-spacing="0" letter-spacing="0" font-size="10.7" font-weight="700" style="line-height:1.25;-inkscape-font-specification:'sans-serif Bold'" x="-33.5" y="-35.6" font-family="sans-serif" fill="#363636" stroke-width=".4"><tspan x="-33.5" y="-35.6" style="-inkscape-font-specification:'sans-serif Bold'">A(</tspan></text><text word-spacing="0" letter-spacing="0" font-size="10.7" font-weight="700" y="-35.6" x="-7.8" style="line-height:1.25;-inkscape-font-specification:'sans-serif Bold'" font-family="sans-serif" fill="#363636" stroke-width=".4"><tspan style="-inkscape-font-specification:'sans-serif Bold'" y="-35.6" x="-7.8">)</tspan></text><path d="M4.1-43.3H13v8.7H4z" fill="#99039e"/><text word-spacing="0" letter-spacing="0" font-size="6.1" font-weight="700" y="-36.6" x="6.3" style="line-height:1.25;-inkscape-font-specification:'sans-serif Bold'" font-family="sans-serif" fill="#fff" stroke-width=".2"><tspan style="-inkscape-font-specification:'sans-serif Bold'" y="-36.6" x="6.3">h</tspan></text><g fill="#363636" stroke-width="1.5"><path d="M1.3-40v2h-4.1v-2z"/><path d="M.3-41.7v5.4l1.5-1.4L3.3-39l-1.5-1.4z"/></g><path d="M-19.3-43.9h10.2v9.8h-10.2z" fill="#dca900"/><text y="-37.4" x="-17.2" style="line-height:1.25;-inkscape-font-specification:'sans-serif Bold'" font-size="8.6" transform="scale(1.01901 .98134)" font-weight="700" font-family="sans-serif" letter-spacing="0" word-spacing="0" fill="#fff" stroke-width=".3"><tspan style="-inkscape-font-specification:'sans-serif Bold'" y="-37.4" x="-17.2">s</tspan></text><text font-size="3.6" y="-47" x="-11.1" style="line-height:1.25;-inkscape-font-specification:'sans-serif Bold'" transform="scale(1.1491 .87024)" font-weight="700" font-family="sans-serif" letter-spacing="0" word-spacing="0" fill="#fff" stroke-width=".1"><tspan style="-inkscape-font-specification:'sans-serif Bold'" y="-47" x="-11.1">1</tspan></text><text transform="scale(1.00046 .99954)" style="line-height:1.25;-inkscape-font-specification:'sans-serif Bold'" x="-12.9" y="-34.9" font-size="3.2" font-weight="700" font-family="sans-serif" letter-spacing="0" word-spacing="0" fill="#fff"><tspan x="-12.9" y="-34.9" style="-inkscape-font-specification:'sans-serif Bold'" stroke-width=".1">1</tspan></text><rect rx="0" ry="0" y="-44.7" x="23" height="11.3" width="3.1" fill="#2f5e5d"/><rect width="3.1" height="11.3" x="27.3" y="-44.7" ry="0" rx="0" fill="#2f5e5d"/><rect width="3.1" height="11.3" x="35.4" y="-44.7" ry="0" rx="0" fill="#2f5e5d"/><rect width="7.2" height="11.3" x="44.5" y="-44.7" ry="0" rx="0" fill="#e5650e"/><rect width="3.1" height="11.3" x="57.5" y="-44.7" ry="0" rx="0" fill="#2f5e5d"/><path d="M23-35h37.6v2H23z" fill="#2f5e5d"/><g fill="#363636" stroke-width="1.8"><path d="M18.8-40v2.1h-4.1V-40z"/><path d="M17.8-41.7v5.5l1.5-1.4 1.5-1.4-1.5-1.3z"/></g><g fill="#1d76ce"><path d="M-45.4-40.4h-2.4v23.9h2.4z"/><path d="M-54-40.4v2.4h6.2v-2.4zm0 21.5v2.4h6.2V-19zm8.5-10.7v2.3h2v-2.3z"/></g><path fill="#2f5e5d" d="M23-30.5h37.5v1.4H23zm0 2.6h37.5v1.4H23z"/><path d="M-19-31h10v1.4h-10zm0 2.5h10v1.5h-10zm0 2.6h10v1.4h-10z" fill="#dca900"/><path fill="#2f5e5d" d="M23-25.3h37.5v1.4H23z"/><path d="M4.3-30.4H13v1.4H4.3zm0 2.6H13v1.4H4.3zm0 2.6H13v1.4H4.3z" fill="#99039e"/><path fill="#e5650e" d="M23-30.5h8.8v1.4H23zm14.8 2.6h11.6v1.4H37.8zM26-25.3h3.8v1.4H26zm17.2 0h5.7v1.4h-5.7z"/><text y="53.3" x="-34.9" style="line-height:1.25;-inkscape-font-specification:'sans-serif Bold'" font-weight="700" font-size="10.7" letter-spacing="0" word-spacing="0" font-family="sans-serif" fill="#363636" stroke-width=".4"><tspan style="-inkscape-font-specification:'sans-serif Bold'" y="53.3" x="-34.9">A(</tspan></text><text style="line-height:1.25;-inkscape-font-specification:'sans-serif Bold'" x="-8.2" y="53.3" font-weight="700" font-size="10.7" letter-spacing="0" word-spacing="0" font-family="sans-serif" fill="#363636" stroke-width=".4"><tspan x="-8.2" y="53.3" style="-inkscape-font-specification:'sans-serif Bold'">)</tspan></text><path d="M3.7 45.6h8.8v8.7H3.7z" fill="#99039e"/><text style="line-height:1.25;-inkscape-font-specification:'sans-serif Bold'" x="5.9" y="52.2" font-weight="700" font-size="6.1" letter-spacing="0" word-spacing="0" font-family="sans-serif" fill="#fff" stroke-width=".2"><tspan x="5.9" y="52.2" style="-inkscape-font-specification:'sans-serif Bold'">h</tspan></text><g fill="#363636" stroke-width="1.5"><path d="M.9 48.8v2.1h-4.1v-2.1z"/><path d="M0 47.1v5.5l1.4-1.4L3 49.8l-1.5-1.3z"/></g><path d="M-19.7 45h10.1v9.7h-10.1z" fill="#dca900"/><text font-size="8.6" style="line-height:1.25;-inkscape-font-specification:'sans-serif Bold'" x="-17.6" y="53.1" transform="scale(1.01901 .98134)" font-weight="700" font-family="sans-serif" letter-spacing="0" word-spacing="0" fill="#fff" stroke-width=".3"><tspan x="-17.6" y="53.1" style="-inkscape-font-specification:'sans-serif Bold'">s</tspan></text><text transform="scale(1.1491 .87024)" style="line-height:1.25;-inkscape-font-specification:'sans-serif Bold'" x="-11.4" y="55.1" font-size="3.6" font-weight="700" font-family="sans-serif" letter-spacing="0" word-spacing="0" fill="#fff" stroke-width=".1"><tspan x="-11.4" y="55.1" style="-inkscape-font-specification:'sans-serif Bold'">1</tspan></text><text font-size="3.2" y="53.9" x="-13.3" style="line-height:1.25;-inkscape-font-specification:'sans-serif Bold'" transform="scale(1.00046 .99954)" font-weight="700" font-family="sans-serif" letter-spacing="0" word-spacing="0" fill="#fff"><tspan style="-inkscape-font-specification:'sans-serif Bold'" y="53.9" x="-13.3" stroke-width=".1">k</tspan></text><rect width="3.1" height="11.3" x="22.6" y="44.1" ry="0" rx="0" fill="#2f5e5d"/><rect rx="0" ry="0" y="44.1" x="26.9" height="11.3" width="3.1" fill="#2f5e5d"/><rect rx="0" ry="0" y="44.1" x="35" height="11.3" width="3.1" fill="#e5650e"/><rect rx="0" ry="0" y="44.1" x="44" height="11.3" width="7.2" fill="#2f5e5d"/><rect rx="0" ry="0" y="44.1" x="57.1" height="11.3" width="3.1" fill="#2f5e5d"/><path d="M22.6 54h37.6v1.8H22.6z" fill="#2f5e5d"/><g fill="#363636" stroke-width="1.8"><path d="M18.4 48.8V51h-4.1v-2z"/><path d="M17.4 47.2v5.4l1.5-1.4 1.5-1.3-1.5-1.4z"/></g><g fill="#1d76ce"><path d="M-46.1 49.4h-2.4v22.3h2.4zm-8.7 0v2.3h6.3v-2.3zm0 20v2.3h6.3v-2.4z"/><path d="M-46.2 60.1v2.4h1.1V60z"/></g><path fill="#2f5e5d" d="M22.6 58.4h37.5v1.4H22.6zm0 2.6h37.5v1.4H22.6z"/><path d="M-19.6 57.6h10V59h-10zm0 2.6h10v1.4h-10zm0 2.6h10v1.4h-10z" fill="#dca900"/><path fill="#2f5e5d" d="M22.6 63.5h37.5V65H22.6z"/><path d="M3.9 58.5h8.8v1.4H4zm0 2.6h8.8v1.4H4zm0 2.6h8.8V65H4z" fill="#b504bb"/><path fill="#e5650e" d="M22.6 58.4h20.6v1.4H22.6zM37.4 61h4.3v1.4h-4.3zm-11.8 2.5h3.8V65h-3.8zm20.1 0h2.8V65h-2.8z"/><path fill="#1d76ce" opacity=".5" d="M-52-5.9H56.6v8.6H-52z"/><path fill="#dca900" d="M-19.5-5.9h11v8.6h-11z"/><path fill="#99039e" d="M4-5.9h10.4v8.6H4.1z"/><path fill="#2f5e5d" d="M22.7-5.9h37.9v8.6H22.7z"/><path fill="#e5650e" d="M34.7-5.9H38v8.6h-3.2z"/><path fill="#1d76ce" opacity=".5" d="M-52 12H58v8.5H-52z"/><path fill="#dca900" d="M-19.5 12h11v8.5h-11z"/><path fill="#99039e" d="M4 12h10.4v8.5H4.1z"/><path fill="#2f5e5d" d="M23.2 12H61v8.5H23z"/><path fill="#e5650e" d="M39.9 12H43v8.5h-3.2z"/><path fill="#1d76ce" opacity=".5" d="M-52 29.7H58v8.6H-52z"/><path fill="#dca900" d="M-19.5 29.7h11v8.6h-11z"/><path fill="#99039e" d="M4 29.7h10.4v8.6H4.1z"/><path fill="#2f5e5d" d="M23.2 29.7H61v8.6H23z"/><path fill="#e5650e" d="M32.8 29.7h6.7v8.6h-6.7z"/><text y="-13.5" x="-33.4" style="line-height:1.25;-inkscape-font-specification:'sans-serif Bold'" font-weight="700" font-size="10.7" letter-spacing="0" word-spacing="0" font-family="sans-serif" fill="#363636" stroke-width=".4"><tspan style="-inkscape-font-specification:'sans-serif Bold'" y="-13.5" x="-33.4">A(</tspan></text><text style="line-height:1.25;-inkscape-font-specification:'sans-serif Bold'" x="-7.8" y="-13.5" font-weight="700" font-size="10.7" letter-spacing="0" word-spacing="0" font-family="sans-serif" fill="#363636" stroke-width=".4"><tspan x="-7.8" y="-13.5" style="-inkscape-font-specification:'sans-serif Bold'">)</tspan></text><path d="M4.1-21.2H13v8.7H4z" fill="#99039e"/><text style="line-height:1.25;-inkscape-font-specification:'sans-serif Bold'" x="6.3" y="-14.5" font-weight="700" font-size="6.1" letter-spacing="0" word-spacing="0" font-family="sans-serif" fill="#fff" stroke-width=".2"><tspan x="6.3" y="-14.5" style="-inkscape-font-specification:'sans-serif Bold'">h</tspan></text><g fill="#363636" stroke-width="1.5"><path d="M1.3-18v2.1h-4.1V-18z"/><path d="M.3-19.7v5.5l1.5-1.4L3.3-17l-1.5-1.3z"/></g><path d="M-19.3-21.8h10.2v9.8h-10.2z" fill="#dca900"/><text font-size="8.6" style="line-height:1.25;-inkscape-font-specification:'sans-serif Bold'" x="-17.2" y="-14.9" transform="scale(1.01901 .98134)" font-weight="700" font-family="sans-serif" letter-spacing="0" word-spacing="0" fill="#fff" stroke-width=".3"><tspan x="-17.2" y="-14.9" style="-inkscape-font-specification:'sans-serif Bold'">s</tspan></text><text transform="scale(1.1491 .87024)" style="line-height:1.25;-inkscape-font-specification:'sans-serif Bold'" x="-11.1" y="-21.7" font-size="3.6" font-weight="700" font-family="sans-serif" letter-spacing="0" word-spacing="0" fill="#fff" stroke-width=".1"><tspan x="-11.1" y="-21.7" style="-inkscape-font-specification:'sans-serif Bold'">T</tspan></text><text font-size="3.2" y="-12.9" x="-12.9" style="line-height:1.25;-inkscape-font-specification:'sans-serif Bold'" transform="scale(1.00046 .99954)" font-weight="700" font-family="sans-serif" letter-spacing="0" word-spacing="0" fill="#fff"><tspan style="-inkscape-font-specification:'sans-serif Bold'" y="-12.9" x="-12.9" stroke-width=".1">1</tspan></text><rect width="3.1" height="11.3" x="23" y="-22.6" ry="0" rx="0" fill="#2f5e5d"/><rect rx="0" ry="0" y="-22.6" x="27.3" height="11.3" width="6.4" fill="#2f5e5d"/><rect rx="0" ry="0" y="-22.6" x="35.4" height="11.3" width="3.1" fill="#2f5e5d"/><rect rx="0" ry="0" y="-22.6" x="49.1" height="11.3" width="2.5" fill="#e5650e"/><rect rx="0" ry="0" y="-22.6" x="54.9" height="11.3" width="5.7" fill="#2f5e5d"/><path d="M23-12.9h37.6v2H23z" fill="#2f5e5d"/><g fill="#363636" stroke-width="1.8"><path d="M18.8-18v2.2h-4.1V-18z"/><path d="M17.8-19.6v5.4l1.5-1.3 1.5-1.4-1.5-1.4z"/></g><text word-spacing="0" letter-spacing="0" font-size="10.7" font-weight="700" style="line-height:1.25;-inkscape-font-specification:'sans-serif Bold'" x="-35" y="75.8" font-family="sans-serif" fill="#363636" stroke-width=".4"><tspan x="-35" y="75.8" style="-inkscape-font-specification:'sans-serif Bold'">A(</tspan></text><text word-spacing="0" letter-spacing="0" font-size="10.7" font-weight="700" y="75.8" x="-8.2" style="line-height:1.25;-inkscape-font-specification:'sans-serif Bold'" font-family="sans-serif" fill="#363636" stroke-width=".4"><tspan style="-inkscape-font-specification:'sans-serif Bold'" y="75.8" x="-8.2">)</tspan></text><path d="M3.7 68.1h8.7v8.7H3.7z" fill="#99039e"/><text word-spacing="0" letter-spacing="0" font-size="6.1" font-weight="700" y="74.8" x="5.9" style="line-height:1.25;-inkscape-font-specification:'sans-serif Bold'" font-family="sans-serif" fill="#fff" stroke-width=".2"><tspan style="-inkscape-font-specification:'sans-serif Bold'" y="74.8" x="5.9">h</tspan></text><g fill="#363636" stroke-width="1.5"><path d="M.9 71.3v2.2h-4.2v-2.2z"/><path d="M-.1 69.7V75l1.5-1.4 1.4-1.3L1.4 71z"/></g><path d="M-19.8 67.5h10.2v9.8h-10.2z" fill="#dca900"/><text y="76.1" x="-17.7" style="line-height:1.25;-inkscape-font-specification:'sans-serif Bold'" font-size="8.6" transform="scale(1.01901 .98134)" font-weight="700" font-family="sans-serif" letter-spacing="0" word-spacing="0" fill="#fff" stroke-width=".3"><tspan style="-inkscape-font-specification:'sans-serif Bold'" y="76.1" x="-17.7">s</tspan></text><text font-size="3.6" y="81" x="-11.5" style="line-height:1.25;-inkscape-font-specification:'sans-serif Bold'" transform="scale(1.1491 .87024)" font-weight="700" font-family="sans-serif" letter-spacing="0" word-spacing="0" fill="#fff" stroke-width=".1"><tspan style="-inkscape-font-specification:'sans-serif Bold'" y="81" x="-11.5">T</tspan></text><text transform="scale(1.00046 .99954)" style="line-height:1.25;-inkscape-font-specification:'sans-serif Bold'" x="-13.3" y="76.5" font-size="3.2" font-weight="700" font-family="sans-serif" letter-spacing="0" word-spacing="0" fill="#fff"><tspan x="-13.3" y="76.5" style="-inkscape-font-specification:'sans-serif Bold'" stroke-width=".1">k</tspan></text><rect rx="0" ry="0" y="66.7" x="22.6" height="11.3" width="3.1" fill="#2f5e5d"/><rect width="6.4" height="11.3" x="26.8" y="66.7" ry="0" rx="0" fill="#e5650e"/><rect width="3.1" height="11.3" x="34.9" y="66.7" ry="0" rx="0" fill="#2f5e5d"/><rect width="2.5" height="11.3" x="48.6" y="66.7" ry="0" rx="0" fill="#2f5e5d"/><rect width="5.7" height="11.3" x="54.5" y="66.7" ry="0" rx="0" fill="#2f5e5d"/><path d="M22.6 76.5h37.6v1.9H22.6z" fill="#2f5e5d"/><g fill="#363636" stroke-width="1.8"><path d="M18.3 71.4v2.1h-4v-2.1z"/><path d="M17.4 69.7v5.5l1.5-1.4 1.4-1.4-1.4-1.3z"/></g><circle cx="85" cy="-26.5" r="8.4" fill="#2f5e5d"/><path d="M93.5-26.5a8.4 8.4 0 01-2.5 6l-6-6z" fill="#e5650e"/><g transform="translate(-64 -101.4) scale(.67595)" stroke-width="1.5"><ellipse ry="4.8" rx="12.4" cx="221.4" cy="147.2" fill="#2f5e5d"/><path d="M233.8 147.2a12.4 4.8 0 01-3.6 3.4l-8.7-3.4z" fill="#e5650e"/></g><g transform="translate(-62.7 -109.2) scale(.67595)" stroke-width="1.5"><ellipse cy="185.5" cx="219.5" rx="12.4" ry="4.8" fill="#2f5e5d"/><path d="M232 185.5a12.4 4.8 0 01-3.7 3.4l-8.7-3.4z" fill="#e5650e"/></g><g transform="translate(-63.8 -103.2) scale(.67595)" stroke-width="1.5"><ellipse cy="204.5" cx="221.1" rx="12.4" ry="4.8" fill="#2f5e5d"/><path d="M233.5 204.5a12.4 4.8 0 01-3.6 3.4l-8.8-3.4z" fill="#e5650e"/></g><g fill="#363636" stroke-width="2"><path d="M65-41.8h5.2v1.6h-5.3zm0 28.1h5.2v1.7h-5.3z"/><path d="M68.5-40.2h1.7v26.5h-1.7z"/><path d="M68.6-28.5h6.2v1.7h-6.2z"/></g><text style="line-height:1.25;-inkscape-font-specification:'Ubuntu Condensed, Bold'" x="75.4" y="-43.1" font-weight="700" font-size="4.3" letter-spacing="0" word-spacing="0" font-family="Ubuntu Condensed" fill="#e5650e" stroke-width=".3"><tspan x="75.4" y="-43.1" style="-inkscape-font-specification:'sans-serif Bold'" font-family="sans-serif" stroke-width="1.2">avg error</tspan></text><g fill="#2f5e5d" stroke-width="2"><path d="M81.4-37.4v-.9h8.5v.9z"/><path d="M85.2-38v-2.4h.9v2.4zm-4.7 2.2v-2.5h.9v2.5zm8.5 0v-2.5h.9v2.5z"/></g><g transform="translate(-65.8 -14.3) scale(.67595)" stroke-width="1.5"><circle cx="224" cy="111.3" r="12.4" fill="#2f5e5d"/><path d="M236.3 113.3a12.4 12.4 0 01-10.6 10.3 12.4 12.4 0 01-13-7.1l11.4-5.2z" fill="#e5650e"/></g><g fill="#363636" stroke-width="2"><path d="M65.5 46.6h5.3v1.7h-5.3zm0 28.2h5.3v1.6h-5.3z"/><path d="M69.1 48.3h1.7v26.5H69z"/><path d="M69.2 60h6.2v1.6h-6.2z"/></g><path d="M108.8-25.3h3v88.8h-3zm3-2.9v3h-9.4v-3z" fill="#363636"/><path d="M111.8 60.6v2.9h-9.4v-3zm6.4-43v3H109v-3z" fill="#363636"/><circle cx="143.4" cy="17.4" r="20.9" fill="#2f5e5d"/><path d="M139.2 37.9A20.9 20.9 0 01124.4 26l19-8.7z" fill="#e5650e"/><text word-spacing="0" letter-spacing="0" font-size="9.3" font-weight="700" y="-28.3" x="146.2" style="line-height:.85000002;-inkscape-font-specification:'Ubuntu Condensed, Bold';text-align:center;white-space:pre" font-family="Ubuntu Condensed" text-anchor="middle" fill="#e5650e" stroke-width=".3"><tspan x="146.2" y="-28.3"><tspan style="-inkscape-font-specification:'sans-serif Bold'" font-family="sans-serif">total</tspan><tspan style="-inkscape-font-specification:'sans-serif Bold';text-align:center" font-family="sans-serif" stroke-width="1.2"> </tspan></tspan><tspan x="146.2" y="-20"><tspan style="-inkscape-font-specification:'sans-serif Bold';text-align:center" font-family="sans-serif" stroke-width="1.2">avg error</tspan></tspan></text><g fill="#2f5e5d" stroke-width=".9"><path d="M135.2-8.3V-10h18.3v1.8z"/><path d="M143.4-9.4v-5.2h1.9v5.2zm-10 4.6V-10h1.8v5.3zm18.3 0V-10h1.8v5.3z"/></g><path d="M-58.8-17.9h-21.9v-21.8h21.9zm0 89.6h-21.9V50h21.9z" fill="#1d76ce"/><path d="M-58.8 7.7h-21.9v-21.9h21.9z" fill="#1d76ce" opacity=".5"/><path d="M-58.8 26.4h-21.9V4.6h21.9z" fill="#1d76ce" opacity=".5"/><path d="M-58.8 45.1h-21.9V23.3h21.9z" fill="#1d76ce" opacity=".5"/><g word-spacing="0" letter-spacing="0" font-weight="700" font-family="sans-serif" fill="#fff" stroke-width=".1"><text font-size="7" style="line-height:1.25;-inkscape-font-specification:'sans-serif Bold'" x="9.1" y="275" transform="translate(-94.7 -618.5) scale(2.15688)"><tspan x="9.1" y="275" style="-inkscape-font-specification:'sans-serif Bold'">v</tspan></text><text font-size="3.4" y="276.7" x="13.4" style="line-height:1.25;-inkscape-font-specification:'sans-serif Bold'" transform="translate(-94.7 -618.5) scale(2.15688)"><tspan style="-inkscape-font-specification:'sans-serif Bold'" y="276.7" x="13.4">1</tspan></text></g><g font-weight="700" letter-spacing="0" word-spacing="0" font-family="sans-serif" fill="#fff" stroke-width=".1"><text font-size="7" style="line-height:1.25;-inkscape-font-specification:'sans-serif Bold'" x="9.1" y="275" transform="translate(-94.4 -528.3) scale(2.15688)"><tspan x="9.1" y="275" style="-inkscape-font-specification:'sans-serif Bold'">v</tspan></text><text font-size="3.4" y="276.7" x="13.4" style="line-height:1.25;-inkscape-font-specification:'sans-serif Bold'" transform="translate(-94.4 -528.3) scale(2.15688)"><tspan style="-inkscape-font-specification:'sans-serif Bold'" y="276.7" x="13.4">k</tspan></text></g><rect width="8" height="8" x="-44.4" y="45.5" ry="0" fill="#2f5e5d"/><text word-spacing="0" letter-spacing="0" font-size="6.8" font-weight="700" y="51.6" x="-44" style="line-height:1.25;-inkscape-font-specification:'Ubuntu Condensed, Bold'" font-family="Ubuntu Condensed" fill="#fff" stroke-width=".3"><tspan style="-inkscape-font-specification:'sans-serif Bold'" y="51.6" x="-44" font-family="sans-serif">D</tspan></text><text word-spacing="0" letter-spacing="0" font-size="2.8" font-weight="700" style="line-height:1.25;-inkscape-font-specification:'sans-serif Bold'" x="-38.8" y="52.7" font-family="sans-serif" fill="#fff" stroke-width=".1"><tspan x="-38.8" y="52.7" style="-inkscape-font-specification:'sans-serif Bold'">1</tspan></text><rect ry="0" y="67.4" x="-44.6" height="8" width="8" rx="0" fill="#2f5e5d"/><g word-spacing="0" letter-spacing="0" font-weight="700" fill="#fff" stroke-width="1.9"><text font-size="13.8" y="833.1" x="-119.8" style="line-height:1.25;-inkscape-font-specification:'Ubuntu Condensed, Bold'" font-family="Ubuntu Condensed" stroke-width=".7" transform="translate(14.4 -336) scale(.49158)"><tspan style="-inkscape-font-specification:'sans-serif Bold'" y="833.1" x="-119.8" font-family="sans-serif" stroke-width=".6">D</tspan></text><text font-size="5.6" style="line-height:1.25;-inkscape-font-specification:'sans-serif Bold'" x="-109.1" y="835.3" font-family="sans-serif" stroke-width=".3" transform="translate(14.4 -336) scale(.49158)"><tspan x="-109.1" y="835.3" style="-inkscape-font-specification:'sans-serif Bold'">T</tspan></text></g><path d="M-43.2 54h5.1v4.8h-5.1z" opacity=".5" fill="#2f5e5d"/><path d="M-43.2 57.9h5.1v4.9h-5.1z" opacity=".5" fill="#2f5e5d"/><path d="M-43.2 61.8h5.1v4.9h-5.1z" opacity=".5" fill="#2f5e5d"/><text y="-4.1" x="-126" style="line-height:1.25;-inkscape-font-specification:'Ubuntu Condensed, Bold'" font-weight="700" font-size="10.2" letter-spacing="0" word-spacing="0" font-family="Ubuntu Condensed" fill="#2f5e5d" stroke-width=".5"><tspan style="-inkscape-font-specification:'sans-serif Bold'" y="-4.1" x="-126" font-family="sans-serif" stroke-width="2.5">Loss</tspan></text><text word-spacing="0" letter-spacing="0" font-size="10.2" font-weight="700" style="line-height:1.25;-inkscape-font-specification:'Ubuntu Condensed, Bold'" x="-125.9" y="30.1" font-family="Ubuntu Condensed" fill="#2f5e5d" stroke-width=".5"><tspan x="-125.9" y="30.1" style="-inkscape-font-specification:'sans-serif Bold'" font-family="sans-serif" stroke-width="2.5">max</tspan></text></g></svg>