<svg xmlns="http://www.w3.org/2000/svg" viewBox="0 0 296.437 124.042" height="468.82" width="1120.394"><g transform="translate(-64.287 -88.224)"><rect ry="0" y="132.605" x="67.692" height="22.738" width="22.738" fill="#2f5e5d"/><text word-spacing="0" letter-spacing="0" font-size="19.307" font-weight="700" style="line-height:1.25;-inkscape-font-specification:'Ubuntu Condensed, Bold'" x="69.101" y="149.985" font-family="Ubuntu Condensed" fill="#fff" stroke-width=".482"><tspan x="69.101" y="149.985" style="-inkscape-font-specification:'sans-serif Bold'" font-family="sans-serif">D</tspan></text><text word-spacing="0" letter-spacing="0" font-size="7.848" font-weight="700" y="153.093" x="83.949" style="line-height:1.25;-inkscape-font-specification:'sans-serif Bold'" font-family="sans-serif" fill="#fff" stroke-width=".196"><tspan style="-inkscape-font-specification:'sans-serif Bold'" y="153.093" x="83.949">?</tspan></text><text stroke-width=".395" fill="#363636" word-spacing="0" letter-spacing="0" font-family="sans-serif" font-size="15.785" font-weight="700" style="line-height:1.25;-inkscape-font-specification:'sans-serif Bold'" x="95.684" y="150.741"><tspan x="95.684" y="150.741" style="-inkscape-font-specification:'sans-serif Bold'">≥</tspan></text><rect width="22.445" height="22.445" x="113.372" y="93.751" ry="0" fill="#2f5e5d"/><text word-spacing="0" letter-spacing="0" font-size="19.057" font-weight="700" y="110.907" x="114.576" style="line-height:1.25;-inkscape-font-specification:'Ubuntu Condensed, Bold'" font-family="Ubuntu Condensed" fill="#fff" stroke-width=".345"><tspan style="-inkscape-font-specification:'sans-serif Bold'" y="110.907" x="114.576" font-family="sans-serif" stroke-width=".316">D</tspan></text><text word-spacing="0" letter-spacing="0" font-size="7.747" font-weight="700" style="line-height:1.25;-inkscape-font-specification:'sans-serif Bold'" x="129.233" y="113.976" font-family="sans-serif" fill="#fff" stroke-width=".14"><tspan x="129.233" y="113.976" style="-inkscape-font-specification:'sans-serif Bold'">1</tspan></text><rect ry="0" y="182.657" x="113.056" height="22.445" width="22.445" rx="0" fill="#2f5e5d"/><g word-spacing="0" letter-spacing="0" font-weight="700" fill="#fff" stroke-width=".664"><text font-size="13.818" y="833.104" x="-119.77" style="line-height:1.25;-inkscape-font-specification:'Ubuntu Condensed, Bold'" font-family="Ubuntu Condensed" stroke-width=".25" transform="matrix(1.37917 0 0 1.37917 278.79 -949.267)"><tspan style="-inkscape-font-specification:'sans-serif Bold'" y="833.104" x="-119.77" font-family="sans-serif" stroke-width=".229">D</tspan></text><text font-size="5.617" style="line-height:1.25;-inkscape-font-specification:'sans-serif Bold'" x="-109.143" y="835.329" font-family="sans-serif" stroke-width=".102" transform="matrix(1.37917 0 0 1.37917 278.79 -949.267)"><tspan x="-109.143" y="835.329" style="-inkscape-font-specification:'sans-serif Bold'">T</tspan></text></g><path d="M113.322 121.487h22.353v21.244h-22.353z" fill="#2f5e5d" opacity=".5"/><path d="M113.322 138.513h22.353v21.244h-22.353z" fill="#2f5e5d" opacity=".5"/><path d="M113.322 155.54h22.353v21.244h-22.353z" fill="#2f5e5d" opacity=".5"/><text y="98.12" x="156.882" style="line-height:1.25;-inkscape-font-specification:'sans-serif Bold'" font-weight="700" font-size="10.653" font-family="sans-serif" letter-spacing="0" word-spacing="0" fill="#363636" stroke-width=".395"><tspan style="-inkscape-font-specification:'sans-serif Bold'" y="98.12" x="156.882">A(</tspan></text><text style="line-height:1.25;-inkscape-font-specification:'sans-serif Bold'" x="182.573" y="98.12" font-weight="700" font-size="10.653" font-family="sans-serif" letter-spacing="0" word-spacing="0" fill="#363636" stroke-width=".395"><tspan x="182.573" y="98.12" style="-inkscape-font-specification:'sans-serif Bold'">)</tspan></text><path fill="#99039e" d="M194.475 90.416h8.73v8.73h-8.73z"/><text style="line-height:1.25;-inkscape-font-specification:'sans-serif Bold'" x="196.64" y="97.11" font-weight="700" font-size="6.131" font-family="sans-serif" letter-spacing="0" word-spacing="0" fill="#fff" stroke-width=".227"><tspan x="196.64" y="97.11" style="-inkscape-font-specification:'sans-serif Bold'">h</tspan></text><g fill="#363636" stroke-width="1.482"><path d="M191.643 93.643v2.117h-4.129v-2.117z"/><path d="M190.676 91.984l.01 2.718.009 2.719 1.463-1.372 1.464-1.372-1.473-1.347z"/></g><path d="M171.024 89.816h10.162v9.787h-10.162z" fill="#dca900"/><text font-size="8.551" style="line-height:1.25;-inkscape-font-specification:'sans-serif Bold'" x="169.571" y="98.839" transform="scale(1.01901 .98134)" font-weight="700" font-family="sans-serif" letter-spacing="0" word-spacing="0" fill="#fff" stroke-width=".293"><tspan x="169.571" y="98.839" style="-inkscape-font-specification:'sans-serif Bold'">s</tspan></text><text transform="scale(1.1491 .87024)" style="line-height:1.25;-inkscape-font-specification:'sans-serif Bold'" x="154.574" y="106.612" font-size="3.628" font-weight="700" font-family="sans-serif" letter-spacing="0" word-spacing="0" fill="#fff" stroke-width=".14"><tspan x="154.574" y="106.612" style="-inkscape-font-specification:'sans-serif Bold'">1</tspan></text><path d="M148.65 93.352h-2.366v23.83h2.365z" fill="#a0c5d9"/><text font-size="3.159" y="98.818" x="177.352" style="line-height:1.25;-inkscape-font-specification:'sans-serif Bold'" transform="scale(1.00046 .99954)" font-weight="700" font-family="sans-serif" letter-spacing="0" word-spacing="0" fill="#fff"><tspan style="-inkscape-font-specification:'sans-serif Bold'" y="98.818" x="177.352" stroke-width=".14">1</tspan></text><rect width="3.106" height="11.315" x="213.348" y="89.004" ry="0" rx="0" fill="#2f5e5d"/><rect rx="0" ry="0" y="89.004" x="217.617" height="11.315" width="3.106" fill="#2f5e5d"/><rect rx="0" ry="0" y="89.004" x="225.717" height="11.315" width="3.106" fill="#2f5e5d"/><rect rx="0" ry="0" y="89.004" x="234.794" height="11.315" width="7.156" fill="#e5650e"/><rect rx="0" ry="0" y="89.004" x="247.863" height="11.315" width="3.106" fill="#2f5e5d"/><path fill="#2f5e5d" d="M213.345 98.77h37.598v1.897h-37.598z"/><g fill="#363636" stroke-width="1.793"><path d="M209.134 93.692v2.118h-4.13v-2.118z"/><path d="M208.168 92.033l.009 2.719.01 2.718 1.462-1.372 1.464-1.371-1.472-1.347z"/></g><path d="M139.999 93.352v2.365h6.285v-2.365zM139.999 114.816v2.365h6.285v-2.365zM148.53 104.084v2.365h6.754v-2.365z" fill="#a0c5d9"/><path fill="#2f5e5d" d="M213.348 103.228h37.457v1.409h-37.457zM213.348 105.817h37.457v1.409h-37.457z"/><g fill="#dca900"><path d="M171.065 103.228h10.08v1.409h-10.08zM171.065 105.817h10.08v1.409h-10.08zM171.065 108.407h10.08v1.409h-10.08z"/></g><path fill="#2f5e5d" d="M213.348 108.407h37.457v1.409h-37.457z"/><g fill="#99039e"><path d="M194.423 103.338h8.834v1.409h-8.834zM194.423 105.928h8.834v1.409h-8.834zM194.423 108.518h8.834v1.409h-8.834z"/></g><path fill="#e5650e" d="M213.348 103.228h8.757v1.409h-8.757zM228.11 105.817h11.672v1.409H228.11zM216.366 108.407h3.812v1.409h-3.812zM233.52 108.407h5.694v1.409h-5.694z"/><text stroke-width=".395" fill="#363636" word-spacing="0" letter-spacing="0" font-family="sans-serif" font-size="10.653" font-weight="700" style="line-height:1.25;-inkscape-font-specification:'sans-serif Bold'" x="156.471" y="186.96"><tspan x="156.471" y="186.96" style="-inkscape-font-specification:'sans-serif Bold'">A(</tspan></text><text stroke-width=".395" fill="#363636" word-spacing="0" letter-spacing="0" font-family="sans-serif" font-size="10.653" font-weight="700" y="186.96" x="182.161" style="line-height:1.25;-inkscape-font-specification:'sans-serif Bold'"><tspan style="-inkscape-font-specification:'sans-serif Bold'" y="186.96" x="182.161">)</tspan></text><path d="M194.064 179.256h8.73v8.73h-8.73z" fill="#99039e"/><text stroke-width=".227" fill="#fff" word-spacing="0" letter-spacing="0" font-family="sans-serif" font-size="6.131" font-weight="700" y="185.95" x="196.229" style="line-height:1.25;-inkscape-font-specification:'sans-serif Bold'"><tspan style="-inkscape-font-specification:'sans-serif Bold'" y="185.95" x="196.229">h</tspan></text><g fill="#363636" stroke-width="1.482"><path d="M191.231 182.482v2.118h-4.128v-2.118z"/><path d="M190.265 180.824l.01 2.718.008 2.718 1.464-1.372 1.463-1.372-1.472-1.346z"/></g><path d="M170.612 178.656h10.162v9.786h-10.162z" fill="#dca900"/><text y="189.368" x="169.167" style="line-height:1.25;-inkscape-font-specification:'sans-serif Bold'" font-size="8.551" transform="scale(1.01901 .98134)" font-weight="700" font-family="sans-serif" letter-spacing="0" word-spacing="0" fill="#fff" stroke-width=".293"><tspan style="-inkscape-font-specification:'sans-serif Bold'" y="189.368" x="169.167">s</tspan></text><text font-size="3.628" y="208.698" x="154.216" style="line-height:1.25;-inkscape-font-specification:'sans-serif Bold'" transform="scale(1.1491 .87024)" font-weight="700" font-family="sans-serif" letter-spacing="0" word-spacing="0" fill="#fff" stroke-width=".14"><tspan style="-inkscape-font-specification:'sans-serif Bold'" y="208.698" x="154.216">T</tspan></text><path d="M147.921 183.07h-2.365v22.315h2.365z" fill="#a0c5d9"/><text transform="scale(1.00046 .99954)" style="line-height:1.25;-inkscape-font-specification:'sans-serif Bold'" x="176.941" y="187.698" font-size="3.159" font-weight="700" font-family="sans-serif" letter-spacing="0" word-spacing="0" fill="#fff"><tspan x="176.941" y="187.698" style="-inkscape-font-specification:'sans-serif Bold'" stroke-width=".14">1</tspan></text><rect fill="#2f5e5d" rx="0" ry="0" y="177.844" x="212.936" height="11.315" width="3.106"/><rect fill="#2f5e5d" width="3.106" height="11.315" x="217.206" y="177.844" ry="0" rx="0"/><rect fill="#e5650e" width="3.106" height="11.315" x="225.305" y="177.844" ry="0" rx="0"/><rect fill="#2f5e5d" width="7.156" height="11.315" x="234.383" y="177.844" ry="0" rx="0"/><rect fill="#2f5e5d" width="3.106" height="11.315" x="247.451" y="177.844" ry="0" rx="0"/><path d="M212.934 187.609h37.598v1.898h-37.598z" fill="#2f5e5d"/><g fill="#363636" stroke-width="1.793"><path d="M208.723 182.532v2.118h-4.13v-2.118z"/><path d="M207.757 180.873l.008 2.718.01 2.719 1.463-1.372 1.464-1.372-1.473-1.347z"/></g><path d="M139.27 183.07v2.365h6.286v-2.365zM139.27 203.053v2.366h6.286v-2.366zM147.803 193.802v2.365h6.285v-2.365z" fill="#a0c5d9"/><path fill="#2f5e5d" d="M212.937 192.067h37.457v1.409h-37.457zM212.937 194.657h37.457v1.409h-37.457z"/><g fill="#dca900"><path d="M170.216 192.067h10.08v1.409h-10.08zM170.216 194.657h10.08v1.409h-10.08zM170.216 197.247h10.08v1.409h-10.08z"/></g><path fill="#2f5e5d" d="M212.937 197.247h37.457v1.409h-37.457z"/><g fill="#99039e"><path d="M194.206 192.177h8.834v1.409h-8.834zM194.206 194.767h8.834v1.409h-8.834zM194.206 197.357h8.834v1.409h-8.834z"/></g><path fill="#e5650e" d="M212.937 192.067h20.604v1.409h-20.604zM227.699 194.657h4.315v1.409h-4.315zM215.955 197.247h3.812v1.409h-3.812zM236.08 197.247h2.723v1.409h-2.723z"/><path fill="#a0c5d9" d="M140.939 127.849h108.629v8.568H140.939z"/><path fill="#dca900" d="M170.844 127.849h10.896v8.568h-10.896z"/><path fill="#99039e" d="M193.313 127.849h10.363v8.568h-10.363z"/><path fill="#2f5e5d" d="M213.057 127.849h37.869v8.568h-37.869z"/><path fill="#e5650e" d="M225.047 127.849h3.204v8.568h-3.204z"/><path fill="#a0c5d9" d="M140.939 145.625h110.176v8.568H140.939z"/><path fill="#dca900" d="M170.844 145.625h10.896v8.568h-10.896z"/><path fill="#99039e" d="M193.313 145.625h10.363v8.568h-10.363z"/><path fill="#2f5e5d" d="M213.5 145.625h37.893v8.568H213.5z"/><path fill="#e5650e" d="M230.212 145.625h3.204v8.568h-3.204z"/><path fill="#a0c5d9" d="M140.939 163.4h110.176v8.568H140.939z"/><path fill="#dca900" d="M170.844 163.4h10.896v8.568h-10.896z"/><path fill="#99039e" d="M193.313 163.4h10.363v8.568h-10.363z"/><path fill="#2f5e5d" d="M213.5 163.4h37.893v8.568H213.5z"/><path fill="#e5650e" d="M223.102 163.4h6.696v8.568h-6.696z"/><text stroke-width=".395" fill="#363636" word-spacing="0" letter-spacing="0" font-family="sans-serif" font-size="10.653" font-weight="700" style="line-height:1.25;-inkscape-font-specification:'sans-serif Bold'" x="156.888" y="120.177"><tspan x="156.888" y="120.177" style="-inkscape-font-specification:'sans-serif Bold'">A(</tspan></text><text stroke-width=".395" fill="#363636" word-spacing="0" letter-spacing="0" font-family="sans-serif" font-size="10.653" font-weight="700" y="120.177" x="182.578" style="line-height:1.25;-inkscape-font-specification:'sans-serif Bold'"><tspan style="-inkscape-font-specification:'sans-serif Bold'" y="120.177" x="182.578">)</tspan></text><path d="M194.481 112.473h8.73v8.73h-8.73z" fill="#99039e"/><text stroke-width=".227" fill="#fff" word-spacing="0" letter-spacing="0" font-family="sans-serif" font-size="6.131" font-weight="700" y="119.167" x="196.646" style="line-height:1.25;-inkscape-font-specification:'sans-serif Bold'"><tspan style="-inkscape-font-specification:'sans-serif Bold'" y="119.167" x="196.646">h</tspan></text><g fill="#363636" stroke-width="1.482"><path d="M191.649 115.7v2.118h-4.13V115.7z"/><path d="M190.682 114.041l.01 2.718.008 2.719 1.464-1.372 1.463-1.372-1.472-1.347z"/></g><path d="M171.03 111.873h10.161v9.787H171.03z" fill="#dca900"/><text y="121.316" x="169.576" style="line-height:1.25;-inkscape-font-specification:'sans-serif Bold'" font-size="8.551" transform="scale(1.01901 .98134)" font-weight="700" font-family="sans-serif" letter-spacing="0" word-spacing="0" fill="#fff" stroke-width=".293"><tspan style="-inkscape-font-specification:'sans-serif Bold'" y="121.316" x="169.576">s</tspan></text><text font-size="3.628" y="131.958" x="154.579" style="line-height:1.25;-inkscape-font-specification:'sans-serif Bold'" transform="scale(1.1491 .87024)" font-weight="700" font-family="sans-serif" letter-spacing="0" word-spacing="0" fill="#fff" stroke-width=".14"><tspan style="-inkscape-font-specification:'sans-serif Bold'" y="131.958" x="154.579">1</tspan></text><text transform="scale(1.00046 .99954)" style="line-height:1.25;-inkscape-font-specification:'sans-serif Bold'" x="177.358" y="120.885" font-size="3.159" font-weight="700" font-family="sans-serif" letter-spacing="0" word-spacing="0" fill="#fff"><tspan x="177.358" y="120.885" style="-inkscape-font-specification:'sans-serif Bold'" stroke-width=".14">k</tspan></text><rect fill="#2f5e5d" rx="0" ry="0" y="111.061" x="213.353" height="11.315" width="3.106"/><rect fill="#2f5e5d" width="6.436" height="11.315" x="217.623" y="111.061" ry="0" rx="0"/><rect fill="#2f5e5d" width="3.106" height="11.315" x="225.722" y="111.061" ry="0" rx="0"/><rect fill="#e5650e" width="2.533" height="11.315" x="239.423" y="111.061" ry="0" rx="0"/><rect fill="#2f5e5d" width="5.698" height="11.315" x="245.277" y="111.061" ry="0" rx="0"/><path d="M213.35 120.826h37.599v1.898H213.35z" fill="#2f5e5d"/><g fill="#363636" stroke-width="1.793"><path d="M209.14 115.75v2.117h-4.13v-2.118z"/><path d="M208.174 114.09l.009 2.719.009 2.718 1.463-1.372 1.464-1.371-1.473-1.347z"/></g><text y="209.52" x="156.428" style="line-height:1.25;-inkscape-font-specification:'sans-serif Bold'" font-weight="700" font-size="10.653" font-family="sans-serif" letter-spacing="0" word-spacing="0" fill="#363636" stroke-width=".395"><tspan style="-inkscape-font-specification:'sans-serif Bold'" y="209.52" x="156.428">A(</tspan></text><text style="line-height:1.25;-inkscape-font-specification:'sans-serif Bold'" x="182.118" y="209.52" font-weight="700" font-size="10.653" font-family="sans-serif" letter-spacing="0" word-spacing="0" fill="#363636" stroke-width=".395"><tspan x="182.118" y="209.52" style="-inkscape-font-specification:'sans-serif Bold'">)</tspan></text><path fill="#99039e" d="M194.021 201.815h8.73v8.73h-8.73z"/><text style="line-height:1.25;-inkscape-font-specification:'sans-serif Bold'" x="196.186" y="208.509" font-weight="700" font-size="6.131" font-family="sans-serif" letter-spacing="0" word-spacing="0" fill="#fff" stroke-width=".227"><tspan x="196.186" y="208.509" style="-inkscape-font-specification:'sans-serif Bold'">h</tspan></text><g fill="#363636" stroke-width="1.482"><path d="M191.189 205.042v2.118h-4.13v-2.118z"/><path d="M190.222 203.383l.01 2.719.008 2.718 1.464-1.372 1.463-1.372-1.472-1.346z"/></g><path d="M170.57 201.216h10.161v9.786H170.57z" fill="#dca900"/><text font-size="8.551" style="line-height:1.25;-inkscape-font-specification:'sans-serif Bold'" x="169.125" y="212.356" transform="scale(1.01901 .98134)" font-weight="700" font-family="sans-serif" letter-spacing="0" word-spacing="0" fill="#fff" stroke-width=".293"><tspan x="169.125" y="212.356" style="-inkscape-font-specification:'sans-serif Bold'">s</tspan></text><text transform="scale(1.1491 .87024)" style="line-height:1.25;-inkscape-font-specification:'sans-serif Bold'" x="154.179" y="234.622" font-size="3.628" font-weight="700" font-family="sans-serif" letter-spacing="0" word-spacing="0" fill="#fff" stroke-width=".14"><tspan x="154.179" y="234.622" style="-inkscape-font-specification:'sans-serif Bold'">T</tspan></text><text font-size="3.159" y="210.268" x="176.898" style="line-height:1.25;-inkscape-font-specification:'sans-serif Bold'" transform="scale(1.00046 .99954)" font-weight="700" font-family="sans-serif" letter-spacing="0" word-spacing="0" fill="#fff"><tspan style="-inkscape-font-specification:'sans-serif Bold'" y="210.268" x="176.898" stroke-width=".14">k</tspan></text><rect width="3.106" height="11.315" x="212.893" y="200.404" ry="0" rx="0" fill="#2f5e5d"/><rect rx="0" ry="0" y="200.404" x="217.163" height="11.315" width="6.436" fill="#e5650e"/><rect rx="0" ry="0" y="200.404" x="225.262" height="11.315" width="3.106" fill="#2f5e5d"/><rect rx="0" ry="0" y="200.404" x="238.963" height="11.315" width="2.533" fill="#2f5e5d"/><rect rx="0" ry="0" y="200.404" x="244.817" height="11.315" width="5.698" fill="#2f5e5d"/><path fill="#2f5e5d" d="M212.89 210.168h37.599v1.898H212.89z"/><g fill="#363636" stroke-width="1.793"><path d="M208.68 205.092v2.117h-4.13v-2.117z"/><path d="M207.714 203.433l.008 2.718.01 2.719 1.463-1.373 1.464-1.37-1.473-1.348z"/></g><circle r="8.374" cy="107.249" cx="275.372" fill="#2f5e5d"/><path d="M283.786 107.21a8.374 8.374 0 01-2.453 5.92l-5.922-5.92z" fill="#e5650e"/><g transform="matrix(.67595 0 0 .67595 126.313 32.312)" stroke-width="1.479"><ellipse cy="147.218" cx="221.401" rx="12.389" ry="4.778" fill="#2f5e5d"/><path d="M233.849 147.196a12.389 4.778 0 01-3.629 3.378l-8.76-3.378z" fill="#e5650e"/></g><g transform="matrix(.67595 0 0 .67595 127.603 24.492)" stroke-width="1.479"><ellipse ry="4.778" rx="12.389" cx="219.493" cy="185.535" fill="#2f5e5d"/><path d="M231.94 185.512a12.389 4.778 0 01-3.628 3.379l-8.76-3.379z" fill="#e5650e"/></g><g transform="matrix(.67595 0 0 .67595 126.53 30.546)" stroke-width="1.479"><ellipse ry="4.778" rx="12.389" cx="221.08" cy="204.512" fill="#2f5e5d"/><path d="M233.528 204.49a12.389 4.778 0 01-3.629 3.378l-8.76-3.379z" fill="#e5650e"/></g><g fill="#363636" stroke-width="1.964"><path d="M255.245 92.917h5.244v1.66h-5.244zm0 28.166h5.244v1.66h-5.244z"/><path d="M258.83 94.577h1.659v26.507h-1.66z"/><path d="M258.931 106.26h6.226v1.66h-6.226z"/></g><text stroke-width=".308" fill="#e5650e" word-spacing="0" letter-spacing="0" font-family="'Ubuntu Condensed'" font-size="4.31" font-weight="700" y="90.638" x="265.713" style="line-height:1.25;-inkscape-font-specification:'Ubuntu Condensed, Bold'"><tspan font-family="sans-serif" style="-inkscape-font-specification:'sans-serif Bold'" y="90.638" x="265.713" stroke-width="1.164">avg error</tspan></text><g fill="#2f5e5d" stroke-width="1.964"><path d="M271.694 96.27v-.832h8.533v.832z"/><path d="M275.534 95.753v-2.45h.852v2.45zM270.842 97.888v-2.45h.852v2.45zM279.375 97.888v-2.45h.852v2.45z"/></g><g transform="matrix(.67595 0 0 .67595 124.575 121.534)" stroke-width="1.479"><circle r="12.389" cy="111.307" cx="224.001" fill="#2f5e5d"/><path d="M236.289 113.27a12.389 12.389 0 01-10.562 10.336 12.389 12.389 0 01-12.944-7.13l11.27-5.145z" fill="#e5650e"/></g><g fill="#363636" stroke-width="1.964"><path d="M255.861 182.44h5.245v1.659h-5.245zm0 28.166h5.245v1.66h-5.245zM259.446 184.1h1.66v26.506h-1.66z"/><path d="M259.547 195.783h6.227v1.66h-6.227z"/></g><path d="M299.179 108.43h2.917v88.756h-2.917zM302.096 105.513v2.917h-9.324v-2.917z" fill="#363636"/><path d="M302.096 194.27v2.916h-9.324v-2.916zM308.555 151.35v2.916h-9.324v-2.916z" fill="#363636"/><circle r="20.904" cy="151.086" cx="333.758" fill="#2f5e5d"/><path d="M329.543 171.57a20.904 20.904 0 01-14.8-11.794l19.016-8.68z" fill="#e5650e"/><text style="line-height:.85;-inkscape-font-specification:'Ubuntu Condensed, Bold';text-align:center;white-space:pre;inline-size:54.0541" x="334.178" y="113.907" font-weight="700" font-size="9.254" font-family="'Ubuntu Condensed'" letter-spacing="0" word-spacing="0" fill="#e5650e" stroke-width=".308" transform="translate(2.337 -8.472)" text-anchor="middle"><tspan x="334.178" y="113.907"><tspan style="-inkscape-font-specification:'sans-serif Bold'" font-family="sans-serif">total</tspan><tspan style="-inkscape-font-specification:'sans-serif Bold';text-align:center" font-family="sans-serif" stroke-width="1.164"> </tspan></tspan><tspan x="334.178" y="122.214"><tspan style="-inkscape-font-specification:'sans-serif Bold';text-align:center" font-family="sans-serif" stroke-width="1.164">avg error</tspan></tspan></text><g fill="#2f5e5d" stroke-width=".915"><path d="M325.516 125.436v-1.787h18.32v1.787z"/><path d="M333.762 124.327v-5.261h1.829v5.261zM323.688 128.91v-5.26h1.828v5.26zM342.008 128.91v-5.26h1.828v5.26z"/></g><path d="M155.875 119.733h-6.2v-6.2h6.2z" fill="#4e9d9b"/><path d="M155.273 103.721h-5.183v-5.183h5.183z" fill="#4e9d9b" fill-opacity=".5"/><path d="M155.273 108.163h-5.183v-5.183h5.183z" fill="#4e9d9b" fill-opacity=".5"/><path d="M155.273 112.605h-5.183v-5.183h5.183z" fill="#4e9d9b" fill-opacity=".5"/><g stroke-width=".838"><path d="M155.84 97.958h-6.246v-6.246h6.246z" fill="#4e9d9b"/><g font-weight="700" letter-spacing="0" word-spacing="0" font-family="sans-serif" fill="#fff" stroke-width=".539"><text y="275.026" x="9.079" style="line-height:1.25;-inkscape-font-specification:'sans-serif Bold'" font-size="7.013" stroke-width=".475" transform="translate(145.577 -73.796) scale(.61672)"><tspan style="-inkscape-font-specification:'sans-serif Bold'" y="275.026" x="9.079">x</tspan></text><text style="line-height:1.25;-inkscape-font-specification:'sans-serif Bold'" x="13.398" y="276.695" font-size="3.356" stroke-width=".227" transform="translate(145.577 -73.796) scale(.61672)"><tspan x="13.398" y="276.695" style="-inkscape-font-specification:'sans-serif Bold'">1</tspan></text></g></g><g font-weight="700" letter-spacing="0" word-spacing="0" font-family="sans-serif" fill="#fff" stroke-width=".543"><text font-size="7.013" style="line-height:1.25;-inkscape-font-specification:'sans-serif Bold'" x="9.079" y="275.026" stroke-width=".479" transform="matrix(.61218 0 0 .61218 145.785 -50.443)"><tspan x="9.079" y="275.026" style="-inkscape-font-specification:'sans-serif Bold'">x</tspan></text><text font-size="3.356" y="276.695" x="13.398" style="line-height:1.25;-inkscape-font-specification:'sans-serif Bold'" stroke-width=".229" transform="matrix(.61218 0 0 .61218 145.785 -50.443)"><tspan style="-inkscape-font-specification:'sans-serif Bold'" y="276.695" x="13.398">k</tspan></text></g><text y="130.629" x="66.756" style="line-height:1.25;-inkscape-font-specification:'Ubuntu Condensed, Bold'" font-weight="700" font-size="10.194" letter-spacing="0" word-spacing="0" font-family="Ubuntu Condensed" fill="#2f5e5d" stroke-width=".482"><tspan style="-inkscape-font-specification:'sans-serif Bold'" y="130.629" x="66.756" font-family="sans-serif" stroke-width="2.545">Loss</tspan></text><text word-spacing="0" letter-spacing="0" font-size="10.194" font-weight="700" style="line-height:1.25;-inkscape-font-specification:'Ubuntu Condensed, Bold'" x="66.845" y="163.157" font-family="Ubuntu Condensed" fill="#2f5e5d" stroke-width=".482"><tspan x="66.845" y="163.157" style="-inkscape-font-specification:'sans-serif Bold'" font-family="sans-serif" stroke-width="2.545">max</tspan></text><path d="M147.678 193.722v2.366h6.753v-2.366z" fill="#a0c5d9"/><path d="M155.022 209.372h-6.2v-6.2h6.2z" fill="#4e9d9b"/><path d="M154.42 193.36h-5.183v-5.183h5.183z" fill="#4e9d9b" fill-opacity=".5"/><path d="M154.42 197.802h-5.183v-5.183h5.183z" fill="#4e9d9b" fill-opacity=".5"/><path d="M154.42 202.244h-5.183v-5.183h5.183z" fill="#4e9d9b" fill-opacity=".5"/><g stroke-width=".838"><path d="M154.987 187.597h-6.246v-6.246h6.246z" fill="#4e9d9b"/><g font-weight="700" letter-spacing="0" word-spacing="0" font-family="sans-serif" fill="#fff" stroke-width=".539"><text y="275.026" x="9.079" style="line-height:1.25;-inkscape-font-specification:'sans-serif Bold'" font-size="7.013" stroke-width=".475" transform="translate(144.724 15.842) scale(.61672)"><tspan style="-inkscape-font-specification:'sans-serif Bold'" y="275.026" x="9.079">x</tspan></text><text style="line-height:1.25;-inkscape-font-specification:'sans-serif Bold'" x="13.398" y="276.695" font-size="3.356" stroke-width=".227" transform="translate(144.724 15.842) scale(.61672)"><tspan x="13.398" y="276.695" style="-inkscape-font-specification:'sans-serif Bold'">1</tspan></text></g></g><g font-weight="700" letter-spacing="0" word-spacing="0" font-family="sans-serif" fill="#fff" stroke-width=".543"><text font-size="7.013" style="line-height:1.25;-inkscape-font-specification:'sans-serif Bold'" x="9.079" y="275.026" stroke-width=".479" transform="matrix(.61218 0 0 .61218 144.932 39.196)"><tspan x="9.079" y="275.026" style="-inkscape-font-specification:'sans-serif Bold'">x</tspan></text><text font-size="3.356" y="276.695" x="13.398" style="line-height:1.25;-inkscape-font-specification:'sans-serif Bold'" stroke-width=".229" transform="matrix(.61218 0 0 .61218 144.932 39.196)"><tspan style="-inkscape-font-specification:'sans-serif Bold'" y="276.695" x="13.398">k</tspan></text></g></g></svg>