<svg xmlns="http://www.w3.org/2000/svg" viewBox="0 0 299.1 124" height="468.8" width="1130.4"><g transform="translate(32.6 -118.7)"><rect width="22.7" height="22.7" x="-28.9" y="163" ry="0" fill="#2f5e5d"/><text y="180.4" x="-27.7" style="line-height:1.25;-inkscape-font-specification:'Ubuntu Condensed, Bold'" font-weight="700" font-size="19.3" letter-spacing="0" word-spacing="0" font-family="Ubuntu Condensed" fill="#fff" stroke-width=".5"><tspan style="-inkscape-font-specification:'sans-serif Bold'" y="180.4" x="-27.7" font-family="sans-serif">D</tspan></text><text style="line-height:1.25;-inkscape-font-specification:'sans-serif Bold'" x="-12.9" y="183.5" font-weight="700" font-size="7.8" letter-spacing="0" word-spacing="0" font-family="sans-serif" fill="#fff" stroke-width=".2"><tspan x="-12.9" y="183.5" style="-inkscape-font-specification:'sans-serif Bold'">?</tspan></text><text y="181.2" x="-1.2" style="line-height:1.25;-inkscape-font-specification:'sans-serif Bold'" font-weight="700" font-size="15.8" font-family="sans-serif" letter-spacing="0" word-spacing="0" fill="#363636" stroke-width=".4"><tspan style="-inkscape-font-specification:'sans-serif Bold'" y="181.2" x="-1.2">≥</tspan></text><rect ry="0" y="120.7" x="52.3" height="8" width="8" fill="#2f5e5d"/><text style="line-height:1.25;-inkscape-font-specification:'Ubuntu Condensed, Bold'" x="52.7" y="126.9" font-weight="700" font-size="6.8" letter-spacing="0" word-spacing="0" font-family="Ubuntu Condensed" fill="#fff" stroke-width=".3"><tspan x="52.7" y="126.9" style="-inkscape-font-specification:'sans-serif Bold'" font-family="sans-serif">D</tspan></text><text y="128" x="57.9" style="line-height:1.25;-inkscape-font-specification:'sans-serif Bold'" font-weight="700" font-size="2.8" letter-spacing="0" word-spacing="0" font-family="sans-serif" fill="#fff" stroke-width=".1"><tspan style="-inkscape-font-specification:'sans-serif Bold'" y="128" x="57.9">1</tspan></text><rect rx="0" width="8" height="8" x="52.1" y="142.6" ry="0" fill="#2f5e5d"/><g font-weight="700" letter-spacing="0" word-spacing="0" fill="#fff" stroke-width="1.9"><text style="line-height:1.25;-inkscape-font-specification:'Ubuntu Condensed, Bold'" x="-119.8" y="833.1" font-size="13.8" font-family="Ubuntu Condensed" stroke-width=".7" transform="translate(111.2 -260.8) scale(.49158)"><tspan x="-119.8" y="833.1" style="-inkscape-font-specification:'sans-serif Bold'" font-family="sans-serif" stroke-width=".6">D</tspan></text><text y="835.3" x="-109.1" style="line-height:1.25;-inkscape-font-specification:'sans-serif Bold'" font-size="5.6" font-family="sans-serif" stroke-width=".3" transform="translate(111.2 -260.8) scale(.49158)"><tspan style="-inkscape-font-specification:'sans-serif Bold'" y="835.3" x="-109.1">T</tspan></text></g><path d="M53.5 129.2h5.2v5h-5.2z" fill="#2f5e5d" opacity=".5"/><path d="M53.5 133.1h5.2v5h-5.2z" fill="#2f5e5d" opacity=".5"/><path d="M53.5 137h5.2v5h-5.2z" fill="#2f5e5d" opacity=".5"/><text stroke-width=".4" fill="#363636" word-spacing="0" letter-spacing="0" font-family="sans-serif" font-size="10.7" font-weight="700" style="line-height:1.25;-inkscape-font-specification:'sans-serif Bold'" x="62.7" y="128.5"><tspan x="62.7" y="128.5" style="-inkscape-font-specification:'sans-serif Bold'">A(</tspan></text><text stroke-width=".4" fill="#363636" word-spacing="0" letter-spacing="0" font-family="sans-serif" font-size="10.7" font-weight="700" y="128.5" x="88.4" style="line-height:1.25;-inkscape-font-specification:'sans-serif Bold'"><tspan style="-inkscape-font-specification:'sans-serif Bold'" y="128.5" x="88.4">)</tspan></text><path d="M100.3 120.8h8.7v8.8h-8.7z" fill="#99039e"/><text word-spacing="0" letter-spacing="0" font-size="6.1" font-weight="700" y="127.5" x="102.4" style="line-height:1.25;-inkscape-font-specification:'sans-serif Bold'" font-family="sans-serif" stroke-width=".2" fill="#fff"><tspan style="-inkscape-font-specification:'sans-serif Bold'" y="127.5" x="102.4">h</tspan></text><g fill="#363636" stroke-width="1.5"><path d="M97.4 124v2.2h-4V124z"/><path d="M96.5 122.4v5.4l1.5-1.3 1.4-1.4-1.5-1.3z"/></g><path d="M76.8 120.2H87v9.8H76.8z" fill="#dca900"/><text y="129.8" x="77.1" style="line-height:1.25;-inkscape-font-specification:'sans-serif Bold'" font-size="8.6" transform="scale(1.01901 .98134)" font-weight="700" font-family="sans-serif" letter-spacing="0" word-spacing="0" fill="#fff" stroke-width=".3"><tspan style="-inkscape-font-specification:'sans-serif Bold'" y="129.8" x="77.1">s</tspan></text><text font-size="3.6" y="141.6" x="72.6" style="line-height:1.25;-inkscape-font-specification:'sans-serif Bold'" transform="scale(1.1491 .87024)" font-weight="700" font-family="sans-serif" letter-spacing="0" word-spacing="0" fill="#fff" stroke-width=".1"><tspan style="-inkscape-font-specification:'sans-serif Bold'" y="141.6" x="72.6">1</tspan></text><path d="M50.7 123.8h-2.3v23.8h2.3z" fill="#4e9d9b"/><text transform="scale(1.00046 .99954)" style="line-height:1.25;-inkscape-font-specification:'sans-serif Bold'" x="83.2" y="129.3" font-size="3.2" font-weight="700" font-family="sans-serif" letter-spacing="0" word-spacing="0" fill="#fff"><tspan x="83.2" y="129.3" style="-inkscape-font-specification:'sans-serif Bold'" stroke-width=".1">1</tspan></text><rect fill="#2f5e5d" rx="0" ry="0" y="119.4" x="119.1" height="11.3" width="3.1"/><rect fill="#2f5e5d" width="3.1" height="11.3" x="123.4" y="119.4" ry="0" rx="0"/><rect fill="#2f5e5d" width="3.1" height="11.3" x="131.5" y="119.4" ry="0" rx="0"/><rect fill="#e5650e" width="7.2" height="11.3" x="140.6" y="119.4" ry="0" rx="0"/><rect fill="#2f5e5d" width="3.1" height="11.3" x="153.7" y="119.4" ry="0" rx="0"/><path d="M119.1 129.2h37.6v1.9h-37.6z" fill="#2f5e5d"/><g fill="#363636" stroke-width="1.8"><path d="M115 124.1v2.1h-4.2v-2z"/><path d="M114 122.5v5.4l1.4-1.4 1.5-1.3-1.5-1.4z"/></g><path d="M42 123.8v2.3h6.4v-2.3zm0 21.4v2.4h6.4v-2.4zm8.6-10.7v2.4h2v-2.4z" fill="#4e9d9b"/><path fill="#2f5e5d" d="M119.1 133.7h37.5v1.4h-37.5zm0 2.5h37.5v1.5h-37.5z"/><path d="M77 133h10.1v1.5h-10zm0 2.7h10.1v1.4h-10zm0 2.6h10.1v1.4h-10z" fill="#dca900"/><path fill="#2f5e5d" d="M119.1 138.8h37.5v1.4h-37.5z"/><path d="M100.4 133.8h8.9v1.4h-8.9zm0 2.6h8.9v1.4h-8.9zm0 2.5h8.9v1.5h-8.9z" fill="#99039e"/><path fill="#e5650e" d="M119.1 133.7h8.8v1.4h-8.8zm14.8 2.5h11.7v1.5h-11.7zm-11.7 2.6h3.8v1.4h-3.8zm17.1 0h5.7v1.4h-5.7z"/><text y="217.4" x="61.2" style="line-height:1.25;-inkscape-font-specification:'sans-serif Bold'" font-weight="700" font-size="10.7" font-family="sans-serif" letter-spacing="0" word-spacing="0" fill="#363636" stroke-width=".4"><tspan style="-inkscape-font-specification:'sans-serif Bold'" y="217.4" x="61.2">A(</tspan></text><text style="line-height:1.25;-inkscape-font-specification:'sans-serif Bold'" x="88" y="217.4" font-weight="700" font-size="10.7" font-family="sans-serif" letter-spacing="0" word-spacing="0" fill="#363636" stroke-width=".4"><tspan x="88" y="217.4" style="-inkscape-font-specification:'sans-serif Bold'">)</tspan></text><path fill="#99039e" d="M99.9 209.7h8.7v8.7h-8.7z"/><text style="line-height:1.25;-inkscape-font-specification:'sans-serif Bold'" x="102" y="216.4" font-weight="700" font-size="6.1" font-family="sans-serif" letter-spacing="0" word-spacing="0" fill="#fff" stroke-width=".2"><tspan x="102" y="216.4" style="-inkscape-font-specification:'sans-serif Bold'">h</tspan></text><g fill="#363636" stroke-width="1.5"><path d="M97 213v2H93v-2z"/><path d="M96 211.3v5.4l1.5-1.4L99 214l-1.5-1.3z"/></g><path d="M76.4 209h10.2v9.9H76.4z" fill="#dca900"/><text font-size="8.6" style="line-height:1.25;-inkscape-font-specification:'sans-serif Bold'" x="76.7" y="220.4" transform="scale(1.01901 .98134)" font-weight="700" font-family="sans-serif" letter-spacing="0" word-spacing="0" fill="#fff" stroke-width=".3"><tspan x="76.7" y="220.4" style="-inkscape-font-specification:'sans-serif Bold'">s</tspan></text><text transform="scale(1.1491 .87024)" style="line-height:1.25;-inkscape-font-specification:'sans-serif Bold'" x="72.2" y="243.7" font-size="3.6" font-weight="700" font-family="sans-serif" letter-spacing="0" word-spacing="0" fill="#fff" stroke-width=".1"><tspan x="72.2" y="243.7" style="-inkscape-font-specification:'sans-serif Bold'">1</tspan></text><path d="M50 213.5h-2.3v22.3H50z" fill="#4e9d9b"/><text font-size="3.2" y="218.1" x="82.8" style="line-height:1.25;-inkscape-font-specification:'sans-serif Bold'" transform="scale(1.00046 .99954)" font-weight="700" font-family="sans-serif" letter-spacing="0" word-spacing="0" fill="#fff"><tspan style="-inkscape-font-specification:'sans-serif Bold'" y="218.1" x="82.8" stroke-width=".1">k</tspan></text><rect width="3.1" height="11.3" x="118.7" y="208.3" ry="0" rx="0" fill="#2f5e5d"/><rect rx="0" ry="0" y="208.3" x="123" height="11.3" width="3.1" fill="#2f5e5d"/><rect rx="0" ry="0" y="208.3" x="131.1" height="11.3" width="3.1" fill="#e5650e"/><rect rx="0" ry="0" y="208.3" x="140.2" height="11.3" width="7.2" fill="#2f5e5d"/><rect rx="0" ry="0" y="208.3" x="153.3" height="11.3" width="3.1" fill="#2f5e5d"/><path fill="#2f5e5d" d="M118.7 218h37.6v2h-37.6z"/><g fill="#363636" stroke-width="1.8"><path d="M114.5 213v2h-4.1v-2z"/><path d="M113.6 211.3v5.4l1.4-1.3 1.5-1.4-1.5-1.4z"/></g><path d="M41.4 213.5v2.4h6.3v-2.4zm0 20v2.3h6.3v-2.3zm8.5-9.3v2.4h1.2v-2.4z" fill="#4e9d9b"/><path fill="#2f5e5d" d="M118.7 222.5h37.5v1.4h-37.5zm0 2.6h37.5v1.4h-37.5z"/><path d="M76.5 221.7h10v1.4h-10zm0 2.6h10v1.4h-10zm0 2.6h10v1.4h-10z" fill="#dca900"/><path fill="#2f5e5d" d="M118.7 227.7h37.5v1.4h-37.5z"/><path d="M100 222.6h8.8v1.4H100zm0 2.6h8.8v1.4H100zm0 2.6h8.8v1.4H100z" fill="#b504bb"/><path fill="#e5650e" d="M118.7 222.5h20.6v1.4h-20.6zm14.8 2.6h4.3v1.4h-4.3zm-11.7 2.6h3.8v1.4h-3.8zm20 0h2.8v1.4h-2.7z"/><path fill="#4e9b99" fill-opacity=".5" d="M44 158.3h108.7v8.5H44.1z"/><path fill="#dca900" d="M76.6 158.3h11v8.5h-11z"/><path fill="#99039e" d="M100.2 158.3h10.4v8.5h-10.4z"/><path fill="#2f5e5d" d="M118.9 158.3h37.8v8.5H119z"/><path fill="#e5650e" d="M130.8 158.3h3.3v8.5h-3.3z"/><path fill="#4e9b99" fill-opacity=".5" d="M44 176h110.3v8.6H44z"/><path fill="#dca900" d="M76.6 176h11v8.6h-11z"/><path fill="#99039e" d="M100.2 176h10.4v8.6h-10.4z"/><path fill="#2f5e5d" d="M119.3 176h37.9v8.6h-37.9z"/><path fill="#e5650e" d="M136 176h3.2v8.6H136z"/><path fill="#4e9b99" fill-opacity=".5" d="M44 193.8h110.3v8.6H44z"/><path fill="#dca900" d="M76.6 193.8h11v8.6h-11z"/><path fill="#99039e" d="M100.2 193.8h10.4v8.6h-10.4z"/><path fill="#2f5e5d" d="M119.3 193.8h37.9v8.6h-37.9z"/><path fill="#e5650e" d="M128.9 193.8h6.7v8.6h-6.7z"/><text y="150.6" x="62.7" style="line-height:1.25;-inkscape-font-specification:'sans-serif Bold'" font-weight="700" font-size="10.7" font-family="sans-serif" letter-spacing="0" word-spacing="0" fill="#363636" stroke-width=".4"><tspan style="-inkscape-font-specification:'sans-serif Bold'" y="150.6" x="62.7">A(</tspan></text><text style="line-height:1.25;-inkscape-font-specification:'sans-serif Bold'" x="88.4" y="150.6" font-weight="700" font-size="10.7" font-family="sans-serif" letter-spacing="0" word-spacing="0" fill="#363636" stroke-width=".4"><tspan x="88.4" y="150.6" style="-inkscape-font-specification:'sans-serif Bold'">)</tspan></text><path fill="#99039e" d="M100.3 142.9h8.7v8.7h-8.7z"/><text style="line-height:1.25;-inkscape-font-specification:'sans-serif Bold'" x="102.4" y="149.6" font-weight="700" font-size="6.1" font-family="sans-serif" letter-spacing="0" word-spacing="0" fill="#fff" stroke-width=".2"><tspan x="102.4" y="149.6" style="-inkscape-font-specification:'sans-serif Bold'">h</tspan></text><g fill="#363636" stroke-width="1.5"><path d="M97.5 146.1v2.1h-4.2v-2z"/><path d="M96.5 144.5v5.4l1.5-1.4 1.4-1.3-1.4-1.4z"/></g><path d="M76.8 142.3H87v9.8H76.8z" fill="#dca900"/><text font-size="8.6" style="line-height:1.25;-inkscape-font-specification:'sans-serif Bold'" x="77.1" y="152.3" transform="scale(1.01901 .98134)" font-weight="700" font-family="sans-serif" letter-spacing="0" word-spacing="0" fill="#fff" stroke-width=".3"><tspan x="77.1" y="152.3" style="-inkscape-font-specification:'sans-serif Bold'">s</tspan></text><text transform="scale(1.1491 .87024)" style="line-height:1.25;-inkscape-font-specification:'sans-serif Bold'" x="72.6" y="166.9" font-size="3.6" font-weight="700" font-family="sans-serif" letter-spacing="0" word-spacing="0" fill="#fff" stroke-width=".1"><tspan x="72.6" y="166.9" style="-inkscape-font-specification:'sans-serif Bold'">T</tspan></text><text font-size="3.2" y="151.3" x="83.2" style="line-height:1.25;-inkscape-font-specification:'sans-serif Bold'" transform="scale(1.00046 .99954)" font-weight="700" font-family="sans-serif" letter-spacing="0" word-spacing="0" fill="#fff"><tspan style="-inkscape-font-specification:'sans-serif Bold'" y="151.3" x="83.2" stroke-width=".1">1</tspan></text><rect width="3.1" height="11.3" x="119.2" y="141.5" ry="0" rx="0" fill="#2f5e5d"/><rect rx="0" ry="0" y="141.5" x="123.4" height="11.3" width="6.4" fill="#2f5e5d"/><rect rx="0" ry="0" y="141.5" x="131.5" height="11.3" width="3.1" fill="#2f5e5d"/><rect rx="0" ry="0" y="141.5" x="145.2" height="11.3" width="2.5" fill="#e5650e"/><rect rx="0" ry="0" y="141.5" x="151.1" height="11.3" width="5.7" fill="#2f5e5d"/><path fill="#2f5e5d" d="M119.2 151.3h37.5v1.9h-37.5z"/><g fill="#363636" stroke-width="1.8"><path d="M115 146.2v2h-4.2v-2z"/><path d="M114 144.5v5.5l1.5-1.4 1.4-1.4-1.5-1.3z"/></g><text stroke-width=".4" fill="#363636" word-spacing="0" letter-spacing="0" font-family="sans-serif" font-size="10.7" font-weight="700" style="line-height:1.25;-inkscape-font-specification:'sans-serif Bold'" x="61.2" y="239.9"><tspan x="61.2" y="239.9" style="-inkscape-font-specification:'sans-serif Bold'">A(</tspan></text><text stroke-width=".4" fill="#363636" word-spacing="0" letter-spacing="0" font-family="sans-serif" font-size="10.7" font-weight="700" y="239.9" x="87.9" style="line-height:1.25;-inkscape-font-specification:'sans-serif Bold'"><tspan style="-inkscape-font-specification:'sans-serif Bold'" y="239.9" x="87.9">)</tspan></text><path d="M99.8 232.2h8.8v8.8h-8.8z" fill="#99039e"/><text stroke-width=".2" fill="#fff" word-spacing="0" letter-spacing="0" font-family="sans-serif" font-size="6.1" font-weight="700" y="238.9" x="102" style="line-height:1.25;-inkscape-font-specification:'sans-serif Bold'"><tspan style="-inkscape-font-specification:'sans-serif Bold'" y="238.9" x="102">h</tspan></text><g fill="#363636" stroke-width="1.5"><path d="M97 235.5v2h-4.1v-2z"/><path d="M96 233.8v5.4l1.5-1.3 1.5-1.4-1.5-1.3z"/></g><path d="M76.4 231.6h10.1v9.8H76.4z" fill="#dca900"/><text y="243.4" x="76.7" style="line-height:1.25;-inkscape-font-specification:'sans-serif Bold'" font-size="8.6" transform="scale(1.01901 .98134)" font-weight="700" font-family="sans-serif" letter-spacing="0" word-spacing="0" fill="#fff" stroke-width=".3"><tspan style="-inkscape-font-specification:'sans-serif Bold'" y="243.4" x="76.7">s</tspan></text><text font-size="3.6" y="269.6" x="72.2" style="line-height:1.25;-inkscape-font-specification:'sans-serif Bold'" transform="scale(1.1491 .87024)" font-weight="700" font-family="sans-serif" letter-spacing="0" word-spacing="0" fill="#fff" stroke-width=".1"><tspan style="-inkscape-font-specification:'sans-serif Bold'" y="269.6" x="72.2">T</tspan></text><text transform="scale(1.00046 .99954)" style="line-height:1.25;-inkscape-font-specification:'sans-serif Bold'" x="82.7" y="240.7" font-size="3.2" font-weight="700" font-family="sans-serif" letter-spacing="0" word-spacing="0" fill="#fff"><tspan x="82.7" y="240.7" style="-inkscape-font-specification:'sans-serif Bold'" stroke-width=".1">k</tspan></text><rect fill="#2f5e5d" rx="0" ry="0" y="230.8" x="118.7" height="11.3" width="3.1"/><rect fill="#e5650e" width="6.4" height="11.3" x="123" y="230.8" ry="0" rx="0"/><rect fill="#2f5e5d" width="3.1" height="11.3" x="131.1" y="230.8" ry="0" rx="0"/><rect fill="#2f5e5d" width="2.5" height="11.3" x="144.8" y="230.8" ry="0" rx="0"/><rect fill="#2f5e5d" width="5.7" height="11.3" x="150.6" y="230.8" ry="0" rx="0"/><path d="M118.7 240.6h37.6v1.9h-37.6z" fill="#2f5e5d"/><g fill="#363636" stroke-width="1.8"><path d="M114.5 235.5v2.1h-4.1v-2z"/><path d="M113.5 233.9v5.4l1.5-1.4 1.5-1.3-1.5-1.4z"/></g><circle cx="181.2" cy="137.7" r="8.4" fill="#2f5e5d"/><path d="M189.6 137.6a8.4 8.4 0 01-2.5 6l-5.9-6z" fill="#e5650e"/><g transform="translate(32.1 62.7) scale(.67595)" stroke-width="1.5"><ellipse ry="4.8" rx="12.4" cx="221.4" cy="147.2" fill="#2f5e5d"/><path d="M233.8 147.2a12.4 4.8 0 01-3.6 3.4l-8.7-3.4z" fill="#e5650e"/></g><g transform="translate(33.4 55) scale(.67595)" stroke-width="1.5"><ellipse cy="185.5" cx="219.5" rx="12.4" ry="4.8" fill="#2f5e5d"/><path d="M232 185.5a12.4 4.8 0 01-3.7 3.4l-8.7-3.4z" fill="#e5650e"/></g><g transform="translate(32.3 61) scale(.67595)" stroke-width="1.5"><ellipse cy="204.5" cx="221.1" rx="12.4" ry="4.8" fill="#2f5e5d"/><path d="M233.5 204.5a12.4 4.8 0 01-3.6 3.4l-8.8-3.4z" fill="#e5650e"/></g><g fill="#363636" stroke-width="2"><path d="M161 123.3h5.3v1.7H161zm0 28.2h5.3v1.7H161zm3.6-26.5h1.7v26.5h-1.7z"/><path d="M164.7 136.7h6.3v1.6h-6.3z"/></g><text style="line-height:1.25;-inkscape-font-specification:'Ubuntu Condensed, Bold'" x="171.5" y="121.1" font-weight="700" font-size="4.3" font-family="'Ubuntu Condensed'" letter-spacing="0" word-spacing="0" fill="#e5650e" stroke-width=".3"><tspan x="171.5" y="121.1" style="-inkscape-font-specification:'sans-serif Bold'" font-family="sans-serif" stroke-width="1.2">avg error</tspan></text><g fill="#2f5e5d" stroke-width="2"><path d="M177.5 126.7v-.8h8.5v.8z"/><path d="M181.3 126.2v-2.5h.9v2.5zm-4.7 2.1V126h.9v2.4zm8.6 0V126h.8v2.4z"/></g><g transform="translate(30.4 152) scale(.67595)" stroke-width="1.5"><circle cx="224" cy="111.3" r="12.4" fill="#2f5e5d"/><path d="M236.3 113.3a12.4 12.4 0 01-10.6 10.3 12.4 12.4 0 01-13-7.1l11.4-5.2z" fill="#e5650e"/></g><g fill="#363636" stroke-width="2"><path d="M161.7 212.9h5.2v1.6h-5.2zm0 28.1h5.2v1.7h-5.2zm3.5-26.5h1.7V241h-1.7z"/><path d="M165.3 226.2h6.3v1.7h-6.3z"/></g><path d="M205 138.9h2.9v88.7h-3zm2.9-3v3h-9.3v-3z" fill="#363636"/><path d="M207.9 224.7v3h-9.3v-3zm6.5-43v3H205v-3z" fill="#363636"/><circle cx="239.6" cy="181.5" r="20.9" fill="#2f5e5d"/><path d="M235.3 202a20.9 20.9 0 01-14.8-11.8l19-8.7z" fill="#e5650e"/><text transform="translate(-91.9 22)" stroke-width=".3" fill="#e5650e" word-spacing="0" letter-spacing="0" font-family="'Ubuntu Condensed'" font-size="9.3" font-weight="700" y="113.9" x="334.2" style="line-height:.85;-inkscape-font-specification:'Ubuntu Condensed, Bold';text-align:center;white-space:pre;inline-size:54.0541" text-anchor="middle"><tspan x="334.2" y="113.9"><tspan style="-inkscape-font-specification:'sans-serif Bold'" font-family="sans-serif">total</tspan><tspan style="-inkscape-font-specification:'sans-serif Bold';text-align:center" font-family="sans-serif" stroke-width="1.2"> </tspan></tspan><tspan x="334.2" y="122.2"><tspan style="-inkscape-font-specification:'sans-serif Bold';text-align:center" font-family="sans-serif" stroke-width="1.2">avg error</tspan></tspan></text><g fill="#2f5e5d" stroke-width=".9"><path d="M231.3 155.9V154h18.3v1.8z"/><path d="M239.6 154.8v-5.3h1.8v5.3zm-10.1 4.5v-5.2h1.8v5.2zm18.3 0v-5.2h1.8v5.2z"/></g><path fill="#4e9d9b" d="M37.3 146.3H15.5v-21.9h21.8zm0 89.6H15.5V214h21.8z"/><path d="M37.3 171.8H15.5V150h21.8z" fill="#4e9d9b" fill-opacity=".5"/><path fill="#4e9d9b" d="M37.3 190.5H15.5v-21.8h21.8z" fill-opacity=".5"/><path fill="#4e9d9b" d="M37.3 209.3H15.5v-21.9h21.8z" fill-opacity=".5"/><g word-spacing="0" letter-spacing="0" font-family="sans-serif" font-weight="700" fill="#fff" stroke-width=".1"><text font-size="7" style="line-height:1.25;-inkscape-font-specification:'sans-serif Bold'" x="9.1" y="275" transform="translate(1.4 -454.4) scale(2.15688)"><tspan x="9.1" y="275" style="-inkscape-font-specification:'sans-serif Bold'">x</tspan></text><text font-size="3.4" y="276.7" x="13.4" style="line-height:1.25;-inkscape-font-specification:'sans-serif Bold'" transform="translate(1.4 -454.4) scale(2.15688)"><tspan style="-inkscape-font-specification:'sans-serif Bold'" y="276.7" x="13.4">1</tspan></text></g><g fill="#fff" font-weight="700" font-family="sans-serif" letter-spacing="0" word-spacing="0" stroke-width=".1"><text font-size="7" style="line-height:1.25;-inkscape-font-specification:'sans-serif Bold'" x="9.1" y="275" transform="translate(1 -364.5) scale(2.15688)"><tspan x="9.1" y="275" style="-inkscape-font-specification:'sans-serif Bold'">x</tspan></text><text font-size="3.4" y="276.7" x="13.4" style="line-height:1.25;-inkscape-font-specification:'sans-serif Bold'" transform="translate(1 -364.5) scale(2.15688)"><tspan style="-inkscape-font-specification:'sans-serif Bold'" y="276.7" x="13.4">k</tspan></text></g><rect width="8" height="8" x="51.7" y="209.6" ry="0" fill="#2f5e5d"/><text word-spacing="0" letter-spacing="0" font-size="6.8" font-weight="700" y="215.7" x="52.1" style="line-height:1.25;-inkscape-font-specification:'Ubuntu Condensed, Bold'" font-family="Ubuntu Condensed" fill="#fff" stroke-width=".3"><tspan style="-inkscape-font-specification:'sans-serif Bold'" y="215.7" x="52.1" font-family="sans-serif">D</tspan></text><text word-spacing="0" letter-spacing="0" font-size="2.8" font-weight="700" style="line-height:1.25;-inkscape-font-specification:'sans-serif Bold'" x="57.4" y="216.8" font-family="sans-serif" fill="#fff" stroke-width=".1"><tspan x="57.4" y="216.8" style="-inkscape-font-specification:'sans-serif Bold'">1</tspan></text><rect ry="0" y="231.5" x="51.5" height="8" width="8" rx="0" fill="#2f5e5d"/><g word-spacing="0" letter-spacing="0" font-weight="700" fill="#fff" stroke-width="1.9"><text font-size="13.8" y="833.1" x="-119.8" style="line-height:1.25;-inkscape-font-specification:'Ubuntu Condensed, Bold'" font-family="Ubuntu Condensed" stroke-width=".7" transform="translate(110.6 -172) scale(.49158)"><tspan style="-inkscape-font-specification:'sans-serif Bold'" y="833.1" x="-119.8" font-family="sans-serif" stroke-width=".6">D</tspan></text><text font-size="5.6" style="line-height:1.25;-inkscape-font-specification:'sans-serif Bold'" x="-109.1" y="835.3" font-family="sans-serif" stroke-width=".3" transform="translate(110.6 -172) scale(.49158)"><tspan x="-109.1" y="835.3" style="-inkscape-font-specification:'sans-serif Bold'">T</tspan></text></g><path d="M53 218h5v5h-5z" fill="#2f5e5d" opacity=".5"/><path d="M53 222h5v4.9h-5z" fill="#2f5e5d" opacity=".5"/><path d="M53 226h5v4.8h-5z" fill="#2f5e5d" opacity=".5"/><text y="160" x="-29.8" style="line-height:1.25;-inkscape-font-specification:'Ubuntu Condensed, Bold'" font-weight="700" font-size="10.2" letter-spacing="0" word-spacing="0" font-family="Ubuntu Condensed" fill="#2f5e5d" stroke-width=".5"><tspan style="-inkscape-font-specification:'sans-serif Bold'" y="160" x="-29.8" font-family="sans-serif" stroke-width="2.5">Loss</tspan></text><text word-spacing="0" letter-spacing="0" font-size="10.2" font-weight="700" style="line-height:1.25;-inkscape-font-specification:'Ubuntu Condensed, Bold'" x="-29.7" y="194.2" font-family="Ubuntu Condensed" fill="#2f5e5d" stroke-width=".5"><tspan x="-29.7" y="194.2" style="-inkscape-font-specification:'sans-serif Bold'" font-family="sans-serif" stroke-width="2.5">max</tspan></text></g></svg>