<svg xmlns="http://www.w3.org/2000/svg" width="1116.568" height="468.82" viewBox="0 0 295.425 124.042"><g transform="translate(125.034 45.48)"><rect width="22.738" height="22.738" x="-125.034" y="-1.099" ry="0" fill="#2f5e5d"/><text y="16.281" x="-123.879" style="line-height:1.25;-inkscape-font-specification:'Ubuntu Condensed, Bold'" font-weight="700" font-size="19.307" letter-spacing="0" word-spacing="0" font-family="Ubuntu Condensed" fill="#fff" stroke-width=".482"><tspan style="-inkscape-font-specification:'sans-serif Bold'" y="16.281" x="-123.879" font-family="sans-serif">D</tspan></text><text style="line-height:1.25;-inkscape-font-specification:'sans-serif Bold'" x="-109.031" y="19.39" font-weight="700" font-size="7.848" letter-spacing="0" word-spacing="0" font-family="sans-serif" fill="#fff" stroke-width=".196"><tspan x="-109.031" y="19.39" style="-inkscape-font-specification:'sans-serif Bold'">?</tspan></text><text y="17.038" x="-97.296" style="line-height:1.25;-inkscape-font-specification:'sans-serif Bold'" font-weight="700" font-size="15.785" letter-spacing="0" word-spacing="0" font-family="sans-serif" fill="#363636" stroke-width=".395"><tspan style="-inkscape-font-specification:'sans-serif Bold'" y="17.038" x="-97.296">≥</tspan></text><rect ry="0" y="-43.384" x="-43.842" height="8" width="8" fill="#2f5e5d"/><text style="line-height:1.25;-inkscape-font-specification:'Ubuntu Condensed, Bold'" x="-43.413" y="-37.269" font-weight="700" font-size="6.793" letter-spacing="0" word-spacing="0" font-family="Ubuntu Condensed" fill="#fff" stroke-width=".345"><tspan x="-43.413" y="-37.269" style="-inkscape-font-specification:'sans-serif Bold'" font-family="sans-serif" stroke-width=".316">D</tspan></text><text y="-36.176" x="-38.189" style="line-height:1.25;-inkscape-font-specification:'sans-serif Bold'" font-weight="700" font-size="2.761" letter-spacing="0" word-spacing="0" font-family="sans-serif" fill="#fff" stroke-width=".14"><tspan style="-inkscape-font-specification:'sans-serif Bold'" y="-36.176" x="-38.189">1</tspan></text><rect rx="0" width="8" height="8" x="-44.053" y="-21.486" ry="0" fill="#2f5e5d"/><g font-weight="700" letter-spacing="0" word-spacing="0" fill="#fff" stroke-width="1.863"><text style="line-height:1.25;-inkscape-font-specification:'Ubuntu Condensed, Bold'" x="-119.77" y="833.104" font-size="13.818" font-family="Ubuntu Condensed" stroke-width=".702" transform="translate(15.02 -424.942) scale(.49158)"><tspan x="-119.77" y="833.104" style="-inkscape-font-specification:'sans-serif Bold'" font-family="sans-serif" stroke-width=".643">D</tspan></text><text y="835.329" x="-109.143" style="line-height:1.25;-inkscape-font-specification:'sans-serif Bold'" font-size="5.617" font-family="sans-serif" stroke-width=".285" transform="translate(15.02 -424.942) scale(.49158)"><tspan style="-inkscape-font-specification:'sans-serif Bold'" y="835.329" x="-109.143">T</tspan></text></g><path d="M-42.63-34.91h5.155v4.9h-5.156z" opacity=".5" fill="#2f5e5d"/><path d="M-42.63-30.983h5.155v4.9h-5.156z" opacity=".5" fill="#2f5e5d"/><path d="M-42.63-27.056h5.155v4.9h-5.156z" opacity=".5" fill="#2f5e5d"/><text word-spacing="0" letter-spacing="0" font-size="10.653" font-weight="700" style="line-height:1.25;-inkscape-font-specification:'sans-serif Bold'" x="-33.452" y="-35.583" font-family="sans-serif" fill="#363636" stroke-width=".395"><tspan x="-33.452" y="-35.583" style="-inkscape-font-specification:'sans-serif Bold'">A(</tspan></text><text word-spacing="0" letter-spacing="0" font-size="10.653" font-weight="700" y="-35.583" x="-7.761" style="line-height:1.25;-inkscape-font-specification:'sans-serif Bold'" font-family="sans-serif" fill="#363636" stroke-width=".395"><tspan style="-inkscape-font-specification:'sans-serif Bold'" y="-35.583" x="-7.761">)</tspan></text><path d="M4.141-43.288h8.73v8.73H4.14z" fill="#99039e"/><text word-spacing="0" letter-spacing="0" font-size="6.131" font-weight="700" y="-36.594" x="6.306" style="line-height:1.25;-inkscape-font-specification:'sans-serif Bold'" font-family="sans-serif" fill="#fff" stroke-width=".227"><tspan style="-inkscape-font-specification:'sans-serif Bold'" y="-36.594" x="6.306">h</tspan></text><g fill="#363636" stroke-width="1.482"><path d="M1.309-40.061v2.118H-2.82v-2.118z"/><path d="M.342-41.72L.352-39l.009 2.718 1.463-1.372 1.464-1.372-1.473-1.346z"/></g><path d="M-19.31-43.887h10.162v9.786H-19.31z" fill="#dca900"/><text y="-37.407" x="-17.212" style="line-height:1.25;-inkscape-font-specification:'sans-serif Bold'" font-size="8.551" transform="scale(1.01901 .98134)" font-weight="700" font-family="sans-serif" letter-spacing="0" word-spacing="0" fill="#fff" stroke-width=".293"><tspan style="-inkscape-font-specification:'sans-serif Bold'" y="-37.407" x="-17.212">s</tspan></text><text font-size="3.628" y="-47.028" x="-11.062" style="line-height:1.25;-inkscape-font-specification:'sans-serif Bold'" transform="scale(1.1491 .87024)" font-weight="700" font-family="sans-serif" letter-spacing="0" word-spacing="0" fill="#fff" stroke-width=".14"><tspan style="-inkscape-font-specification:'sans-serif Bold'" y="-47.028" x="-11.062">1</tspan></text><text transform="scale(1.00046 .99954)" style="line-height:1.25;-inkscape-font-specification:'sans-serif Bold'" x="-12.895" y="-34.947" font-size="3.159" font-weight="700" font-family="sans-serif" letter-spacing="0" word-spacing="0" fill="#fff"><tspan x="-12.895" y="-34.947" style="-inkscape-font-specification:'sans-serif Bold'" stroke-width=".14">1</tspan></text><rect rx="0" ry="0" y="-44.699" x="23.014" height="11.315" width="3.106" fill="#2f5e5d"/><rect width="3.106" height="11.315" x="27.283" y="-44.699" ry="0" rx="0" fill="#2f5e5d"/><rect width="3.106" height="11.315" x="35.383" y="-44.699" ry="0" rx="0" fill="#2f5e5d"/><rect width="7.156" height="11.315" x="44.46" y="-44.699" ry="0" rx="0" fill="#e5650e"/><rect width="3.106" height="11.315" x="57.529" y="-44.699" ry="0" rx="0" fill="#2f5e5d"/><path d="M23.01-34.935H60.61v1.898H23.01z" fill="#2f5e5d"/><g fill="#363636" stroke-width="1.793"><path d="M18.8-40.012v2.118h-4.13v-2.118z"/><path d="M17.834-41.67l.009 2.718.01 2.718 1.462-1.372 1.464-1.37-1.472-1.348z"/></g><g fill="#1d76ce"><path d="M-45.389-40.352h-2.365v23.83h2.365z"/><path d="M-54.04-40.352v2.366h6.286v-2.366zM-54.04-18.888v2.365h6.286v-2.365zM-45.507-29.62v2.366h2.047v-2.366z"/></g><path fill="#2f5e5d" d="M23.014-30.476h37.457v1.409H23.014zM23.014-27.886h37.457v1.409H23.014z"/><g fill="#dca900"><path d="M-19.092-31.043h10.08v1.41h-10.08zM-19.092-28.453h10.08v1.41h-10.08zM-19.092-25.863h10.08v1.41h-10.08z"/></g><path fill="#2f5e5d" d="M23.014-25.296h37.457v1.409H23.014z"/><g fill="#99039e"><path d="M4.283-30.366h8.834v1.409H4.283zM4.283-27.776h8.834v1.409H4.283zM4.283-25.186h8.834v1.409H4.283z"/></g><path fill="#e5650e" d="M23.014-30.476h8.757v1.409h-8.757zM37.776-27.886h11.672v1.409H37.776zM26.032-25.296h3.812v1.409h-3.812zM43.186-25.296h5.694v1.409h-5.694z"/><text y="53.256" x="-34.922" style="line-height:1.25;-inkscape-font-specification:'sans-serif Bold'" font-weight="700" font-size="10.653" letter-spacing="0" word-spacing="0" font-family="sans-serif" fill="#363636" stroke-width=".395"><tspan style="-inkscape-font-specification:'sans-serif Bold'" y="53.256" x="-34.922">A(</tspan></text><text style="line-height:1.25;-inkscape-font-specification:'sans-serif Bold'" x="-8.173" y="53.256" font-weight="700" font-size="10.653" letter-spacing="0" word-spacing="0" font-family="sans-serif" fill="#363636" stroke-width=".395"><tspan x="-8.173" y="53.256" style="-inkscape-font-specification:'sans-serif Bold'">)</tspan></text><path d="M3.73 45.552h8.73v8.73H3.73z" fill="#99039e"/><text style="line-height:1.25;-inkscape-font-specification:'sans-serif Bold'" x="5.895" y="52.246" font-weight="700" font-size="6.131" letter-spacing="0" word-spacing="0" font-family="sans-serif" fill="#fff" stroke-width=".227"><tspan x="5.895" y="52.246" style="-inkscape-font-specification:'sans-serif Bold'">h</tspan></text><g fill="#363636" stroke-width="1.482"><path d="M.897 48.779v2.118H-3.23v-2.118z"/><path d="M-.069 47.12l.01 2.718.008 2.719 1.464-1.372 1.463-1.372-1.472-1.347z"/></g><path d="M-19.722 44.952H-9.56v9.787h-10.162z" fill="#dca900"/><text font-size="8.551" style="line-height:1.25;-inkscape-font-specification:'sans-serif Bold'" x="-17.616" y="53.122" transform="scale(1.01901 .98134)" font-weight="700" font-family="sans-serif" letter-spacing="0" word-spacing="0" fill="#fff" stroke-width=".293"><tspan x="-17.616" y="53.122" style="-inkscape-font-specification:'sans-serif Bold'">s</tspan></text><text transform="scale(1.1491 .87024)" style="line-height:1.25;-inkscape-font-specification:'sans-serif Bold'" x="-11.42" y="55.059" font-size="3.628" font-weight="700" font-family="sans-serif" letter-spacing="0" word-spacing="0" fill="#fff" stroke-width=".14"><tspan x="-11.42" y="55.059" style="-inkscape-font-specification:'sans-serif Bold'">1</tspan></text><text font-size="3.159" y="53.933" x="-13.306" style="line-height:1.25;-inkscape-font-specification:'sans-serif Bold'" transform="scale(1.00046 .99954)" font-weight="700" font-family="sans-serif" letter-spacing="0" word-spacing="0" fill="#fff"><tspan style="-inkscape-font-specification:'sans-serif Bold'" y="53.933" x="-13.306" stroke-width=".14">k</tspan></text><rect width="3.106" height="11.315" x="22.602" y="44.14" ry="0" rx="0" fill="#2f5e5d"/><rect rx="0" ry="0" y="44.14" x="26.872" height="11.315" width="3.106" fill="#2f5e5d"/><rect rx="0" ry="0" y="44.14" x="34.971" height="11.315" width="3.106" fill="#e5650e"/><rect rx="0" ry="0" y="44.14" x="44.049" height="11.315" width="7.156" fill="#2f5e5d"/><rect rx="0" ry="0" y="44.14" x="57.117" height="11.315" width="3.106" fill="#2f5e5d"/><path d="M22.6 53.905h37.598v1.898H22.6z" fill="#2f5e5d"/><g fill="#363636" stroke-width="1.793"><path d="M18.389 48.828v2.118h-4.13v-2.118z"/><path d="M17.423 47.17l.008 2.718.01 2.718 1.463-1.372 1.464-1.371-1.473-1.347z"/></g><g fill="#1d76ce"><path d="M-46.117 49.366h-2.365v22.315h2.365zM-54.768 49.366v2.366h6.286v-2.366zM-54.768 69.35v2.365h6.286V69.35z"/><path d="M-46.236 60.098v2.366h1.182v-2.366z"/></g><path fill="#2f5e5d" d="M22.603 58.364H60.06v1.409H22.603zM22.603 60.953H60.06v1.409H22.603z"/><g fill="#dca900"><path d="M-19.646 57.584h10.08v1.41h-10.08zM-19.646 60.173h10.08v1.41h-10.08zM-19.646 62.763h10.08v1.41h-10.08z"/></g><path fill="#2f5e5d" d="M22.603 63.543H60.06v1.409H22.603z"/><g fill="#b504bb"><path d="M3.872 58.474h8.834v1.409H3.872zM3.872 61.064h8.834v1.409H3.872zM3.872 63.653h8.834v1.409H3.872z"/></g><path fill="#e5650e" d="M22.603 58.364h20.604v1.409H22.603zM37.365 60.953h4.315v1.409h-4.315zM25.621 63.543h3.812v1.409h-3.812zM45.746 63.543h2.723v1.409h-2.723z"/><path fill="#1d76ce" opacity=".5" d="M-52.041-5.854H56.588v8.568H-52.041z"/><path fill="#dca900" d="M-19.49-5.854h10.896v8.568H-19.49z"/><path fill="#99039e" d="M4.077-5.854H14.44v8.568H4.077z"/><path fill="#2f5e5d" d="M22.723-5.854h37.869v8.568H22.723z"/><path fill="#e5650e" d="M34.713-5.854h3.204v8.568h-3.204z"/><path fill="#1d76ce" opacity=".5" d="M-52.041 11.921H58.135v8.568H-52.041z"/><path fill="#dca900" d="M-19.49 11.921h10.896v8.568H-19.49z"/><path fill="#99039e" d="M4.077 11.921H14.44v8.568H4.077z"/><path fill="#2f5e5d" d="M23.166 11.921h37.893v8.568H23.166z"/><path fill="#e5650e" d="M39.878 11.921h3.204v8.568h-3.204z"/><path fill="#1d76ce" opacity=".5" d="M-52.041 29.696H58.135v8.568H-52.041z"/><path fill="#dca900" d="M-19.49 29.696h10.896v8.568H-19.49z"/><path fill="#99039e" d="M4.077 29.696H14.44v8.568H4.077z"/><path fill="#2f5e5d" d="M23.166 29.696h37.893v8.568H23.166z"/><path fill="#e5650e" d="M32.768 29.696h6.696v8.568h-6.696z"/><text y="-13.526" x="-33.446" style="line-height:1.25;-inkscape-font-specification:'sans-serif Bold'" font-weight="700" font-size="10.653" letter-spacing="0" word-spacing="0" font-family="sans-serif" fill="#363636" stroke-width=".395"><tspan style="-inkscape-font-specification:'sans-serif Bold'" y="-13.526" x="-33.446">A(</tspan></text><text style="line-height:1.25;-inkscape-font-specification:'sans-serif Bold'" x="-7.756" y="-13.526" font-weight="700" font-size="10.653" letter-spacing="0" word-spacing="0" font-family="sans-serif" fill="#363636" stroke-width=".395"><tspan x="-7.756" y="-13.526" style="-inkscape-font-specification:'sans-serif Bold'">)</tspan></text><path d="M4.147-21.23h8.73v8.729h-8.73z" fill="#99039e"/><text style="line-height:1.25;-inkscape-font-specification:'sans-serif Bold'" x="6.312" y="-14.536" font-weight="700" font-size="6.131" letter-spacing="0" word-spacing="0" font-family="sans-serif" fill="#fff" stroke-width=".227"><tspan x="6.312" y="-14.536" style="-inkscape-font-specification:'sans-serif Bold'">h</tspan></text><g fill="#363636" stroke-width="1.482"><path d="M1.315-18.004v2.118h-4.13v-2.118z"/><path d="M.348-19.663l.01 2.719.008 2.718 1.464-1.372 1.463-1.372-1.472-1.346z"/></g><path d="M-19.304-21.83h10.161v9.786h-10.161z" fill="#dca900"/><text font-size="8.551" style="line-height:1.25;-inkscape-font-specification:'sans-serif Bold'" x="-17.207" y="-14.93" transform="scale(1.01901 .98134)" font-weight="700" font-family="sans-serif" letter-spacing="0" word-spacing="0" fill="#fff" stroke-width=".293"><tspan x="-17.207" y="-14.93" style="-inkscape-font-specification:'sans-serif Bold'">s</tspan></text><text transform="scale(1.1491 .87024)" style="line-height:1.25;-inkscape-font-specification:'sans-serif Bold'" x="-11.057" y="-21.682" font-size="3.628" font-weight="700" font-family="sans-serif" letter-spacing="0" word-spacing="0" fill="#fff" stroke-width=".14"><tspan x="-11.057" y="-21.682" style="-inkscape-font-specification:'sans-serif Bold'">T</tspan></text><text font-size="3.159" y="-12.88" x="-12.889" style="line-height:1.25;-inkscape-font-specification:'sans-serif Bold'" transform="scale(1.00046 .99954)" font-weight="700" font-family="sans-serif" letter-spacing="0" word-spacing="0" fill="#fff"><tspan style="-inkscape-font-specification:'sans-serif Bold'" y="-12.88" x="-12.889" stroke-width=".14">1</tspan></text><rect width="3.106" height="11.315" x="23.019" y="-22.642" ry="0" rx="0" fill="#2f5e5d"/><rect rx="0" ry="0" y="-22.642" x="27.289" height="11.315" width="6.436" fill="#2f5e5d"/><rect rx="0" ry="0" y="-22.642" x="35.388" height="11.315" width="3.106" fill="#2f5e5d"/><rect rx="0" ry="0" y="-22.642" x="49.089" height="11.315" width="2.533" fill="#e5650e"/><rect rx="0" ry="0" y="-22.642" x="54.943" height="11.315" width="5.698" fill="#2f5e5d"/><path d="M23.017-12.877h37.598v1.897H23.017z" fill="#2f5e5d"/><g fill="#363636" stroke-width="1.793"><path d="M18.806-17.954v2.117h-4.13v-2.117z"/><path d="M17.84-19.613l.008 2.718.01 2.719 1.463-1.372 1.464-1.372-1.473-1.347z"/></g><text word-spacing="0" letter-spacing="0" font-size="10.653" font-weight="700" style="line-height:1.25;-inkscape-font-specification:'sans-serif Bold'" x="-34.965" y="75.816" font-family="sans-serif" fill="#363636" stroke-width=".395"><tspan x="-34.965" y="75.816" style="-inkscape-font-specification:'sans-serif Bold'">A(</tspan></text><text word-spacing="0" letter-spacing="0" font-size="10.653" font-weight="700" y="75.816" x="-8.216" style="line-height:1.25;-inkscape-font-specification:'sans-serif Bold'" font-family="sans-serif" fill="#363636" stroke-width=".395"><tspan style="-inkscape-font-specification:'sans-serif Bold'" y="75.816" x="-8.216">)</tspan></text><path d="M3.687 68.112h8.73v8.73h-8.73z" fill="#99039e"/><text word-spacing="0" letter-spacing="0" font-size="6.131" font-weight="700" y="74.806" x="5.852" style="line-height:1.25;-inkscape-font-specification:'sans-serif Bold'" font-family="sans-serif" fill="#fff" stroke-width=".227"><tspan style="-inkscape-font-specification:'sans-serif Bold'" y="74.806" x="5.852">h</tspan></text><g fill="#363636" stroke-width="1.482"><path d="M.855 71.338v2.118h-4.13v-2.118z"/><path d="M-.112 69.68l.01 2.718.008 2.718 1.464-1.372 1.463-1.372-1.472-1.346z"/></g><path d="M-19.765 67.512h10.162v9.786h-10.162z" fill="#dca900"/><text y="76.111" x="-17.658" style="line-height:1.25;-inkscape-font-specification:'sans-serif Bold'" font-size="8.551" transform="scale(1.01901 .98134)" font-weight="700" font-family="sans-serif" letter-spacing="0" word-spacing="0" fill="#fff" stroke-width=".293"><tspan style="-inkscape-font-specification:'sans-serif Bold'" y="76.111" x="-17.658">s</tspan></text><text font-size="3.628" y="80.982" x="-11.458" style="line-height:1.25;-inkscape-font-specification:'sans-serif Bold'" transform="scale(1.1491 .87024)" font-weight="700" font-family="sans-serif" letter-spacing="0" word-spacing="0" fill="#fff" stroke-width=".14"><tspan style="-inkscape-font-specification:'sans-serif Bold'" y="80.982" x="-11.458">T</tspan></text><text transform="scale(1.00046 .99954)" style="line-height:1.25;-inkscape-font-specification:'sans-serif Bold'" x="-13.349" y="76.503" font-size="3.159" font-weight="700" font-family="sans-serif" letter-spacing="0" word-spacing="0" fill="#fff"><tspan x="-13.349" y="76.503" style="-inkscape-font-specification:'sans-serif Bold'" stroke-width=".14">k</tspan></text><rect rx="0" ry="0" y="66.7" x="22.559" height="11.315" width="3.106" fill="#2f5e5d"/><rect width="6.436" height="11.315" x="26.829" y="66.7" ry="0" rx="0" fill="#e5650e"/><rect width="3.106" height="11.315" x="34.928" y="66.7" ry="0" rx="0" fill="#2f5e5d"/><rect width="2.533" height="11.315" x="48.629" y="66.7" ry="0" rx="0" fill="#2f5e5d"/><rect width="5.698" height="11.315" x="54.483" y="66.7" ry="0" rx="0" fill="#2f5e5d"/><path d="M22.557 76.465h37.598v1.898H22.557z" fill="#2f5e5d"/><g fill="#363636" stroke-width="1.793"><path d="M18.346 71.388v2.118h-4.13v-2.118z"/><path d="M17.38 69.729l.008 2.718.01 2.719 1.463-1.372 1.464-1.372-1.473-1.347z"/></g><circle cx="85.037" cy="-26.454" r="8.374" fill="#2f5e5d"/><path d="M93.452-26.494a8.374 8.374 0 01-2.453 5.921l-5.922-5.921z" fill="#e5650e"/><g transform="matrix(.67595 0 0 .67595 -64.021 -101.392)" stroke-width="1.479"><ellipse ry="4.778" rx="12.389" cx="221.401" cy="147.218" fill="#2f5e5d"/><path d="M233.849 147.196a12.389 4.778 0 01-3.629 3.378l-8.76-3.378z" fill="#e5650e"/></g><g transform="matrix(.67595 0 0 .67595 -62.731 -109.212)" stroke-width="1.479"><ellipse cy="185.535" cx="219.493" rx="12.389" ry="4.778" fill="#2f5e5d"/><path d="M231.94 185.512a12.389 4.778 0 01-3.628 3.379l-8.76-3.379z" fill="#e5650e"/></g><g transform="matrix(.67595 0 0 .67595 -63.804 -103.157)" stroke-width="1.479"><ellipse cy="204.512" cx="221.08" rx="12.389" ry="4.778" fill="#2f5e5d"/><path d="M233.528 204.49a12.389 4.778 0 01-3.629 3.378l-8.76-3.379z" fill="#e5650e"/></g><g fill="#363636" stroke-width="1.964"><path d="M64.91-41.845h5.245v1.66h-5.244zm0 28.166h5.245v1.66h-5.244z"/><path d="M68.495-40.185h1.66v26.507h-1.66z"/><path d="M68.597-28.501h6.226v1.66h-6.226z"/></g><text style="line-height:1.25;-inkscape-font-specification:'Ubuntu Condensed, Bold'" x="75.379" y="-43.065" font-weight="700" font-size="4.31" letter-spacing="0" word-spacing="0" font-family="Ubuntu Condensed" fill="#e5650e" stroke-width=".308"><tspan x="75.379" y="-43.065" style="-inkscape-font-specification:'sans-serif Bold'" font-family="sans-serif" stroke-width="1.164">avg error</tspan></text><g fill="#2f5e5d" stroke-width="1.964"><path d="M81.36-37.434v-.832h8.533v.832z"/><path d="M85.2-37.95v-2.451h.852v2.45zM80.508-35.815v-2.451h.852v2.45zM89.041-35.815v-2.451h.852v2.45z"/></g><g transform="matrix(.67595 0 0 .67595 -65.759 -14.286)" stroke-width="1.479"><circle cx="224.001" cy="111.307" r="12.389" fill="#2f5e5d"/><path d="M236.289 113.27a12.389 12.389 0 01-10.562 10.336 12.389 12.389 0 01-12.944-7.13l11.27-5.145z" fill="#e5650e"/></g><g fill="#363636" stroke-width="1.964"><path d="M65.527 46.619h5.245v1.66h-5.245zm0 28.166h5.245v1.661h-5.245z"/><path d="M69.112 48.28h1.66v26.506h-1.66z"/><path d="M69.213 59.963h6.227v1.66h-6.227z"/></g><path d="M108.845-25.274h2.917v88.756h-2.917zM111.762-28.19v2.916h-9.324v-2.917z" fill="#363636"/><path d="M111.762 60.566v2.916h-9.324v-2.916zM118.22 17.646v2.917h-9.323v-2.917z" fill="#363636"/><circle cx="143.424" cy="17.382" r="20.904" fill="#2f5e5d"/><path d="M139.209 37.866a20.904 20.904 0 01-14.8-11.794l19.016-8.68z" fill="#e5650e"/><text word-spacing="0" letter-spacing="0" font-size="9.254" font-weight="700" y="-28.269" x="146.181" style="line-height:.85000002;-inkscape-font-specification:'Ubuntu Condensed, Bold';text-align:center;white-space:pre" font-family="Ubuntu Condensed" text-anchor="middle" fill="#e5650e" stroke-width=".308"><tspan x="146.181" y="-28.269"><tspan style="-inkscape-font-specification:'sans-serif Bold'" font-family="sans-serif">total</tspan><tspan style="-inkscape-font-specification:'sans-serif Bold';text-align:center" font-family="sans-serif" stroke-width="1.164"> </tspan></tspan><tspan x="146.181" y="-19.961"><tspan style="-inkscape-font-specification:'sans-serif Bold';text-align:center" font-family="sans-serif" stroke-width="1.164">avg error</tspan></tspan></text><g fill="#2f5e5d" stroke-width=".915"><path d="M135.182-8.267v-1.787h18.32v1.787z"/><path d="M143.428-9.377v-5.261h1.829v5.261zM133.354-4.793v-5.261h1.828v5.261zM151.674-4.793v-5.261h1.828v5.261z"/></g><path d="M-58.813-17.867h-21.844V-39.71h21.844zM-58.813 71.728h-21.844V49.884h21.844z" fill="#1d76ce"/><path d="M-58.813 7.682h-21.844v-21.845h21.844z" fill="#1d76ce" opacity=".5"/><path d="M-58.813 26.402h-21.844V4.557h21.844z" fill="#1d76ce" opacity=".5"/><path d="M-58.813 45.121h-21.844V23.277h21.844z" fill="#1d76ce" opacity=".5"/><g word-spacing="0" letter-spacing="0" font-weight="700" font-family="sans-serif" fill="#fff" stroke-width=".154"><text font-size="7.013" style="line-height:1.25;-inkscape-font-specification:'sans-serif Bold'" x="9.079" y="275.026" stroke-width=".136" transform="matrix(2.15688 0 0 2.15688 -94.707 -618.548)"><tspan x="9.079" y="275.026" style="-inkscape-font-specification:'sans-serif Bold'">v</tspan></text><text font-size="3.356" y="276.695" x="13.398" style="line-height:1.25;-inkscape-font-specification:'sans-serif Bold'" stroke-width=".065" transform="matrix(2.15688 0 0 2.15688 -94.707 -618.548)"><tspan style="-inkscape-font-specification:'sans-serif Bold'" y="276.695" x="13.398">1</tspan></text></g><g font-weight="700" letter-spacing="0" word-spacing="0" font-family="sans-serif" fill="#fff" stroke-width=".154"><text font-size="7.013" style="line-height:1.25;-inkscape-font-specification:'sans-serif Bold'" x="9.079" y="275.026" stroke-width=".136" transform="matrix(2.15688 0 0 2.15688 -94.38 -528.32)"><tspan x="9.079" y="275.026" style="-inkscape-font-specification:'sans-serif Bold'">v</tspan></text><text font-size="3.356" y="276.695" x="13.398" style="line-height:1.25;-inkscape-font-specification:'sans-serif Bold'" stroke-width=".065" transform="matrix(2.15688 0 0 2.15688 -94.38 -528.32)"><tspan style="-inkscape-font-specification:'sans-serif Bold'" y="276.695" x="13.398">k</tspan></text></g><rect width="8" height="8" x="-44.431" y="45.471" ry="0" fill="#2f5e5d"/><text word-spacing="0" letter-spacing="0" font-size="6.793" font-weight="700" y="51.585" x="-44.001" style="line-height:1.25;-inkscape-font-specification:'Ubuntu Condensed, Bold'" font-family="Ubuntu Condensed" fill="#fff" stroke-width=".345"><tspan style="-inkscape-font-specification:'sans-serif Bold'" y="51.585" x="-44.001" font-family="sans-serif" stroke-width=".316">D</tspan></text><text word-spacing="0" letter-spacing="0" font-size="2.761" font-weight="700" style="line-height:1.25;-inkscape-font-specification:'sans-serif Bold'" x="-38.777" y="52.679" font-family="sans-serif" fill="#fff" stroke-width=".14"><tspan x="-38.777" y="52.679" style="-inkscape-font-specification:'sans-serif Bold'">1</tspan></text><rect ry="0" y="67.369" x="-44.641" height="8" width="8" rx="0" fill="#2f5e5d"/><g word-spacing="0" letter-spacing="0" font-weight="700" fill="#fff" stroke-width="1.863"><text font-size="13.818" y="833.104" x="-119.77" style="line-height:1.25;-inkscape-font-specification:'Ubuntu Condensed, Bold'" font-family="Ubuntu Condensed" stroke-width=".702" transform="translate(14.432 -336.087) scale(.49158)"><tspan style="-inkscape-font-specification:'sans-serif Bold'" y="833.104" x="-119.77" font-family="sans-serif" stroke-width=".643">D</tspan></text><text font-size="5.617" style="line-height:1.25;-inkscape-font-specification:'sans-serif Bold'" x="-109.143" y="835.329" font-family="sans-serif" stroke-width=".285" transform="translate(14.432 -336.087) scale(.49158)"><tspan x="-109.143" y="835.329" style="-inkscape-font-specification:'sans-serif Bold'">T</tspan></text></g><path d="M-43.22 53.944h5.156v4.9h-5.155z" opacity=".5" fill="#2f5e5d"/><path d="M-43.22 57.871h5.156v4.9h-5.155z" opacity=".5" fill="#2f5e5d"/><path d="M-43.22 61.799h5.156v4.9h-5.155z" opacity=".5" fill="#2f5e5d"/><text y="-4.083" x="-125.97" style="line-height:1.25;-inkscape-font-specification:'Ubuntu Condensed, Bold'" font-weight="700" font-size="10.194" letter-spacing="0" word-spacing="0" font-family="Ubuntu Condensed" fill="#2f5e5d" stroke-width=".482"><tspan style="-inkscape-font-specification:'sans-serif Bold'" y="-4.083" x="-125.97" font-family="sans-serif" stroke-width="2.545">Loss</tspan></text><text word-spacing="0" letter-spacing="0" font-size="10.194" font-weight="700" style="line-height:1.25;-inkscape-font-specification:'Ubuntu Condensed, Bold'" x="-125.88" y="30.111" font-family="Ubuntu Condensed" fill="#2f5e5d" stroke-width=".482"><tspan x="-125.88" y="30.111" style="-inkscape-font-specification:'sans-serif Bold'" font-family="sans-serif" stroke-width="2.545">max</tspan></text></g></svg>