<svg xmlns="http://www.w3.org/2000/svg" viewBox="0 0 296.4 124" height="468.8" width="1120.4"><g transform="translate(-64.3 -88.2)"><rect ry="0" y="132.6" x="67.7" height="22.7" width="22.7" fill="#2f5e5d"/><text word-spacing="0" letter-spacing="0" font-size="19.3" font-weight="700" style="line-height:1.25;-inkscape-font-specification:'Ubuntu Condensed, Bold'" x="69.1" y="150" font-family="Ubuntu Condensed" fill="#fff" stroke-width=".5"><tspan x="69.1" y="150" style="-inkscape-font-specification:'sans-serif Bold'" font-family="sans-serif">D</tspan></text><text word-spacing="0" letter-spacing="0" font-size="7.8" font-weight="700" y="153.1" x="83.9" style="line-height:1.25;-inkscape-font-specification:'sans-serif Bold'" font-family="sans-serif" fill="#fff" stroke-width=".2"><tspan style="-inkscape-font-specification:'sans-serif Bold'" y="153.1" x="83.9">?</tspan></text><text stroke-width=".4" fill="#363636" word-spacing="0" letter-spacing="0" font-family="sans-serif" font-size="15.8" font-weight="700" style="line-height:1.25;-inkscape-font-specification:'sans-serif Bold'" x="95.7" y="150.7"><tspan x="95.7" y="150.7" style="-inkscape-font-specification:'sans-serif Bold'">≥</tspan></text><rect width="22.4" height="22.4" x="113.4" y="93.8" ry="0" fill="#2f5e5d"/><text word-spacing="0" letter-spacing="0" font-size="19.1" font-weight="700" y="110.9" x="114.6" style="line-height:1.25;-inkscape-font-specification:'Ubuntu Condensed, Bold'" font-family="Ubuntu Condensed" fill="#fff" stroke-width=".3"><tspan style="-inkscape-font-specification:'sans-serif Bold'" y="110.9" x="114.6" font-family="sans-serif">D</tspan></text><text word-spacing="0" letter-spacing="0" font-size="7.7" font-weight="700" style="line-height:1.25;-inkscape-font-specification:'sans-serif Bold'" x="129.2" y="114" font-family="sans-serif" fill="#fff" stroke-width=".1"><tspan x="129.2" y="114" style="-inkscape-font-specification:'sans-serif Bold'">1</tspan></text><rect ry="0" y="182.7" x="113.1" height="22.4" width="22.4" rx="0" fill="#2f5e5d"/><g word-spacing="0" letter-spacing="0" font-weight="700" fill="#fff" stroke-width=".7"><text font-size="13.8" y="833.1" x="-119.8" style="line-height:1.25;-inkscape-font-specification:'Ubuntu Condensed, Bold'" font-family="Ubuntu Condensed" stroke-width=".3" transform="translate(278.8 -949.3) scale(1.37917)"><tspan style="-inkscape-font-specification:'sans-serif Bold'" y="833.1" x="-119.8" font-family="sans-serif" stroke-width=".2">D</tspan></text><text font-size="5.6" style="line-height:1.25;-inkscape-font-specification:'sans-serif Bold'" x="-109.1" y="835.3" font-family="sans-serif" stroke-width=".1" transform="translate(278.8 -949.3) scale(1.37917)"><tspan x="-109.1" y="835.3" style="-inkscape-font-specification:'sans-serif Bold'">T</tspan></text></g><path d="M113.3 121.5h22.4v21.2h-22.4z" fill="#2f5e5d" opacity=".5"/><path d="M113.3 138.5h22.4v21.3h-22.4z" fill="#2f5e5d" opacity=".5"/><path d="M113.3 155.5h22.4v21.3h-22.4z" fill="#2f5e5d" opacity=".5"/><text y="98.1" x="156.9" style="line-height:1.25;-inkscape-font-specification:'sans-serif Bold'" font-weight="700" font-size="10.7" font-family="sans-serif" letter-spacing="0" word-spacing="0" fill="#363636" stroke-width=".4"><tspan style="-inkscape-font-specification:'sans-serif Bold'" y="98.1" x="156.9">A(</tspan></text><text style="line-height:1.25;-inkscape-font-specification:'sans-serif Bold'" x="182.6" y="98.1" font-weight="700" font-size="10.7" font-family="sans-serif" letter-spacing="0" word-spacing="0" fill="#363636" stroke-width=".4"><tspan x="182.6" y="98.1" style="-inkscape-font-specification:'sans-serif Bold'">)</tspan></text><path fill="#99039e" d="M194.5 90.4h8.7v8.7h-8.7z"/><text style="line-height:1.25;-inkscape-font-specification:'sans-serif Bold'" x="196.6" y="97.1" font-weight="700" font-size="6.1" font-family="sans-serif" letter-spacing="0" word-spacing="0" fill="#fff" stroke-width=".2"><tspan x="196.6" y="97.1" style="-inkscape-font-specification:'sans-serif Bold'">h</tspan></text><g fill="#363636" stroke-width="1.5"><path d="M191.6 93.6v2.2h-4v-2.2z"/><path d="M190.7 92v5.4l1.5-1.4 1.4-1.3-1.5-1.4z"/></g><path d="M171 89.8h10.2v9.8H171z" fill="#dca900"/><text font-size="8.6" style="line-height:1.25;-inkscape-font-specification:'sans-serif Bold'" x="169.6" y="98.8" transform="scale(1.01901 .98134)" font-weight="700" font-family="sans-serif" letter-spacing="0" word-spacing="0" fill="#fff" stroke-width=".3"><tspan x="169.6" y="98.8" style="-inkscape-font-specification:'sans-serif Bold'">s</tspan></text><text transform="scale(1.1491 .87024)" style="line-height:1.25;-inkscape-font-specification:'sans-serif Bold'" x="154.6" y="106.6" font-size="3.6" font-weight="700" font-family="sans-serif" letter-spacing="0" word-spacing="0" fill="#fff" stroke-width=".1"><tspan x="154.6" y="106.6" style="-inkscape-font-specification:'sans-serif Bold'">1</tspan></text><path d="M148.7 93.4h-2.4v23.8h2.3z" fill="#a0c5d9"/><text font-size="3.2" y="98.8" x="177.4" style="line-height:1.25;-inkscape-font-specification:'sans-serif Bold'" transform="scale(1.00046 .99954)" font-weight="700" font-family="sans-serif" letter-spacing="0" word-spacing="0" fill="#fff"><tspan style="-inkscape-font-specification:'sans-serif Bold'" y="98.8" x="177.4" stroke-width=".1">1</tspan></text><rect width="3.1" height="11.3" x="213.3" y="89" ry="0" rx="0" fill="#2f5e5d"/><rect rx="0" ry="0" y="89" x="217.6" height="11.3" width="3.1" fill="#2f5e5d"/><rect rx="0" ry="0" y="89" x="225.7" height="11.3" width="3.1" fill="#2f5e5d"/><rect rx="0" ry="0" y="89" x="234.8" height="11.3" width="7.2" fill="#e5650e"/><rect rx="0" ry="0" y="89" x="247.9" height="11.3" width="3.1" fill="#2f5e5d"/><path fill="#2f5e5d" d="M213.3 98.8H251v1.9h-37.6z"/><g fill="#363636" stroke-width="1.8"><path d="M209.1 93.7v2.1H205v-2.1z"/><path d="M208.2 92v5.5l1.4-1.4 1.5-1.4-1.5-1.3z"/></g><path d="M140 93.4v2.3h6.3v-2.3zm0 21.4v2.4h6.3v-2.4zm8.5-10.7v2.3h6.8v-2.3z" fill="#a0c5d9"/><path fill="#2f5e5d" d="M213.3 103.2h37.5v1.4h-37.5zm0 2.6h37.5v1.4h-37.5z"/><path d="M171 103.2h10.1v1.4h-10zm0 2.6h10.1v1.4h-10zm0 2.6h10.1v1.4h-10z" fill="#dca900"/><path fill="#2f5e5d" d="M213.3 108.4h37.5v1.4h-37.5z"/><path d="M194.4 103.3h8.9v1.4h-8.9zm0 2.6h8.9v1.4h-8.9zm0 2.6h8.9v1.4h-8.9z" fill="#99039e"/><path fill="#e5650e" d="M213.3 103.2h8.8v1.4h-8.8zm14.8 2.6h11.7v1.4H228zm-11.7 2.6h3.8v1.4h-3.8zm17.1 0h5.7v1.4h-5.7z"/><text stroke-width=".4" fill="#363636" word-spacing="0" letter-spacing="0" font-family="sans-serif" font-size="10.7" font-weight="700" style="line-height:1.25;-inkscape-font-specification:'sans-serif Bold'" x="156.5" y="187"><tspan x="156.5" y="187" style="-inkscape-font-specification:'sans-serif Bold'">A(</tspan></text><text stroke-width=".4" fill="#363636" word-spacing="0" letter-spacing="0" font-family="sans-serif" font-size="10.7" font-weight="700" y="187" x="182.2" style="line-height:1.25;-inkscape-font-specification:'sans-serif Bold'"><tspan style="-inkscape-font-specification:'sans-serif Bold'" y="187" x="182.2">)</tspan></text><path d="M194 179.3h8.8v8.7H194z" fill="#99039e"/><text stroke-width=".2" fill="#fff" word-spacing="0" letter-spacing="0" font-family="sans-serif" font-size="6.1" font-weight="700" y="185.9" x="196.2" style="line-height:1.25;-inkscape-font-specification:'sans-serif Bold'"><tspan style="-inkscape-font-specification:'sans-serif Bold'" y="185.9" x="196.2">h</tspan></text><g fill="#363636" stroke-width="1.5"><path d="M191.2 182.5v2.1h-4.1v-2.1z"/><path d="M190.3 180.8v5.5l1.4-1.4 1.5-1.4-1.5-1.3z"/></g><path d="M170.6 178.7h10.2v9.7h-10.2z" fill="#dca900"/><text y="189.4" x="169.2" style="line-height:1.25;-inkscape-font-specification:'sans-serif Bold'" font-size="8.6" transform="scale(1.01901 .98134)" font-weight="700" font-family="sans-serif" letter-spacing="0" word-spacing="0" fill="#fff" stroke-width=".3"><tspan style="-inkscape-font-specification:'sans-serif Bold'" y="189.4" x="169.2">s</tspan></text><text font-size="3.6" y="208.7" x="154.2" style="line-height:1.25;-inkscape-font-specification:'sans-serif Bold'" transform="scale(1.1491 .87024)" font-weight="700" font-family="sans-serif" letter-spacing="0" word-spacing="0" fill="#fff" stroke-width=".1"><tspan style="-inkscape-font-specification:'sans-serif Bold'" y="208.7" x="154.2">T</tspan></text><path d="M148 183h-2.4v22.4h2.3z" fill="#a0c5d9"/><text transform="scale(1.00046 .99954)" style="line-height:1.25;-inkscape-font-specification:'sans-serif Bold'" x="176.9" y="187.7" font-size="3.2" font-weight="700" font-family="sans-serif" letter-spacing="0" word-spacing="0" fill="#fff"><tspan x="176.9" y="187.7" style="-inkscape-font-specification:'sans-serif Bold'" stroke-width=".1">1</tspan></text><rect fill="#2f5e5d" rx="0" ry="0" y="177.8" x="212.9" height="11.3" width="3.1"/><rect fill="#2f5e5d" width="3.1" height="11.3" x="217.2" y="177.8" ry="0" rx="0"/><rect fill="#e5650e" width="3.1" height="11.3" x="225.3" y="177.8" ry="0" rx="0"/><rect fill="#2f5e5d" width="7.2" height="11.3" x="234.4" y="177.8" ry="0" rx="0"/><rect fill="#2f5e5d" width="3.1" height="11.3" x="247.5" y="177.8" ry="0" rx="0"/><path d="M213 187.6h37.5v2H213z" fill="#2f5e5d"/><g fill="#363636" stroke-width="1.8"><path d="M208.7 182.5v2.2h-4.1v-2.2z"/><path d="M207.8 180.9v5.4l1.4-1.4 1.5-1.3-1.5-1.4z"/></g><path d="M139.3 183v2.4h6.3v-2.3zm0 20v2.4h6.3v-2.3zm8.5-9.2v2.4h6.3v-2.4z" fill="#a0c5d9"/><path fill="#2f5e5d" d="M213 192h37.4v1.5h-37.5zm0 2.7h37.4v1.4h-37.5z"/><path d="M170.2 192h10.1v1.5h-10zm0 2.7h10.1v1.4h-10zm0 2.5h10.1v1.5h-10z" fill="#dca900"/><path fill="#2f5e5d" d="M213 197.2h37.4v1.5h-37.5z"/><path d="M194.2 192.2h8.8v1.4h-8.8zm0 2.6h8.8v1.4h-8.8zm0 2.6h8.8v1.4h-8.8z" fill="#99039e"/><path fill="#e5650e" d="M213 192h20.5v1.5H213zm14.7 2.7h4.3v1.4h-4.3zm-11.7 2.5h3.8v1.5H216zm20 0h2.8v1.5h-2.7z"/><path fill="#a0c5d9" d="M141 127.8h108.6v8.6H140.9z"/><path fill="#dca900" d="M170.8 127.8h11v8.6h-11z"/><path fill="#99039e" d="M193.3 127.8h10.4v8.6h-10.4z"/><path fill="#2f5e5d" d="M213 127.8h38v8.6h-38z"/><path fill="#e5650e" d="M225 127.8h3.3v8.6H225z"/><path fill="#a0c5d9" d="M141 145.6H251v8.6H141z"/><path fill="#dca900" d="M170.8 145.6h11v8.6h-11z"/><path fill="#99039e" d="M193.3 145.6h10.4v8.6h-10.4z"/><path fill="#2f5e5d" d="M213.5 145.6h37.9v8.6h-37.9z"/><path fill="#e5650e" d="M230.2 145.6h3.2v8.6h-3.2z"/><path fill="#a0c5d9" d="M141 163.4H251v8.6H141z"/><path fill="#dca900" d="M170.8 163.4h11v8.6h-11z"/><path fill="#99039e" d="M193.3 163.4h10.4v8.6h-10.4z"/><path fill="#2f5e5d" d="M213.5 163.4h37.9v8.6h-37.9z"/><path fill="#e5650e" d="M223.1 163.4h6.7v8.6h-6.7z"/><text stroke-width=".4" fill="#363636" word-spacing="0" letter-spacing="0" font-family="sans-serif" font-size="10.7" font-weight="700" style="line-height:1.25;-inkscape-font-specification:'sans-serif Bold'" x="156.9" y="120.2"><tspan x="156.9" y="120.2" style="-inkscape-font-specification:'sans-serif Bold'">A(</tspan></text><text stroke-width=".4" fill="#363636" word-spacing="0" letter-spacing="0" font-family="sans-serif" font-size="10.7" font-weight="700" y="120.2" x="182.6" style="line-height:1.25;-inkscape-font-specification:'sans-serif Bold'"><tspan style="-inkscape-font-specification:'sans-serif Bold'" y="120.2" x="182.6">)</tspan></text><path d="M194.5 112.5h8.7v8.7h-8.7z" fill="#99039e"/><text stroke-width=".2" fill="#fff" word-spacing="0" letter-spacing="0" font-family="sans-serif" font-size="6.1" font-weight="700" y="119.2" x="196.6" style="line-height:1.25;-inkscape-font-specification:'sans-serif Bold'"><tspan style="-inkscape-font-specification:'sans-serif Bold'" y="119.2" x="196.6">h</tspan></text><g fill="#363636" stroke-width="1.5"><path d="M191.6 115.7v2.1h-4v-2.1z"/><path d="M190.7 114v5.5l1.5-1.4 1.4-1.4-1.4-1.3z"/></g><path d="M171 111.9h10.2v9.8H171z" fill="#dca900"/><text y="121.3" x="169.6" style="line-height:1.25;-inkscape-font-specification:'sans-serif Bold'" font-size="8.6" transform="scale(1.01901 .98134)" font-weight="700" font-family="sans-serif" letter-spacing="0" word-spacing="0" fill="#fff" stroke-width=".3"><tspan style="-inkscape-font-specification:'sans-serif Bold'" y="121.3" x="169.6">s</tspan></text><text font-size="3.6" y="132" x="154.6" style="line-height:1.25;-inkscape-font-specification:'sans-serif Bold'" transform="scale(1.1491 .87024)" font-weight="700" font-family="sans-serif" letter-spacing="0" word-spacing="0" fill="#fff" stroke-width=".1"><tspan style="-inkscape-font-specification:'sans-serif Bold'" y="132" x="154.6">1</tspan></text><text transform="scale(1.00046 .99954)" style="line-height:1.25;-inkscape-font-specification:'sans-serif Bold'" x="177.4" y="120.9" font-size="3.2" font-weight="700" font-family="sans-serif" letter-spacing="0" word-spacing="0" fill="#fff"><tspan x="177.4" y="120.9" style="-inkscape-font-specification:'sans-serif Bold'" stroke-width=".1">k</tspan></text><rect fill="#2f5e5d" rx="0" ry="0" y="111.1" x="213.4" height="11.3" width="3.1"/><rect fill="#2f5e5d" width="6.4" height="11.3" x="217.6" y="111.1" ry="0" rx="0"/><rect fill="#2f5e5d" width="3.1" height="11.3" x="225.7" y="111.1" ry="0" rx="0"/><rect fill="#e5650e" width="2.5" height="11.3" x="239.4" y="111.1" ry="0" rx="0"/><rect fill="#2f5e5d" width="5.7" height="11.3" x="245.3" y="111.1" ry="0" rx="0"/><path d="M213.3 120.8H251v2h-37.6z" fill="#2f5e5d"/><g fill="#363636" stroke-width="1.8"><path d="M209.1 115.8v2h-4v-2z"/><path d="M208.2 114v5.5l1.5-1.3 1.4-1.4-1.5-1.4z"/></g><text y="209.5" x="156.4" style="line-height:1.25;-inkscape-font-specification:'sans-serif Bold'" font-weight="700" font-size="10.7" font-family="sans-serif" letter-spacing="0" word-spacing="0" fill="#363636" stroke-width=".4"><tspan style="-inkscape-font-specification:'sans-serif Bold'" y="209.5" x="156.4">A(</tspan></text><text style="line-height:1.25;-inkscape-font-specification:'sans-serif Bold'" x="182.1" y="209.5" font-weight="700" font-size="10.7" font-family="sans-serif" letter-spacing="0" word-spacing="0" fill="#363636" stroke-width=".4"><tspan x="182.1" y="209.5" style="-inkscape-font-specification:'sans-serif Bold'">)</tspan></text><path fill="#99039e" d="M194 201.8h8.8v8.7H194z"/><text style="line-height:1.25;-inkscape-font-specification:'sans-serif Bold'" x="196.2" y="208.5" font-weight="700" font-size="6.1" font-family="sans-serif" letter-spacing="0" word-spacing="0" fill="#fff" stroke-width=".2"><tspan x="196.2" y="208.5" style="-inkscape-font-specification:'sans-serif Bold'">h</tspan></text><g fill="#363636" stroke-width="1.5"><path d="M191.2 205v2.2H187V205z"/><path d="M190.2 203.4v5.4l1.5-1.4 1.5-1.3-1.5-1.4z"/></g><path d="M170.6 201.2h10.1v9.8h-10.1z" fill="#dca900"/><text font-size="8.6" style="line-height:1.25;-inkscape-font-specification:'sans-serif Bold'" x="169.1" y="212.4" transform="scale(1.01901 .98134)" font-weight="700" font-family="sans-serif" letter-spacing="0" word-spacing="0" fill="#fff" stroke-width=".3"><tspan x="169.1" y="212.4" style="-inkscape-font-specification:'sans-serif Bold'">s</tspan></text><text transform="scale(1.1491 .87024)" style="line-height:1.25;-inkscape-font-specification:'sans-serif Bold'" x="154.2" y="234.6" font-size="3.6" font-weight="700" font-family="sans-serif" letter-spacing="0" word-spacing="0" fill="#fff" stroke-width=".1"><tspan x="154.2" y="234.6" style="-inkscape-font-specification:'sans-serif Bold'">T</tspan></text><text font-size="3.2" y="210.3" x="176.9" style="line-height:1.25;-inkscape-font-specification:'sans-serif Bold'" transform="scale(1.00046 .99954)" font-weight="700" font-family="sans-serif" letter-spacing="0" word-spacing="0" fill="#fff"><tspan style="-inkscape-font-specification:'sans-serif Bold'" y="210.3" x="176.9" stroke-width=".1">k</tspan></text><rect width="3.1" height="11.3" x="212.9" y="200.4" ry="0" rx="0" fill="#2f5e5d"/><rect rx="0" ry="0" y="200.4" x="217.2" height="11.3" width="6.4" fill="#e5650e"/><rect rx="0" ry="0" y="200.4" x="225.3" height="11.3" width="3.1" fill="#2f5e5d"/><rect rx="0" ry="0" y="200.4" x="239" height="11.3" width="2.5" fill="#2f5e5d"/><rect rx="0" ry="0" y="200.4" x="244.8" height="11.3" width="5.7" fill="#2f5e5d"/><path fill="#2f5e5d" d="M212.9 210.2h37.6v1.9h-37.6z"/><g fill="#363636" stroke-width="1.8"><path d="M208.7 205v2.2h-4.1v-2.1z"/><path d="M207.7 203.4v5.5l1.5-1.4 1.5-1.4-1.5-1.3z"/></g><circle r="8.4" cy="107.2" cx="275.4" fill="#2f5e5d"/><path d="M283.8 107.2a8.4 8.4 0 01-2.5 6l-5.9-6z" fill="#e5650e"/><g transform="translate(126.3 32.3) scale(.67595)" stroke-width="1.5"><ellipse cy="147.2" cx="221.4" rx="12.4" ry="4.8" fill="#2f5e5d"/><path d="M233.8 147.2a12.4 4.8 0 01-3.6 3.4l-8.7-3.4z" fill="#e5650e"/></g><g transform="translate(127.6 24.5) scale(.67595)" stroke-width="1.5"><ellipse ry="4.8" rx="12.4" cx="219.5" cy="185.5" fill="#2f5e5d"/><path d="M232 185.5a12.4 4.8 0 01-3.7 3.4l-8.7-3.4z" fill="#e5650e"/></g><g transform="translate(126.5 30.5) scale(.67595)" stroke-width="1.5"><ellipse ry="4.8" rx="12.4" cx="221.1" cy="204.5" fill="#2f5e5d"/><path d="M233.5 204.5a12.4 4.8 0 01-3.6 3.4l-8.8-3.4z" fill="#e5650e"/></g><g fill="#363636" stroke-width="2"><path d="M255.2 93h5.3v1.6h-5.3zm0 28h5.3v1.7h-5.3zM258.8 94.6h1.7V121h-1.7z"/><path d="M259 106.3h6.2v1.6h-6.3z"/></g><text stroke-width=".3" fill="#e5650e" word-spacing="0" letter-spacing="0" font-family="'Ubuntu Condensed'" font-size="4.3" font-weight="700" y="90.6" x="265.7" style="line-height:1.25;-inkscape-font-specification:'Ubuntu Condensed, Bold'"><tspan font-family="sans-serif" style="-inkscape-font-specification:'sans-serif Bold'" y="90.6" x="265.7" stroke-width="1.2">avg error</tspan></text><g fill="#2f5e5d" stroke-width="2"><path d="M271.7 96.3v-.9h8.5v.9z"/><path d="M275.5 95.8v-2.5h.9v2.5zm-4.7 2v-2.4h.9V98zm8.6 0v-2.4h.8V98z"/></g><g transform="translate(124.6 121.5) scale(.67595)" stroke-width="1.5"><circle r="12.4" cy="111.3" cx="224" fill="#2f5e5d"/><path d="M236.3 113.3a12.4 12.4 0 01-10.6 10.3 12.4 12.4 0 01-13-7.1l11.4-5.2z" fill="#e5650e"/></g><g fill="#363636" stroke-width="2"><path d="M255.9 182.4h5.2v1.7H256zm0 28.2h5.2v1.7H256zm3.5-26.5h1.7v26.5h-1.7z"/><path d="M259.5 195.8h6.3v1.6h-6.3z"/></g><path d="M299.2 108.4h2.9v88.8h-3zm2.9-2.9v3h-9.3v-3z" fill="#363636"/><path d="M302.1 194.3v2.9h-9.3v-3zm6.5-43v3h-9.4v-3z" fill="#363636"/><circle r="20.9" cy="151.1" cx="333.8" fill="#2f5e5d"/><path d="M329.5 171.6a20.9 20.9 0 01-14.8-11.8l19-8.7z" fill="#e5650e"/><text style="line-height:.85;-inkscape-font-specification:'Ubuntu Condensed, Bold';text-align:center;white-space:pre;inline-size:54.0541" x="334.2" y="113.9" font-weight="700" font-size="9.3" font-family="'Ubuntu Condensed'" letter-spacing="0" word-spacing="0" fill="#e5650e" stroke-width=".3" transform="translate(2.3 -8.5)" text-anchor="middle"><tspan x="334.2" y="113.9"><tspan style="-inkscape-font-specification:'sans-serif Bold'" font-family="sans-serif">total</tspan><tspan style="-inkscape-font-specification:'sans-serif Bold';text-align:center" font-family="sans-serif" stroke-width="1.2"> </tspan></tspan><tspan x="334.2" y="122.2"><tspan style="-inkscape-font-specification:'sans-serif Bold';text-align:center" font-family="sans-serif" stroke-width="1.2">avg error</tspan></tspan></text><g fill="#2f5e5d" stroke-width=".9"><path d="M325.5 125.4v-1.8h18.3v1.8z"/><path d="M333.8 124.3v-5.2h1.8v5.2zm-10.1 4.6v-5.3h1.8v5.3zm18.3 0v-5.3h1.8v5.3z"/></g><path d="M155.9 119.7h-6.2v-6.2h6.2z" fill="#4e9d9b"/><path d="M155.3 103.7H150v-5.2h5.2z" fill="#4e9d9b" fill-opacity=".5"/><path d="M155.3 108.2H150V103h5.2z" fill="#4e9d9b" fill-opacity=".5"/><path d="M155.3 112.6H150v-5.2h5.2z" fill="#4e9d9b" fill-opacity=".5"/><g stroke-width=".8"><path d="M155.8 98h-6.2v-6.3h6.2z" fill="#4e9d9b"/><g font-weight="700" letter-spacing="0" word-spacing="0" font-family="sans-serif" fill="#fff" stroke-width=".5"><text y="275" x="9.1" style="line-height:1.25;-inkscape-font-specification:'sans-serif Bold'" font-size="7" transform="translate(145.6 -73.8) scale(.61672)"><tspan style="-inkscape-font-specification:'sans-serif Bold'" y="275" x="9.1">x</tspan></text><text style="line-height:1.25;-inkscape-font-specification:'sans-serif Bold'" x="13.4" y="276.7" font-size="3.4" stroke-width=".2" transform="translate(145.6 -73.8) scale(.61672)"><tspan x="13.4" y="276.7" style="-inkscape-font-specification:'sans-serif Bold'">1</tspan></text></g></g><g font-weight="700" letter-spacing="0" word-spacing="0" font-family="sans-serif" fill="#fff" stroke-width=".5"><text font-size="7" style="line-height:1.25;-inkscape-font-specification:'sans-serif Bold'" x="9.1" y="275" transform="translate(145.8 -50.4) scale(.61218)"><tspan x="9.1" y="275" style="-inkscape-font-specification:'sans-serif Bold'">x</tspan></text><text font-size="3.4" y="276.7" x="13.4" style="line-height:1.25;-inkscape-font-specification:'sans-serif Bold'" stroke-width=".2" transform="translate(145.8 -50.4) scale(.61218)"><tspan style="-inkscape-font-specification:'sans-serif Bold'" y="276.7" x="13.4">k</tspan></text></g><text y="130.6" x="66.8" style="line-height:1.25;-inkscape-font-specification:'Ubuntu Condensed, Bold'" font-weight="700" font-size="10.2" letter-spacing="0" word-spacing="0" font-family="Ubuntu Condensed" fill="#2f5e5d" stroke-width=".5"><tspan style="-inkscape-font-specification:'sans-serif Bold'" y="130.6" x="66.8" font-family="sans-serif" stroke-width="2.5">Loss</tspan></text><text word-spacing="0" letter-spacing="0" font-size="10.2" font-weight="700" style="line-height:1.25;-inkscape-font-specification:'Ubuntu Condensed, Bold'" x="66.8" y="163.2" font-family="Ubuntu Condensed" fill="#2f5e5d" stroke-width=".5"><tspan x="66.8" y="163.2" style="-inkscape-font-specification:'sans-serif Bold'" font-family="sans-serif" stroke-width="2.5">max</tspan></text><path d="M147.7 193.7v2.4h6.7v-2.4z" fill="#a0c5d9"/><path d="M155 209.4h-6.2v-6.2h6.2z" fill="#4e9d9b"/><path d="M154.4 193.4h-5.2v-5.2h5.2z" fill="#4e9d9b" fill-opacity=".5"/><path d="M154.4 197.8h-5.2v-5.2h5.2z" fill="#4e9d9b" fill-opacity=".5"/><path d="M154.4 202.2h-5.2v-5.1h5.2z" fill="#4e9d9b" fill-opacity=".5"/><g stroke-width=".8"><path d="M155 187.6h-6.3v-6.2h6.3z" fill="#4e9d9b"/><g font-weight="700" letter-spacing="0" word-spacing="0" font-family="sans-serif" fill="#fff" stroke-width=".5"><text y="275" x="9.1" style="line-height:1.25;-inkscape-font-specification:'sans-serif Bold'" font-size="7" transform="translate(144.7 15.8) scale(.61672)"><tspan style="-inkscape-font-specification:'sans-serif Bold'" y="275" x="9.1">x</tspan></text><text style="line-height:1.25;-inkscape-font-specification:'sans-serif Bold'" x="13.4" y="276.7" font-size="3.4" stroke-width=".2" transform="translate(144.7 15.8) scale(.61672)"><tspan x="13.4" y="276.7" style="-inkscape-font-specification:'sans-serif Bold'">1</tspan></text></g></g><g font-weight="700" letter-spacing="0" word-spacing="0" font-family="sans-serif" fill="#fff" stroke-width=".5"><text font-size="7" style="line-height:1.25;-inkscape-font-specification:'sans-serif Bold'" x="9.1" y="275" transform="translate(145 39.2) scale(.61218)"><tspan x="9.1" y="275" style="-inkscape-font-specification:'sans-serif Bold'">x</tspan></text><text font-size="3.4" y="276.7" x="13.4" style="line-height:1.25;-inkscape-font-specification:'sans-serif Bold'" stroke-width=".2" transform="translate(145 39.2) scale(.61218)"><tspan style="-inkscape-font-specification:'sans-serif Bold'" y="276.7" x="13.4">k</tspan></text></g></g></svg>