<svg xmlns="http://www.w3.org/2000/svg" viewBox="0 0 299.083 124.042" height="468.82" width="1130.394"><g transform="translate(32.558 -118.652)"><rect width="22.738" height="22.738" x="-28.899" y="163.032" ry="0" fill="#2f5e5d"/><text y="180.412" x="-27.745" style="line-height:1.25;-inkscape-font-specification:'Ubuntu Condensed, Bold'" font-weight="700" font-size="19.307" letter-spacing="0" word-spacing="0" font-family="Ubuntu Condensed" fill="#fff" stroke-width=".482"><tspan style="-inkscape-font-specification:'sans-serif Bold'" y="180.412" x="-27.745" font-family="sans-serif">D</tspan></text><text style="line-height:1.25;-inkscape-font-specification:'sans-serif Bold'" x="-12.897" y="183.521" font-weight="700" font-size="7.848" letter-spacing="0" word-spacing="0" font-family="sans-serif" fill="#fff" stroke-width=".196"><tspan x="-12.897" y="183.521" style="-inkscape-font-specification:'sans-serif Bold'">?</tspan></text><text y="181.169" x="-1.162" style="line-height:1.25;-inkscape-font-specification:'sans-serif Bold'" font-weight="700" font-size="15.785" font-family="sans-serif" letter-spacing="0" word-spacing="0" fill="#363636" stroke-width=".395"><tspan style="-inkscape-font-specification:'sans-serif Bold'" y="181.169" x="-1.162">≥</tspan></text><rect ry="0" y="120.747" x="52.293" height="8" width="8" fill="#2f5e5d"/><text style="line-height:1.25;-inkscape-font-specification:'Ubuntu Condensed, Bold'" x="52.722" y="126.862" font-weight="700" font-size="6.793" letter-spacing="0" word-spacing="0" font-family="Ubuntu Condensed" fill="#fff" stroke-width=".345"><tspan x="52.722" y="126.862" style="-inkscape-font-specification:'sans-serif Bold'" font-family="sans-serif" stroke-width=".316">D</tspan></text><text y="127.955" x="57.946" style="line-height:1.25;-inkscape-font-specification:'sans-serif Bold'" font-weight="700" font-size="2.761" letter-spacing="0" word-spacing="0" font-family="sans-serif" fill="#fff" stroke-width=".14"><tspan style="-inkscape-font-specification:'sans-serif Bold'" y="127.955" x="57.946">1</tspan></text><rect rx="0" width="8" height="8" x="52.082" y="142.645" ry="0" fill="#2f5e5d"/><g font-weight="700" letter-spacing="0" word-spacing="0" fill="#fff" stroke-width="1.863"><text style="line-height:1.25;-inkscape-font-specification:'Ubuntu Condensed, Bold'" x="-119.77" y="833.104" font-size="13.818" font-family="Ubuntu Condensed" stroke-width=".702" transform="translate(111.155 -260.81) scale(.49158)"><tspan x="-119.77" y="833.104" style="-inkscape-font-specification:'sans-serif Bold'" font-family="sans-serif" stroke-width=".643">D</tspan></text><text y="835.329" x="-109.143" style="line-height:1.25;-inkscape-font-specification:'sans-serif Bold'" font-size="5.617" font-family="sans-serif" stroke-width=".285" transform="translate(111.155 -260.81) scale(.49158)"><tspan style="-inkscape-font-specification:'sans-serif Bold'" y="835.329" x="-109.143">T</tspan></text></g><path d="M53.504 129.22h5.156v4.9h-5.156z" fill="#2f5e5d" opacity=".5"/><path d="M53.504 133.148h5.156v4.9h-5.156z" fill="#2f5e5d" opacity=".5"/><path d="M53.504 137.075h5.156v4.9h-5.156z" fill="#2f5e5d" opacity=".5"/><text stroke-width=".395" fill="#363636" word-spacing="0" letter-spacing="0" font-family="sans-serif" font-size="10.653" font-weight="700" style="line-height:1.25;-inkscape-font-specification:'sans-serif Bold'" x="62.683" y="128.548"><tspan x="62.683" y="128.548" style="-inkscape-font-specification:'sans-serif Bold'">A(</tspan></text><text stroke-width=".395" fill="#363636" word-spacing="0" letter-spacing="0" font-family="sans-serif" font-size="10.653" font-weight="700" y="128.548" x="88.373" style="line-height:1.25;-inkscape-font-specification:'sans-serif Bold'"><tspan style="-inkscape-font-specification:'sans-serif Bold'" y="128.548" x="88.373">)</tspan></text><path d="M100.276 120.843h8.73v8.73h-8.73z" fill="#99039e"/><text word-spacing="0" letter-spacing="0" font-size="6.131" font-weight="700" y="127.537" x="102.441" style="line-height:1.25;-inkscape-font-specification:'sans-serif Bold'" font-family="sans-serif" stroke-width=".227" fill="#fff"><tspan style="-inkscape-font-specification:'sans-serif Bold'" y="127.537" x="102.441">h</tspan></text><g fill="#363636" stroke-width="1.482"><path d="M97.444 124.07v2.118h-4.13v-2.118z"/><path d="M96.477 122.411l.01 2.719.008 2.718 1.464-1.372 1.463-1.372-1.472-1.347z"/></g><path d="M76.824 120.244h10.162v9.786H76.824z" fill="#dca900"/><text y="129.845" x="77.129" style="line-height:1.25;-inkscape-font-specification:'sans-serif Bold'" font-size="8.551" transform="scale(1.01901 .98134)" font-weight="700" font-family="sans-serif" letter-spacing="0" word-spacing="0" fill="#fff" stroke-width=".293"><tspan style="-inkscape-font-specification:'sans-serif Bold'" y="129.845" x="77.129">s</tspan></text><text font-size="3.628" y="141.576" x="72.598" style="line-height:1.25;-inkscape-font-specification:'sans-serif Bold'" transform="scale(1.1491 .87024)" font-weight="700" font-family="sans-serif" letter-spacing="0" word-spacing="0" fill="#fff" stroke-width=".14"><tspan style="-inkscape-font-specification:'sans-serif Bold'" y="141.576" x="72.598">1</tspan></text><path d="M50.746 123.779H48.38v23.83h2.366z" fill="#4e9d9b"/><text transform="scale(1.00046 .99954)" style="line-height:1.25;-inkscape-font-specification:'sans-serif Bold'" x="83.196" y="129.259" font-size="3.159" font-weight="700" font-family="sans-serif" letter-spacing="0" word-spacing="0" fill="#fff"><tspan x="83.196" y="129.259" style="-inkscape-font-specification:'sans-serif Bold'" stroke-width=".14">1</tspan></text><rect fill="#2f5e5d" rx="0" ry="0" y="119.432" x="119.148" height="11.315" width="3.106"/><rect fill="#2f5e5d" width="3.106" height="11.315" x="123.418" y="119.432" ry="0" rx="0"/><rect fill="#2f5e5d" width="3.106" height="11.315" x="131.517" y="119.432" ry="0" rx="0"/><rect fill="#e5650e" width="7.156" height="11.315" x="140.595" y="119.432" ry="0" rx="0"/><rect fill="#2f5e5d" width="3.106" height="11.315" x="153.663" y="119.432" ry="0" rx="0"/><path d="M119.146 129.196h37.598v1.898h-37.598z" fill="#2f5e5d"/><g fill="#363636" stroke-width="1.793"><path d="M114.935 124.12v2.117h-4.13v-2.118z"/><path d="M113.969 122.46l.008 2.719.01 2.718 1.463-1.372 1.464-1.371-1.473-1.347z"/></g><path d="M42.095 123.779v2.366h6.285v-2.366zM42.095 145.243v2.365h6.285v-2.365zM50.627 134.511v2.365h2.048v-2.365z" fill="#4e9d9b"/><path fill="#2f5e5d" d="M119.149 133.655h37.457v1.409h-37.457zM119.149 136.245h37.457v1.409h-37.457z"/><g fill="#dca900"><path d="M77.042 133.088h10.08v1.409h-10.08zM77.042 135.678h10.08v1.409h-10.08zM77.042 138.268h10.08v1.409h-10.08z"/></g><path fill="#2f5e5d" d="M119.149 138.835h37.457v1.409h-37.457z"/><g fill="#99039e"><path d="M100.418 133.765h8.834v1.409h-8.834zM100.418 136.355h8.834v1.409h-8.834zM100.418 138.945h8.834v1.409h-8.834z"/></g><path fill="#e5650e" d="M119.149 133.655h8.757v1.409h-8.757zM133.911 136.245h11.672v1.409h-11.672zM122.167 138.835h3.812v1.409h-3.812zM139.321 138.835h5.694v1.409h-5.694z"/><text y="217.387" x="61.213" style="line-height:1.25;-inkscape-font-specification:'sans-serif Bold'" font-weight="700" font-size="10.653" font-family="sans-serif" letter-spacing="0" word-spacing="0" fill="#363636" stroke-width=".395"><tspan style="-inkscape-font-specification:'sans-serif Bold'" y="217.387" x="61.213">A(</tspan></text><text style="line-height:1.25;-inkscape-font-specification:'sans-serif Bold'" x="87.962" y="217.387" font-weight="700" font-size="10.653" font-family="sans-serif" letter-spacing="0" word-spacing="0" fill="#363636" stroke-width=".395"><tspan x="87.962" y="217.387" style="-inkscape-font-specification:'sans-serif Bold'">)</tspan></text><path fill="#99039e" d="M99.865 209.683h8.73v8.73h-8.73z"/><text style="line-height:1.25;-inkscape-font-specification:'sans-serif Bold'" x="102.029" y="216.377" font-weight="700" font-size="6.131" font-family="sans-serif" letter-spacing="0" word-spacing="0" fill="#fff" stroke-width=".227"><tspan x="102.029" y="216.377" style="-inkscape-font-specification:'sans-serif Bold'">h</tspan></text><g fill="#363636" stroke-width="1.482"><path d="M97.032 212.91v2.117h-4.129v-2.117z"/><path d="M96.066 211.25l.01 2.72.008 2.718 1.464-1.372 1.463-1.372-1.473-1.347z"/></g><path d="M76.413 209.083h10.162v9.787H76.413z" fill="#dca900"/><text font-size="8.551" style="line-height:1.25;-inkscape-font-specification:'sans-serif Bold'" x="76.725" y="220.374" transform="scale(1.01901 .98134)" font-weight="700" font-family="sans-serif" letter-spacing="0" word-spacing="0" fill="#fff" stroke-width=".293"><tspan x="76.725" y="220.374" style="-inkscape-font-specification:'sans-serif Bold'">s</tspan></text><text transform="scale(1.1491 .87024)" style="line-height:1.25;-inkscape-font-specification:'sans-serif Bold'" x="72.24" y="243.662" font-size="3.628" font-weight="700" font-family="sans-serif" letter-spacing="0" word-spacing="0" fill="#fff" stroke-width=".14"><tspan x="72.24" y="243.662" style="-inkscape-font-specification:'sans-serif Bold'">1</tspan></text><path d="M50.018 213.497h-2.366v22.315h2.366z" fill="#4e9d9b"/><text font-size="3.159" y="218.139" x="82.785" style="line-height:1.25;-inkscape-font-specification:'sans-serif Bold'" transform="scale(1.00046 .99954)" font-weight="700" font-family="sans-serif" letter-spacing="0" word-spacing="0" fill="#fff"><tspan style="-inkscape-font-specification:'sans-serif Bold'" y="218.139" x="82.785" stroke-width=".14">k</tspan></text><rect width="3.106" height="11.315" x="118.737" y="208.271" ry="0" rx="0" fill="#2f5e5d"/><rect rx="0" ry="0" y="208.271" x="123.006" height="11.315" width="3.106" fill="#2f5e5d"/><rect rx="0" ry="0" y="208.271" x="131.106" height="11.315" width="3.106" fill="#e5650e"/><rect rx="0" ry="0" y="208.271" x="140.184" height="11.315" width="7.156" fill="#2f5e5d"/><rect rx="0" ry="0" y="208.271" x="153.252" height="11.315" width="3.106" fill="#2f5e5d"/><path fill="#2f5e5d" d="M118.734 218.036h37.598v1.898h-37.598z"/><g fill="#363636" stroke-width="1.793"><path d="M114.524 212.96v2.117h-4.13v-2.118z"/><path d="M113.557 211.3l.009 2.719.01 2.718 1.463-1.372 1.463-1.371-1.472-1.347z"/></g><path d="M41.367 213.497v2.366h6.285v-2.366zM41.367 233.48v2.366h6.285v-2.365zM49.9 224.23v2.365h1.181v-2.366z" fill="#4e9d9b"/><path fill="#2f5e5d" d="M118.738 222.495h37.457v1.409h-37.457zM118.738 225.084h37.457v1.409h-37.457z"/><g fill="#dca900"><path d="M76.488 221.715h10.08v1.41h-10.08zM76.488 224.304h10.08v1.41h-10.08zM76.488 226.894h10.08v1.41h-10.08z"/></g><path fill="#2f5e5d" d="M118.738 227.674h37.457v1.409h-37.457z"/><g fill="#b504bb"><path d="M100.007 222.605h8.834v1.409h-8.834zM100.007 225.195h8.834v1.409h-8.834zM100.007 227.784h8.834v1.409h-8.834z"/></g><path fill="#e5650e" d="M118.738 222.495h20.604v1.409h-20.604zM133.5 225.084h4.315v1.409H133.5zM121.755 227.674h3.812v1.409h-3.812zM141.881 227.674h2.723v1.409h-2.723z"/><path fill="#4e9b99" fill-opacity=".502" d="M44.093 158.277h108.629v8.568H44.093z"/><path fill="#dca900" d="M76.645 158.277h10.896v8.568H76.645z"/><path fill="#99039e" d="M100.212 158.277h10.363v8.568h-10.363z"/><path fill="#2f5e5d" d="M118.858 158.277h37.869v8.568h-37.869z"/><path fill="#e5650e" d="M130.847 158.277h3.204v8.568h-3.204z"/><path fill="#4e9b99" fill-opacity=".502" d="M44.093 176.052h110.176v8.568H44.093z"/><path fill="#dca900" d="M76.645 176.052h10.896v8.568H76.645z"/><path fill="#99039e" d="M100.212 176.052h10.363v8.568h-10.363z"/><path fill="#2f5e5d" d="M119.3 176.052h37.893v8.568H119.3z"/><path fill="#e5650e" d="M136.013 176.052h3.204v8.568h-3.204z"/><path fill="#4e9b99" fill-opacity=".502" d="M44.093 193.827h110.176v8.568H44.093z"/><path fill="#dca900" d="M76.645 193.827h10.896v8.568H76.645z"/><path fill="#99039e" d="M100.212 193.827h10.363v8.568h-10.363z"/><path fill="#2f5e5d" d="M119.3 193.827h37.893v8.568H119.3z"/><path fill="#e5650e" d="M128.902 193.827h6.696v8.568h-6.696z"/><text y="150.605" x="62.688" style="line-height:1.25;-inkscape-font-specification:'sans-serif Bold'" font-weight="700" font-size="10.653" font-family="sans-serif" letter-spacing="0" word-spacing="0" fill="#363636" stroke-width=".395"><tspan style="-inkscape-font-specification:'sans-serif Bold'" y="150.605" x="62.688">A(</tspan></text><text style="line-height:1.25;-inkscape-font-specification:'sans-serif Bold'" x="88.379" y="150.605" font-weight="700" font-size="10.653" font-family="sans-serif" letter-spacing="0" word-spacing="0" fill="#363636" stroke-width=".395"><tspan x="88.379" y="150.605" style="-inkscape-font-specification:'sans-serif Bold'">)</tspan></text><path fill="#99039e" d="M100.282 142.9h8.73v8.73h-8.73z"/><text style="line-height:1.25;-inkscape-font-specification:'sans-serif Bold'" x="102.446" y="149.595" font-weight="700" font-size="6.131" font-family="sans-serif" letter-spacing="0" word-spacing="0" fill="#fff" stroke-width=".227"><tspan x="102.446" y="149.595" style="-inkscape-font-specification:'sans-serif Bold'">h</tspan></text><g fill="#363636" stroke-width="1.482"><path d="M97.45 146.127v2.118h-4.13v-2.118z"/><path d="M96.483 144.468l.01 2.719.008 2.718 1.464-1.372 1.463-1.372-1.473-1.346z"/></g><path d="M76.83 142.3h10.162v9.787H76.83z" fill="#dca900"/><text font-size="8.551" style="line-height:1.25;-inkscape-font-specification:'sans-serif Bold'" x="77.134" y="152.321" transform="scale(1.01901 .98134)" font-weight="700" font-family="sans-serif" letter-spacing="0" word-spacing="0" fill="#fff" stroke-width=".293"><tspan x="77.134" y="152.321" style="-inkscape-font-specification:'sans-serif Bold'">s</tspan></text><text transform="scale(1.1491 .87024)" style="line-height:1.25;-inkscape-font-specification:'sans-serif Bold'" x="72.603" y="166.922" font-size="3.628" font-weight="700" font-family="sans-serif" letter-spacing="0" word-spacing="0" fill="#fff" stroke-width=".14"><tspan x="72.603" y="166.922" style="-inkscape-font-specification:'sans-serif Bold'">T</tspan></text><text font-size="3.159" y="151.326" x="83.202" style="line-height:1.25;-inkscape-font-specification:'sans-serif Bold'" transform="scale(1.00046 .99954)" font-weight="700" font-family="sans-serif" letter-spacing="0" word-spacing="0" fill="#fff"><tspan style="-inkscape-font-specification:'sans-serif Bold'" y="151.326" x="83.202" stroke-width=".14">1</tspan></text><rect width="3.106" height="11.315" x="119.154" y="141.489" ry="0" rx="0" fill="#2f5e5d"/><rect rx="0" ry="0" y="141.489" x="123.423" height="11.315" width="6.436" fill="#2f5e5d"/><rect rx="0" ry="0" y="141.489" x="131.523" height="11.315" width="3.106" fill="#2f5e5d"/><rect rx="0" ry="0" y="141.489" x="145.224" height="11.315" width="2.533" fill="#e5650e"/><rect rx="0" ry="0" y="141.489" x="151.078" height="11.315" width="5.698" fill="#2f5e5d"/><path fill="#2f5e5d" d="M119.151 151.254h37.598v1.897h-37.598z"/><g fill="#363636" stroke-width="1.793"><path d="M114.94 146.177v2.117h-4.129v-2.117z"/><path d="M113.974 144.518l.01 2.718.009 2.719 1.463-1.372 1.464-1.372-1.473-1.347z"/></g><text stroke-width=".395" fill="#363636" word-spacing="0" letter-spacing="0" font-family="sans-serif" font-size="10.653" font-weight="700" style="line-height:1.25;-inkscape-font-specification:'sans-serif Bold'" x="61.17" y="239.947"><tspan x="61.17" y="239.947" style="-inkscape-font-specification:'sans-serif Bold'">A(</tspan></text><text stroke-width=".395" fill="#363636" word-spacing="0" letter-spacing="0" font-family="sans-serif" font-size="10.653" font-weight="700" y="239.947" x="87.919" style="line-height:1.25;-inkscape-font-specification:'sans-serif Bold'"><tspan style="-inkscape-font-specification:'sans-serif Bold'" y="239.947" x="87.919">)</tspan></text><path d="M99.822 232.243h8.73v8.73h-8.73z" fill="#99039e"/><text stroke-width=".227" fill="#fff" word-spacing="0" letter-spacing="0" font-family="sans-serif" font-size="6.131" font-weight="700" y="238.937" x="101.986" style="line-height:1.25;-inkscape-font-specification:'sans-serif Bold'"><tspan style="-inkscape-font-specification:'sans-serif Bold'" y="238.937" x="101.986">h</tspan></text><g fill="#363636" stroke-width="1.482"><path d="M96.99 235.47v2.117h-4.13v-2.118z"/><path d="M96.023 233.81l.01 2.719.008 2.718 1.464-1.372 1.463-1.372-1.473-1.346z"/></g><path d="M76.37 231.643h10.162v9.786H76.37z" fill="#dca900"/><text y="243.362" x="76.683" style="line-height:1.25;-inkscape-font-specification:'sans-serif Bold'" font-size="8.551" transform="scale(1.01901 .98134)" font-weight="700" font-family="sans-serif" letter-spacing="0" word-spacing="0" fill="#fff" stroke-width=".293"><tspan style="-inkscape-font-specification:'sans-serif Bold'" y="243.362" x="76.683">s</tspan></text><text font-size="3.628" y="269.586" x="72.203" style="line-height:1.25;-inkscape-font-specification:'sans-serif Bold'" transform="scale(1.1491 .87024)" font-weight="700" font-family="sans-serif" letter-spacing="0" word-spacing="0" fill="#fff" stroke-width=".14"><tspan style="-inkscape-font-specification:'sans-serif Bold'" y="269.586" x="72.203">T</tspan></text><text transform="scale(1.00046 .99954)" style="line-height:1.25;-inkscape-font-specification:'sans-serif Bold'" x="82.742" y="240.709" font-size="3.159" font-weight="700" font-family="sans-serif" letter-spacing="0" word-spacing="0" fill="#fff"><tspan x="82.742" y="240.709" style="-inkscape-font-specification:'sans-serif Bold'" stroke-width=".14">k</tspan></text><rect fill="#2f5e5d" rx="0" ry="0" y="230.831" x="118.694" height="11.315" width="3.106"/><rect fill="#e5650e" width="6.436" height="11.315" x="122.963" y="230.831" ry="0" rx="0"/><rect fill="#2f5e5d" width="3.106" height="11.315" x="131.063" y="230.831" ry="0" rx="0"/><rect fill="#2f5e5d" width="2.533" height="11.315" x="144.764" y="230.831" ry="0" rx="0"/><rect fill="#2f5e5d" width="5.698" height="11.315" x="150.618" y="230.831" ry="0" rx="0"/><path d="M118.691 240.596h37.598v1.898h-37.598z" fill="#2f5e5d"/><g fill="#363636" stroke-width="1.793"><path d="M114.48 235.519v2.118h-4.129v-2.118z"/><path d="M113.514 233.86l.01 2.718.009 2.719 1.463-1.372 1.463-1.372-1.472-1.347z"/></g><circle cx="181.172" cy="137.677" r="8.374" fill="#2f5e5d"/><path d="M189.586 137.637a8.374 8.374 0 01-2.453 5.92l-5.92-5.92z" fill="#e5650e"/><g transform="matrix(.67595 0 0 .67595 32.113 62.74)" stroke-width="1.479"><ellipse ry="4.778" rx="12.389" cx="221.401" cy="147.218" fill="#2f5e5d"/><path d="M233.849 147.196a12.389 4.778 0 01-3.629 3.378l-8.76-3.378z" fill="#e5650e"/></g><g transform="matrix(.67595 0 0 .67595 33.403 54.919)" stroke-width="1.479"><ellipse cy="185.535" cx="219.493" rx="12.389" ry="4.778" fill="#2f5e5d"/><path d="M231.94 185.512a12.389 4.778 0 01-3.628 3.379l-8.76-3.379z" fill="#e5650e"/></g><g transform="matrix(.67595 0 0 .67595 32.33 60.974)" stroke-width="1.479"><ellipse cy="204.512" cx="221.08" rx="12.389" ry="4.778" fill="#2f5e5d"/><path d="M233.528 204.49a12.389 4.778 0 01-3.629 3.378l-8.76-3.379z" fill="#e5650e"/></g><g fill="#363636" stroke-width="1.964"><path d="M161.045 123.344h5.245v1.66h-5.245zm0 28.167h5.245v1.66h-5.245zM164.63 125.004h1.66v26.507h-1.66z"/><path d="M164.732 136.688h6.226v1.66h-6.226z"/></g><text style="line-height:1.25;-inkscape-font-specification:'Ubuntu Condensed, Bold'" x="171.513" y="121.066" font-weight="700" font-size="4.31" font-family="'Ubuntu Condensed'" letter-spacing="0" word-spacing="0" fill="#e5650e" stroke-width=".308"><tspan x="171.513" y="121.066" style="-inkscape-font-specification:'sans-serif Bold'" font-family="sans-serif" stroke-width="1.164">avg error</tspan></text><g fill="#2f5e5d" stroke-width="1.964"><path d="M177.494 126.697v-.832h8.533v.832z"/><path d="M181.335 126.18v-2.45h.852v2.45zM176.642 128.316v-2.451h.852v2.45zM185.176 128.316v-2.451h.851v2.45z"/></g><g transform="matrix(.67595 0 0 .67595 30.376 151.961)" stroke-width="1.479"><circle cx="224.001" cy="111.307" r="12.389" fill="#2f5e5d"/><path d="M236.289 113.27a12.389 12.389 0 01-10.562 10.336 12.389 12.389 0 01-12.944-7.13l11.27-5.145z" fill="#e5650e"/></g><g fill="#363636" stroke-width="1.964"><path d="M161.662 212.867h5.244v1.66h-5.244zm0 28.166h5.244v1.66h-5.244zM165.246 214.527h1.66v26.506h-1.66z"/><path d="M165.348 226.21h6.226v1.66h-6.226z"/></g><path d="M204.98 138.857h2.916v88.756h-2.916zM207.896 135.94v2.917h-9.323v-2.917z" fill="#363636"/><path d="M207.896 224.697v2.916h-9.323v-2.916zM214.355 181.777v2.916h-9.323v-2.916z" fill="#363636"/><circle cx="239.558" cy="181.513" r="20.904" fill="#2f5e5d"/><path d="M235.343 201.997a20.904 20.904 0 01-14.8-11.794l19.016-8.68z" fill="#e5650e"/><text transform="translate(-91.863 21.955)" stroke-width=".308" fill="#e5650e" word-spacing="0" letter-spacing="0" font-family="'Ubuntu Condensed'" font-size="9.254" font-weight="700" y="113.907" x="334.178" style="line-height:.85;-inkscape-font-specification:'Ubuntu Condensed, Bold';text-align:center;white-space:pre;inline-size:54.0541" text-anchor="middle"><tspan x="334.178" y="113.907"><tspan style="-inkscape-font-specification:'sans-serif Bold'" font-family="sans-serif">total</tspan><tspan style="-inkscape-font-specification:'sans-serif Bold';text-align:center" font-family="sans-serif" stroke-width="1.164"> </tspan></tspan><tspan x="334.178" y="122.214"><tspan style="-inkscape-font-specification:'sans-serif Bold';text-align:center" font-family="sans-serif" stroke-width="1.164">avg error</tspan></tspan></text><g fill="#2f5e5d" stroke-width=".915"><path d="M231.317 155.864v-1.787h18.32v1.787z"/><path d="M239.563 154.754v-5.261h1.828v5.261zM229.489 159.338v-5.261h1.828v5.261zM247.808 159.338v-5.261h1.829v5.261z"/></g><path fill="#4e9d9b" d="M37.322 146.264H15.477V124.42h21.845zM37.322 235.86H15.477v-21.845h21.845z"/><path d="M37.322 171.813H15.477v-21.845h21.845z" fill="#4e9d9b" fill-opacity=".5"/><path fill="#4e9d9b" d="M37.322 190.533H15.477v-21.845h21.845z" fill-opacity=".5"/><path fill="#4e9d9b" d="M37.322 209.252H15.477v-21.844h21.845z" fill-opacity=".5"/><g word-spacing="0" letter-spacing="0" font-family="sans-serif" font-weight="700" fill="#fff" stroke-width=".154"><text stroke-width=".136" font-size="7.013" style="line-height:1.25;-inkscape-font-specification:'sans-serif Bold'" x="9.079" y="275.026" transform="matrix(2.15688 0 0 2.15688 1.428 -454.417)"><tspan x="9.079" y="275.026" style="-inkscape-font-specification:'sans-serif Bold'">x</tspan></text><text stroke-width=".065" font-size="3.356" y="276.695" x="13.398" style="line-height:1.25;-inkscape-font-specification:'sans-serif Bold'" transform="matrix(2.15688 0 0 2.15688 1.428 -454.417)"><tspan style="-inkscape-font-specification:'sans-serif Bold'" y="276.695" x="13.398">1</tspan></text></g><g fill="#fff" font-weight="700" font-family="sans-serif" letter-spacing="0" word-spacing="0" stroke-width=".154"><text stroke-width=".136" font-size="7.013" style="line-height:1.25;-inkscape-font-specification:'sans-serif Bold'" x="9.079" y="275.026" transform="matrix(2.15688 0 0 2.15688 .954 -364.455)"><tspan x="9.079" y="275.026" style="-inkscape-font-specification:'sans-serif Bold'">x</tspan></text><text stroke-width=".065" font-size="3.356" y="276.695" x="13.398" style="line-height:1.25;-inkscape-font-specification:'sans-serif Bold'" transform="matrix(2.15688 0 0 2.15688 .954 -364.455)"><tspan style="-inkscape-font-specification:'sans-serif Bold'" y="276.695" x="13.398">k</tspan></text></g><rect width="8" height="8" x="51.704" y="209.601" ry="0" fill="#2f5e5d"/><text word-spacing="0" letter-spacing="0" font-size="6.793" font-weight="700" y="215.716" x="52.133" style="line-height:1.25;-inkscape-font-specification:'Ubuntu Condensed, Bold'" font-family="Ubuntu Condensed" fill="#fff" stroke-width=".345"><tspan style="-inkscape-font-specification:'sans-serif Bold'" y="215.716" x="52.133" font-family="sans-serif" stroke-width=".316">D</tspan></text><text word-spacing="0" letter-spacing="0" font-size="2.761" font-weight="700" style="line-height:1.25;-inkscape-font-specification:'sans-serif Bold'" x="57.357" y="216.81" font-family="sans-serif" fill="#fff" stroke-width=".14"><tspan x="57.357" y="216.81" style="-inkscape-font-specification:'sans-serif Bold'">1</tspan></text><rect ry="0" y="231.5" x="51.493" height="8" width="8" rx="0" fill="#2f5e5d"/><g word-spacing="0" letter-spacing="0" font-weight="700" fill="#fff" stroke-width="1.863"><text font-size="13.818" y="833.104" x="-119.77" style="line-height:1.25;-inkscape-font-specification:'Ubuntu Condensed, Bold'" font-family="Ubuntu Condensed" stroke-width=".702" transform="translate(110.567 -171.956) scale(.49158)"><tspan style="-inkscape-font-specification:'sans-serif Bold'" y="833.104" x="-119.77" font-family="sans-serif" stroke-width=".643">D</tspan></text><text font-size="5.617" style="line-height:1.25;-inkscape-font-specification:'sans-serif Bold'" x="-109.143" y="835.329" font-family="sans-serif" stroke-width=".285" transform="translate(110.567 -171.956) scale(.49158)"><tspan x="-109.143" y="835.329" style="-inkscape-font-specification:'sans-serif Bold'">T</tspan></text></g><path d="M52.915 218.075h5.156v4.9h-5.156z" fill="#2f5e5d" opacity=".5"/><path d="M52.915 222.002h5.156v4.9h-5.156z" fill="#2f5e5d" opacity=".5"/><path d="M52.915 225.93h5.156v4.9h-5.156z" fill="#2f5e5d" opacity=".5"/><text y="160.048" x="-29.835" style="line-height:1.25;-inkscape-font-specification:'Ubuntu Condensed, Bold'" font-weight="700" font-size="10.194" letter-spacing="0" word-spacing="0" font-family="Ubuntu Condensed" fill="#2f5e5d" stroke-width=".482"><tspan style="-inkscape-font-specification:'sans-serif Bold'" y="160.048" x="-29.835" font-family="sans-serif" stroke-width="2.545">Loss</tspan></text><text word-spacing="0" letter-spacing="0" font-size="10.194" font-weight="700" style="line-height:1.25;-inkscape-font-specification:'Ubuntu Condensed, Bold'" x="-29.746" y="194.242" font-family="Ubuntu Condensed" fill="#2f5e5d" stroke-width=".482"><tspan x="-29.746" y="194.242" style="-inkscape-font-specification:'sans-serif Bold'" font-family="sans-serif" stroke-width="2.545">max</tspan></text></g></svg>