<svg xmlns="http://www.w3.org/2000/svg" width="406.945" height="317.384" viewBox="0 0 107.671 83.974"><g transform="translate(-36.952 -4.03)"><g transform="translate(.989 3.175)"><path d="M87.701 84.268H73.72V70.286H87.7zM87.701 70.286H73.72V56.305H87.7z" fill="#509f9d"/><rect ry="0" y="56.305" x="59.739" height="13.981" width="13.981" fill="#2f5e5d"/><text style="line-height:1.25;-inkscape-font-specification:'Ubuntu Condensed, Bold'" x="60.489" y="66.992" font-weight="700" font-size="11.871" letter-spacing="0" word-spacing="0" font-family="Ubuntu Condensed" fill="#fff" stroke-width=".345"><tspan x="60.489" y="66.992" style="-inkscape-font-specification:'sans-serif Bold'" font-family="sans-serif">D</tspan></text><text y="68.903" x="69.618" style="line-height:1.25;-inkscape-font-specification:'sans-serif Bold'" font-weight="700" font-size="4.826" letter-spacing="0" word-spacing="0" font-family="sans-serif" fill="#bcd0d7" stroke-width=".14"><tspan style="-inkscape-font-specification:'sans-serif Bold'" y="68.903" x="69.618">a</tspan></text><g transform="translate(-.989 37.6)"><rect width="13.981" height="13.981" x="60.727" y="32.686" ry="0" fill="#2f5e5d"/><text word-spacing="0" letter-spacing="0" font-size="11.871" font-weight="700" y="43.372" x="61.477" style="line-height:1.25;-inkscape-font-specification:'Ubuntu Condensed, Bold'" font-family="Ubuntu Condensed" fill="#fff" stroke-width=".345"><tspan style="-inkscape-font-specification:'sans-serif Bold'" y="43.372" x="61.477" font-family="sans-serif">D</tspan></text><text word-spacing="0" letter-spacing="0" font-size="4.826" font-weight="700" style="line-height:1.25;-inkscape-font-specification:'sans-serif Bold'" x="70.607" y="45.283" font-family="sans-serif" fill="#fccedf" stroke-width=".14"><tspan x="70.607" y="45.283" style="-inkscape-font-specification:'sans-serif Bold'">b</tspan></text></g><path d="M101.682 70.286H87.701V56.305h13.981z" fill="#488e8d"/><path d="M115.664 70.286h-13.982V56.305h13.982z" fill="#509f9d"/><path d="M129.645 70.286h-13.981V56.305h13.981z" fill="#488e8d"/><path d="M143.627 70.286h-13.982V56.305h13.982z" fill="#509f9d"/><path d="M101.682 84.268H87.701V70.286h13.981z" fill="#488e8d"/><path d="M115.664 84.268h-13.982V70.286h13.982z" fill="#509f9d"/><path d="M129.645 84.268h-13.981V70.286h13.981z" fill="#488e8d"/><path d="M143.627 84.268h-13.982V70.286h13.982z" fill="#509f9d"/><path d="M89.367 70.286V56.305h1.963v13.981zM92.262 70.286V56.305h1.964v13.981zM95.158 70.286V56.305h1.963v13.981zM98.053 70.286V56.305h1.964v13.981zM89.367 84.268V70.286h1.963v13.982zM92.262 84.268V70.286h1.964v13.982zM95.158 84.268V70.286h1.963v13.982zM98.053 84.268V70.286h1.964v13.982zM117.073 70.286V56.305h1.963v13.981zM119.968 70.286V56.305h1.964v13.981zM122.864 70.286V56.305h1.963v13.981zM125.76 70.286V56.305h1.963v13.981zM117.073 84.268V70.286h1.963v13.982zM119.968 84.268V70.286h1.964v13.982zM122.864 84.268V70.286h1.963v13.982zM125.76 84.268V70.286h1.963v13.982z" opacity=".5" fill="#2f5e5d"/><path opacity=".5" fill="#407e7d" d="M59.739 69.757h83.896v.529H59.739z"/><text font-size="11.891" y="67.63" x="76.312" style="line-height:1.25;-inkscape-font-specification:'sans-serif Bold'" font-weight="700" font-family="sans-serif" letter-spacing="0" word-spacing="0" fill="#fff" stroke-width=".14"><tspan style="-inkscape-font-specification:'sans-serif Bold'" y="67.63" x="76.312">0</tspan></text><text font-size="11.891" y="67.63" x="104.275" style="line-height:1.25;-inkscape-font-specification:'sans-serif Bold'" font-weight="700" font-family="sans-serif" letter-spacing="0" word-spacing="0" fill="#fff" stroke-width=".14"><tspan style="-inkscape-font-specification:'sans-serif Bold'" y="67.63" x="104.275">0</tspan></text><text font-size="11.891" y="81.611" x="104.275" style="line-height:1.25;-inkscape-font-specification:'sans-serif Bold'" font-weight="700" font-family="sans-serif" letter-spacing="0" word-spacing="0" fill="#fff" stroke-width=".14"><tspan style="-inkscape-font-specification:'sans-serif Bold'" y="81.611" x="104.275">1</tspan></text><text font-size="11.891" y="81.606" x="76.573" style="line-height:1.25;-inkscape-font-specification:'sans-serif Bold'" font-weight="700" font-family="sans-serif" letter-spacing="0" word-spacing="0" fill="#fff" stroke-width=".14"><tspan style="-inkscape-font-specification:'sans-serif Bold'" y="81.606" x="76.573">0</tspan></text><text font-size="11.891" y="81.611" x="132.238" style="line-height:1.25;-inkscape-font-specification:'sans-serif Bold'" font-weight="700" font-family="sans-serif" letter-spacing="0" word-spacing="0" fill="#fff" stroke-width=".14"><tspan style="-inkscape-font-specification:'sans-serif Bold'" y="81.611" x="132.238">0</tspan></text><text font-size="11.891" y="67.624" x="132.499" style="line-height:1.25;-inkscape-font-specification:'sans-serif Bold'" font-weight="700" font-family="sans-serif" letter-spacing="0" word-spacing="0" fill="#fff" stroke-width=".14"><tspan style="-inkscape-font-specification:'sans-serif Bold'" y="67.624" x="132.499">0</tspan></text></g><path d="M88.69 46.667H74.708V32.686H88.69zM88.69 32.686H74.708V18.705H88.69z" fill="#509f9d"/><rect width="13.981" height="13.981" x="60.727" y="18.705" ry="0" fill="#2f5e5d"/><text word-spacing="0" letter-spacing="0" font-size="11.871" font-weight="700" y="29.391" x="61.477" style="line-height:1.25;-inkscape-font-specification:'Ubuntu Condensed, Bold'" font-family="Ubuntu Condensed" fill="#fff" stroke-width=".345"><tspan style="-inkscape-font-specification:'sans-serif Bold'" y="29.391" x="61.477" font-family="sans-serif">D</tspan></text><text word-spacing="0" letter-spacing="0" font-size="4.826" font-weight="700" style="line-height:1.25;-inkscape-font-specification:'sans-serif Bold'" x="70.607" y="31.303" font-family="sans-serif" fill="#eaf5ff" fill-opacity=".753" stroke-width=".14"><tspan x="70.607" y="31.303" style="-inkscape-font-specification:'sans-serif Bold'">a</tspan></text><g><rect ry="0" y="32.686" x="60.727" height="13.981" width="13.981" fill="#2f5e5d"/><text style="line-height:1.25;-inkscape-font-specification:'Ubuntu Condensed, Bold'" x="61.477" y="43.372" font-weight="700" font-size="11.871" letter-spacing="0" word-spacing="0" font-family="Ubuntu Condensed" fill="#fff" stroke-width=".345"><tspan x="61.477" y="43.372" style="-inkscape-font-specification:'sans-serif Bold'" font-family="sans-serif">D</tspan></text><text y="45.283" x="70.607" style="line-height:1.25;-inkscape-font-specification:'sans-serif Bold'" font-weight="700" font-size="4.826" letter-spacing="0" word-spacing="0" font-family="sans-serif" fill="#fccedf" stroke-width=".14"><tspan style="-inkscape-font-specification:'sans-serif Bold'" y="45.283" x="70.607">b</tspan></text></g><path d="M102.716 18.705H88.69V4.723h14.026z" opacity=".5" fill="#2d82bb"/><path d="M88.69 18.705H74.708V4.723H88.69z" fill="#1d76ce"/><g font-weight="700" letter-spacing="0" word-spacing="0" font-family="sans-serif" fill="#fff" stroke-width=".241"><text y="275.026" x="9.079" style="line-height:1.25;-inkscape-font-specification:'sans-serif Bold'" font-size="7.013" stroke-width=".212" transform="translate(65.716 -365.76) scale(1.3805)"><tspan style="-inkscape-font-specification:'sans-serif Bold'" y="275.026" x="9.079">v</tspan></text><text style="line-height:1.25;-inkscape-font-specification:'sans-serif Bold'" x="13.398" y="276.695" font-size="3.356" stroke-width=".101" transform="translate(65.716 -365.76) scale(1.3805)"><tspan x="13.398" y="276.695" style="-inkscape-font-specification:'sans-serif Bold'">1</tspan></text></g><path d="M116.652 18.705h-13.981V4.723h13.981z" fill="#1d76ce"/><text y="14.308" x="106.628" style="line-height:1.25;-inkscape-font-specification:'sans-serif Bold'" font-size="9.682" font-weight="700" font-family="sans-serif" letter-spacing="0" word-spacing="0" fill="#fff" stroke-width=".293"><tspan style="-inkscape-font-specification:'sans-serif Bold'" y="14.308" x="106.628">v</tspan></text><text style="line-height:1.25;-inkscape-font-specification:'sans-serif Bold'" x="112.093" y="16.759" font-size="3.719" font-weight="700" font-family="sans-serif" letter-spacing="0" word-spacing="0" fill="#fff" stroke-width=".14"><tspan x="112.093" y="16.759" style="-inkscape-font-specification:'sans-serif Bold'">r</tspan></text><path d="M130.694 18.705H115.02V4.723h15.674z" font-weight="700" font-family="sans-serif" letter-spacing="0" word-spacing="0" opacity=".5" fill="#2d82bb"/><path d="M144.615 18.705h-13.981V4.723h13.981z" font-weight="700" font-family="sans-serif" letter-spacing="0" word-spacing="0" fill="#1d76ce"/><text y="14.308" x="134.591" style="line-height:1.25;-inkscape-font-specification:'sans-serif Bold'" font-size="9.682" font-weight="700" font-family="sans-serif" letter-spacing="0" word-spacing="0" fill="#fff" stroke-width=".293"><tspan style="-inkscape-font-specification:'sans-serif Bold'" y="14.308" x="134.591">v</tspan></text><text style="line-height:1.25;-inkscape-font-specification:'sans-serif Bold'" x="140.056" y="16.759" font-size="3.719" font-weight="700" font-family="sans-serif" letter-spacing="0" word-spacing="0" fill="#fff" stroke-width=".14"><tspan x="140.056" y="16.759" style="-inkscape-font-specification:'sans-serif Bold'">p</tspan></text><g font-weight="700" font-family="sans-serif" letter-spacing="0" word-spacing="0" fill="#1d76ce"><path d="M118.061 18.705V4.723h1.964v13.982zM120.957 18.705V4.723h1.963v13.982zM123.852 18.705V4.723h1.964v13.982zM126.748 18.705V4.723h1.963v13.982z" opacity=".5"/></g><path d="M90.355 18.705V4.723h1.964v13.982zM93.25 18.705V4.723h1.964v13.982zM96.146 18.705V4.723h1.964v13.982zM99.042 18.705V4.723h1.963v13.982z" opacity=".5" fill="#1d76ce"/><path d="M102.671 32.686H88.69V18.705h13.981z" fill="#488e8d"/><path d="M116.652 32.686h-13.981V18.705h13.981z" fill="#509f9d"/><path d="M130.634 32.686h-13.982V18.705h13.982z" fill="#488e8d"/><path d="M144.615 32.686h-13.981V18.705h13.981z" fill="#509f9d"/><path d="M102.671 46.667H88.69V32.686h13.981z" fill="#488e8d"/><path d="M116.652 46.667h-13.981V32.686h13.981z" fill="#509f9d"/><path d="M130.634 46.667h-13.982V32.686h13.982z" fill="#488e8d"/><path d="M144.615 46.667h-13.981V32.686h13.981z" fill="#509f9d"/><path d="M90.355 32.686V18.705h1.964v13.981zM93.25 32.686V18.705h1.964v13.981zM96.146 32.686V18.705h1.964v13.981zM99.042 32.686V18.705h1.963v13.981zM90.355 46.667V32.686h1.964v13.981zM93.25 46.667V32.686h1.964v13.981zM96.146 46.667V32.686h1.964v13.981zM99.042 46.667V32.686h1.963v13.981zM118.061 32.686V18.705h1.964v13.981zM120.957 32.686V18.705h1.963v13.981zM123.852 32.686V18.705h1.964v13.981zM126.748 32.686V18.705h1.963v13.981zM118.061 46.667V32.686h1.964v13.981zM120.957 46.667V32.686h1.963v13.981zM123.852 46.667V32.686h1.964v13.981zM126.748 46.667V32.686h1.963v13.981z" opacity=".5" fill="#2f5e5d"/><path opacity=".5" fill="#407e7d" d="M60.727 32.157h83.896v.529H60.727z"/><text style="line-height:1.25;-inkscape-font-specification:'sans-serif Bold'" x="77.3" y="30.03" font-size="11.891" font-weight="700" font-family="sans-serif" letter-spacing="0" word-spacing="0" fill="#fff" stroke-width=".14"><tspan x="77.3" y="30.03" style="-inkscape-font-specification:'sans-serif Bold'">1</tspan></text><text style="line-height:1.25;-inkscape-font-specification:'sans-serif Bold'" x="105.263" y="30.03" font-size="11.891" font-weight="700" font-family="sans-serif" letter-spacing="0" word-spacing="0" fill="#fff" stroke-width=".14"><tspan x="105.263" y="30.03" style="-inkscape-font-specification:'sans-serif Bold'">0</tspan></text><text style="line-height:1.25;-inkscape-font-specification:'sans-serif Bold'" x="105.263" y="44.011" font-size="11.891" font-weight="700" font-family="sans-serif" letter-spacing="0" word-spacing="0" fill="#fff" stroke-width=".14"><tspan x="105.263" y="44.011" style="-inkscape-font-specification:'sans-serif Bold'">1</tspan></text><text style="line-height:1.25;-inkscape-font-specification:'sans-serif Bold'" x="77.562" y="44.005" font-size="11.891" font-weight="700" font-family="sans-serif" letter-spacing="0" word-spacing="0" fill="#fff" stroke-width=".14"><tspan x="77.562" y="44.005" style="-inkscape-font-specification:'sans-serif Bold'">1</tspan></text><text style="line-height:1.25;-inkscape-font-specification:'sans-serif Bold'" x="133.226" y="44.011" font-size="11.891" font-weight="700" font-family="sans-serif" letter-spacing="0" word-spacing="0" fill="#fff" stroke-width=".14"><tspan x="133.226" y="44.011" style="-inkscape-font-specification:'sans-serif Bold'">0</tspan></text><text style="line-height:1.25;-inkscape-font-specification:'sans-serif Bold'" x="133.488" y="30.024" font-size="11.891" font-weight="700" font-family="sans-serif" letter-spacing="0" word-spacing="0" fill="#fff" stroke-width=".14"><tspan x="133.488" y="30.024" style="-inkscape-font-specification:'sans-serif Bold'">0</tspan></text><path fill="none" stroke="#ffd54c" stroke-width="1.387" stroke-linecap="round" d="M102.716 4.723h13.936v41.944h-13.936zM102.716 59.598h13.936V87.31h-13.936z"/><g transform="translate(-2.63 -1.058)"><path d="M91.323 53.56H77.34v-4.227h13.982z" fill="#509f9d"/><rect ry="0" y="49.333" x="63.36" height="4.226" width="13.981" fill="#2f5e5d"/><path d="M105.304 53.56H91.323v-4.227h13.981z" fill="#488e8d"/><path d="M119.285 53.56h-13.981v-4.227h13.981z" fill="#509f9d"/><path d="M133.267 53.56h-13.982v-4.227h13.982z" fill="#488e8d"/><path d="M147.248 53.56h-13.981v-4.227h13.981z" fill="#509f9d"/><path d="M92.988 53.56v-4.227h1.964v4.226zM95.884 53.56v-4.227h1.963v4.226zM98.78 53.56v-4.227h1.963v4.226zM101.675 53.56v-4.227h1.963v4.226zM120.694 53.56v-4.227h1.964v4.226zM123.59 53.56v-4.227h1.963v4.226zM126.485 53.56v-4.227h1.964v4.226zM129.38 53.56v-4.227h1.964v4.226z" opacity=".5" fill="#2f5e5d"/></g><g transform="translate(-2.63 4.333)"><path d="M91.323 53.56H77.34v-4.227h13.982z" fill="#509f9d"/><rect ry="0" y="49.333" x="63.36" height="4.226" width="13.981" fill="#2f5e5d"/><path d="M105.304 53.56H91.323v-4.227h13.981z" fill="#488e8d"/><path d="M119.285 53.56h-13.981v-4.227h13.981z" fill="#509f9d"/><path d="M133.267 53.56h-13.982v-4.227h13.982z" fill="#488e8d"/><path d="M147.248 53.56h-13.981v-4.227h13.981z" fill="#509f9d"/><path d="M92.988 53.56v-4.227h1.964v4.226zM95.884 53.56v-4.227h1.963v4.226zM98.78 53.56v-4.227h1.963v4.226zM101.675 53.56v-4.227h1.963v4.226zM120.694 53.56v-4.227h1.964v4.226zM123.59 53.56v-4.227h1.963v4.226zM126.485 53.56v-4.227h1.964v4.226zM129.38 53.56v-4.227h1.964v4.226z" opacity=".5" fill="#2f5e5d"/></g><path fill="none" stroke="#ffd54c" stroke-width="1.387" stroke-linecap="round" d="M102.675 48.275h13.936v9.571h-13.936z"/><rect width="5.556" height="1.478" x="-58.953" y="23.005" ry="0" transform="scale(-1 1)" fill="#363636"/><path fill="#363636" d="M55.101 23.005h-1.704v59.088h1.704z"/><rect width="5.556" height="1.478" x="-58.953" y="82.092" ry="0" transform="scale(-1 1)" fill="#363636"/><rect width="5.556" height="1.478" x="-53.694" y="51.809" ry="0" transform="scale(-1 1)" fill="#363636"/><text style="line-height:1.25;-inkscape-font-specification:'sans-serif Bold'" x="38.362" y="55.308" transform="scale(.9616 1.03992)" font-weight="700" font-size="13.377" font-family="sans-serif" letter-spacing="0" word-spacing="0" stroke-width=".265"><tspan x="38.362" y="55.308" style="-inkscape-font-specification:'sans-serif Bold'">T</tspan></text></g></svg>