<svg xmlns="http://www.w3.org/2000/svg" width="406.9" height="317.4" viewBox="0 0 107.7 84"><g transform="translate(-37 -4)"><g transform="translate(1 3.2)"><path d="M87.7 84.3h-14v-14h14zm0-14h-14v-14h14z" fill="#509f9d"/><rect ry="0" y="56.3" x="59.7" height="14" width="14" fill="#2f5e5d"/><text style="line-height:1.25;-inkscape-font-specification:'Ubuntu Condensed, Bold'" x="60.5" y="67" font-weight="700" font-size="11.9" letter-spacing="0" word-spacing="0" font-family="Ubuntu Condensed" fill="#fff" stroke-width=".3"><tspan x="60.5" y="67" style="-inkscape-font-specification:'sans-serif Bold'" font-family="sans-serif">D</tspan></text><text y="68.9" x="69.6" style="line-height:1.25;-inkscape-font-specification:'sans-serif Bold'" font-weight="700" font-size="4.8" letter-spacing="0" word-spacing="0" font-family="sans-serif" fill="#bcd0d7" stroke-width=".1"><tspan style="-inkscape-font-specification:'sans-serif Bold'" y="68.9" x="69.6">a</tspan></text><g transform="translate(-1 37.6)"><rect width="14" height="14" x="60.7" y="32.7" ry="0" fill="#2f5e5d"/><text word-spacing="0" letter-spacing="0" font-size="11.9" font-weight="700" y="43.4" x="61.5" style="line-height:1.25;-inkscape-font-specification:'Ubuntu Condensed, Bold'" font-family="Ubuntu Condensed" fill="#fff" stroke-width=".3"><tspan style="-inkscape-font-specification:'sans-serif Bold'" y="43.4" x="61.5" font-family="sans-serif">D</tspan></text><text word-spacing="0" letter-spacing="0" font-size="4.8" font-weight="700" style="line-height:1.25;-inkscape-font-specification:'sans-serif Bold'" x="70.6" y="45.3" font-family="sans-serif" fill="#fccedf" stroke-width=".1"><tspan x="70.6" y="45.3" style="-inkscape-font-specification:'sans-serif Bold'">b</tspan></text></g><path d="M101.7 70.3h-14v-14h14z" fill="#488e8d"/><path d="M115.7 70.3h-14v-14h14z" fill="#509f9d"/><path d="M129.6 70.3h-14v-14h14z" fill="#488e8d"/><path d="M143.6 70.3h-14v-14h14z" fill="#509f9d"/><path d="M101.7 84.3h-14v-14h14z" fill="#488e8d"/><path d="M115.7 84.3h-14v-14h14z" fill="#509f9d"/><path d="M129.6 84.3h-14v-14h14z" fill="#488e8d"/><path d="M143.6 84.3h-14v-14h14z" fill="#509f9d"/><path d="M89.4 70.3v-14h2v14zm2.9 0v-14h2v14zm2.9 0v-14h2v14zm2.9 0v-14h2v14zm-8.7 14v-14h2v14zm2.9 0v-14h2v14zm2.9 0v-14h2v14zm2.9 0v-14h2v14zm19-14v-14h2v14zm2.9 0v-14h2v14zm2.9 0v-14h2v14zm2.9 0v-14h2v14zm-8.7 14v-14h2v14zm2.9 0v-14h2v14zm2.9 0v-14h2v14zm2.9 0v-14h2v14z" opacity=".5" fill="#2f5e5d"/><path opacity=".5" fill="#407e7d" d="M59.7 69.8h84v.5h-84z"/><text font-size="11.9" y="67.6" x="76.3" style="line-height:1.25;-inkscape-font-specification:'sans-serif Bold'" font-weight="700" font-family="sans-serif" letter-spacing="0" word-spacing="0" fill="#fff" stroke-width=".1"><tspan style="-inkscape-font-specification:'sans-serif Bold'" y="67.6" x="76.3">0</tspan></text><text font-size="11.9" y="67.6" x="104.3" style="line-height:1.25;-inkscape-font-specification:'sans-serif Bold'" font-weight="700" font-family="sans-serif" letter-spacing="0" word-spacing="0" fill="#fff" stroke-width=".1"><tspan style="-inkscape-font-specification:'sans-serif Bold'" y="67.6" x="104.3">0</tspan></text><text font-size="11.9" y="81.6" x="104.3" style="line-height:1.25;-inkscape-font-specification:'sans-serif Bold'" font-weight="700" font-family="sans-serif" letter-spacing="0" word-spacing="0" fill="#fff" stroke-width=".1"><tspan style="-inkscape-font-specification:'sans-serif Bold'" y="81.6" x="104.3">1</tspan></text><text font-size="11.9" y="81.6" x="76.6" style="line-height:1.25;-inkscape-font-specification:'sans-serif Bold'" font-weight="700" font-family="sans-serif" letter-spacing="0" word-spacing="0" fill="#fff" stroke-width=".1"><tspan style="-inkscape-font-specification:'sans-serif Bold'" y="81.6" x="76.6">0</tspan></text><text font-size="11.9" y="81.6" x="132.2" style="line-height:1.25;-inkscape-font-specification:'sans-serif Bold'" font-weight="700" font-family="sans-serif" letter-spacing="0" word-spacing="0" fill="#fff" stroke-width=".1"><tspan style="-inkscape-font-specification:'sans-serif Bold'" y="81.6" x="132.2">0</tspan></text><text font-size="11.9" y="67.6" x="132.5" style="line-height:1.25;-inkscape-font-specification:'sans-serif Bold'" font-weight="700" font-family="sans-serif" letter-spacing="0" word-spacing="0" fill="#fff" stroke-width=".1"><tspan style="-inkscape-font-specification:'sans-serif Bold'" y="67.6" x="132.5">0</tspan></text></g><path d="M88.7 46.7h-14v-14h14zm0-14h-14v-14h14z" fill="#509f9d"/><rect width="14" height="14" x="60.7" y="18.7" ry="0" fill="#2f5e5d"/><text word-spacing="0" letter-spacing="0" font-size="11.9" font-weight="700" y="29.4" x="61.5" style="line-height:1.25;-inkscape-font-specification:'Ubuntu Condensed, Bold'" font-family="Ubuntu Condensed" fill="#fff" stroke-width=".3"><tspan style="-inkscape-font-specification:'sans-serif Bold'" y="29.4" x="61.5" font-family="sans-serif">D</tspan></text><text word-spacing="0" letter-spacing="0" font-size="4.8" font-weight="700" style="line-height:1.25;-inkscape-font-specification:'sans-serif Bold'" x="70.6" y="31.3" font-family="sans-serif" fill="#eaf5ff" fill-opacity=".8" stroke-width=".1"><tspan x="70.6" y="31.3" style="-inkscape-font-specification:'sans-serif Bold'">a</tspan></text><rect ry="0" y="32.7" x="60.7" height="14" width="14" fill="#2f5e5d"/><text style="line-height:1.25;-inkscape-font-specification:'Ubuntu Condensed, Bold'" x="61.5" y="43.4" font-weight="700" font-size="11.9" letter-spacing="0" word-spacing="0" font-family="Ubuntu Condensed" fill="#fff" stroke-width=".3"><tspan x="61.5" y="43.4" style="-inkscape-font-specification:'sans-serif Bold'" font-family="sans-serif">D</tspan></text><text y="45.3" x="70.6" style="line-height:1.25;-inkscape-font-specification:'sans-serif Bold'" font-weight="700" font-size="4.8" letter-spacing="0" word-spacing="0" font-family="sans-serif" fill="#fccedf" stroke-width=".1"><tspan style="-inkscape-font-specification:'sans-serif Bold'" y="45.3" x="70.6">b</tspan></text><path d="M102.7 18.7h-14v-14h14z" opacity=".5" fill="#2d82bb"/><path d="M88.7 18.7h-14v-14h14z" fill="#1d76ce"/><g font-weight="700" letter-spacing="0" word-spacing="0" font-family="sans-serif" fill="#fff" stroke-width=".2"><text y="275" x="9.1" style="line-height:1.25;-inkscape-font-specification:'sans-serif Bold'" font-size="7" transform="translate(65.7 -365.8) scale(1.3805)"><tspan style="-inkscape-font-specification:'sans-serif Bold'" y="275" x="9.1">v</tspan></text><text style="line-height:1.25;-inkscape-font-specification:'sans-serif Bold'" x="13.4" y="276.7" font-size="3.4" stroke-width=".1" transform="translate(65.7 -365.8) scale(1.3805)"><tspan x="13.4" y="276.7" style="-inkscape-font-specification:'sans-serif Bold'">1</tspan></text></g><path d="M116.7 18.7h-14v-14h14z" fill="#1d76ce"/><text y="14.3" x="106.6" style="line-height:1.25;-inkscape-font-specification:'sans-serif Bold'" font-size="9.7" font-weight="700" font-family="sans-serif" letter-spacing="0" word-spacing="0" fill="#fff" stroke-width=".3"><tspan style="-inkscape-font-specification:'sans-serif Bold'" y="14.3" x="106.6">v</tspan></text><text style="line-height:1.25;-inkscape-font-specification:'sans-serif Bold'" x="112.1" y="16.8" font-size="3.7" font-weight="700" font-family="sans-serif" letter-spacing="0" word-spacing="0" fill="#fff" stroke-width=".1"><tspan x="112.1" y="16.8" style="-inkscape-font-specification:'sans-serif Bold'">r</tspan></text><path d="M130.7 18.7H115v-14h15.7z" font-weight="700" font-family="sans-serif" letter-spacing="0" word-spacing="0" opacity=".5" fill="#2d82bb"/><path d="M144.6 18.7h-14v-14h14z" font-weight="700" font-family="sans-serif" letter-spacing="0" word-spacing="0" fill="#1d76ce"/><text y="14.3" x="134.6" style="line-height:1.25;-inkscape-font-specification:'sans-serif Bold'" font-size="9.7" font-weight="700" font-family="sans-serif" letter-spacing="0" word-spacing="0" fill="#fff" stroke-width=".3"><tspan style="-inkscape-font-specification:'sans-serif Bold'" y="14.3" x="134.6">v</tspan></text><text style="line-height:1.25;-inkscape-font-specification:'sans-serif Bold'" x="140.1" y="16.8" font-size="3.7" font-weight="700" font-family="sans-serif" letter-spacing="0" word-spacing="0" fill="#fff" stroke-width=".1"><tspan x="140.1" y="16.8" style="-inkscape-font-specification:'sans-serif Bold'">p</tspan></text><path d="M118 18.7v-14h2v14zm3 0v-14h2v14zm2.9 0v-14h2v14zm2.8 0v-14h2v14z" opacity=".5" font-weight="700" font-family="sans-serif" letter-spacing="0" word-spacing="0" fill="#1d76ce"/><path d="M90.4 18.7v-14h2v14zm2.8 0v-14h2v14zm3 0v-14h2v14zm2.8 0v-14h2v14z" opacity=".5" fill="#1d76ce"/><path d="M102.7 32.7h-14v-14h14z" fill="#488e8d"/><path d="M116.7 32.7h-14v-14h14z" fill="#509f9d"/><path d="M130.6 32.7h-14v-14h14z" fill="#488e8d"/><path d="M144.6 32.7h-14v-14h14z" fill="#509f9d"/><path d="M102.7 46.7h-14v-14h14z" fill="#488e8d"/><path d="M116.7 46.7h-14v-14h14z" fill="#509f9d"/><path d="M130.6 46.7h-14v-14h14z" fill="#488e8d"/><path d="M144.6 46.7h-14v-14h14z" fill="#509f9d"/><path d="M90.4 32.7v-14h2v14zm2.8 0v-14h2v14zm3 0v-14h2v14zm2.8 0v-14h2v14zm-8.6 14v-14h2v14zm2.8 0v-14h2v14zm3 0v-14h2v14zm2.8 0v-14h2v14zm19-14v-14h2v14zm3 0v-14h2v14zm2.9 0v-14h2v14zm2.8 0v-14h2v14zm-8.6 14v-14h2v14zm2.9 0v-14h2v14zm2.9 0v-14h2v14zm2.8 0v-14h2v14z" opacity=".5" fill="#2f5e5d"/><path opacity=".5" fill="#407e7d" d="M60.7 32.2h84v.5h-84z"/><text style="line-height:1.25;-inkscape-font-specification:'sans-serif Bold'" x="77.3" y="30" font-size="11.9" font-weight="700" font-family="sans-serif" letter-spacing="0" word-spacing="0" fill="#fff" stroke-width=".1"><tspan x="77.3" y="30" style="-inkscape-font-specification:'sans-serif Bold'">1</tspan></text><text style="line-height:1.25;-inkscape-font-specification:'sans-serif Bold'" x="105.3" y="30" font-size="11.9" font-weight="700" font-family="sans-serif" letter-spacing="0" word-spacing="0" fill="#fff" stroke-width=".1"><tspan x="105.3" y="30" style="-inkscape-font-specification:'sans-serif Bold'">0</tspan></text><text style="line-height:1.25;-inkscape-font-specification:'sans-serif Bold'" x="105.3" y="44" font-size="11.9" font-weight="700" font-family="sans-serif" letter-spacing="0" word-spacing="0" fill="#fff" stroke-width=".1"><tspan x="105.3" y="44" style="-inkscape-font-specification:'sans-serif Bold'">1</tspan></text><text style="line-height:1.25;-inkscape-font-specification:'sans-serif Bold'" x="77.6" y="44" font-size="11.9" font-weight="700" font-family="sans-serif" letter-spacing="0" word-spacing="0" fill="#fff" stroke-width=".1"><tspan x="77.6" y="44" style="-inkscape-font-specification:'sans-serif Bold'">1</tspan></text><text style="line-height:1.25;-inkscape-font-specification:'sans-serif Bold'" x="133.2" y="44" font-size="11.9" font-weight="700" font-family="sans-serif" letter-spacing="0" word-spacing="0" fill="#fff" stroke-width=".1"><tspan x="133.2" y="44" style="-inkscape-font-specification:'sans-serif Bold'">0</tspan></text><text style="line-height:1.25;-inkscape-font-specification:'sans-serif Bold'" x="133.5" y="30" font-size="11.9" font-weight="700" font-family="sans-serif" letter-spacing="0" word-spacing="0" fill="#fff" stroke-width=".1"><tspan x="133.5" y="30" style="-inkscape-font-specification:'sans-serif Bold'">0</tspan></text><path fill="none" stroke="#ffd54c" stroke-width="1.4" stroke-linecap="round" d="M102.7 4.7h14v42h-14zm0 54.9h14v27.7h-14z"/><g transform="translate(-2.6 -1)"><path d="M91.3 53.6h-14v-4.3h14z" fill="#509f9d"/><rect ry="0" y="49.3" x="63.4" height="4.2" width="14" fill="#2f5e5d"/><path d="M105.3 53.6h-14v-4.3h14z" fill="#488e8d"/><path d="M119.3 53.6h-14v-4.3h14z" fill="#509f9d"/><path d="M133.3 53.6h-14v-4.3h14z" fill="#488e8d"/><path d="M147.2 53.6h-14v-4.3h14z" fill="#509f9d"/><path d="M93 53.6v-4.3h2v4.3zm2.9 0v-4.3h2v4.3zm2.9 0v-4.3h2v4.3zm2.9 0v-4.3h2v4.3zm19 0v-4.3h2v4.3zm2.9 0v-4.3h2v4.3zm2.9 0v-4.3h2v4.3zm2.9 0v-4.3h2v4.3z" opacity=".5" fill="#2f5e5d"/></g><g transform="translate(-2.6 4.3)"><path d="M91.3 53.6h-14v-4.3h14z" fill="#509f9d"/><rect ry="0" y="49.3" x="63.4" height="4.2" width="14" fill="#2f5e5d"/><path d="M105.3 53.6h-14v-4.3h14z" fill="#488e8d"/><path d="M119.3 53.6h-14v-4.3h14z" fill="#509f9d"/><path d="M133.3 53.6h-14v-4.3h14z" fill="#488e8d"/><path d="M147.2 53.6h-14v-4.3h14z" fill="#509f9d"/><path d="M93 53.6v-4.3h2v4.3zm2.9 0v-4.3h2v4.3zm2.9 0v-4.3h2v4.3zm2.9 0v-4.3h2v4.3zm19 0v-4.3h2v4.3zm2.9 0v-4.3h2v4.3zm2.9 0v-4.3h2v4.3zm2.9 0v-4.3h2v4.3z" opacity=".5" fill="#2f5e5d"/></g><path fill="none" stroke="#ffd54c" stroke-width="1.4" stroke-linecap="round" d="M102.7 48.3h14v9.5h-14z"/><rect width="5.6" height="1.5" x="-59" y="23" ry="0" transform="scale(-1 1)" fill="#363636"/><path fill="#363636" d="M55.1 23h-1.7v59h1.7z"/><rect width="5.6" height="1.5" x="-59" y="82.1" ry="0" transform="scale(-1 1)" fill="#363636"/><rect width="5.6" height="1.5" x="-53.7" y="51.8" ry="0" transform="scale(-1 1)" fill="#363636"/><text style="line-height:1.25;-inkscape-font-specification:'sans-serif Bold'" x="38.4" y="55.3" transform="scale(.9616 1.03992)" font-weight="700" font-size="13.4" font-family="sans-serif" letter-spacing="0" word-spacing="0" stroke-width=".3"><tspan x="38.4" y="55.3" style="-inkscape-font-specification:'sans-serif Bold'">T</tspan></text></g></svg>