<svg xmlns="http://www.w3.org/2000/svg" width="706.31" height="317.383" viewBox="0 0 186.878 83.974"><g transform="translate(-2.86 -57.71)"><g transform="translate(-33.103 56.855)"><path d="M87.701 84.268H73.72V70.286H87.7zM87.701 70.286H73.72V56.305H87.7z" fill="#509f9d"/><rect ry="0" y="56.305" x="59.739" height="13.981" width="13.981" fill="#2f5e5d"/><text style="line-height:1.25;-inkscape-font-specification:'Ubuntu Condensed, Bold'" x="60.489" y="66.992" font-weight="700" font-size="11.871" letter-spacing="0" word-spacing="0" font-family="Ubuntu Condensed" fill="#fff" stroke-width=".345"><tspan x="60.489" y="66.992" style="-inkscape-font-specification:'sans-serif Bold'" font-family="sans-serif">D</tspan></text><text y="68.903" x="69.618" style="line-height:1.25;-inkscape-font-specification:'sans-serif Bold'" font-weight="700" font-size="4.826" letter-spacing="0" word-spacing="0" font-family="sans-serif" fill="#bcd0d7" stroke-width=".14"><tspan style="-inkscape-font-specification:'sans-serif Bold'" y="68.903" x="69.618">a</tspan></text><g transform="translate(-.989 37.6)"><rect width="13.981" height="13.981" x="60.727" y="32.686" ry="0" fill="#2f5e5d"/><text word-spacing="0" letter-spacing="0" font-size="11.871" font-weight="700" y="43.372" x="61.477" style="line-height:1.25;-inkscape-font-specification:'Ubuntu Condensed, Bold'" font-family="Ubuntu Condensed" fill="#fff" stroke-width=".345"><tspan style="-inkscape-font-specification:'sans-serif Bold'" y="43.372" x="61.477" font-family="sans-serif">D</tspan></text><text word-spacing="0" letter-spacing="0" font-size="4.826" font-weight="700" style="line-height:1.25;-inkscape-font-specification:'sans-serif Bold'" x="70.607" y="45.283" font-family="sans-serif" fill="#fccedf" stroke-width=".14"><tspan x="70.607" y="45.283" style="-inkscape-font-specification:'sans-serif Bold'">b</tspan></text></g><path d="M101.682 70.286H87.701V56.305h13.981z" fill="#488e8d"/><path d="M115.664 70.286h-13.982V56.305h13.982z" fill="#509f9d"/><path d="M129.645 70.286h-13.981V56.305h13.981z" fill="#488e8d"/><path d="M143.627 70.286h-13.982V56.305h13.982z" fill="#509f9d"/><path d="M101.682 84.268H87.701V70.286h13.981z" fill="#488e8d"/><path d="M115.664 84.268h-13.982V70.286h13.982z" fill="#509f9d"/><path d="M129.645 84.268h-13.981V70.286h13.981z" fill="#488e8d"/><path d="M143.627 84.268h-13.982V70.286h13.982z" fill="#509f9d"/><path d="M89.367 70.286V56.305h1.963v13.981zM92.262 70.286V56.305h1.964v13.981zM95.158 70.286V56.305h1.963v13.981zM98.053 70.286V56.305h1.964v13.981zM89.367 84.268V70.286h1.963v13.982zM92.262 84.268V70.286h1.964v13.982zM95.158 84.268V70.286h1.963v13.982zM98.053 84.268V70.286h1.964v13.982zM117.073 70.286V56.305h1.963v13.981zM119.968 70.286V56.305h1.964v13.981zM122.864 70.286V56.305h1.963v13.981zM125.76 70.286V56.305h1.963v13.981zM117.073 84.268V70.286h1.963v13.982zM119.968 84.268V70.286h1.964v13.982zM122.864 84.268V70.286h1.963v13.982zM125.76 84.268V70.286h1.963v13.982z" opacity=".5" fill="#2f5e5d"/><path opacity=".5" fill="#407e7d" d="M59.739 69.757h83.896v.529H59.739z"/><text font-size="11.891" y="67.63" x="76.312" style="line-height:1.25;-inkscape-font-specification:'sans-serif Bold'" font-weight="700" font-family="sans-serif" letter-spacing="0" word-spacing="0" fill="#fff" stroke-width=".14"><tspan style="-inkscape-font-specification:'sans-serif Bold'" y="67.63" x="76.312">0</tspan></text><text font-size="11.891" y="67.63" x="104.275" style="line-height:1.25;-inkscape-font-specification:'sans-serif Bold'" font-weight="700" font-family="sans-serif" letter-spacing="0" word-spacing="0" fill="#fff" stroke-width=".14"><tspan style="-inkscape-font-specification:'sans-serif Bold'" y="67.63" x="104.275">0</tspan></text><text font-size="11.891" y="81.611" x="104.275" style="line-height:1.25;-inkscape-font-specification:'sans-serif Bold'" font-weight="700" font-family="sans-serif" letter-spacing="0" word-spacing="0" fill="#fff" stroke-width=".14"><tspan style="-inkscape-font-specification:'sans-serif Bold'" y="81.611" x="104.275">1</tspan></text><text font-size="11.891" y="81.606" x="76.573" style="line-height:1.25;-inkscape-font-specification:'sans-serif Bold'" font-weight="700" font-family="sans-serif" letter-spacing="0" word-spacing="0" fill="#fff" stroke-width=".14"><tspan style="-inkscape-font-specification:'sans-serif Bold'" y="81.606" x="76.573">0</tspan></text><text font-size="11.891" y="81.611" x="132.238" style="line-height:1.25;-inkscape-font-specification:'sans-serif Bold'" font-weight="700" font-family="sans-serif" letter-spacing="0" word-spacing="0" fill="#fff" stroke-width=".14"><tspan style="-inkscape-font-specification:'sans-serif Bold'" y="81.611" x="132.238">0</tspan></text><text font-size="11.891" y="67.624" x="132.499" style="line-height:1.25;-inkscape-font-specification:'sans-serif Bold'" font-weight="700" font-family="sans-serif" letter-spacing="0" word-spacing="0" fill="#fff" stroke-width=".14"><tspan style="-inkscape-font-specification:'sans-serif Bold'" y="67.624" x="132.499">0</tspan></text></g><path d="M54.598 100.347H40.617V86.366h13.981zM54.598 86.366H40.617V72.384h13.981z" fill="#509f9d"/><rect width="13.981" height="13.981" x="26.636" y="72.385" ry="0" fill="#2f5e5d"/><text word-spacing="0" letter-spacing="0" font-size="11.871" font-weight="700" y="83.071" x="27.386" style="line-height:1.25;-inkscape-font-specification:'Ubuntu Condensed, Bold'" font-family="Ubuntu Condensed" fill="#fff" stroke-width=".345"><tspan style="-inkscape-font-specification:'sans-serif Bold'" y="83.071" x="27.386" font-family="sans-serif">D</tspan></text><text word-spacing="0" letter-spacing="0" font-size="4.826" font-weight="700" style="line-height:1.25;-inkscape-font-specification:'sans-serif Bold'" x="36.515" y="84.983" font-family="sans-serif" fill="#eaf5ff" fill-opacity=".753" stroke-width=".14"><tspan x="36.515" y="84.983" style="-inkscape-font-specification:'sans-serif Bold'">a</tspan></text><g transform="translate(-34.091 53.68)"><rect ry="0" y="32.686" x="60.727" height="13.981" width="13.981" fill="#2f5e5d"/><text style="line-height:1.25;-inkscape-font-specification:'Ubuntu Condensed, Bold'" x="61.477" y="43.372" font-weight="700" font-size="11.871" letter-spacing="0" word-spacing="0" font-family="Ubuntu Condensed" fill="#fff" stroke-width=".345"><tspan x="61.477" y="43.372" style="-inkscape-font-specification:'sans-serif Bold'" font-family="sans-serif">D</tspan></text><text y="45.283" x="70.607" style="line-height:1.25;-inkscape-font-specification:'sans-serif Bold'" font-weight="700" font-size="4.826" letter-spacing="0" word-spacing="0" font-family="sans-serif" fill="#fccedf" stroke-width=".14"><tspan style="-inkscape-font-specification:'sans-serif Bold'" y="45.283" x="70.607">b</tspan></text></g><path d="M68.625 72.384H54.598V58.403h14.027z" opacity=".5" fill="#2d82bb"/><path d="M54.598 72.384H40.617V58.403h13.981z" fill="#1d76ce"/><g font-weight="700" letter-spacing="0" word-spacing="0" font-family="sans-serif" fill="#fff" stroke-width=".241"><text y="275.026" x="9.079" style="line-height:1.25;-inkscape-font-specification:'sans-serif Bold'" font-size="7.013" stroke-width=".212" transform="translate(31.624 -312.08) scale(1.3805)"><tspan style="-inkscape-font-specification:'sans-serif Bold'" y="275.026" x="9.079">v</tspan></text><text style="line-height:1.25;-inkscape-font-specification:'sans-serif Bold'" x="13.398" y="276.695" font-size="3.356" stroke-width=".101" transform="translate(31.624 -312.08) scale(1.3805)"><tspan x="13.398" y="276.695" style="-inkscape-font-specification:'sans-serif Bold'">1</tspan></text></g><path d="M82.561 72.384H68.58V58.403H82.56z" fill="#1d76ce"/><text y="67.988" x="72.537" style="line-height:1.25;-inkscape-font-specification:'sans-serif Bold'" font-size="9.682" font-weight="700" font-family="sans-serif" letter-spacing="0" word-spacing="0" fill="#fff" stroke-width=".293"><tspan style="-inkscape-font-specification:'sans-serif Bold'" y="67.988" x="72.537">v</tspan></text><text style="line-height:1.25;-inkscape-font-specification:'sans-serif Bold'" x="78.001" y="70.439" font-size="3.719" font-weight="700" font-family="sans-serif" letter-spacing="0" word-spacing="0" fill="#fff" stroke-width=".14"><tspan x="78.001" y="70.439" style="-inkscape-font-specification:'sans-serif Bold'">r</tspan></text><path d="M96.603 72.384H80.929V58.403h15.674z" font-weight="700" font-family="sans-serif" letter-spacing="0" word-spacing="0" opacity=".5" fill="#2d82bb"/><path d="M110.524 72.384H96.543V58.403h13.981z" font-weight="700" font-family="sans-serif" letter-spacing="0" word-spacing="0" fill="#1d76ce"/><text y="67.988" x="100.5" style="line-height:1.25;-inkscape-font-specification:'sans-serif Bold'" font-size="9.682" font-weight="700" font-family="sans-serif" letter-spacing="0" word-spacing="0" fill="#fff" stroke-width=".293"><tspan style="-inkscape-font-specification:'sans-serif Bold'" y="67.988" x="100.5">v</tspan></text><text style="line-height:1.25;-inkscape-font-specification:'sans-serif Bold'" x="105.964" y="70.439" font-size="3.719" font-weight="700" font-family="sans-serif" letter-spacing="0" word-spacing="0" fill="#fff" stroke-width=".14"><tspan x="105.964" y="70.439" style="-inkscape-font-specification:'sans-serif Bold'">p</tspan></text><g font-weight="700" font-family="sans-serif" letter-spacing="0" word-spacing="0" fill="#1d76ce"><path d="M83.97 72.384V58.403h1.963v13.981zM86.865 72.384V58.403h1.964v13.981zM89.761 72.384V58.403h1.964v13.981zM92.657 72.384V58.403h1.963v13.981z" opacity=".5"/></g><path d="M56.264 72.384V58.403h1.963v13.981zM59.16 72.384V58.403h1.963v13.981zM62.055 72.384V58.403h1.964v13.981zM64.95 72.384V58.403h1.964v13.981z" opacity=".5" fill="#1d76ce"/><path d="M68.58 86.366H54.598V72.384H68.58z" fill="#488e8d"/><path d="M82.561 86.366H68.58V72.384H82.56z" fill="#509f9d"/><path d="M96.543 86.366H82.56V72.384h13.982z" fill="#488e8d"/><path d="M110.524 86.366H96.543V72.384h13.981z" fill="#509f9d"/><path d="M68.58 100.347H54.598V86.366H68.58z" fill="#488e8d"/><path d="M82.561 100.347H68.58V86.366H82.56z" fill="#509f9d"/><path d="M96.543 100.347H82.56V86.366h13.982z" fill="#488e8d"/><path d="M110.524 100.347H96.543V86.366h13.981z" fill="#509f9d"/><path d="M56.264 86.366V72.384h1.963v13.982zM59.16 86.366V72.384h1.963v13.982zM62.055 86.366V72.384h1.964v13.982zM64.95 86.366V72.384h1.964v13.982zM56.264 100.347V86.366h1.963v13.981zM59.16 100.347V86.366h1.963v13.981zM62.055 100.347V86.366h1.964v13.981zM64.95 100.347V86.366h1.964v13.981zM83.97 86.366V72.384h1.963v13.982zM86.865 86.366V72.384h1.964v13.982zM89.761 86.366V72.384h1.964v13.982zM92.657 86.366V72.384h1.963v13.982zM83.97 100.347V86.366h1.963v13.981zM86.865 100.347V86.366h1.964v13.981zM89.761 100.347V86.366h1.964v13.981zM92.657 100.347V86.366h1.963v13.981z" opacity=".5" fill="#2f5e5d"/><path opacity=".5" fill="#407e7d" d="M26.636 85.837h83.896v.529H26.636z"/><text style="line-height:1.25;-inkscape-font-specification:'sans-serif Bold'" x="43.209" y="83.71" font-size="11.891" font-weight="700" font-family="sans-serif" letter-spacing="0" word-spacing="0" fill="#fff" stroke-width=".14"><tspan x="43.209" y="83.71" style="-inkscape-font-specification:'sans-serif Bold'">1</tspan></text><text style="line-height:1.25;-inkscape-font-specification:'sans-serif Bold'" x="71.172" y="83.71" font-size="11.891" font-weight="700" font-family="sans-serif" letter-spacing="0" word-spacing="0" fill="#fff" stroke-width=".14"><tspan x="71.172" y="83.71" style="-inkscape-font-specification:'sans-serif Bold'">0</tspan></text><text style="line-height:1.25;-inkscape-font-specification:'sans-serif Bold'" x="71.172" y="97.691" font-size="11.891" font-weight="700" font-family="sans-serif" letter-spacing="0" word-spacing="0" fill="#fff" stroke-width=".14"><tspan x="71.172" y="97.691" style="-inkscape-font-specification:'sans-serif Bold'">1</tspan></text><text style="line-height:1.25;-inkscape-font-specification:'sans-serif Bold'" x="43.471" y="97.685" font-size="11.891" font-weight="700" font-family="sans-serif" letter-spacing="0" word-spacing="0" fill="#fff" stroke-width=".14"><tspan x="43.471" y="97.685" style="-inkscape-font-specification:'sans-serif Bold'">1</tspan></text><text style="line-height:1.25;-inkscape-font-specification:'sans-serif Bold'" x="99.135" y="97.691" font-size="11.891" font-weight="700" font-family="sans-serif" letter-spacing="0" word-spacing="0" fill="#fff" stroke-width=".14"><tspan x="99.135" y="97.691" style="-inkscape-font-specification:'sans-serif Bold'">0</tspan></text><text style="line-height:1.25;-inkscape-font-specification:'sans-serif Bold'" x="99.396" y="83.704" font-size="11.891" font-weight="700" font-family="sans-serif" letter-spacing="0" word-spacing="0" fill="#fff" stroke-width=".14"><tspan x="99.396" y="83.704" style="-inkscape-font-specification:'sans-serif Bold'">0</tspan></text><path fill="none" stroke="#ffd54c" stroke-width="1.387" stroke-linecap="round" d="M68.625 58.403h13.936v41.944H68.625zM68.625 113.278h13.936v27.712H68.625z"/><g transform="translate(-36.72 52.622)"><path d="M91.323 53.56H77.34v-4.227h13.982z" fill="#509f9d"/><rect ry="0" y="49.333" x="63.36" height="4.226" width="13.981" fill="#2f5e5d"/><path d="M105.304 53.56H91.323v-4.227h13.981z" fill="#488e8d"/><path d="M119.285 53.56h-13.981v-4.227h13.981z" fill="#509f9d"/><path d="M133.267 53.56h-13.982v-4.227h13.982z" fill="#488e8d"/><path d="M147.248 53.56h-13.981v-4.227h13.981z" fill="#509f9d"/><path d="M92.988 53.56v-4.227h1.964v4.226zM95.884 53.56v-4.227h1.963v4.226zM98.78 53.56v-4.227h1.963v4.226zM101.675 53.56v-4.227h1.963v4.226zM120.694 53.56v-4.227h1.964v4.226zM123.59 53.56v-4.227h1.963v4.226zM126.485 53.56v-4.227h1.964v4.226zM129.38 53.56v-4.227h1.964v4.226z" opacity=".5" fill="#2f5e5d"/></g><g transform="translate(-36.72 58.013)"><path d="M91.323 53.56H77.34v-4.227h13.982z" fill="#509f9d"/><rect ry="0" y="49.333" x="63.36" height="4.226" width="13.981" fill="#2f5e5d"/><path d="M105.304 53.56H91.323v-4.227h13.981z" fill="#488e8d"/><path d="M119.285 53.56h-13.981v-4.227h13.981z" fill="#509f9d"/><path d="M133.267 53.56h-13.982v-4.227h13.982z" fill="#488e8d"/><path d="M147.248 53.56h-13.981v-4.227h13.981z" fill="#509f9d"/><path d="M92.988 53.56v-4.227h1.964v4.226zM95.884 53.56v-4.227h1.963v4.226zM98.78 53.56v-4.227h1.963v4.226zM101.675 53.56v-4.227h1.963v4.226zM120.694 53.56v-4.227h1.964v4.226zM123.59 53.56v-4.227h1.963v4.226zM126.485 53.56v-4.227h1.964v4.226zM129.38 53.56v-4.227h1.964v4.226z" opacity=".5" fill="#2f5e5d"/></g><path fill="none" stroke="#ffd54c" stroke-width="1.387" stroke-linecap="round" d="M68.584 101.955H82.52v9.571H68.584z"/><rect width="5.556" height="1.478" x="-24.862" y="76.684" ry="0" transform="scale(-1 1)" fill="#363636"/><path fill="#363636" d="M21.009 76.684h-1.704v59.088h1.704z"/><rect width="5.556" height="1.478" x="-24.862" y="135.772" ry="0" transform="scale(-1 1)" fill="#363636"/><rect width="5.556" height="1.478" x="-19.603" y="105.489" ry="0" transform="scale(-1 1)" fill="#363636"/><text style="line-height:1.25;-inkscape-font-specification:'sans-serif Bold'" x="2.91" y="106.927" transform="scale(.9616 1.03992)" font-weight="700" font-size="13.377" font-family="sans-serif" letter-spacing="0" word-spacing="0" stroke-width=".265"><tspan x="2.91" y="106.927" style="-inkscape-font-specification:'sans-serif Bold'">T</tspan></text><rect width="5.556" height="1.478" x="114.336" y="74.622" ry="0" fill="#363636"/><path fill="#363636" d="M118.188 76.1h1.704v19.681h-1.704z"/><rect width="5.556" height="1.478" x="114.336" y="95.782" ry="0" fill="#363636"/><rect width="5.556" height="1.478" x="118.835" y="85.202" ry="0" fill="#363636"/><text style="line-height:1.25;-inkscape-font-specification:'sans-serif Bold'" x="126.419" y="88.722" font-size="11.891" font-weight="700" font-family="sans-serif" letter-spacing="0" word-spacing="0" fill="#e5650e" stroke-width=".14"><tspan x="126.419" y="88.722" style="-inkscape-font-specification:'sans-serif Bold'" font-weight="400">1</tspan></text><rect width="5.556" height="1.478" x="114.336" y="115.686" ry="0" fill="#363636"/><path fill="#363636" d="M118.188 117.165h1.704v19.681h-1.704z"/><rect width="5.556" height="1.478" x="114.336" y="136.846" ry="0" fill="#363636"/><rect width="5.556" height="1.478" x="118.835" y="126.266" ry="0" fill="#363636"/><text style="line-height:1.25;-inkscape-font-specification:'sans-serif Bold'" x="126.419" y="129.786" font-size="11.891" font-weight="700" font-family="sans-serif" letter-spacing="0" word-spacing="0" fill="#e5650e" stroke-width=".14"><tspan x="126.419" y="129.786" style="-inkscape-font-specification:'sans-serif Bold'" font-weight="400">1</tspan></text><rect width="5.556" height="1.478" x="138.94" y="80.552" ry="0" fill="#363636"/><path fill="#363636" d="M142.792 82.03h1.704v47.321h-1.704z"/><rect width="5.556" height="1.478" x="138.94" y="129.351" ry="0" fill="#363636"/><rect width="5.556" height="1.478" x="143.439" y="104.951" ry="0" fill="#363636"/><text word-spacing="0" letter-spacing="0" font-size="8.467" font-weight="700" y="83.351" x="151.067" style="line-height:1.25;-inkscape-font-specification:'Ubuntu Condensed, Bold'" font-family="Ubuntu Condensed" fill="#e5650e" stroke-width=".308"><tspan style="-inkscape-font-specification:'sans-serif Bold'" y="83.351" x="151.067" font-family="sans-serif" stroke-width="1.164">avg loss</tspan></text><g fill="#363636"><path d="M161.641 92.334v-1.635h16.762v1.635z"/><path d="M169.186 91.319v-4.814h1.673v4.814zM161.641 95.513v-4.814h1.673v4.814zM176.73 95.513v-4.814h1.673v4.814z"/></g><text style="line-height:1.25;-inkscape-font-specification:'Ubuntu Condensed, Bold'" x="166.897" y="80.005" font-weight="700" font-size="10.583" font-family="Ubuntu Condensed" letter-spacing="0" word-spacing="0" stroke-width=".265"><tspan x="166.897" y="80.005"></tspan></text><text word-spacing="0" letter-spacing="0" font-size="12.995" font-weight="700" y="126.468" x="165.552" style="line-height:1.25;-inkscape-font-specification:'Ubuntu Condensed, Bold'" font-family="Ubuntu Condensed" stroke-width=".308"><tspan style="-inkscape-font-specification:'sans-serif Bold'" y="126.468" x="165.552" font-family="sans-serif" stroke-width="1.164">2</tspan></text><path d="M158.763 111.985h24.543v1.874h-24.543z"/><text word-spacing="0" letter-spacing="0" font-size="12.995" font-weight="700" y="108.924" x="166.228" style="line-height:1.25;-inkscape-font-specification:'Ubuntu Condensed, Bold'" font-family="Ubuntu Condensed" stroke-width=".308"><tspan style="-inkscape-font-specification:'sans-serif Bold'" y="108.924" x="166.228" font-family="sans-serif" stroke-width="1.164">1</tspan></text><g transform="matrix(.66327 0 0 .66327 11.023 31.978)" stroke-width="1.508"><circle cx="179.623" cy="106.459" r="2.315"/><circle cx="179.623" cy="113.205" r="2.315"/><circle cx="179.623" cy="119.243" r="2.315"/></g><text word-spacing="0" letter-spacing="0" font-size="6.524" font-weight="700" y="64.897" x="122.349" style="line-height:1.25;-inkscape-font-specification:'Ubuntu Condensed, Bold'" font-family="Ubuntu Condensed" fill="#e5650e" stroke-width=".308"><tspan style="-inkscape-font-specification:'sans-serif Bold'" y="64.897" x="122.349" font-family="sans-serif" stroke-width="1.164">loss</tspan></text><g fill="#363636" stroke-width="1.298"><path d="M123.507 71.818v-1.26h12.914v1.26z"/><path d="M129.32 71.036v-3.71h1.288v3.71zM123.507 74.267v-3.709h1.289v3.71zM135.132 74.267v-3.709h1.29v3.71z"/></g><text style="line-height:1.25;-inkscape-font-specification:'Ubuntu Condensed, Bold'" x="130.832" y="62.319" font-weight="700" font-size="8.154" font-family="Ubuntu Condensed" letter-spacing="0" word-spacing="0" stroke-width=".265"><tspan x="130.832" y="62.319"></tspan></text></g></svg>