<svg xmlns="http://www.w3.org/2000/svg" width="706.3" height="317.4" viewBox="0 0 186.9 84"><g transform="translate(-2.9 -57.7)"><g transform="translate(-33.1 56.9)"><path d="M87.7 84.3h-14v-14h14zm0-14h-14v-14h14z" fill="#509f9d"/><rect ry="0" y="56.3" x="59.7" height="14" width="14" fill="#2f5e5d"/><text style="line-height:1.25;-inkscape-font-specification:'Ubuntu Condensed, Bold'" x="60.5" y="67" font-weight="700" font-size="11.9" letter-spacing="0" word-spacing="0" font-family="Ubuntu Condensed" fill="#fff" stroke-width=".3"><tspan x="60.5" y="67" style="-inkscape-font-specification:'sans-serif Bold'" font-family="sans-serif">D</tspan></text><text y="68.9" x="69.6" style="line-height:1.25;-inkscape-font-specification:'sans-serif Bold'" font-weight="700" font-size="4.8" letter-spacing="0" word-spacing="0" font-family="sans-serif" fill="#bcd0d7" stroke-width=".1"><tspan style="-inkscape-font-specification:'sans-serif Bold'" y="68.9" x="69.6">a</tspan></text><g transform="translate(-1 37.6)"><rect width="14" height="14" x="60.7" y="32.7" ry="0" fill="#2f5e5d"/><text word-spacing="0" letter-spacing="0" font-size="11.9" font-weight="700" y="43.4" x="61.5" style="line-height:1.25;-inkscape-font-specification:'Ubuntu Condensed, Bold'" font-family="Ubuntu Condensed" fill="#fff" stroke-width=".3"><tspan style="-inkscape-font-specification:'sans-serif Bold'" y="43.4" x="61.5" font-family="sans-serif">D</tspan></text><text word-spacing="0" letter-spacing="0" font-size="4.8" font-weight="700" style="line-height:1.25;-inkscape-font-specification:'sans-serif Bold'" x="70.6" y="45.3" font-family="sans-serif" fill="#fccedf" stroke-width=".1"><tspan x="70.6" y="45.3" style="-inkscape-font-specification:'sans-serif Bold'">b</tspan></text></g><path d="M101.7 70.3h-14v-14h14z" fill="#488e8d"/><path d="M115.7 70.3h-14v-14h14z" fill="#509f9d"/><path d="M129.6 70.3h-14v-14h14z" fill="#488e8d"/><path d="M143.6 70.3h-14v-14h14z" fill="#509f9d"/><path d="M101.7 84.3h-14v-14h14z" fill="#488e8d"/><path d="M115.7 84.3h-14v-14h14z" fill="#509f9d"/><path d="M129.6 84.3h-14v-14h14z" fill="#488e8d"/><path d="M143.6 84.3h-14v-14h14z" fill="#509f9d"/><path d="M89.4 70.3v-14h2v14zm2.9 0v-14h2v14zm2.9 0v-14h2v14zm2.9 0v-14h2v14zm-8.7 14v-14h2v14zm2.9 0v-14h2v14zm2.9 0v-14h2v14zm2.9 0v-14h2v14zm19-14v-14h2v14zm2.9 0v-14h2v14zm2.9 0v-14h2v14zm2.9 0v-14h2v14zm-8.7 14v-14h2v14zm2.9 0v-14h2v14zm2.9 0v-14h2v14zm2.9 0v-14h2v14z" opacity=".5" fill="#2f5e5d"/><path opacity=".5" fill="#407e7d" d="M59.7 69.8h84v.5h-84z"/><text font-size="11.9" y="67.6" x="76.3" style="line-height:1.25;-inkscape-font-specification:'sans-serif Bold'" font-weight="700" font-family="sans-serif" letter-spacing="0" word-spacing="0" fill="#fff" stroke-width=".1"><tspan style="-inkscape-font-specification:'sans-serif Bold'" y="67.6" x="76.3">0</tspan></text><text font-size="11.9" y="67.6" x="104.3" style="line-height:1.25;-inkscape-font-specification:'sans-serif Bold'" font-weight="700" font-family="sans-serif" letter-spacing="0" word-spacing="0" fill="#fff" stroke-width=".1"><tspan style="-inkscape-font-specification:'sans-serif Bold'" y="67.6" x="104.3">0</tspan></text><text font-size="11.9" y="81.6" x="104.3" style="line-height:1.25;-inkscape-font-specification:'sans-serif Bold'" font-weight="700" font-family="sans-serif" letter-spacing="0" word-spacing="0" fill="#fff" stroke-width=".1"><tspan style="-inkscape-font-specification:'sans-serif Bold'" y="81.6" x="104.3">1</tspan></text><text font-size="11.9" y="81.6" x="76.6" style="line-height:1.25;-inkscape-font-specification:'sans-serif Bold'" font-weight="700" font-family="sans-serif" letter-spacing="0" word-spacing="0" fill="#fff" stroke-width=".1"><tspan style="-inkscape-font-specification:'sans-serif Bold'" y="81.6" x="76.6">0</tspan></text><text font-size="11.9" y="81.6" x="132.2" style="line-height:1.25;-inkscape-font-specification:'sans-serif Bold'" font-weight="700" font-family="sans-serif" letter-spacing="0" word-spacing="0" fill="#fff" stroke-width=".1"><tspan style="-inkscape-font-specification:'sans-serif Bold'" y="81.6" x="132.2">0</tspan></text><text font-size="11.9" y="67.6" x="132.5" style="line-height:1.25;-inkscape-font-specification:'sans-serif Bold'" font-weight="700" font-family="sans-serif" letter-spacing="0" word-spacing="0" fill="#fff" stroke-width=".1"><tspan style="-inkscape-font-specification:'sans-serif Bold'" y="67.6" x="132.5">0</tspan></text></g><path d="M54.6 100.3h-14v-14h14zm0-14h-14v-14h14z" fill="#509f9d"/><rect width="14" height="14" x="26.6" y="72.4" ry="0" fill="#2f5e5d"/><text word-spacing="0" letter-spacing="0" font-size="11.9" font-weight="700" y="83.1" x="27.4" style="line-height:1.25;-inkscape-font-specification:'Ubuntu Condensed, Bold'" font-family="Ubuntu Condensed" fill="#fff" stroke-width=".3"><tspan style="-inkscape-font-specification:'sans-serif Bold'" y="83.1" x="27.4" font-family="sans-serif">D</tspan></text><text word-spacing="0" letter-spacing="0" font-size="4.8" font-weight="700" style="line-height:1.25;-inkscape-font-specification:'sans-serif Bold'" x="36.5" y="85" font-family="sans-serif" fill="#eaf5ff" fill-opacity=".8" stroke-width=".1"><tspan x="36.5" y="85" style="-inkscape-font-specification:'sans-serif Bold'">a</tspan></text><g transform="translate(-34 53.7)"><rect ry="0" y="32.7" x="60.7" height="14" width="14" fill="#2f5e5d"/><text style="line-height:1.25;-inkscape-font-specification:'Ubuntu Condensed, Bold'" x="61.5" y="43.4" font-weight="700" font-size="11.9" letter-spacing="0" word-spacing="0" font-family="Ubuntu Condensed" fill="#fff" stroke-width=".3"><tspan x="61.5" y="43.4" style="-inkscape-font-specification:'sans-serif Bold'" font-family="sans-serif">D</tspan></text><text y="45.3" x="70.6" style="line-height:1.25;-inkscape-font-specification:'sans-serif Bold'" font-weight="700" font-size="4.8" letter-spacing="0" word-spacing="0" font-family="sans-serif" fill="#fccedf" stroke-width=".1"><tspan style="-inkscape-font-specification:'sans-serif Bold'" y="45.3" x="70.6">b</tspan></text></g><path d="M68.6 72.4h-14v-14h14z" opacity=".5" fill="#2d82bb"/><path d="M54.6 72.4h-14v-14h14z" fill="#1d76ce"/><g font-weight="700" letter-spacing="0" word-spacing="0" font-family="sans-serif" fill="#fff" stroke-width=".2"><text y="275" x="9.1" style="line-height:1.25;-inkscape-font-specification:'sans-serif Bold'" font-size="7" transform="translate(31.6 -312) scale(1.3805)"><tspan style="-inkscape-font-specification:'sans-serif Bold'" y="275" x="9.1">v</tspan></text><text style="line-height:1.25;-inkscape-font-specification:'sans-serif Bold'" x="13.4" y="276.7" font-size="3.4" stroke-width=".1" transform="translate(31.6 -312) scale(1.3805)"><tspan x="13.4" y="276.7" style="-inkscape-font-specification:'sans-serif Bold'">1</tspan></text></g><path d="M82.6 72.4h-14v-14h14z" fill="#1d76ce"/><text y="68" x="72.5" style="line-height:1.25;-inkscape-font-specification:'sans-serif Bold'" font-size="9.7" font-weight="700" font-family="sans-serif" letter-spacing="0" word-spacing="0" fill="#fff" stroke-width=".3"><tspan style="-inkscape-font-specification:'sans-serif Bold'" y="68" x="72.5">v</tspan></text><text style="line-height:1.25;-inkscape-font-specification:'sans-serif Bold'" x="78" y="70.4" font-size="3.7" font-weight="700" font-family="sans-serif" letter-spacing="0" word-spacing="0" fill="#fff" stroke-width=".1"><tspan x="78" y="70.4" style="-inkscape-font-specification:'sans-serif Bold'">r</tspan></text><path d="M96.6 72.4H80.9v-14h15.7z" font-weight="700" font-family="sans-serif" letter-spacing="0" word-spacing="0" opacity=".5" fill="#2d82bb"/><path d="M110.5 72.4h-14v-14h14z" font-weight="700" font-family="sans-serif" letter-spacing="0" word-spacing="0" fill="#1d76ce"/><text y="68" x="100.5" style="line-height:1.25;-inkscape-font-specification:'sans-serif Bold'" font-size="9.7" font-weight="700" font-family="sans-serif" letter-spacing="0" word-spacing="0" fill="#fff" stroke-width=".3"><tspan style="-inkscape-font-specification:'sans-serif Bold'" y="68" x="100.5">v</tspan></text><text style="line-height:1.25;-inkscape-font-specification:'sans-serif Bold'" x="106" y="70.4" font-size="3.7" font-weight="700" font-family="sans-serif" letter-spacing="0" word-spacing="0" fill="#fff" stroke-width=".1"><tspan x="106" y="70.4" style="-inkscape-font-specification:'sans-serif Bold'">p</tspan></text><path d="M84 72.4v-14h2v14zm2.9 0v-14h2v14zm2.9 0v-14h2v14zm2.9 0v-14h2v14z" opacity=".5" font-weight="700" font-family="sans-serif" letter-spacing="0" word-spacing="0" fill="#1d76ce"/><path d="M56.3 72.4v-14h2v14zm2.9 0v-14h2v14zm2.9 0v-14h2v14zm2.9 0v-14h2v14z" opacity=".5" fill="#1d76ce"/><path d="M68.6 86.4h-14v-14h14z" fill="#488e8d"/><path d="M82.6 86.4h-14v-14h14z" fill="#509f9d"/><path d="M96.5 86.4h-14v-14h14z" fill="#488e8d"/><path d="M110.5 86.4h-14v-14h14z" fill="#509f9d"/><path d="M68.6 100.3h-14v-14h14z" fill="#488e8d"/><path d="M82.6 100.3h-14v-14h14z" fill="#509f9d"/><path d="M96.5 100.3h-14v-14h14z" fill="#488e8d"/><path d="M110.5 100.3h-14v-14h14z" fill="#509f9d"/><path d="M56.3 86.4v-14h2v14zm2.9 0v-14h2v14zm2.9 0v-14h2v14zm2.9 0v-14h2v14zm-8.7 14v-14h2v14zm2.9 0v-14h2v14zm2.9 0v-14h2v14zm2.9 0v-14h2v14zm19-14v-14h2v14zm2.9 0v-14h2v14zm2.9 0v-14h2v14zm2.9 0v-14h2v14zm-8.7 14v-14h2v14zm2.9 0v-14h2v14zm2.9 0v-14h2v14zm2.9 0v-14h2v14z" opacity=".5" fill="#2f5e5d"/><path opacity=".5" fill="#407e7d" d="M26.6 85.8h84v.6h-84z"/><text style="line-height:1.25;-inkscape-font-specification:'sans-serif Bold'" x="43.2" y="83.7" font-size="11.9" font-weight="700" font-family="sans-serif" letter-spacing="0" word-spacing="0" fill="#fff" stroke-width=".1"><tspan x="43.2" y="83.7" style="-inkscape-font-specification:'sans-serif Bold'">1</tspan></text><text style="line-height:1.25;-inkscape-font-specification:'sans-serif Bold'" x="71.2" y="83.7" font-size="11.9" font-weight="700" font-family="sans-serif" letter-spacing="0" word-spacing="0" fill="#fff" stroke-width=".1"><tspan x="71.2" y="83.7" style="-inkscape-font-specification:'sans-serif Bold'">0</tspan></text><text style="line-height:1.25;-inkscape-font-specification:'sans-serif Bold'" x="71.2" y="97.7" font-size="11.9" font-weight="700" font-family="sans-serif" letter-spacing="0" word-spacing="0" fill="#fff" stroke-width=".1"><tspan x="71.2" y="97.7" style="-inkscape-font-specification:'sans-serif Bold'">1</tspan></text><text style="line-height:1.25;-inkscape-font-specification:'sans-serif Bold'" x="43.5" y="97.7" font-size="11.9" font-weight="700" font-family="sans-serif" letter-spacing="0" word-spacing="0" fill="#fff" stroke-width=".1"><tspan x="43.5" y="97.7" style="-inkscape-font-specification:'sans-serif Bold'">1</tspan></text><text style="line-height:1.25;-inkscape-font-specification:'sans-serif Bold'" x="99.1" y="97.7" font-size="11.9" font-weight="700" font-family="sans-serif" letter-spacing="0" word-spacing="0" fill="#fff" stroke-width=".1"><tspan x="99.1" y="97.7" style="-inkscape-font-specification:'sans-serif Bold'">0</tspan></text><text style="line-height:1.25;-inkscape-font-specification:'sans-serif Bold'" x="99.4" y="83.7" font-size="11.9" font-weight="700" font-family="sans-serif" letter-spacing="0" word-spacing="0" fill="#fff" stroke-width=".1"><tspan x="99.4" y="83.7" style="-inkscape-font-specification:'sans-serif Bold'">0</tspan></text><path fill="none" stroke="#ffd54c" stroke-width="1.4" stroke-linecap="round" d="M68.6 58.4h14v42h-14zm0 54.9h14V141h-14z"/><g transform="translate(-36.7 52.6)"><path d="M91.3 53.6h-14v-4.3h14z" fill="#509f9d"/><rect ry="0" y="49.3" x="63.4" height="4.2" width="14" fill="#2f5e5d"/><path d="M105.3 53.6h-14v-4.3h14z" fill="#488e8d"/><path d="M119.3 53.6h-14v-4.3h14z" fill="#509f9d"/><path d="M133.3 53.6h-14v-4.3h14z" fill="#488e8d"/><path d="M147.2 53.6h-14v-4.3h14z" fill="#509f9d"/><path d="M93 53.6v-4.3h2v4.3zm2.9 0v-4.3h2v4.3zm2.9 0v-4.3h2v4.3zm2.9 0v-4.3h2v4.3zm19 0v-4.3h2v4.3zm2.9 0v-4.3h2v4.3zm2.9 0v-4.3h2v4.3zm2.9 0v-4.3h2v4.3z" opacity=".5" fill="#2f5e5d"/></g><g transform="translate(-36.7 58)"><path d="M91.3 53.6h-14v-4.3h14z" fill="#509f9d"/><rect ry="0" y="49.3" x="63.4" height="4.2" width="14" fill="#2f5e5d"/><path d="M105.3 53.6h-14v-4.3h14z" fill="#488e8d"/><path d="M119.3 53.6h-14v-4.3h14z" fill="#509f9d"/><path d="M133.3 53.6h-14v-4.3h14z" fill="#488e8d"/><path d="M147.2 53.6h-14v-4.3h14z" fill="#509f9d"/><path d="M93 53.6v-4.3h2v4.3zm2.9 0v-4.3h2v4.3zm2.9 0v-4.3h2v4.3zm2.9 0v-4.3h2v4.3zm19 0v-4.3h2v4.3zm2.9 0v-4.3h2v4.3zm2.9 0v-4.3h2v4.3zm2.9 0v-4.3h2v4.3z" opacity=".5" fill="#2f5e5d"/></g><path fill="none" stroke="#ffd54c" stroke-width="1.4" stroke-linecap="round" d="M68.6 102h14v9.5h-14z"/><rect width="5.6" height="1.5" x="-24.9" y="76.7" ry="0" transform="scale(-1 1)" fill="#363636"/><path fill="#363636" d="M21 76.7h-1.7v59H21z"/><rect width="5.6" height="1.5" x="-24.9" y="135.8" ry="0" transform="scale(-1 1)" fill="#363636"/><rect width="5.6" height="1.5" x="-19.6" y="105.5" ry="0" transform="scale(-1 1)" fill="#363636"/><text style="line-height:1.25;-inkscape-font-specification:'sans-serif Bold'" x="2.9" y="106.9" transform="scale(.9616 1.03992)" font-weight="700" font-size="13.4" font-family="sans-serif" letter-spacing="0" word-spacing="0" stroke-width=".3"><tspan x="2.9" y="106.9" style="-inkscape-font-specification:'sans-serif Bold'">T</tspan></text><rect width="5.6" height="1.5" x="114.3" y="74.6" ry="0" fill="#363636"/><path fill="#363636" d="M118.2 76.1h1.7v19.7h-1.7z"/><rect width="5.6" height="1.5" x="114.3" y="95.8" ry="0" fill="#363636"/><rect width="5.6" height="1.5" x="118.8" y="85.2" ry="0" fill="#363636"/><text style="line-height:1.25;-inkscape-font-specification:'sans-serif Bold'" x="126.4" y="88.7" font-size="11.9" font-weight="700" font-family="sans-serif" letter-spacing="0" word-spacing="0" fill="#e5650e" stroke-width=".1"><tspan x="126.4" y="88.7" style="-inkscape-font-specification:'sans-serif Bold'" font-weight="400">1</tspan></text><rect width="5.6" height="1.5" x="114.3" y="115.7" ry="0" fill="#363636"/><path fill="#363636" d="M118.2 117.2h1.7v19.6h-1.7z"/><rect width="5.6" height="1.5" x="114.3" y="136.8" ry="0" fill="#363636"/><rect width="5.6" height="1.5" x="118.8" y="126.3" ry="0" fill="#363636"/><text style="line-height:1.25;-inkscape-font-specification:'sans-serif Bold'" x="126.4" y="129.8" font-size="11.9" font-weight="700" font-family="sans-serif" letter-spacing="0" word-spacing="0" fill="#e5650e" stroke-width=".1"><tspan x="126.4" y="129.8" style="-inkscape-font-specification:'sans-serif Bold'" font-weight="400">1</tspan></text><rect width="5.6" height="1.5" x="138.9" y="80.6" ry="0" fill="#363636"/><path fill="#363636" d="M142.8 82h1.7v47.4h-1.7z"/><rect width="5.6" height="1.5" x="138.9" y="129.4" ry="0" fill="#363636"/><rect width="5.6" height="1.5" x="143.4" y="105" ry="0" fill="#363636"/><text word-spacing="0" letter-spacing="0" font-size="8.5" font-weight="700" y="83.4" x="151.1" style="line-height:1.25;-inkscape-font-specification:'Ubuntu Condensed, Bold'" font-family="Ubuntu Condensed" fill="#e5650e" stroke-width=".3"><tspan style="-inkscape-font-specification:'sans-serif Bold'" y="83.4" x="151.1" font-family="sans-serif" stroke-width="1.2">avg loss</tspan></text><g fill="#363636"><path d="M161.6 92.3v-1.6h16.8v1.6z"/><path d="M169.2 91.3v-4.8h1.7v4.8zm-7.6 4.2v-4.8h1.7v4.8zm15.1 0v-4.8h1.7v4.8z"/></g><text word-spacing="0" letter-spacing="0" font-size="13" font-weight="700" y="126.5" x="165.6" style="line-height:1.25;-inkscape-font-specification:'Ubuntu Condensed, Bold'" font-family="Ubuntu Condensed" stroke-width=".3"><tspan style="-inkscape-font-specification:'sans-serif Bold'" y="126.5" x="165.6" font-family="sans-serif" stroke-width="1.2">2</tspan></text><path d="M158.8 112h24.5v1.9h-24.5z"/><text word-spacing="0" letter-spacing="0" font-size="13" font-weight="700" y="108.9" x="166.2" style="line-height:1.25;-inkscape-font-specification:'Ubuntu Condensed, Bold'" font-family="Ubuntu Condensed" stroke-width=".3"><tspan style="-inkscape-font-specification:'sans-serif Bold'" y="108.9" x="166.2" font-family="sans-serif" stroke-width="1.2">1</tspan></text><g transform="translate(11 32) scale(.66327)" stroke-width="1.5"><circle cx="179.6" cy="106.5" r="2.3"/><circle cx="179.6" cy="113.2" r="2.3"/><circle cx="179.6" cy="119.2" r="2.3"/></g><text word-spacing="0" letter-spacing="0" font-size="6.5" font-weight="700" y="64.9" x="122.3" style="line-height:1.25;-inkscape-font-specification:'Ubuntu Condensed, Bold'" font-family="Ubuntu Condensed" fill="#e5650e" stroke-width=".3"><tspan style="-inkscape-font-specification:'sans-serif Bold'" y="64.9" x="122.3" font-family="sans-serif" stroke-width="1.2">loss</tspan></text><g fill="#363636" stroke-width="1.3"><path d="M123.5 71.8v-1.2h13v1.2z"/><path d="M129.3 71v-3.7h1.3V71zm-5.8 3.3v-3.7h1.3v3.7zm11.6 0v-3.7h1.3v3.7z"/></g></g></svg>