<svg xmlns="http://www.w3.org/2000/svg" xmlns:xlink="http://www.w3.org/1999/xlink" width="890.726" height="533.333" viewBox="0 0 235.671 141.111"><defs><linearGradient gradientTransform="matrix(0 -1 -1 0 -1.756 153.421)" xlink:href="#a" id="b" x1="-2086.758" y1="369.716" x2="-2085.423" y2="-302.094" gradientUnits="userSpaceOnUse"/><linearGradient id="a"><stop offset="0" stop-color="#6dc3d6"/><stop offset="1" stop-color="#206271"/></linearGradient><linearGradient gradientTransform="matrix(-1 0 0 .83478 -2479.24 1869.139)" xlink:href="#a" id="c" x1="-2086.758" y1="369.716" x2="-2085.423" y2="-302.094" gradientUnits="userSpaceOnUse"/></defs><path style="isolation:auto;mix-blend-mode:normal;solid-color:#000;solid-opacity:1" d="M4.185 0h227.301a4.176 4.176 0 014.185 4.185v132.741a4.176 4.176 0 01-4.185 4.185H4.185A4.176 4.176 0 010 136.926V4.185A4.176 4.176 0 014.185 0z" color="#000" overflow="visible" fill="#4fb7ce"/><g transform="translate(57.784 -170.775) scale(.12194)"><rect rx="27.507" style="isolation:auto;mix-blend-mode:normal;solid-color:#000;solid-opacity:1" width="687.88" height="564.017" x="-99.362" y="1626.993" ry="27.507" color="#000" overflow="visible" fill="#3f5256"/><g color="#000"><path d="M466.137 1712.745l-35.915 8.718 8.724 9.147L41.66 2080.183a5.516 5.516 0 00-.498 7.803 5.518 5.518 0 007.804.5l397.62-349.866 9.144 9.586z" style="isolation:auto;mix-blend-mode:normal;solid-color:#000;solid-opacity:1" overflow="visible" fill="#e9c1bc"/><path d="M475.06 1778.196l5.406 12.295L2.585 2018.17a5.518 5.518 0 00-2.613 7.37 5.515 5.515 0 007.369 2.613L484.92 1800.62l5.014 11.407 21.864-29.797z" style="isolation:auto;mix-blend-mode:normal;solid-color:#000;solid-opacity:1" overflow="visible" fill="#d99076"/><path d="M-21.04 1930.183a5.517 5.517 0 00-4.975 6.033 5.515 5.515 0 006.03 4.975l522.09-50.07 1.24 12.825 30.08-21.47-33.634-15.316 1.252 12.95z" style="isolation:auto;mix-blend-mode:normal;solid-color:#000;solid-opacity:1" overflow="visible" fill="#ba3434"/></g><g transform="translate(-196.855 558.998) scale(1.0948)" color="#000"><rect rx="8.019" ry="8.019" y="1385.713" x="744.482" height="91.419" width="91.419" style="isolation:auto;mix-blend-mode:normal;solid-color:#000;solid-opacity:1" overflow="visible" fill="#fff"/><rect rx="6.706" ry="6.706" y="1393.198" x="751.968" height="76.447" width="76.447" style="isolation:auto;mix-blend-mode:normal;solid-color:#000;solid-opacity:1" overflow="visible" fill="#bf4242"/></g><g style="line-height:.01%;-inkscape-font-specification:Symbol"><path d="M796.39 2103.507h-5.476l-1.36-7.645q-1.654-1.396-4.41-2.315-2.757-.919-6.395-.919-5.77 0-8.857 2.463-3.087 2.425-3.087 6.358 0 3.491 3.123 5.843 3.161 2.316 10.18 4.08 8.454 2.094 12.827 6.174 4.41 4.08 4.41 10.107 0 6.468-5.292 10.4-5.255 3.933-13.782 3.933-6.174 0-10.989-2.022-4.777-2.02-7.791-5.292v-9.96h5.44l1.396 7.682q2.095 1.727 4.998 2.83 2.903 1.102 6.946 1.102 5.476 0 8.637-2.315 3.197-2.316 3.197-6.285 0-3.675-2.756-6.137-2.757-2.5-9.74-4.19-8.489-2.021-13.267-5.954-4.777-3.932-4.777-9.886 0-6.285 5.329-10.438 5.329-4.19 13.855-4.19 5.623 0 10.217 1.949 4.63 1.91 7.424 4.667zm20.434-11.651v9.593h7.534v5.365h-7.534v24.146q0 2.793 1.139 3.933 1.176 1.139 3.087 1.139.956 0 2.132-.147 1.213-.184 2.021-.367l.992 4.961q-1.029.662-3.013 1.066-1.985.44-3.97.44-4.41 0-7.019-2.645-2.61-2.683-2.61-8.38v-24.146H803.3v-5.365h6.285v-9.593zm14.994 14.26v-4.667h12.46l.698 5.77q1.69-3.05 4.152-4.778 2.5-1.727 5.697-1.727.845 0 1.727.147.92.11 1.397.257l-.956 6.725-4.116-.22q-2.866 0-4.814 1.36-1.948 1.323-3.014 3.748v22.823l5.99 1.03v4.63h-19.22v-4.63l5.99-1.03v-28.409zm30.468 14.848q0-8.82 4.777-14.517 4.778-5.733 12.974-5.733 8.232 0 13.01 5.696 4.814 5.697 4.814 14.554v.808q0 8.894-4.777 14.554-4.778 5.66-12.974 5.66-8.269 0-13.047-5.66-4.777-5.696-4.777-14.554zm7.24.808q0 6.322 2.646 10.438 2.683 4.116 7.938 4.116 5.145 0 7.828-4.116 2.683-4.116 2.683-10.438v-.808q0-6.248-2.683-10.4-2.683-4.154-7.901-4.154-5.22 0-7.865 4.153-2.646 4.153-2.646 10.4zm33.848 14.811l5.99-1.029v-28.409l-5.99-1.029v-4.667h12.459l.514 5.917q1.985-3.161 4.962-4.888 3.014-1.764 6.836-1.764 6.431 0 9.96 3.785 3.528 3.749 3.528 11.614v19.441l5.99 1.03v4.63h-19.221v-4.63l5.99-1.03v-19.294q0-5.256-2.094-7.461-2.058-2.205-6.322-2.205-3.124 0-5.55 1.507-2.388 1.507-3.821 4.116v23.337l5.99 1.03v4.63h-19.221zm49.321-14.517q0-9.592 4.19-15.472 4.19-5.88 11.576-5.88 3.749 0 6.579 1.47 2.83 1.47 4.74 4.263l.662-4.998h6.101v39.25q0 7.718-4.3 12.129-4.3 4.447-12.238 4.447-2.867 0-6.211-.809-3.345-.772-5.88-2.132l1.874-5.623q2.021 1.066 4.778 1.764 2.756.699 5.365.699 4.852 0 7.093-2.72 2.28-2.72 2.28-7.754v-3.786q-1.949 2.5-4.668 3.786-2.72 1.286-6.248 1.286-7.314 0-11.503-5.292-4.19-5.293-4.19-13.856zm7.24.772q0 5.99 2.536 9.63 2.536 3.638 7.718 3.638 3.27 0 5.476-1.47 2.205-1.507 3.638-4.227v-18.302q-1.396-2.536-3.638-4.006-2.242-1.507-5.403-1.507-5.182 0-7.754 4.337-2.573 4.336-2.573 11.135zm53.363-30.467v-4.667h19.222v4.667l-5.99 1.029v18.486h25.946V2093.4l-5.99-1.029v-4.667h19.22v4.667l-5.99 1.029v42.154l5.99 1.03v4.63h-19.22v-4.63l5.99-1.03v-17.971h-25.947v17.971l5.99 1.03v4.63h-19.22v-4.63l5.99-1.03V2093.4zm84.382 48.843q-.33-1.617-.514-2.903-.184-1.287-.257-2.573-2.095 2.683-5.256 4.484-3.124 1.764-6.689 1.764-6.21 0-9.445-3.014-3.234-3.05-3.234-8.563 0-5.66 4.557-8.71 4.594-3.087 12.57-3.087h7.46v-4.631q0-3.491-2.205-5.513-2.205-2.058-6.138-2.058-2.72 0-4.814.698-2.058.699-3.345 1.912l-.771 4.19h-5.587v-7.719q2.72-2.168 6.579-3.454 3.859-1.323 8.38-1.323 6.762 0 10.951 3.454 4.19 3.455 4.19 9.887v20.654q.037.735.11 1.47l2.94.404v4.631zm-11.65-5.292q3.602 0 6.579-1.728 2.977-1.727 4.263-4.152v-6.542h-7.718q-4.447 0-7.056 2.058-2.573 2.058-2.573 4.998 0 2.61 1.617 4.006 1.617 1.36 4.888 1.36zm63.544-13.084q0 8.6-4.153 13.892-4.116 5.256-11.356 5.256-3.896 0-6.763-1.47-2.866-1.507-4.777-4.41l-.662 5.108h-6.248v-51.636l-5.99-1.03v-4.667h13.23v22.272q1.875-2.646 4.631-4.043 2.793-1.396 6.505-1.396 7.35 0 11.467 5.88 4.116 5.88 4.116 15.472zm-7.277-.772q0-6.872-2.5-11.172-2.498-4.3-7.643-4.3-3.345 0-5.66 1.617-2.279 1.617-3.639 4.337v17.567q1.36 2.756 3.676 4.373 2.352 1.618 5.696 1.618 5.109 0 7.57-3.639 2.5-3.638 2.5-9.629zm14.553 14.517l5.991-1.029v-28.409l-5.99-1.029v-4.667h13.23v34.105l5.99 1.03v4.63h-19.22zm13.231-45.315h-7.24v-7.387h7.24zm24.109.588v9.593h7.535v5.365h-7.535v24.146q0 2.793 1.14 3.933 1.176 1.139 3.087 1.139.955 0 2.132-.147 1.212-.184 2.02-.367l.993 4.961q-1.029.662-3.013 1.066-1.985.44-3.97.44-4.41 0-7.02-2.645-2.609-2.683-2.609-8.38v-24.146h-6.284v-5.365h6.284v-9.593z" style="line-height:1.25;-inkscape-font-specification:'Roboto Slab'" aria-label="Strong Habit" font-weight="400" font-family="Roboto Slab" letter-spacing="0" word-spacing="0" fill="#eff8fa" font-size="30.22"/></g><g transform="translate(-196.855 343.891) scale(1.0948)" color="#000"><rect rx="8.019" ry="8.019" y="1385.713" x="744.482" height="91.419" width="91.419" style="isolation:auto;mix-blend-mode:normal;solid-color:#000;solid-opacity:1" overflow="visible" fill="#fff"/><rect rx="6.706" ry="6.706" y="1393.198" x="751.968" height="76.447" width="76.447" style="isolation:auto;mix-blend-mode:normal;solid-color:#000;solid-opacity:1" overflow="visible" fill="#d99076"/></g><g style="line-height:.01%;-inkscape-font-specification:Symbol"><path d="M811.789 1890.9l-.184-.038-17.31 42.89h-4.815l-17.31-42.853-.183.037.735 21.647v15.509l5.99 1.029v4.63h-19.221v-4.63l5.99-1.03v-42.153l-5.99-1.03v-4.667h15.252l17.053 43.477h.22l17.016-43.477h15.29v4.668l-5.991 1.029v42.154l5.99 1.029v4.63H805.1v-4.63l5.99-1.03v-15.508zm18.376 22.601q0-8.82 4.777-14.517 4.778-5.733 12.974-5.733 8.232 0 13.01 5.697 4.814 5.696 4.814 14.553v.809q0 8.894-4.777 14.554-4.778 5.66-12.974 5.66-8.269 0-13.047-5.66-4.777-5.697-4.777-14.554zm7.24.809q0 6.321 2.646 10.437 2.683 4.117 7.938 4.117 5.145 0 7.828-4.117 2.683-4.116 2.683-10.437v-.809q0-6.247-2.683-10.4-2.683-4.153-7.901-4.153-5.22 0-7.865 4.153-2.646 4.153-2.646 10.4zm61.705 14.7q-1.947 2.72-4.777 4.117-2.793 1.396-6.505 1.396-7.277 0-11.393-5.255-4.08-5.292-4.08-13.892v-.772q0-9.592 4.08-15.473 4.116-5.88 11.467-5.88 3.528 0 6.21 1.323 2.72 1.287 4.631 3.749v-16.208l-5.99-1.029v-4.667h13.23v51.673l5.99 1.029v4.63H899.7zm-19.514-13.634q0 5.99 2.462 9.629 2.462 3.638 7.608 3.638 3.234 0 5.439-1.47t3.638-4.153v-18.45q-1.396-2.498-3.638-3.968-2.242-1.47-5.366-1.47-5.182 0-7.681 4.3-2.462 4.3-2.462 11.172zm56.009 19.147q-8.306 0-13.23-5.512-4.888-5.55-4.888-14.37v-1.617q0-8.49 5.035-14.113 5.071-5.66 11.98-5.66 8.013 0 12.129 4.851 4.153 4.852 4.153 12.937v4.52h-25.8l-.11.184q.11 5.734 2.903 9.445 2.793 3.676 7.828 3.676 3.675 0 6.432-1.03 2.793-1.065 4.814-2.903l2.83 4.704q-2.131 2.059-5.66 3.492-3.491 1.396-8.416 1.396zm-1.102-35.575q-3.639 0-6.211 3.087-2.573 3.05-3.16 7.681l.073.184h18.339v-.956q0-4.263-2.279-7.13-2.279-2.866-6.762-2.866zm23.374-.294v-4.668h12.459l.698 5.77q1.69-3.05 4.153-4.777 2.499-1.728 5.696-1.728.846 0 1.728.147.919.11 1.396.257l-.955 6.726-4.116-.22q-2.867 0-4.815 1.36-1.948 1.322-3.014 3.748v22.823l5.991 1.029v4.63h-19.221v-4.63l5.99-1.03v-28.408zm57.112 35.098q-.33-1.617-.514-2.904-.184-1.286-.258-2.572-2.095 2.682-5.255 4.483-3.124 1.764-6.69 1.764-6.21 0-9.444-3.013-3.234-3.05-3.234-8.563 0-5.66 4.557-8.71 4.594-3.088 12.569-3.088h7.46v-4.63q0-3.492-2.205-5.513-2.205-2.058-6.137-2.058-2.72 0-4.815.698-2.058.698-3.344 1.911l-.772 4.19h-5.586v-7.718q2.72-2.168 6.578-3.455 3.86-1.323 8.38-1.323 6.762 0 10.952 3.455t4.19 9.886v20.655q.036.735.11 1.47l2.94.404v4.63zm-11.65-5.293q3.601 0 6.578-1.727 2.977-1.727 4.264-4.153v-6.542h-7.718q-4.447 0-7.057 2.058-2.572 2.058-2.572 4.999 0 2.609 1.617 4.006 1.617 1.36 4.888 1.36zm39.801-44.065v9.592h7.535v5.366h-7.534v24.146q0 2.793 1.14 3.932 1.175 1.14 3.086 1.14.956 0 2.132-.147 1.213-.184 2.021-.368l.993 4.962q-1.03.661-3.014 1.065-1.985.441-3.97.441-4.41 0-7.019-2.646-2.61-2.683-2.61-8.38v-24.145h-6.284v-5.366h6.285v-9.592zm33.15 50.129q-8.305 0-13.23-5.512-4.888-5.55-4.888-14.37v-1.617q0-8.49 5.035-14.113 5.072-5.66 11.981-5.66 8.012 0 12.128 4.851 4.153 4.852 4.153 12.937v4.52h-25.8l-.11.184q.11 5.734 2.904 9.445 2.793 3.676 7.828 3.676 3.675 0 6.431-1.03 2.794-1.065 4.815-2.903l2.83 4.704q-2.132 2.059-5.66 3.492-3.491 1.396-8.416 1.396zm-1.102-35.575q-3.638 0-6.21 3.087-2.573 3.05-3.161 7.681l.073.184h18.34v-.956q0-4.263-2.28-7.13-2.278-2.866-6.762-2.866zm41.382-14.039v-4.668h19.222v4.668l-5.99 1.029v18.486h25.946v-18.486l-5.99-1.03v-4.667h19.22v4.668l-5.99 1.029v42.154l5.99 1.029v4.63h-19.22v-4.63l5.99-1.03v-17.97h-25.947v17.97l5.991 1.03v4.63h-19.221v-4.63l5.99-1.03v-42.153zm84.383 48.843q-.331-1.617-.515-2.904-.183-1.286-.257-2.572-2.095 2.682-5.255 4.483-3.124 1.764-6.69 1.764-6.21 0-9.444-3.013-3.235-3.05-3.235-8.563 0-5.66 4.558-8.71 4.594-3.088 12.569-3.088h7.46v-4.63q0-3.492-2.205-5.513-2.205-2.058-6.137-2.058-2.72 0-4.815.698-2.058.698-3.344 1.911l-.772 4.19h-5.586v-7.718q2.72-2.168 6.578-3.455 3.86-1.323 8.38-1.323 6.762 0 10.952 3.455t4.19 9.886v20.655q.036.735.11 1.47l2.94.404v4.63zm-11.65-5.293q3.601 0 6.578-1.727 2.977-1.727 4.263-4.153v-6.542h-7.718q-4.447 0-7.056 2.058-2.573 2.058-2.573 4.999 0 2.609 1.618 4.006 1.617 1.36 4.888 1.36zm63.543-13.083q0 8.6-4.153 13.892-4.116 5.255-11.356 5.255-3.896 0-6.762-1.47-2.867-1.507-4.778-4.41l-.662 5.109h-6.247v-51.637l-5.99-1.029v-4.667h13.23v22.271q1.874-2.646 4.63-4.042 2.794-1.397 6.506-1.397 7.35 0 11.466 5.88t4.116 15.473zm-7.277-.772q0-6.873-2.499-11.173t-7.644-4.3q-3.344 0-5.66 1.618-2.278 1.617-3.638 4.336v17.568q1.36 2.756 3.675 4.373 2.352 1.617 5.696 1.617 5.109 0 7.571-3.638 2.5-3.639 2.5-9.63zm14.554 14.516l5.99-1.028v-28.41l-5.99-1.028v-4.668h13.23v34.106l5.991 1.029v4.63h-19.22zm13.23-45.314h-7.24v-7.387h7.24zm24.11.588v9.592h7.534v5.366h-7.534v24.146q0 2.793 1.14 3.932 1.175 1.14 3.086 1.14.956 0 2.132-.147 1.213-.184 2.021-.368l.993 4.962q-1.03.661-3.014 1.065-1.985.441-3.97.441-4.41 0-7.019-2.646-2.61-2.683-2.61-8.38v-24.145h-6.284v-5.366h6.285v-9.592z" style="line-height:1.25;-inkscape-font-specification:'Roboto Slab'" aria-label="Moderate Habit" font-weight="400" font-family="Roboto Slab" letter-spacing="0" word-spacing="0" fill="#eff8fa" font-size="68.75"/></g><g transform="translate(-196.855 128.785) scale(1.0948)" color="#000"><rect rx="8.019" ry="8.019" y="1385.713" x="744.482" height="91.419" width="91.419" style="isolation:auto;mix-blend-mode:normal;solid-color:#000;solid-opacity:1" overflow="visible" fill="#fff"/><rect rx="6.706" ry="6.706" y="1393.198" x="751.968" height="76.447" width="76.447" style="isolation:auto;mix-blend-mode:normal;solid-color:#000;solid-opacity:1" overflow="visible" fill="#e9c1bc"/></g><g style="line-height:.01%;-inkscape-font-specification:Symbol"><path d="M776.47 1669.802l-5.439.845 6.873 29.475.992 6.689.22.037 1.434-6.726 9.85-34.988h6.394l9.886 34.988 1.47 6.873h.22l1.067-6.873 6.725-29.475-5.476-.845v-4.668h17.016v4.668l-4.3.551-11.65 48.292h-6.468l-10.585-37.12-.955-4.814h-.22l-.92 4.815-10.731 37.119h-6.432l-11.65-48.292-4.3-.551v-4.668h16.98zm72.548 49.615q-8.306 0-13.23-5.513-4.888-5.55-4.888-14.37v-1.617q0-8.49 5.035-14.113 5.071-5.66 11.98-5.66 8.013 0 12.129 4.852 4.153 4.85 4.153 12.936v4.52h-25.8l-.11.185q.11 5.733 2.903 9.445 2.793 3.675 7.828 3.675 3.675 0 6.432-1.03 2.793-1.065 4.814-2.903l2.83 4.705q-2.131 2.058-5.66 3.491-3.491 1.397-8.416 1.397zm-1.102-35.576q-3.639 0-6.211 3.087-2.573 3.05-3.161 7.681l.073.184h18.34v-.956q0-4.263-2.279-7.13-2.279-2.866-6.762-2.866zm49.32 34.804q-.33-1.617-.514-2.904-.184-1.286-.257-2.572-2.095 2.683-5.256 4.484-3.124 1.764-6.689 1.764-6.21 0-9.445-3.014-3.234-3.05-3.234-8.563 0-5.66 4.557-8.71 4.594-3.087 12.57-3.087h7.46v-4.631q0-3.492-2.205-5.513-2.205-2.058-6.138-2.058-2.72 0-4.814.698-2.058.699-3.345 1.911l-.771 4.19h-5.587v-7.718q2.72-2.168 6.579-3.454 3.859-1.324 8.38-1.324 6.762 0 10.951 3.455 4.19 3.455 4.19 9.886v20.655q.037.735.11 1.47l2.94.404v4.63zm-11.65-5.292q3.602 0 6.579-1.728 2.977-1.727 4.263-4.153v-6.541h-7.718q-4.447 0-7.056 2.058-2.573 2.058-2.573 4.998 0 2.61 1.617 4.006 1.617 1.36 4.888 1.36zm26.167-47.373v-4.668h13.231v33.224h4.63l8.49-10.511-3.638-.478v-4.668h16.649v4.668l-4.852.956-10.474 12.495 12.753 16.134 4.52.882v4.63h-16.501v-4.63l3.712-.478-10.548-13.23h-4.741v12.68l5.99 1.028v4.63h-19.22v-4.63l5.99-1.029v-45.976zm64.72 3.822v-4.668h19.221v4.668l-5.99 1.029v18.486h25.947v-18.486l-5.991-1.03v-4.667h19.221v4.668l-5.99 1.029v42.154l5.99 1.03v4.63h-19.221v-4.63l5.99-1.03v-17.971h-25.946v17.971l5.99 1.03v4.63h-19.22v-4.63l5.99-1.03v-42.154zm84.382 48.843q-.33-1.617-.514-2.904-.184-1.286-.258-2.572-2.094 2.683-5.255 4.484-3.124 1.764-6.689 1.764-6.21 0-9.445-3.014-3.234-3.05-3.234-8.563 0-5.66 4.557-8.71 4.594-3.087 12.57-3.087h7.46v-4.631q0-3.492-2.205-5.513-2.206-2.058-6.138-2.058-2.72 0-4.814.698-2.059.699-3.345 1.911l-.772 4.19h-5.586v-7.718q2.72-2.168 6.579-3.454 3.859-1.324 8.379-1.324 6.762 0 10.952 3.455t4.19 9.886v20.655q.037.735.11 1.47l2.94.404v4.63zm-11.65-5.292q3.602 0 6.578-1.728 2.977-1.727 4.264-4.153v-6.541h-7.718q-4.447 0-7.057 2.058-2.572 2.058-2.572 4.998 0 2.61 1.617 4.006 1.617 1.36 4.888 1.36zm63.544-13.084q0 8.6-4.153 13.892-4.116 5.256-11.357 5.256-3.895 0-6.762-1.47-2.867-1.507-4.778-4.41l-.661 5.108h-6.248v-51.636l-5.99-1.03v-4.667h13.23v22.272q1.874-2.646 4.63-4.043 2.794-1.397 6.506-1.397 7.35 0 11.466 5.88 4.117 5.881 4.117 15.473zm-7.277-.772q0-6.872-2.5-11.172-2.498-4.3-7.644-4.3-3.344 0-5.66 1.617-2.278 1.617-3.638 4.337v17.567q1.36 2.756 3.675 4.373 2.352 1.617 5.697 1.617 5.108 0 7.57-3.638 2.5-3.638 2.5-9.629zm14.553 14.517l5.991-1.029v-28.409l-5.99-1.029v-4.668h13.23v34.106l5.99 1.03v4.63h-19.22zm13.231-45.315h-7.24v-7.387h7.24zm24.109.588v9.592h7.534v5.366h-7.534v24.146q0 2.793 1.14 3.933 1.176 1.139 3.087 1.139.955 0 2.131-.147 1.213-.184 2.022-.368l.992 4.962q-1.03.661-3.014 1.066-1.984.44-3.969.44-4.41 0-7.02-2.645-2.609-2.683-2.609-8.38v-24.146h-6.284v-5.366h6.284v-9.592z" style="line-height:1.25;-inkscape-font-specification:'Roboto Slab'" aria-label="Weak Habit" font-weight="400" font-family="Roboto Slab" letter-spacing="0" word-spacing="0" fill="#eff8fa" font-size="68.75"/></g><g style="line-height:.01%;-inkscape-font-specification:Symbol"><path d="M-79.874 2228.09v-5.092h20.968v5.091l-6.535 1.123v45.986l6.535 1.123v5.052h-20.968v-5.052l6.535-1.123v-45.986zm26.22 48.231l6.535-1.123v-30.991l-6.535-1.123v-5.092h13.592l.561 6.455q2.165-3.448 5.413-5.332 3.287-1.925 7.457-1.925 7.016 0 10.865 4.13 3.849 4.09 3.849 12.67v21.208l6.535 1.123v5.052h-20.969v-5.052l6.536-1.123v-21.048q0-5.734-2.286-8.14-2.245-2.405-6.896-2.405-3.408 0-6.054 1.644-2.606 1.644-4.17 4.49v25.46l6.536 1.122v5.052h-20.969zm67.877-48.793v10.464h8.22v5.854h-8.22v26.34q0 3.048 1.243 4.29 1.283 1.244 3.368 1.244 1.042 0 2.325-.16 1.323-.201 2.206-.402l1.082 5.413q-1.123.722-3.288 1.163-2.165.48-4.33.48-4.81 0-7.657-2.886-2.847-2.927-2.847-9.141v-26.341H-.53v-5.854h6.856v-10.464zm36.164 54.687q-9.06 0-14.433-6.014-5.333-6.054-5.333-15.677v-1.764q0-9.261 5.493-15.395 5.533-6.175 13.07-6.175 8.74 0 13.23 5.293 4.531 5.292 4.531 14.112v4.932H38.8l-.12.2q.12 6.255 3.167 10.304 3.047 4.01 8.54 4.01 4.01 0 7.016-1.123 3.047-1.163 5.252-3.168l3.088 5.132q-2.326 2.246-6.175 3.81-3.809 1.523-9.18 1.523zm-1.203-38.81q-3.969 0-6.775 3.368-2.807 3.327-3.448 8.379l.08.2h20.006v-1.042q0-4.65-2.486-7.778-2.485-3.127-7.377-3.127zm24.336 32.916l6.536-1.123v-30.991l-6.535-1.123v-5.092h13.591l.561 6.455q2.165-3.448 5.413-5.332 3.287-1.925 7.457-1.925 7.016 0 10.865 4.13 3.85 4.09 3.85 12.67v21.208l6.534 1.123v5.052h-20.968v-5.052l6.535-1.123v-21.048q0-5.734-2.285-8.14-2.246-2.405-6.896-2.405-3.408 0-6.054 1.644-2.606 1.644-4.17 4.49v25.46l6.535 1.122v5.052H73.521zm67.878-48.793v10.464h8.219v5.854h-8.22v26.34q0 3.048 1.244 4.29 1.283 1.244 3.367 1.244 1.043 0 2.326-.16 1.323-.201 2.205-.402l1.082 5.413q-1.122.722-3.287 1.163-2.165.48-4.33.48-4.811 0-7.658-2.886-2.847-2.927-2.847-9.141v-26.341h-6.855v-5.854h6.855v-10.464zm16.358 48.793l6.535-1.123v-30.991l-6.535-1.123v-5.092h14.433v37.206l6.535 1.123v5.052h-20.968zm14.433-49.434h-7.898v-8.059h7.898zm12.549 32.395q0-9.623 5.212-15.837 5.212-6.255 14.153-6.255 8.98 0 14.193 6.215 5.252 6.214 5.252 15.877v.882q0 9.702-5.212 15.876-5.212 6.175-14.153 6.175-9.02 0-14.233-6.175-5.212-6.214-5.212-15.876zm7.898.882q0 6.896 2.887 11.386 2.927 4.49 8.66 4.49 5.613 0 8.54-4.49 2.927-4.49 2.927-11.386v-.882q0-6.816-2.927-11.347-2.927-4.53-8.62-4.53t-8.58 4.53q-2.887 4.53-2.887 11.347zm36.926 16.157l6.535-1.123v-30.991l-6.535-1.123v-5.092h13.591l.562 6.455q2.165-3.448 5.412-5.332 3.288-1.925 7.457-1.925 7.017 0 10.865 4.13 3.85 4.09 3.85 12.67v21.208l6.534 1.123v5.052h-20.968v-5.052l6.535-1.123v-21.048q0-5.734-2.285-8.14-2.245-2.405-6.896-2.405-3.408 0-6.054 1.644-2.606 1.644-4.17 4.49v25.46l6.535 1.122v5.052h-20.968z" style="line-height:1.25;-inkscape-font-specification:'Roboto Slab'" aria-label="Intention" font-weight="400" font-family="Roboto Slab" letter-spacing="0" word-spacing="0" fill="#ceebf2" font-size="63.784"/></g><path d="M256.285 2206.21l-.08 20.894a19.4 19.4 0 00-1.435-.057h-557.5c-8.424 0-15.204 5.407-15.204 12.123 0 6.715 6.78 12.12 15.204 12.12h557.5c.453 0 .9-.023 1.343-.054l-.08 20.89 57.211-32.738-56.959-33.178z" style="isolation:auto;mix-blend-mode:normal;solid-color:#000;solid-opacity:1" color="#000" overflow="visible" fill="url(#b)" transform="translate(262.848 -124.177) scale(1.0948)"/><g style="line-height:.01%;-inkscape-font-specification:Symbol"><path d="M-227.448 2161.069l-1.122-6.536h-45.987l-1.122 6.536h-5.092v-45.105h14.032v6.736l-7.818.641v23.294h20.127v-22.572h6.214v22.572h19.646l1.122-6.535h5.052v20.969zm-33.237-50.758h-5.091v-13.591l6.294-.762q-3.327-1.844-5.212-4.53-1.884-2.727-1.884-6.215 0-.922.16-1.884.12-1.003.28-1.524l7.338 1.042-.24 4.49q0 3.128 1.483 5.253 1.443 2.125 4.09 3.288h24.897l1.122-6.536h5.052v20.969h-5.052l-1.122-6.535h-30.992zm39.131-53.003q0 9.061-6.014 14.434-6.054 5.332-15.676 5.332h-1.764q-9.262 0-15.396-5.493-6.174-5.532-6.174-13.07 0-8.74 5.292-13.23 5.292-4.531 14.113-4.531h4.931v28.145l.2.12q6.255-.12 10.304-3.167 4.01-3.047 4.01-8.54 0-4.009-1.123-7.016-1.163-3.047-3.167-5.252l5.132-3.087q2.245 2.325 3.808 6.174 1.524 3.809 1.524 9.181zm-38.81 1.203q0 3.97 3.368 6.776 3.328 2.806 8.38 3.448l.2-.08v-20.007h-1.043q-4.65 0-7.778 2.486-3.127 2.486-3.127 7.377zm17.08-25.539q-10.465 0-16.88-4.45-6.414-4.49-6.414-12.51 0-3.808 1.443-6.775 1.403-2.967 4.13-5.052l-4.771-.641v-6.816h53.844l1.123-6.535h5.092v20.969h-5.092l-1.123-6.536h-14.553q2.445 2.085 3.688 4.972 1.243 2.847 1.243 6.495 0 7.938-5.733 12.429-5.774 4.45-15.155 4.45zm.842-7.898q6.575 0 10.664-2.686 4.05-2.687 4.05-8.3 0-3.287-1.444-5.573-1.443-2.325-4.09-3.889h-21.77q-2.445 1.564-3.888 3.89-1.444 2.325-1.444 5.492 0 5.653 4.811 8.38 4.771 2.686 12.269 2.686zm13.632-69.441q3.487 2.045 5.372 5.292 1.884 3.208 1.884 7.417 0 7.057-4.53 11.026-4.531 3.97-14.113 3.97h-19.365l-1.123 4.97h-5.091v-12.869h25.659q6.936 0 9.542-2.044 2.606-2.045 2.606-6.375 0-4.21-1.684-6.936-1.724-2.766-4.851-4.17h-25.058l-1.123 5.814h-5.091v-13.712h37.206l1.122-4.971h5.052v12.068zm7.256-38.649q0 9.06-6.014 14.433-6.054 5.332-15.676 5.332h-1.764q-9.262 0-15.396-5.492-6.174-5.533-6.174-13.07 0-8.74 5.292-13.231 5.292-4.53 14.113-4.53h4.931v28.144l.2.12q6.255-.12 10.304-3.167 4.01-3.047 4.01-8.54 0-4.009-1.123-7.016-1.163-3.047-3.167-5.252l5.132-3.087q2.245 2.325 3.808 6.174 1.524 3.81 1.524 9.182zm-38.81 1.202q0 3.97 3.368 6.776 3.328 2.807 8.38 3.448l.2-.08v-20.006h-1.043q-4.65 0-7.778 2.485-3.127 2.486-3.127 7.377zm32.916-24.336l-1.122-6.535h-30.992l-1.123 6.535h-5.091v-13.591l6.455-.562q-3.448-2.165-5.333-5.412-1.924-3.288-1.924-7.458 0-7.016 4.13-10.865 4.089-3.849 12.669-3.849h21.209l1.122-6.535h5.052v20.969h-5.052l-1.122-6.535h-21.049q-5.733 0-8.139 2.285-2.405 2.245-2.405 6.896 0 3.408 1.643 6.054 1.644 2.606 4.49 4.17h25.46l1.122-6.536h5.052v20.969zm-.28-73.25q0-3.929-2.406-6.896-2.446-3.006-5.974-3.006v-7.097l.24-.08q5.614-.2 9.984 5.012 4.33 5.172 4.33 12.068 0 9.461-6.174 14.473-6.175 4.972-15.516 4.972h-1.684q-9.262 0-15.436-5.012-6.214-5.012-6.214-14.433 0-5.213 1.724-9.342 1.724-4.17 4.73-6.896l9.623-.36v6.294l-6.816 1.724q-1.363 1.403-2.205 3.608-.842 2.205-.842 4.972 0 6.214 4.49 8.9 4.45 2.646 10.946 2.646h1.684q6.655 0 11.105-2.646 4.41-2.646 4.41-8.9zm-32.957-65.992l.602 3.889 44.342 16.518q4.37 1.644 7.618 4.73 3.248 3.088 3.248 8.3 0 .922-.241 2.406-.2 1.483-.4 2.285l-6.215-.802q-.04.24.08-1.403.12-1.684.12-2.125 0-2.526-2.205-4.09-2.165-1.563-5.012-2.726l-4.49-1.884-36.805 14.313-.642 3.97h-5.091v-17.521h5.091l.802 4.89 21.41-7.496 5.533-1.444v-.24l-26.943-9.021-.802 4.931h-5.091v-17.48z" style="line-height:1.25;-inkscape-font-specification:'Roboto Slab'" aria-label="Frequency" font-weight="400" font-family="Roboto Slab" letter-spacing="0" word-spacing="0" fill="#ceebf2" font-size="75"/></g><path d="M-426.45 1653.732l20.893.067c-.035.395-.057.794-.057 1.198v465.388c0 7.032 5.407 12.691 12.123 12.691 6.715 0 12.12-5.66 12.12-12.691v-465.388c0-.378-.023-.751-.054-1.121l20.89.067-32.738-47.759-33.178 47.548z" style="isolation:auto;mix-blend-mode:normal;solid-color:#000;solid-opacity:1" color="#000" overflow="visible" fill="url(#c)" transform="translate(262.848 -124.177) scale(1.0948)"/></g><g style="line-height:.01%;-inkscape-font-specification:Symbol"><path d="M6.956 19.49l.677-.093 3.188-8.237h1.058l3.132 8.237.67.094v.789h-2.618v-.79l.69-.118-.602-1.679H9.499l-.62 1.679.689.119v.789H6.956zm2.925-2.83h2.894l-1.415-3.915h-.038zm11.87-1.028h-.927l-.2-.814q-.226-.213-.57-.338-.339-.132-.77-.132-.658 0-.978.288-.32.288-.32.695 0 .401.283.633.281.232 1.146.414 1.284.275 1.91.751.627.47.627 1.266 0 .902-.733 1.459-.727.557-1.904.557-.77 0-1.385-.175-.614-.182-1.096-.52l-.006-1.547h.927l.232.908q.213.194.576.282.37.088.752.088.657 0 1.027-.263.376-.27.376-.702 0-.407-.313-.67-.307-.263-1.172-.457-1.234-.27-1.86-.733-.627-.464-.627-1.253 0-.827.702-1.41.708-.582 1.835-.582.77 0 1.385.2.613.201 1.02.558zm4.366 3.858l1.021-.175V11.48l-1.02-.175v-.796h2.254v3.896q.35-.488.858-.757.508-.27 1.128-.27 1.09 0 1.691.652.601.651.601 2.004v3.282l1.021.176v.789h-3.276v-.79l1.021-.175v-3.294q0-.84-.363-1.24-.357-.402-1.071-.402-.507 0-.927.245-.414.238-.683.651v4.04l1.021.176v.789h-3.276zm12.885.79q-.056-.276-.088-.495-.031-.22-.044-.438-.357.457-.895.764-.533.3-1.14.3-1.059 0-1.61-.513-.551-.52-.551-1.46 0-.964.776-1.484.783-.526 2.143-.526h1.271v-.79q0-.595-.376-.94-.376-.35-1.046-.35-.463 0-.82.12-.351.118-.57.325l-.132.714h-.952V14.19q.463-.37 1.121-.588.658-.226 1.428-.226 1.153 0 1.867.589t.714 1.685v3.52q.006.126.019.25l.501.07v.789zm-1.986-.902q.614 0 1.121-.294.508-.295.727-.708V17.26H37.55q-.758 0-1.203.35-.438.351-.438.852 0 .445.275.683.276.232.833.232zm10.83-2.23q0 1.466-.707 2.368-.702.895-1.936.895-.664 0-1.152-.25-.489-.257-.815-.752l-.112.87h-1.065v-8.8l-1.021-.175v-.796h2.255v3.796q.32-.45.789-.689.476-.238 1.109-.238 1.252 0 1.954 1.002.701 1.003.701 2.637zm-1.24-.132q0-1.17-.426-1.904-.426-.733-1.303-.733-.57 0-.964.276-.389.276-.62.74v2.993q.231.47.626.746.4.275.97.275.872 0 1.291-.62.426-.62.426-1.641zm2.481 2.474l1.02-.175v-4.842l-1.02-.175v-.796h2.255v5.813l1.02.176v.789h-3.275zm2.255-7.723h-1.234v-1.259h1.234zm4.108.101v1.634h1.285v.915H55.45v4.115q0 .476.194.67.2.195.526.195.163 0 .363-.025.207-.032.345-.063l.17.846q-.176.112-.515.181-.338.075-.676.075-.752 0-1.196-.45-.445-.458-.445-1.429v-4.115h-1.071v-.915h1.07v-1.634zm7.743 3.764h-.927l-.2-.814q-.226-.213-.57-.338-.339-.132-.771-.132-.658 0-.977.288-.32.288-.32.695 0 .401.282.633.282.232 1.146.414 1.285.275 1.91.751.627.47.627 1.266 0 .902-.733 1.459-.726.557-1.904.557-.77 0-1.384-.175-.614-.182-1.096-.52l-.006-1.547h.927l.231.908q.213.194.577.282.37.088.751.088.658 0 1.028-.263.375-.27.375-.702 0-.407-.313-.67-.307-.263-1.171-.457-1.234-.27-1.86-.733-.627-.464-.627-1.253 0-.827.702-1.41.707-.582 1.835-.582.77 0 1.384.2.614.201 1.021.558zm4.541 1.384q0-1.634.714-2.637.714-1.002 1.973-1.002.64 0 1.122.25.482.251.808.727l.112-.852h1.04v6.69q0 1.316-.733 2.067-.733.758-2.086.758-.488 0-1.058-.138-.57-.131-1.002-.363l.32-.958q.344.181.813.3.47.12.915.12.827 0 1.209-.464.388-.464.388-1.322v-.645q-.332.426-.795.645-.464.22-1.065.22-1.247 0-1.96-.903-.715-.902-.715-2.361zm1.234.132q0 1.021.432 1.641.433.62 1.316.62.557 0 .933-.25.376-.257.62-.72v-3.12q-.238-.432-.62-.683-.382-.257-.92-.257-.884 0-1.322.74-.439.739-.439 1.897zm9.12 3.263q-1.415 0-2.255-.94Q75 18.527 75 17.024v-.276q0-1.447.858-2.405.865-.965 2.042-.965 1.366 0 2.067.827.708.827.708 2.205v.77h-4.397l-.019.032q.02.977.495 1.61.476.626 1.334.626.627 0 1.097-.176.476-.181.82-.494l.482.801q-.363.351-.964.595-.595.238-1.435.238zm-.188-6.063q-.62 0-1.058.526-.439.52-.539 1.31l.013.03h3.125v-.162q0-.727-.388-1.215-.388-.489-1.153-.489zm6.139-2.48v1.634h1.284v.915H84.04v4.115q0 .476.194.67.2.195.526.195.163 0 .364-.025.206-.032.344-.063l.17.846q-.176.112-.514.181-.339.075-.677.075-.752 0-1.196-.45-.445-.458-.445-1.429v-4.115h-1.071v-.915h1.071v-1.634zm10.924 3.764h-.927l-.2-.814q-.226-.213-.57-.338-.339-.132-.77-.132-.659 0-.978.288-.32.288-.32.695 0 .401.282.633.282.232 1.147.414 1.284.275 1.91.751.627.47.627 1.266 0 .902-.733 1.459-.727.557-1.904.557-.77 0-1.385-.175-.614-.182-1.096-.52l-.006-1.547h.927l.232.908q.213.194.576.282.37.088.752.088.657 0 1.027-.263.376-.27.376-.702 0-.407-.314-.67-.306-.263-1.17-.457-1.235-.27-1.861-.733-.627-.464-.627-1.253 0-.827.702-1.41.708-.582 1.835-.582.77 0 1.385.2.613.201 1.02.558zm3.507-3.764v1.634h1.285v.915h-1.284v4.115q0 .476.194.67.2.195.526.195.163 0 .364-.025.206-.032.344-.063l.17.846q-.176.112-.514.181-.339.075-.677.075-.752 0-1.196-.45-.445-.458-.445-1.429v-4.115h-1.071v-.915h1.07v-1.634zm2.557 2.43v-.796h2.123l.119.984q.288-.52.708-.814.426-.295.97-.295.145 0 .295.025.157.019.238.044l-.163 1.146-.701-.037q-.489 0-.82.232-.333.225-.514.638v3.89l1.02.176v.789h-3.275v-.79l1.02-.175v-4.842zm5.193 2.531q0-1.504.814-2.475.814-.977 2.21-.977 1.404 0 2.218.971.82.971.82 2.48v.138q0 1.516-.814 2.48-.814.965-2.21.965-1.41 0-2.224-.964-.815-.971-.815-2.48zm1.233.137q0 1.078.451 1.78.458.7 1.353.7.877 0 1.334-.7.458-.702.458-1.78v-.137q0-1.065-.458-1.773-.457-.708-1.346-.708-.89 0-1.34.708-.452.708-.452 1.773zm5.769 2.524l1.021-.175v-4.842l-1.02-.175v-.796h2.123l.087 1.009q.339-.539.846-.833.514-.3 1.165-.3 1.096 0 1.698.644.601.64.601 1.98v3.313l1.021.176v.789h-3.276v-.79l1.021-.175v-3.288q0-.896-.357-1.272-.35-.376-1.077-.376-.533 0-.946.257-.407.257-.652.702v3.977l1.021.176v.789h-3.276zm8.406-2.474q0-1.634.714-2.637.715-1.002 1.974-1.002.638 0 1.12.25.483.251.809.727l.113-.852h1.04v6.69q0 1.316-.733 2.067-.733.758-2.086.758-.489 0-1.059-.138-.57-.131-1.002-.363l.32-.958q.344.181.814.3.47.12.914.12.827 0 1.209-.464.388-.464.388-1.322v-.645q-.332.426-.795.645-.464.22-1.065.22-1.246 0-1.96-.903-.715-.902-.715-2.361zm1.234.132q0 1.021.433 1.641.432.62 1.315.62.557 0 .933-.25.376-.257.62-.72v-3.12q-.238-.432-.62-.683-.382-.257-.92-.257-.884 0-1.322.74-.439.739-.439 1.897zm9.121 3.263q-1.416 0-2.255-.94-.834-.945-.834-2.448v-.276q0-1.447.859-2.405.864-.965 2.042-.965 1.365 0 2.067.827.707.827.707 2.205v.77h-4.397l-.019.032q.02.977.495 1.61.476.626 1.335.626.626 0 1.096-.176.476-.181.82-.494l.483.801q-.364.351-.965.595-.595.238-1.434.238zm-.188-6.063q-.62 0-1.059.526-.438.52-.539 1.31l.013.03h3.126v-.162q0-.727-.389-1.215-.388-.489-1.152-.489zm3.983-.05v-.796h2.124l.119.984q.288-.52.708-.814.426-.295.97-.295.145 0 .295.025.157.019.238.044l-.163 1.146-.701-.037q-.489 0-.821.232-.332.225-.514.638v3.89l1.021.176v.789h-3.276v-.79l1.021-.175v-4.842zm12.916 5.982q-.056-.276-.087-.495-.032-.22-.044-.438-.357.457-.896.764-.532.3-1.14.3-1.058 0-1.61-.513-.55-.52-.55-1.46 0-.964.776-1.484.783-.526 2.142-.526h1.272v-.79q0-.595-.376-.94-.376-.35-1.046-.35-.464 0-.82.12-.352.118-.57.325l-.132.714h-.952V14.19q.463-.37 1.12-.588.658-.226 1.429-.226 1.153 0 1.867.589t.714 1.685v3.52q.006.126.018.25l.502.07v.789zm-1.985-.902q.614 0 1.121-.294.507-.295.727-.708V17.26h-1.316q-.758 0-1.202.35-.439.351-.439.852 0 .445.276.683.275.232.833.232zm4.447.112l1.021-.175v-4.842l-1.02-.175v-.796h2.123l.087 1.009q.339-.539.846-.833.514-.3 1.165-.3 1.096 0 1.698.644.6.64.6 1.98v3.313l1.022.176v.789h-3.276v-.79l1.02-.175v-3.288q0-.896-.356-1.272-.351-.376-1.078-.376-.532 0-.945.257-.408.257-.652.702v3.977l1.021.176v.789h-3.276zm12.966-.018q-.332.463-.814.701-.476.238-1.109.238-1.24 0-1.941-.895-.696-.902-.696-2.368v-.132q0-1.634.696-2.637.701-1.002 1.954-1.002.601 0 1.058.226.464.219.79.639v-2.763l-1.021-.175v-.796h2.255v8.807l1.02.176v.789h-2.091zm-3.326-2.324q0 1.021.42 1.641.42.62 1.297.62.55 0 .927-.25.375-.25.62-.708v-3.145q-.238-.426-.62-.676-.383-.25-.915-.25-.883 0-1.31.732-.419.733-.419 1.904zm14.821-1.516h-.928l-.2-.814q-.225-.213-.57-.338-.338-.132-.77-.132-.658 0-.978.288-.32.288-.32.695 0 .401.283.633.282.232 1.146.414 1.284.275 1.91.751.627.47.627 1.266 0 .902-.733 1.459-.727.557-1.904.557-.77 0-1.384-.175-.614-.182-1.097-.52l-.006-1.547h.927l.232.908q.213.194.576.282.37.088.752.088.658 0 1.027-.263.376-.27.376-.702 0-.407-.313-.67-.307-.263-1.172-.457-1.234-.27-1.86-.733-.626-.464-.626-1.253 0-.827.701-1.41.708-.582 1.836-.582.77 0 1.384.2.614.201 1.02.558zm3.507-3.764v1.634h1.284v.915h-1.284v4.115q0 .476.194.67.2.195.527.195.162 0 .363-.025.207-.032.344-.063l.17.846q-.176.112-.514.181-.338.075-.677.075-.751 0-1.196-.45-.445-.458-.445-1.429v-4.115h-1.07v-.915h1.07v-1.634zm2.556 2.43v-.796h2.123l.12.984q.288-.52.707-.814.426-.295.971-.295.144 0 .295.025.156.019.238.044l-.163 1.146-.702-.037q-.488 0-.82.232-.332.225-.514.638v3.89l1.02.176v.789h-3.275v-.79l1.02-.175v-4.842zm5.193 2.531q0-1.504.814-2.475.814-.977 2.211-.977 1.403 0 2.218.971.82.971.82 2.48v.138q0 1.516-.814 2.48-.815.965-2.211.965-1.41 0-2.224-.964-.814-.971-.814-2.48zm1.234.137q0 1.078.45 1.78.458.7 1.354.7.877 0 1.334-.7.457-.702.457-1.78v-.137q0-1.065-.457-1.773t-1.347-.708q-.89 0-1.34.708-.451.708-.451 1.773zm5.769 2.524l1.02-.175v-4.842l-1.02-.175v-.796h2.123l.088 1.009q.338-.539.845-.833.514-.3 1.165-.3 1.097 0 1.698.644.601.64.601 1.98v3.313l1.021.176v.789h-3.276v-.79l1.021-.175v-3.288q0-.896-.357-1.272-.35-.376-1.077-.376-.533 0-.946.257-.407.257-.651.702v3.977l1.02.176v.789h-3.275zm8.406-2.474q0-1.634.714-2.637.714-1.002 1.973-1.002.639 0 1.121.25.482.251.808.727l.113-.852h1.04v6.69q0 1.316-.733 2.067-.733.758-2.086.758-.489 0-1.059-.138-.57-.131-1.002-.363l.32-.958q.344.181.814.3.47.12.914.12.827 0 1.21-.464.388-.464.388-1.322v-.645q-.332.426-.796.645-.463.22-1.065.22-1.246 0-1.96-.903-.714-.902-.714-2.361zm1.234.132q0 1.021.432 1.641.432.62 1.315.62.558 0 .934-.25.375-.257.62-.72v-3.12q-.238-.432-.62-.683-.382-.257-.921-.257-.883 0-1.322.74-.438.739-.438 1.897zm9.12 3.263q-1.416 0-2.255-.94-.833-.945-.833-2.448v-.276q0-1.447.858-2.405.864-.965 2.042-.965 1.366 0 2.067.827.708.827.708 2.205v.77h-4.397l-.02.032q.02.977.496 1.61.476.626 1.334.626.626 0 1.096-.176.476-.181.82-.494l.483.801q-.363.351-.965.595-.595.238-1.434.238zm-.188-6.063q-.62 0-1.059.526-.438.52-.538 1.31l.012.03h3.126v-.162q0-.727-.388-1.215-.389-.489-1.153-.489zm3.984-.05v-.796h2.123l.12.984q.287-.52.707-.814.426-.295.971-.295.144 0 .294.025.157.019.238.044l-.162 1.146-.702-.037q-.489 0-.82.232-.333.225-.514.638v3.89l1.02.176v.789h-3.275v-.79l1.02-.175v-4.842zm6.12 5.982h-1.234v-1.265h1.234zm3.081 0H224.4v-1.265h1.234zm3.082 0h-1.234v-1.265h1.234z" style="line-height:1.25;-inkscape-font-specification:'Roboto Slab'" aria-label="As habits get stronger and stronger..." font-weight="400" font-family="Roboto Slab" letter-spacing="0" word-spacing="0" fill="#fff" font-size="108.438"/></g><g style="line-height:.01%;-inkscape-font-specification:Symbol"><path d="M23.166 129.988l1.021-.175v-4.841l-1.02-.175V124h2.254v5.812l1.02.175v.79h-3.275zm2.255-7.722h-1.234v-1.258h1.234zm1.772 7.722l1.02-.175v-4.841l-1.02-.175V124h2.123l.088 1.009q.338-.539.845-.833.514-.301 1.165-.301 1.096 0 1.697.645.601.639.601 1.98v3.312l1.021.175v.79h-3.275v-.79l1.02-.175v-3.288q0-.895-.356-1.271-.35-.376-1.077-.376-.533 0-.946.257-.407.257-.651.701v3.977l1.02.175v.79h-3.275zm10.603-7.621V124h1.284v.915h-1.284v4.114q0 .476.194.67.2.194.526.194.163 0 .363-.025.207-.031.345-.062l.169.845q-.176.113-.514.182-.338.075-.676.075-.752 0-1.196-.451-.445-.457-.445-1.428v-4.114h-1.07V124h1.07v-1.634zm5.649 8.542q-1.416 0-2.255-.94-.833-.945-.833-2.448v-.276q0-1.446.858-2.405.864-.964 2.042-.964 1.365 0 2.066.827.708.826.708 2.204v.77h-4.396l-.019.032q.019.977.495 1.61.476.626 1.334.626.626 0 1.096-.176.476-.181.82-.495l.482.802q-.363.35-.964.595-.595.238-1.434.238zm-.188-6.062q-.62 0-1.059.526-.438.52-.538 1.309l.012.031h3.125v-.163q0-.726-.388-1.215-.388-.488-1.152-.488zm3.801 5.141l1.021-.175v-4.841l-1.02-.175V124h2.122l.088 1.009q.338-.539.845-.833.514-.301 1.165-.301 1.096 0 1.697.645.602.639.602 1.98v3.312l1.02.175v.79h-3.275v-.79l1.02-.175v-3.288q0-.895-.356-1.271-.35-.376-1.077-.376-.533 0-.946.257-.407.257-.651.701v3.977l1.02.175v.79h-3.275zm10.602-7.621V124h1.285v.915H57.66v4.114q0 .476.194.67.2.194.526.194.163 0 .363-.025.207-.031.345-.062l.169.845q-.175.113-.514.182-.338.075-.676.075-.752 0-1.196-.451-.445-.457-.445-1.428v-4.114h-1.07V124h1.07v-1.634zm2.556 7.621l1.02-.175v-4.841l-1.02-.175V124h2.255v5.812l1.02.175v.79h-3.275zm2.255-7.722h-1.234v-1.258h1.234zm1.959 5.061q0-1.503.815-2.474.814-.977 2.21-.977 1.404 0 2.218.97.82.971.82 2.48v.138q0 1.516-.814 2.48-.814.965-2.21.965-1.41 0-2.224-.964-.814-.971-.814-2.48zm1.235.137q0 1.078.45 1.78.458.7 1.353.7.877 0 1.334-.7.457-.702.457-1.78v-.137q0-1.065-.457-1.773-.457-.707-1.346-.707-.89 0-1.34.707-.451.708-.451 1.773zm5.767 2.524l1.021-.175v-4.841l-1.02-.175V124h2.123l.087 1.009q.338-.539.846-.833.513-.301 1.164-.301 1.096 0 1.698.645.6.639.6 1.98v3.312l1.022.175v.79h-3.276v-.79l1.021-.175v-3.288q0-.895-.357-1.271-.35-.376-1.077-.376-.532 0-.946.257-.407.257-.651.701v3.977l1.02.175v.79h-3.275zm13.634-3.858h-.927l-.2-.814q-.225-.213-.57-.338-.338-.131-.77-.131-.658 0-.977.288-.32.288-.32.695 0 .4.282.632.282.232 1.146.414 1.284.275 1.91.751.627.47.627 1.265 0 .902-.733 1.46-.727.557-1.904.557-.77 0-1.384-.175-.614-.182-1.096-.52l-.006-1.547h.927l.231.908q.213.194.577.282.37.088.751.088.658 0 1.027-.264.376-.269.376-.7 0-.408-.313-.671-.307-.263-1.171-.457-1.234-.27-1.86-.733-.627-.463-.627-1.252 0-.827.702-1.41.708-.582 1.835-.582.77 0 1.384.2.614.2 1.02.558zm4.29 3.858l1.021-.175v-4.841l-1.02-.175V124h2.128l.082.883q.326-.482.84-.745.513-.263 1.189-.263t1.159.313q.488.313.732.94.32-.577.846-.915.526-.338 1.227-.338 1.04 0 1.641.714.601.708.601 2.136v3.087l1.021.175v.79h-3.282v-.79l1.021-.175v-3.1q0-1.002-.344-1.415-.345-.42-1.021-.42-.645 0-1.04.457-.388.451-.45 1.14v3.338l1.02.175v.79h-3.275v-.79l1.02-.175v-3.1q0-.952-.356-1.39-.35-.445-1.021-.445-.564 0-.927.232-.363.231-.557.651v4.052l1.02.175v.79h-3.275zm16.79.789q-.056-.275-.087-.494-.032-.22-.044-.439-.357.457-.896.764-.532.301-1.14.301-1.058 0-1.609-.514-.551-.52-.551-1.459 0-.964.776-1.484.783-.526 2.142-.526h1.272v-.79q0-.594-.376-.939-.376-.35-1.046-.35-.463 0-.82.119-.351.119-.57.325l-.132.714h-.952v-1.315q.464-.37 1.121-.589.658-.225 1.428-.225 1.152 0 1.866.589.714.588.714 1.684v3.52q.007.125.02.25l.5.07v.788zm-1.985-.901q.614 0 1.121-.295.507-.294.727-.707v-1.115h-1.316q-.757 0-1.202.35-.438.351-.438.852 0 .445.275.683.276.232.833.232zm6.783-7.509V124h1.283v.915h-1.283v4.114q0 .476.194.67.2.194.526.194.163 0 .363-.025.207-.031.344-.062l.17.845q-.176.113-.514.182-.338.075-.676.075-.752 0-1.197-.451-.444-.457-.444-1.428v-4.114h-1.071V124h1.07v-1.634zm4.709 0V124h1.284v.915h-1.284v4.114q0 .476.194.67.2.194.526.194.163 0 .364-.025.206-.031.344-.062l.169.845q-.175.113-.513.182-.339.075-.677.075-.751 0-1.196-.451-.445-.457-.445-1.428v-4.114h-1.07V124h1.07v-1.634zm5.649 8.542q-1.415 0-2.255-.94-.833-.945-.833-2.448v-.276q0-1.446.858-2.405.865-.964 2.042-.964 1.365 0 2.067.827.707.826.707 2.204v.77h-4.396l-.019.032q.02.977.495 1.61.476.626 1.334.626.626 0 1.096-.176.476-.181.82-.495l.483.802q-.364.35-.965.595-.595.238-1.434.238zm-.188-6.062q-.62 0-1.058.526-.439.52-.539 1.309l.013.031h3.125v-.163q0-.726-.389-1.215-.388-.488-1.152-.488zm3.983-.05V124h2.123l.12.983q.287-.52.707-.814.426-.294.97-.294.145 0 .295.025.156.019.238.044l-.163 1.146-.701-.038q-.489 0-.82.232-.333.226-.514.639v3.889l1.02.175v.79h-3.275v-.79l1.021-.175v-4.841zm8.323-2.994v-.795h2.255v8.805l1.02.175v.79h-3.275v-.79l1.021-.175v-7.835zm7.296 9.106q-1.415 0-2.254-.94-.833-.945-.833-2.448v-.276q0-1.446.858-2.405.864-.964 2.041-.964 1.366 0 2.067.827.708.826.708 2.204v.77h-4.397l-.018.032q.018.977.494 1.61.476.626 1.334.626.626 0 1.096-.176.476-.181.82-.495l.483.802q-.363.35-.965.595-.595.238-1.434.238zm-.188-6.062q-.62 0-1.058.526-.438.52-.539 1.309l.013.031h3.125v-.163q0-.726-.388-1.215-.389-.488-1.153-.488zm9.169 1.283h-.927l-.2-.814q-.226-.213-.57-.338-.338-.131-.77-.131-.658 0-.978.288-.319.288-.319.695 0 .4.282.632.282.232 1.146.414 1.284.275 1.91.751.626.47.626 1.265 0 .902-.732 1.46-.727.557-1.904.557-.77 0-1.384-.175-.614-.182-1.096-.52l-.007-1.547h.927l.232.908q.213.194.576.282.37.088.752.088.657 0 1.027-.264.376-.269.376-.7 0-.408-.314-.671-.306-.263-1.17-.457-1.234-.27-1.86-.733-.627-.463-.627-1.252 0-.827.701-1.41.708-.582 1.835-.582.77 0 1.384.2.614.2 1.021.558zm6.538 0h-.927l-.2-.814q-.226-.213-.57-.338-.338-.131-.77-.131-.658 0-.977.288-.32.288-.32.695 0 .4.282.632.282.232 1.146.414 1.284.275 1.91.751.626.47.626 1.265 0 .902-.732 1.46-.727.557-1.904.557-.77 0-1.384-.175-.614-.182-1.096-.52l-.006-1.547h.926l.232.908q.213.194.576.282.37.088.752.088.657 0 1.027-.264.376-.269.376-.7 0-.408-.313-.671-.307-.263-1.172-.457-1.233-.27-1.86-.733-.626-.463-.626-1.252 0-.827.702-1.41.707-.582 1.835-.582.77 0 1.384.2.613.2 1.02.558zm8.955 4.647q-.056-.275-.087-.494-.031-.22-.044-.439-.357.457-.895.764-.533.301-1.14.301-1.059 0-1.61-.514-.55-.52-.55-1.459 0-.964.776-1.484.783-.526 2.142-.526h1.27v-.79q0-.594-.375-.939-.376-.35-1.046-.35-.463 0-.82.119-.35.119-.57.325l-.132.714h-.951v-1.315q.463-.37 1.12-.589.658-.225 1.428-.225 1.153 0 1.867.589.714.588.714 1.684v3.52q.006.125.018.25l.501.07v.788zm-1.985-.901q.614 0 1.121-.295.508-.294.727-.707v-1.115h-1.315q-.758 0-1.203.35-.438.351-.438.852 0 .445.275.683.276.232.833.232zm4.447.112l1.02-.175v-4.841l-1.02-.175V124h2.123l.088 1.009q.338-.539.845-.833.514-.301 1.165-.301 1.096 0 1.697.645.601.639.601 1.98v3.312l1.021.175v.79h-3.275v-.79l1.02-.175v-3.288q0-.895-.356-1.271-.351-.376-1.078-.376-.532 0-.945.257-.407.257-.652.701v3.977l1.021.175v.79h-3.275zm12.964-.018q-.332.463-.815.701-.476.238-1.108.238-1.24 0-1.941-.896-.696-.901-.696-2.367v-.131q0-1.635.696-2.637.7-1.002 1.953-1.002.602 0 1.059.225.463.22.789.64v-2.763l-1.02-.175v-.795h2.254v8.805l1.02.175v.79h-2.091zm-3.326-2.324q0 1.02.42 1.64.42.62 1.296.62.551 0 .927-.25t.62-.707v-3.144q-.238-.426-.62-.676-.382-.251-.914-.251-.883 0-1.31.733-.419.732-.419 1.904zm9.463-5.843v-.795h2.255v8.805l1.02.175v.79h-3.275v-.79l1.02-.175v-7.835zm7.296 9.106q-1.415 0-2.255-.94-.832-.945-.832-2.448v-.276q0-1.446.857-2.405.865-.964 2.042-.964 1.365 0 2.067.827.707.826.707 2.204v.77h-4.396l-.019.032q.02.977.495 1.61.476.626 1.334.626.626 0 1.096-.176.476-.181.82-.495l.483.802q-.364.35-.965.595-.595.238-1.434.238zm-.188-6.062q-.62 0-1.058.526-.439.52-.539 1.309l.013.031h3.125v-.163q0-.726-.389-1.215-.388-.488-1.152-.488zm9.169 1.283h-.927l-.2-.814q-.226-.213-.57-.338-.339-.131-.77-.131-.658 0-.978.288-.32.288-.32.695 0 .4.283.632.281.232 1.146.414 1.284.275 1.91.751.626.47.626 1.265 0 .902-.733 1.46-.726.557-1.904.557-.77 0-1.384-.175-.613-.182-1.096-.52l-.006-1.547h.927l.232.908q.213.194.576.282.37.088.751.088.658 0 1.028-.264.375-.269.375-.7 0-.408-.313-.671-.307-.263-1.171-.457-1.234-.27-1.86-.733-.626-.463-.626-1.252 0-.827.701-1.41.708-.582 1.835-.582.77 0 1.384.2.614.2 1.021.558zm6.538 0h-.927l-.2-.814q-.226-.213-.57-.338-.339-.131-.77-.131-.658 0-.978.288-.319.288-.319.695 0 .4.282.632.282.232 1.146.414 1.284.275 1.91.751.626.47.626 1.265 0 .902-.732 1.46-.727.557-1.904.557-.77 0-1.384-.175-.614-.182-1.096-.52l-.007-1.547h.927l.232.908q.213.194.576.282.37.088.752.088.657 0 1.027-.264.375-.269.375-.7 0-.408-.313-.671-.307-.263-1.17-.457-1.234-.27-1.86-.733-.627-.463-.627-1.252 0-.827.701-1.41.708-.582 1.835-.582.77 0 1.384.2.614.2 1.021.558zm2.937 4.647h-1.234v-1.265h1.234z" style="line-height:1.25;-inkscape-font-specification:'Roboto Slab'" aria-label="intentions matter less and less." font-weight="400" font-family="Roboto Slab" letter-spacing="0" word-spacing="0" fill="#fff" font-size="108.417"/></g><g style="line-height:.01%;-inkscape-font-specification:Symbol"><path d="M193.09 136.707h-.27v2.4h.27v.224h-.553v-2.848h.553zm2.202.076v.183l-.235.04v1.875h-.284l-1.008-1.62-.009.003v1.395l.235.04v.182h-.754v-.181l.235-.04v-1.654l-.235-.04v-.183h.519l1.009 1.618.008-.003v-1.392l-.235-.04v-.183h.52zm.931 2.128q-.326 0-.519-.216-.191-.217-.191-.563v-.064q0-.332.197-.553.199-.222.47-.222.314 0 .475.19.163.19.163.508v.177h-1.012l-.004.007q.004.225.114.37.11.144.307.144.144 0 .252-.04.11-.042.189-.114l.11.185q-.083.08-.221.137-.137.054-.33.054zm-.043-1.394q-.143 0-.244.12-.1.12-.124.302l.003.007h.72v-.038q0-.167-.09-.28-.09-.111-.265-.111zm1.933 1.364l-.02-.114q-.007-.05-.01-.1-.082.105-.206.175-.122.07-.262.07-.244 0-.37-.119-.127-.12-.127-.336 0-.221.178-.341.18-.121.493-.121h.293v-.182q0-.137-.087-.216-.086-.08-.24-.08-.107 0-.19.027-.08.027-.13.075l-.03.164h-.22v-.303q.107-.085.258-.135.152-.052.329-.052.265 0 .43.136.164.135.164.387v.811l.004.057.115.016v.181zm-.456-.207q.14 0 .258-.068.116-.068.167-.163v-.256h-.303q-.174 0-.276.08-.101.08-.101.196 0 .103.063.157.063.054.192.054zm1.026-1.858v-.183h.518v2.026l.235.04v.182h-.753v-.181l.235-.04v-1.803zm1.292 1.961q0 .142-.07.296-.071.154-.19.256l-.16-.106q.067-.104.102-.212.034-.108.034-.23v-.218h.284zm2.832-.929q0 .28-.104.51-.104.23-.29.372l.425.3-.194.172-.477-.34q-.072.023-.148.036-.077.013-.156.013-.406 0-.66-.302-.254-.303-.254-.761v-.03q0-.457.254-.761t.66-.304q.418 0 .68.304.264.304.264.76zm-.284-.033q0-.366-.176-.597-.174-.232-.484-.232-.297 0-.464.232-.166.232-.166.597v.033q0 .369.166.6.167.231.464.231.314 0 .487-.23t.173-.601zm1.643.835q-.074.126-.19.194-.116.067-.267.067-.254 0-.396-.162-.143-.163-.143-.508v-.696l-.179-.04v-.183h.463v.922q0 .25.073.343.074.094.23.094.15 0 .249-.06.1-.063.15-.175v-.9l-.21-.041v-.183h.493v1.337l.18.04v.182h-.435zm.677.05l.235-.04v-1.115l-.235-.04v-.183h.519v1.337l.234.04v.182h-.753zm.519-1.777h-.284v-.29h.284zm.408 1.777l.234-.04v-1.115l-.235-.04v-.183h.489l.02.232q.078-.124.195-.192.118-.069.268-.069.252 0 .39.149.138.147.138.455v.762l.235.04v.182h-.753v-.181l.235-.04v-.757q0-.206-.083-.293-.08-.086-.247-.086-.123 0-.218.059-.094.059-.15.161v.915l.235.04v.182h-.754zm1.901 0l.235-.04v-1.115l-.235-.04v-.183h.489l.02.232q.078-.124.195-.192.118-.069.268-.069.252 0 .39.149.139.147.139.455v.762l.234.04v.182h-.753v-.181l.235-.04v-.757q0-.206-.082-.293-.081-.086-.248-.086-.123 0-.218.059-.094.059-.15.161v.915l.235.04v.182h-.754zm2.27.077q0 .142-.07.296-.071.154-.19.256l-.16-.106q.067-.104.102-.212.034-.108.034-.23v-.218h.284zm.967-.461q0-.176.1-.307.103-.132.305-.265-.113-.142-.167-.253-.055-.113-.055-.231 0-.244.14-.375.14-.132.387-.132.228 0 .37.13.143.132.143.316 0 .142-.076.245-.075.103-.223.21l-.157.116.49.59q.059-.094.092-.208.033-.114.033-.24h.253q0 .188-.056.35-.056.16-.163.29l.267.322-.003.007h-.33l-.122-.147q-.116.087-.255.133-.14.044-.29.044-.313 0-.499-.165-.184-.166-.184-.43zm.683.373q.104 0 .205-.034.1-.036.19-.102l-.52-.627-.058.042q-.131.098-.174.187-.042.09-.042.161 0 .163.102.268.102.105.297.105zm-.216-1.432q0 .076.039.16.039.082.116.18l.2-.137q.081-.054.11-.118.03-.065.03-.143 0-.087-.07-.155t-.182-.068q-.116 0-.18.082-.063.081-.063.2zm2.719-.291l-.213.033.27 1.156.038.262.009.002.056-.264.386-1.372h.25l.388 1.372.058.27h.009l.041-.27.264-1.156-.215-.033v-.183h.668v.183l-.169.022-.457 1.893h-.253l-.415-1.455-.038-.189h-.008l-.036.189-.421 1.455h-.252l-.457-1.893-.169-.022v-.183h.666zm2.134 1.121q0-.346.187-.57.188-.224.509-.224.323 0 .51.224.189.223.189.57v.032q0 .349-.187.57-.188.222-.51.222-.323 0-.51-.222-.188-.223-.188-.57zm.284.032q0 .248.104.41.105.16.31.16.203 0 .308-.16.105-.162.105-.41v-.032q0-.245-.105-.408-.105-.162-.31-.162-.205 0-.308.162-.104.163-.104.408zm1.37-.032q0-.346.188-.57.187-.224.508-.224.323 0 .51.224.19.223.19.57v.032q0 .349-.188.57-.188.222-.509.222-.324 0-.511-.222-.188-.223-.188-.57zm.284.032q0 .248.104.41.105.16.311.16.202 0 .307-.16.105-.162.105-.41v-.032q0-.245-.105-.408-.105-.162-.31-.162-.204 0-.308.162-.104.163-.104.408zm2.42.576q-.077.107-.188.162-.11.054-.255.054-.285 0-.447-.206-.16-.207-.16-.544v-.03q0-.377.16-.607.162-.23.45-.23.138 0 .244.051.106.05.181.147v-.635l-.235-.04v-.184h.519v2.026l.235.04v.182h-.481zm-.766-.534q0 .234.097.377.096.143.298.143.127 0 .213-.058.087-.057.143-.163v-.723q-.055-.098-.143-.156-.087-.057-.21-.057-.203 0-.301.168-.097.169-.097.438zm2.228.72v-.194l.687-.764q.185-.206.25-.327.066-.121.066-.248 0-.157-.092-.264-.092-.108-.244-.108-.217 0-.32.111-.102.111-.102.314h-.272l-.003-.008q-.007-.271.179-.456.187-.184.518-.184.284 0 .451.165.169.165.169.42 0 .171-.102.343-.101.171-.286.37l-.552.601.003.007h.745l.023-.24h.241v.462zm3.002-.8q0 .402-.179.617-.179.213-.488.213t-.489-.214q-.18-.215-.18-.616v-.497q0-.4.179-.615.178-.216.487-.216.31 0 .49.216.18.215.18.615zm-.284-.557q0-.273-.1-.41-.098-.138-.286-.138-.186 0-.284.138-.098.137-.098.41v.615q0 .272.1.412.099.138.285.138.188 0 .285-.138.098-.138.098-.412zm1.967.557q0 .402-.179.617-.179.213-.488.213t-.489-.214q-.18-.215-.18-.616v-.497q0-.4.179-.615.178-.216.487-.216.31 0 .49.216.18.215.18.615zm-.284-.557q0-.273-.1-.41-.098-.138-.286-.138-.186 0-.284.138-.098.137-.098.41v.615q0 .272.1.412.099.138.285.138.188 0 .285-.138.098-.138.098-.412zm1.413-.771q.107 0 .212.024.107.025.176.062l-.055.212q-.067-.033-.148-.053-.08-.022-.185-.022-.22 0-.351.167-.13.166-.138.502l.005.006q.081-.075.198-.119.116-.044.252-.044.28 0 .448.194.167.195.167.493 0 .326-.179.532-.177.204-.474.204-.307 0-.508-.223-.202-.223-.202-.633v-.282q0-.499.219-.76.22-.26.563-.26zm-.096.947q-.146 0-.248.059-.102.057-.156.155v.169q0 .292.121.45.123.156.307.156.175 0 .271-.147.098-.148.098-.367 0-.207-.105-.341-.104-.134-.288-.134zm.821-1.217h.555v2.848h-.555v-.224h.271v-2.4h-.27z" style="line-height:1.25;-inkscape-font-specification:'Roboto Slab'" aria-label="[Neal, Quinn, &amp; Wood 2006]" font-weight="400" font-family="Roboto Slab" letter-spacing="0" word-spacing="0" fill="#fff" font-size="43.159"/></g></svg>