<svg xmlns="http://www.w3.org/2000/svg" width="1089.506" height="535.635" viewBox="0 0 288.265 141.72"><g transform="translate(34.385 -167.373) scale(.10895)"><path style="isolation:auto;mix-blend-mode:normal;solid-color:#000;solid-opacity:1" color="#000" overflow="visible" fill="#ff8787" d="M1432.472 1811.844h-850v850h850z"/><g transform="translate(28.983 595.948)"><path d="M789.838 1473.99l-72.63 315.783 54.549 58.59 581.847 1.01 31.315-71.721-41.416-102.026-103.036-10.101-95.964-46.467-89.751-68.619-58.852-77.008-100.97 85.79-63.114-26.352-13.838-48.41z" fill="#2aa6ff" fill-rule="evenodd"/><rect rx="34.345" style="isolation:auto;mix-blend-mode:normal;solid-color:#000;solid-opacity:1" width="646.75" height="72.731" x="727.057" y="1789.774" ry="34.345" color="#000" overflow="visible" fill="#ffdd82"/><path d="M996.085 1473.555l-56 45.962c3.553 7.461-42.848 33.257-42.848 33.257l-59.99-19.746-17.848-46.89-31.41-9.134-15.32 72.801 92.537 46.016 62.34-9.313 44.126-29.671L990 1602.363l116.305 82.97 145.224 55.786 139.46 31.091-39.98-98.48-103.034-10.102-95.965-46.466-89.75-68.62z" fill="#006ebb" fill-rule="evenodd"/><path style="isolation:auto;mix-blend-mode:normal;solid-color:#000;solid-opacity:1" d="M1342.857 1671.337v190.952c30.324-2.082 54.287-36.442 54.287-78.808v-33.336c0-42.366-23.963-76.727-54.287-78.808z" color="#000" overflow="visible" fill="#ffdd82"/><rect rx="20.714" style="isolation:auto;mix-blend-mode:normal;solid-color:#000;solid-opacity:1" width="50.508" height="76.772" x="89.304" y="1909.922" ry="20.714" transform="rotate(-19.04)" color="#000" overflow="visible" fill="#ffdd82"/><circle style="isolation:auto;mix-blend-mode:normal;solid-color:#000;solid-opacity:1" cx="826.983" cy="1694.487" r="54.043" color="#000" overflow="visible" fill="#fff"/><rect ry="28.76" style="isolation:auto;mix-blend-mode:normal;solid-color:#000;solid-opacity:1" width="57.52" height="135.774" x="1878.027" y="247.7" rx="28.76" transform="rotate(49.376)" color="#000" overflow="visible" fill="#fff"/><rect ry="27.266" style="isolation:auto;mix-blend-mode:normal;solid-color:#000;solid-opacity:1" width="54.532" height="128.721" x="1967.084" y="254.617" rx="27.266" transform="rotate(48.388)" color="#000" overflow="visible" fill="#fff"/><path style="isolation:auto;mix-blend-mode:normal;solid-color:#000;solid-opacity:1" d="M1073.45 1556.897l-69.45 55.615 48.84 34.656 55.219-43.055.156.213 12.142-11.607-46.785-35.713.342.467zm69.099 52.366l-58.067 58.821 39.426 39.342 58.822-58.95-.09-.087 9.971-11.653-43.512-21.818z" color="#000" overflow="visible" fill="#ffdd82"/><circle style="isolation:auto;mix-blend-mode:normal;solid-color:#000;solid-opacity:1" cx="826.983" cy="1694.487" r="41.429" color="#000" overflow="visible" fill="#2aa6ff"/><circle style="isolation:auto;mix-blend-mode:normal;solid-color:#000;solid-opacity:1" cx="826.983" cy="1694.487" r="36.883" color="#000" overflow="visible" fill="#fff"/><path d="M787.5 1480.22l26.071 16.07 5.715 37.858 72.143 32.857 17.203-1.99 97.393-81.231-2.536-8.515-14.243-5.045-94.756 75.598-55.053-18.688-13.132-40.911-2.526-8.081-39.9-13.638-2.02 13.132z" fill="#ffdd82" fill-rule="evenodd"/><path style="isolation:auto;mix-blend-mode:normal;solid-color:#000;solid-opacity:1" color="#000" overflow="visible" fill="#fff" d="M767.143 1789.648h368.571v18.571H767.143z"/><rect style="isolation:auto;mix-blend-mode:normal;solid-color:#000;solid-opacity:1" width="102.857" height="25.714" x="1183.571" y="1789.719" ry="0" color="#000" overflow="visible" fill="#fff"/><path d="M1354.286 1745.22l-47.857 62.142h50z" fill="#ffdd82" fill-rule="evenodd"/><path style="isolation:auto;mix-blend-mode:normal;solid-color:#000;solid-opacity:1" d="M1342.943 1671.511v88.334h54.288v-9.525c0-42.366-23.964-76.727-54.288-78.809z" color="#000" overflow="visible" fill="#ffc732"/></g><path d="M593.39 2097.243s81.408-15.86 89.687-115.771c0 0 20.697 115.77 75.89 111.013 0 0-66.231 39.648-73.13 122.114 0 0 1.38-122.114-92.447-117.356zm294.603-69.501s128.301-24.994 141.349-182.457c0 0 32.619 182.457 119.603 174.959 0 0-104.38 62.485-115.254 192.454 0 0 2.175-192.454-145.698-184.956z" fill="#fff" fill-rule="evenodd"/><g style="line-height:.01%"><path style="line-height:1.25;-inkscape-font-specification:'Roboto Slab'" d="M597.57 2618.303v-10.64l37.596-41.773q10.088-11.27 13.635-17.891 3.625-6.62 3.625-13.557 0-8.59-5.044-14.423-5.044-5.911-13.32-5.911-11.9 0-17.497 6.069-5.596 6.068-5.596 17.182h-14.896l-.158-.473q-.394-14.818 9.774-24.906 10.246-10.089 28.373-10.089 15.527 0 24.67 9.064 9.221 8.985 9.221 22.936 0 9.379-5.596 18.758-5.517 9.379-15.605 20.256l-30.187 32.866.158.394h40.748l1.26-13.162h13.163v25.3z" font-size="161.415" font-family="Roboto Slab" aria-label="2" font-weight="400" letter-spacing="0" word-spacing="0" fill="#fff"/></g><g transform="translate(-79.184 710.196)"><path style="isolation:auto;mix-blend-mode:normal;solid-color:#000;solid-opacity:1" color="#000" overflow="visible" fill="#ff8787" d="M613.571 1101.648h-850v850h850z"/><rect ry="31.143" y="1142.285" x="-56.287" height="758.931" width="225.425" style="isolation:auto;mix-blend-mode:normal;solid-color:#000;solid-opacity:1" rx="31.143" color="#000" overflow="visible" fill="#cabfa0"/><rect ry="15.174" y="1142.316" x="-56.287" height="758.86" width="31.935" style="isolation:auto;mix-blend-mode:normal;solid-color:#000;solid-opacity:1" rx="15.174" color="#000" overflow="visible" fill="#dfd8c6"/><path style="isolation:auto;mix-blend-mode:normal;solid-color:#000;solid-opacity:1" d="M56.425 1600.254a44.393 29.117 0 00-44.393 29.117 44.393 29.117 0 0016.452 22.598 15.176 15.176 0 00-.236 2.594v47.905a14.994 14.994 0 0015.027 15.027h26.3a14.994 14.994 0 0015.027-15.027v-47.905c0-.883-.089-1.743-.234-2.583a44.393 29.117 0 0016.45-22.61 44.393 29.117 0 00-44.393-29.116z" color="#000" overflow="visible"/><path d="M171.956 1398.237a95.605 105.668 0 01-73.792 102.88 95.605 105.668 0 01-107.465-55.934 95.605 105.668 0 0124.754-128.405" style="isolation:auto;mix-blend-mode:normal;solid-color:#000;solid-opacity:1" color="#000" overflow="visible" fill="#b1a174"/><circle style="isolation:auto;mix-blend-mode:normal;solid-color:#000;solid-opacity:1" cx="59.482" cy="1369.965" r="99.691" color="#000" overflow="visible" fill="#ffbc03" stroke="#fff" stroke-width="6.575"/><circle style="isolation:auto;mix-blend-mode:normal;solid-color:#000;solid-opacity:1" cx="59.482" cy="1369.965" r="84.083" color="#000" overflow="visible" fill="#ffcf4a"/><path d="M-24.367 1368.668a84.083 84.083 0 0183.711-84.082 84.083 84.083 0 0184.452 83.337" style="isolation:auto;mix-blend-mode:normal;solid-color:#000;solid-opacity:1" color="#000" overflow="visible" fill="#ffe7a6"/><path style="isolation:auto;mix-blend-mode:normal;solid-color:#000;solid-opacity:1" d="M64.45 1600.68c13.022 8.959 28.268 22.864 20.514 35.214L75.1 1651.39l.468 52.6s-4.521 6.339-11.306 13.534h6.14a14.993 14.993 0 0015.028-15.027v-47.904c0-.884-.09-1.743-.234-2.584a44.393 29.117 0 0016.45-22.609 44.393 29.117 0 00-37.197-28.722z" color="#000" overflow="visible" fill="#6e6e6e"/><rect style="isolation:auto;mix-blend-mode:normal;solid-color:#000;solid-opacity:1" width="25.105" height="120.878" x="95.763" y="1150.253" ry="12.552" rx="12.552" color="#000" overflow="visible" fill="#dfd8c6"/><rect style="isolation:auto;mix-blend-mode:normal;solid-color:#000;solid-opacity:1" width="25.105" height="55.126" x="133.355" y="1221.318" ry="12.552" rx="12.552" color="#000" overflow="visible" fill="#dfd8c6"/><ellipse style="isolation:auto;mix-blend-mode:normal;solid-color:#000;solid-opacity:1" cx="59.233" cy="1302.346" rx="30.884" ry="10.627" color="#000" overflow="visible" fill="#fff"/><ellipse style="isolation:auto;mix-blend-mode:normal;solid-color:#000;solid-opacity:1" cx="104.245" cy="1320.146" rx="13.625" ry="7.759" color="#000" overflow="visible" fill="#fff"/><rect style="isolation:auto;mix-blend-mode:normal;solid-color:#000;solid-opacity:1" width="266.953" height="61.764" x="128.772" y="1347.563" ry="30.882" rx="30.882" color="#000" overflow="visible" fill="#fff"/><rect style="isolation:auto;mix-blend-mode:normal;solid-color:#000;solid-opacity:1" width="365.794" height="46.319" x="24.134" y="1354.789" ry="23.16" rx="23.16" color="#000" overflow="visible" fill="#eaac00"/><path d="M59.144 1353.78a31.073 31.073 0 00-29.35 20.685 31.023 31.023 0 0112.997-2.823l346.643.587c-2.385-10.573-10.998-18.45-26.781-18.45z" style="isolation:auto;mix-blend-mode:normal;solid-color:#000;solid-opacity:1" color="#000" overflow="visible" fill="#ffcf4a"/><circle r="38.745" cy="1370.432" cx="58.428" style="isolation:auto;mix-blend-mode:normal;solid-color:#000;solid-opacity:1" color="#000" overflow="visible" fill="#be8b00"/><path style="isolation:auto;mix-blend-mode:normal;solid-color:#000;solid-opacity:1" d="M307.434 1234.465a24.522 24.522 0 00-24.577 24.576v131.893h-25.605a22.06 22.06 0 00-22.11 22.107v10.07a22.06 22.06 0 0022.11 22.108h47.21l8.573-1.713h64.883l7.338 17.068a22.311 22.311 0 002.492 4.36 16.879 16.879 0 002.707 4.494l184.14 219.324a16.775 16.775 0 0023.686 2.066l15.518-13.027v-222.283l-85.486-101.82a16.742 16.742 0 00-8.313-5.364v-89.283a24.522 24.522 0 00-24.576-24.576z" color="#000" overflow="visible" fill="#2aa6ff"/><path style="isolation:auto;mix-blend-mode:normal;solid-color:#000;solid-opacity:1" d="M420.396 1372.63l-137.573 1.602v17.791h-25.605a22.06 22.06 0 00-22.11 22.108v10.07a22.06 22.06 0 0022.11 22.107h47.21l8.573-1.713h64.883l7.338 17.069a22.31 22.31 0 002.492 4.36 16.88 16.88 0 002.707 4.493l184.14 219.325c5.99 7.133 39.028 25.489 39.028 25.489l.176-36.45v-111.46z" color="#000" overflow="visible" fill="#006ebb"/><path d="M396.09 1334.788s-81.409-15.86-89.688-115.77c0 0-20.697 115.77-75.889 111.012 0 0 66.23 39.648 73.13 122.114 0 0-1.38-122.114 92.446-117.356z" fill="#fff" fill-rule="evenodd"/></g><g style="line-height:.01%"><path style="line-height:1.25;-inkscape-font-specification:'Roboto Slab'" d="M-296.784 2608.372l17.733-2.207v-85.988l-18.048.315v-9.694l33.575-7.252v102.619l17.655 2.207v9.93h-50.915z" font-size="161.415" font-family="Roboto Slab" aria-label="1" font-weight="400" letter-spacing="0" word-spacing="0" fill="#fff"/></g><path style="isolation:auto;mix-blend-mode:normal;solid-color:#000;solid-opacity:1" color="#000" overflow="visible" fill="#ff8787" d="M2330.329 1811.844h-850v850h850z"/><g transform="translate(1649.528 2140.685) scale(1.11215)" fill="red" stroke-width="1.202"><circle cx="251.873" cy="172.164" r="61.429" fill="#2aa6ff"/><circle r="17.361" cy="158.853" cx="222.331" fill="#fff"/><circle r="11.39" cy="153.918" cx="222.331" fill="#006ebb"/><circle r="17.361" cy="157.594" cx="282.232" fill="#fff"/><circle r="11.39" cy="152.659" cx="282.232" fill="#006ebb"/><path d="M231.783 194.864a19.643 20 0 0019.508 17.855 19.643 20 0 0019.521-17.855z" fill="#fff"/><g transform="matrix(1 0 0 -1 -628.376 1084.316)"><rect ry="20.227" y="710.561" x="761.463" height="129.092" width="37.027" rx="20.227" fill="#2aa6ff"/><path d="M789.984 712.678l-7.766 127.05a16.778 16.778 0 0016.544-16.808v-95.447a16.787 16.787 0 00-8.778-14.795z" fill="#006ebb"/></g><g transform="rotate(180 564.822 542.386)"><rect ry="20.227" y="710.561" x="761.463" height="129.092" width="37.027" rx="20.227" fill="#2aa6ff"/><path d="M789.984 712.678l-7.766 127.05a16.778 16.778 0 0016.544-16.808v-95.447a16.787 16.787 0 00-8.778-14.795z" fill="#006ebb"/></g><rect ry="63.054" y="238.946" x="180.444" height="182.564" width="142.858" rx="63.054" fill="#2aa6ff"/><path d="M181.014 284.056a53.233 53.233 0 00-.635 8.198v77.682c0 29.053 23.39 52.442 52.442 52.442h37.975c29.052 0 52.439-23.389 52.439-52.442v-77.682c0-1.67-.084-3.318-.236-4.947a72.616 104.373 0 01-70.753 81.291 72.616 104.373 0 01-71.232-84.542z" fill="#006ebb"/></g><path style="isolation:auto;mix-blend-mode:normal;solid-color:#000;solid-opacity:1" d="M1915.398 1941.11l.033 32.877h-54.237v36.382h54.27l.034 32.875 46.72-51.227-46.818-50.907z" color="#000" overflow="visible" fill="#fff"/><g style="line-height:.01%"><path style="line-height:1.25;-inkscape-font-specification:'Roboto Slab'" d="M1522.186 2569.215h13.556q10.325 0 14.58-5.123 4.336-5.202 4.336-14.423 0-9.852-4.887-14.975-4.886-5.123-14.423-5.123-9.064 0-14.581 5.36-5.438 5.28-5.438 14.107h-14.897l-.157-.473q-.394-13.004 9.379-22.068 9.852-9.143 25.694-9.143 15.92 0 25.379 8.512 9.458 8.434 9.458 24.118 0 7.093-4.335 14.187-4.256 7.014-12.847 10.719 10.325 3.389 14.58 10.64 4.335 7.251 4.335 16.236 0 15.684-10.324 24.67-10.246 8.985-26.246 8.985-15.763 0-26.01-8.434-10.245-8.512-9.851-23.014l.236-.473h14.817q0 9.064 5.518 14.423 5.596 5.36 15.29 5.36 9.852 0 15.448-5.36t5.596-15.842q0-10.64-4.966-15.684-4.965-5.044-15.684-5.044h-13.556z" font-size="161.415" font-family="Roboto Slab" aria-label="3" font-weight="400" letter-spacing="0" word-spacing="0" fill="#fff"/></g><rect y="1825.436" x="-1855.308" height="334.244" width="334.244" style="isolation:auto;mix-blend-mode:normal;solid-color:#000;solid-opacity:1" transform="scale(-1 1)" ry="78.555" rx="78.555" color="#000" overflow="visible" fill="#fff"/><g transform="translate(-77.528 721.624)"><rect ry="72.857" transform="scale(-1 1)" style="isolation:auto;mix-blend-mode:normal;solid-color:#000;solid-opacity:1" width="310" height="310" x="-1920.714" y="1115.934" rx="72.857" color="#000" overflow="visible" fill="#ff5f5f"/><g transform="translate(1750.188 889.81) scale(.27788)" stroke-width="1.312"><rect ry="40.863" y="1142.285" x="-56.287" height="758.931" width="225.425" style="isolation:auto;mix-blend-mode:normal;solid-color:#000;solid-opacity:1" rx="40.863" color="#000" overflow="visible" fill="#cabfa0"/><rect ry="19.91" y="1142.316" x="-56.287" height="758.86" width="31.935" style="isolation:auto;mix-blend-mode:normal;solid-color:#000;solid-opacity:1" rx="19.91" color="#000" overflow="visible" fill="#dfd8c6"/><path style="isolation:auto;mix-blend-mode:normal;solid-color:#000;solid-opacity:1" d="M56.425 1600.254a44.393 29.117 0 00-44.393 29.117 44.393 29.117 0 0016.452 22.598 15.176 15.176 0 00-.236 2.594v47.905a14.994 14.994 0 0015.027 15.027h26.3a14.994 14.994 0 0015.027-15.027v-47.905c0-.883-.089-1.743-.234-2.583a44.393 29.117 0 0016.45-22.61 44.393 29.117 0 00-44.393-29.116z" color="#000" overflow="visible"/><path d="M171.956 1398.237a95.605 105.668 0 01-73.792 102.88 95.605 105.668 0 01-107.465-55.934 95.605 105.668 0 0124.754-128.405" style="isolation:auto;mix-blend-mode:normal;solid-color:#000;solid-opacity:1" color="#000" overflow="visible" fill="#b1a174"/><circle style="isolation:auto;mix-blend-mode:normal;solid-color:#000;solid-opacity:1" cx="59.482" cy="1369.965" r="99.691" color="#000" overflow="visible" fill="#ffbc03" stroke="#fff" stroke-width="8.627"/><circle style="isolation:auto;mix-blend-mode:normal;solid-color:#000;solid-opacity:1" cx="59.482" cy="1369.965" r="84.083" color="#000" overflow="visible" fill="#ffcf4a"/><path d="M-24.367 1368.668a84.083 84.083 0 0183.711-84.082 84.083 84.083 0 0184.452 83.337" style="isolation:auto;mix-blend-mode:normal;solid-color:#000;solid-opacity:1" color="#000" overflow="visible" fill="#ffe7a6"/><path style="isolation:auto;mix-blend-mode:normal;solid-color:#000;solid-opacity:1" d="M64.45 1600.68c13.022 8.959 28.268 22.864 20.514 35.214L75.1 1651.39l.468 52.6s-4.521 6.339-11.306 13.534h6.14a14.993 14.993 0 0015.028-15.027v-47.904c0-.884-.09-1.743-.234-2.584a44.393 29.117 0 0016.45-22.609 44.393 29.117 0 00-37.197-28.722z" color="#000" overflow="visible" fill="#6e6e6e"/><rect style="isolation:auto;mix-blend-mode:normal;solid-color:#000;solid-opacity:1" width="25.105" height="120.878" x="95.763" y="1150.253" ry="16.47" rx="16.47" color="#000" overflow="visible" fill="#dfd8c6"/><rect style="isolation:auto;mix-blend-mode:normal;solid-color:#000;solid-opacity:1" width="25.105" height="55.126" x="133.355" y="1221.318" ry="16.47" rx="16.47" color="#000" overflow="visible" fill="#dfd8c6"/><ellipse style="isolation:auto;mix-blend-mode:normal;solid-color:#000;solid-opacity:1" cx="59.233" cy="1302.346" rx="30.884" ry="10.627" color="#000" overflow="visible" fill="#fff"/><ellipse style="isolation:auto;mix-blend-mode:normal;solid-color:#000;solid-opacity:1" cx="104.245" cy="1320.146" rx="13.625" ry="7.759" color="#000" overflow="visible" fill="#fff"/><rect style="isolation:auto;mix-blend-mode:normal;solid-color:#000;solid-opacity:1" width="266.953" height="61.764" x="128.772" y="1347.563" ry="40.52" rx="40.52" color="#000" overflow="visible" fill="#fff"/><rect style="isolation:auto;mix-blend-mode:normal;solid-color:#000;solid-opacity:1" width="365.794" height="46.319" x="24.134" y="1354.789" ry="30.387" rx="30.387" color="#000" overflow="visible" fill="#eaac00"/><path d="M59.144 1353.78a31.073 31.073 0 00-29.35 20.685 31.023 31.023 0 0112.997-2.823l346.643.587c-2.385-10.573-10.998-18.45-26.781-18.45z" style="isolation:auto;mix-blend-mode:normal;solid-color:#000;solid-opacity:1" color="#000" overflow="visible" fill="#ffcf4a"/><circle r="38.745" cy="1370.432" cx="58.428" style="isolation:auto;mix-blend-mode:normal;solid-color:#000;solid-opacity:1" color="#000" overflow="visible" fill="#be8b00"/><path style="isolation:auto;mix-blend-mode:normal;solid-color:#000;solid-opacity:1" d="M307.434 1234.465a24.522 24.522 0 00-24.577 24.576v131.893h-25.605a22.06 22.06 0 00-22.11 22.107v10.07a22.06 22.06 0 0022.11 22.108h47.21l8.573-1.713h64.883l7.338 17.068a22.311 22.311 0 002.492 4.36 16.879 16.879 0 002.707 4.494l184.14 219.324a16.775 16.775 0 0023.686 2.066l15.518-13.027v-222.283l-85.486-101.82a16.742 16.742 0 00-8.313-5.364v-89.283a24.522 24.522 0 00-24.576-24.576z" color="#000" overflow="visible" fill="#2aa6ff"/><path style="isolation:auto;mix-blend-mode:normal;solid-color:#000;solid-opacity:1" d="M420.396 1372.63l-137.573 1.602v17.791h-25.605a22.06 22.06 0 00-22.11 22.108v10.07a22.06 22.06 0 0022.11 22.107h47.21l8.573-1.713h64.883l7.338 17.069a22.31 22.31 0 002.492 4.36 16.88 16.88 0 002.707 4.493l184.14 219.325c5.99 7.133 39.028 25.489 39.028 25.489l.176-36.45v-111.46z" color="#000" overflow="visible" fill="#006ebb"/><path d="M396.09 1334.788s-81.409-15.86-89.688-115.77c0 0-20.697 115.77-75.889 111.012 0 0 66.23 39.648 73.13 122.114 0 0-1.38-122.114 92.446-117.356z" fill="#fff" fill-rule="evenodd"/></g></g><rect y="1825.436" x="-2299.594" height="334.244" width="334.244" style="isolation:auto;mix-blend-mode:normal;solid-color:#000;solid-opacity:1" transform="scale(-1 1)" ry="78.555" rx="78.555" color="#000" overflow="visible" fill="#fff"/><g transform="translate(1737.538 1440.761) scale(.3647)"><rect y="1087.992" x="-1507.883" height="850" width="850" style="isolation:auto;mix-blend-mode:normal;solid-color:#000;solid-opacity:1" transform="scale(-1 1)" ry="199.77" rx="199.77" color="#000" overflow="visible" fill="#ff5f5f"/><g transform="translate(65.224 -47.091)"><path d="M789.838 1473.99l-72.63 315.783 54.549 58.59 581.847 1.01 31.315-71.721-41.416-102.026-103.036-10.101-95.964-46.467-89.751-68.619-58.852-77.008-100.97 85.79-63.114-26.352-13.838-48.41z" fill="#2aa6ff" fill-rule="evenodd"/><rect ry="34.345" y="1789.774" x="727.057" height="72.731" width="646.75" style="isolation:auto;mix-blend-mode:normal;solid-color:#000;solid-opacity:1" rx="34.345" color="#000" overflow="visible" fill="#ffdd82"/><path d="M996.085 1473.555l-56 45.962c3.553 7.461-42.848 33.257-42.848 33.257l-59.99-19.746-17.848-46.89-31.41-9.134-15.32 72.801 92.537 46.016 62.34-9.313 44.126-29.671L990 1602.363l116.305 82.97 145.224 55.786 139.46 31.091-39.98-98.48-103.034-10.102-95.965-46.466-89.75-68.62z" fill="#006ebb" fill-rule="evenodd"/><path d="M1342.857 1671.337v190.952c30.324-2.082 54.287-36.442 54.287-78.808v-33.336c0-42.366-23.963-76.727-54.287-78.808z" style="isolation:auto;mix-blend-mode:normal;solid-color:#000;solid-opacity:1" color="#000" overflow="visible" fill="#ffdd82"/><rect transform="rotate(-19.04)" ry="20.714" y="1909.922" x="89.304" height="76.772" width="50.508" style="isolation:auto;mix-blend-mode:normal;solid-color:#000;solid-opacity:1" rx="20.714" color="#000" overflow="visible" fill="#ffdd82"/><circle r="54.043" cy="1694.487" cx="826.983" style="isolation:auto;mix-blend-mode:normal;solid-color:#000;solid-opacity:1" color="#000" overflow="visible" fill="#fff"/><rect transform="rotate(49.376)" rx="28.76" y="247.7" x="1878.027" height="135.774" width="57.52" style="isolation:auto;mix-blend-mode:normal;solid-color:#000;solid-opacity:1" ry="28.76" color="#000" overflow="visible" fill="#fff"/><rect transform="rotate(48.388)" rx="27.266" y="254.617" x="1967.084" height="128.721" width="54.532" style="isolation:auto;mix-blend-mode:normal;solid-color:#000;solid-opacity:1" ry="27.266" color="#000" overflow="visible" fill="#fff"/><path d="M1073.45 1556.897l-69.45 55.615 48.84 34.656 55.219-43.055.156.213 12.142-11.607-46.785-35.713.342.467zm69.099 52.366l-58.067 58.821 39.426 39.342 58.822-58.95-.09-.087 9.971-11.653-43.512-21.818z" style="isolation:auto;mix-blend-mode:normal;solid-color:#000;solid-opacity:1" color="#000" overflow="visible" fill="#ffdd82"/><circle r="41.429" cy="1694.487" cx="826.983" style="isolation:auto;mix-blend-mode:normal;solid-color:#000;solid-opacity:1" color="#000" overflow="visible" fill="#2aa6ff"/><circle r="36.883" cy="1694.487" cx="826.983" style="isolation:auto;mix-blend-mode:normal;solid-color:#000;solid-opacity:1" color="#000" overflow="visible" fill="#fff"/><path d="M787.5 1480.22l26.071 16.07 5.715 37.858 72.143 32.857 17.203-1.99 97.393-81.231-2.536-8.515-14.243-5.045-94.756 75.598-55.053-18.688-13.132-40.911-2.526-8.081-39.9-13.638-2.02 13.132z" fill="#ffdd82" fill-rule="evenodd"/><path style="isolation:auto;mix-blend-mode:normal;solid-color:#000;solid-opacity:1" color="#000" overflow="visible" fill="#fff" d="M767.143 1789.648h368.571v18.571H767.143z"/><rect ry="0" y="1789.719" x="1183.571" height="25.714" width="102.857" style="isolation:auto;mix-blend-mode:normal;solid-color:#000;solid-opacity:1" color="#000" overflow="visible" fill="#fff"/><path d="M1354.286 1745.22l-47.857 62.142h50z" fill="#ffdd82" fill-rule="evenodd"/><path d="M1342.943 1671.511v88.334h54.288v-9.525c0-42.366-23.964-76.727-54.288-78.809z" style="isolation:auto;mix-blend-mode:normal;solid-color:#000;solid-opacity:1" color="#000" overflow="visible" fill="#ffc732"/></g><path d="M671.767 1408.187s81.408-15.86 89.687-115.77c0 0 20.697 115.77 75.889 111.012 0 0-66.23 39.648-73.13 122.114 0 0 1.38-122.114-92.446-117.356zm578.338 170.847s98.192-19.128 108.177-139.639c0 0 24.965 139.64 91.536 133.9 0 0-79.885 47.822-88.207 147.29 0 0 1.665-147.29-111.506-141.55z" fill="#fff" fill-rule="evenodd"/></g><g style="line-height:.01%"><path style="line-height:1.25;-inkscape-font-specification:'Roboto Slab'" d="M1714.188 1845.192v17.011h-7.22l-.645-8.822h-13.882v60.596l7.005 1.48v6.656h-22.477v-6.656l7.005-1.48v-60.596h-13.924l-.602 8.822h-7.264v-17.011z" font-size="40" font-family="Roboto Slab" aria-label="T" font-weight="400" letter-spacing="0" word-spacing="0" fill="#fff"/></g><g style="line-height:.01%"><path style="line-height:1.25;-inkscape-font-specification:'Roboto Slab'" d="M2103.888 1915.268l4.432-.757 20.89-66.34h6.935l20.52 66.34 4.391.757v6.356h-17.154v-6.356l4.514-.959-3.94-13.52h-23.926l-4.063 13.52 4.515.959v6.356h-17.114zm19.166-22.803h18.96l-9.275-31.53h-.246z" font-size="40" font-family="Roboto Slab" aria-label="A" font-weight="400" letter-spacing="0" word-spacing="0" fill="#fff"/></g><g style="line-height:.01%;-inkscape-font-specification:'Roboto Slab'"><path d="M-27.553 2721.582v19.653h-10.254l-.916-10.193h-19.714v70.008l9.949 1.709v7.69H-80.41v-7.69l9.95-1.71v-70.007h-19.776l-.855 10.193h-10.315v-19.653zm3.052 30.578v-7.75h20.69l1.16 9.582q2.808-5.066 6.897-7.935 4.15-2.869 9.46-2.869 1.404 0 2.87.245 1.525.183 2.319.427l-1.587 11.17-6.836-.367q-4.761 0-7.996 2.258-3.235 2.198-5.005 6.226v37.903l9.949 1.709v7.69h-31.921v-7.69l9.948-1.71v-47.18zm51.757 50.599l9.95-1.71v-47.18l-9.95-1.708v-7.752H49.23v56.64l9.949 1.71v7.69H27.256zm21.973-75.257H37.205v-12.268H49.23zm19.104 51.148q0-15.93 6.958-25.696 6.958-9.766 19.226-9.766 6.226 0 10.925 2.442 4.7 2.441 7.874 7.08l1.099-8.3h10.131v65.185q0 12.817-7.14 20.141-7.142 7.386-20.325 7.386-4.761 0-10.315-1.343-5.555-1.282-9.766-3.54l3.113-9.339q3.357 1.77 7.934 2.93 4.578 1.16 8.911 1.16 8.057 0 11.78-4.517 3.784-4.516 3.784-12.878v-6.287q-3.234 4.15-7.751 6.287-4.517 2.136-10.376 2.136-12.146 0-19.104-8.79-6.958-8.788-6.958-23.01zm12.024 1.282q0 9.948 4.211 15.99 4.212 6.043 12.818 6.043 5.432 0 9.094-2.441 3.662-2.503 6.042-7.02v-30.395q-2.319-4.211-6.042-6.652-3.723-2.503-8.972-2.503-8.606 0-12.879 7.202-4.272 7.202-4.272 18.494zm58.777-1.282q0-15.93 6.958-25.696 6.958-9.766 19.226-9.766 6.225 0 10.925 2.442 4.7 2.441 7.874 7.08l1.098-8.3h10.132v65.185q0 12.817-7.141 20.141-7.141 7.386-20.325 7.386-4.76 0-10.315-1.343-5.554-1.282-9.765-3.54l3.113-9.339q3.357 1.77 7.934 2.93 4.578 1.16 8.911 1.16 8.057 0 11.78-4.517 3.784-4.516 3.784-12.878v-6.287q-3.235 4.15-7.751 6.287-4.517 2.136-10.376 2.136-12.146 0-19.104-8.79-6.958-8.788-6.958-23.01zm12.024 1.282q0 9.948 4.211 15.99 4.212 6.043 12.818 6.043 5.432 0 9.094-2.441 3.662-2.503 6.042-7.02v-30.395q-2.32-4.211-6.042-6.652-3.723-2.503-8.972-2.503-8.606 0-12.879 7.202-4.272 7.202-4.272 18.494zm88.867 31.798q-13.794 0-21.973-9.154-8.117-9.217-8.117-23.865v-2.686q0-14.099 8.361-23.437 8.423-9.4 19.898-9.4 13.306 0 20.141 8.057 6.897 8.057 6.897 21.484v7.508h-42.846l-.183.305q.183 9.521 4.821 15.686 4.64 6.104 13 6.104 6.104 0 10.682-1.71 4.639-1.77 7.996-4.821l4.7 7.812q-3.54 3.418-9.4 5.799-5.798 2.319-13.977 2.319zm-1.831-59.081q-6.043 0-10.315 5.127-4.273 5.066-5.25 12.756l.123.305h30.456v-1.587q0-7.08-3.784-11.84-3.784-4.761-11.23-4.761zm38.818-.489v-7.75h20.691l1.16 9.582q2.807-5.066 6.897-7.935 4.15-2.869 9.46-2.869 1.404 0 2.869.245 1.526.183 2.32.427l-1.588 11.17-6.836-.367q-4.76 0-7.995 2.258-3.235 2.198-5.005 6.226v37.903l9.949 1.709v7.69h-31.922v-7.69l9.949-1.71v-47.18z" style="line-height:1.25;-inkscape-font-specification:'Roboto Slab'" aria-label="Trigger" font-weight="400" font-family="Roboto Slab" letter-spacing="0" word-spacing="0" fill="#ff5f5f" font-size="125"/></g><g style="line-height:.01%;-inkscape-font-specification:'Roboto Slab'"><path d="M812.617 2802.759l6.592-.916 31.067-80.261h10.315l30.518 80.261 6.53.916v7.69h-25.512v-7.69l6.713-1.16-5.859-16.357h-35.583l-6.043 16.357 6.714 1.16v7.69h-25.452zm28.504-27.588h28.198l-13.794-38.147h-.366zm94.787 27.161q5.982 0 10.498-3.663 4.578-3.723 4.578-9.094h10.803l.122.366q.306 8.545-7.63 15.198-7.873 6.592-18.37 6.592-14.405 0-22.034-9.4-7.569-9.399-7.569-23.62v-2.564q0-14.099 7.63-23.498 7.63-9.46 21.972-9.46 7.935 0 14.222 2.624 6.347 2.624 10.498 7.202l.549 14.649h-9.583l-2.624-10.376q-2.136-2.076-5.493-3.357-3.357-1.282-7.569-1.282-9.46 0-13.55 6.836-4.028 6.775-4.028 16.662v2.564q0 10.132 4.029 16.907 4.028 6.714 13.55 6.714zm58.716-73.853v15.93h12.512v8.911h-12.512v40.1q0 4.639 1.892 6.531 1.953 1.892 5.127 1.892 1.587 0 3.54-.244 2.014-.305 3.357-.61l1.648 8.24q-1.709 1.098-5.005 1.77-3.296.732-6.592.732-7.324 0-11.657-4.395-4.334-4.455-4.334-13.916v-40.1h-10.437v-8.91H982.6v-15.931zm24.903 74.28l9.948-1.71v-47.18l-9.948-1.708v-7.752h21.972v56.64l9.949 1.71v7.69h-31.921zm21.972-75.257h-12.024v-12.268h12.024zm19.104 49.317q0-14.649 7.935-24.11 7.934-9.52 21.545-9.52 13.672 0 21.607 9.46 7.995 9.46 7.995 24.17v1.343q0 14.77-7.934 24.17-7.935 9.399-21.546 9.399-13.733 0-21.667-9.4-7.935-9.46-7.935-24.17zm12.024 1.343q0 10.498 4.395 17.334 4.455 6.835 13.183 6.835 8.545 0 13-6.835 4.456-6.836 4.456-17.334v-1.343q0-10.376-4.455-17.273-4.456-6.897-13.123-6.897-8.667 0-13.061 6.897-4.395 6.897-4.395 17.273zm56.213 24.597l9.95-1.71v-47.18l-9.95-1.708v-7.752h20.691l.855 9.827q3.296-5.25 8.24-8.118 5.005-2.93 11.352-2.93 10.681 0 16.54 6.287 5.86 6.226 5.86 19.287v32.288l9.949 1.709v7.69h-31.922v-7.69l9.95-1.71v-32.043q0-8.728-3.48-12.39-3.418-3.662-10.498-3.662-5.188 0-9.216 2.503-3.967 2.502-6.348 6.835v38.758l9.949 1.709v7.69h-31.922z" style="line-height:1.25;-inkscape-font-specification:'Roboto Slab'" aria-label="Action" font-weight="400" font-family="Roboto Slab" letter-spacing="0" word-spacing="0" fill="#ff5f5f" font-size="125"/></g><g style="line-height:.01%;-inkscape-font-specification:'Roboto Slab'"><path d="M1816.004 2721.582q14.222 0 22.095 7.324 7.935 7.324 7.935 19.287 0 12.085-7.935 19.349-7.873 7.263-22.095 7.263h-18.86v26.245l9.95 1.709v7.69h-31.922v-7.69l9.949-1.71v-70.007l-9.95-1.708v-7.752h9.95zm-18.86 43.823h18.86q9.034 0 13.49-4.822 4.516-4.882 4.516-12.268 0-7.385-4.517-12.329-4.455-4.944-13.489-4.944h-18.86zm56.824-42.419v-7.752h21.973v85.816l9.949 1.709v7.69h-31.922v-7.69l9.949-1.71v-76.354zm84.046 87.464q-.55-2.686-.855-4.823-.305-2.136-.427-4.272-3.48 4.455-8.728 7.446-5.188 2.93-11.109 2.93-10.315 0-15.686-5.005-5.37-5.066-5.37-14.221 0-9.4 7.568-14.465 7.629-5.127 20.874-5.127h12.39v-7.69q0-5.8-3.662-9.156-3.662-3.418-10.193-3.418-4.517 0-7.996 1.16-3.418 1.16-5.554 3.173l-1.282 6.958h-9.277v-12.817q4.517-3.601 10.925-5.737 6.409-2.198 13.916-2.198 11.23 0 18.189 5.738 6.958 5.737 6.958 16.418v34.302q.06 1.22.183 2.441l4.883.672v7.69zm-19.349-8.79q5.982 0 10.926-2.868 4.944-2.87 7.08-6.897v-10.865h-12.818q-7.385 0-11.718 3.418-4.273 3.418-4.273 8.301 0 4.334 2.686 6.653 2.685 2.258 8.117 2.258zm43.335 1.099l9.95-1.71v-47.18l-9.95-1.708v-7.752h20.691l.855 9.827q3.296-5.25 8.24-8.118 5.004-2.93 11.352-2.93 10.681 0 16.54 6.287 5.86 6.226 5.86 19.287v32.288l9.949 1.709v7.69h-31.922v-7.69l9.95-1.71v-32.043q0-8.728-3.48-12.39-3.418-3.662-10.498-3.662-5.188 0-9.216 2.503-3.968 2.502-6.348 6.835v38.758l9.949 1.709v7.69H1962z" style="line-height:1.25;-inkscape-font-specification:'Roboto Slab'" aria-label="Plan" font-weight="400" font-family="Roboto Slab" letter-spacing="0" word-spacing="0" fill="#ff5f5f" font-size="125"/></g><circle cx="1110.594" cy="1226.093" r="165.239" fill="#fff" transform="translate(1783.805 1831.22) scale(.3192)"/><circle cx="2031.092" cy="2249.942" r="26.679" fill="#fff"/></g><g style="line-height:.01%;-inkscape-font-specification:'Roboto Slab'"><path d="M15.047 1.924v3.442h-1.795l-.16-1.785H9.638v12.26l1.742.299v1.346H5.79V16.14l1.742-.3V3.58H4.07l-.15 1.786H2.115V1.924zm.535 5.355V5.92h3.623l.203 1.679q.492-.888 1.208-1.39.727-.502 1.657-.502.246 0 .502.042.267.032.406.075l-.278 1.956-1.197-.064q-.833 0-1.4.396-.566.384-.876 1.09v6.637l1.742.3v1.346h-5.59V16.14l1.742-.3V7.578zm9.064 8.861l1.742-.3V7.578l-1.742-.3V5.922h3.848v9.92l1.742.299v1.346h-5.59zm3.848-13.18h-2.106V.813h2.106zm3.345 8.958q0-2.79 1.219-4.5 1.218-1.71 3.366-1.71 1.09 0 1.914.427.823.428 1.378 1.24l.193-1.454h1.774v11.416q0 2.244-1.25 3.527-1.251 1.293-3.56 1.293-.833 0-1.806-.235-.973-.224-1.71-.62l.545-1.635q.588.31 1.39.513.801.203 1.56.203 1.41 0 2.063-.79.663-.792.663-2.256v-1.101q-.567.727-1.358 1.1-.79.375-1.817.375-2.127 0-3.345-1.54-1.219-1.538-1.219-4.029zm2.106.224q0 1.742.737 2.8.738 1.059 2.245 1.059.951 0 1.592-.428.642-.438 1.059-1.229V9.021q-.407-.737-1.059-1.165-.652-.438-1.57-.438-1.508 0-2.256 1.261-.748 1.261-.748 3.239zm10.293-.224q0-2.79 1.218-4.5 1.219-1.71 3.367-1.71 1.09 0 1.913.427.823.428 1.38 1.24l.192-1.454h1.774v11.416q0 2.244-1.25 3.527-1.251 1.293-3.56 1.293-.834 0-1.806-.235-.973-.224-1.71-.62l.545-1.635q.587.31 1.39.513.8.203 1.56.203 1.41 0 2.063-.79.662-.792.662-2.256v-1.101q-.566.727-1.357 1.1-.791.375-1.817.375-2.127 0-3.346-1.54-1.218-1.538-1.218-4.029zm2.105.224q0 1.742.738 2.8.737 1.059 2.244 1.059.952 0 1.593-.428.641-.438 1.058-1.229V9.021q-.406-.737-1.058-1.165-.652-.438-1.571-.438-1.507 0-2.255 1.261-.749 1.261-.749 3.239zm15.563 5.568q-2.416 0-3.848-1.602-1.422-1.614-1.422-4.18v-.47q0-2.469 1.465-4.104 1.475-1.646 3.484-1.646 2.33 0 3.527 1.41 1.208 1.411 1.208 3.763v1.315h-7.503l-.032.053q.032 1.667.844 2.747.813 1.069 2.277 1.069 1.069 0 1.87-.3.813-.31 1.4-.844L66 16.29q-.62.599-1.646 1.016-1.016.406-2.448.406zm-.32-10.346q-1.059 0-1.807.898-.748.887-.92 2.234l.022.054h5.334v-.278q0-1.24-.663-2.074-.663-.834-1.967-.834zm6.797-.085V5.92h3.623l.204 1.68q.491-.888 1.207-1.39.727-.502 1.657-.502.246 0 .502.042.268.032.407.075l-.278 1.956-1.197-.064q-.834 0-1.4.396-.567.384-.877 1.09v6.637l1.742.3v1.346h-5.59V16.14l1.742-.3V7.578zm14.13 8.861l1.155-.16 5.44-14.056h1.806l5.345 14.055 1.143.16v1.347h-4.467V16.14l1.175-.203-1.026-2.865h-6.231l-1.058 2.865 1.175.203v1.346h-4.457zm4.992-4.832h4.938l-2.416-6.68h-.064zm16.599 4.757q1.048 0 1.839-.641.801-.652.801-1.593h1.892l.021.064q.054 1.496-1.336 2.662-1.378 1.154-3.217 1.154-2.522 0-3.858-1.646-1.326-1.646-1.326-4.137v-.449q0-2.469 1.336-4.115 1.336-1.656 3.848-1.656 1.39 0 2.49.46 1.112.459 1.839 1.26l.096 2.566h-1.678l-.46-1.817q-.374-.364-.962-.588-.587-.225-1.325-.225-1.657 0-2.373 1.198-.705 1.186-.705 2.917v.45q0 1.774.705 2.96.706 1.176 2.373 1.176zm10.282-12.933v2.79h2.192v1.56h-2.192v7.022q0 .813.332 1.144.342.331.898.331.278 0 .62-.042.352-.054.587-.107l.289 1.443q-.3.192-.876.31-.578.128-1.155.128-1.282 0-2.041-.77-.76-.78-.76-2.437V7.482h-1.827v-1.56h1.828v-2.79zm4.361 13.008l1.743-.3V7.578l-1.743-.3V5.922h3.848v9.92l1.742.299v1.346h-5.59zm3.848-13.18h-2.105V.813h2.105zm3.345 8.637q0-2.565 1.39-4.222 1.39-1.667 3.773-1.667 2.395 0 3.784 1.656 1.4 1.657 1.4 4.233v.235q0 2.587-1.39 4.233-1.389 1.646-3.772 1.646-2.405 0-3.795-1.646-1.39-1.657-1.39-4.233zm2.106.235q0 1.839.77 3.036.78 1.197 2.309 1.197 1.496 0 2.276-1.197.78-1.197.78-3.036v-.235q0-1.817-.78-3.025t-2.298-1.208q-1.517 0-2.287 1.208t-.77 3.025zm9.844 4.308l1.743-.3V7.578l-1.742-.3V5.922h3.623l.15 1.721q.577-.919 1.442-1.421.877-.513 1.989-.513 1.87 0 2.896 1.1 1.026 1.09 1.026 3.378v5.654l1.742.3v1.346h-5.59V16.14l1.743-.3v-5.61q0-1.529-.61-2.17-.598-.641-1.838-.641-.909 0-1.614.438-.695.438-1.112 1.197v6.787l1.743.3v1.346h-5.59zm26.807-14.216q2.49 0 3.87 1.283 1.39 1.282 1.39 3.377 0 2.116-1.39 3.388-1.38 1.272-3.87 1.272h-3.302v4.596l1.742.3v1.346h-5.59V16.14l1.742-.3V3.58l-1.742-.299V1.924h1.742zm-3.302 7.674h3.302q1.582 0 2.362-.844.791-.855.791-2.148 0-1.294-.79-2.16-.78-.865-2.363-.865h-3.302zm9.951-7.428V.812h3.847V15.84l1.743.3v1.346h-5.59V16.14l1.742-.3V2.47zm14.718 15.316q-.097-.47-.15-.844-.053-.374-.075-.748-.61.78-1.528 1.304-.909.513-1.946.513-1.806 0-2.747-.877-.94-.887-.94-2.49 0-1.646 1.325-2.533 1.336-.898 3.656-.898h2.17V9.566q0-1.015-.642-1.603-.641-.599-1.785-.599-.79 0-1.4.203-.599.204-.973.556l-.224 1.219h-1.625V7.097q.791-.63 1.913-1.005 1.123-.384 2.437-.384 1.967 0 3.186 1.004 1.218 1.005 1.218 2.876v6.007q.01.213.032.427l.855.118v1.346zm-3.389-1.539q1.048 0 1.914-.502.865-.502 1.24-1.208v-1.902h-2.245q-1.293 0-2.052.598-.748.599-.748 1.454 0 .759.47 1.165.47.395 1.421.395zm7.589.193l1.742-.3V7.578l-1.742-.3V5.922h3.624l.15 1.721q.576-.919 1.442-1.421.877-.513 1.988-.513 1.87 0 2.897 1.1 1.026 1.09 1.026 3.378v5.654l1.742.3v1.346h-5.59V16.14l1.742-.3v-5.61q0-1.529-.609-2.17-.598-.641-1.838-.641-.909 0-1.614.438-.695.438-1.112 1.197v6.787l1.742.3v1.346h-5.59zm23.269-6.584h-1.582l-.342-1.39q-.385-.363-.972-.577-.578-.225-1.315-.225-1.122 0-1.668.492-.545.492-.545 1.186 0 .685.481 1.08.481.396 1.956.705 2.191.47 3.26 1.283 1.07.802 1.07 2.16 0 1.538-1.251 2.49-1.24.95-3.25.95-1.314 0-2.362-.298-1.047-.31-1.87-.888l-.011-2.64h1.582l.395 1.55q.364.332.984.481.63.15 1.282.15 1.123 0 1.753-.45.642-.459.642-1.196 0-.695-.535-1.144-.524-.449-1.999-.78-2.105-.46-3.174-1.25-1.069-.792-1.069-2.138 0-1.411 1.197-2.405 1.208-.994 3.132-.994 1.315 0 2.362.342 1.047.342 1.742.951zm8.006 1.614q0-4.212 1.7-7.194Q224.937.994 226.808 0l.063.01.396 1.24q-1.464 1.144-2.544 3.667-1.08 2.522-1.08 6.231v.14q0 3.719 1.07 6.23 1.079 2.523 2.554 3.763l-.396 1.154h-.064q-1.87-.994-3.57-3.976-1.7-2.971-1.7-7.193zm19.207-9.246v3.442h-1.796l-.16-1.785h-3.452v12.26l1.742.299v1.346h-5.59V16.14l1.742-.3V3.58h-3.463l-.15 1.786h-1.806V1.924zm-.94 14.216l1.154-.16 5.44-14.056h1.807l5.344 14.055 1.144.16v1.347h-4.468V16.14l1.176-.203-1.027-2.865h-6.23l-1.06 2.865 1.177.203v1.346h-4.457zm4.991-4.832h4.938l-2.415-6.68h-.065zm18.363-9.384q2.49 0 3.87 1.283 1.389 1.282 1.389 3.377 0 2.116-1.39 3.388-1.379 1.272-3.87 1.272h-3.302v4.596l1.742.3v1.346h-5.59V16.14l1.743-.3V3.58l-1.743-.299V1.924h1.743zm-3.303 7.674h3.303q1.582 0 2.362-.844.791-.855.791-2.148 0-1.294-.79-2.16-.781-.865-2.363-.865h-3.303zm19.09-.042h-1.582l-.342-1.39q-.385-.363-.973-.577-.577-.225-1.314-.225-1.123 0-1.668.492-.545.492-.545 1.186 0 .685.481 1.08.481.396 1.956.705 2.191.47 3.26 1.283 1.069.802 1.069 2.16 0 1.538-1.25 2.49-1.24.95-3.25.95-1.315 0-2.362-.298-1.048-.31-1.87-.888l-.011-2.64h1.582l.395 1.55q.363.332.983.481.631.15 1.283.15 1.122 0 1.753-.45.641-.459.641-1.196 0-.695-.534-1.144-.524-.449-1.999-.78-2.106-.46-3.174-1.25-1.07-.792-1.07-2.138 0-1.411 1.198-2.405 1.208-.994 3.132-.994 1.314 0 2.362.342 1.047.342 1.742.951zm7.203 1.71q0 4.222-1.71 7.193-1.699 2.982-3.559 3.976h-.064l-.395-1.154q1.443-1.122 2.533-3.698 1.09-2.566 1.09-6.296v-.139q0-3.666-1.122-6.242t-2.501-3.752L280.817 0h.064q1.86.994 3.56 3.976 1.71 2.982 1.71 7.194z" style="line-height:1.25;-inkscape-font-specification:'Roboto Slab'" aria-label="Trigger Action Plans (TAPs)" font-weight="400" font-family="Roboto Slab" letter-spacing="0" word-spacing="0" fill="#ff5f5f" font-size="180"/></g></svg>