<svg xmlns="http://www.w3.org/2000/svg" width="1023.38" height="533.333" viewBox="0 0 270.769 141.111"><g transform="translate(139.666 -326.978) scale(.1197)"><rect rx="37.863" style="isolation:auto;mix-blend-mode:normal;solid-color:#000;solid-opacity:1" width="2261.97" height="1178.823" x="-1165.636" y="2732.091" ry="37.863" color="#000" overflow="visible" fill="#102938"/><rect rx="24.752" ry="24.752" y="3110.224" x="-984.062" height="354.741" width="352.278" style="isolation:auto;mix-blend-mode:normal;solid-color:#000;solid-opacity:1" color="#000" overflow="visible" fill="#6d8897"/><rect rx="23.186" ry="23.186" y="3187.896" x="-962.687" height="238.813" width="309.529" style="isolation:auto;mix-blend-mode:normal;solid-color:#000;solid-opacity:1" color="#000" overflow="visible" fill="#fff"/><g transform="translate(-466.719 1839.737) scale(.57382)" fill="#455762" color="#000"><rect rx="40.406" transform="scale(1 -1)" ry="40.406" y="-2325.214" x="-865.216" height="183.848" width="80.812" style="isolation:auto;mix-blend-mode:normal;solid-color:#000;solid-opacity:1" overflow="visible"/><rect rx="5.556" ry="5.556" y="2169.65" x="-860.165" height="125.259" width="11.112" style="isolation:auto;mix-blend-mode:normal;solid-color:#000;solid-opacity:1" overflow="visible"/><rect rx="23.234" style="isolation:auto;mix-blend-mode:normal;solid-color:#000;solid-opacity:1" width="46.467" height="134.35" x="-839.962" y="2165.61" ry="23.234" overflow="visible"/></g><g transform="translate(-337.05 1839.737) scale(.57382)" fill="#455762" color="#000"><rect rx="40.406" transform="scale(1 -1)" ry="40.406" y="-2325.214" x="-865.216" height="183.848" width="80.812" style="isolation:auto;mix-blend-mode:normal;solid-color:#000;solid-opacity:1" overflow="visible"/><rect rx="5.556" ry="5.556" y="2169.65" x="-860.165" height="125.259" width="11.112" style="isolation:auto;mix-blend-mode:normal;solid-color:#000;solid-opacity:1" overflow="visible"/><rect rx="23.234" style="isolation:auto;mix-blend-mode:normal;solid-color:#000;solid-opacity:1" width="46.467" height="134.35" x="-839.962" y="2165.61" ry="23.234" overflow="visible"/></g><g transform="translate(-207.38 1839.737) scale(.57382)" fill="#455762" color="#000"><rect rx="40.406" transform="scale(1 -1)" ry="40.406" y="-2325.214" x="-865.216" height="183.848" width="80.812" style="isolation:auto;mix-blend-mode:normal;solid-color:#000;solid-opacity:1" overflow="visible"/><rect rx="5.556" ry="5.556" y="2169.65" x="-860.165" height="125.259" width="11.112" style="isolation:auto;mix-blend-mode:normal;solid-color:#000;solid-opacity:1" overflow="visible"/><rect rx="23.234" style="isolation:auto;mix-blend-mode:normal;solid-color:#000;solid-opacity:1" width="46.467" height="134.35" x="-839.962" y="2165.61" ry="23.234" overflow="visible"/></g><g style="line-height:.01%"><path d="M-869.352 3273.73h17.64q13.434 0 18.971-6.666 5.64-6.768 5.64-18.767 0-12.818-6.358-19.484-6.358-6.666-18.766-6.666-11.794 0-18.972 6.973-7.076 6.871-7.076 18.357h-19.383l-.205-.615q-.513-16.921 12.204-28.715 12.819-11.896 33.432-11.896 20.715 0 33.021 11.076 12.306 10.973 12.306 31.38 0 9.23-5.64 18.46-5.538 9.127-16.716 13.947 13.434 4.41 18.972 13.844 5.64 9.435 5.64 21.126 0 20.408-13.434 32.099-13.332 11.69-34.15 11.69-20.51 0-33.841-10.973-13.332-11.075-12.82-29.945l.308-.615h19.28q0 11.793 7.179 18.767 7.28 6.973 19.895 6.973 12.818 0 20.1-6.973 7.28-6.974 7.28-20.613 0-13.844-6.46-20.408-6.46-6.563-20.408-6.563h-17.639zm88.81 71.068l23.074-2.871v-111.884l-23.484.41v-12.613l43.687-9.435v133.522l22.971 2.871v12.922h-66.248z" style="line-height:1.25;-inkscape-font-specification:'Roboto Slab'" aria-label="31" font-weight="400" font-family="Roboto Slab" letter-spacing="0" word-spacing="0" fill="#f95d95" font-size="366.014"/></g><g transform="translate(-297.853 1634.803) scale(.57382)" fill="#f81f6c" color="#000"><rect style="isolation:auto;mix-blend-mode:normal;solid-color:#000;solid-opacity:1" width="74.751" height="101.015" x="-1182.063" y="3223.855" ry="23.234" rx="23.234" overflow="visible"/><rect style="isolation:auto;mix-blend-mode:normal;solid-color:#000;solid-opacity:1" width="74.751" height="101.015" x="-1096.803" y="3223.855" ry="23.234" rx="23.234" overflow="visible"/><rect style="isolation:auto;mix-blend-mode:normal;solid-color:#000;solid-opacity:1" width="74.751" height="101.015" x="-1011.543" y="3223.855" ry="23.234" rx="23.234" overflow="visible"/><rect style="isolation:auto;mix-blend-mode:normal;solid-color:#000;solid-opacity:1" width="74.751" height="101.015" x="-841.022" y="3223.855" ry="23.234" rx="23.234" overflow="visible"/><rect style="isolation:auto;mix-blend-mode:normal;solid-color:#000;solid-opacity:1" width="74.751" height="101.015" x="-755.762" y="3223.855" ry="23.234" rx="23.234" overflow="visible"/><rect style="isolation:auto;mix-blend-mode:normal;solid-color:#000;solid-opacity:1" width="74.751" height="101.015" x="-670.502" y="3223.855" ry="23.234" rx="23.234" overflow="visible"/><rect style="isolation:auto;mix-blend-mode:normal;solid-color:#000;solid-opacity:1" width="74.751" height="101.015" x="-926.282" y="3223.855" ry="23.234" rx="23.234" overflow="visible"/><rect style="isolation:auto;mix-blend-mode:normal;solid-color:#000;solid-opacity:1" width="74.751" height="101.015" x="-1182.063" y="3340.471" ry="23.234" rx="23.234" overflow="visible"/><rect style="isolation:auto;mix-blend-mode:normal;solid-color:#000;solid-opacity:1" width="74.751" height="101.015" x="-1096.803" y="3340.471" ry="23.234" rx="23.234" overflow="visible"/><rect style="isolation:auto;mix-blend-mode:normal;solid-color:#000;solid-opacity:1" width="74.751" height="101.015" x="-1011.543" y="3340.471" ry="23.234" rx="23.234" overflow="visible"/><rect style="isolation:auto;mix-blend-mode:normal;solid-color:#000;solid-opacity:1" width="74.751" height="101.015" x="-841.022" y="3340.471" ry="23.234" rx="23.234" overflow="visible"/><rect style="isolation:auto;mix-blend-mode:normal;solid-color:#000;solid-opacity:1" width="74.751" height="101.015" x="-755.762" y="3340.471" ry="23.234" rx="23.234" overflow="visible"/><rect style="isolation:auto;mix-blend-mode:normal;solid-color:#000;solid-opacity:1" width="74.751" height="101.015" x="-670.502" y="3340.471" ry="23.234" rx="23.234" overflow="visible"/><rect style="isolation:auto;mix-blend-mode:normal;solid-color:#000;solid-opacity:1" width="74.751" height="101.015" x="-926.282" y="3340.471" ry="23.234" rx="23.234" overflow="visible"/><rect style="isolation:auto;mix-blend-mode:normal;solid-color:#000;solid-opacity:1" width="74.751" height="101.015" x="-1182.063" y="3457.087" ry="23.234" rx="23.234" overflow="visible"/><rect style="isolation:auto;mix-blend-mode:normal;solid-color:#000;solid-opacity:1" width="74.751" height="101.015" x="-1096.803" y="3457.087" ry="23.234" rx="23.234" overflow="visible"/><rect style="isolation:auto;mix-blend-mode:normal;solid-color:#000;solid-opacity:1" width="74.751" height="101.015" x="-1011.543" y="3457.087" ry="23.234" rx="23.234" overflow="visible"/><rect style="isolation:auto;mix-blend-mode:normal;solid-color:#000;solid-opacity:1" width="74.751" height="101.015" x="-841.022" y="3457.087" ry="23.234" rx="23.234" overflow="visible"/><rect style="isolation:auto;mix-blend-mode:normal;solid-color:#000;solid-opacity:1" width="74.751" height="101.015" x="-755.762" y="3457.087" ry="23.234" rx="23.234" overflow="visible"/><rect style="isolation:auto;mix-blend-mode:normal;solid-color:#000;solid-opacity:1" width="74.751" height="101.015" x="-670.502" y="3457.087" ry="23.234" rx="23.234" overflow="visible"/><rect style="isolation:auto;mix-blend-mode:normal;solid-color:#000;solid-opacity:1" width="74.751" height="101.015" x="-926.282" y="3457.087" ry="23.234" rx="23.234" overflow="visible"/><rect style="isolation:auto;mix-blend-mode:normal;solid-color:#000;solid-opacity:1" width="74.751" height="101.015" x="-1182.063" y="3573.703" ry="23.234" rx="23.234" overflow="visible"/><rect style="isolation:auto;mix-blend-mode:normal;solid-color:#000;solid-opacity:1" width="74.751" height="101.015" x="-1096.803" y="3573.703" ry="23.234" rx="23.234" overflow="visible"/><rect style="isolation:auto;mix-blend-mode:normal;solid-color:#000;solid-opacity:1" width="74.751" height="101.015" x="-1011.543" y="3573.703" ry="23.234" rx="23.234" overflow="visible"/><rect style="isolation:auto;mix-blend-mode:normal;solid-color:#000;solid-opacity:1" width="74.751" height="101.015" x="-841.022" y="3573.703" ry="23.234" rx="23.234" overflow="visible"/><rect style="isolation:auto;mix-blend-mode:normal;solid-color:#000;solid-opacity:1" width="74.751" height="101.015" x="-755.762" y="3573.703" ry="23.234" rx="23.234" overflow="visible"/><rect style="isolation:auto;mix-blend-mode:normal;solid-color:#000;solid-opacity:1" width="74.751" height="101.015" x="-670.502" y="3573.703" ry="23.234" rx="23.234" overflow="visible"/><rect style="isolation:auto;mix-blend-mode:normal;solid-color:#000;solid-opacity:1" width="74.751" height="101.015" x="-926.282" y="3573.703" ry="23.234" rx="23.234" overflow="visible"/><rect style="isolation:auto;mix-blend-mode:normal;solid-color:#000;solid-opacity:1" width="74.751" height="101.015" x="-1182.063" y="3689.283" ry="23.234" rx="23.234" overflow="visible"/><rect style="isolation:auto;mix-blend-mode:normal;solid-color:#000;solid-opacity:1" width="74.751" height="101.015" x="-1096.803" y="3689.283" ry="23.234" rx="23.234" overflow="visible"/><rect style="isolation:auto;mix-blend-mode:normal;solid-color:#000;solid-opacity:1" width="74.751" height="101.015" x="-1011.543" y="3689.283" ry="23.234" rx="23.234" overflow="visible"/></g><rect rx="24.752" ry="24.752" y="3110.115" x="-611.708" height="354.741" width="352.278" style="isolation:auto;mix-blend-mode:normal;solid-color:#000;solid-opacity:1" color="#000" overflow="visible" fill="#6d8897"/><rect rx="23.186" ry="23.186" y="3187.787" x="-590.333" height="238.813" width="309.529" style="isolation:auto;mix-blend-mode:normal;solid-color:#000;solid-opacity:1" color="#000" overflow="visible" fill="#fff"/><g transform="translate(-94.365 1839.628) scale(.57382)" fill="#455762" color="#000"><rect rx="40.406" transform="scale(1 -1)" ry="40.406" y="-2325.214" x="-865.216" height="183.848" width="80.812" style="isolation:auto;mix-blend-mode:normal;solid-color:#000;solid-opacity:1" overflow="visible"/><rect rx="5.556" ry="5.556" y="2169.65" x="-860.165" height="125.259" width="11.112" style="isolation:auto;mix-blend-mode:normal;solid-color:#000;solid-opacity:1" overflow="visible"/><rect rx="23.234" style="isolation:auto;mix-blend-mode:normal;solid-color:#000;solid-opacity:1" width="46.467" height="134.35" x="-839.962" y="2165.61" ry="23.234" overflow="visible"/></g><g transform="translate(35.304 1839.628) scale(.57382)" fill="#455762" color="#000"><rect rx="40.406" transform="scale(1 -1)" ry="40.406" y="-2325.214" x="-865.216" height="183.848" width="80.812" style="isolation:auto;mix-blend-mode:normal;solid-color:#000;solid-opacity:1" overflow="visible"/><rect rx="5.556" ry="5.556" y="2169.65" x="-860.165" height="125.259" width="11.112" style="isolation:auto;mix-blend-mode:normal;solid-color:#000;solid-opacity:1" overflow="visible"/><rect rx="23.234" style="isolation:auto;mix-blend-mode:normal;solid-color:#000;solid-opacity:1" width="46.467" height="134.35" x="-839.962" y="2165.61" ry="23.234" overflow="visible"/></g><g transform="translate(164.973 1839.628) scale(.57382)" fill="#455762" color="#000"><rect rx="40.406" transform="scale(1 -1)" ry="40.406" y="-2325.214" x="-865.216" height="183.848" width="80.812" style="isolation:auto;mix-blend-mode:normal;solid-color:#000;solid-opacity:1" overflow="visible"/><rect rx="5.556" ry="5.556" y="2169.65" x="-860.165" height="125.259" width="11.112" style="isolation:auto;mix-blend-mode:normal;solid-color:#000;solid-opacity:1" overflow="visible"/><rect rx="23.234" style="isolation:auto;mix-blend-mode:normal;solid-color:#000;solid-opacity:1" width="46.467" height="134.35" x="-839.962" y="2165.61" ry="23.234" overflow="visible"/></g><g style="line-height:.01%"><path d="M-512.73 3273.62h17.64q13.434 0 18.972-6.665 5.64-6.768 5.64-18.767 0-12.819-6.358-19.485-6.358-6.665-18.767-6.665-11.794 0-18.972 6.973-7.076 6.871-7.076 18.357h-19.382l-.205-.616q-.513-16.92 12.203-28.714 12.82-11.896 33.432-11.896 20.715 0 33.021 11.076 12.307 10.973 12.307 31.38 0 9.23-5.64 18.46-5.539 9.127-16.717 13.947 13.435 4.41 18.972 13.844 5.64 9.435 5.64 21.126 0 20.407-13.434 32.098-13.331 11.691-34.15 11.691-20.51 0-33.841-10.973-13.332-11.075-12.819-29.945l.308-.615h19.28q0 11.793 7.178 18.767 7.281 6.973 19.895 6.973 12.819 0 20.1-6.973 7.281-6.974 7.281-20.613 0-13.845-6.46-20.408-6.461-6.563-20.408-6.563h-17.64zm183.875 27.074q0 28.612-12.716 43.892-12.716 15.178-34.765 15.178-21.946 0-34.765-15.28-12.819-15.28-12.819-43.79v-35.38q0-28.509 12.717-43.79 12.716-15.382 34.662-15.382 22.049 0 34.867 15.383 12.82 15.28 12.82 43.79zm-20.202-39.687q0-19.382-7.076-29.124-6.974-9.845-20.408-9.845-13.23 0-20.203 9.845-6.973 9.742-6.973 29.124v43.79q0 19.382 7.076 29.33 7.076 9.844 20.305 9.844 13.434 0 20.305-9.845 6.974-9.845 6.974-29.33z" style="line-height:1.25;-inkscape-font-specification:'Roboto Slab'" aria-label="30" font-weight="400" font-family="Roboto Slab" letter-spacing="0" word-spacing="0" fill="#f95d95" font-size="366.014"/></g><g style="line-height:.01%"><path d="M230.01 3278.628h-85.527v-16.818h85.527zm0 42.661h-85.527v-16.818h85.527zm135.266-109.729q7.589 0 15.075 1.743 7.589 1.743 12.511 4.41l-3.897 15.075q-4.82-2.36-10.563-3.795-5.743-1.538-13.126-1.538-15.69 0-25.023 11.896-9.23 11.793-9.845 35.688l.41.41q5.743-5.333 14.05-8.41 8.307-3.178 17.946-3.178 19.998 0 31.894 13.844 11.896 13.844 11.896 35.073 0 23.176-12.716 37.841-12.614 14.562-33.74 14.562-21.843 0-36.2-15.895-14.358-15.896-14.358-45.02v-20.1q0-35.483 15.588-54.045 15.588-18.562 40.098-18.562zm-6.871 67.376q-10.358 0-17.64 4.204-7.28 4.102-11.075 11.076v11.998q0 20.818 8.615 31.996 8.717 11.178 21.843 11.178 12.409 0 19.28-10.46 6.973-10.563 6.973-26.15 0-14.768-7.486-24.305-7.384-9.537-20.51-9.537zm124.189-67.376q7.59 0 15.076 1.743 7.588 1.743 12.51 4.41l-3.896 15.075q-4.82-2.36-10.563-3.795-5.743-1.538-13.127-1.538-15.69 0-25.022 11.896-9.23 11.793-9.845 35.688l.41.41q5.743-5.333 14.05-8.41 8.306-3.178 17.946-3.178 19.998 0 31.894 13.844 11.896 13.844 11.896 35.073 0 23.176-12.717 37.841-12.614 14.562-33.74 14.562-21.843 0-36.2-15.895-14.357-15.896-14.357-45.02v-20.1q0-35.483 15.588-54.045 15.588-18.562 40.097-18.562zm-6.87 67.376q-10.358 0-17.64 4.204-7.28 4.102-11.075 11.076v11.998q0 20.818 8.614 31.996 8.717 11.178 21.844 11.178 12.409 0 19.28-10.46 6.973-10.563 6.973-26.15 0-14.768-7.486-24.305-7.384-9.537-20.51-9.537zm192.078 70.863q-5.435 7.588-13.331 11.485-7.794 3.897-18.152 3.897-20.305 0-31.791-14.665-11.383-14.767-11.383-38.764v-2.153q0-26.766 11.383-43.175 11.486-16.408 31.996-16.408 9.845 0 17.331 3.692 7.589 3.59 12.922 10.46v-45.225l-16.716-2.871v-13.024h36.918v144.187l16.716 2.871v12.922h-34.252zm-54.455-38.047q0 16.716 6.871 26.869 6.871 10.152 21.229 10.152 9.024 0 15.177-4.102 6.153-4.102 10.153-11.588v-51.481q-3.897-6.973-10.153-11.076-6.256-4.102-14.972-4.102-14.46 0-21.434 11.999-6.87 11.998-6.87 31.176zm178.03 51.276q-.923-4.512-1.436-8.102-.513-3.59-.718-7.178-5.845 7.486-14.665 12.51-8.717 4.923-18.664 4.923-17.331 0-26.356-8.409-9.024-8.512-9.024-23.894 0-15.793 12.716-24.305 12.819-8.614 35.073-8.614h20.817v-12.922q0-9.742-6.153-15.382-6.153-5.743-17.126-5.743-7.589 0-13.434 1.948-5.743 1.949-9.332 5.333l-2.154 11.69h-15.587v-21.535q7.588-6.05 18.356-9.64 10.768-3.692 23.382-3.692 18.87 0 30.56 9.64 11.691 9.64 11.691 27.586v57.634q.103 2.051.308 4.102l8.204 1.128v12.922zm-32.51-14.768q10.05 0 18.357-4.82 8.307-4.82 11.896-11.588v-18.254h-21.535q-12.41 0-19.69 5.743-7.179 5.743-7.179 13.947 0 7.281 4.512 11.178 4.513 3.794 13.64 3.794zm179.568-83.169l-9.947 1.539-42.251 113.421q-4.205 11.178-12.101 19.485-7.897 8.307-21.229 8.307-2.358 0-6.153-.616-3.794-.512-5.845-1.025l2.05-15.896q-.614-.102 3.59.206 4.307.307 5.435.307 6.461 0 10.46-5.64 4-5.538 6.974-12.82l4.82-11.485-36.61-94.142-10.153-1.64v-13.025h44.815v13.024l-12.512 2.051 19.177 54.763 3.692 14.152h.616l23.074-68.915-12.614-2.05v-13.025h44.712zm98.86 21.844h-15.178l-3.281-13.332q-3.692-3.487-9.333-5.538-5.537-2.153-12.613-2.153-10.768 0-15.998 4.717-5.23 4.717-5.23 11.383 0 6.564 4.614 10.358 4.615 3.794 18.767 6.768 21.023 4.513 31.278 12.306 10.255 7.692 10.255 20.716 0 14.767-11.998 23.894-11.896 9.127-31.176 9.127-12.614 0-22.664-2.871-10.05-2.974-17.946-8.512l-.103-25.33h15.178l3.794 14.87q3.487 3.179 9.435 4.615 6.05 1.435 12.306 1.435 10.768 0 16.819-4.307 6.153-4.41 6.153-11.485 0-6.666-5.128-10.973-5.025-4.308-19.177-7.487-20.202-4.41-30.458-11.998-10.255-7.589-10.255-20.51 0-13.537 11.486-23.075 11.588-9.537 30.048-9.537 12.613 0 22.663 3.282 10.05 3.281 16.716 9.127z" style="line-height:1.25;-inkscape-font-specification:'Roboto Slab'" aria-label="= 66 days" font-weight="400" font-family="Roboto Slab" letter-spacing="0" word-spacing="0" fill="#f95d95" font-size="366.014"/></g><g transform="translate(-297.853 1634.803) scale(.57382)" fill="#f81f6c" color="#000"><g transform="translate(542.13 34.286)"><rect rx="23.234" style="isolation:auto;mix-blend-mode:normal;solid-color:#000;solid-opacity:1" width="74.751" height="101.015" x="-1075.287" y="3189.569" ry="23.234" overflow="visible"/><rect rx="23.234" style="isolation:auto;mix-blend-mode:normal;solid-color:#000;solid-opacity:1" width="74.751" height="101.015" x="-990.026" y="3189.569" ry="23.234" overflow="visible"/><rect rx="23.234" style="isolation:auto;mix-blend-mode:normal;solid-color:#000;solid-opacity:1" width="74.751" height="101.015" x="-904.766" y="3189.569" ry="23.234" overflow="visible"/><rect rx="23.234" style="isolation:auto;mix-blend-mode:normal;solid-color:#000;solid-opacity:1" width="74.751" height="101.015" x="-734.246" y="3189.569" ry="23.234" overflow="visible"/><rect rx="23.234" style="isolation:auto;mix-blend-mode:normal;solid-color:#000;solid-opacity:1" width="74.751" height="101.015" x="-648.985" y="3189.569" ry="23.234" overflow="visible"/><rect rx="23.234" style="isolation:auto;mix-blend-mode:normal;solid-color:#000;solid-opacity:1" width="74.751" height="101.015" x="-563.725" y="3189.569" ry="23.234" overflow="visible"/><rect rx="23.234" style="isolation:auto;mix-blend-mode:normal;solid-color:#000;solid-opacity:1" width="74.751" height="101.015" x="-819.506" y="3189.569" ry="23.234" overflow="visible"/></g><g transform="translate(542.13 150.902)"><rect rx="23.234" style="isolation:auto;mix-blend-mode:normal;solid-color:#000;solid-opacity:1" width="74.751" height="101.015" x="-1075.287" y="3189.569" ry="23.234" overflow="visible"/><rect rx="23.234" style="isolation:auto;mix-blend-mode:normal;solid-color:#000;solid-opacity:1" width="74.751" height="101.015" x="-990.026" y="3189.569" ry="23.234" overflow="visible"/><rect rx="23.234" style="isolation:auto;mix-blend-mode:normal;solid-color:#000;solid-opacity:1" width="74.751" height="101.015" x="-904.766" y="3189.569" ry="23.234" overflow="visible"/><rect rx="23.234" style="isolation:auto;mix-blend-mode:normal;solid-color:#000;solid-opacity:1" width="74.751" height="101.015" x="-734.246" y="3189.569" ry="23.234" overflow="visible"/><rect rx="23.234" style="isolation:auto;mix-blend-mode:normal;solid-color:#000;solid-opacity:1" width="74.751" height="101.015" x="-648.985" y="3189.569" ry="23.234" overflow="visible"/><rect rx="23.234" style="isolation:auto;mix-blend-mode:normal;solid-color:#000;solid-opacity:1" width="74.751" height="101.015" x="-563.725" y="3189.569" ry="23.234" overflow="visible"/><rect rx="23.234" style="isolation:auto;mix-blend-mode:normal;solid-color:#000;solid-opacity:1" width="74.751" height="101.015" x="-819.506" y="3189.569" ry="23.234" overflow="visible"/></g><g transform="translate(542.13 267.518)"><rect rx="23.234" style="isolation:auto;mix-blend-mode:normal;solid-color:#000;solid-opacity:1" width="74.751" height="101.015" x="-1075.287" y="3189.569" ry="23.234" overflow="visible"/><rect rx="23.234" style="isolation:auto;mix-blend-mode:normal;solid-color:#000;solid-opacity:1" width="74.751" height="101.015" x="-990.026" y="3189.569" ry="23.234" overflow="visible"/><rect rx="23.234" style="isolation:auto;mix-blend-mode:normal;solid-color:#000;solid-opacity:1" width="74.751" height="101.015" x="-904.766" y="3189.569" ry="23.234" overflow="visible"/><rect rx="23.234" style="isolation:auto;mix-blend-mode:normal;solid-color:#000;solid-opacity:1" width="74.751" height="101.015" x="-734.246" y="3189.569" ry="23.234" overflow="visible"/><rect rx="23.234" style="isolation:auto;mix-blend-mode:normal;solid-color:#000;solid-opacity:1" width="74.751" height="101.015" x="-648.985" y="3189.569" ry="23.234" overflow="visible"/><rect rx="23.234" style="isolation:auto;mix-blend-mode:normal;solid-color:#000;solid-opacity:1" width="74.751" height="101.015" x="-563.725" y="3189.569" ry="23.234" overflow="visible"/><rect rx="23.234" style="isolation:auto;mix-blend-mode:normal;solid-color:#000;solid-opacity:1" width="74.751" height="101.015" x="-819.506" y="3189.569" ry="23.234" overflow="visible"/></g><g transform="translate(542.13 384.134)"><rect rx="23.234" style="isolation:auto;mix-blend-mode:normal;solid-color:#000;solid-opacity:1" width="74.751" height="101.015" x="-1075.287" y="3189.569" ry="23.234" overflow="visible"/><rect rx="23.234" style="isolation:auto;mix-blend-mode:normal;solid-color:#000;solid-opacity:1" width="74.751" height="101.015" x="-990.026" y="3189.569" ry="23.234" overflow="visible"/><rect rx="23.234" style="isolation:auto;mix-blend-mode:normal;solid-color:#000;solid-opacity:1" width="74.751" height="101.015" x="-904.766" y="3189.569" ry="23.234" overflow="visible"/><rect rx="23.234" style="isolation:auto;mix-blend-mode:normal;solid-color:#000;solid-opacity:1" width="74.751" height="101.015" x="-734.246" y="3189.569" ry="23.234" overflow="visible"/><rect rx="23.234" style="isolation:auto;mix-blend-mode:normal;solid-color:#000;solid-opacity:1" width="74.751" height="101.015" x="-648.985" y="3189.569" ry="23.234" overflow="visible"/><rect rx="23.234" style="isolation:auto;mix-blend-mode:normal;solid-color:#000;solid-opacity:1" width="74.751" height="101.015" x="-563.725" y="3189.569" ry="23.234" overflow="visible"/><rect rx="23.234" style="isolation:auto;mix-blend-mode:normal;solid-color:#000;solid-opacity:1" width="74.751" height="101.015" x="-819.506" y="3189.569" ry="23.234" overflow="visible"/></g><rect rx="23.234" style="isolation:auto;mix-blend-mode:normal;solid-color:#000;solid-opacity:1" width="74.751" height="101.015" x="-536.595" y="3684.82" ry="23.234" overflow="visible"/><rect rx="23.234" style="isolation:auto;mix-blend-mode:normal;solid-color:#000;solid-opacity:1" width="74.751" height="101.015" x="-451.334" y="3684.82" ry="23.234" overflow="visible"/></g><rect rx="24.752" style="isolation:auto;mix-blend-mode:normal;solid-color:#000;solid-opacity:1" width="352.278" height="354.741" x="-239.816" y="3111.608" ry="24.752" color="#000" overflow="visible" fill="#6d8897"/><rect rx="23.186" style="isolation:auto;mix-blend-mode:normal;solid-color:#000;solid-opacity:1" width="309.529" height="238.813" x="-218.442" y="3189.28" ry="23.186" color="#000" overflow="visible" fill="#fff"/><g transform="translate(277.527 1841.121) scale(.57382)" fill="#455762" color="#000"><rect rx="40.406" style="isolation:auto;mix-blend-mode:normal;solid-color:#000;solid-opacity:1" width="80.812" height="183.848" x="-865.216" y="-2325.214" ry="40.406" transform="scale(1 -1)" overflow="visible"/><rect rx="5.556" style="isolation:auto;mix-blend-mode:normal;solid-color:#000;solid-opacity:1" width="11.112" height="125.259" x="-860.165" y="2169.65" ry="5.556" overflow="visible"/><rect rx="23.234" ry="23.234" y="2165.61" x="-839.962" height="134.35" width="46.467" style="isolation:auto;mix-blend-mode:normal;solid-color:#000;solid-opacity:1" overflow="visible"/></g><g transform="translate(407.196 1841.121) scale(.57382)" fill="#455762" color="#000"><rect rx="40.406" style="isolation:auto;mix-blend-mode:normal;solid-color:#000;solid-opacity:1" width="80.812" height="183.848" x="-865.216" y="-2325.214" ry="40.406" transform="scale(1 -1)" overflow="visible"/><rect rx="5.556" style="isolation:auto;mix-blend-mode:normal;solid-color:#000;solid-opacity:1" width="11.112" height="125.259" x="-860.165" y="2169.65" ry="5.556" overflow="visible"/><rect rx="23.234" ry="23.234" y="2165.61" x="-839.962" height="134.35" width="46.467" style="isolation:auto;mix-blend-mode:normal;solid-color:#000;solid-opacity:1" overflow="visible"/></g><g transform="translate(536.865 1841.121) scale(.57382)" fill="#455762" color="#000"><rect rx="40.406" style="isolation:auto;mix-blend-mode:normal;solid-color:#000;solid-opacity:1" width="80.812" height="183.848" x="-865.216" y="-2325.214" ry="40.406" transform="scale(1 -1)" overflow="visible"/><rect rx="5.556" style="isolation:auto;mix-blend-mode:normal;solid-color:#000;solid-opacity:1" width="11.112" height="125.259" x="-860.165" y="2169.65" ry="5.556" overflow="visible"/><rect rx="23.234" ry="23.234" y="2165.61" x="-839.962" height="134.35" width="46.467" style="isolation:auto;mix-blend-mode:normal;solid-color:#000;solid-opacity:1" overflow="visible"/></g><g style="line-height:.01%"><path d="M-35.004 3239.324l-1.948-11.588h-44.61l-4.82 41.943q4.615-3.487 10.358-5.743 5.845-2.359 13.434-2.564 20.613-.205 32.406 13.435 11.896 13.639 11.896 36.713 0 22.459-12.1 36.098-12 13.64-35.073 13.64-18.972 0-31.586-10.358-12.512-10.358-11.999-30.458l.205-.615h18.254q0 12.1 6.974 18.87 7.076 6.767 18.152 6.767 12.818 0 19.894-9.024 7.077-9.025 7.077-24.715 0-14.46-7.18-23.587-7.075-9.23-19.689-9.23-11.896 0-17.331 3.59-5.333 3.59-7.794 10.973l-16.818-1.743 8.614-81.939h78.862v29.535z" style="line-height:1.25;-inkscape-font-specification:'Roboto Slab'" font-size="366.014" font-family="Roboto Slab" aria-label="5" font-weight="400" letter-spacing="0" word-spacing="0" fill="#f95d95"/></g><g transform="translate(-297.853 1634.803) scale(.57382)" fill="#f81f6c" color="#000"><rect rx="23.234" style="isolation:auto;mix-blend-mode:normal;solid-color:#000;solid-opacity:1" width="74.751" height="101.015" x="116.664" y="3223.855" ry="23.234" overflow="visible"/><rect rx="23.234" style="isolation:auto;mix-blend-mode:normal;solid-color:#000;solid-opacity:1" width="74.751" height="101.015" x="201.925" y="3223.855" ry="23.234" overflow="visible"/><rect rx="23.234" style="isolation:auto;mix-blend-mode:normal;solid-color:#000;solid-opacity:1" width="74.751" height="101.015" x="287.185" y="3223.855" ry="23.234" overflow="visible"/><rect rx="23.234" style="isolation:auto;mix-blend-mode:normal;solid-color:#000;solid-opacity:1" width="74.751" height="101.015" x="457.705" y="3223.855" ry="23.234" overflow="visible"/><rect rx="23.234" style="isolation:auto;mix-blend-mode:normal;solid-color:#000;solid-opacity:1" width="74.751" height="101.015" x="372.445" y="3223.855" ry="23.234" overflow="visible"/></g><g transform="translate(-297.853 1634.803) scale(.57382)" fill="#fff" color="#000"><rect rx="23.234" style="isolation:auto;mix-blend-mode:normal;solid-color:#000;solid-opacity:1" width="74.751" height="101.015" x="542.966" y="3223.855" ry="23.234" overflow="visible"/><rect rx="23.234" style="isolation:auto;mix-blend-mode:normal;solid-color:#000;solid-opacity:1" width="74.751" height="101.015" x="628.226" y="3223.855" ry="23.234" overflow="visible"/><g transform="translate(1191.951 150.902)"><rect rx="23.234" style="isolation:auto;mix-blend-mode:normal;solid-color:#000;solid-opacity:1" width="74.751" height="101.015" x="-1075.287" y="3189.569" ry="23.234" overflow="visible"/><rect rx="23.234" style="isolation:auto;mix-blend-mode:normal;solid-color:#000;solid-opacity:1" width="74.751" height="101.015" x="-990.026" y="3189.569" ry="23.234" overflow="visible"/><rect rx="23.234" style="isolation:auto;mix-blend-mode:normal;solid-color:#000;solid-opacity:1" width="74.751" height="101.015" x="-904.766" y="3189.569" ry="23.234" overflow="visible"/><rect rx="23.234" style="isolation:auto;mix-blend-mode:normal;solid-color:#000;solid-opacity:1" width="74.751" height="101.015" x="-734.246" y="3189.569" ry="23.234" overflow="visible"/><rect rx="23.234" style="isolation:auto;mix-blend-mode:normal;solid-color:#000;solid-opacity:1" width="74.751" height="101.015" x="-648.985" y="3189.569" ry="23.234" overflow="visible"/><rect rx="23.234" style="isolation:auto;mix-blend-mode:normal;solid-color:#000;solid-opacity:1" width="74.751" height="101.015" x="-563.725" y="3189.569" ry="23.234" overflow="visible"/><rect rx="23.234" style="isolation:auto;mix-blend-mode:normal;solid-color:#000;solid-opacity:1" width="74.751" height="101.015" x="-819.506" y="3189.569" ry="23.234" overflow="visible"/></g><g transform="translate(1191.951 267.518)"><rect rx="23.234" style="isolation:auto;mix-blend-mode:normal;solid-color:#000;solid-opacity:1" width="74.751" height="101.015" x="-1075.287" y="3189.569" ry="23.234" overflow="visible"/><rect rx="23.234" style="isolation:auto;mix-blend-mode:normal;solid-color:#000;solid-opacity:1" width="74.751" height="101.015" x="-990.026" y="3189.569" ry="23.234" overflow="visible"/><rect rx="23.234" style="isolation:auto;mix-blend-mode:normal;solid-color:#000;solid-opacity:1" width="74.751" height="101.015" x="-904.766" y="3189.569" ry="23.234" overflow="visible"/><rect rx="23.234" style="isolation:auto;mix-blend-mode:normal;solid-color:#000;solid-opacity:1" width="74.751" height="101.015" x="-734.246" y="3189.569" ry="23.234" overflow="visible"/><rect rx="23.234" style="isolation:auto;mix-blend-mode:normal;solid-color:#000;solid-opacity:1" width="74.751" height="101.015" x="-648.985" y="3189.569" ry="23.234" overflow="visible"/><rect rx="23.234" style="isolation:auto;mix-blend-mode:normal;solid-color:#000;solid-opacity:1" width="74.751" height="101.015" x="-563.725" y="3189.569" ry="23.234" overflow="visible"/><rect rx="23.234" style="isolation:auto;mix-blend-mode:normal;solid-color:#000;solid-opacity:1" width="74.751" height="101.015" x="-819.506" y="3189.569" ry="23.234" overflow="visible"/></g><g transform="translate(1191.951 384.134)"><rect rx="23.234" style="isolation:auto;mix-blend-mode:normal;solid-color:#000;solid-opacity:1" width="74.751" height="101.015" x="-1075.287" y="3189.569" ry="23.234" overflow="visible"/><rect rx="23.234" style="isolation:auto;mix-blend-mode:normal;solid-color:#000;solid-opacity:1" width="74.751" height="101.015" x="-990.026" y="3189.569" ry="23.234" overflow="visible"/><rect rx="23.234" style="isolation:auto;mix-blend-mode:normal;solid-color:#000;solid-opacity:1" width="74.751" height="101.015" x="-904.766" y="3189.569" ry="23.234" overflow="visible"/><rect rx="23.234" style="isolation:auto;mix-blend-mode:normal;solid-color:#000;solid-opacity:1" width="74.751" height="101.015" x="-734.246" y="3189.569" ry="23.234" overflow="visible"/><rect rx="23.234" style="isolation:auto;mix-blend-mode:normal;solid-color:#000;solid-opacity:1" width="74.751" height="101.015" x="-648.985" y="3189.569" ry="23.234" overflow="visible"/><rect rx="23.234" style="isolation:auto;mix-blend-mode:normal;solid-color:#000;solid-opacity:1" width="74.751" height="101.015" x="-563.725" y="3189.569" ry="23.234" overflow="visible"/><rect rx="23.234" style="isolation:auto;mix-blend-mode:normal;solid-color:#000;solid-opacity:1" width="74.751" height="101.015" x="-819.506" y="3189.569" ry="23.234" overflow="visible"/></g><rect rx="23.234" ry="23.234" y="3684.82" x="113.226" height="101.015" width="74.751" style="isolation:auto;mix-blend-mode:normal;solid-color:#000;solid-opacity:1" overflow="visible"/><rect rx="23.234" ry="23.234" y="3684.82" x="198.486" height="101.015" width="74.751" style="isolation:auto;mix-blend-mode:normal;solid-color:#000;solid-opacity:1" overflow="visible"/><rect rx="23.234" style="isolation:auto;mix-blend-mode:normal;solid-color:#000;solid-opacity:1" width="74.751" height="101.015" x="282.822" y="3684.82" ry="23.234" overflow="visible"/></g><g style="line-height:.01%"><path d="M-611.251 3278.865h43.004v19.137h-43.004v49.348h-21.18v-49.348h-43.112v-19.137h43.112v-45.477h21.18z" style="line-height:1.25;-inkscape-font-specification:'Roboto Slab'" font-size="174.186" font-family="Roboto Slab" aria-label="+" font-weight="400" letter-spacing="0" word-spacing="0" fill="#f95d95"/></g><g style="line-height:.01%"><path d="M-1002.119 2902.01v19.98h-10.424l-.93-10.362h-20.042v71.17l10.114 1.738v7.818h-32.452v-7.818l10.114-1.738v-71.17h-20.104l-.868 10.362h-10.487v-19.98zm6.143 82.526l10.114-1.738v-77.623l-10.114-1.737v-7.88h22.338v38.594q3.475-4.84 8.5-7.508 5.027-2.668 11.17-2.668 10.796 0 16.753 6.453 5.956 6.453 5.956 19.856v32.513l10.114 1.738v7.818h-32.451v-7.818l10.114-1.738v-32.638q0-8.314-3.6-12.285-3.536-3.971-10.61-3.971-5.025 0-9.183 2.42-4.095 2.357-6.763 6.453v40.021l10.114 1.738v7.818h-32.452zm113.984 9.121q-14.023 0-22.337-9.308-8.253-9.369-8.253-24.26v-2.73q0-14.334 8.5-23.828 8.564-9.555 20.229-9.555 13.526 0 20.476 8.19 7.012 8.19 7.012 21.841v7.633h-43.559l-.186.31q.186 9.68 4.902 15.946 4.716 6.205 13.216 6.205 6.205 0 10.859-1.737 4.716-1.8 8.128-4.902l4.778 7.942q-3.599 3.475-9.555 5.895-5.895 2.358-14.21 2.358zm-1.861-60.064q-6.143 0-10.486 5.212-4.344 5.15-5.337 12.969l.124.31h30.963v-1.613q0-7.198-3.847-12.038t-11.417-4.84zm114.79 58.761q-.558-2.73-.868-4.902-.31-2.172-.435-4.344-3.536 4.53-8.873 7.57-5.274 2.979-11.293 2.979-10.486 0-15.946-5.088-5.46-5.15-5.46-14.458 0-9.555 7.694-14.705 7.756-5.212 21.22-5.212h12.596v-7.819q0-5.894-3.723-9.307-3.723-3.475-10.362-3.475-4.591 0-8.128 1.18-3.475 1.178-5.647 3.226l-1.303 7.073h-9.431v-13.03q4.592-3.66 11.107-5.832 6.515-2.234 14.147-2.234 11.417 0 18.49 5.832 7.074 5.833 7.074 16.692v34.87q.062 1.241.186 2.482l4.964.683v7.818zm-19.67-8.935q6.082 0 11.108-2.917 5.026-2.916 7.197-7.011v-11.045h-13.03q-7.508 0-11.913 3.475-4.344 3.475-4.344 8.439 0 4.405 2.73 6.763 2.73 2.296 8.253 2.296zm67.883-50.322l-8.067 1.241 13.837 38.222 1.117 4.84h.372l1.18-4.84 13.402-38.222-8.129-1.241v-7.88h25.937v7.88l-5.523.93-22.523 58.327h-9.246l-22.772-58.326-5.522-.931v-7.88h25.936zm77.87 60.56q-14.022 0-22.337-9.308-8.252-9.369-8.252-24.26v-2.73q0-14.334 8.5-23.828 8.563-9.555 20.228-9.555 13.527 0 20.477 8.19 7.011 8.19 7.011 21.841v7.633h-43.558l-.186.31q.186 9.68 4.902 15.946 4.715 6.205 13.216 6.205 6.205 0 10.859-1.737 4.715-1.8 8.128-4.902l4.778 7.942q-3.6 3.475-9.556 5.895-5.894 2.358-14.21 2.358zm-1.86-60.064q-6.143 0-10.487 5.212-4.343 5.15-5.336 12.969l.124.31h30.963v-1.613q0-7.198-3.848-12.038-3.847-4.84-11.417-4.84zm39.463-.496v-7.88h21.034l1.18 9.741q2.853-5.15 7.01-8.066 4.22-2.916 9.618-2.916 1.427 0 2.917.248 1.55.186 2.357.434l-1.613 11.355-6.95-.372q-4.84 0-8.128 2.296-3.288 2.234-5.088 6.329v38.532l10.114 1.738v7.818h-32.451v-7.818l10.114-1.738v-47.964zm96.424 59.257q-.559-2.73-.869-4.902-.31-2.172-.434-4.344-3.537 4.53-8.873 7.57-5.274 2.979-11.293 2.979-10.486 0-15.947-5.088-5.46-5.15-5.46-14.458 0-9.555 7.694-14.705 7.756-5.212 21.22-5.212h12.597v-7.819q0-5.894-3.723-9.307-3.723-3.475-10.362-3.475-4.592 0-8.129 1.18-3.475 1.178-5.646 3.226l-1.303 7.073h-9.432v-13.03q4.592-3.66 11.107-5.832 6.515-2.234 14.147-2.234 11.417 0 18.49 5.832 7.074 5.833 7.074 16.692v34.87q.062 1.241.186 2.482l4.964.683v7.818zm-19.67-8.935q6.081 0 11.107-2.917 5.026-2.916 7.198-7.011v-11.045h-13.03q-7.509 0-11.914 3.475-4.343 3.475-4.343 8.439 0 4.405 2.73 6.763 2.73 2.296 8.252 2.296zm45.916-23.393q0-16.195 7.074-26.122 7.074-9.928 19.545-9.928 6.33 0 11.107 2.482 4.778 2.482 8.005 7.197l1.116-8.438h10.3v66.268q0 13.03-7.26 20.476-7.259 7.508-20.661 7.508-4.84 0-10.487-1.365-5.646-1.303-9.928-3.599l3.165-9.493q3.413 1.8 8.066 2.978 4.654 1.179 9.06 1.179 8.19 0 11.975-4.592 3.847-4.591 3.847-13.092v-6.391q-3.289 4.22-7.88 6.391-4.592 2.172-10.549 2.172-12.347 0-19.421-8.935t-7.074-23.393zm12.224 1.303q0 10.114 4.281 16.257 4.282 6.143 13.03 6.143 5.523 0 9.246-2.482 3.723-2.544 6.143-7.136v-30.9q-2.358-4.281-6.143-6.763-3.785-2.544-9.121-2.544-8.749 0-13.092 7.321-4.344 7.322-4.344 18.801zm90.343 32.328q-14.023 0-22.337-9.308-8.253-9.369-8.253-24.26v-2.73q0-14.334 8.501-23.828 8.563-9.555 20.228-9.555 13.527 0 20.476 8.19 7.012 8.19 7.012 21.841v7.633h-43.559l-.186.31q.186 9.68 4.902 15.946 4.716 6.205 13.216 6.205 6.205 0 10.859-1.737 4.716-1.8 8.128-4.902l4.778 7.942q-3.599 3.475-9.555 5.895-5.895 2.358-14.21 2.358zm-1.861-60.064q-6.143 0-10.486 5.212-4.344 5.15-5.337 12.969l.125.31h30.962v-1.613q0-7.198-3.847-12.038t-11.417-4.84zm92.329-24.571v16.195h12.72v9.059h-12.72v40.766q0 4.716 1.923 6.64 1.986 1.923 5.212 1.923 1.614 0 3.6-.248 2.047-.31 3.412-.62l1.675 8.376q-1.737 1.117-5.088 1.8-3.35.744-6.701.744-7.446 0-11.851-4.468-4.406-4.53-4.406-14.147v-40.766h-10.61v-9.06h10.61v-16.194zm25.316 75.514l10.114-1.738v-47.964l-10.114-1.737v-7.88h22.337v57.581l10.114 1.738v7.818h-32.451zm22.337-76.507h-12.223v-12.472h12.223zm16.939 76.507l10.115-1.738v-47.964l-10.114-1.737v-7.88h21.096l.807 8.749q3.227-4.778 8.315-7.384 5.088-2.606 11.789-2.606t11.479 3.102q4.84 3.103 7.26 9.308 3.164-5.709 8.376-9.06 5.212-3.35 12.162-3.35 10.3 0 16.257 7.073 5.957 7.012 5.957 21.16v30.59l10.113 1.737v7.818h-32.513v-7.818l10.114-1.738v-30.714q0-9.928-3.413-14.023-3.413-4.157-10.114-4.157-6.39 0-10.3 4.53-3.847 4.467-4.468 11.292v33.072l10.114 1.738v7.818h-32.451v-7.818l10.114-1.738v-30.714q0-9.431-3.537-13.775-3.475-4.405-10.114-4.405-5.584 0-9.183 2.295-3.599 2.296-5.523 6.454v40.145l10.114 1.738v7.818h-32.451zm152.703 9.121q-14.023 0-22.337-9.308-8.253-9.369-8.253-24.26v-2.73q0-14.334 8.5-23.828 8.564-9.555 20.229-9.555 13.527 0 20.476 8.19 7.012 8.19 7.012 21.841v7.633h-43.56l-.186.31q.186 9.68 4.902 15.946 4.716 6.205 13.216 6.205 6.205 0 10.859-1.737 4.716-1.8 8.128-4.902l4.778 7.942q-3.599 3.475-9.555 5.895-5.895 2.358-14.21 2.358zm-1.861-60.064q-6.143 0-10.486 5.212-4.344 5.15-5.337 12.969l.124.31h30.963v-1.613q0-7.198-3.847-12.038t-11.417-4.84zm92.328-24.571v16.195h12.72v9.059H18.09v40.766q0 4.716 1.924 6.64 1.986 1.923 5.212 1.923 1.614 0 3.6-.248 2.047-.31 3.412-.62l1.675 8.376q-1.737 1.117-5.088 1.8-3.35.744-6.701.744-7.446 0-11.851-4.468-4.406-4.53-4.406-14.147v-40.766h-10.61v-9.06h10.61v-16.194zm24.138 49.143q0-14.892 8.066-24.51 8.067-9.68 21.903-9.68 13.9 0 21.966 9.618 8.128 9.618 8.128 24.572v1.365q0 15.016-8.066 24.571-8.067 9.556-21.903 9.556-13.961 0-22.028-9.556-8.066-9.617-8.066-24.571zm12.223 1.365q0 10.672 4.468 17.622 4.53 6.95 13.403 6.95 8.686 0 13.216-6.95 4.53-6.95 4.53-17.622v-1.365q0-10.549-4.53-17.56-4.53-7.012-13.34-7.012-8.811 0-13.279 7.012-4.468 7.011-4.468 17.56zm89.289-25.254v-9.06h10.486v-8.5q0-10.734 5.585-16.567 5.646-5.895 15.698-5.895 2.11 0 4.22.373 2.171.31 4.777.93l-1.49 9.308q-1.116-.248-2.73-.435-1.55-.186-3.226-.186-5.398 0-8.004 3.227-2.606 3.164-2.606 9.245v8.5h14.023v9.06H166.45v48.522l10.114 1.738v7.818h-32.452v-7.818l10.114-1.738v-48.522zm46.413 23.889q0-14.892 8.066-24.51 8.066-9.68 21.903-9.68 13.9 0 21.966 9.618 8.128 9.618 8.128 24.572v1.365q0 15.016-8.066 24.571-8.067 9.556-21.904 9.556-13.96 0-22.027-9.556-8.066-9.617-8.066-24.571zm12.223 1.365q0 10.672 4.468 17.622 4.53 6.95 13.402 6.95 8.687 0 13.217-6.95 4.53-6.95 4.53-17.622v-1.365q0-10.549-4.53-17.56-4.53-7.012-13.34-7.012-8.812 0-13.28 7.012-4.467 7.011-4.467 17.56zm58.947-26.433v-7.88h21.034l1.18 9.741q2.854-5.15 7.01-8.066 4.22-2.916 9.618-2.916 1.428 0 2.917.248 1.55.186 2.358.434l-1.614 11.355-6.95-.372q-4.839 0-8.128 2.296-3.288 2.234-5.088 6.329v38.532l10.114 1.738v7.818h-32.451v-7.818l10.114-1.738v-47.964zm50.197 51.439l10.114-1.738v-47.964l-10.114-1.737v-7.88h21.097l.807 8.749q3.226-4.778 8.314-7.384 5.088-2.606 11.79-2.606 6.7 0 11.479 3.102 4.84 3.103 7.26 9.308 3.164-5.709 8.376-9.06 5.212-3.35 12.162-3.35 10.3 0 16.256 7.073 5.957 7.012 5.957 21.16v30.59l10.114 1.737v7.818h-32.514v-7.818l10.114-1.738v-30.714q0-9.928-3.412-14.023-3.413-4.157-10.114-4.157-6.391 0-10.3 4.53-3.848 4.467-4.468 11.292v33.072l10.114 1.738v7.818H352.1v-7.818l10.114-1.738v-30.714q0-9.431-3.536-13.775-3.475-4.405-10.114-4.405-5.585 0-9.184 2.295-3.599 2.296-5.522 6.454v40.145l10.114 1.738v7.818H311.52zm197.875 7.818q-.559-2.73-.87-4.902-.31-2.172-.433-4.344-3.537 4.53-8.874 7.57-5.274 2.979-11.292 2.979-10.487 0-15.947-5.088-5.46-5.15-5.46-14.458 0-9.555 7.694-14.705 7.756-5.212 21.22-5.212h12.596v-7.819q0-5.894-3.722-9.307-3.723-3.475-10.363-3.475-4.591 0-8.128 1.18-3.475 1.178-5.646 3.226l-1.304 7.073h-9.431v-13.03q4.592-3.66 11.107-5.832 6.515-2.234 14.147-2.234 11.417 0 18.49 5.832 7.074 5.833 7.074 16.692v34.87q.062 1.241.186 2.482l4.964.683v7.818zm-19.67-8.935q6.08 0 11.107-2.917 5.026-2.916 7.197-7.011v-11.045H495q-7.508 0-11.913 3.475-4.344 3.475-4.344 8.439 0 4.405 2.73 6.763 2.73 2.296 8.253 2.296zm75.7 1.117l10.114-1.738v-77.623l-10.114-1.737v-7.88h22.337v38.594q3.475-4.84 8.501-7.508t11.169-2.668q10.796 0 16.753 6.453 5.957 6.453 5.957 19.856v32.513l10.114 1.738v7.818h-32.452v-7.818l10.114-1.738v-32.638q0-8.314-3.599-12.285-3.536-3.971-10.61-3.971-5.026 0-9.183 2.42-4.095 2.357-6.764 6.453v40.021l10.114 1.738v7.818h-32.451zm127.635 7.818q-.559-2.73-.87-4.902-.31-2.172-.434-4.344-3.536 4.53-8.872 7.57-5.275 2.979-11.293 2.979-10.487 0-15.947-5.088-5.46-5.15-5.46-14.458 0-9.555 7.694-14.705 7.756-5.212 21.22-5.212h12.596v-7.819q0-5.894-3.723-9.307-3.722-3.475-10.362-3.475-4.591 0-8.128 1.18-3.475 1.178-5.647 3.226l-1.303 7.073H653.1v-13.03q4.592-3.66 11.107-5.832 6.515-2.234 14.147-2.234 11.417 0 18.49 5.832 7.074 5.833 7.074 16.692v34.87q.062 1.241.186 2.482l4.964.683v7.818zm-19.67-8.935q6.08 0 11.107-2.917 5.026-2.916 7.197-7.011v-11.045h-13.03q-7.508 0-11.913 3.475-4.344 3.475-4.344 8.439 0 4.405 2.73 6.763 2.73 2.296 8.253 2.296zm107.283-22.089q0 14.519-7.012 23.454-6.95 8.873-19.173 8.873-6.577 0-11.417-2.482-4.84-2.544-8.066-7.446l-1.117 8.625h-10.549v-87.18l-10.114-1.736v-7.88h22.338v37.601q3.165-4.467 7.818-6.825 4.716-2.358 10.983-2.358 12.41 0 19.36 9.928 6.949 9.927 6.949 26.122zm-12.286-1.304q0-11.603-4.22-18.863-4.219-7.26-12.906-7.26-5.646 0-9.555 2.73-3.847 2.731-6.143 7.323v29.659q2.296 4.654 6.205 7.384 3.971 2.73 9.618 2.73 8.624 0 12.782-6.143 4.219-6.143 4.219-16.257zm24.571 24.51l10.114-1.738v-47.964l-10.114-1.737v-7.88h22.338v57.581l10.114 1.738v7.818h-32.452zm22.338-76.507h-12.224v-12.472h12.224zm40.704.993v16.195h12.72v9.059H856v40.766q0 4.716 1.924 6.64 1.985 1.923 5.212 1.923 1.613 0 3.599-.248 2.047-.31 3.412-.62l1.676 8.376q-1.738 1.117-5.088 1.8-3.351.744-6.702.744-7.446 0-11.851-4.468-4.406-4.53-4.406-14.147v-40.766h-10.61v-9.06h10.61v-16.194zm56.837 75.514l10.114-1.738v-47.964l-10.114-1.737v-7.88h22.338v57.581l10.114 1.738v7.818h-32.452zm22.338-76.507H922.95v-12.472h12.224zm70.735 38.284h-9.183l-1.985-8.066q-2.234-2.11-5.647-3.35-3.35-1.304-7.632-1.304-6.515 0-9.68 2.855-3.164 2.854-3.164 6.887 0 3.971 2.792 6.267 2.792 2.296 11.355 4.095 12.72 2.73 18.925 7.446 6.205 4.654 6.205 12.534 0 8.935-7.26 14.457-7.197 5.523-18.863 5.523-7.632 0-13.712-1.738-6.081-1.799-10.859-5.15l-.062-15.326h9.183l2.296 8.997q2.11 1.924 5.709 2.793 3.66.868 7.445.868 6.516 0 10.176-2.606 3.723-2.668 3.723-6.95 0-4.032-3.102-6.639-3.04-2.606-11.603-4.53-12.224-2.667-18.429-7.259-6.205-4.591-6.205-12.41 0-8.19 6.95-13.96 7.011-5.771 18.18-5.771 7.632 0 13.713 1.985 6.08 1.986 10.114 5.523z" style="line-height:110.00000238%;-inkscape-font-specification:'Roboto Slab';text-align:end" aria-label="The average time to form a habit is" font-weight="400" font-family="Roboto Slab" letter-spacing="0" word-spacing="0" fill="#f95d95" font-size="250" text-anchor="end"/></g><g style="line-height:.01%;text-align:start"><path d="M572.063 3830.208h-4.85v43.21h4.85v4.02h-9.96v-51.25h9.96zm2.646 39.139v-3.268l4.228-.727v-29.749l-4.228-.726v-3.294h13.565v3.294l-4.228.726v29.75h13.124l.389-4.332h4.357v8.326zm49.901 0q-.233-1.142-.362-2.05-.13-.907-.182-1.815-1.478 1.893-3.709 3.164-2.204 1.245-4.72 1.245-4.384 0-6.666-2.127-2.282-2.152-2.282-6.043 0-3.994 3.216-6.147 3.242-2.178 8.87-2.178h5.265v-3.268q0-2.464-1.556-3.89-1.556-1.453-4.331-1.453-1.92 0-3.398.492-1.453.493-2.36 1.35l-.545 2.956h-3.942v-5.447q1.919-1.53 4.642-2.438 2.724-.933 5.914-.933 4.772 0 7.729 2.438t2.957 6.976v14.577q.026.518.077 1.037l2.075.286v3.268zm-8.221-3.735q2.542 0 4.643-1.22 2.1-1.218 3.008-2.93v-4.617h-5.446q-3.139 0-4.98 1.453-1.816 1.452-1.816 3.527 0 1.841 1.141 2.827 1.142.96 3.45.96zm18.467-33.432v-3.294h9.337v36.466l4.227.727v3.268h-13.564v-3.268l4.227-.727v-32.446zm16.703 0v-3.294h9.337v36.466l4.228.727v3.268h-13.565v-3.268l4.227-.727v-32.446zm44.066 12.397l-2.516.39-10.686 28.685q-1.063 2.827-3.06 4.928-1.997 2.1-5.37 2.1-.596 0-1.555-.155-.96-.13-1.479-.26l.519-4.02q-.156-.025.908.052 1.09.078 1.374.078 1.634 0 2.646-1.426 1.011-1.4 1.764-3.242l1.219-2.905-9.26-23.81-2.567-.415v-3.294h11.334v3.294l-3.164.519 4.85 13.85.933 3.58h.156l5.836-17.43-3.19-.519v-3.294h11.308zm29.515 25.314q-5.861 0-9.337-3.89-3.45-3.917-3.45-10.141v-1.142q0-5.991 3.554-9.96 3.58-3.993 8.455-3.993 5.655 0 8.56 3.423 2.93 3.424 2.93 9.13v3.19h-18.207l-.078.13q.078 4.046 2.05 6.665 1.97 2.594 5.524 2.594 2.593 0 4.538-.726 1.972-.752 3.398-2.05l1.997 3.32q-1.504 1.453-3.994 2.465-2.464.985-5.94.985zm-.778-25.106q-2.567 0-4.383 2.178-1.815 2.153-2.23 5.421l.052.13h12.942v-.675q0-3.008-1.608-5.031-1.608-2.023-4.773-2.023zm25.418-10.271v6.77h5.317v3.786h-5.317v17.04q0 1.971.804 2.775.83.804 2.179.804.674 0 1.504-.103.856-.13 1.427-.26l.7 3.502q-.726.467-2.127.752-1.4.311-2.801.311-3.112 0-4.954-1.867-1.841-1.894-1.841-5.914v-17.04h-4.435v-3.787h4.435v-6.77zm42.07 34.833q-.234-1.142-.364-2.05-.13-.907-.182-1.815-1.478 1.893-3.708 3.164-2.205 1.245-4.72 1.245-4.384 0-6.667-2.127-2.282-2.152-2.282-6.043 0-3.994 3.216-6.147 3.242-2.178 8.87-2.178h5.266v-3.268q0-2.464-1.557-3.89-1.556-1.453-4.331-1.453-1.92 0-3.398.492-1.452.493-2.36 1.35l-.545 2.956h-3.942v-5.447q1.92-1.53 4.643-2.438 2.723-.933 5.913-.933 4.773 0 7.73 2.438 2.956 2.438 2.956 6.976v14.577q.026.518.078 1.037l2.075.286v3.268zm-8.223-3.735q2.542 0 4.643-1.22 2.1-1.218 3.009-2.93v-4.617h-5.447q-3.138 0-4.98 1.453-1.815 1.452-1.815 3.527 0 1.841 1.14 2.827 1.142.96 3.45.96zm18.467-33.432v-3.294h9.337v36.466l4.228.727v3.268h-13.565v-3.268l4.228-.727v-32.446zm23.966 37.167h-5.11v-5.24h5.11zm12.06-1.867q0 2.54-1.271 5.316-1.271 2.775-3.424 4.617l-2.879-1.92q1.22-1.867 1.842-3.812.622-1.945.622-4.124v-3.942h5.11zm18 1.867v-3.502l12.371-13.746q3.32-3.71 4.487-5.888 1.194-2.178 1.194-4.46 0-2.828-1.66-4.747-1.66-1.946-4.384-1.946-3.916 0-5.758 1.998-1.841 1.997-1.841 5.654h-4.902l-.052-.156q-.13-4.876 3.216-8.196 3.372-3.32 9.337-3.32 5.11 0 8.118 2.983 3.035 2.957 3.035 7.548 0 3.086-1.842 6.172-1.815 3.087-5.135 6.666l-9.934 10.816.052.13h13.41l.414-4.332h4.332v8.326zm54.025-14.395q0 7.236-3.216 11.1-3.216 3.84-8.792 3.84-5.55 0-8.793-3.865-3.242-3.865-3.242-11.075v-8.948q0-7.21 3.216-11.075 3.217-3.89 8.767-3.89 5.576 0 8.818 3.89 3.242 3.864 3.242 11.075zm-5.11-10.038q0-4.902-1.789-7.366-1.763-2.49-5.161-2.49-3.346 0-5.11 2.49-1.763 2.464-1.763 7.366v11.075q0 4.902 1.79 7.418 1.789 2.49 5.135 2.49 3.397 0 5.135-2.49 1.764-2.49 1.764-7.418zm11.361 21.165l5.836-.727v-28.296l-5.94.103v-3.19l11.05-2.386v33.77l5.809.726v3.268h-16.755zm45.934-11.127q0 7.236-3.217 11.1-3.216 3.84-8.792 3.84-5.55 0-8.792-3.865-3.243-3.865-3.243-11.075v-8.948q0-7.21 3.217-11.075 3.216-3.89 8.766-3.89 5.576 0 8.819 3.89 3.242 3.864 3.242 11.075zm-5.11-10.038q0-4.902-1.79-7.366-1.763-2.49-5.16-2.49-3.347 0-5.11 2.49-1.764 2.464-1.764 7.366v11.075q0 4.902 1.79 7.418 1.79 2.49 5.135 2.49 3.398 0 5.135-2.49 1.764-2.49 1.764-7.418zm8.818-18.726h9.986v51.25h-9.986v-4.02h4.877v-43.21h-4.877z" style="line-height:110.00000238%;-inkscape-font-specification:'Roboto Slab';text-align:start" aria-label="[Lally et al., 2010]" font-weight="400" font-family="Roboto Slab" letter-spacing="0" word-spacing="0" fill="#f95d95" font-size="133.523"/></g><g style="line-height:.01%"><path d="M-239.691 3278.935h43.004v19.137h-43.004v49.348h-21.18v-49.348h-43.112v-19.137h43.112v-45.477h21.18z" style="line-height:1.25;-inkscape-font-specification:'Roboto Slab'" font-size="174.186" font-family="Roboto Slab" aria-label="+" font-weight="400" letter-spacing="0" word-spacing="0" fill="#f95d95"/></g></g></svg>