<svg xmlns="http://www.w3.org/2000/svg" width="782.944" height="533.333" viewBox="0 0 207.154 141.111"><g transform="translate(-148.155 236.954)"><path style="isolation:auto;mix-blend-mode:normal;solid-color:#000;solid-opacity:1" d="M157.225-236.954c-5.025 0-9.07 3.443-9.07 7.72v125.67c0 4.277 4.045 7.72 9.07 7.72h92.522v-141.11h-86.332z" color="#000" overflow="visible" fill="#ff9393"/><path style="isolation:auto;mix-blend-mode:normal;solid-color:#000;solid-opacity:1" d="M249.63-236.954v141.11h96.293c5.2 0 9.386-3.443 9.386-7.72v-125.67c0-4.277-4.186-7.72-9.386-7.72h-45.559z" color="#000" overflow="visible" fill="#6dc3d6"/><rect rx="2.636" style="isolation:auto;mix-blend-mode:normal;solid-color:#000;solid-opacity:1" width="6.023" height="18.338" x="258.407" y="-194.944" ry="2.636" color="#000" overflow="visible" fill="#35a4be"/><rect rx="3.913" style="isolation:auto;mix-blend-mode:normal;solid-color:#000;solid-opacity:1" width="13.928" height="24.306" x="245.251" y="-195.046" ry="4.447" color="#000" overflow="visible" fill="#35a4be"/><path d="M184.969-224.43h-.866l-.23-1.284q-.3-.293-.736-.48t-1.04-.187q-1.415 0-2.175 1.028-.76 1.022-.76 2.598v.143q0 1.577.742 2.61.747 1.029 2.068 1.029.617 0 1.121-.193.505-.193.78-.474l.23-1.283h.866v1.613q-.393.505-1.178.904-.785.392-1.819.392-1.77 0-2.903-1.308-1.134-1.308-1.134-3.29v-.13q0-1.994 1.115-3.296 1.115-1.309 2.922-1.309 1.034 0 1.82.405.784.399 1.177.897zm5.701 6.285q-.057-.274-.088-.492-.03-.218-.043-.436-.355.455-.891.76-.53.3-1.134.3-1.053 0-1.601-.512-.549-.517-.549-1.451 0-.96.773-1.477.779-.523 2.13-.523h1.265v-.785q0-.592-.373-.935-.374-.349-1.04-.349-.462 0-.817.119-.349.118-.567.324l-.13.71h-.948v-1.308q.461-.368 1.115-.586.655-.224 1.42-.224 1.147 0 1.858.585.71.586.71 1.676v3.502q.006.124.019.249l.498.068v.785zm-1.976-.897q.611 0 1.116-.293.504-.292.722-.704v-1.109h-1.308q-.754 0-1.196.35-.436.348-.436.847 0 .442.274.679.274.23.828.23zm4.424.112l1.015-.174v-4.816l-1.015-.174v-.792h2.112l.087 1.003q.337-.535.841-.828.511-.3 1.16-.3 1.09 0 1.688.642.598.636.598 1.97v3.295l1.015.174v.785h-3.258v-.785l1.015-.174v-3.27q0-.892-.355-1.266-.349-.373-1.071-.373-.53 0-.941.255-.405.255-.648.698v3.956l1.015.174v.785h-3.258zm9.769-7.544l-.38 1.757h-.604v-3.147h.984zm3.545-.038v1.626h1.277v.91h-1.277v4.093q0 .474.193.667.2.193.524.193.162 0 .36-.025.206-.031.344-.062l.168.84q-.175.113-.511.182-.337.074-.673.074-.748 0-1.19-.448-.442-.455-.442-1.42v-4.094h-1.066v-.91h1.066v-1.626zm5.713 5.122q0-1.627.71-2.623.71-.997 1.963-.997.636 0 1.115.249.48.25.804.723l.112-.848h1.034v6.654q0 1.309-.729 2.056-.729.754-2.074.754-.486 0-1.053-.137-.567-.13-.997-.361l.318-.954q.342.181.81.3.467.118.91.118.822 0 1.202-.461.386-.461.386-1.315v-.641q-.33.423-.791.641-.461.218-1.06.218-1.24 0-1.95-.897t-.71-2.349zm1.228.13q0 1.016.43 1.633.43.616 1.308.616.554 0 .928-.249.374-.255.617-.716v-3.103q-.237-.43-.617-.679-.38-.255-.916-.255-.878 0-1.314.735-.436.735-.436 1.887zm9.071 3.246q-1.408 0-2.243-.934-.829-.941-.829-2.436v-.274q0-1.44.854-2.393.86-.96 2.031-.96 1.358 0 2.056.823.704.822.704 2.193v.766h-4.374l-.018.032q.018.971.492 1.6.473.624 1.327.624.623 0 1.09-.175.474-.18.816-.492l.48.798q-.361.349-.96.591-.591.237-1.426.237zm-.187-6.03q-.617 0-1.053.523-.436.517-.536 1.302l.013.031h3.109v-.162q0-.723-.387-1.209-.386-.486-1.146-.486zm6.106-2.468v1.626h1.277v.91h-1.277v4.093q0 .474.193.667.2.193.523.193.162 0 .361-.025.206-.031.343-.062l.168.84q-.174.113-.51.182-.337.074-.673.074-.748 0-1.19-.448-.443-.455-.443-1.42v-4.094h-1.065v-.91h1.065v-1.626zm10.105 8.367q-.056-.274-.087-.492-.031-.218-.044-.436-.355.455-.89.76-.53.3-1.134.3-1.053 0-1.602-.512-.548-.517-.548-1.451 0-.96.773-1.477.778-.523 2.13-.523h1.265v-.785q0-.592-.374-.935-.374-.349-1.04-.349-.461 0-.816.119-.35.118-.567.324l-.131.71h-.947v-1.308q.46-.368 1.115-.586.654-.224 1.42-.224 1.147 0 1.857.585.71.586.71 1.676v3.502q.006.124.02.249l.498.068v.785zm-1.975-.897q.61 0 1.115-.293.505-.292.723-.704v-1.109h-1.308q-.754 0-1.196.35-.437.348-.437.847 0 .442.275.679.274.23.828.23zm20.953.112l1.015-.174v-7.794l-1.015-.175v-.79h2.242v3.874q.35-.486.854-.753.505-.268 1.121-.268 1.084 0 1.683.648.598.648.598 1.993v3.265l1.015.174v.785h-3.258v-.785l1.015-.174v-3.277q0-.835-.361-1.234-.355-.398-1.065-.398-.505 0-.922.243-.412.236-.68.647v4.019l1.016.174v.785h-3.258zm12.815.785q-.056-.274-.087-.492-.031-.218-.044-.436-.355.455-.89.76-.53.3-1.134.3-1.053 0-1.602-.512-.548-.517-.548-1.451 0-.96.773-1.477.778-.523 2.13-.523h1.265v-.785q0-.592-.374-.935-.373-.349-1.04-.349-.461 0-.816.119-.35.118-.567.324l-.131.71h-.947v-1.308q.461-.368 1.115-.586.654-.224 1.42-.224 1.147 0 1.857.585.71.586.71 1.676v3.502q.007.124.02.249l.498.068v.785zm-1.975-.897q.61 0 1.115-.293.505-.292.723-.704v-1.109h-1.308q-.754 0-1.196.35-.437.348-.437.847 0 .442.275.679.274.23.828.23zm10.772-2.218q0 1.458-.704 2.355-.697.891-1.925.891-.66 0-1.146-.249-.486-.255-.81-.748l-.112.866h-1.06v-8.753l-1.015-.175v-.79h2.243v3.775q.318-.449.785-.686.473-.236 1.103-.236 1.246 0 1.944.997.697.996.697 2.622zm-1.233-.13q0-1.166-.424-1.895-.424-.728-1.296-.728-.567 0-.96.274-.386.274-.616.735v2.978q.23.467.623.741.399.274.966.274.866 0 1.283-.616.424-.617.424-1.633zm2.467 2.46l1.015-.174v-4.816l-1.015-.174v-.792h2.243v5.782l1.015.174v.785h-3.258zm2.243-7.682h-1.228v-1.252h1.228zm4.087.1v1.626h1.277v.91h-1.277v4.093q0 .474.193.667.2.193.523.193.162 0 .362-.025.205-.031.342-.062l.169.84q-.175.113-.511.182-.337.074-.673.074-.748 0-1.19-.448-.442-.455-.442-1.42v-4.094h-1.066v-.91h1.066v-1.626zm7.85 0v1.626h1.277v.91h-1.277v4.093q0 .474.193.667.2.193.524.193.162 0 .36-.025.206-.031.344-.062l.168.84q-.175.113-.511.182-.337.074-.673.074-.748 0-1.19-.448-.442-.455-.442-1.42v-4.094h-1.066v-.91h1.066v-1.626zm2.424 4.935q0-1.496.81-2.461.81-.972 2.199-.972 1.395 0 2.205.965.817.966.817 2.468v.137q0 1.507-.81 2.467-.81.96-2.2.96-1.402 0-2.211-.96-.81-.966-.81-2.467zm1.227.137q0 1.071.449 1.769.454.698 1.345.698.873 0 1.327-.698.455-.698.455-1.77v-.136q0-1.06-.455-1.764-.454-.704-1.34-.704-.884 0-1.332.704-.449.704-.449 1.764zm14.242-1.327h-.922l-.2-.81q-.223-.212-.566-.337-.336-.13-.766-.13-.655 0-.972.286-.318.287-.318.692 0 .398.28.629.28.23 1.14.411 1.278.274 1.9.748.624.467.624 1.258 0 .897-.73 1.452-.722.554-1.893.554-.767 0-1.377-.174-.61-.18-1.09-.517l-.006-1.54h.922l.23.904q.212.193.573.28.368.088.748.088.654 0 1.022-.262.374-.268.374-.698 0-.405-.312-.666-.305-.262-1.165-.455-1.227-.268-1.85-.73-.623-.46-.623-1.245 0-.823.697-1.402.704-.58 1.826-.58.766 0 1.377.2.61.2 1.015.555zm3.489-3.745v1.626h1.278v.91h-1.278v4.093q0 .474.193.667.2.193.524.193.162 0 .361-.025.206-.031.343-.062l.168.84q-.174.113-.51.182-.337.074-.674.074-.747 0-1.19-.448-.442-.455-.442-1.42v-4.094h-1.065v-.91h1.065v-1.626zm2.542 7.582l1.016-.174v-4.816l-1.016-.174v-.792h2.243v5.782l1.016.174v.785h-3.259zm2.243-7.682h-1.227v-1.252h1.227zm4.972 7.639q.61 0 1.072-.374.467-.38.467-.928h1.103l.012.037q.031.872-.779 1.551-.803.673-1.875.673-1.47 0-2.25-.96-.772-.959-.772-2.41v-.262q0-1.44.78-2.399.778-.965 2.242-.965.81 0 1.452.268.648.267 1.071.735l.056 1.495h-.978l-.268-1.06q-.218-.21-.56-.342-.343-.13-.773-.13-.966 0-1.383.697-.411.692-.411 1.701v.262q0 1.034.41 1.725.412.686 1.384.686zm3.682-8.1v-.79h2.243v5.631h.785l1.44-1.781-.618-.081v-.792h2.823v.792l-.823.162-1.775 2.118 2.162 2.735.766.15v.784h-2.798v-.785l.63-.08-1.788-2.243h-.804v2.149l1.015.174v.785h-3.258v-.785l1.016-.174v-7.794zm9.607 6.374q.006-.91.15-1.252.15-.35.785-.922.616-.73.878-1.122.262-.392.262-.947 0-.66-.355-1.015-.35-.355-1.003-.355-.567 0-.966.311-.393.305-.393.903h-1.17l-.02-.037q-.018-1.003.704-1.607.723-.605 1.845-.605 1.227 0 1.906.63.68.623.68 1.744 0 .804-.443 1.47-.436.667-1.159 1.365-.33.336-.405.604-.068.268-.068.835zm1.265 2.554h-1.277v-1.295h1.277z" style="line-height:1.25;-inkscape-font-specification:'Roboto Slab'" fill="#fff" font-weight="400" font-size="80.653" font-family="Roboto Slab" letter-spacing="0" word-spacing="0"/><circle cx="206.3" cy="-171.442" r="8.262" fill="#db7474"/><circle cx="202.327" cy="-173.232" r="2.335" fill="#fff"/><circle cx="201.997" cy="-173.893" r="1.532" fill="#cc4e4e"/><circle r="2.335" cy="-173.401" cx="210.383" fill="#fff"/><circle r="1.532" cy="-173.732" cx="209.723" fill="#cc4e4e"/><path d="M209.098-167.44a2.69 2.642 60.392 00-3.468-.792 2.69 2.642 60.392 00-1.096 3.385z" fill="#fff"/><rect width="4.98" height="17.363" x="190.324" y="144.328" ry="2.263" transform="scale(1 -1)" rx="2.263" fill="#db7474"/><path d="M194.16-144.613l-1.045-17.088a2.257 2.257 0 012.225 2.26v12.838a2.26 2.26 0 01-1.18 1.99z" fill="#cc4e4e"/><rect width="19.214" height="24.554" x="196.693" y="-162.46" ry="7.053" rx="7.053" fill="#db7474"/><path d="M196.77-156.393c-.056.36-.086.728-.086 1.103v10.448a7.038 7.038 0 007.054 7.053h5.107a7.038 7.038 0 007.053-7.053v-10.448c0-.225-.011-.446-.032-.665a9.767 14.038 0 01-9.516 10.933 9.767 14.038 0 01-9.58-11.37z" fill="#cc4e4e"/><rect width="4.98" height="17.363" x="-213.216" y="150.281" ry="2.263" transform="scale(-1)" rx="2.263" fill="#cc4e4e"/><path d="M209.38-150.566l1.045-17.088a2.257 2.257 0 00-2.225 2.26v12.838a2.26 2.26 0 001.18 1.99z" fill="#e49797"/><g style="line-height:.01%"><path style="line-height:1.25" d="M203.68-187.492h1.59v1.99h-1.59zm1.544-1.152h-1.497v-1.207q0-.791.22-1.3.219-.51.924-1.184l.705-.697q.447-.416.643-.784.204-.368.204-.752 0-.698-.517-1.129-.51-.43-1.356-.43-.62 0-1.324.274-.698.274-1.458.8v-1.474q.737-.447 1.489-.666.76-.22 1.567-.22 1.442 0 2.312.76.877.76.877 2.007 0 .595-.282 1.136-.282.533-.987 1.207l-.69.673q-.368.369-.525.58-.149.204-.211.4-.047.165-.07.4-.024.235-.024.642z" font-size="40" aria-label="?" font-weight="400" font-family="sans-serif" letter-spacing="0" word-spacing="0" fill="#fff"/></g><g style="line-height:.01%"><path style="line-height:1.25" d="M192.677-180.796h1.962v2.455h-1.962zm1.904-1.421h-1.846v-1.489q0-.976.27-1.604.271-.628 1.141-1.46l.87-.86q.551-.512.793-.966.251-.455.251-.928 0-.86-.638-1.392-.628-.532-1.672-.532-.764 0-1.634.339-.86.338-1.797.985v-1.817q.908-.55 1.836-.821.938-.27 1.933-.27 1.779 0 2.852.937 1.082.937 1.082 2.474 0 .735-.348 1.402-.348.657-1.218 1.488l-.85.831q-.455.455-.648.716-.183.25-.26.493-.059.203-.088.493-.029.29-.029.792z" font-size="147.594" aria-label="?" font-weight="400" font-family="sans-serif" letter-spacing="0" word-spacing="0" fill="#fff"/></g><g style="line-height:.01%"><path style="line-height:1.25" d="M215.073-180.259h1.537v1.923h-1.537zm1.491-1.113h-1.446v-1.166q0-.765.212-1.257.212-.492.893-1.144l.682-.674q.432-.4.62-.757.198-.356.198-.727 0-.674-.5-1.09-.492-.417-1.31-.417-.598 0-1.28.265-.674.266-1.408.773v-1.424q.712-.431 1.439-.643.734-.212 1.514-.212 1.393 0 2.234.734.848.735.848 1.939 0 .575-.273 1.098-.272.514-.954 1.166l-.666.65q-.356.357-.507.561-.144.197-.205.386-.045.16-.068.387-.023.227-.023.62z" font-size="119.894" aria-label="?" font-weight="400" font-family="sans-serif" letter-spacing="0" word-spacing="0" fill="#fff"/></g><g transform="translate(258.406 -524.755) scale(.17464)"><circle r="50.04" cy="2022.611" cx="221.625" fill="#35a4be"/><circle r="14.142" cy="2011.769" cx="197.56" fill="#fff"/><circle r="9.279" cy="2011.769" cx="197.56" fill="#297e92"/><circle cx="246.356" cy="2010.743" r="14.142" fill="#fff"/><circle cx="246.356" cy="2010.743" r="9.279" fill="#297e92"/><path d="M206.062 2044.032a16.001 16.292 5.706 0117.259-12.893 16.001 16.292 5.706 0114.377 16.054z" fill="#fff"/><g transform="translate(-20 -88)"><rect rx="13.704" width="30.162" height="105.16" x="-316.372" y="-2187.202" ry="13.704" transform="scale(-1)" fill="#35a4be"/><path d="M293.138 2185.477l6.326-103.497a13.667 13.667 0 00-13.477 13.694v77.75c0 5.217 2.883 9.737 7.151 12.053z" fill="#297e92"/></g><rect rx="42.72" ry="42.72" y="2077.013" x="163.438" height="148.719" width="116.374" fill="#35a4be"/><path d="M163.903 2113.76a43.365 43.365 0 00-.517 6.679v63.28c0 23.667 19.053 42.72 42.72 42.72h30.934c23.667 0 42.718-19.053 42.718-42.72v-63.28c0-1.36-.069-2.703-.192-4.03a59.154 85.023 0 01-57.637 66.22 59.154 85.023 0 01-58.026-68.869z" fill="#297e92"/><g transform="translate(26 -86)"><rect rx="13.704" width="30.162" height="105.16" x="124.861" y="-2186.83" ry="13.704" transform="scale(1 -1)" fill="#35a4be"/><path d="M148.094 2185.105l-6.326-103.497a13.667 13.667 0 0113.477 13.693v77.752c0 5.216-2.883 9.736-7.15 12.052z" fill="#297e92"/></g></g><g color="#000"><path style="isolation:auto;mix-blend-mode:normal;solid-color:#000;solid-opacity:1" d="M307.9-186.124h-1.632v2.465c0 .941-.758 1.699-1.7 1.699h-16.762a1.695 1.695 0 01-1.698-1.699v-11.503c0-.941.757-1.699 1.698-1.699h16.763c.94 0 1.699.758 1.699 1.699v2.465h1.632zm-3.198 1.213v-8.999c0-.664-.534-1.198-1.198-1.198h-1.736c-.664 0-1.198.534-1.198 1.198v9c0 .663.534 1.197 1.198 1.197h1.736c.664 0 1.198-.534 1.198-1.198zm-6.448 0v-8.999c0-.664-.535-1.198-1.198-1.198h-1.737c-.663 0-1.198.534-1.198 1.198v9c0 .663.535 1.197 1.198 1.197h1.737c.663 0 1.198-.534 1.198-1.198zm-6.45 0v-8.999c0-.664-.533-1.198-1.197-1.198h-1.736c-.664 0-1.198.534-1.198 1.198v9c0 .663.534 1.197 1.198 1.197h1.736c.664 0 1.198-.534 1.198-1.198z" overflow="visible" fill="#fff"/><path style="isolation:auto;mix-blend-mode:normal;solid-color:#000;solid-opacity:1" overflow="visible" d="M304.885-183.525v-11.776H289.23v11.776z"/><path style="isolation:auto;mix-blend-mode:normal;solid-color:#000;solid-opacity:1" overflow="visible" fill="#ff7a7a" d="M289.386-183.525v-11.776h-1.807v11.776z"/></g><path d="M296.08-194.59l-1.46 6.641 2.302-1.062-.31 4.737 2.833-5.889-2.612.133z" fill="#fff" fill-rule="evenodd"/><rect style="isolation:auto;mix-blend-mode:normal;solid-color:#000;solid-opacity:1" width="82.525" height="18.479" x="163.621" y="-118.858" ry="4.488" rx="4.488" color="#000" overflow="visible" fill="#d85e5e"/><g style="line-height:.01%"><path d="M166.634-107.647l.738-.127v-5.192l-.738-.127v-.575h5.093v1.585h-.76l-.073-.883h-2.63v2.272h2.549v.702h-2.55v2.218l.739.127v.57h-2.368zm5.754-1.924q0-1.086.588-1.788.589-.706 1.598-.706 1.014 0 1.603.701.593.702.593 1.793v.1q0 1.095-.589 1.792-.588.697-1.598.697-1.018 0-1.607-.697-.588-.701-.588-1.792zm.892.1q0 .778.326 1.285.33.507.977.507.634 0 .965-.507.33-.507.33-1.285v-.1q0-.77-.33-1.281-.33-.512-.974-.512-.642 0-.968.512-.326.511-.326 1.281zm4.3-1.929v-.575h1.535l.086.711q.208-.376.511-.589.308-.212.702-.212.104 0 .213.018.113.013.172.031l-.118.829-.507-.027q-.353 0-.593.167-.24.163-.371.462v2.811l.738.127v.57h-2.368v-.57l.738-.127v-3.5zm3.753 1.965q0-1.182.516-1.906t1.426-.724q.462 0 .81.18.349.182.584.526l.082-.616h.751v4.835q0 .95-.53 1.494-.529.548-1.507.548-.353 0-.765-.1-.412-.095-.724-.263l.23-.692q.25.131.59.217.339.086.66.086.598 0 .874-.335.28-.335.28-.955v-.466q-.24.308-.574.466-.335.158-.77.158-.9 0-1.417-.651-.516-.652-.516-1.707zm.892.095q0 .738.312 1.186.313.448.95.448.404 0 .675-.181.272-.186.449-.52v-2.255q-.172-.312-.449-.493-.276-.186-.665-.186-.638 0-.955.534-.317.534-.317 1.372zm4.359-.231q0-1.086.589-1.788.588-.706 1.598-.706 1.014 0 1.602.701.593.702.593 1.793v.1q0 1.095-.588 1.792-.589.697-1.598.697-1.019 0-1.607-.697-.589-.701-.589-1.792zm.892.1q0 .778.326 1.285.33.507.978.507.634 0 .964-.507.33-.507.33-1.285v-.1q0-.77-.33-1.281-.33-.512-.973-.512t-.969.512q-.326.511-.326 1.281zm5.858-3.685v1.181h.928v.661h-.928v2.974q0 .344.14.485.145.14.38.14.118 0 .263-.018.15-.023.25-.045l.121.61q-.126.082-.37.132-.245.054-.49.054-.543 0-.864-.326-.322-.33-.322-1.032v-2.974h-.774v-.66h.774v-1.182zm5.885 1.756l-.561.1.638 2.44.104.593h.027l.127-.593.978-3.115h.715l.982 3.115.14.66h.028l.131-.66.602-2.44-.57-.1v-.575h1.865v.575l-.426.064-1.236 4.26h-.72l-.95-2.984-.204-.824-.027.005-.19.82-.933 2.982h-.72l-1.235-4.26-.43-.063v-.575h1.865zm5.799 3.753l.738-.127v-5.663l-.738-.127v-.575h1.63v2.816q.253-.353.62-.548.366-.194.815-.194.787 0 1.222.47.434.471.434 1.45v2.371l.738.127v.57h-2.367v-.57l.738-.127v-2.381q0-.607-.263-.896-.258-.29-.774-.29-.367 0-.67.177-.299.172-.493.47v2.92l.737.127v.57h-2.367zm9.312.57q-.041-.199-.064-.357-.022-.159-.031-.317-.258.33-.648.552-.384.217-.824.217-.765 0-1.163-.37-.398-.377-.398-1.056 0-.697.56-1.072.567-.38 1.55-.38h.918v-.571q0-.43-.272-.68-.271-.253-.755-.253-.335 0-.594.086-.253.086-.411.236l-.096.516h-.688v-.95q.335-.268.81-.426.476-.163 1.033-.163.833 0 1.349.425.516.426.516 1.218v2.544q.004.09.013.181l.363.05v.57zm-1.435-.652q.443 0 .81-.212.367-.213.525-.512v-.806h-.95q-.548 0-.87.254-.317.253-.317.616 0 .321.2.493.199.167.602.167zm4.902-5.427v1.181h.928v.661h-.928v2.974q0 .344.14.485.146.14.38.14.119 0 .263-.018.15-.023.25-.045l.122.61q-.127.082-.372.132-.244.054-.488.054-.544 0-.865-.326-.321-.33-.321-1.032v-2.974h-.775v-.66h.775v-1.182zm5.704 0v1.181h.928v.661h-.928v2.974q0 .344.14.485.145.14.38.14.119 0 .263-.018.15-.023.25-.045l.122.61q-.127.082-.372.132-.244.054-.489.054-.543 0-.864-.326-.322-.33-.322-1.032v-2.974h-.774v-.66h.774v-1.182zm1.761 3.585q0-1.086.589-1.788.588-.706 1.598-.706 1.014 0 1.602.701.593.702.593 1.793v.1q0 1.095-.588 1.792-.589.697-1.598.697-1.019 0-1.607-.697-.589-.701-.589-1.792zm.892.1q0 .778.326 1.285.33.507.978.507.633 0 .964-.507.33-.507.33-1.285v-.1q0-.77-.33-1.281-.33-.512-.973-.512t-.97.512q-.325.511-.325 1.281zm9.9 1.811q-.24.334-.588.506-.344.172-.801.172-.897 0-1.404-.647-.502-.652-.502-1.711v-.095q0-1.182.502-1.906.507-.724 1.413-.724.434 0 .765.163.335.158.57.461v-1.996l-.738-.127v-.575h1.63v6.365l.738.127v.57h-1.512zm-2.403-1.68q0 .738.303 1.186.303.448.937.448.398 0 .67-.181.271-.181.448-.512v-2.272q-.172-.308-.448-.489t-.661-.181q-.638 0-.946.53-.303.53-.303 1.376zm4.667-.231q0-1.086.588-1.788.589-.706 1.598-.706 1.014 0 1.603.701.593.702.593 1.793v.1q0 1.095-.589 1.792-.588.697-1.598.697-1.018 0-1.607-.697-.588-.701-.588-1.792zm.892.1q0 .778.325 1.285.331.507.978.507.634 0 .965-.507.33-.507.33-1.285v-.1q0-.77-.33-1.281-.33-.512-.974-.512-.643 0-.969.512-.325.511-.325 1.281z" style="line-height:1.25;-inkscape-font-specification:'Roboto Slab'" aria-label="Forgot what to do" font-weight="400" font-family="Roboto Slab" letter-spacing="0" word-spacing="0" fill="#fff" font-size="80.653"/></g><rect style="isolation:auto;mix-blend-mode:normal;solid-color:#000;solid-opacity:1" width="84.415" height="18.479" x="268.515" y="-118.858" ry="4.488" rx="4.488" color="#000" overflow="visible" fill="#35a4be"/><g style="line-height:.01%"><path d="M273.694-112.726q1.29 0 2.073.796.788.793.788 2.051v.901q0 1.263-.788 2.055-.783.788-2.073.788h-2.762v-.57l.738-.127v-5.193l-.738-.126v-.575h.738zm-1.132.701v5.193h1.132q.914 0 1.44-.602.529-.602.529-1.544v-.91q0-.932-.53-1.534-.525-.603-1.44-.603zm4.884 3.395q0-1.086.589-1.788.588-.706 1.598-.706 1.014 0 1.602.702.593.702.593 1.793v.1q0 1.095-.588 1.792-.589.697-1.598.697-1.019 0-1.607-.697-.589-.702-.589-1.793zm.892.1q0 .779.326 1.286.33.507.978.507.634 0 .964-.507.33-.507.33-1.286v-.1q0-.769-.33-1.28-.33-.512-.973-.512t-.969.511q-.326.512-.326 1.282zm4.169 1.825l.738-.127v-3.5l-.738-.126v-.575h1.535l.063.729q.245-.39.612-.602.37-.218.842-.218.792 0 1.226.467.435.461.435 1.43v2.395l.738.127v.57h-2.368v-.57l.738-.127v-2.377q0-.647-.258-.919-.253-.271-.778-.271-.385 0-.684.185-.294.186-.47.507v2.875l.737.127v.57h-2.368zm7.099-5.483l-.276 1.277h-.44v-2.286h.716zm2.575-.027v1.182h.929v.66h-.929v2.975q0 .344.14.484.146.14.381.14.118 0 .263-.017.149-.023.249-.046l.122.611q-.127.082-.371.132-.245.054-.49.054-.542 0-.864-.326-.321-.33-.321-1.032v-2.974h-.774v-.661h.774v-1.182zm5.885 1.757l-.56.1.637 2.44.105.592h.027l.126-.593.978-3.114h.716l.982 3.114.14.661h.027l.132-.66.602-2.44-.57-.1v-.575h1.864v.575l-.425.063-1.236 4.26h-.72l-.95-2.983-.204-.824-.027.004-.19.82-.933 2.983h-.72l-1.236-4.26-.43-.063v-.575h1.865zm9.118 4.323q-.041-.2-.064-.358-.022-.158-.031-.317-.258.33-.648.553-.385.217-.824.217-.765 0-1.163-.371-.398-.376-.398-1.055 0-.697.56-1.073.567-.38 1.55-.38h.918v-.57q0-.43-.272-.68-.271-.253-.756-.253-.335 0-.593.086-.253.086-.412.235l-.095.516h-.688v-.95q.335-.267.81-.426.476-.163 1.033-.163.833 0 1.349.426.516.425.516 1.218v2.544q.004.09.013.18l.363.05v.57zm-1.435-.652q.443 0 .81-.213.367-.212.525-.511v-.806h-.95q-.548 0-.87.253-.317.254-.317.616 0 .322.2.494.199.167.602.167zm3.214.082l.738-.127v-3.5l-.738-.126v-.575h1.534l.064.729q.244-.39.61-.602.372-.218.843-.218.792 0 1.227.467.434.461.434 1.43v2.395l.738.127v.57h-2.367v-.57l.737-.127v-2.377q0-.647-.258-.919-.253-.271-.778-.271-.385 0-.684.185-.294.186-.47.507v2.875l.737.127v.57h-2.367zm7.664-5.51v1.182h.928v.66h-.928v2.975q0 .344.14.484.145.14.38.14.118 0 .263-.017.15-.023.249-.046l.122.611q-.127.082-.371.132-.245.054-.489.054-.543 0-.865-.326-.321-.33-.321-1.032v-2.974h-.774v-.661h.774v-1.182zm5.703 0v1.182h.929v.66h-.928v2.975q0 .344.14.484.145.14.38.14.118 0 .263-.017.15-.023.249-.046l.122.611q-.127.082-.371.132-.245.054-.49.054-.542 0-.864-.326-.321-.33-.321-1.032v-2.974h-.774v-.661h.774v-1.182zm1.762 3.585q0-1.086.588-1.788.589-.706 1.598-.706 1.014 0 1.603.702.593.702.593 1.793v.1q0 1.095-.589 1.792-.588.697-1.598.697-1.018 0-1.607-.697-.588-.702-.588-1.793zm.891.1q0 .779.326 1.286.33.507.978.507.634 0 .964-.507.33-.507.33-1.286v-.1q0-.769-.33-1.28-.33-.512-.973-.512t-.969.511q-.326.512-.326 1.282zm9.901 1.811q-.24.335-.589.507-.344.172-.801.172-.896 0-1.403-.647-.503-.652-.503-1.712v-.095q0-1.181.503-1.905.507-.725 1.412-.725.435 0 .765.163.335.159.57.462v-1.996l-.737-.127v-.575h1.629v6.365l.738.127v.57h-1.512zm-2.404-1.68q0 .738.303 1.187.304.448.937.448.399 0 .67-.181.272-.181.448-.512v-2.272q-.172-.308-.448-.49-.276-.18-.66-.18-.639 0-.947.53-.303.529-.303 1.375zm4.667-.231q0-1.086.589-1.788.588-.706 1.598-.706 1.014 0 1.602.702.593.702.593 1.793v.1q0 1.095-.588 1.792-.589.697-1.598.697-1.019 0-1.607-.697-.589-.702-.589-1.793zm.892.1q0 .779.326 1.286.33.507.978.507.634 0 .964-.507.33-.507.33-1.286v-.1q0-.769-.33-1.28-.33-.512-.973-.512t-.97.511q-.325.512-.325 1.282zm6.601 1.825l.737-.127v-3.5l-.738-.126v-.575h1.63v4.2l.738.128v.57h-2.368zm1.629-5.582h-.892v-.91h.892zm2.97.072v1.182h.928v.66h-.928v2.975q0 .344.14.484.145.14.38.14.118 0 .263-.017.15-.023.249-.046l.122.611q-.127.082-.371.132-.245.054-.49.054-.542 0-.864-.326-.321-.33-.321-1.032v-2.974h-.774v-.661h.774v-1.182z" style="line-height:1.25;-inkscape-font-specification:'Roboto Slab'" aria-label="Don't want to do it" font-weight="400" font-family="Roboto Slab" letter-spacing="0" word-spacing="0" fill="#fff" font-size="63.073"/></g><ellipse style="isolation:auto;mix-blend-mode:normal;solid-color:#000;solid-opacity:1" cx="157.642" cy="-109.619" rx="7.875" ry="7.593" color="#000" overflow="visible" fill="#fff"/><ellipse style="isolation:auto;mix-blend-mode:normal;solid-color:#000;solid-opacity:1" cx="262.152" cy="-109.619" rx="7.875" ry="7.593" color="#000" overflow="visible" fill="#fff"/><g style="line-height:.01%"><path d="M154.755-105.614h2.293v-7.912l-2.494.5v-1.278l2.48-.5h1.403v9.19h2.293v1.181h-5.975z" style="line-height:1.25" font-size="40" aria-label="1" font-weight="400" font-family="sans-serif" letter-spacing="0" word-spacing="0" fill="#cc4e4e"/></g><g style="line-height:.01%"><path d="M260.548-105.52h4.897v1.181h-6.586v-1.18q.8-.828 2.175-2.217 1.382-1.396 1.737-1.8.673-.756.937-1.277.271-.528.271-1.035 0-.827-.583-1.348-.577-.521-1.508-.521-.66 0-1.396.229-.73.23-1.563.695v-1.417q.847-.34 1.584-.515.736-.173 1.347-.173 1.612 0 2.57.806.96.805.96 2.153 0 .64-.244 1.216-.236.57-.868 1.348-.174.201-1.105 1.167-.93.958-2.625 2.688z" style="line-height:1.25" font-size="96.791" aria-label="2" font-weight="400" font-family="sans-serif" letter-spacing="0" word-spacing="0" fill="#297e92"/></g><g style="line-height:.01%"><path d="M248.474-151.827q0 3.072-1.768 5.1-1.758 2.03-4.56 2.03-2.724 0-4.424-2.03-1.7-2.028-1.7-5.1v-.203q0-3.062 1.7-5.1 1.7-2.039 4.424-2.039 2.802 0 4.56 2.039 1.768 2.038 1.768 5.1zm-1.903-.222q0-2.454-1.179-4-1.169-1.555-3.246-1.555-1.99 0-3.11 1.556-1.111 1.555-1.111 3.999v.222q0 2.473 1.11 4.028 1.121 1.546 3.111 1.546 2.106 0 3.265-1.546 1.16-1.545 1.16-4.028zm9.496-6.907q2.299 0 3.525 1.024 1.227 1.014 1.227 2.888 0 1.024-.57 1.816t-1.632 1.246q1.15.377 1.652 1.227.512.85.512 2.097v1.13q0 .647.164.956.164.31.54.367l.465.058v1.246h-1.024q-1.111 0-1.585-.772-.463-.773-.463-1.875v-1.091q0-1.15-.667-1.845-.666-.696-1.787-.696h-3.053v4.792l1.575.27v1.217h-5.052v-1.217l1.574-.27v-11.08l-1.574-.271v-1.217h1.574zm-2.696 6.279h2.502q1.594 0 2.319-.609.724-.608.724-1.777 0-1.111-.695-1.758-.696-.648-2.154-.648h-2.696z" style="line-height:1.25;-inkscape-font-specification:'Roboto Slab'" aria-label="OR" font-weight="400" font-family="Roboto Slab" letter-spacing="0" word-spacing="0" fill="#fff" font-size="86.805"/></g><path d="M249.623-211.356a9.198 9.198 0 017.962 4.64 9.198 9.198 0 01-.056 9.214 9.198 9.198 0 01-8.018 4.542" fill="#35a4be"/><path d="M249.636-211.353a9.198 9.198 0 00-8.12 4.5 9.198 9.198 0 00-.062 9.283 9.198 9.198 0 008.057 4.61" fill="#d85e5e"/><path style="isolation:auto;mix-blend-mode:normal;solid-color:#000;solid-opacity:1" color="#000" overflow="visible" fill="#ff7a7a" d="M247.927-197.366h1.811v3.097h-1.811z"/><path style="isolation:auto;mix-blend-mode:normal;solid-color:#000;solid-opacity:1" d="M243.47-195.059c-2.167 0-3.913 1.984-3.913 4.448v15.411c0 2.464 1.746 4.438 3.913 4.448l5.979.026c.061 0 .121-.007.182-.01l.124-24.312c-.06-.003-.12-.01-.182-.01z" color="#000" overflow="visible" fill="#d85e5e"/><rect rx="2.636" style="isolation:auto;mix-blend-mode:normal;solid-color:#000;solid-opacity:1" width="6.023" height="18.338" x="234.648" y="-194.944" ry="2.636" color="#000" overflow="visible" fill="#d85e5e"/><rect rx="2.014" transform="scale(1 -1)" ry="2.014" y="178.101" x="235.485" height="15.458" width="4.434" fill="#fff"/><path d="M238.9-178.354l-.93-15.213c1.1.018 1.98.908 1.98 2.013v11.428a2.01 2.01 0 01-1.05 1.772z" fill="#ccc"/><rect rx="2.014" transform="scale(-1)" ry="2.014" y="178.046" x="-263.635" height="15.458" width="4.434" fill="#fff"/><path d="M260.22-178.3l.93-15.212a2.009 2.009 0 00-1.981 2.012v11.429a2.01 2.01 0 001.05 1.772z" fill="#ccc"/><rect width="17.106" height="21.86" x="241.155" y="-194.243" ry="6.279" rx="6.279" fill="#fff"/><path d="M241.223-188.841c-.05.32-.076.647-.076.982v9.301c0 3.479 2.8 6.28 6.28 6.28h4.547a6.266 6.266 0 006.279-6.28v-9.301c0-.2-.01-.398-.028-.593a8.695 12.498 0 01-8.472 9.734 8.695 12.498 0 01-8.53-10.123z" fill="#ccc"/><circle cx="249.708" cy="-202.239" r="7.355" fill="#fff"/><circle cx="246.171" cy="-203.833" r="2.079" fill="#ccc"/><circle cx="246.171" cy="-203.833" r="1.364" fill="#fff"/><circle r="2.079" cy="-203.984" cx="253.343" fill="#ccc"/><circle r="1.364" cy="-203.984" cx="253.343" fill="#fff"/><path d="M247.302-199.521a2.352 2.395 0 002.336 2.138 2.352 2.395 0 002.338-2.138z" fill="#ccc"/></g></svg>