<svg xmlns="http://www.w3.org/2000/svg" width="1200.247" height="533.333" viewBox="0 0 317.565 141.111"><g transform="translate(182.717 -103.516) scale(.20432)"><rect rx="47.441" ry="47.441" y="506.648" x="-894.286" height="690.651" width="1554.286" style="isolation:auto;mix-blend-mode:normal;solid-color:#000;solid-opacity:1" color="#000" overflow="visible" fill="#f49724"/><path d="M-854.854 758.26a8.017 8.017 0 00-8.035 8.034v323.34a8.019 8.019 0 008.035 8.037h238.487a8.02 8.02 0 008.037-8.037v-323.34a8.019 8.019 0 00-8.037-8.035zm8.2 7.857h222.088a7.648 7.648 0 017.664 7.664v308.369a7.648 7.648 0 01-7.664 7.664h-222.088a7.648 7.648 0 01-7.664-7.664V773.78a7.648 7.648 0 017.664-7.663z" style="isolation:auto;mix-blend-mode:normal;solid-color:#000;solid-opacity:1" color="#000" overflow="visible" fill="#fdedda"/><g transform="translate(-420 74.286)"><rect rx="30.598" style="isolation:auto;mix-blend-mode:normal;solid-color:#000;solid-opacity:1" width="106.429" height="98.571" x="-380.243" y="734.689" ry="30.598" color="#000" overflow="visible" fill="#5dc88d"/><g transform="translate(-532.17 643.104) scale(.81461)" fill="red"><circle r="17.361" cy="158.853" cx="222.331" fill="#fff"/><circle r="11.39" cy="158.853" cx="222.331" fill="#2d8555"/></g><circle r="14.142" cy="771.482" cx="-302.26" fill="#fff"/><circle r="9.279" cy="771.482" cx="-302.26" fill="#2d8555"/><path d="M-343.356 801.843a16.001 16.292 0 0015.89 14.545 16.001 16.292 0 0015.903-14.545z" fill="#2d8555"/><g transform="translate(-532.17 643.104) scale(.81461)" fill="red"><rect rx="52.442" ry="52.442" y="238.946" x="180.444" height="182.564" width="142.858" fill="#5dc88d"/><path d="M181.014 284.056a53.233 53.233 0 00-.635 8.198v77.682c0 29.053 23.39 52.442 52.442 52.442h37.975c29.052 0 52.439-23.389 52.439-52.442v-77.682c0-1.67-.084-3.318-.236-4.947a72.616 104.373 0 01-70.753 81.291 72.616 104.373 0 01-71.232-84.542z" fill="#2d8555"/></g><rect style="isolation:auto;mix-blend-mode:normal;solid-color:#000;solid-opacity:1" width="4.551" height="61.152" x="-698.679" y="517.92" ry="0" transform="rotate(-31.66)" color="#000" overflow="visible" fill="#34629c"/><g transform="rotate(-68.522 340.53 1398.531) scale(.81461)" fill="red"><rect rx="16.823" ry="16.823" y="710.561" x="761.463" height="129.092" width="37.027" fill="#349c63"/><path d="M789.984 712.678l-7.766 127.05a16.778 16.778 0 0016.544-16.808v-95.447a16.787 16.787 0 00-8.778-14.795z" fill="#95dbb4"/></g><rect style="isolation:auto;mix-blend-mode:normal;solid-color:#000;solid-opacity:1" width="7.483" height="15.977" x="-705.507" y="510.227" ry="0" transform="rotate(-31.524)" color="#000" overflow="visible" fill="#fff"/><rect rx="4.554" style="isolation:auto;mix-blend-mode:normal;solid-color:#000;solid-opacity:1" width="9.107" height="18.571" x="-685.573" y="527.82" ry="4.554" transform="rotate(-29.954)" color="#000" overflow="visible" fill="#34629c"/><rect rx="11.869" style="isolation:auto;mix-blend-mode:normal;solid-color:#000;solid-opacity:1" width="40.911" height="58.589" x="-335.876" y="867.504" ry="11.869" color="#000" overflow="visible" fill="#34629c"/><ellipse style="isolation:auto;mix-blend-mode:normal;solid-color:#000;solid-opacity:1" cx="-314.821" cy="872.987" rx="13.75" ry="2.232" color="#000" overflow="visible" fill="#fff"/><g transform="matrix(.53718 -.6124 -.6124 -.53718 -316.856 1762.304)" fill="red"><rect rx="16.823" ry="16.823" y="710.561" x="761.463" height="129.092" width="37.027" fill="#349c63"/><path d="M789.984 712.678l-7.766 127.05a16.778 16.778 0 0016.544-16.808v-95.447a16.787 16.787 0 00-8.778-14.795z" fill="#95dbb4"/></g><rect rx="1.25" style="isolation:auto;mix-blend-mode:normal;solid-color:#000;solid-opacity:1" width="2.5" height="39.643" x="-300.714" y="878.969" ry="1.25" color="#000" overflow="visible" fill="#a4bfe1"/><rect rx="3.036" style="isolation:auto;mix-blend-mode:normal;solid-color:#000;solid-opacity:1" width="6.071" height="16.429" x="-309.223" y="880.334" ry="3.036" color="#000" overflow="visible" fill="#a4bfe1"/></g><g transform="translate(-475.107 83.597)"><rect rx="30.598" ry="30.598" y="725.378" x="6.328" height="98.571" width="106.429" style="isolation:auto;mix-blend-mode:normal;solid-color:#000;solid-opacity:1" color="#000" overflow="visible" fill="#5dc88d"/><g transform="translate(-145.598 633.794) scale(.81461)" fill="red"><circle cx="222.331" cy="158.853" r="17.361" fill="#fff"/><circle cx="217.703" cy="153.204" r="11.39" fill="#2d8555"/></g><circle cx="84.312" cy="762.172" r="14.142" fill="#fff"/><circle cx="80.196" cy="758.148" r="9.279" fill="#2d8555"/><path d="M43.215 792.532a16.001 16.292 0 0015.891 14.545 16.001 16.292 0 0015.903-14.545z" fill="#fff"/><g transform="rotate(180 382.311 724.087) scale(.81461)" fill="red"><rect rx="16.823" width="37.027" height="129.092" x="761.463" y="710.561" ry="16.823" fill="#5dc88d"/><path d="M789.984 712.678l-7.766 127.05a16.778 16.778 0 0016.544-16.808v-95.447a16.787 16.787 0 00-8.778-14.795z" fill="#2d8555"/></g><g transform="translate(-145.598 633.794) scale(.81461)" fill="red"><rect rx="52.442" width="142.858" height="182.564" x="180.444" y="238.946" ry="52.442" fill="#5dc88d"/><path d="M181.014 284.056a53.233 53.233 0 00-.635 8.198v77.682c0 29.053 23.39 52.442 52.442 52.442h37.975c29.052 0 52.439-23.389 52.439-52.442v-77.682c0-1.67-.084-3.318-.236-4.947a72.616 104.373 0 01-70.753 81.291 72.616 104.373 0 01-71.232-84.542z" fill="#2d8555"/></g><g transform="matrix(.81461 0 0 -.81461 -649.623 1447.804)" fill="red"><rect rx="16.823" width="37.027" height="129.092" x="761.463" y="710.561" ry="16.823" fill="#5dc88d"/><path d="M789.984 712.678l-7.766 127.05a16.778 16.778 0 0016.544-16.808v-95.447a16.787 16.787 0 00-8.778-14.795z" fill="#2d8555"/></g></g><path style="isolation:auto;mix-blend-mode:normal;solid-color:#000;solid-opacity:1" d="M-417.606 778.837a62.321 54.311 0 00-62.322 54.31 62.321 54.311 0 00.105 1.827 39.907 39.907 0 015.584-.398h2.78a53.91 46.982 0 01-.059-1.428 53.91 46.982 0 0153.912-46.983 53.91 46.982 0 0153.91 46.983 53.91 46.982 0 01-.082 1.428h8.434a62.321 54.311 0 00.058-1.428 62.321 54.311 0 00-62.32-54.31z" color="#000" overflow="visible" fill="#a13232"/><g transform="translate(-404.454 85.714)" color="#000"><rect rx="5" ry="5" y="746.648" x="-77.857" height="48.214" width="15" style="isolation:auto;mix-blend-mode:normal;solid-color:#000;solid-opacity:1" overflow="visible" fill="#ee6161"/><rect ry="0" y="755.041" x="-76.25" height="32.143" width="1.403" style="isolation:auto;mix-blend-mode:normal;solid-color:#000;solid-opacity:1" overflow="visible" fill="#f7b7b7"/><rect ry="0" y="755.041" x="-69.838" height="32.143" width="5.57" style="isolation:auto;mix-blend-mode:normal;solid-color:#000;solid-opacity:1" overflow="visible" fill="#a13232"/><rect ry="0" y="754.934" x="-69.868" height="18.758" width="1.403" style="isolation:auto;mix-blend-mode:normal;solid-color:#000;solid-opacity:1" overflow="visible" fill="#f7b7b7"/></g><g transform="translate(-287.397 85.714)" color="#000"><rect rx="5" ry="5" y="746.648" x="-77.857" height="48.214" width="15" style="isolation:auto;mix-blend-mode:normal;solid-color:#000;solid-opacity:1" overflow="visible" fill="#ee6161"/><rect ry="0" y="755.041" x="-76.25" height="32.143" width="1.403" style="isolation:auto;mix-blend-mode:normal;solid-color:#000;solid-opacity:1" overflow="visible" fill="#f7b7b7"/><rect ry="0" y="755.041" x="-69.838" height="32.143" width="5.57" style="isolation:auto;mix-blend-mode:normal;solid-color:#000;solid-opacity:1" overflow="visible" fill="#a13232"/><rect ry="0" y="754.934" x="-69.868" height="18.758" width="1.403" style="isolation:auto;mix-blend-mode:normal;solid-color:#000;solid-opacity:1" overflow="visible" fill="#f7b7b7"/></g><g transform="translate(-405.464 85.714)"><g transform="translate(241.265 -2.118)"><rect rx="30.598" ry="30.598" y="725.378" x="6.328" height="98.571" width="106.429" style="isolation:auto;mix-blend-mode:normal;solid-color:#000;solid-opacity:1" color="#000" overflow="visible" fill="#5dc88d"/><g transform="translate(-143.598 633.794) scale(.81461)" fill="red"><circle cx="222.331" cy="158.853" r="17.361" fill="#fff"/><circle cx="224.786" cy="161.309" r="11.39" fill="#2d8555"/></g><circle cx="84.312" cy="762.172" r="14.142" fill="#fff"/><circle cx="82.312" cy="764.172" r="9.279" fill="#2d8555"/><path d="M43.215 788.491a16.001 20.818 0 0015.891 18.586 16.001 20.818 0 0015.903-18.586z" fill="#fff"/><g transform="translate(-145.598 633.794) scale(.81461)" fill="red"><rect rx="52.442" width="142.858" height="182.564" x="180.444" y="238.946" ry="52.442" fill="#5dc88d"/><path d="M181.014 284.056a53.233 53.233 0 00-.635 8.198v77.682c0 29.053 23.39 52.442 52.442 52.442h37.975c29.052 0 52.439-23.389 52.439-52.442v-77.682c0-1.67-.084-3.318-.236-4.947a72.616 104.373 0 01-70.753 81.291 72.616 104.373 0 01-71.232-84.542z" fill="#2d8555"/></g><g transform="scale(.81461 -.81461) rotate(-58.795 -1213.54 547.34)" fill="red"><rect rx="16.823" width="37.027" height="129.092" x="761.463" y="710.561" ry="16.823" fill="#95dbb4"/><path d="M789.984 712.678l-7.766 127.05a16.778 16.778 0 0016.544-16.808v-95.447a16.787 16.787 0 00-8.778-14.795z" fill="#349c63"/></g><g transform="rotate(115.033 308.792 572.704) scale(.81461)" fill="red"><rect rx="16.823" width="37.027" height="129.092" x="761.463" y="710.561" ry="16.823" fill="#95dbb4"/><path d="M789.984 712.678l-7.766 127.05a16.778 16.778 0 0016.544-16.808v-95.447a16.787 16.787 0 00-8.778-14.795z" fill="#349c63"/></g></g><rect rx="9.643" style="isolation:auto;mix-blend-mode:normal;solid-color:#000;solid-opacity:1" width="54.643" height="19.286" x="275" y="794.359" ry="9.643" color="#000" overflow="visible" fill="#cf8424"/><rect rx="9.643" style="isolation:auto;mix-blend-mode:normal;solid-color:#000;solid-opacity:1" width="54.643" height="19.286" x="274.883" y="815.762" ry="9.643" color="#000" overflow="visible" fill="#cf8424"/><rect rx="3.661" style="isolation:auto;mix-blend-mode:normal;solid-color:#000;solid-opacity:1" width="44.821" height="7.321" x="279.286" y="810.219" ry="3.661" color="#000" overflow="visible" fill="#cf2424"/><rect style="isolation:auto;mix-blend-mode:normal;solid-color:#000;solid-opacity:1" width="51.013" height="6.313" x="275.941" y="806.829" ry="0" color="#000" overflow="visible" fill="#36bd42"/><rect rx="2.399" style="isolation:auto;mix-blend-mode:normal;solid-color:#000;solid-opacity:1" width="51.392" height="6.566" x="276.277" y="816.492" ry="2.399" color="#000" overflow="visible" fill="#592400"/><ellipse style="isolation:auto;mix-blend-mode:normal;solid-color:#000;solid-opacity:1" cx="283.527" cy="797.184" rx="2.723" ry="1.875" color="#000" overflow="visible" fill="#f5a139"/><ellipse style="isolation:auto;mix-blend-mode:normal;solid-color:#000;solid-opacity:1" cx="292.411" cy="796.826" rx="2.723" ry="1.875" color="#000" overflow="visible" fill="#f5a139"/><ellipse style="isolation:auto;mix-blend-mode:normal;solid-color:#000;solid-opacity:1" cx="289.107" cy="801.826" rx="2.723" ry="1.875" color="#000" overflow="visible" fill="#f5a139"/><ellipse style="isolation:auto;mix-blend-mode:normal;solid-color:#000;solid-opacity:1" cx="305.357" cy="801.201" rx="2.723" ry="1.875" color="#000" overflow="visible" fill="#f5a139"/><ellipse style="isolation:auto;mix-blend-mode:normal;solid-color:#000;solid-opacity:1" cx="310.893" cy="797.184" rx="2.723" ry="1.875" color="#000" overflow="visible" fill="#f5a139"/><ellipse style="isolation:auto;mix-blend-mode:normal;solid-color:#000;solid-opacity:1" cx="316.518" cy="801.38" rx="2.723" ry="1.875" color="#000" overflow="visible" fill="#f5a139"/><ellipse style="isolation:auto;mix-blend-mode:normal;solid-color:#000;solid-opacity:1" cx="283.036" cy="828.255" rx="2.723" ry="1.875" color="#000" overflow="visible" fill="#f5a139"/><ellipse style="isolation:auto;mix-blend-mode:normal;solid-color:#000;solid-opacity:1" cx="288.839" cy="831.826" rx="2.723" ry="1.875" color="#000" overflow="visible" fill="#f5a139"/><ellipse style="isolation:auto;mix-blend-mode:normal;solid-color:#000;solid-opacity:1" cx="294.643" cy="826.826" rx="2.723" ry="1.875" color="#000" overflow="visible" fill="#f5a139"/><ellipse style="isolation:auto;mix-blend-mode:normal;solid-color:#000;solid-opacity:1" cx="305.536" cy="831.916" rx="2.723" ry="1.875" color="#000" overflow="visible" fill="#f5a139"/><ellipse style="isolation:auto;mix-blend-mode:normal;solid-color:#000;solid-opacity:1" cx="311.429" cy="826.826" rx="2.723" ry="1.875" color="#000" overflow="visible" fill="#f5a139"/><ellipse style="isolation:auto;mix-blend-mode:normal;solid-color:#000;solid-opacity:1" cx="316.071" cy="832.094" rx="2.723" ry="1.875" color="#000" overflow="visible" fill="#f5a139"/><ellipse style="isolation:auto;mix-blend-mode:normal;solid-color:#000;solid-opacity:1" cx="323.214" cy="828.255" rx="2.723" ry="1.875" color="#000" overflow="visible" fill="#f5a139"/></g><g transform="translate(-405.074 85.714)"><rect rx="30.598" style="isolation:auto;mix-blend-mode:normal;solid-color:#000;solid-opacity:1" width="106.429" height="98.571" x="561.512" y="723.26" ry="30.598" color="#000" overflow="visible" fill="#5dc88d"/><g transform="translate(409.586 631.676) scale(.81461)" fill="red"><circle r="17.361" cy="158.853" cx="222.331" fill="#fff"/><circle r="11.39" cy="156.398" cx="224.786" fill="#2d8555"/></g><circle r="14.142" cy="760.054" cx="639.495" fill="#fff"/><circle r="9.279" cy="758.054" cx="641.495" fill="#2d8555"/><path d="M598.398 790.414a16.001 16.292 0 0015.892 14.546 16.001 16.292 0 0015.902-14.546z" fill="#fff"/><g transform="rotate(180 664.903 757.671) scale(.81461)" fill="red"><rect rx="16.823" ry="16.823" y="710.561" x="761.463" height="129.092" width="37.027" fill="#5dc88d"/><path d="M789.984 712.678l-7.766 127.05a16.778 16.778 0 0016.544-16.808v-95.447a16.787 16.787 0 00-8.778-14.795z" fill="#2d8555"/></g><g transform="translate(409.586 631.676) scale(.81461)" fill="red"><rect rx="52.442" ry="52.442" y="238.946" x="180.444" height="182.564" width="142.858" fill="#5dc88d"/><path d="M181.014 284.056a53.233 53.233 0 00-.635 8.198v77.682c0 29.053 23.39 52.442 52.442 52.442h37.975c29.052 0 52.439-23.389 52.439-52.442v-77.682c0-1.67-.084-3.318-.236-4.947a72.616 104.373 0 01-70.753 81.291 72.616 104.373 0 01-71.232-84.542z" fill="#2d8555"/></g><rect rx="15.357" style="isolation:auto;mix-blend-mode:normal;solid-color:#000;solid-opacity:1" width="30.714" height="62.5" x="546.786" y="750.576" ry="15.357" color="#000" overflow="visible" fill="#143c26"/><g transform="rotate(180 594.441 722.13) scale(.81461)" fill="red"><rect rx="16.823" width="37.027" height="129.092" x="761.463" y="710.561" ry="16.823" fill="#95dbb4"/><path d="M789.984 712.678l-7.766 127.05a16.778 16.778 0 0016.544-16.808v-95.447a16.787 16.787 0 00-8.778-14.795z" fill="#349c63"/></g><rect rx="1.515" style="isolation:auto;mix-blend-mode:normal;solid-color:#000;solid-opacity:1" width="3.03" height="36.618" x="549.523" y="722.042" ry="1.515" color="#000" overflow="visible" fill="#143c26"/></g><g transform="translate(-420 85.714)"><rect rx="30.598" style="isolation:auto;mix-blend-mode:normal;solid-color:#000;solid-opacity:1" width="106.429" height="98.571" x="875.43" y="723.26" ry="30.598" color="#000" overflow="visible" fill="#5dc88d"/><g transform="translate(723.504 631.676) scale(.81461)" fill="red"><circle r="17.361" cy="158.853" cx="222.331" fill="#fff"/><circle r="11.39" cy="166.943" cx="222.331" fill="#2d8555"/></g><circle r="14.142" cy="760.054" cx="953.413" fill="#fff"/><circle r="9.279" cy="766.644" cx="953.413" fill="#2d8555"/><path d="M912.317 790.414a16.001 16.292 0 0015.891 14.546 16.001 16.292 0 0015.903-14.546z" fill="#fff"/><g transform="translate(723.504 631.676) scale(.81461)" fill="red"><rect rx="52.442" ry="52.442" y="238.946" x="180.444" height="182.564" width="142.858" fill="#5dc88d"/><path d="M181.014 284.056a53.233 53.233 0 00-.635 8.198v77.682c0 29.053 23.39 52.442 52.442 52.442h37.975c29.052 0 52.439-23.389 52.439-52.442v-77.682c0-1.67-.084-3.318-.236-4.947a72.616 104.373 0 01-70.753 81.291 72.616 104.373 0 01-71.232-84.542z" fill="#2d8555"/></g><g transform="matrix(-.7151 .39015 .27041 .49536 1230.153 175.29)" fill="red"><rect ry="16.823" y="710.561" x="761.463" height="129.092" width="37.027" rx="16.823" fill="#95dbb4"/><path d="M789.984 712.678l-7.766 127.05a16.778 16.778 0 0016.544-16.808v-95.447a16.787 16.787 0 00-8.778-14.795z" fill="#349c63"/></g><g transform="matrix(.7151 .39015 -.27041 .49536 631.131 175.29)" fill="red"><rect ry="16.823" y="710.561" x="761.463" height="129.092" width="37.027" rx="16.823" fill="#95dbb4"/><path d="M789.984 712.678l-7.766 127.05a16.778 16.778 0 0016.544-16.808v-95.447a16.787 16.787 0 00-8.778-14.795z" fill="#349c63"/></g><rect rx="19.286" style="isolation:auto;mix-blend-mode:normal;solid-color:#000;solid-opacity:1" width="95.357" height="38.571" x="880.714" y="877.719" ry="19.286" color="#000" overflow="visible" fill="#3d616c"/><rect rx="7.264" style="isolation:auto;mix-blend-mode:normal;solid-color:#000;solid-opacity:1" width="43.689" height="28.537" x="906.548" y="884.252" ry="7.264" color="#000" overflow="visible" fill="#538292"/><rect rx="8.036" style="isolation:auto;mix-blend-mode:normal;solid-color:#000;solid-opacity:1" width="16.786" height="36.071" x="876.071" y="877.005" ry="8.036" color="#000" overflow="visible" fill="#5dc88d"/><rect rx="8.036" style="isolation:auto;mix-blend-mode:normal;solid-color:#000;solid-opacity:1" width="16.786" height="36.071" x="961.607" y="878.791" ry="8.036" color="#000" overflow="visible" fill="#5dc88d"/><rect rx="1.326" style="isolation:auto;mix-blend-mode:normal;solid-color:#000;solid-opacity:1" width="65.786" height="2.652" x="894.364" y="878.995" ry="1.326" color="#000" overflow="visible" fill="#538292"/><g transform="matrix(.02832 .03051 -.03084 .02802 950.639 891.265)"><circle transform="rotate(-90)" r="300" cy="-209.117" cx="-501.844" opacity=".99" fill="#fff"/><path d="M-209.117 201.844A300 300 0 0150.827 352.081a300 300 0 01-.41 300.236 300 300 0 01-260.352 149.526" opacity=".99" fill="#fff"/><path d="M90.927 501.894A300 300 0 01-59.31 761.838a300 300 0 01-300.236-.41 300 300 0 01-149.526-260.353" opacity=".99" fill="#fff"/><path d="M-209.115 801.999a300 300 0 01-212.523-88.26 300 300 0 01-87.475-212.848l299.998 1.108z" opacity=".99" fill="#fff"/><circle r="275" cy="501.844" cx="-209.117" opacity=".99" fill="#538292"/></g><g fill="#3d616c" fill-rule="evenodd"><path d="M927.605 888.511l-3.417.927-1.985 2.508 2.921.11 3.473-.928z"/><path d="M925.042 891.973l1.212 2.345 2.232.245.331-2.671-.276-.818z"/><path d="M922.341 891.892l3.224-.055.965 2.453-4.161-2.29"/><path d="M922.3 891.85l-.689 1.69.055 1.255-.461.593 3.52.36 1.846-1.58z"/><path d="M924.684 895.708l1.873-1.636 1.847.491z"/><path d="M924.739 895.585l-.662 1.527.303.927 3.528.6.689-1.091-.193-3.08z"/><path d="M920.936 895.497l3.555 2.719.468-2.59z"/><path d="M921.515 893.69l3.224 1.963-3.83-.15.537-.845z"/><path d="M920.922 895.463l-.772 2.426.083.79 1.681 1.717 2.618-2.317z"/><path d="M920.202 898.587l-.028 2.726 1.764 1.336.083-2.344zm1.934 1.764l2.948-.354 3.05-1.51-3.546-.507z"/><path d="M924.883 899.692l-.023 4.268 1.42-1.227 1.914.361z"/><path d="M925.067 899.955l2.756-1.347.689-1.106.744 2.59-1.185 3.42zm-3.237 2.705l3.025-.356-2.888-1.96z"/><path d="M924.478 898.047l-2.54 2.298 2.948 2.017.027-2.48zm-1.448-3.43l3.514-.504-1.681 1.663z"/><path d="M922.038 894.086l1.02.586-.772-2.794-.827 1.963zm2.624 9.993l2.258-2.057 2.375 3.266-1.41-.064-2.562.109z"/><path d="M921.662 902.6l-.33 2.507 2.672-.9.937 1.09.165-.899-.22-2.208z"/><path d="M920.192 901.105l-.166 1.936.882 1.717.524.409.427-2.603z"/><path d="M921.378 905.06l2.762-1.167.99.982-1.217 2.666s-1.378-.872-1.488-.981c-.11-.11-1.047-1.5-1.047-1.5z"/><path d="M923.825 907.299l.386 1.035 1.818.9-.11-2.317-.778-2.073-1.234 2.645z"/><path d="M925.13 904.831l2.48-.49 1.623.93-1.954 2.314-1.764-1.5z"/><path d="M925.574 906.074l.485 3.184.613-1.009.803.005.637-1.671zm-3.329-14.155l1.956-2.454 1.433 2.522zm-2.096 6.611l3.552.324-1.739 1.567zm4.548-2.032l3.224 1.963-3.434-.33.141-.665zm3.249 1.956l-1.135 3.68 2.407 3.166-.992-4.318zm-5.563 8.089l1.557 1.077 1.226-2.698z"/><path d="M924.117 903.859c-.048.077-.097 1.764-.097 1.764l1.179-.704-1.043-1.04zm4.076-13.772l-4.037-.609 3.546-.976zm-2.64 1.713l.932 2.392 2.007.405.117-1.619zm-3.249.068c-.049.077.467 1.9.467 1.9l.325.905.211-2.363zm5.001 8.614c-.283.609-.455 1.641-.455 1.641l1.66.02-.56-3.697z"/><path d="M924.887 899.786l2.01 2.38 1.076-3.686zm5.981-11.141l3.417.927 1.984 2.508-2.92.109-3.473-.927z"/><path d="M933.43 892.107l-1.212 2.345-2.232.245-.33-2.672.275-.817z"/><path d="M936.131 892.025l-3.224-.054-.964 2.453 4.16-2.29"/><path d="M936.173 891.985l.689 1.69-.055 1.254.461.593-3.52.36-1.846-1.58z"/><path d="M933.79 895.842l-1.875-1.636-1.846.49z"/><path d="M933.734 895.72l.661 1.526-.303.926-3.527.6-.689-1.09.193-3.08z"/><path d="M937.537 895.63l-3.555 2.72-.468-2.59z"/><path d="M936.958 893.825l-3.224 1.962 3.83-.15-.537-.845z"/><path d="M937.55 895.596l.772 2.427-.082.79-1.681 1.717-2.618-2.317z"/><path d="M938.27 898.721l.028 2.726-1.763 1.336-.083-2.344zm-1.933 1.764l-2.948-.354-3.051-1.51 3.547-.507z"/><path d="M933.59 899.826l.023 4.268-1.42-1.227-1.914.361z"/><path d="M933.405 900.089l-2.755-1.347-.69-1.106-.743 2.59 1.185 3.42zm3.239 2.705l-3.026-.356 2.888-1.96z"/><path d="M933.995 898.18l2.54 2.299-2.948 2.017-.028-2.48zm1.448-3.429l-3.514-.504 1.681 1.663z"/><path d="M936.435 894.22l-1.02.586.772-2.794.826 1.963zm-2.624 9.993l-2.258-2.057-2.375 3.266 1.41-.064 2.562.109z"/><path d="M936.81 902.733l.332 2.508-2.673-.9-.937 1.09-.166-.899.22-2.208z"/><path d="M938.28 901.24l.166 1.935-.882 1.717-.523.409-.427-2.603z"/><path d="M937.095 905.195l-2.763-1.168-.988.982 1.216 2.666s1.378-.872 1.488-.981c.11-.11 1.047-1.5 1.047-1.5z"/><path d="M934.648 907.433l-.386 1.035-1.819.9.11-2.317.78-2.073 1.232 2.645z"/><path d="M933.343 904.965l-2.48-.49-1.623.93 1.954 2.314 1.764-1.5z"/><path d="M932.899 906.207l-.485 3.185-.613-1.009-.803.005-.637-1.671zm3.329-14.154l-1.957-2.454-1.433 2.522zm2.096 6.611l-3.553.324 1.74 1.567zm-4.549-2.032l-3.224 1.963 3.479-.356-.186-.639zm-3.249 1.956l1.135 3.68-2.407 3.166.993-4.318zm5.564 8.089l-1.557 1.077-1.226-2.699z"/><path d="M934.355 903.993c.05.077.098 1.764.098 1.764l-1.18-.704 1.043-1.04zm-4.075-13.772l4.037-.609-3.547-.976zm2.64 1.714l-.932 2.391-2.007.405-.117-1.619zm3.263.055c.049.077-.482 1.992-.482 1.992l-.324.905-.212-2.363zm-5.016 8.626c.283.609.456 1.641.456 1.641l-1.661.02.56-3.618z"/><path d="M933.588 899.874l-2 2.42-1.076-3.685zm-3.401-9.292l-.019.057h.019zm-.019.057h-1.164v.028h-.625l.427 1.321-.474 2.712.13 3.025.86 2.685.008-.32.01.291.746-2.684.13-3.025-.474-2.712.426-1.321zm-1.789.028l-.018-.057v.057z"/><path d="M929.208 900.069l-.819 2.144.862 3.224.76-3.124z"/></g></g><path d="M99.539 758.26a8.017 8.017 0 00-8.035 8.034v323.34a8.019 8.019 0 008.035 8.037h238.486a8.02 8.02 0 008.037-8.037v-323.34a8.019 8.019 0 00-8.037-8.035zm8.199 7.857h222.088a7.648 7.648 0 017.664 7.664v308.369a7.648 7.648 0 01-7.664 7.664H107.738a7.648 7.648 0 01-7.664-7.664V773.78a7.648 7.648 0 017.664-7.663z" style="isolation:auto;mix-blend-mode:normal;solid-color:#000;solid-opacity:1" color="#000" overflow="visible" fill="#fdedda"/><g style="line-height:.01%;-inkscape-font-specification:Symbol"><path d="M-856.439 636.45l3.177-.441 14.974-38.683h4.971l14.709 38.683 3.147.441v3.707h-12.296v-3.707l3.236-.559-2.824-7.883h-17.15l-2.913 7.883 3.236.56v3.706h-12.267zm13.738-13.296h13.59l-6.647-18.386h-.177zm38.331-22.504v7.678h6.03v4.294h-6.03v19.327q0 2.236.911 3.148.942.912 2.472.912.764 0 1.706-.118.97-.147 1.618-.294l.794 3.971q-.824.53-2.412.854-1.589.353-3.177.353-3.53 0-5.619-2.118-2.089-2.148-2.089-6.708v-19.327h-5.03v-4.294h5.03v-7.678zm26.151-2.648v-3.736h10.59v41.36l4.796.824v3.707h-15.386v-3.707l4.795-.823v-36.801zm34.271 42.773q-6.648 0-10.59-4.413-3.912-4.442-3.912-11.502v-1.294q0-6.796 4.03-11.297 4.06-4.53 9.59-4.53 6.413 0 9.707 3.883 3.325 3.883 3.325 10.355v3.618h-20.651l-.089.147q.089 4.59 2.324 7.56 2.236 2.942 6.266 2.942 2.942 0 5.148-.823 2.236-.853 3.854-2.324l2.265 3.765q-1.706 1.647-4.53 2.795-2.795 1.118-6.737 1.118zm-.882-28.476q-2.913 0-4.972 2.47-2.059 2.443-2.53 6.15l.06.146h14.678v-.765q0-3.412-1.824-5.707-1.823-2.294-5.412-2.294zm39.478 27.858q-.265-1.295-.412-2.324-.147-1.03-.206-2.06-1.677 2.148-4.207 3.59-2.5 1.412-5.354 1.412-4.971 0-7.56-2.413-2.589-2.441-2.589-6.854 0-4.53 3.648-6.972 3.677-2.47 10.06-2.47H-706v-3.707q0-2.795-1.765-4.413-1.765-1.647-4.912-1.647-2.177 0-3.854.559-1.647.559-2.677 1.53l-.618 3.353h-4.471v-6.178q2.177-1.735 5.266-2.765 3.088-1.059 6.707-1.059 5.412 0 8.766 2.765 3.354 2.766 3.354 7.914v16.532q.029.588.088 1.177l2.353.323v3.707zm-9.326-4.236q2.883 0 5.266-1.383 2.383-1.382 3.412-3.324v-5.236h-6.177q-3.56 0-5.648 1.647-2.06 1.648-2.06 4 0 2.09 1.295 3.207 1.294 1.089 3.912 1.089zm46.097-17.591h-4.354l-.941-3.825q-1.06-1-2.677-1.588-1.589-.618-3.618-.618-3.09 0-4.59 1.353t-1.5 3.265q0 1.883 1.324 2.971 1.324 1.089 5.383 1.942 6.03 1.294 8.973 3.53 2.941 2.206 2.941 5.942 0 4.236-3.442 6.854-3.412 2.619-8.942 2.619-3.619 0-6.502-.824-2.882-.853-5.148-2.442l-.029-7.266h4.354l1.088 4.266q1 .912 2.707 1.324 1.735.411 3.53.411 3.088 0 4.824-1.235 1.765-1.265 1.765-3.295 0-1.912-1.47-3.147-1.442-1.236-5.502-2.148-5.795-1.265-8.737-3.442-2.941-2.177-2.941-5.883 0-3.883 3.294-6.619 3.324-2.736 8.62-2.736 3.618 0 6.5.942 2.884.94 4.796 2.618zm16.473-17.68v7.678h6.031v4.294h-6.03v19.327q0 2.236.911 3.148.942.912 2.471.912.765 0 1.707-.118.97-.147 1.618-.294l.794 3.971q-.824.53-2.412.854-1.589.353-3.177.353-3.53 0-5.62-2.118-2.088-2.148-2.088-6.708v-19.327h-5.03v-4.294h5.03v-7.678zm51.186 25.092h5.913v4.53h-5.913v5.355l4.795.823v3.707h-15.356v-3.707l4.795-.823v-5.354h-19.238v-3.266l18.885-29.681h6.12zm-18.827 0h13.061v-20.15l-.176-.059-.588 1.56zm57.746-1.912q0 8.208-3.648 12.59-3.647 4.355-9.972 4.355-6.295 0-9.972-4.384-3.678-4.383-3.678-12.56v-10.15q0-8.178 3.648-12.56 3.648-4.413 9.943-4.413 6.325 0 10.002 4.412 3.677 4.383 3.677 12.561zm-5.795-11.384q0-5.56-2.03-8.355-2-2.824-5.854-2.824-3.795 0-5.795 2.824-2 2.795-2 8.355v12.561q0 5.56 2.03 8.413 2.03 2.824 5.824 2.824 3.854 0 5.824-2.824 2-2.824 2-8.413zm11.59-6.884q0-3.736 2.412-6.295 2.413-2.56 6.413-2.56 4.06 0 6.472 2.56 2.412 2.53 2.412 6.295v2.265q0 3.736-2.412 6.266t-6.413 2.53q-4.03 0-6.472-2.53-2.412-2.53-2.412-6.266zm4.295 2.265q0 2.177 1.177 3.707 1.206 1.5 3.412 1.5 2.148 0 3.324-1.5 1.206-1.5 1.206-3.707v-2.265q0-2.177-1.206-3.706-1.206-1.56-3.383-1.56t-3.353 1.56q-1.177 1.53-1.177 3.706zm16.444 21.828q0-3.707 2.412-6.266 2.413-2.56 6.413-2.56 4.03 0 6.443 2.56 2.441 2.53 2.441 6.266v2.294q0 3.766-2.412 6.296-2.412 2.53-6.413 2.53-4.06 0-6.472-2.53-2.412-2.53-2.412-6.296zm4.295 2.294q0 2.207 1.177 3.736 1.206 1.5 3.412 1.5 2.177 0 3.354-1.5 1.176-1.53 1.176-3.736v-2.294q0-2.177-1.206-3.707-1.206-1.53-3.383-1.53-2.176 0-3.353 1.53t-1.177 3.707zm-14.297 4.972l-3.206-1.971 20.916-33.477 3.206 1.971zm47.538-12.973q0-7.06 3.825-11.62 3.824-4.589 10.384-4.589 6.59 0 10.414 4.56 3.853 4.56 3.853 11.649v.647q0 7.12-3.824 11.65t-10.384 4.53q-6.62 0-10.443-4.53-3.825-4.56-3.825-11.65zm5.796.647q0 5.06 2.118 8.355 2.147 3.294 6.354 3.294 4.118 0 6.266-3.294 2.147-3.295 2.147-8.355v-.647q0-5-2.147-8.325-2.148-3.324-6.325-3.324t-6.295 3.324q-2.118 3.324-2.118 8.325zm27.387-11.973v-4.294h4.971v-4.03q0-5.09 2.648-7.855 2.677-2.795 7.443-2.795 1 0 2 .177 1.03.147 2.265.441l-.706 4.413q-.53-.118-1.294-.206-.736-.088-1.53-.088-2.56 0-3.795 1.53-1.235 1.5-1.235 4.382v4.03h6.648v4.295h-6.648v23.005l4.795.823v3.707h-15.386v-3.707l4.795-.823v-23.005zm67.16-.558l-2.854.44-12.12 32.536q-1.206 3.207-3.471 5.59-2.265 2.382-6.09 2.382-.676 0-1.765-.176-1.088-.147-1.676-.295l.588-4.56q-.177-.029 1.03.06 1.235.088 1.559.088 1.853 0 3-1.618 1.147-1.589 2-3.677l1.383-3.295-10.502-27.005-2.912-.47v-3.736h12.855v3.736l-3.589.588 5.501 15.709 1.06 4.06h.176l6.619-19.77-3.619-.587v-3.736h12.826zm3.559 11.884q0-7.06 3.824-11.62 3.824-4.589 10.384-4.589 6.59 0 10.414 4.56 3.853 4.56 3.853 11.649v.647q0 7.12-3.824 11.65t-10.384 4.53q-6.619 0-10.443-4.53-3.824-4.56-3.824-11.65zm5.795.647q0 5.06 2.118 8.355 2.147 3.294 6.354 3.294 4.118 0 6.266-3.294 2.147-3.295 2.147-8.355v-.647q0-5-2.147-8.325-2.148-3.324-6.325-3.324t-6.295 3.324q-2.118 3.324-2.118 8.325zm50.715 10.855q-1.5 2.56-3.883 3.942-2.354 1.383-5.442 1.383-5.178 0-8.09-3.325-2.912-3.324-2.912-10.354v-14.209l-3.648-.823v-3.736h9.443v18.826q0 5.09 1.5 7.002t4.677 1.912q3.09 0 5.09-1.236 2.03-1.265 3.059-3.56v-18.385l-4.265-.823v-3.736h10.06v27.299l3.648.823v3.707h-8.855zm13.826-23.386v-3.736h9.972l.56 4.618q1.352-2.442 3.323-3.824 2-1.383 4.56-1.383.677 0 1.383.118.735.088 1.118.206l-.765 5.383-3.295-.176q-2.295 0-3.854 1.088-1.559 1.06-2.412 3v18.269l4.795.823v3.707h-15.385v-3.707l4.795-.823v-22.74zm54.422 28.711q-6.649 0-10.59-4.413-3.913-4.442-3.913-11.502v-1.294q0-6.796 4.03-11.297 4.06-4.53 9.59-4.53 6.413 0 9.708 3.883 3.324 3.883 3.324 10.355v3.618h-20.651l-.088.147q.088 4.59 2.324 7.56 2.235 2.942 6.266 2.942 2.941 0 5.148-.823 2.235-.853 3.853-2.324l2.265 3.765q-1.706 1.647-4.53 2.795-2.795 1.118-6.736 1.118zm-.883-28.476q-2.912 0-4.971 2.47-2.06 2.443-2.53 6.15l.059.146h14.679v-.765q0-3.412-1.824-5.707-1.824-2.294-5.413-2.294zm29.27-.235l-3.824.588 6.56 18.12.53 2.295h.176l.559-2.294 6.354-18.121-3.854-.588v-3.736h12.297v3.736l-2.619.44-10.678 27.653h-4.383l-10.796-27.652-2.618-.441v-3.736h12.296zm36.919 28.711q-6.649 0-10.59-4.413-3.913-4.442-3.913-11.502v-1.294q0-6.796 4.03-11.297 4.06-4.53 9.59-4.53 6.413 0 9.708 3.883 3.324 3.883 3.324 10.355v3.618h-20.651l-.088.147q.088 4.59 2.324 7.56 2.235 2.942 6.265 2.942 2.942 0 5.148-.823 2.236-.853 3.854-2.324l2.265 3.765q-1.706 1.647-4.53 2.795-2.795 1.118-6.737 1.118zm-.883-28.476q-2.912 0-4.971 2.47-2.06 2.443-2.53 6.15l.058.146h14.68v-.765q0-3.412-1.824-5.707-1.824-2.294-5.413-2.294zm18.71-.235v-3.736h9.972l.559 4.618q1.353-2.442 3.324-3.824 2-1.383 4.56-1.383.676 0 1.382.118.735.088 1.118.206l-.765 5.383-3.295-.176q-2.294 0-3.853 1.088-1.56 1.06-2.413 3v18.269l4.795.823v3.707h-15.385v-3.707l4.795-.823v-22.74zm55.774 0l-2.853.44-12.12 32.536q-1.206 3.207-3.471 5.59-2.266 2.382-6.09 2.382-.676 0-1.765-.176-1.088-.147-1.677-.295l.589-4.56q-.177-.029 1.03.06 1.235.088 1.558.088 1.854 0 3.001-1.618 1.147-1.589 2-3.677l1.383-3.295-10.502-27.005-2.912-.47v-3.736h12.855v3.736l-3.589.588 5.501 15.709 1.06 4.06h.176l6.619-19.77-3.619-.587v-3.736h12.826zm25.093 24.298q-1.56 2.177-3.824 3.295-2.236 1.118-5.207 1.118-5.825 0-9.12-4.207-3.265-4.236-3.265-11.12v-.617q0-7.678 3.266-12.385 3.294-4.707 9.178-4.707 2.824 0 4.971 1.06 2.177 1.029 3.707 3v-12.973l-4.795-.824v-3.736h10.59v41.36l4.795.824v3.707h-9.825zm-15.62-10.914q0 4.795 1.97 7.708 1.971 2.912 6.09 2.912 2.588 0 4.353-1.177 1.765-1.177 2.913-3.324V616.8q-1.118-2-2.913-3.177-1.794-1.177-4.294-1.177-4.148 0-6.149 3.442-1.97 3.442-1.97 8.943zm51.068 14.709q-.265-1.295-.412-2.324-.147-1.03-.206-2.06-1.677 2.148-4.207 3.59-2.5 1.412-5.354 1.412-4.971 0-7.56-2.413-2.589-2.441-2.589-6.854 0-4.53 3.648-6.972 3.677-2.47 10.06-2.47h5.972v-3.707q0-2.795-1.765-4.413-1.765-1.647-4.912-1.647-2.177 0-3.854.559-1.647.559-2.677 1.53l-.618 3.353h-4.471v-6.178q2.177-1.735 5.266-2.765 3.088-1.059 6.707-1.059 5.412 0 8.766 2.765 3.353 2.766 3.353 7.914v16.532q.03.588.089 1.177l2.353.323v3.707zm-9.326-4.236q2.883 0 5.266-1.383 2.383-1.382 3.412-3.324v-5.236h-6.177q-3.56 0-5.648 1.647-2.06 1.648-2.06 4 0 2.09 1.295 3.207 1.294 1.089 3.912 1.089zm51.51-23.857l-2.854.44-12.12 32.536q-1.206 3.207-3.47 5.59-2.266 2.382-6.09 2.382-.677 0-1.765-.176-1.089-.147-1.677-.295l.588-4.56q-.176-.029 1.03.06 1.235.088 1.559.088 1.853 0 3-1.618 1.148-1.589 2-3.677l1.383-3.295-10.501-27.005-2.913-.47v-3.736h12.856v3.736l-3.59.588 5.502 15.709 1.059 4.06h.176l6.619-19.77-3.618-.587v-3.736h12.826zm39.713 28.093q-.265-1.295-.412-2.324-.147-1.03-.206-2.06-1.677 2.148-4.207 3.59-2.5 1.412-5.354 1.412-4.971 0-7.56-2.413-2.589-2.441-2.589-6.854 0-4.53 3.648-6.972 3.677-2.47 10.06-2.47h5.973v-3.707q0-2.795-1.765-4.413-1.766-1.647-4.913-1.647-2.177 0-3.854.559-1.647.559-2.677 1.53l-.618 3.353h-4.47v-6.178q2.176-1.735 5.265-2.765 3.089-1.059 6.707-1.059 5.413 0 8.766 2.765 3.354 2.766 3.354 7.914v16.532q.03.588.088 1.177l2.353.323v3.707zm-9.326-4.236q2.883 0 5.266-1.383 2.383-1.382 3.413-3.324v-5.236H5.247q-3.56 0-5.648 1.647-2.06 1.648-2.06 4 0 2.09 1.295 3.207 1.294 1.089 3.912 1.089zm36.036.323q2.883 0 5.06-1.765 2.206-1.794 2.206-4.383h5.207l.06.177q.146 4.118-3.678 7.325-3.795 3.177-8.855 3.177-6.942 0-10.62-4.53-3.647-4.53-3.647-11.385v-1.236q0-6.795 3.677-11.325 3.677-4.56 10.59-4.56 3.825 0 6.855 1.265 3.059 1.265 5.06 3.471l.264 7.06h-4.618l-1.265-5q-1.03-1-2.648-1.618-1.618-.618-3.648-.618-4.56 0-6.53 3.295-1.942 3.265-1.942 8.03v1.236q0 4.883 1.942 8.148 1.941 3.236 6.53 3.236zm28.3-35.594v7.678h6.03v4.294h-6.03v19.327q0 2.236.912 3.148.94.912 2.47.912.765 0 1.707-.118.97-.147 1.618-.294l.794 3.971q-.824.53-2.412.854-1.589.353-3.177.353-3.53 0-5.619-2.118-2.089-2.148-2.089-6.708v-19.327h-5.03v-4.294h5.03v-7.678zm12.002 35.8l4.795-.823v-22.74l-4.795-.823v-3.736h10.59v27.299l4.795.823v3.707H79.084zm10.59-36.271h-5.795v-5.913h5.795zm20.092 11.885l-3.824.588 6.56 18.12.53 2.295h.176l.559-2.294 6.354-18.121-3.854-.588v-3.736h12.296v3.736l-2.618.44-10.678 27.653h-4.383l-10.796-27.652-2.618-.441v-3.736h12.296zm22.739 24.386l4.795-.823v-22.74l-4.795-.823v-3.736h10.59v27.299l4.795.823v3.707h-15.385zm10.59-36.271H137.3v-5.913h5.795zm19.298.471v7.678h6.03v4.294h-6.03v19.327q0 2.236.912 3.148.941.912 2.471.912.765 0 1.706-.118.971-.147 1.618-.294l.794 3.971q-.823.53-2.412.854-1.588.353-3.177.353-3.53 0-5.618-2.118-2.09-2.148-2.09-6.708v-19.327h-5.03v-4.294h5.03v-7.678zm12.002 35.8l4.795-.823v-22.74l-4.795-.823v-3.736h10.59v27.299l4.795.823v3.707h-15.385zm10.59-36.271h-5.795v-5.913h5.795zm23.711 40.596q-6.649 0-10.59-4.413-3.913-4.442-3.913-11.502v-1.294q0-6.796 4.03-11.297 4.06-4.53 9.59-4.53 6.413 0 9.708 3.883 3.324 3.883 3.324 10.355v3.618h-20.651l-.088.147q.088 4.59 2.324 7.56 2.235 2.942 6.266 2.942 2.941 0 5.148-.823 2.235-.853 3.853-2.324l2.265 3.765q-1.706 1.647-4.53 2.795-2.795 1.118-6.736 1.118zm-.883-28.476q-2.912 0-4.971 2.47-2.06 2.443-2.53 6.15l.059.146h14.679v-.765q0-3.412-1.824-5.707-1.824-2.294-5.413-2.294zm43.067 6.031h-4.354l-.941-3.825q-1.06-1-2.677-1.588-1.589-.618-3.619-.618-3.088 0-4.589 1.353-1.5 1.353-1.5 3.265 0 1.883 1.324 2.971 1.324 1.089 5.383 1.942 6.03 1.294 8.972 3.53 2.942 2.206 2.942 5.942 0 4.236-3.442 6.854-3.412 2.619-8.943 2.619-3.618 0-6.5-.824-2.884-.853-5.149-2.442l-.03-7.266h4.355l1.088 4.266q1 .912 2.706 1.324 1.736.411 3.53.411 3.09 0 4.825-1.235 1.765-1.265 1.765-3.295 0-1.912-1.471-3.147-1.441-1.236-5.501-2.148-5.795-1.265-8.737-3.442-2.942-2.177-2.942-5.883 0-3.883 3.295-6.619 3.324-2.736 8.62-2.736 3.618 0 6.5.942 2.883.94 4.795 2.618zm42.066 21.827q-.265-1.295-.412-2.324-.147-1.03-.206-2.06-1.676 2.148-4.206 3.59-2.5 1.412-5.354 1.412-4.972 0-7.56-2.413-2.59-2.441-2.59-6.854 0-4.53 3.649-6.972 3.677-2.47 10.06-2.47h5.972v-3.707q0-2.795-1.765-4.413-1.765-1.647-4.913-1.647-2.177 0-3.853.559-1.648.559-2.677 1.53l-.618 3.353h-4.471v-6.178q2.176-1.735 5.265-2.765 3.089-1.059 6.707-1.059 5.413 0 8.767 2.765 3.353 2.766 3.353 7.914v16.532q.03.588.088 1.177l2.354.323v3.707zm-9.325-4.236q2.883 0 5.266-1.383 2.382-1.382 3.412-3.324v-5.236h-6.178q-3.56 0-5.648 1.647-2.059 1.648-2.059 4 0 2.09 1.294 3.207 1.295 1.089 3.913 1.089zm21.739-23.857v-3.736h9.973l.559 4.618q1.353-2.442 3.324-3.824 2-1.383 4.56-1.383.676 0 1.382.118.735.088 1.118.206l-.765 5.383-3.295-.176q-2.294 0-3.853 1.088-1.56 1.06-2.413 3v18.269l4.795.823v3.707H305.36v-3.707l4.795-.823v-22.74zm38.89 28.711q-6.649 0-10.59-4.413-3.913-4.442-3.913-11.502v-1.294q0-6.796 4.03-11.297 4.06-4.53 9.59-4.53 6.413 0 9.708 3.883 3.324 3.883 3.324 10.355v3.618h-20.651l-.088.147q.088 4.59 2.324 7.56 2.235 2.942 6.266 2.942 2.941 0 5.148-.823 2.235-.853 3.853-2.324l2.265 3.765q-1.706 1.647-4.53 2.795-2.795 1.118-6.736 1.118zm-.883-28.476q-2.912 0-4.971 2.47-2.06 2.443-2.53 6.15l.058.146h14.68v-.765q0-3.412-1.824-5.707-1.824-2.294-5.413-2.294zm32.859 24.151l4.795-.823v-36.801l-4.795-.824v-3.736h10.59v18.298q1.647-2.295 4.03-3.56 2.383-1.265 5.295-1.265 5.119 0 7.943 3.06 2.824 3.059 2.824 9.413v15.415l4.795.823v3.707h-15.385v-3.707l4.795-.823v-15.474q0-3.942-1.706-5.824-1.677-1.883-5.03-1.883-2.383 0-4.354 1.147-1.942 1.118-3.207 3.06v18.974l4.795.823v3.707h-15.385zm60.511 3.707q-.265-1.295-.412-2.324-.147-1.03-.206-2.06-1.677 2.148-4.206 3.59-2.5 1.412-5.354 1.412-4.972 0-7.56-2.413-2.59-2.441-2.59-6.854 0-4.53 3.648-6.972 3.678-2.47 10.061-2.47h5.972v-3.707q0-2.795-1.765-4.413-1.765-1.647-4.913-1.647-2.177 0-3.854.559-1.647.559-2.677 1.53l-.617 3.353h-4.472v-6.178q2.177-1.735 5.266-2.765 3.089-1.059 6.707-1.059 5.413 0 8.766 2.765 3.354 2.766 3.354 7.914v16.532q.03.588.088 1.177l2.354.323v3.707zm-9.325-4.236q2.883 0 5.265-1.383 2.383-1.382 3.413-3.324v-5.236h-6.178q-3.56 0-5.648 1.647-2.06 1.648-2.06 4 0 2.09 1.295 3.207 1.295 1.089 3.913 1.089zm50.862-10.473q0 6.884-3.324 11.12-3.295 4.207-9.09 4.207-3.118 0-5.413-1.177-2.294-1.206-3.824-3.53l-.53 4.089h-5v-41.331l-4.796-.824v-3.736h10.59v17.827q1.5-2.118 3.707-3.236 2.236-1.118 5.207-1.118 5.883 0 9.178 4.707 3.295 4.707 3.295 12.385zm-5.825-.617q0-5.501-2-8.943-2-3.442-6.119-3.442-2.677 0-4.53 1.294-1.824 1.295-2.912 3.472v14.06q1.088 2.207 2.941 3.502 1.883 1.294 4.56 1.294 4.089 0 6.06-2.912 2-2.913 2-7.708zm11.649 11.619l4.795-.823v-22.74l-4.795-.823v-3.736h10.59v27.299l4.796.823v3.707h-15.386zm10.59-36.271h-5.795v-5.913h5.796zm19.298.471v7.678h6.03v4.294h-6.03v19.327q0 2.236.912 3.148.942.912 2.471.912.765 0 1.706-.118.971-.147 1.618-.294l.795 3.971q-.824.53-2.413.854-1.588.353-3.177.353-3.53 0-5.618-2.118-2.089-2.148-2.089-6.708v-19.327h-5.03v-4.294h5.03v-7.678zm34.771 34.8q-1.5 2.56-3.883 3.942-2.353 1.383-5.442 1.383-5.177 0-8.09-3.325-2.912-3.324-2.912-10.354v-14.209l-3.648-.823v-3.736h9.443v18.826q0 5.09 1.5 7.002t4.678 1.912q3.089 0 5.089-1.236 2.03-1.265 3.06-3.56v-18.385l-4.266-.823v-3.736h10.06v27.299l3.648.823v3.707h-8.854zm34.595 4.707q-.265-1.295-.412-2.324-.147-1.03-.206-2.06-1.677 2.148-4.207 3.59-2.5 1.412-5.354 1.412-4.971 0-7.56-2.413-2.589-2.441-2.589-6.854 0-4.53 3.648-6.972 3.677-2.47 10.06-2.47h5.973v-3.707q0-2.795-1.765-4.413-1.766-1.647-4.913-1.647-2.177 0-3.854.559-1.647.559-2.677 1.53l-.618 3.353h-4.47v-6.178q2.176-1.735 5.265-2.765 3.089-1.059 6.707-1.059 5.413 0 8.766 2.765 3.354 2.766 3.354 7.914v16.532q.029.588.088 1.177l2.353.323v3.707zm-9.326-4.236q2.883 0 5.266-1.383 2.383-1.382 3.413-3.324v-5.236h-6.178q-3.56 0-5.648 1.647-2.06 1.648-2.06 4 0 2.09 1.295 3.207 1.294 1.089 3.912 1.089zm20.945-37.919v-3.736h10.59v41.36l4.796.824v3.707H594.97v-3.707l4.795-.823v-36.801zm27.182 42.155h-5.795v-5.942h5.795z" style="line-height:1.25;-inkscape-font-specification:'Roboto Slab'" aria-label="At least 40% of your everyday activities are habitual." font-weight="400" font-family="Roboto Slab" letter-spacing="0" word-spacing="0" fill="#fff" font-size="60.246"/></g><g style="line-height:.01%;-inkscape-font-specification:Symbol"><path d="M192.365 1146.927h-2.881v25.67h2.881v2.388h-5.917v-30.446h5.917zm1.572 21.309l2.511-.43v-17.674l-2.511-.431v-1.957h8.058v1.957l-2.512.431v7.535h2.327l6.271-7.75-1.68-.216v-1.957h7.119v1.957l-2.11.385-6.857 8.505 7.488 9.26 2.11.385v1.942h-7.364v-1.942l1.71-.215-6.394-7.966h-2.62v7.75l2.512.431v1.942h-8.058zm33.527 1.942q-.139-.678-.216-1.217-.077-.54-.107-1.079-.879 1.125-2.204 1.88-1.31.74-2.804.74-2.604 0-3.96-1.264-1.356-1.279-1.356-3.59 0-2.373 1.91-3.652 1.927-1.294 5.27-1.294h3.128v-1.941q0-1.464-.924-2.312-.925-.862-2.573-.862-1.14 0-2.019.292-.863.293-1.402.802l-.324 1.756h-2.342v-3.236q1.14-.909 2.758-1.448 1.618-.555 3.513-.555 2.835 0 4.592 1.449 1.756 1.448 1.756 4.145v8.658q.016.308.047.616l1.232.17v1.94zm-4.884-2.219q1.51 0 2.758-.724t1.787-1.741v-2.743h-3.236q-1.864 0-2.958.863-1.078.863-1.078 2.096 0 1.094.678 1.68.677.57 2.049.57zm24.144-9.214h-2.28l-.493-2.003q-.555-.524-1.403-.832-.832-.323-1.895-.323-1.618 0-2.403.708-.786.71-.786 1.71 0 .987.693 1.557.694.57 2.82 1.017 3.158.678 4.7 1.849 1.54 1.155 1.54 3.112 0 2.219-1.803 3.59-1.787 1.371-4.684 1.371-1.895 0-3.405-.431-1.51-.447-2.696-1.279l-.016-3.806h2.28l.57 2.235q.525.477 1.418.693.91.216 1.85.216 1.617 0 2.526-.647.925-.663.925-1.726 0-1.002-.77-1.649-.756-.647-2.882-1.125-3.035-.662-4.576-1.802-1.54-1.14-1.54-3.082 0-2.034 1.725-3.467 1.74-1.433 4.514-1.433 1.895 0 3.405.494 1.51.493 2.512 1.37zm2.912 9.491l2.512-.43v-19.276l-2.512-.432v-1.956h5.547v9.583q.863-1.201 2.11-1.864 1.249-.663 2.774-.663 2.681 0 4.16 1.603 1.48 1.602 1.48 4.93v8.074l2.51.431v1.942h-8.057v-1.942l2.511-.43v-8.106q0-2.064-.894-3.05-.878-.986-2.634-.986-1.248 0-2.28.6-1.018.586-1.68 1.603v9.938l2.511.431v1.942h-8.058zm36.655-12.773l-1.494.232-6.348 17.04q-.632 1.68-1.818 2.928-1.187 1.248-3.19 1.248-.354 0-.924-.092-.57-.077-.879-.154l.309-2.388q-.093-.015.539.03.647.047.817.047.97 0 1.571-.848.601-.832 1.048-1.926l.724-1.725-5.5-14.145-1.526-.246v-1.957h6.733v1.957l-1.88.308 2.882 8.228.554 2.126h.093l3.467-10.354-1.896-.308v-1.957h6.718zm3.914 13.606q0 1.51-.755 3.158-.755 1.649-2.034 2.743l-1.71-1.14q.724-1.11 1.094-2.265.37-1.156.37-2.45v-2.342h3.035zm30.276-9.939q0 2.99-1.109 5.455-1.11 2.465-3.097 3.975l4.545 3.205-2.08 1.849-5.1-3.636q-.77.246-1.587.385-.816.138-1.664.138-4.345 0-7.057-3.235-2.711-3.236-2.711-8.136v-.323q0-4.884 2.711-8.135 2.712-3.251 7.057-3.251 4.469 0 7.273 3.25 2.82 3.252 2.82 8.136zm-3.035-.354q0-3.914-1.88-6.379-1.864-2.48-5.177-2.48-3.174 0-4.961 2.48-1.772 2.48-1.772 6.38v.353q0 3.945 1.772 6.425 1.787 2.466 4.961 2.466 3.36 0 5.208-2.465 1.85-2.466 1.85-6.426zm17.565 8.937q-.786 1.34-2.034 2.064-1.232.724-2.85.724-2.712 0-4.237-1.74-1.526-1.742-1.526-5.424v-7.442l-1.91-.432v-1.956h4.946v9.86q0 2.666.785 3.668.786 1.001 2.45 1.001 1.618 0 2.666-.647 1.063-.662 1.602-1.864v-9.63l-2.234-.432v-1.956h5.27v14.298l1.91.432v1.94h-4.638zm7.242.523l2.511-.43v-11.911l-2.511-.432v-1.956h5.547v14.298l2.511.432v1.94h-8.058zm5.547-18.997h-3.036v-3.097h3.036zm4.36 18.997l2.512-.43v-11.911l-2.512-.432v-1.956h5.223l.216 2.48q.832-1.325 2.08-2.049 1.264-.74 2.866-.74 2.696 0 4.175 1.587 1.48 1.572 1.48 4.87v8.15l2.511.431v1.942h-8.058v-1.942l2.511-.43v-8.09q0-2.203-.878-3.128-.863-.924-2.65-.924-1.31 0-2.327.631-1.001.632-1.602 1.726v9.784l2.511.431v1.942h-8.058zm20.338 0l2.512-.43v-11.911l-2.512-.432v-1.956h5.224l.215 2.48q.832-1.325 2.08-2.049 1.264-.74 2.866-.74 2.697 0 4.176 1.587 1.479 1.572 1.479 4.87v8.15l2.512.431v1.942h-8.059v-1.942l2.512-.43v-8.09q0-2.203-.879-3.128-.862-.924-2.65-.924-1.31 0-2.326.631-1.002.632-1.603 1.726v9.784l2.512.431v1.942h-8.059zm24.268.833q0 1.51-.755 3.158-.755 1.649-2.034 2.743l-1.71-1.14q.724-1.11 1.094-2.265.37-1.156.37-2.45v-2.342h3.035zm10.339-4.931q0-1.88 1.078-3.282 1.094-1.417 3.251-2.835-1.202-1.525-1.787-2.712-.586-1.202-.586-2.465 0-2.604 1.495-4.006 1.51-1.418 4.145-1.418 2.434 0 3.96 1.403 1.525 1.402 1.525 3.374 0 1.51-.817 2.62-.801 1.093-2.388 2.249l-1.68 1.232 5.24 6.302q.63-1.001.985-2.219.355-1.217.355-2.573h2.711q0 2.019-.6 3.744-.601 1.726-1.742 3.097l2.85 3.452-.03.077h-3.528l-1.31-1.572q-1.233.925-2.727 1.418-1.495.477-3.097.477-3.344 0-5.331-1.772-1.972-1.772-1.972-4.591zm7.303 3.99q1.11 0 2.188-.37 1.078-.384 2.034-1.093l-5.563-6.702-.616.446q-1.402 1.048-1.864 2.003-.447.956-.447 1.726 0 1.741 1.094 2.866t3.174 1.125zm-2.311-15.315q0 .817.416 1.71.416.879 1.248 1.927l2.126-1.464q.878-.586 1.186-1.264.324-.693.324-1.525 0-.94-.755-1.664-.74-.724-1.941-.724-1.248 0-1.926.878-.678.863-.678 2.126zm29.074-3.113l-2.28.355 2.881 12.357.416 2.804.093.016.6-2.82 4.13-14.668h2.68l4.146 14.668.616 2.881h.092l.447-2.881 2.82-12.357-2.296-.355v-1.956h7.134v1.956l-1.803.231-4.884 20.246h-2.712l-4.437-15.562-.401-2.018h-.092l-.386 2.018-4.499 15.562h-2.696l-4.884-20.246-1.803-.23v-1.957h7.118zm22.819 11.988q0-3.698 2.003-6.086 2.003-2.404 5.44-2.404 3.45 0 5.454 2.389 2.018 2.388 2.018 6.101v.34q0 3.728-2.003 6.1-2.003 2.373-5.439 2.373-3.467 0-5.47-2.372-2.003-2.389-2.003-6.102zm3.036.34q0 2.65 1.11 4.375 1.124 1.726 3.327 1.726 2.157 0 3.282-1.726t1.125-4.376v-.339q0-2.62-1.125-4.36-1.125-1.741-3.313-1.741t-3.297 1.74q-1.11 1.742-1.11 4.361zm14.653-.34q0-3.698 2.003-6.086 2.003-2.404 5.439-2.404 3.451 0 5.454 2.389 2.018 2.388 2.018 6.101v.34q0 3.728-2.003 6.1-2.003 2.373-5.439 2.373-3.466 0-5.47-2.372-2.002-2.389-2.002-6.102zm3.035.34q0 2.65 1.11 4.375 1.124 1.726 3.327 1.726 2.158 0 3.282-1.726 1.125-1.726 1.125-4.376v-.339q0-2.62-1.125-4.36-1.124-1.741-3.312-1.741-2.188 0-3.298 1.74-1.109 1.742-1.109 4.361zm25.87 6.162q-.817 1.14-2.003 1.726-1.171.585-2.727.585-3.051 0-4.777-2.203-1.71-2.219-1.71-5.824v-.324q0-4.021 1.71-6.486 1.726-2.466 4.807-2.466 1.48 0 2.604.555 1.14.54 1.942 1.572v-6.795l-2.512-.432v-1.956h5.547v21.663l2.512.431v1.942h-5.147zm-8.182-5.716q0 2.511 1.033 4.037 1.032 1.525 3.189 1.525 1.356 0 2.28-.616.925-.616 1.526-1.741v-7.735q-.586-1.048-1.526-1.664-.94-.616-2.25-.616-2.172 0-3.22 1.802-1.032 1.803-1.032 4.684zm23.821 7.704v-2.08l7.35-8.166q1.972-2.204 2.665-3.498.709-1.294.709-2.65 0-1.68-.986-2.82-.987-1.155-2.604-1.155-2.327 0-3.42 1.186-1.095 1.187-1.095 3.359h-2.912l-.03-.092q-.078-2.897 1.91-4.869 2.003-1.972 5.547-1.972 3.035 0 4.822 1.772 1.803 1.756 1.803 4.484 0 1.833-1.094 3.667-1.078 1.833-3.05 3.96l-5.902 6.424.03.077h7.967l.246-2.573h2.573v4.946zm32.094-8.551q0 4.298-1.91 6.594-1.91 2.28-5.223 2.28-3.298 0-5.224-2.295-1.926-2.296-1.926-6.58v-5.315q0-4.284 1.91-6.58 1.911-2.31 5.209-2.31 3.312 0 5.238 2.31 1.926 2.296 1.926 6.58zm-3.035-5.963q0-2.912-1.063-4.376-1.048-1.48-3.066-1.48-1.988 0-3.036 1.48-1.047 1.464-1.047 4.376v6.579q0 2.912 1.063 4.407 1.063 1.479 3.05 1.479 2.019 0 3.051-1.48 1.048-1.479 1.048-4.406zm21.032 5.963q0 4.298-1.91 6.594-1.911 2.28-5.224 2.28-3.297 0-5.223-2.295-1.926-2.296-1.926-6.58v-5.315q0-4.284 1.91-6.58 1.91-2.31 5.208-2.31 3.313 0 5.239 2.31 1.926 2.296 1.926 6.58zm-3.036-5.963q0-2.912-1.063-4.376-1.047-1.48-3.066-1.48-1.987 0-3.035 1.48-1.048 1.464-1.048 4.376v6.579q0 2.912 1.063 4.407 1.063 1.479 3.051 1.479 2.018 0 3.05-1.48 1.048-1.479 1.048-4.406zm6.379 14.514v-2.08l7.35-8.166q1.972-2.204 2.665-3.498.71-1.294.71-2.65 0-1.68-.987-2.82-.986-1.155-2.604-1.155-2.326 0-3.42 1.186-1.094 1.187-1.094 3.359h-2.912l-.031-.092q-.077-2.897 1.91-4.869 2.003-1.972 5.547-1.972 3.036 0 4.823 1.772 1.803 1.756 1.803 4.484 0 1.833-1.094 3.667-1.079 1.833-3.051 3.96l-5.901 6.424.03.077h7.966l.247-2.573h2.573v4.946zm16.302-25.638h5.932v30.445h-5.932v-2.388h2.897v-25.67h-2.897z" style="line-height:1.25;-inkscape-font-specification:'Roboto Slab'" aria-label="[Kashy, Quinn, &amp; Wood 2002]" font-weight="400" font-family="Roboto Slab" letter-spacing="0" word-spacing="0" fill="#fff" font-size="31.555"/></g><g style="line-height:.01%"><path d="M-761.902 683.818v-4.683h19.286v4.683l-6.01 1.033v18.548h26.034v-18.548l-6.011-1.033v-4.683h19.286v4.683l-6.01 1.033v42.296l6.01 1.033v4.646h-19.286v-4.646l6.01-1.033v-18.032h-26.034v18.032l6.011 1.033v4.646h-19.286v-4.646l6.01-1.033v-42.296z" style="line-height:1.25;-inkscape-font-specification:'Roboto Slab'" font-size="75.522" font-family="Roboto Slab" aria-label="H" font-weight="400" letter-spacing="0" word-spacing="0" fill="#fad3a5"/></g><g style="line-height:.01%"><path d="M192.49 683.818v-4.683h19.286v4.683l-6.01 1.033v18.548H231.8v-18.548l-6.01-1.033v-4.683h19.284v4.683l-6.01 1.033v42.296l6.01 1.033v4.646H225.79v-4.646l6.011-1.033v-18.032h-26.034v18.032l6.01 1.033v4.646H192.49v-4.646l6.011-1.033v-42.296z" style="line-height:1.25;-inkscape-font-specification:'Roboto Slab'" font-size="75.522" font-family="Roboto Slab" aria-label="H" font-weight="400" letter-spacing="0" word-spacing="0" fill="#fad3a5"/></g></g></svg>