<svg xmlns="http://www.w3.org/2000/svg" width="1118.852" height="535.697" viewBox="0 0 296.03 141.737"><g transform="translate(26.214 6.98) scale(.11189)"><path style="isolation:auto;mix-blend-mode:normal;solid-color:#000;solid-opacity:1" color="#000" overflow="visible" fill="#6cdbff" d="M-234.286 193.791h850v850h-850z"/><g transform="translate(220.224 -116.137)"><circle style="isolation:auto;mix-blend-mode:normal;solid-color:#000;solid-opacity:1" cx="-30.116" cy="754.403" r="245.244" color="#000" overflow="visible" fill="#fff"/><g fill="red"><g transform="translate(-274.664 494.32) scale(.97572)"><circle r="61.429" cy="172.164" cx="251.873" fill="#ff2a2a"/><circle cx="222.331" cy="158.853" r="17.361" fill="#fff"/><circle cx="222.331" cy="158.853" r="11.39" fill="#ad0606"/><circle cx="282.232" cy="157.594" r="17.361" fill="#fff"/><circle cx="282.232" cy="157.594" r="11.39" fill="#ad0606"/><path d="M231.783 194.864a19.643 20 0 0019.508 17.855 19.643 20 0 0019.521-17.855z" fill="#fff"/></g><g transform="matrix(.97572 0 0 -.97572 -887.78 1552.304)"><rect width="37.027" height="129.092" x="761.463" y="710.561" ry="16.823" rx="16.823" fill="#ff2a2a"/><path d="M789.984 712.678l-7.766 127.05a16.778 16.778 0 0016.544-16.808v-95.447a16.787 16.787 0 00-8.778-14.795z" fill="#ad0606"/></g><g transform="rotate(180 413.774 776.375) scale(.97572)"><rect width="37.027" height="129.092" x="761.463" y="710.561" ry="16.823" rx="16.823" fill="#ff2a2a"/><path d="M789.984 712.678l-7.766 127.05a16.778 16.778 0 0016.544-16.808v-95.447a16.787 16.787 0 00-8.778-14.795z" fill="#ad0606"/></g><g transform="translate(-274.664 494.32) scale(.97572)"><rect width="142.858" height="182.564" x="180.444" y="238.946" ry="52.442" rx="52.442" fill="#ff2a2a"/><path d="M181.014 284.056a53.233 53.233 0 00-.635 8.198v77.682c0 29.053 23.39 52.442 52.442 52.442h37.975c29.052 0 52.439-23.389 52.439-52.442v-77.682c0-1.67-.084-3.318-.236-4.947a72.616 104.373 0 01-70.753 81.291 72.616 104.373 0 01-71.232-84.542z" fill="#ad0606"/></g></g></g><g transform="rotate(-15.714 1799.064 1946.411) scale(.61787)" color="#000" fill="#ff2a2a"><circle transform="translate(727.31 315.168)" style="isolation:auto;mix-blend-mode:normal;solid-color:#000;solid-opacity:1" cx="666.701" cy="106.859" r="76.772" overflow="visible"/><circle style="isolation:auto;mix-blend-mode:normal;solid-color:#000;solid-opacity:1" cx="666.701" cy="106.859" r="76.772" transform="translate(434.211 718.734)" overflow="visible"/><circle style="isolation:auto;mix-blend-mode:normal;solid-color:#000;solid-opacity:1" cx="666.701" cy="106.859" r="76.772" transform="translate(-40.158 564.542)" overflow="visible"/><circle transform="translate(-40.158 65.793)" style="isolation:auto;mix-blend-mode:normal;solid-color:#000;solid-opacity:1" cx="666.701" cy="106.859" r="76.772" overflow="visible"/><circle style="isolation:auto;mix-blend-mode:normal;solid-color:#000;solid-opacity:1" cx="666.701" cy="106.859" r="76.772" transform="translate(434.211 -88.398)" overflow="visible"/></g><circle style="isolation:auto;mix-blend-mode:normal;solid-color:#000;solid-opacity:1" cx="327.023" cy="860.823" r="87.61" color="#000" overflow="visible" fill="#fff"/><g transform="rotate(180 704.52 973.235) scale(1.38946)" fill="red"><rect width="37.027" height="129.092" x="761.463" y="710.561" ry="16.823" rx="16.823" fill="#ff2a2a"/><path d="M789.984 712.678l-7.766 127.05a16.778 16.778 0 0016.544-16.808v-95.447a16.787 16.787 0 00-8.778-14.795z" fill="#ad0606"/></g><path style="isolation:auto;mix-blend-mode:normal;solid-color:#000;solid-opacity:1" d="M327.024 760.823a100 100 0 00-100 99.999 100 100 0 00100 100 100 100 0 00100-100 100 100 0 00-100-100zm0 12.388a87.61 87.61 0 0187.61 87.61 87.61 87.61 0 01-87.61 87.611 87.61 87.61 0 01-87.61-87.61 87.61 87.61 0 0187.61-87.61z" color="#000" overflow="visible" fill="#00a4d8"/><rect style="isolation:auto;mix-blend-mode:normal;solid-color:#000;solid-opacity:1" width="25.997" height="59.684" x="799.471" y="394.664" ry="15.279" transform="rotate(39.784)" rx="15.279" color="#000" overflow="visible" fill="#ff2a2a"/><g transform="translate(132.87 70.556) scale(.8761)"><circle r="100" cy="349.505" cx="74.286" style="isolation:auto;mix-blend-mode:normal;solid-color:#000;solid-opacity:1" color="#000" overflow="visible" fill="#fff"/><g transform="translate(-251.346 144.274) scale(1.1382)" fill="red"><ellipse ry="79.688" rx="94.554" cx="284.998" cy="190.423" fill="#ff2a2a"/><g transform="translate(-150.196 -85.761) scale(1.71039)"><circle r="17.361" cy="158.853" cx="222.331" fill="#fff"/><circle r="11.39" cy="158.853" cx="222.331" fill="#ad0606"/></g><g transform="translate(-38.298 -84.916) scale(1.71039)"><circle r="17.361" cy="158.853" cx="222.331" fill="#fff"/><circle r="11.39" cy="158.853" cx="222.331" fill="#ad0606"/></g></g><path d="M74.287 235.363A114.142 114.142 0 00-39.856 349.504 114.142 114.142 0 0074.287 463.647a114.142 114.142 0 00114.14-114.143 114.142 114.142 0 00-114.14-114.14zm0 14.141a100 100 0 01100 100 100 100 0 01-100 100 100 100 0 01-100-100 100 100 0 01100-100z" style="isolation:auto;mix-blend-mode:normal;solid-color:#000;solid-opacity:1" color="#000" overflow="visible" fill="#00a4d8"/></g><g transform="translate(-60.964 767.267) scale(.8761)"><circle r="100" cy="92.717" cx="105.056" style="isolation:auto;mix-blend-mode:normal;solid-color:#000;solid-opacity:1" color="#000" overflow="visible" fill="#fff"/><g transform="translate(-305.66 -167.843) scale(1.63466)" fill="red"><ellipse ry="52.45" rx="61.429" cx="251.873" cy="147.105" fill="#ff2a2a"/><path d="M219.424 166.098a30.84 31.4 0 0030.627 28.033 30.84 31.4 0 0030.649-28.033z" fill="#fff"/></g><path d="M102.907 128.19l-40.937.12c9.394 13.888 24.889 22.192 41.45 22.215 16.184-.033 31.503-9.394 40.955-22.77z" fill="#ad0606"/><path d="M105.057-21.424A114.142 114.142 0 00-9.086 92.716 114.142 114.142 0 00105.057 206.86a114.142 114.142 0 00114.14-114.143 114.142 114.142 0 00-114.14-114.14zm0 14.14a100 100 0 01100 100 100 100 0 01-100 100 100 100 0 01-100-100 100 100 0 01100-100z" style="isolation:auto;mix-blend-mode:normal;solid-color:#000;solid-opacity:1" color="#000" overflow="visible" fill="#00a4d8"/></g><g transform="translate(605.311 214.197) scale(.8761)"><circle r="100" cy="414.956" cx="-188.899" style="isolation:auto;mix-blend-mode:normal;solid-color:#000;solid-opacity:1" color="#000" overflow="visible" fill="#fff"/><path d="M-188.898 300.814A114.142 114.142 0 00-303.04 414.955a114.142 114.142 0 00114.142 114.143A114.142 114.142 0 00-74.757 414.955a114.142 114.142 0 00-114.14-114.14zm0 14.141a100 100 0 01100 100 100 100 0 01-100 100 100 100 0 01-100-100 100 100 0 01100-100z" style="isolation:auto;mix-blend-mode:normal;solid-color:#000;solid-opacity:1" color="#000" overflow="visible" fill="#00a4d8"/><g transform="translate(-544.709 174.778) scale(1.41266)" fill="red"><circle cx="251.873" cy="172.164" r="61.429" fill="#ff2a2a"/><g transform="translate(16.885 11.656) scale(.91762)"><circle r="17.361" cy="158.853" cx="222.331" fill="#fff"/><circle r="11.39" cy="158.853" cx="222.331" fill="#ad0606"/></g><g transform="translate(30.85 14.44) scale(.89703)"><circle r="17.361" cy="157.594" cx="282.232" fill="#fff"/><circle r="11.39" cy="157.594" cx="282.232" fill="#ad0606"/></g><path d="M231.783 196.28a19.643 20 0 0019.508 17.855 19.643 20 0 0019.521-17.855z" fill="#fff"/></g><path d="M-174.966 422.144l-14.074 24.05-13.79-24.213z" style="isolation:auto;mix-blend-mode:normal;solid-color:#000;solid-opacity:1" color="#000" overflow="visible" fill="#fff"/><path d="M-174.844 422.372l-28.109-.124 14.161-24.28z" style="isolation:auto;mix-blend-mode:normal;solid-color:#000;solid-opacity:1" color="#000" overflow="visible" fill="#ad0606"/></g><g transform="translate(-32.105 37.63) scale(.8761)"><circle r="100" cy="593.791" cx="-30" style="isolation:auto;mix-blend-mode:normal;solid-color:#000;solid-opacity:1" color="#000" overflow="visible" fill="#fff"/><ellipse ry="94.643" rx="73.929" cy="604.148" cx="-32.5" style="isolation:auto;mix-blend-mode:normal;solid-color:#000;solid-opacity:1" color="#000" overflow="visible" fill="#ff2a2a"/><path d="M-29.999 479.65a114.142 114.142 0 00-114.143 114.14A114.142 114.142 0 00-29.999 707.932 114.142 114.142 0 0084.141 593.79a114.142 114.142 0 00-114.14-114.14zm0 14.14a100 100 0 01100 100 100 100 0 01-100 100 100 100 0 01-100-100 100 100 0 01100-100z" style="isolation:auto;mix-blend-mode:normal;solid-color:#000;solid-opacity:1" color="#000" overflow="visible" fill="#00a4d8"/><g transform="matrix(1.44053 0 0 1.94675 -396.528 254.925)" fill="red"><ellipse ry="12.591" rx="5.986" cy="174.998" cx="210.589" fill="#fff"/><ellipse ry="8.261" rx="3.928" cy="174.998" cx="210.589" fill="#ad0606"/></g><rect ry="10.607" y="578.096" x="-30.81" height="54.043" width="21.213" style="isolation:auto;mix-blend-mode:normal;solid-color:#000;solid-opacity:1" rx="10.607" color="#000" overflow="visible" fill="#ad0606"/><ellipse ry="32.465" rx="8.586" cy="603.245" cx="-33.075" style="isolation:auto;mix-blend-mode:normal;solid-color:#000;solid-opacity:1" color="#000" overflow="visible" fill="#fff"/></g><path style="isolation:auto;mix-blend-mode:normal;solid-color:#000;solid-opacity:1" d="M197.954 256.556A120.204 120.204 0 0077.75 376.758a120.204 120.204 0 00120.204 120.204 120.204 120.204 0 00120.202-120.204 120.204 120.204 0 00-120.202-120.202zm0 14.891a105.31 105.31 0 01105.31 105.31 105.31 105.31 0 01-105.31 105.311 105.31 105.31 0 01-105.31-105.31 105.31 105.31 0 01105.31-105.31z" color="#000" overflow="visible" fill="#ffcf4a"/></g><g style="line-height:.01%;-inkscape-font-specification:'Roboto Slab'"><path style="line-height:1.25;-inkscape-font-specification:'Roboto Slab'" d="M15.719 132.155h-.95l-.252-1.407q-.328-.32-.806-.525-.478-.205-1.14-.205-1.55 0-2.384 1.126-.833 1.12-.833 2.848v.157q0 1.728.813 2.862.82 1.127 2.267 1.127.676 0 1.23-.212.552-.212.853-.52L14.77 136h.949v1.769q-.43.553-1.29.99-.861.43-1.995.43-1.94 0-3.182-1.434-1.243-1.434-1.243-3.606v-.143q0-2.185 1.222-3.613 1.223-1.434 3.203-1.434 1.134 0 1.994.444.86.437 1.29.983zm1.434 3.128q0-1.639.888-2.698.888-1.065 2.41-1.065 1.53 0 2.418 1.059.895 1.058.895 2.704v.15q0 1.653-.888 2.705-.888 1.051-2.41 1.051-1.537 0-2.425-1.051-.888-1.059-.888-2.705zm1.345.15q0 1.175.492 1.94.499.765 1.475.765.956 0 1.455-.765.498-.765.498-1.94v-.15q0-1.161-.498-1.933-.499-.771-1.468-.771-.97 0-1.462.771-.492.772-.492 1.933zm6.29 2.752l1.113-.19v-5.28l-1.113-.191v-.867h2.315l.096 1.1q.369-.588.922-.91.56-.327 1.27-.327 1.195 0 1.85.703.656.697.656 2.159v3.612l1.113.191v.86h-3.57v-.86l1.113-.19v-3.586q0-.977-.39-1.386-.382-.41-1.174-.41-.58 0-1.031.28-.444.28-.71.765v4.336l1.113.191v.86h-3.572zm11.562-8.311v1.783h1.4v.997h-1.4v4.487q0 .519.212.73.218.212.573.212.178 0 .396-.027.226-.034.376-.069l.184.922q-.19.123-.56.198-.368.082-.737.082-.82 0-1.304-.491-.485-.499-.485-1.557v-4.487h-1.168v-.997h1.168v-1.783zm6.16 9.316q-1.543 0-2.459-1.025-.908-1.031-.908-2.67v-.3q0-1.578.936-2.623.942-1.052 2.226-1.052 1.489 0 2.254.902.771.901.771 2.403v.84h-4.794l-.02.035q.02 1.065.54 1.755.518.683 1.454.683.683 0 1.195-.192.52-.198.895-.54l.526.875q-.397.382-1.052.649-.649.26-1.564.26zm-.205-6.611q-.676 0-1.154.573-.478.567-.587 1.428l.013.034h3.408v-.178q0-.792-.423-1.325-.424-.532-1.257-.532zm4.159 5.606l.792-.157 2.179-2.718-2.11-2.629-.793-.157v-.867h2.896v.867l-.67.082 1.38 1.776 1.387-1.783-.663-.075v-.867h2.916v.867l-.792.157-2.11 2.63 2.171 2.717.8.157v.86H50.95v-.86l.656-.075-1.448-1.857-1.448 1.857.662.075v.86h-2.909zm10.674-8.311v1.783h1.4v.997h-1.4v4.487q0 .519.212.73.218.212.574.212.177 0 .396-.027.225-.034.375-.069l.185.922q-.192.123-.56.198-.37.082-.738.082-.82 0-1.304-.491-.485-.499-.485-1.557v-4.487h-1.168v-.997h1.168v-1.783zm13.843 2.281h-.95l-.252-1.407q-.328-.32-.806-.525-.478-.205-1.14-.205-1.55 0-2.384 1.126-.833 1.12-.833 2.848v.157q0 1.728.813 2.862.82 1.127 2.267 1.127.676 0 1.23-.212.553-.212.853-.52l.253-1.406h.95v1.769q-.431.553-1.292.99-.86.43-1.994.43-1.94 0-3.182-1.434-1.243-1.434-1.243-3.606v-.143q0-2.185 1.222-3.613 1.223-1.434 3.203-1.434 1.134 0 1.994.444.86.437 1.291.983zm6.713 5.798q-.348.594-.901.915-.547.321-1.264.321-1.202 0-1.878-.771-.676-.772-.676-2.404v-3.299l-.847-.191v-.867h2.193v4.37q0 1.182.348 1.626.348.444 1.086.444.717 0 1.181-.287.471-.294.71-.827v-4.268l-.99-.191v-.867h2.336v6.337l.847.191v.86h-2.056zm6.584 1.237q-1.544 0-2.459-1.025-.908-1.031-.908-2.67v-.3q0-1.578.935-2.623.943-1.052 2.227-1.052 1.488 0 2.253.902.772.901.772 2.403v.84h-4.794l-.02.035q.02 1.065.539 1.755.519.683 1.455.683.683 0 1.195-.192.519-.198.894-.54l.526.875q-.396.382-1.052.649-.648.26-1.563.26zm-.205-6.611q-.676 0-1.154.573-.478.567-.588 1.428l.014.034h3.408v-.178q0-.792-.424-1.325-.423-.532-1.256-.532z" aria-label="Context Cue" font-weight="400" font-family="Roboto Slab" letter-spacing="0" word-spacing="0" fill="#00a4d8" font-size="125"/></g><path style="isolation:auto;mix-blend-mode:normal;solid-color:#000;solid-opacity:1" color="#000" overflow="visible" fill="#6cdbff" d="M100.461 28.664h95.107v95.106h-95.107z"/><g transform="matrix(.17504 0 0 .18 103.647 43.896)" fill="red"><circle r="61.429" cy="172.164" cx="251.873" fill="#ff2a2a"/><circle cx="222.331" cy="158.853" r="17.361" fill="#fff"/><circle cx="222.331" cy="158.853" r="11.39" fill="#a00"/><circle cx="282.232" cy="157.594" r="17.361" fill="#fff"/><circle cx="282.232" cy="157.594" r="11.39" fill="#a00"/><path d="M231.783 194.864a19.643 20 0 0019.508 17.855 19.643 20 0 0019.521-17.855z" fill="#fff"/></g><g transform="matrix(-.1601 .07276 .07076 .16463 204.971 -99.426)" fill="red"><rect width="37.027" height="129.092" x="761.463" y="710.561" ry="16.823" rx="16.823" fill="#ff2a2a"/><path d="M789.984 712.678l-7.766 127.05a16.778 16.778 0 0016.544-16.808v-95.447a16.787 16.787 0 00-8.778-14.795z" fill="#a00"/></g><g transform="matrix(.17384 .04417 -.04005 .17107 56.356 -81.763)" fill="red"><rect width="37.027" height="129.092" x="761.463" y="710.561" ry="16.823" rx="16.823" fill="#ff2a2a"/><path d="M789.984 712.678l-7.766 127.05a16.778 16.778 0 0016.544-16.808v-95.447a16.787 16.787 0 00-8.778-14.795z" fill="#a00"/></g><g transform="matrix(.17504 0 0 .18 104.319 43.896)" fill="red"><rect width="142.858" height="182.564" x="180.444" y="238.946" ry="52.442" rx="52.442" fill="#ff2a2a"/><path d="M181.014 284.056a53.233 53.233 0 00-.635 8.198v77.682c0 29.053 23.39 52.442 52.442 52.442h37.975c29.052 0 52.439-23.389 52.439-52.442v-77.682c0-1.67-.084-3.318-.236-4.947a72.616 104.373 0 01-70.753 81.291 72.616 104.373 0 01-71.232-84.542z" fill="#ad0606"/></g><path style="isolation:auto;mix-blend-mode:normal;solid-color:#000;solid-opacity:1" d="M147.557 68.924l-4.548-7.899 8.926-.101z" color="#000" overflow="visible" fill="#ffcf4a"/><circle style="isolation:auto;mix-blend-mode:normal;solid-color:#000;solid-opacity:1" cx="684.883" cy="728.103" r="87.61" color="#000" overflow="visible" fill="#ffcf4a" transform="matrix(.17982 0 0 .1389 24.188 -51.84)"/><path style="isolation:auto;mix-blend-mode:normal;solid-color:#000;solid-opacity:1" d="M147.725 64.25l-4.549-7.899 8.927-.1z" color="#000" overflow="visible" fill="#fff"/><g transform="matrix(.12614 0 0 .12972 -2.713 .881)"><ellipse ry="76.5" rx="104.06" style="isolation:auto;mix-blend-mode:normal;solid-color:#000;solid-opacity:1" cx="1189.574" cy="373.171" color="#000" overflow="visible" fill="#fff"/><g fill="red"><g transform="matrix(.40184 -.01422 .01463 .39077 1081.932 277.049)"><circle cx="251.873" cy="172.164" r="61.429" fill="#ff2a2a"/><circle r="17.361" cy="158.853" cx="222.331" fill="#fff"/><circle r="11.39" cy="158.853" cx="222.331" fill="#a00"/><circle r="17.361" cy="157.594" cx="282.232" fill="#fff"/><circle r="11.39" cy="157.594" cx="282.232" fill="#a00"/><path d="M231.783 194.864a19.643 20 0 0019.508 17.855 19.643 20 0 0019.521-17.855z" fill="#fff"/></g><g transform="matrix(.40184 -.01422 -.01463 -.39077 845.287 709.7)"><rect ry="16.823" y="710.561" x="761.463" height="129.092" width="37.027" rx="16.823" fill="#ff2a2a"/><path d="M789.984 712.678l-7.766 127.05a16.778 16.778 0 0016.544-16.808v-95.447a16.787 16.787 0 00-8.778-14.795z" fill="#a00"/></g><g transform="matrix(-.40184 .01422 -.01463 -.39077 1552.909 663.634)"><rect ry="16.823" y="710.561" x="761.463" height="129.092" width="37.027" rx="16.823" fill="#ff2a2a"/><path d="M789.984 712.678l-7.766 127.05a16.778 16.778 0 0016.544-16.808v-95.447a16.787 16.787 0 00-8.778-14.795z" fill="#a00"/></g><g transform="matrix(.40184 -.01422 .01463 .39077 1081.932 277.049)"><rect ry="52.442" y="238.946" x="180.444" height="182.564" width="142.858" rx="52.442" fill="#ff2a2a"/><path d="M181.014 284.056a53.233 53.233 0 00-.635 8.198v77.682c0 29.053 23.39 52.442 52.442 52.442h37.975c29.052 0 52.439-23.389 52.439-52.442v-77.682c0-1.67-.084-3.318-.236-4.947a72.616 104.373 0 01-70.753 81.291 72.616 104.373 0 01-71.232-84.542z" fill="#ad0606"/></g></g></g><g opacity=".5" fill="red"><g transform="matrix(.04404 -.04362 .04362 .04404 94.228 67.339)"><circle cx="251.873" cy="172.164" r="61.429" fill="#ff2a2a"/><circle r="17.361" cy="158.853" cx="222.331" fill="#fff"/><circle r="11.39" cy="158.853" cx="222.331" fill="#a00"/><circle r="17.361" cy="157.594" cx="282.232" fill="#fff"/><circle r="11.39" cy="157.594" cx="282.232" fill="#a00"/><path d="M231.783 194.864a19.643 20 0 0019.508 17.855 19.643 20 0 0019.521-17.855z" fill="#fff"/></g><g transform="scale(.06199 -.06199) rotate(44.727 3712.24 1082.733)"><rect ry="16.823" y="710.561" x="761.463" height="129.092" width="37.027" rx="16.823" fill="#ff2a2a"/><path d="M789.984 712.678l-7.766 127.05a16.778 16.778 0 0016.544-16.808v-95.447a16.787 16.787 0 00-8.778-14.795z" fill="#a00"/></g><g transform="matrix(-.04404 .04362 -.04362 -.04404 189.148 63.235)"><rect ry="16.823" y="710.561" x="761.463" height="129.092" width="37.027" rx="16.823" fill="#ff2a2a"/><path d="M789.984 712.678l-7.766 127.05a16.778 16.778 0 0016.544-16.808v-95.447a16.787 16.787 0 00-8.778-14.795z" fill="#a00"/></g><g transform="matrix(.04404 -.04362 .04362 .04404 94.228 67.339)"><rect ry="52.442" y="238.946" x="180.444" height="182.564" width="142.858" rx="52.442" fill="#ff2a2a"/><path d="M181.014 284.056a53.233 53.233 0 00-.635 8.198v77.682c0 29.053 23.39 52.442 52.442 52.442h37.975c29.052 0 52.439-23.389 52.439-52.442v-77.682c0-1.67-.084-3.318-.236-4.947a72.616 104.373 0 01-70.753 81.291 72.616 104.373 0 01-71.232-84.542z" fill="#ad0606"/></g></g><g opacity=".5" fill="red"><g transform="matrix(-.04404 -.04362 -.04362 .04404 199.278 67.599)"><circle cx="251.873" cy="172.164" r="61.429" fill="#ff2a2a"/><circle r="17.361" cy="158.853" cx="222.331" fill="#fff"/><circle r="11.39" cy="158.853" cx="222.331" fill="#a00"/><circle r="17.361" cy="157.594" cx="282.232" fill="#fff"/><circle r="11.39" cy="157.594" cx="282.232" fill="#a00"/><path d="M231.783 194.864a19.643 20 0 0019.508 17.855 19.643 20 0 0019.521-17.855z" fill="#fff"/></g><g transform="matrix(-.04404 -.04362 .04362 -.04404 181.573 139.823)"><rect ry="16.823" y="710.561" x="761.463" height="129.092" width="37.027" rx="16.823" fill="#ff2a2a"/><path d="M789.984 712.678l-7.766 127.05a16.778 16.778 0 0016.544-16.808v-95.447a16.787 16.787 0 00-8.778-14.795z" fill="#a00"/></g><g transform="matrix(.00527 .06176 .06176 -.00527 119.07 21.78)"><rect ry="16.823" y="710.561" x="761.463" height="129.092" width="37.027" rx="16.823" fill="#ff2a2a"/><path d="M789.984 712.678l-7.766 127.05a16.778 16.778 0 0016.544-16.808v-95.447a16.787 16.787 0 00-8.778-14.795z" fill="#a00"/></g><g transform="matrix(-.04404 -.04362 -.04362 .04404 199.278 67.599)"><rect ry="52.442" y="238.946" x="180.444" height="182.564" width="142.858" rx="52.442" fill="#ff2a2a"/><path d="M181.014 284.056a53.233 53.233 0 00-.635 8.198v77.682c0 29.053 23.39 52.442 52.442 52.442h37.975c29.052 0 52.439-23.389 52.439-52.442v-77.682c0-1.67-.084-3.318-.236-4.947a72.616 104.373 0 01-70.753 81.291 72.616 104.373 0 01-71.232-84.542z" fill="#ad0606"/></g></g><g opacity=".5" fill="red"><g transform="matrix(-.0355 -.05081 .05081 -.0355 113.653 113.675)"><circle cx="251.873" cy="172.164" r="61.429" fill="#ff2a2a"/><circle r="17.361" cy="158.853" cx="222.331" fill="#fff"/><circle r="11.39" cy="158.853" cx="222.331" fill="#a00"/><circle r="17.361" cy="157.594" cx="282.232" fill="#fff"/><circle r="11.39" cy="157.594" cx="282.232" fill="#a00"/><path d="M231.783 194.864a19.643 20 0 0019.508 17.855 19.643 20 0 0019.521-17.855z" fill="#fff"/></g><g transform="rotate(26.015 -19.526 228.618) scale(.06198)"><rect ry="16.823" y="710.561" x="761.463" height="129.092" width="37.027" rx="16.823" fill="#ff2a2a"/><path d="M789.984 712.678l-7.766 127.05a16.778 16.778 0 0016.544-16.808v-95.447a16.787 16.787 0 00-8.778-14.795z" fill="#a00"/></g><g transform="scale(-.06199 .06199) rotate(-62.29 17.639 3261.249)"><rect ry="16.823" y="710.561" x="761.463" height="129.092" width="37.027" rx="16.823" fill="#ff2a2a"/><path d="M789.984 712.678l-7.766 127.05a16.778 16.778 0 0016.544-16.808v-95.447a16.787 16.787 0 00-8.778-14.795z" fill="#a00"/></g><g transform="matrix(-.0355 -.05081 .05081 -.0355 113.653 113.675)"><rect ry="52.442" y="238.946" x="180.444" height="182.564" width="142.858" rx="52.442" fill="#ff2a2a"/><path d="M181.014 284.056a53.233 53.233 0 00-.635 8.198v77.682c0 29.053 23.39 52.442 52.442 52.442h37.975c29.052 0 52.439-23.389 52.439-52.442v-77.682c0-1.67-.084-3.318-.236-4.947a72.616 104.373 0 01-70.753 81.291 72.616 104.373 0 01-71.232-84.542z" fill="#ad0606"/></g></g><g opacity=".5" fill="red"><g transform="matrix(.0355 -.05081 -.05081 -.0355 181.015 113.94)"><circle cx="251.873" cy="172.164" r="61.429" fill="#ff2a2a"/><circle r="17.361" cy="158.853" cx="222.331" fill="#fff"/><circle r="11.39" cy="158.853" cx="222.331" fill="#a00"/><circle r="17.361" cy="157.594" cx="282.232" fill="#fff"/><circle r="11.39" cy="157.594" cx="282.232" fill="#a00"/><path d="M231.783 194.864a19.643 20 0 0019.508 17.855 19.643 20 0 0019.521-17.855z" fill="#fff"/></g><g transform="matrix(.0355 -.05081 .05081 .0355 103.61 107.372)"><rect ry="16.823" y="710.561" x="761.463" height="129.092" width="37.027" rx="16.823" fill="#ff2a2a"/><path d="M789.984 712.678l-7.766 127.05a16.778 16.778 0 0016.544-16.808v-95.447a16.787 16.787 0 00-8.778-14.795z" fill="#a00"/></g><g transform="matrix(-.0355 .05081 .05081 .0355 166.002 18.028)"><rect ry="16.823" y="710.561" x="761.463" height="129.092" width="37.027" rx="16.823" fill="#ff2a2a"/><path d="M789.984 712.678l-7.766 127.05a16.778 16.778 0 0016.544-16.808v-95.447a16.787 16.787 0 00-8.778-14.795z" fill="#a00"/></g><g transform="matrix(.0355 -.05081 -.05081 -.0355 181.015 113.94)"><rect ry="52.442" y="238.946" x="180.444" height="182.564" width="142.858" rx="52.442" fill="#ff2a2a"/><path d="M181.014 284.056a53.233 53.233 0 00-.635 8.198v77.682c0 29.053 23.39 52.442 52.442 52.442h37.975c29.052 0 52.439-23.389 52.439-52.442v-77.682c0-1.67-.084-3.318-.236-4.947a72.616 104.373 0 01-70.753 81.291 72.616 104.373 0 01-71.232-84.542z" fill="#ad0606"/></g></g><g style="line-height:.01%;-inkscape-font-specification:'Roboto Slab'"><path style="line-height:1.25;-inkscape-font-specification:'Roboto Slab'" d="M120.933 128.96q1.626 0 2.493.723.867.717.867 2.042 0 .724-.402 1.284-.403.56-1.155.88.813.267 1.168.868.362.601.362 1.482v.8q0 .457.116.675.116.219.383.26l.327.04v.882h-.723q-.786 0-1.12-.547-.328-.546-.328-1.325v-.771q0-.813-.471-1.305-.472-.491-1.264-.491h-2.158v3.387l1.113.191v.86h-3.571v-.86l1.113-.191v-7.833l-1.113-.191v-.86h1.113zm-1.905 4.438h1.769q1.127 0 1.639-.43t.512-1.257q0-.785-.492-1.243-.491-.457-1.523-.457h-1.905zm10.517 5.642q-1.543 0-2.458-1.025-.909-1.032-.909-2.67v-.301q0-1.578.936-2.622.942-1.052 2.226-1.052 1.489 0 2.254.901.772.902.772 2.404v.84h-4.795l-.02.034q.02 1.066.54 1.755.519.683 1.454.683.683 0 1.195-.19.52-.199.895-.54l.526.874q-.396.382-1.052.649-.649.26-1.564.26zm-.205-6.612q-.676 0-1.154.574-.478.567-.587 1.427l.013.034h3.408v-.177q0-.792-.423-1.325-.424-.533-1.257-.533zm9.998 1.4h-1.01l-.219-.887q-.246-.233-.621-.37-.37-.143-.84-.143-.718 0-1.066.315-.348.314-.348.758 0 .437.307.69.308.252 1.25.45 1.4.3 2.083.82.683.512.683 1.38 0 .982-.8 1.59-.791.608-2.075.608-.84 0-1.51-.191-.669-.198-1.195-.567l-.007-1.687h1.011l.253.99q.232.212.628.308.403.095.82.095.717 0 1.12-.286.41-.294.41-.765 0-.444-.342-.731-.335-.287-1.277-.499-1.345-.293-2.028-.799-.683-.505-.683-1.365 0-.902.765-1.537.771-.635 2-.635.84 0 1.51.218.67.219 1.113.608zm1.312 7.042l1.113-.192v-8.113l-1.114-.191v-.868h2.268l.123.902q.368-.505.894-.772.533-.266 1.23-.266 1.372 0 2.13 1.093.765 1.085.765 2.875v.143q0 1.598-.765 2.581-.765.977-2.11.977-.683 0-1.202-.225-.512-.232-.874-.683v2.547l1.113.191v.868h-3.572zm6.057-5.532q0-1.264-.492-2.07-.491-.805-1.461-.805-.574 0-.984.259-.41.26-.662.71v3.6q.253.457.656.71.41.245 1.003.245.957 0 1.448-.696.492-.697.492-1.81zm2.581-.205q0-1.64.888-2.698.888-1.065 2.411-1.065 1.53 0 2.418 1.058.894 1.059.894 2.705v.15q0 1.653-.888 2.704-.887 1.052-2.41 1.052-1.537 0-2.425-1.052-.888-1.058-.888-2.704zm1.346.15q0 1.175.492 1.94.498.764 1.475.764.956 0 1.454-.765.499-.764.499-1.939v-.15q0-1.161-.499-1.933-.498-.772-1.468-.772t-1.461.772q-.492.772-.492 1.933zm6.29 2.752l1.113-.191v-5.279l-1.113-.191v-.868h2.315l.095 1.1q.369-.587.922-.908.56-.328 1.27-.328 1.196 0 1.851.703.656.697.656 2.158v3.613l1.113.191v.86h-3.572v-.86l1.113-.191v-3.585q0-.977-.389-1.387-.382-.41-1.174-.41-.581 0-1.032.28-.444.28-.71.765v4.337l1.113.191v.86h-3.571zm14.866-4.207h-1.01l-.218-.887q-.246-.233-.622-.37-.369-.143-.84-.143-.717 0-1.065.315-.349.314-.349.758 0 .437.308.69.307.252 1.25.45 1.4.3 2.082.82.683.512.683 1.38 0 .982-.799 1.59-.792.608-2.076.608-.84 0-1.509-.191-.67-.198-1.195-.567l-.007-1.687h1.01l.253.99q.233.212.629.308.403.095.82.095.716 0 1.12-.286.409-.294.409-.765 0-.444-.341-.731-.335-.287-1.278-.499-1.345-.293-2.028-.799-.683-.505-.683-1.365 0-.902.765-1.537.772-.635 2.001-.635.84 0 1.51.218.669.219 1.113.608zm4.85 5.212q-1.544 0-2.459-1.025-.908-1.032-.908-2.67v-.301q0-1.578.935-2.622.943-1.052 2.227-1.052 1.488 0 2.253.901.772.902.772 2.404v.84h-4.794l-.02.034q.02 1.066.539 1.755.519.683 1.455.683.682 0 1.195-.19.519-.199.894-.54l.526.874q-.396.382-1.052.649-.648.26-1.563.26zm-.205-6.612q-.676 0-1.154.574-.479.567-.588 1.427l.014.034h3.408v-.177q0-.792-.424-1.325-.423-.533-1.256-.533z" aria-label="Response" font-weight="400" font-family="Roboto Slab" letter-spacing="0" word-spacing="0" fill="#00a4d8" font-size="125"/></g><g transform="translate(26.214 6.98) scale(.11189)"><path style="isolation:auto;mix-blend-mode:normal;solid-color:#000;solid-opacity:1" color="#000" overflow="visible" fill="#6cdbff" d="M1561.429 193.791h850v850h-850z"/><g fill="red"><g transform="translate(1687.213 484.329) scale(1.20646)"><circle cx="251.873" cy="172.164" r="61.429" fill="#ff2a2a"/><circle r="17.361" cy="158.853" cx="222.331" fill="#fff"/><circle r="11.39" cy="155.538" cx="222.331" fill="#a00"/><circle r="17.361" cy="157.594" cx="282.232" fill="#fff"/><circle r="11.39" cy="154.279" cx="282.232" fill="#a00"/><path d="M231.783 189.89a19.643 20 0 0019.508 17.856 19.643 20 0 0019.521-17.855z" fill="#fff"/></g><g transform="matrix(1.20646 0 0 -1.20646 929.1 1792.517)"><rect ry="16.823" y="710.561" x="761.463" height="129.092" width="37.027" rx="16.823" fill="#ff2a2a"/><path d="M789.984 712.678l-7.766 127.05a16.778 16.778 0 0016.544-16.808v-95.447a16.787 16.787 0 00-8.778-14.795z" fill="#a00"/></g><g transform="rotate(180 1525.044 896.534) scale(1.20646)"><rect ry="16.823" y="710.561" x="761.463" height="129.092" width="37.027" rx="16.823" fill="#ff2a2a"/><path d="M789.984 712.678l-7.766 127.05a16.778 16.778 0 0016.544-16.808v-95.447a16.787 16.787 0 00-8.778-14.795z" fill="#a00"/></g><g transform="translate(1687.213 484.329) scale(1.20646)"><rect ry="52.442" y="238.946" x="180.444" height="182.564" width="142.858" rx="52.442" fill="#ff2a2a"/><path d="M181.014 284.056a53.233 53.233 0 00-.635 8.198v77.682c0 29.053 23.39 52.442 52.442 52.442h37.975c29.052 0 52.439-23.389 52.439-52.442v-77.682c0-1.67-.084-3.318-.236-4.947a72.616 104.373 0 01-70.753 81.291 72.616 104.373 0 01-71.232-84.542z" fill="#ad0606"/></g></g><g transform="translate(859.594 -323.739)" color="#000"><rect ry="166.269" y="579.109" x="716.12" height="332.537" width="827.759" style="isolation:auto;mix-blend-mode:normal;solid-color:#000;solid-opacity:1" rx="166.269" overflow="visible" fill="#ffcf4a"/><rect ry="137.296" y="608.082" x="751.344" height="274.592" width="757.311" style="isolation:auto;mix-blend-mode:normal;solid-color:#000;solid-opacity:1" rx="137.296" overflow="visible" fill="#fff"/></g><path style="isolation:auto;mix-blend-mode:normal;solid-color:#000;solid-opacity:1" d="M1990.269 638.074l-36.057-60.894 70.764-.78z" color="#000" overflow="visible" fill="#ffcf4a"/><path style="isolation:auto;mix-blend-mode:normal;solid-color:#000;solid-opacity:1" d="M1990.269 602.044l-36.057-60.894 70.764-.78z" color="#000" overflow="visible" fill="#fff"/><circle style="isolation:auto;mix-blend-mode:normal;solid-color:#000;solid-opacity:1" cx="1759.594" cy="418.067" r="112.5" color="#000" overflow="visible" fill="#ffcf4a"/><circle style="isolation:auto;mix-blend-mode:normal;solid-color:#000;solid-opacity:1" cx="2219.594" cy="425.21" r="112.5" color="#000" overflow="visible" fill="#ffcf4a"/><circle r="87.61" cy="418.067" cx="1759.594" style="isolation:auto;mix-blend-mode:normal;solid-color:#000;solid-opacity:1" color="#000" overflow="visible" fill="#fff"/><ellipse cy="428.149" cx="1758.499" rx="94.287" ry="79.463" fill="#ff2a2a"/><circle r="29.61" cy="423.679" cx="1703.732" fill="#fff"/><circle r="19.427" cy="423.679" cx="1703.732" fill="#a00"/><circle r="29.61" cy="424.522" cx="1815.314" fill="#fff"/><circle r="19.427" cy="424.522" cx="1815.314" fill="#a00"/><path d="M1759.595 318.067a100 100 0 00-100.001 100 100 100 0 00100 100 100 100 0 00100-100 100 100 0 00-100-100zm0 12.389a87.61 87.61 0 0187.61 87.61 87.61 87.61 0 01-87.61 87.61 87.61 87.61 0 01-87.61-87.61 87.61 87.61 0 0187.61-87.61zm236.979 47.168l.061 32.861H1894.11v36.366h102.59l.061 32.859 88.316-51.203-88.502-50.883z" style="isolation:auto;mix-blend-mode:normal;solid-color:#000;solid-opacity:1" color="#000" overflow="visible" fill="#00a4d8"/><circle style="isolation:auto;mix-blend-mode:normal;solid-color:#000;solid-opacity:1" cx="2219.594" cy="425.21" r="87.61" color="#000" overflow="visible" fill="#fff"/><path style="isolation:auto;mix-blend-mode:normal;solid-color:#000;solid-opacity:1" d="M2219.595 325.21a100 100 0 00-100.001 100 100 100 0 00100 100 100 100 0 00100-100 100 100 0 00-100-100zm0 12.389a87.61 87.61 0 0187.61 87.61 87.61 87.61 0 01-87.61 87.61 87.61 87.61 0 01-87.61-87.61 87.61 87.61 0 0187.61-87.61z" color="#000" overflow="visible" fill="#00a4d8"/><circle r="28.776" cy="381.707" cx="2217.41" fill="#ff2a2a"/><g transform="translate(2104.313 302.281) scale(.46844)" fill="red"><circle cx="222.331" cy="158.853" r="17.361" fill="#fff"/><circle cx="222.331" cy="158.853" r="11.39" fill="#a00"/></g><g transform="translate(2104.313 302.281) scale(.46844)" fill="red"><circle cx="282.232" cy="157.594" r="17.361" fill="#fff"/><circle cx="282.232" cy="157.594" r="11.39" fill="#a00"/></g><path d="M2214.111 392.34a9.201 9.369 0 009.139 8.365 9.201 9.369 0 009.144-8.364z" fill="#fff"/><rect width="17.345" height="60.472" x="-2185.51" y="-431.044" ry="7.881" transform="scale(-1)" rx="7.881" fill="#ff2a2a"/><path d="M2172.15 430.052l3.637-59.515a7.86 7.86 0 00-7.75 7.874v44.71c0 3 1.658 5.6 4.112 6.931z" fill="#a00"/><rect width="17.345" height="60.472" x="1074.465" y="-2064.585" ry="7.881" transform="rotate(72.398)" rx="7.881" fill="#ff2a2a"/><path d="M2295.94 412.844l-57.829 14.531a7.86 7.86 0 009.85 5.006l42.617-13.521a7.863 7.863 0 005.362-6.016z" fill="#a00"/><rect width="66.92" height="85.52" x="2183.95" y="412.99" ry="24.566" rx="24.566" fill="#ff2a2a"/><path d="M2184.217 434.122a24.941 24.941 0 00-.297 3.84v36.39a24.512 24.512 0 0024.566 24.565h17.788a24.511 24.511 0 0024.565-24.566v-36.389c0-.782-.039-1.554-.11-2.317a34.016 48.892 0 01-33.144 38.08 34.016 48.892 0 01-33.368-39.603z" fill="#ad0606"/><path d="M1831.02 405.439s-29.982-5.84-33.03-42.637c0 0-7.623 42.637-27.95 40.885 0 0 24.392 14.601 26.933 44.972 0 0-.508-44.972 34.047-43.22zm432.62-.857s16.4-3.195 18.069-23.324c0 0 4.17 23.324 15.289 22.365 0 0-13.344 7.988-14.733 24.602 0 0 .278-24.602-18.625-23.643z" fill="#ffcf4a" fill-rule="evenodd"/></g><g style="line-height:.01%;-inkscape-font-specification:'Roboto Slab'"><path style="line-height:1.25;-inkscape-font-specification:'Roboto Slab'" d="M230.799 130.537v-.868h3.571v.868l-1.113.19v3.436h4.822v-3.435l-1.113-.191v-.868h3.571v.868l-1.113.19v7.834l1.113.191v.86h-3.571v-.86l1.113-.191v-3.34h-4.822v3.34l1.113.191v.86h-3.57v-.86l1.113-.191v-7.833zm15.68 9.076q-.062-.3-.096-.54-.034-.239-.048-.478-.389.499-.976.833-.58.328-1.243.328-1.154 0-1.755-.56-.601-.567-.601-1.591 0-1.052.847-1.619.853-.573 2.335-.573h1.386v-.86q0-.65-.41-1.025-.41-.383-1.14-.383-.505 0-.894.13-.383.13-.622.355l-.143.779h-1.038v-1.434q.505-.403 1.222-.642.717-.246 1.557-.246 1.257 0 2.035.642.779.642.779 1.837v3.838q.007.137.02.273l.547.075v.86zm-2.165-.984q.67 0 1.222-.32.553-.322.792-.772v-1.216h-1.434q-.826 0-1.31.382-.479.383-.479.93 0 .484.3.744.301.252.909.252zm11.808-2.431q0 1.598-.772 2.582-.765.976-2.11.976-.724 0-1.257-.273-.533-.28-.888-.82l-.123.95h-1.16v-9.595l-1.114-.192v-.867h2.459v4.139q.348-.492.86-.752.52-.26 1.209-.26 1.366 0 2.13 1.094.766 1.092.766 2.875zm-1.353-.143q0-1.277-.464-2.076-.464-.8-1.42-.8-.622 0-1.052.301-.424.3-.676.806v3.264q.252.512.683.813.437.3 1.058.3.95 0 1.407-.676.464-.676.464-1.789zm2.705 2.697l1.113-.191v-5.279l-1.113-.191v-.868h2.458v6.338l1.113.191v.86h-3.571zm2.458-8.42h-1.345v-1.373h1.345zm4.48.109v1.782h1.4v.998h-1.4v4.486q0 .52.212.731.219.212.574.212.177 0 .396-.028.225-.034.375-.068l.185.922q-.191.123-.56.198-.369.082-.738.082-.82 0-1.304-.492-.485-.498-.485-1.557v-4.486h-1.168v-.998h1.168v-1.782z" aria-label="Habit" font-weight="400" font-family="Roboto Slab" letter-spacing="0" word-spacing="0" fill="#00a4d8" font-size="125"/></g><g style="line-height:.01%;-inkscape-font-specification:'Roboto Slab'"><path style="line-height:1.25;-inkscape-font-specification:'Roboto Slab'" d="M43.642 5.862h-1.636L41.6 3.579q-.494-.418-1.317-.692-.823-.274-1.91-.274-1.723 0-2.646.735-.922.725-.922 1.9 0 1.042.933 1.745.944.691 3.041 1.218 2.525.626 3.831 1.844 1.318 1.219 1.318 3.019 0 1.932-1.581 3.107-1.57 1.174-4.117 1.174-1.844 0-3.282-.604-1.427-.603-2.327-1.58v-2.975h1.624l.418 2.294q.625.516 1.493.845.867.33 2.074.33 1.636 0 2.58-.692.955-.691.955-1.877 0-1.098-.823-1.833-.824-.747-2.91-1.252-2.535-.603-3.962-1.778T32.643 5.28q0-1.877 1.592-3.117Q35.826.91 38.373.91q1.68 0 3.052.582 1.383.57 2.217 1.394zm6.104-3.48v2.865h2.25V6.85h-2.25v7.212q0 .834.34 1.175.351.34.922.34.285 0 .637-.044.362-.055.603-.11l.297 1.482q-.308.198-.9.318-.593.132-1.186.132-1.317 0-2.097-.79-.779-.802-.779-2.503V6.85h-1.877V5.247h1.877V2.382zm12.228 14.743q-.099-.483-.153-.868-.055-.384-.077-.768-.626.801-1.57 1.34-.933.526-1.998.526-1.855 0-2.821-.9-.966-.911-.966-2.558 0-1.69 1.361-2.601 1.372-.922 3.754-.922h2.229V8.99q0-1.042-.659-1.646-.659-.615-1.833-.615-.812 0-1.438.209-.615.208-1 .57l-.23 1.252h-1.668V6.455q.812-.648 1.965-1.032 1.152-.395 2.503-.395 2.02 0 3.27 1.032 1.252 1.031 1.252 2.952v6.17q.011.22.033.439l.878.12v1.384zm-3.48-1.581q1.076 0 1.965-.516.89-.516 1.274-1.24v-1.954h-2.305q-1.329 0-2.108.614-.769.615-.769 1.493 0 .78.483 1.197.483.406 1.46.406zm7.794.198l1.79-.308V6.95l-1.79-.308V5.247h3.722l.153 1.768q.593-.945 1.482-1.46.9-.527 2.042-.527 1.921 0 2.975 1.13 1.054 1.12 1.054 3.47v5.806l1.79.308v1.383h-5.742v-1.383l1.79-.308V9.671q0-1.57-.626-2.228-.615-.659-1.889-.659-.933 0-1.657.45-.714.45-1.142 1.23v6.97l1.79.308v1.383h-5.742zm22.724-.033q-.582.812-1.428 1.23-.834.416-1.943.416-2.173 0-3.403-1.57-1.218-1.58-1.218-4.149v-.23q0-2.866 1.218-4.622 1.23-1.756 3.425-1.756 1.054 0 1.856.395.812.384 1.383 1.12V1.7l-1.79-.307V0h3.952v15.434l1.79.308v1.383h-3.667zm-5.83-4.073q0 1.79.736 2.876.735 1.087 2.272 1.087.966 0 1.625-.44.659-.438 1.087-1.24V8.41q-.417-.747-1.087-1.186-.67-.439-1.603-.439-1.548 0-2.294 1.284-.735 1.285-.735 3.337zm19.058 5.489q-.1-.483-.154-.868-.055-.384-.077-.768-.626.801-1.57 1.34-.933.526-1.998.526-1.855 0-2.821-.9-.966-.911-.966-2.558 0-1.69 1.361-2.601 1.372-.922 3.754-.922h2.229V8.99q0-1.042-.659-1.646-.659-.615-1.833-.615-.812 0-1.438.209-.615.208-1 .57l-.23 1.252H95.17V6.455q.812-.648 1.965-1.032 1.152-.395 2.503-.395 2.02 0 3.27 1.032 1.252 1.031 1.252 2.952v6.17q.011.22.033.439l.878.12v1.384zm-3.48-1.581q1.075 0 1.964-.516.89-.516 1.274-1.24v-1.954h-2.306q-1.328 0-2.107.614-.769.615-.769 1.493 0 .78.483 1.197.483.406 1.46.406zm8.112-8.903V5.247h3.721l.209 1.724q.505-.911 1.24-1.427.746-.516 1.701-.516.253 0 .516.044.275.032.418.076l-.286 2.01-1.23-.067q-.856 0-1.437.407-.582.395-.9 1.12v6.816l1.789.308v1.383h-5.741v-1.383l1.789-.308V6.95zm17.091 9.068q-.581.812-1.427 1.23-.834.416-1.943.416-2.173 0-3.403-1.57-1.218-1.58-1.218-4.149v-.23q0-2.866 1.218-4.622 1.23-1.756 3.425-1.756 1.054 0 1.855.395.813.384 1.384 1.12V1.7l-1.79-.307V0h3.952v15.434l1.79.308v1.383h-3.667zm-5.829-4.073q0 1.79.736 2.876.735 1.087 2.272 1.087.966 0 1.625-.44.659-.438 1.087-1.24V8.41q-.418-.747-1.087-1.186-.67-.439-1.603-.439-1.548 0-2.294 1.284-.736 1.285-.736 3.337zm16.686-9.1V1.142h5.741v1.394l-1.79.307v5.522h7.75V2.843l-1.788-.307V1.142h5.741v1.394l-1.79.307v12.591l1.79.308v1.383h-5.741v-1.383l1.789-.308v-5.368h-7.75v5.368l1.79.308v1.383h-5.742v-1.383l1.79-.308V2.844zm25.204 14.589q-.099-.483-.154-.868-.055-.384-.076-.768-.626.801-1.57 1.34-.933.526-1.998.526-1.855 0-2.821-.9-.966-.911-.966-2.558 0-1.69 1.36-2.601 1.373-.922 3.755-.922h2.229V8.99q0-1.042-.66-1.646-.658-.615-1.832-.615-.813 0-1.438.209-.615.208-1 .57l-.23 1.252h-1.668V6.455q.812-.648 1.965-1.032 1.152-.395 2.502-.395 2.02 0 3.272 1.032 1.251 1.031 1.251 2.952v6.17q.011.22.033.439l.878.12v1.384zm-3.48-1.581q1.076 0 1.965-.516.89-.516 1.274-1.24v-1.954h-2.306q-1.328 0-2.107.614-.769.615-.769 1.493 0 .78.483 1.197.483.406 1.46.406zm18.98-3.908q0 2.569-1.24 4.15-1.23 1.57-3.392 1.57-1.164 0-2.02-.44-.856-.45-1.427-1.317l-.198 1.526h-1.866V1.7l-1.79-.307V0h3.953v6.652q.56-.79 1.383-1.207.834-.417 1.943-.417 2.195 0 3.425 1.756t1.23 4.621zm-2.173-.23q0-2.053-.747-3.338-.746-1.284-2.283-1.284-1 0-1.69.483-.681.483-1.087 1.295v5.248q.406.823 1.097 1.306.703.483 1.702.483 1.526 0 2.261-1.087.747-1.087.747-2.876zm4.347 4.336l1.789-.308V6.95l-1.79-.308V5.247h3.952v10.187l1.79.308v1.383h-5.741zm3.951-13.536h-2.162V0h2.162zm7.201.176v2.865h2.25V6.85h-2.25v7.212q0 .834.34 1.175.352.34.923.34.285 0 .637-.044.362-.055.603-.11l.297 1.482q-.308.198-.9.318-.593.132-1.186.132-1.317 0-2.097-.79-.779-.802-.779-2.503V6.85h-1.877V5.247h1.877V2.382zm25.479 1.943l-.055-.01-5.17 12.81h-1.438l-5.17-12.8-.055.011.22 6.466v4.632l1.788.308v1.383h-5.74v-1.383l1.789-.308V2.844l-1.79-.308V1.142h4.556l5.093 12.986h.066l5.083-12.986h4.566v1.394l-1.789.307v12.591l1.79.308v1.383h-5.742v-1.383l1.79-.308v-4.632zm5.489 6.751q0-2.634 1.427-4.336 1.427-1.712 3.875-1.712 2.459 0 3.886 1.701 1.438 1.702 1.438 4.347v.242q0 2.656-1.427 4.347-1.427 1.69-3.875 1.69-2.47 0-3.897-1.69-1.427-1.702-1.427-4.347zm2.162.242q0 1.888.79 3.117.802 1.23 2.372 1.23 1.537 0 2.338-1.23.801-1.23.801-3.117v-.242q0-1.866-.801-3.106-.801-1.24-2.36-1.24-1.559 0-2.35 1.24-.79 1.24-.79 3.106zm18.431 4.391q-.582.812-1.427 1.23-.834.416-1.943.416-2.173 0-3.403-1.57-1.218-1.58-1.218-4.149v-.23q0-2.866 1.218-4.622 1.23-1.756 3.425-1.756 1.054 0 1.855.395.813.384 1.383 1.12V1.7l-1.789-.307V0h3.952v15.434l1.79.308v1.383h-3.667zm-5.829-4.073q0 1.79.736 2.876.735 1.087 2.272 1.087.966 0 1.625-.44.658-.438 1.086-1.24V8.41q-.417-.747-1.086-1.186-.67-.439-1.603-.439-1.548 0-2.294 1.284-.736 1.285-.736 3.337zm16.73 5.719q-2.481 0-3.952-1.646-1.46-1.658-1.46-4.293v-.483q0-2.535 1.504-4.215 1.515-1.69 3.578-1.69 2.393 0 3.623 1.449 1.24 1.449 1.24 3.864v1.35h-7.706l-.033.055q.033 1.712.868 2.821.834 1.098 2.338 1.098 1.097 0 1.92-.308.835-.318 1.439-.867l.845 1.405q-.637.615-1.69 1.043-1.043.417-2.514.417zm-.33-10.626q-1.086 0-1.855.922-.768.911-.944 2.294l.022.055h5.478v-.285q0-1.273-.68-2.13-.681-.856-2.02-.856zm6.686-5.335V0h3.951v15.434l1.79.308v1.383h-5.741v-1.383l1.789-.308V1.701z" font-size="180" aria-label="The Standard Habit Model" font-weight="400" font-family="Roboto Slab" letter-spacing="0" word-spacing="0" fill="#00a4d8"/></g></svg>